<?xml version="1.0" encoding="UTF-8" standalone="no"?>
<!DOCTYPE svg PUBLIC "-//W3C//DTD SVG 1.1//EN"
 "http://www.w3.org/Graphics/SVG/1.1/DTD/svg11.dtd">
<!-- Generated by graphviz version 12.2.1 (20241206.2353)
 -->
<!-- Title: include/Optimist/ScalarRootFinder/Bracketing.hh Pages: 1 -->
<svg width="302pt" height="105pt"
 viewBox="0.00 0.00 302.25 105.00" xmlns="http://www.w3.org/2000/svg" xmlns:xlink="http://www.w3.org/1999/xlink">
<g id="graph0" class="graph" transform="scale(1 1) rotate(0) translate(4 101)">
<title>include/Optimist/ScalarRootFinder/Bracketing.hh</title>
<!-- Node1 -->
<g id="Node000001" class="node">
<title>Node1</title>
<g id="a_Node000001"><a xlink:title=" ">
<polygon fill="#999999" stroke="#666666" points="216.25,-97 78,-97 78,-66.5 216.25,-66.5 216.25,-97"/>
<text text-anchor="start" x="86" y="-83.5" font-family="Helvetica,sans-Serif" font-size="10.00">include/Optimist/ScalarRoot</text>
<text text-anchor="middle" x="147.12" y="-72.25" font-family="Helvetica,sans-Serif" font-size="10.00">Finder/Bracketing.hh</text>
</a>
</g>
</g>
<!-- Node2 -->
<g id="Node000002" class="node">
<title>Node2</title>
<g id="a_Node000002"><a xlink:href="_algo748_8hh.html" target="_top" xlink:title=" ">
<polygon fill="white" stroke="#666666" points="138.25,-30.5 0,-30.5 0,0 138.25,0 138.25,-30.5"/>
<text text-anchor="start" x="8" y="-17" font-family="Helvetica,sans-Serif" font-size="10.00">include/Optimist/ScalarRoot</text>
<text text-anchor="middle" x="69.12" y="-5.75" font-family="Helvetica,sans-Serif" font-size="10.00">Finder/Algo748.hh</text>
</a>
</g>
</g>
<!-- Node1&#45;&gt;Node2 -->
<g id="edge1_Node000001_Node000002" class="edge">
<title>Node1&#45;&gt;Node2</title>
<g id="a_edge1_Node000001_Node000002"><a xlink:title=" ">
<path fill="none" stroke="#63b8ff" d="M120.84,-59.02C109.62,-49.73 96.81,-39.15 86.75,-30.83"/>
<polygon fill="#63b8ff" stroke="#63b8ff" points="118.32,-61.47 128.26,-65.15 122.78,-56.08 118.32,-61.47"/>
</a>
</g>
</g>
<!-- Node3 -->
<g id="Node000003" class="node">
<title>Node3</title>
<g id="a_Node000003"><a xlink:href="_chandrupatla_8hh.html" target="_top" xlink:title=" ">
<polygon fill="white" stroke="#666666" points="294.25,-30.5 156,-30.5 156,0 294.25,0 294.25,-30.5"/>
<text text-anchor="start" x="164" y="-17" font-family="Helvetica,sans-Serif" font-size="10.00">include/Optimist/ScalarRoot</text>
<text text-anchor="middle" x="225.12" y="-5.75" font-family="Helvetica,sans-Serif" font-size="10.00">Finder/Chandrupatla.hh</text>
</a>
</g>
</g>
<!-- Node1&#45;&gt;Node3 -->
<g id="edge2_Node000001_Node000003" class="edge">
<title>Node1&#45;&gt;Node3</title>
<g id="a_edge2_Node000001_Node000003"><a xlink:title=" ">
<path fill="none" stroke="#63b8ff" d="M173.41,-59.02C184.63,-49.73 197.44,-39.15 207.5,-30.83"/>
<polygon fill="#63b8ff" stroke="#63b8ff" points="171.47,-56.08 165.99,-65.15 175.93,-61.47 171.47,-56.08"/>
</a>
</g>
</g>
</g>
</svg>
