<?xml version="1.0" encoding="UTF-8" standalone="no"?>
<!DOCTYPE svg PUBLIC "-//W3C//DTD SVG 1.1//EN"
 "http://www.w3.org/Graphics/SVG/1.1/DTD/svg11.dtd">
<!-- Generated by graphviz version 12.2.1 (20241206.2353)
 -->
<!-- Title: include/Optimist/RootFinder/Broyden.hxx Pages: 1 -->
<svg width="146pt" height="149pt"
 viewBox="0.00 0.00 145.50 149.00" xmlns="http://www.w3.org/2000/svg" xmlns:xlink="http://www.w3.org/1999/xlink">
<g id="graph0" class="graph" transform="scale(1 1) rotate(0) translate(4 145)">
<title>include/Optimist/RootFinder/Broyden.hxx</title>
<!-- Node1 -->
<g id="Node000001" class="node">
<title>Node1</title>
<g id="a_Node000001"><a xlink:title=" ">
<polygon fill="#999999" stroke="#666666" points="137.5,-141 0,-141 0,-110.5 137.5,-110.5 137.5,-141"/>
<text text-anchor="start" x="8" y="-127.5" font-family="Helvetica,sans-Serif" font-size="10.00">include/Optimist/RootFinder</text>
<text text-anchor="middle" x="68.75" y="-116.25" font-family="Helvetica,sans-Serif" font-size="10.00">/Broyden.hxx</text>
</a>
</g>
</g>
<!-- Node2 -->
<g id="Node000002" class="node">
<title>Node2</title>
<g id="a_Node000002"><a xlink:href="_optimist_8hh.html" target="_top" xlink:title=" ">
<polygon fill="white" stroke="#666666" points="118.75,-74.5 18.75,-74.5 18.75,-55.25 118.75,-55.25 118.75,-74.5"/>
<text text-anchor="middle" x="68.75" y="-61" font-family="Helvetica,sans-Serif" font-size="10.00">include/Optimist.hh</text>
</a>
</g>
</g>
<!-- Node1&#45;&gt;Node2 -->
<g id="edge1_Node000001_Node000002" class="edge">
<title>Node1&#45;&gt;Node2</title>
<g id="a_edge1_Node000001_Node000002"><a xlink:title=" ">
<path fill="none" stroke="#63b8ff" d="M68.75,-98.73C68.75,-90.23 68.75,-81.34 68.75,-74.95"/>
<polygon fill="#63b8ff" stroke="#63b8ff" points="65.25,-98.68 68.75,-108.68 72.25,-98.68 65.25,-98.68"/>
</a>
</g>
</g>
<!-- Node3 -->
<g id="Node000003" class="node">
<title>Node3</title>
<g id="a_Node000003"><a xlink:href="_test_set_8hh.html" target="_top" xlink:title=" ">
<polygon fill="white" stroke="#666666" points="137.12,-19.25 0.38,-19.25 0.38,0 137.12,0 137.12,-19.25"/>
<text text-anchor="middle" x="68.75" y="-5.75" font-family="Helvetica,sans-Serif" font-size="10.00">include/Optimist/TestSet.hh</text>
</a>
</g>
</g>
<!-- Node2&#45;&gt;Node3 -->
<g id="edge2_Node000002_Node000003" class="edge">
<title>Node2&#45;&gt;Node3</title>
<g id="a_edge2_Node000002_Node000003"><a xlink:title=" ">
<path fill="none" stroke="#63b8ff" d="M68.75,-43.63C68.75,-35.34 68.75,-26.17 68.75,-19.61"/>
<polygon fill="#63b8ff" stroke="#63b8ff" points="65.25,-43.57 68.75,-53.57 72.25,-43.57 65.25,-43.57"/>
</a>
</g>
</g>
</g>
</svg>
