<?xml version="1.0" encoding="UTF-8" standalone="no"?>
<!DOCTYPE svg PUBLIC "-//W3C//DTD SVG 1.1//EN"
 "http://www.w3.org/Graphics/SVG/1.1/DTD/svg11.dtd">
<!-- Generated by graphviz version 14.1.4 (20260321.0153)
 -->
<!-- Title: core/include/Optimist/RootFinder/Chandrupatla.hh Pages: 1 -->
<svg width="1128pt" height="381pt"
 viewBox="0.00 0.00 1128.00 381.00" xmlns="http://www.w3.org/2000/svg" xmlns:xlink="http://www.w3.org/1999/xlink">
<g id="graph0" class="graph" transform="scale(1 1) rotate(0) translate(4 377.25)">
<title>core/include/Optimist/RootFinder/Chandrupatla.hh</title>
<!-- Node1 -->
<g id="Node000001" class="node">
<title>Node1</title>
<g id="a_Node000001"><a xlink:title=" ">
<polygon fill="#999999" stroke="#666666" points="559.5,-373.25 418.25,-373.25 418.25,-342.75 559.5,-342.75 559.5,-373.25"/>
<text xml:space="preserve" text-anchor="start" x="426.25" y="-359.75" font-family="Helvetica,sans-Serif" font-size="10.00">core/include/Optimist</text>
<text xml:space="preserve" text-anchor="middle" x="488.88" y="-348.5" font-family="Helvetica,sans-Serif" font-size="10.00">/RootFinder/Chandrupatla.hh</text>
</a>
</g>
</g>
<!-- Node2 -->
<g id="Node000002" class="node">
<title>Node2</title>
<g id="a_Node000002"><a xlink:href="_bracketing_8hh.html" target="_top" xlink:title=" ">
<polygon fill="white" stroke="#666666" points="540.75,-306.75 437,-306.75 437,-276.25 540.75,-276.25 540.75,-306.75"/>
<text xml:space="preserve" text-anchor="start" x="445" y="-293.25" font-family="Helvetica,sans-Serif" font-size="10.00">Optimist/RootFinder</text>
<text xml:space="preserve" text-anchor="middle" x="488.88" y="-282" font-family="Helvetica,sans-Serif" font-size="10.00">/Bracketing.hh</text>
</a>
</g>
</g>
<!-- Node1&#45;&gt;Node2 -->
<g id="edge1_Node000001_Node000002" class="edge">
<title>Node1&#45;&gt;Node2</title>
<g id="a_edge1_Node000001_Node000002"><a xlink:title=" ">
<path fill="none" stroke="#63b8ff" d="M488.88,-342.36C488.88,-335.27 488.88,-326.54 488.88,-318.38"/>
<polygon fill="#63b8ff" stroke="#63b8ff" points="492.38,-318.59 488.88,-308.59 485.38,-318.59 492.38,-318.59"/>
</a>
</g>
</g>
<!-- Node3 -->
<g id="Node000003" class="node">
<title>Node3</title>
<g id="a_Node000003"><a xlink:href="_root_finder_8hh.html" target="_top" xlink:title=" ">
<polygon fill="white" stroke="#666666" points="547.12,-240.25 430.62,-240.25 430.62,-221 547.12,-221 547.12,-240.25"/>
<text xml:space="preserve" text-anchor="middle" x="488.88" y="-226.75" font-family="Helvetica,sans-Serif" font-size="10.00">Optimist/RootFinder.hh</text>
</a>
</g>
</g>
<!-- Node2&#45;&gt;Node3 -->
<g id="edge2_Node000002_Node000003" class="edge">
<title>Node2&#45;&gt;Node3</title>
<g id="a_edge2_Node000002_Node000003"><a xlink:title=" ">
<path fill="none" stroke="#63b8ff" d="M488.88,-275.95C488.88,-268.71 488.88,-259.84 488.88,-251.94"/>
<polygon fill="#63b8ff" stroke="#63b8ff" points="492.38,-252.21 488.88,-242.21 485.38,-252.21 492.38,-252.21"/>
</a>
</g>
</g>
<!-- Node4 -->
<g id="Node000004" class="node">
<title>Node4</title>
<g id="a_Node000004"><a xlink:href="_solver_base_8hh.html" target="_top" xlink:title=" ">
<polygon fill="white" stroke="#666666" points="548.62,-185 429.12,-185 429.12,-165.75 548.62,-165.75 548.62,-185"/>
<text xml:space="preserve" text-anchor="middle" x="488.88" y="-171.5" font-family="Helvetica,sans-Serif" font-size="10.00">Optimist/SolverBase.hh</text>
</a>
</g>
</g>
<!-- Node3&#45;&gt;Node4 -->
<g id="edge3_Node000003_Node000004" class="edge">
<title>Node3&#45;&gt;Node4</title>
<g id="a_edge3_Node000003_Node000004"><a xlink:title=" ">
<path fill="none" stroke="#63b8ff" d="M488.88,-220.83C488.88,-214.32 488.88,-205.17 488.88,-196.87"/>
<polygon fill="#63b8ff" stroke="#63b8ff" points="492.38,-196.87 488.88,-186.87 485.38,-196.87 492.38,-196.87"/>
</a>
</g>
</g>
<!-- Node5 -->
<g id="Node000005" class="node">
<title>Node5</title>
<g id="a_Node000005"><a xlink:href="_optimist_8hh.html" target="_top" xlink:title=" ">
<polygon fill="white" stroke="#666666" points="522,-74.5 455.75,-74.5 455.75,-55.25 522,-55.25 522,-74.5"/>
<text xml:space="preserve" text-anchor="middle" x="488.88" y="-61" font-family="Helvetica,sans-Serif" font-size="10.00">Optimist.hh</text>
</a>
</g>
</g>
<!-- Node4&#45;&gt;Node5 -->
<g id="edge4_Node000004_Node000005" class="edge">
<title>Node4&#45;&gt;Node5</title>
<g id="a_edge4_Node000004_Node000005"><a xlink:title=" ">
<path fill="none" stroke="#63b8ff" d="M483.3,-165.57C478.13,-156.86 470.83,-142.95 467.88,-129.75 464.41,-114.24 470.57,-97.17 477.09,-84.57"/>
<polygon fill="#63b8ff" stroke="#63b8ff" points="480,-86.54 481.94,-76.13 473.93,-83.06 480,-86.54"/>
</a>
</g>
</g>
<!-- Node22 -->
<g id="Node000022" class="node">
<title>Node22</title>
<g id="a_Node000022"><a xlink:href="_function_8hh.html" target="_top" xlink:title=" ">
<polygon fill="white" stroke="#666666" points="583.25,-129.75 476.5,-129.75 476.5,-110.5 583.25,-110.5 583.25,-129.75"/>
<text xml:space="preserve" text-anchor="middle" x="529.88" y="-116.25" font-family="Helvetica,sans-Serif" font-size="10.00">Optimist/Function.hh</text>
</a>
</g>
</g>
<!-- Node4&#45;&gt;Node22 -->
<g id="edge21_Node000004_Node000022" class="edge">
<title>Node4&#45;&gt;Node22</title>
<g id="a_edge21_Node000004_Node000022"><a xlink:title=" ">
<path fill="none" stroke="#63b8ff" d="M495.65,-165.58C501.19,-158.38 509.22,-147.96 516.1,-139.01"/>
<polygon fill="#63b8ff" stroke="#63b8ff" points="518.71,-141.37 522.03,-131.31 513.16,-137.1 518.71,-141.37"/>
</a>
</g>
</g>
<!-- Node6 -->
<g id="Node000006" class="node">
<title>Node6</title>
<g id="a_Node000006"><a xlink:title=" ">
<polygon fill="#e0e0e0" stroke="#999999" points="55.75,-19.25 0,-19.25 0,0 55.75,0 55.75,-19.25"/>
<text xml:space="preserve" text-anchor="middle" x="27.88" y="-5.75" font-family="Helvetica,sans-Serif" font-size="10.00">algorithm</text>
</a>
</g>
</g>
<!-- Node5&#45;&gt;Node6 -->
<g id="edge5_Node000005_Node000006" class="edge">
<title>Node5&#45;&gt;Node6</title>
<g id="a_edge5_Node000005_Node000006"><a xlink:title=" ">
<path fill="none" stroke="#63b8ff" d="M455.34,-61.85C385.03,-57.28 216.95,-44.69 67.3,-19.66"/>
<polygon fill="#63b8ff" stroke="#63b8ff" points="68.04,-16.23 57.59,-18.01 66.87,-23.14 68.04,-16.23"/>
</a>
</g>
</g>
<!-- Node7 -->
<g id="Node000007" class="node">
<title>Node7</title>
<g id="a_Node000007"><a xlink:title=" ">
<polygon fill="#e0e0e0" stroke="#999999" points="116.38,-19.25 73.38,-19.25 73.38,0 116.38,0 116.38,-19.25"/>
<text xml:space="preserve" text-anchor="middle" x="94.88" y="-5.75" font-family="Helvetica,sans-Serif" font-size="10.00">cmath</text>
</a>
</g>
</g>
<!-- Node5&#45;&gt;Node7 -->
<g id="edge6_Node000005_Node000007" class="edge">
<title>Node5&#45;&gt;Node7</title>
<g id="a_edge6_Node000005_Node000007"><a xlink:title=" ">
<path fill="none" stroke="#63b8ff" d="M455.47,-61.55C392.85,-56.82 253.47,-44.5 127.69,-19.55"/>
<polygon fill="#63b8ff" stroke="#63b8ff" points="128.71,-16.19 118.21,-17.64 127.32,-23.05 128.71,-16.19"/>
</a>
</g>
</g>
<!-- Node8 -->
<g id="Node000008" class="node">
<title>Node8</title>
<g id="a_Node000008"><a xlink:title=" ">
<polygon fill="#e0e0e0" stroke="#999999" points="183.75,-19.25 134,-19.25 134,0 183.75,0 183.75,-19.25"/>
<text xml:space="preserve" text-anchor="middle" x="158.88" y="-5.75" font-family="Helvetica,sans-Serif" font-size="10.00">iomanip</text>
</a>
</g>
</g>
<!-- Node5&#45;&gt;Node8 -->
<g id="edge7_Node000005_Node000008" class="edge">
<title>Node5&#45;&gt;Node8</title>
<g id="a_edge7_Node000005_Node000008"><a xlink:title=" ">
<path fill="none" stroke="#63b8ff" d="M455.39,-59.92C402.33,-53.42 295.46,-39.38 195.3,-19.56"/>
<polygon fill="#63b8ff" stroke="#63b8ff" points="196.04,-16.14 185.55,-17.61 194.66,-23 196.04,-16.14"/>
</a>
</g>
</g>
<!-- Node9 -->
<g id="Node000009" class="node">
<title>Node9</title>
<g id="a_Node000009"><a xlink:title=" ">
<polygon fill="#e0e0e0" stroke="#999999" points="230.28,-19.25 201.47,-19.25 201.47,0 230.28,0 230.28,-19.25"/>
<text xml:space="preserve" text-anchor="middle" x="215.88" y="-5.75" font-family="Helvetica,sans-Serif" font-size="10.00">ios</text>
</a>
</g>
</g>
<!-- Node5&#45;&gt;Node9 -->
<g id="edge8_Node000005_Node000009" class="edge">
<title>Node5&#45;&gt;Node9</title>
<g id="a_edge8_Node000005_Node000009"><a xlink:title=" ">
<path fill="none" stroke="#63b8ff" d="M455.29,-59.86C408.97,-53.89 322.8,-41.27 241.29,-19.5"/>
<polygon fill="#63b8ff" stroke="#63b8ff" points="242.37,-16.16 231.8,-16.91 240.53,-22.92 242.37,-16.16"/>
</a>
</g>
</g>
<!-- Node10 -->
<g id="Node000010" class="node">
<title>Node10</title>
<g id="a_Node000010"><a xlink:title=" ">
<polygon fill="#e0e0e0" stroke="#999999" points="301.62,-19.25 248.12,-19.25 248.12,0 301.62,0 301.62,-19.25"/>
<text xml:space="preserve" text-anchor="middle" x="274.88" y="-5.75" font-family="Helvetica,sans-Serif" font-size="10.00">iostream</text>
</a>
</g>
</g>
<!-- Node5&#45;&gt;Node10 -->
<g id="edge9_Node000005_Node000010" class="edge">
<title>Node5&#45;&gt;Node10</title>
<g id="a_edge9_Node000005_Node000010"><a xlink:title=" ">
<path fill="none" stroke="#63b8ff" d="M455.44,-55.55C416.84,-45.95 353.48,-30.19 313,-20.11"/>
<polygon fill="#63b8ff" stroke="#63b8ff" points="314,-16.75 303.45,-17.73 312.31,-23.55 314,-16.75"/>
</a>
</g>
</g>
<!-- Node11 -->
<g id="Node000011" class="node">
<title>Node11</title>
<g id="a_Node000011"><a xlink:title=" ">
<polygon fill="#e0e0e0" stroke="#999999" points="358.5,-19.25 319.25,-19.25 319.25,0 358.5,0 358.5,-19.25"/>
<text xml:space="preserve" text-anchor="middle" x="338.88" y="-5.75" font-family="Helvetica,sans-Serif" font-size="10.00">limits</text>
</a>
</g>
</g>
<!-- Node5&#45;&gt;Node11 -->
<g id="edge10_Node000005_Node000011" class="edge">
<title>Node5&#45;&gt;Node11</title>
<g id="a_edge10_Node000005_Node000011"><a xlink:title=" ">
<path fill="none" stroke="#63b8ff" d="M463.43,-54.84C437.42,-45.61 397.03,-31.27 369.34,-21.44"/>
<polygon fill="#63b8ff" stroke="#63b8ff" points="370.71,-18.21 360.11,-18.16 368.36,-24.81 370.71,-18.21"/>
</a>
</g>
</g>
<!-- Node12 -->
<g id="Node000012" class="node">
<title>Node12</title>
<g id="a_Node000012"><a xlink:title=" ">
<polygon fill="#e0e0e0" stroke="#999999" points="411.25,-19.25 376.5,-19.25 376.5,0 411.25,0 411.25,-19.25"/>
<text xml:space="preserve" text-anchor="middle" x="393.88" y="-5.75" font-family="Helvetica,sans-Serif" font-size="10.00">map</text>
</a>
</g>
</g>
<!-- Node5&#45;&gt;Node12 -->
<g id="edge11_Node000005_Node000012" class="edge">
<title>Node5&#45;&gt;Node12</title>
<g id="a_edge11_Node000005_Node000012"><a xlink:title=" ">
<path fill="none" stroke="#63b8ff" d="M472.76,-54.84C458.29,-46.73 436.8,-34.68 419.89,-25.21"/>
<polygon fill="#63b8ff" stroke="#63b8ff" points="421.82,-22.28 411.39,-20.44 418.4,-28.39 421.82,-22.28"/>
</a>
</g>
</g>
<!-- Node13 -->
<g id="Node000013" class="node">
<title>Node13</title>
<g id="a_Node000013"><a xlink:title=" ">
<polygon fill="#e0e0e0" stroke="#999999" points="480.5,-19.25 429.25,-19.25 429.25,0 480.5,0 480.5,-19.25"/>
<text xml:space="preserve" text-anchor="middle" x="454.88" y="-5.75" font-family="Helvetica,sans-Serif" font-size="10.00">memory</text>
</a>
</g>
</g>
<!-- Node5&#45;&gt;Node13 -->
<g id="edge12_Node000005_Node000013" class="edge">
<title>Node5&#45;&gt;Node13</title>
<g id="a_edge12_Node000005_Node000013"><a xlink:title=" ">
<path fill="none" stroke="#63b8ff" d="M483.26,-55.08C478.76,-48.03 472.29,-37.9 466.66,-29.08"/>
<polygon fill="#63b8ff" stroke="#63b8ff" points="469.76,-27.43 461.43,-20.88 463.86,-31.2 469.76,-27.43"/>
</a>
</g>
</g>
<!-- Node14 -->
<g id="Node000014" class="node">
<title>Node14</title>
<g id="a_Node000014"><a xlink:title=" ">
<polygon fill="#e0e0e0" stroke="#999999" points="549.12,-19.25 498.62,-19.25 498.62,0 549.12,0 549.12,-19.25"/>
<text xml:space="preserve" text-anchor="middle" x="523.88" y="-5.75" font-family="Helvetica,sans-Serif" font-size="10.00">numeric</text>
</a>
</g>
</g>
<!-- Node5&#45;&gt;Node14 -->
<g id="edge13_Node000005_Node000014" class="edge">
<title>Node5&#45;&gt;Node14</title>
<g id="a_edge13_Node000005_Node000014"><a xlink:title=" ">
<path fill="none" stroke="#63b8ff" d="M494.65,-55.08C499.29,-48.03 505.95,-37.9 511.74,-29.08"/>
<polygon fill="#63b8ff" stroke="#63b8ff" points="514.57,-31.15 517.14,-20.87 508.72,-27.31 514.57,-31.15"/>
</a>
</g>
</g>
<!-- Node15 -->
<g id="Node000015" class="node">
<title>Node15</title>
<g id="a_Node000015"><a xlink:title=" ">
<polygon fill="#e0e0e0" stroke="#999999" points="606.88,-19.25 566.88,-19.25 566.88,0 606.88,0 606.88,-19.25"/>
<text xml:space="preserve" text-anchor="middle" x="586.88" y="-5.75" font-family="Helvetica,sans-Serif" font-size="10.00">string</text>
</a>
</g>
</g>
<!-- Node5&#45;&gt;Node15 -->
<g id="edge14_Node000005_Node000015" class="edge">
<title>Node5&#45;&gt;Node15</title>
<g id="a_edge14_Node000005_Node000015"><a xlink:title=" ">
<path fill="none" stroke="#63b8ff" d="M505.5,-54.84C520.56,-46.66 543.02,-34.46 560.53,-24.94"/>
<polygon fill="#63b8ff" stroke="#63b8ff" points="561.72,-28.27 568.84,-20.43 558.38,-22.12 561.72,-28.27"/>
</a>
</g>
</g>
<!-- Node16 -->
<g id="Node000016" class="node">
<title>Node16</title>
<g id="a_Node000016"><a xlink:title=" ">
<polygon fill="#e0e0e0" stroke="#999999" points="690.62,-19.25 625.12,-19.25 625.12,0 690.62,0 690.62,-19.25"/>
<text xml:space="preserve" text-anchor="middle" x="657.88" y="-5.75" font-family="Helvetica,sans-Serif" font-size="10.00">string_view</text>
</a>
</g>
</g>
<!-- Node5&#45;&gt;Node16 -->
<g id="edge15_Node000005_Node000016" class="edge">
<title>Node5&#45;&gt;Node16</title>
<g id="a_edge15_Node000005_Node000016"><a xlink:title=" ">
<path fill="none" stroke="#63b8ff" d="M517.54,-54.84C545.22,-46.12 587.36,-32.84 618.25,-23.11"/>
<polygon fill="#63b8ff" stroke="#63b8ff" points="619.14,-26.5 627.62,-20.16 617.03,-19.82 619.14,-26.5"/>
</a>
</g>
</g>
<!-- Node17 -->
<g id="Node000017" class="node">
<title>Node17</title>
<g id="a_Node000017"><a xlink:title=" ">
<polygon fill="#e0e0e0" stroke="#999999" points="770.75,-19.25 709,-19.25 709,0 770.75,0 770.75,-19.25"/>
<text xml:space="preserve" text-anchor="middle" x="739.88" y="-5.75" font-family="Helvetica,sans-Serif" font-size="10.00">type_traits</text>
</a>
</g>
</g>
<!-- Node5&#45;&gt;Node17 -->
<g id="edge16_Node000005_Node000017" class="edge">
<title>Node5&#45;&gt;Node17</title>
<g id="a_edge16_Node000005_Node000017"><a xlink:title=" ">
<path fill="none" stroke="#63b8ff" d="M522.14,-56.88C561.61,-48.58 629.71,-34.21 697.92,-19.66"/>
<polygon fill="#63b8ff" stroke="#63b8ff" points="698.34,-23.15 707.39,-17.64 696.88,-16.3 698.34,-23.15"/>
</a>
</g>
</g>
<!-- Node18 -->
<g id="Node000018" class="node">
<title>Node18</title>
<g id="a_Node000018"><a xlink:title=" ">
<polygon fill="#e0e0e0" stroke="#999999" points="831.38,-19.25 788.38,-19.25 788.38,0 831.38,0 831.38,-19.25"/>
<text xml:space="preserve" text-anchor="middle" x="809.88" y="-5.75" font-family="Helvetica,sans-Serif" font-size="10.00">vector</text>
</a>
</g>
</g>
<!-- Node5&#45;&gt;Node18 -->
<g id="edge17_Node000005_Node000018" class="edge">
<title>Node5&#45;&gt;Node18</title>
<g id="a_edge17_Node000005_Node000018"><a xlink:title=" ">
<path fill="none" stroke="#63b8ff" d="M522.3,-60.16C574.66,-54.03 679.37,-40.57 776.78,-19.71"/>
<polygon fill="#63b8ff" stroke="#63b8ff" points="777.5,-23.13 786.52,-17.59 776.01,-16.29 777.5,-23.13"/>
</a>
</g>
</g>
<!-- Node19 -->
<g id="Node000019" class="node">
<title>Node19</title>
<g id="a_Node000019"><a xlink:title=" ">
<polygon fill="#e0e0e0" stroke="#999999" points="922,-19.25 849.75,-19.25 849.75,0 922,0 922,-19.25"/>
<text xml:space="preserve" text-anchor="middle" x="885.88" y="-5.75" font-family="Helvetica,sans-Serif" font-size="10.00">Eigen/Dense</text>
</a>
</g>
</g>
<!-- Node5&#45;&gt;Node19 -->
<g id="edge18_Node000005_Node000019" class="edge">
<title>Node5&#45;&gt;Node19</title>
<g id="a_edge18_Node000005_Node000019"><a xlink:title=" ">
<path fill="none" stroke="#63b8ff" d="M522.46,-60.33C583.36,-53.76 716.29,-38.7 838.52,-19.54"/>
<polygon fill="#63b8ff" stroke="#63b8ff" points="838.74,-23.05 848.07,-18.03 837.64,-16.13 838.74,-23.05"/>
</a>
</g>
</g>
<!-- Node20 -->
<g id="Node000020" class="node">
<title>Node20</title>
<g id="a_Node000020"><a xlink:title=" ">
<polygon fill="#e0e0e0" stroke="#999999" points="1014.12,-19.25 939.62,-19.25 939.62,0 1014.12,0 1014.12,-19.25"/>
<text xml:space="preserve" text-anchor="middle" x="976.88" y="-5.75" font-family="Helvetica,sans-Serif" font-size="10.00">Eigen/Sparse</text>
</a>
</g>
</g>
<!-- Node5&#45;&gt;Node20 -->
<g id="edge19_Node000005_Node000020" class="edge">
<title>Node5&#45;&gt;Node20</title>
<g id="a_edge19_Node000005_Node000020"><a xlink:title=" ">
<path fill="none" stroke="#63b8ff" d="M522.26,-61.48C594.41,-56.08 770.45,-41.81 927.96,-19.56"/>
<polygon fill="#63b8ff" stroke="#63b8ff" points="928.36,-23.04 937.76,-18.16 927.37,-16.11 928.36,-23.04"/>
</a>
</g>
</g>
<!-- Node21 -->
<g id="Node000021" class="node">
<title>Node21</title>
<g id="a_Node000021"><a xlink:title=" ">
<polygon fill="#e0e0e0" stroke="#999999" points="1119.5,-19.25 1032.25,-19.25 1032.25,0 1119.5,0 1119.5,-19.25"/>
<text xml:space="preserve" text-anchor="middle" x="1075.88" y="-5.75" font-family="Helvetica,sans-Serif" font-size="10.00">Eigen/SparseLU</text>
</a>
</g>
</g>
<!-- Node5&#45;&gt;Node21 -->
<g id="edge20_Node000005_Node000021" class="edge">
<title>Node5&#45;&gt;Node21</title>
<g id="a_edge20_Node000005_Node000021"><a xlink:title=" ">
<path fill="none" stroke="#63b8ff" d="M522.4,-61.98C605.09,-57.13 825.66,-42.99 1020.63,-19.43"/>
<polygon fill="#63b8ff" stroke="#63b8ff" points="1020.95,-22.91 1030.45,-18.23 1020.1,-15.96 1020.95,-22.91"/>
</a>
</g>
</g>
<!-- Node22&#45;&gt;Node5 -->
<g id="edge22_Node000022_Node000005" class="edge">
<title>Node22&#45;&gt;Node5</title>
<g id="a_edge22_Node000022_Node000005"><a xlink:title=" ">
<path fill="none" stroke="#63b8ff" d="M523.1,-110.33C517.56,-103.13 509.53,-92.71 502.65,-83.76"/>
<polygon fill="#63b8ff" stroke="#63b8ff" points="505.59,-81.85 496.72,-76.06 500.04,-86.12 505.59,-81.85"/>
</a>
</g>
</g>
</g>
</svg>
