<?xml version="1.0" encoding="UTF-8" standalone="no"?>
<!DOCTYPE svg PUBLIC "-//W3C//DTD SVG 1.1//EN"
 "http://www.w3.org/Graphics/SVG/1.1/DTD/svg11.dtd">
<!-- Generated by graphviz version 12.2.1 (20241206.2353)
 -->
<!-- Title: include/Optimist/RootFinder/Chandrupatla.hh Pages: 1 -->
<svg width="711pt" height="381pt"
 viewBox="0.00 0.00 710.88 381.25" xmlns="http://www.w3.org/2000/svg" xmlns:xlink="http://www.w3.org/1999/xlink">
<g id="graph0" class="graph" transform="scale(1 1) rotate(0) translate(4 377.25)">
<title>include/Optimist/RootFinder/Chandrupatla.hh</title>
<!-- Node1 -->
<g id="Node000001" class="node">
<title>Node1</title>
<g id="a_Node000001"><a xlink:title=" ">
<polygon fill="#999999" stroke="#666666" points="395.5,-373.25 258,-373.25 258,-342.75 395.5,-342.75 395.5,-373.25"/>
<text text-anchor="start" x="266" y="-359.75" font-family="Helvetica,sans-Serif" font-size="10.00">include/Optimist/RootFinder</text>
<text text-anchor="middle" x="326.75" y="-348.5" font-family="Helvetica,sans-Serif" font-size="10.00">/Chandrupatla.hh</text>
</a>
</g>
</g>
<!-- Node2 -->
<g id="Node000002" class="node">
<title>Node2</title>
<g id="a_Node000002"><a xlink:href="_bracketing_8hh.html" target="_top" xlink:title=" ">
<polygon fill="white" stroke="#666666" points="378.62,-306.75 274.88,-306.75 274.88,-276.25 378.62,-276.25 378.62,-306.75"/>
<text text-anchor="start" x="282.88" y="-293.25" font-family="Helvetica,sans-Serif" font-size="10.00">Optimist/RootFinder</text>
<text text-anchor="middle" x="326.75" y="-282" font-family="Helvetica,sans-Serif" font-size="10.00">/Bracketing.hh</text>
</a>
</g>
</g>
<!-- Node1&#45;&gt;Node2 -->
<g id="edge1_Node000001_Node000002" class="edge">
<title>Node1&#45;&gt;Node2</title>
<g id="a_edge1_Node000001_Node000002"><a xlink:title=" ">
<path fill="none" stroke="#63b8ff" d="M326.75,-342.36C326.75,-335.27 326.75,-326.54 326.75,-318.38"/>
<polygon fill="#63b8ff" stroke="#63b8ff" points="330.25,-318.59 326.75,-308.59 323.25,-318.59 330.25,-318.59"/>
</a>
</g>
</g>
<!-- Node3 -->
<g id="Node000003" class="node">
<title>Node3</title>
<g id="a_Node000003"><a xlink:href="_root_finder_8hh.html" target="_top" xlink:title=" ">
<polygon fill="white" stroke="#666666" points="385,-240.25 268.5,-240.25 268.5,-221 385,-221 385,-240.25"/>
<text text-anchor="middle" x="326.75" y="-226.75" font-family="Helvetica,sans-Serif" font-size="10.00">Optimist/RootFinder.hh</text>
</a>
</g>
</g>
<!-- Node2&#45;&gt;Node3 -->
<g id="edge2_Node000002_Node000003" class="edge">
<title>Node2&#45;&gt;Node3</title>
<g id="a_edge2_Node000002_Node000003"><a xlink:title=" ">
<path fill="none" stroke="#63b8ff" d="M326.75,-275.95C326.75,-268.71 326.75,-259.84 326.75,-251.94"/>
<polygon fill="#63b8ff" stroke="#63b8ff" points="330.25,-252.21 326.75,-242.21 323.25,-252.21 330.25,-252.21"/>
</a>
</g>
</g>
<!-- Node4 -->
<g id="Node000004" class="node">
<title>Node4</title>
<g id="a_Node000004"><a xlink:href="_solver_8hh.html" target="_top" xlink:title=" ">
<polygon fill="white" stroke="#666666" points="374.88,-185 278.62,-185 278.62,-165.75 374.88,-165.75 374.88,-185"/>
<text text-anchor="middle" x="326.75" y="-171.5" font-family="Helvetica,sans-Serif" font-size="10.00">Optimist/Solver.hh</text>
</a>
</g>
</g>
<!-- Node3&#45;&gt;Node4 -->
<g id="edge3_Node000003_Node000004" class="edge">
<title>Node3&#45;&gt;Node4</title>
<g id="a_edge3_Node000003_Node000004"><a xlink:title=" ">
<path fill="none" stroke="#63b8ff" d="M326.75,-220.83C326.75,-214.32 326.75,-205.17 326.75,-196.87"/>
<polygon fill="#63b8ff" stroke="#63b8ff" points="330.25,-196.87 326.75,-186.87 323.25,-196.87 330.25,-196.87"/>
</a>
</g>
</g>
<!-- Node5 -->
<g id="Node000005" class="node">
<title>Node5</title>
<g id="a_Node000005"><a xlink:href="_optimist_8hh.html" target="_top" xlink:title=" ">
<polygon fill="white" stroke="#666666" points="359.88,-74.5 293.62,-74.5 293.62,-55.25 359.88,-55.25 359.88,-74.5"/>
<text text-anchor="middle" x="326.75" y="-61" font-family="Helvetica,sans-Serif" font-size="10.00">Optimist.hh</text>
</a>
</g>
</g>
<!-- Node4&#45;&gt;Node5 -->
<g id="edge4_Node000004_Node000005" class="edge">
<title>Node4&#45;&gt;Node5</title>
<g id="a_edge4_Node000004_Node000005"><a xlink:title=" ">
<path fill="none" stroke="#63b8ff" d="M323.2,-165.33C318.8,-153 312.15,-130.19 314.75,-110.5 315.84,-102.25 318.01,-93.37 320.22,-85.71"/>
<polygon fill="#63b8ff" stroke="#63b8ff" points="323.48,-87 323.1,-76.41 316.8,-84.92 323.48,-87"/>
</a>
</g>
</g>
<!-- Node17 -->
<g id="Node000017" class="node">
<title>Node17</title>
<g id="a_Node000017"><a xlink:href="_function_8hh.html" target="_top" xlink:title=" ">
<polygon fill="white" stroke="#666666" points="391.25,-129.75 324.25,-129.75 324.25,-110.5 391.25,-110.5 391.25,-129.75"/>
<text text-anchor="middle" x="357.75" y="-116.25" font-family="Helvetica,sans-Serif" font-size="10.00">Function.hh</text>
</a>
</g>
</g>
<!-- Node4&#45;&gt;Node17 -->
<g id="edge16_Node000004_Node000017" class="edge">
<title>Node4&#45;&gt;Node17</title>
<g id="a_edge16_Node000004_Node000017"><a xlink:title=" ">
<path fill="none" stroke="#63b8ff" d="M331.87,-165.58C335.93,-158.61 341.74,-148.62 346.84,-139.87"/>
<polygon fill="#63b8ff" stroke="#63b8ff" points="349.75,-141.82 351.76,-131.42 343.7,-138.3 349.75,-141.82"/>
</a>
</g>
</g>
<!-- Node6 -->
<g id="Node000006" class="node">
<title>Node6</title>
<g id="a_Node000006"><a xlink:title=" ">
<polygon fill="#e0e0e0" stroke="#999999" points="53.5,-19.25 0,-19.25 0,0 53.5,0 53.5,-19.25"/>
<text text-anchor="middle" x="26.75" y="-5.75" font-family="Helvetica,sans-Serif" font-size="10.00">iostream</text>
</a>
</g>
</g>
<!-- Node5&#45;&gt;Node6 -->
<g id="edge5_Node000005_Node000006" class="edge">
<title>Node5&#45;&gt;Node6</title>
<g id="a_edge5_Node000005_Node000006"><a xlink:title=" ">
<path fill="none" stroke="#63b8ff" d="M293.28,-58.96C245.09,-51.72 153.13,-37.32 65.1,-19.61"/>
<polygon fill="#63b8ff" stroke="#63b8ff" points="65.81,-16.18 55.32,-17.62 64.42,-23.04 65.81,-16.18"/>
</a>
</g>
</g>
<!-- Node7 -->
<g id="Node000007" class="node">
<title>Node7</title>
<g id="a_Node000007"><a xlink:title=" ">
<polygon fill="#e0e0e0" stroke="#999999" points="100.15,-19.25 71.35,-19.25 71.35,0 100.15,0 100.15,-19.25"/>
<text text-anchor="middle" x="85.75" y="-5.75" font-family="Helvetica,sans-Serif" font-size="10.00">ios</text>
</a>
</g>
</g>
<!-- Node5&#45;&gt;Node7 -->
<g id="edge6_Node000005_Node000007" class="edge">
<title>Node5&#45;&gt;Node7</title>
<g id="a_edge6_Node000005_Node000007"><a xlink:title=" ">
<path fill="none" stroke="#63b8ff" d="M293.49,-58.74C252.5,-52.04 180.62,-39.14 110.94,-19.52"/>
<polygon fill="#63b8ff" stroke="#63b8ff" points="112.27,-16.26 101.69,-16.87 110.34,-22.99 112.27,-16.26"/>
</a>
</g>
</g>
<!-- Node8 -->
<g id="Node000008" class="node">
<title>Node8</title>
<g id="a_Node000008"><a xlink:title=" ">
<polygon fill="#e0e0e0" stroke="#999999" points="167.62,-19.25 117.88,-19.25 117.88,0 167.62,0 167.62,-19.25"/>
<text text-anchor="middle" x="142.75" y="-5.75" font-family="Helvetica,sans-Serif" font-size="10.00">iomanip</text>
</a>
</g>
</g>
<!-- Node5&#45;&gt;Node8 -->
<g id="edge7_Node000005_Node000008" class="edge">
<title>Node5&#45;&gt;Node8</title>
<g id="a_edge7_Node000005_Node000008"><a xlink:title=" ">
<path fill="none" stroke="#63b8ff" d="M295.54,-54.84C263.2,-45.48 212.74,-30.88 178.74,-21.04"/>
<polygon fill="#63b8ff" stroke="#63b8ff" points="179.93,-17.74 169.35,-18.32 177.98,-24.47 179.93,-17.74"/>
</a>
</g>
</g>
<!-- Node9 -->
<g id="Node000009" class="node">
<title>Node9</title>
<g id="a_Node000009"><a xlink:title=" ">
<polygon fill="#e0e0e0" stroke="#999999" points="225.75,-19.25 185.75,-19.25 185.75,0 225.75,0 225.75,-19.25"/>
<text text-anchor="middle" x="205.75" y="-5.75" font-family="Helvetica,sans-Serif" font-size="10.00">string</text>
</a>
</g>
</g>
<!-- Node5&#45;&gt;Node9 -->
<g id="edge8_Node000005_Node000009" class="edge">
<title>Node5&#45;&gt;Node9</title>
<g id="a_edge8_Node000005_Node000009"><a xlink:title=" ">
<path fill="none" stroke="#63b8ff" d="M306.22,-54.84C287.07,-46.41 258.25,-33.73 236.38,-24.11"/>
<polygon fill="#63b8ff" stroke="#63b8ff" points="237.92,-20.96 227.36,-20.13 235.1,-27.37 237.92,-20.96"/>
</a>
</g>
</g>
<!-- Node10 -->
<g id="Node000010" class="node">
<title>Node10</title>
<g id="a_Node000010"><a xlink:title=" ">
<polygon fill="#e0e0e0" stroke="#999999" points="287.25,-19.25 244.25,-19.25 244.25,0 287.25,0 287.25,-19.25"/>
<text text-anchor="middle" x="265.75" y="-5.75" font-family="Helvetica,sans-Serif" font-size="10.00">cmath</text>
</a>
</g>
</g>
<!-- Node5&#45;&gt;Node10 -->
<g id="edge9_Node000005_Node000010" class="edge">
<title>Node5&#45;&gt;Node10</title>
<g id="a_edge9_Node000005_Node000010"><a xlink:title=" ">
<path fill="none" stroke="#63b8ff" d="M316.4,-54.84C307.67,-47.22 294.96,-36.12 284.45,-26.95"/>
<polygon fill="#63b8ff" stroke="#63b8ff" points="286.92,-24.46 277.09,-20.52 282.32,-29.73 286.92,-24.46"/>
</a>
</g>
</g>
<!-- Node11 -->
<g id="Node000011" class="node">
<title>Node11</title>
<g id="a_Node000011"><a xlink:title=" ">
<polygon fill="#e0e0e0" stroke="#999999" points="348.25,-19.25 305.25,-19.25 305.25,0 348.25,0 348.25,-19.25"/>
<text text-anchor="middle" x="326.75" y="-5.75" font-family="Helvetica,sans-Serif" font-size="10.00">vector</text>
</a>
</g>
</g>
<!-- Node5&#45;&gt;Node11 -->
<g id="edge10_Node000005_Node000011" class="edge">
<title>Node5&#45;&gt;Node11</title>
<g id="a_edge10_Node000005_Node000011"><a xlink:title=" ">
<path fill="none" stroke="#63b8ff" d="M326.75,-55.08C326.75,-48.57 326.75,-39.42 326.75,-31.12"/>
<polygon fill="#63b8ff" stroke="#63b8ff" points="330.25,-31.12 326.75,-21.12 323.25,-31.12 330.25,-31.12"/>
</a>
</g>
</g>
<!-- Node12 -->
<g id="Node000012" class="node">
<title>Node12</title>
<g id="a_Node000012"><a xlink:title=" ">
<polygon fill="#e0e0e0" stroke="#999999" points="401.12,-19.25 366.38,-19.25 366.38,0 401.12,0 401.12,-19.25"/>
<text text-anchor="middle" x="383.75" y="-5.75" font-family="Helvetica,sans-Serif" font-size="10.00">map</text>
</a>
</g>
</g>
<!-- Node5&#45;&gt;Node12 -->
<g id="edge11_Node000005_Node000012" class="edge">
<title>Node5&#45;&gt;Node12</title>
<g id="a_edge11_Node000005_Node000012"><a xlink:title=" ">
<path fill="none" stroke="#63b8ff" d="M336.42,-54.84C344.49,-47.3 356.22,-36.35 365.97,-27.23"/>
<polygon fill="#63b8ff" stroke="#63b8ff" points="368.2,-29.94 373.12,-20.56 363.42,-24.83 368.2,-29.94"/>
</a>
</g>
</g>
<!-- Node13 -->
<g id="Node000013" class="node">
<title>Node13</title>
<g id="a_Node000013"><a xlink:title=" ">
<polygon fill="#e0e0e0" stroke="#999999" points="470.38,-19.25 419.12,-19.25 419.12,0 470.38,0 470.38,-19.25"/>
<text text-anchor="middle" x="444.75" y="-5.75" font-family="Helvetica,sans-Serif" font-size="10.00">memory</text>
</a>
</g>
</g>
<!-- Node5&#45;&gt;Node13 -->
<g id="edge12_Node000005_Node000013" class="edge">
<title>Node5&#45;&gt;Node13</title>
<g id="a_edge12_Node000005_Node000013"><a xlink:title=" ">
<path fill="none" stroke="#63b8ff" d="M346.77,-54.84C365.24,-46.5 392.96,-34 414.2,-24.41"/>
<polygon fill="#63b8ff" stroke="#63b8ff" points="415.58,-27.63 423.26,-20.33 412.7,-21.25 415.58,-27.63"/>
</a>
</g>
</g>
<!-- Node14 -->
<g id="Node000014" class="node">
<title>Node14</title>
<g id="a_Node000014"><a xlink:title=" ">
<polygon fill="#e0e0e0" stroke="#999999" points="539,-19.25 488.5,-19.25 488.5,0 539,0 539,-19.25"/>
<text text-anchor="middle" x="513.75" y="-5.75" font-family="Helvetica,sans-Serif" font-size="10.00">numeric</text>
</a>
</g>
</g>
<!-- Node5&#45;&gt;Node14 -->
<g id="edge13_Node000005_Node000014" class="edge">
<title>Node5&#45;&gt;Node14</title>
<g id="a_edge13_Node000005_Node000014"><a xlink:title=" ">
<path fill="none" stroke="#63b8ff" d="M358.47,-54.84C391.33,-45.48 442.62,-30.88 477.17,-21.04"/>
<polygon fill="#63b8ff" stroke="#63b8ff" points="478.08,-24.42 486.74,-18.32 476.16,-17.69 478.08,-24.42"/>
</a>
</g>
</g>
<!-- Node15 -->
<g id="Node000015" class="node">
<title>Node15</title>
<g id="a_Node000015"><a xlink:title=" ">
<polygon fill="#e0e0e0" stroke="#999999" points="612.62,-19.25 556.88,-19.25 556.88,0 612.62,0 612.62,-19.25"/>
<text text-anchor="middle" x="584.75" y="-5.75" font-family="Helvetica,sans-Serif" font-size="10.00">algorithm</text>
</a>
</g>
</g>
<!-- Node5&#45;&gt;Node15 -->
<g id="edge14_Node000005_Node000015" class="edge">
<title>Node5&#45;&gt;Node15</title>
<g id="a_edge14_Node000005_Node000015"><a xlink:title=" ">
<path fill="none" stroke="#63b8ff" d="M360.14,-57.45C401.35,-49.46 473.86,-35.17 545.47,-19.7"/>
<polygon fill="#63b8ff" stroke="#63b8ff" points="545.98,-23.17 555.01,-17.63 544.49,-16.33 545.98,-23.17"/>
</a>
</g>
</g>
<!-- Node16 -->
<g id="Node000016" class="node">
<title>Node16</title>
<g id="a_Node000016"><a xlink:title=" ">
<polygon fill="#e0e0e0" stroke="#999999" points="702.88,-19.25 630.62,-19.25 630.62,0 702.88,0 702.88,-19.25"/>
<text text-anchor="middle" x="666.75" y="-5.75" font-family="Helvetica,sans-Serif" font-size="10.00">Eigen/Dense</text>
</a>
</g>
</g>
<!-- Node5&#45;&gt;Node16 -->
<g id="edge15_Node000005_Node000016" class="edge">
<title>Node5&#45;&gt;Node16</title>
<g id="a_edge15_Node000005_Node000016"><a xlink:title=" ">
<path fill="none" stroke="#63b8ff" d="M360,-59.28C412.72,-51.9 519,-36.64 619.19,-19.63"/>
<polygon fill="#63b8ff" stroke="#63b8ff" points="619.66,-23.1 628.93,-17.97 618.48,-16.2 619.66,-23.1"/>
</a>
</g>
</g>
<!-- Node17&#45;&gt;Node5 -->
<g id="edge17_Node000017_Node000005" class="edge">
<title>Node17&#45;&gt;Node5</title>
<g id="a_edge17_Node000017_Node000005"><a xlink:title=" ">
<path fill="none" stroke="#63b8ff" d="M352.63,-110.33C348.57,-103.36 342.76,-93.37 337.66,-84.62"/>
<polygon fill="#63b8ff" stroke="#63b8ff" points="340.8,-83.05 332.74,-76.17 334.75,-86.57 340.8,-83.05"/>
</a>
</g>
</g>
</g>
</svg>
