<?xml version="1.0" encoding="UTF-8" standalone="no"?>
<!DOCTYPE svg PUBLIC "-//W3C//DTD SVG 1.1//EN"
 "http://www.w3.org/Graphics/SVG/1.1/DTD/svg11.dtd">
<!-- Generated by graphviz version 12.2.1 (20241206.2353)
 -->
<!-- Title: include/Optimist/Function/CostFunction.hh Pages: 1 -->
<svg width="332pt" height="105pt"
 viewBox="0.00 0.00 331.50 105.00" xmlns="http://www.w3.org/2000/svg" xmlns:xlink="http://www.w3.org/1999/xlink">
<g id="graph0" class="graph" transform="scale(1 1) rotate(0) translate(4 101)">
<title>include/Optimist/Function/CostFunction.hh</title>
<!-- Node1 -->
<g id="Node000001" class="node">
<title>Node1</title>
<g id="a_Node000001"><a xlink:title=" ">
<polygon fill="#999999" stroke="#666666" points="233,-97 106,-97 106,-66.5 233,-66.5 233,-97"/>
<text text-anchor="start" x="114" y="-83.5" font-family="Helvetica,sans-Serif" font-size="10.00">include/Optimist/Function</text>
<text text-anchor="middle" x="169.5" y="-72.25" font-family="Helvetica,sans-Serif" font-size="10.00">/CostFunction.hh</text>
</a>
</g>
</g>
<!-- Node2 -->
<g id="Node000002" class="node">
<title>Node2</title>
<g id="a_Node000002"><a xlink:href="_elliptic_paraboloid_8hh.html" target="_top" xlink:title=" ">
<polygon fill="white" stroke="#666666" points="169,-30.5 0,-30.5 0,0 169,0 169,-30.5"/>
<text text-anchor="start" x="8" y="-17" font-family="Helvetica,sans-Serif" font-size="10.00">include/Optimist/TestSet</text>
<text text-anchor="middle" x="84.5" y="-5.75" font-family="Helvetica,sans-Serif" font-size="10.00">/CostFunction/EllipticParaboloid.hh</text>
</a>
</g>
</g>
<!-- Node1&#45;&gt;Node2 -->
<g id="edge1_Node000001_Node000002" class="edge">
<title>Node1&#45;&gt;Node2</title>
<g id="a_edge1_Node000001_Node000002"><a xlink:title=" ">
<path fill="none" stroke="#63b8ff" d="M141.22,-59.29C128.9,-49.94 114.78,-39.23 103.71,-30.83"/>
<polygon fill="#63b8ff" stroke="#63b8ff" points="138.92,-61.94 149.01,-65.2 143.16,-56.37 138.92,-61.94"/>
</a>
</g>
</g>
<!-- Node3 -->
<g id="Node000003" class="node">
<title>Node3</title>
<g id="a_Node000003"><a xlink:href="_schaffer2_8hh.html" target="_top" xlink:title=" ">
<polygon fill="white" stroke="#666666" points="323.5,-30.5 187.5,-30.5 187.5,0 323.5,0 323.5,-30.5"/>
<text text-anchor="start" x="195.5" y="-17" font-family="Helvetica,sans-Serif" font-size="10.00">include/Optimist/TestSet</text>
<text text-anchor="middle" x="255.5" y="-5.75" font-family="Helvetica,sans-Serif" font-size="10.00">/CostFunction/Schaffer2.hh</text>
</a>
</g>
</g>
<!-- Node1&#45;&gt;Node3 -->
<g id="edge2_Node000001_Node000003" class="edge">
<title>Node1&#45;&gt;Node3</title>
<g id="a_edge2_Node000001_Node000003"><a xlink:title=" ">
<path fill="none" stroke="#63b8ff" d="M198.11,-59.29C210.57,-49.94 224.86,-39.23 236.06,-30.83"/>
<polygon fill="#63b8ff" stroke="#63b8ff" points="196.13,-56.41 190.23,-65.21 200.33,-62.01 196.13,-56.41"/>
</a>
</g>
</g>
</g>
</svg>
