<?xml version="1.0" encoding="UTF-8" standalone="no"?>
<!DOCTYPE svg PUBLIC "-//W3C//DTD SVG 1.1//EN"
 "http://www.w3.org/Graphics/SVG/1.1/DTD/svg11.dtd">
<!-- Generated by graphviz version 14.0.5 (20251129.0259)
 -->
<!-- Title: include/Optimist/Function.hh Pages: 1 -->
<svg width="2233pt" height="282pt"
 viewBox="0.00 0.00 2233.00 282.00" xmlns="http://www.w3.org/2000/svg" xmlns:xlink="http://www.w3.org/1999/xlink">
<g id="graph0" class="graph" transform="scale(1 1) rotate(0) translate(4 278)">
<title>include/Optimist/Function.hh</title>
<!-- Node1 -->
<g id="Node000001" class="node">
<title>Node1</title>
<g id="a_Node000001"><a xlink:title=" ">
<polygon fill="#999999" stroke="#666666" points="1458,-274 1317.5,-274 1317.5,-254.75 1458,-254.75 1458,-274"/>
<text xml:space="preserve" text-anchor="middle" x="1387.75" y="-260.5" font-family="Helvetica,sans-Serif" font-size="10.00">include/Optimist/Function.hh</text>
</a>
</g>
</g>
<!-- Node2 -->
<g id="Node000002" class="node">
<title>Node2</title>
<g id="a_Node000002"><a xlink:href="_solver_base_8hh.html" target="_top" xlink:title=" ">
<polygon fill="white" stroke="#666666" points="674.38,-213.12 521.12,-213.12 521.12,-193.88 674.38,-193.88 674.38,-213.12"/>
<text xml:space="preserve" text-anchor="middle" x="597.75" y="-199.62" font-family="Helvetica,sans-Serif" font-size="10.00">include/Optimist/SolverBase.hh</text>
</a>
</g>
</g>
<!-- Node1&#45;&gt;Node2 -->
<g id="edge1_Node000001_Node000002" class="edge">
<title>Node1&#45;&gt;Node2</title>
<g id="a_edge1_Node000001_Node000002"><a xlink:title=" ">
<path fill="none" stroke="#63b8ff" d="M1306.09,-260.93C1174.49,-256.39 907.53,-244.64 682.75,-218.75 671.01,-217.4 658.42,-215.52 646.62,-213.58"/>
<polygon fill="#63b8ff" stroke="#63b8ff" points="1305.62,-264.42 1315.73,-261.26 1305.85,-257.42 1305.62,-264.42"/>
</a>
</g>
</g>
<!-- Node19 -->
<g id="Node000019" class="node">
<title>Node19</title>
<g id="a_Node000019"><a xlink:href="_booth_8hh.html" target="_top" xlink:title=" ">
<polygon fill="white" stroke="#666666" points="815.38,-218.75 692.12,-218.75 692.12,-188.25 815.38,-188.25 815.38,-218.75"/>
<text xml:space="preserve" text-anchor="start" x="700.12" y="-205.25" font-family="Helvetica,sans-Serif" font-size="10.00">include/Optimist/TestSet</text>
<text xml:space="preserve" text-anchor="middle" x="753.75" y="-194" font-family="Helvetica,sans-Serif" font-size="10.00">/Booth.hh</text>
</a>
</g>
</g>
<!-- Node1&#45;&gt;Node19 -->
<g id="edge18_Node000001_Node000019" class="edge">
<title>Node1&#45;&gt;Node19</title>
<g id="a_edge18_Node000001_Node000019"><a xlink:title=" ">
<path fill="none" stroke="#63b8ff" d="M1305.77,-260.02C1195.7,-254.81 994.25,-242.76 823.75,-218.75 821.05,-218.37 818.29,-217.95 815.52,-217.5"/>
<polygon fill="#63b8ff" stroke="#63b8ff" points="1305.44,-263.51 1315.59,-260.48 1305.77,-256.52 1305.44,-263.51"/>
</a>
</g>
</g>
<!-- Node21 -->
<g id="Node000021" class="node">
<title>Node21</title>
<g id="a_Node000021"><a xlink:href="_brown_8hh.html" target="_top" xlink:title=" ">
<polygon fill="white" stroke="#666666" points="956.38,-218.75 833.12,-218.75 833.12,-188.25 956.38,-188.25 956.38,-218.75"/>
<text xml:space="preserve" text-anchor="start" x="841.12" y="-205.25" font-family="Helvetica,sans-Serif" font-size="10.00">include/Optimist/TestSet</text>
<text xml:space="preserve" text-anchor="middle" x="894.75" y="-194" font-family="Helvetica,sans-Serif" font-size="10.00">/Brown.hh</text>
</a>
</g>
</g>
<!-- Node1&#45;&gt;Node21 -->
<g id="edge20_Node000001_Node000021" class="edge">
<title>Node1&#45;&gt;Node21</title>
<g id="a_edge20_Node000001_Node000021"><a xlink:title=" ">
<path fill="none" stroke="#63b8ff" d="M1305.68,-257.06C1220.24,-249.94 1082.67,-236.93 964.75,-218.75 962.05,-218.33 959.3,-217.88 956.53,-217.41"/>
<polygon fill="#63b8ff" stroke="#63b8ff" points="1305.37,-260.55 1315.62,-257.88 1305.94,-253.57 1305.37,-260.55"/>
</a>
</g>
</g>
<!-- Node22 -->
<g id="Node000022" class="node">
<title>Node22</title>
<g id="a_Node000022"><a xlink:href="_cos_8hh.html" target="_top" xlink:title=" ">
<polygon fill="white" stroke="#666666" points="1097.38,-218.75 974.12,-218.75 974.12,-188.25 1097.38,-188.25 1097.38,-218.75"/>
<text xml:space="preserve" text-anchor="start" x="982.12" y="-205.25" font-family="Helvetica,sans-Serif" font-size="10.00">include/Optimist/TestSet</text>
<text xml:space="preserve" text-anchor="middle" x="1035.75" y="-194" font-family="Helvetica,sans-Serif" font-size="10.00">/Cos.hh</text>
</a>
</g>
</g>
<!-- Node1&#45;&gt;Node22 -->
<g id="edge22_Node000001_Node000022" class="edge">
<title>Node1&#45;&gt;Node22</title>
<g id="a_edge22_Node000001_Node000022"><a xlink:title=" ">
<path fill="none" stroke="#63b8ff" d="M1314.1,-252.63C1257.12,-244.09 1176.29,-231.5 1105.75,-218.75 1103.07,-218.26 1100.32,-217.76 1097.56,-217.24"/>
<polygon fill="#63b8ff" stroke="#63b8ff" points="1313.27,-256.04 1323.68,-254.05 1314.3,-249.12 1313.27,-256.04"/>
</a>
</g>
</g>
<!-- Node23 -->
<g id="Node000023" class="node">
<title>Node23</title>
<g id="a_Node000023"><a xlink:href="_cosh_8hh.html" target="_top" xlink:title=" ">
<polygon fill="white" stroke="#666666" points="1238.38,-218.75 1115.12,-218.75 1115.12,-188.25 1238.38,-188.25 1238.38,-218.75"/>
<text xml:space="preserve" text-anchor="start" x="1123.12" y="-205.25" font-family="Helvetica,sans-Serif" font-size="10.00">include/Optimist/TestSet</text>
<text xml:space="preserve" text-anchor="middle" x="1176.75" y="-194" font-family="Helvetica,sans-Serif" font-size="10.00">/Cosh.hh</text>
</a>
</g>
</g>
<!-- Node1&#45;&gt;Node23 -->
<g id="edge24_Node000001_Node000023" class="edge">
<title>Node1&#45;&gt;Node23</title>
<g id="a_edge24_Node000001_Node000023"><a xlink:title=" ">
<path fill="none" stroke="#63b8ff" d="M1344.47,-251.3C1311.13,-242 1264.9,-229.1 1229.41,-219.19"/>
<polygon fill="#63b8ff" stroke="#63b8ff" points="1343.21,-254.58 1353.79,-253.9 1345.09,-247.84 1343.21,-254.58"/>
</a>
</g>
</g>
<!-- Node24 -->
<g id="Node000024" class="node">
<title>Node24</title>
<g id="a_Node000024"><a xlink:href="_elliptic_paraboloid_8hh.html" target="_top" xlink:title=" ">
<polygon fill="white" stroke="#666666" points="1379.38,-218.75 1256.12,-218.75 1256.12,-188.25 1379.38,-188.25 1379.38,-218.75"/>
<text xml:space="preserve" text-anchor="start" x="1264.12" y="-205.25" font-family="Helvetica,sans-Serif" font-size="10.00">include/Optimist/TestSet</text>
<text xml:space="preserve" text-anchor="middle" x="1317.75" y="-194" font-family="Helvetica,sans-Serif" font-size="10.00">/EllipticParaboloid.hh</text>
</a>
</g>
</g>
<!-- Node1&#45;&gt;Node24 -->
<g id="edge26_Node000001_Node000024" class="edge">
<title>Node1&#45;&gt;Node24</title>
<g id="a_edge26_Node000001_Node000024"><a xlink:title=" ">
<path fill="none" stroke="#63b8ff" d="M1368.33,-247.04C1357.89,-238.26 1345.12,-227.52 1335.03,-219.03"/>
<polygon fill="#63b8ff" stroke="#63b8ff" points="1366.05,-249.7 1375.96,-253.46 1370.56,-244.34 1366.05,-249.7"/>
</a>
</g>
</g>
<!-- Node25 -->
<g id="Node000025" class="node">
<title>Node25</title>
<g id="a_Node000025"><a xlink:href="_linear_8hh.html" target="_top" xlink:title=" ">
<polygon fill="white" stroke="#666666" points="1520.38,-218.75 1397.12,-218.75 1397.12,-188.25 1520.38,-188.25 1520.38,-218.75"/>
<text xml:space="preserve" text-anchor="start" x="1405.12" y="-205.25" font-family="Helvetica,sans-Serif" font-size="10.00">include/Optimist/TestSet</text>
<text xml:space="preserve" text-anchor="middle" x="1458.75" y="-194" font-family="Helvetica,sans-Serif" font-size="10.00">/Linear.hh</text>
</a>
</g>
</g>
<!-- Node1&#45;&gt;Node25 -->
<g id="edge28_Node000001_Node000025" class="edge">
<title>Node1&#45;&gt;Node25</title>
<g id="a_edge28_Node000001_Node000025"><a xlink:title=" ">
<path fill="none" stroke="#63b8ff" d="M1407.13,-247.31C1417.78,-238.48 1430.88,-227.61 1441.23,-219.03"/>
<polygon fill="#63b8ff" stroke="#63b8ff" points="1405.16,-244.39 1399.7,-253.47 1409.63,-249.78 1405.16,-244.39"/>
</a>
</g>
</g>
<!-- Node26 -->
<g id="Node000026" class="node">
<title>Node26</title>
<g id="a_Node000026"><a xlink:href="_quadratic_8hh.html" target="_top" xlink:title=" ">
<polygon fill="white" stroke="#666666" points="1661.38,-218.75 1538.12,-218.75 1538.12,-188.25 1661.38,-188.25 1661.38,-218.75"/>
<text xml:space="preserve" text-anchor="start" x="1546.12" y="-205.25" font-family="Helvetica,sans-Serif" font-size="10.00">include/Optimist/TestSet</text>
<text xml:space="preserve" text-anchor="middle" x="1599.75" y="-194" font-family="Helvetica,sans-Serif" font-size="10.00">/Quadratic.hh</text>
</a>
</g>
</g>
<!-- Node1&#45;&gt;Node26 -->
<g id="edge30_Node000001_Node000026" class="edge">
<title>Node1&#45;&gt;Node26</title>
<g id="a_edge30_Node000001_Node000026"><a xlink:title=" ">
<path fill="none" stroke="#63b8ff" d="M1431.24,-251.3C1464.73,-242 1511.18,-229.1 1546.84,-219.19"/>
<polygon fill="#63b8ff" stroke="#63b8ff" points="1430.57,-247.85 1421.87,-253.9 1432.44,-254.6 1430.57,-247.85"/>
</a>
</g>
</g>
<!-- Node27 -->
<g id="Node000027" class="node">
<title>Node27</title>
<g id="a_Node000027"><a xlink:href="_rosenbrock_8hh.html" target="_top" xlink:title=" ">
<polygon fill="white" stroke="#666666" points="1802.38,-218.75 1679.12,-218.75 1679.12,-188.25 1802.38,-188.25 1802.38,-218.75"/>
<text xml:space="preserve" text-anchor="start" x="1687.12" y="-205.25" font-family="Helvetica,sans-Serif" font-size="10.00">include/Optimist/TestSet</text>
<text xml:space="preserve" text-anchor="middle" x="1740.75" y="-194" font-family="Helvetica,sans-Serif" font-size="10.00">/Rosenbrock.hh</text>
</a>
</g>
</g>
<!-- Node1&#45;&gt;Node27 -->
<g id="edge32_Node000001_Node000027" class="edge">
<title>Node1&#45;&gt;Node27</title>
<g id="a_edge32_Node000001_Node000027"><a xlink:title=" ">
<path fill="none" stroke="#63b8ff" d="M1461.66,-252.64C1518.85,-244.11 1599.97,-231.53 1670.75,-218.75 1673.44,-218.27 1676.18,-217.76 1678.94,-217.24"/>
<polygon fill="#63b8ff" stroke="#63b8ff" points="1461.42,-249.14 1452.05,-254.07 1462.45,-256.06 1461.42,-249.14"/>
</a>
</g>
</g>
<!-- Node28 -->
<g id="Node000028" class="node">
<title>Node28</title>
<g id="a_Node000028"><a xlink:href="_schaffer2_8hh.html" target="_top" xlink:title=" ">
<polygon fill="white" stroke="#666666" points="1943.38,-218.75 1820.12,-218.75 1820.12,-188.25 1943.38,-188.25 1943.38,-218.75"/>
<text xml:space="preserve" text-anchor="start" x="1828.12" y="-205.25" font-family="Helvetica,sans-Serif" font-size="10.00">include/Optimist/TestSet</text>
<text xml:space="preserve" text-anchor="middle" x="1881.75" y="-194" font-family="Helvetica,sans-Serif" font-size="10.00">/Schaffer2.hh</text>
</a>
</g>
</g>
<!-- Node1&#45;&gt;Node28 -->
<g id="edge34_Node000001_Node000028" class="edge">
<title>Node1&#45;&gt;Node28</title>
<g id="a_edge34_Node000001_Node000028"><a xlink:title=" ">
<path fill="none" stroke="#63b8ff" d="M1469.63,-257.1C1555.25,-250 1693.38,-236.98 1811.75,-218.75 1814.45,-218.33 1817.2,-217.89 1819.97,-217.41"/>
<polygon fill="#63b8ff" stroke="#63b8ff" points="1469.35,-253.61 1459.67,-257.92 1469.93,-260.59 1469.35,-253.61"/>
</a>
</g>
</g>
<!-- Node29 -->
<g id="Node000029" class="node">
<title>Node29</title>
<g id="a_Node000029"><a xlink:href="_sin_8hh.html" target="_top" xlink:title=" ">
<polygon fill="white" stroke="#666666" points="2084.38,-218.75 1961.12,-218.75 1961.12,-188.25 2084.38,-188.25 2084.38,-218.75"/>
<text xml:space="preserve" text-anchor="start" x="1969.12" y="-205.25" font-family="Helvetica,sans-Serif" font-size="10.00">include/Optimist/TestSet</text>
<text xml:space="preserve" text-anchor="middle" x="2022.75" y="-194" font-family="Helvetica,sans-Serif" font-size="10.00">/Sin.hh</text>
</a>
</g>
</g>
<!-- Node1&#45;&gt;Node29 -->
<g id="edge36_Node000001_Node000029" class="edge">
<title>Node1&#45;&gt;Node29</title>
<g id="a_edge36_Node000001_Node000029"><a xlink:title=" ">
<path fill="none" stroke="#63b8ff" d="M1469.42,-260.05C1579.58,-254.86 1781.71,-242.82 1952.75,-218.75 1955.45,-218.37 1958.21,-217.95 1960.98,-217.5"/>
<polygon fill="#63b8ff" stroke="#63b8ff" points="1469.41,-256.55 1459.59,-260.51 1469.74,-263.54 1469.41,-256.55"/>
</a>
</g>
</g>
<!-- Node30 -->
<g id="Node000030" class="node">
<title>Node30</title>
<g id="a_Node000030"><a xlink:href="_sinh_8hh.html" target="_top" xlink:title=" ">
<polygon fill="white" stroke="#666666" points="2225.38,-218.75 2102.12,-218.75 2102.12,-188.25 2225.38,-188.25 2225.38,-218.75"/>
<text xml:space="preserve" text-anchor="start" x="2110.12" y="-205.25" font-family="Helvetica,sans-Serif" font-size="10.00">include/Optimist/TestSet</text>
<text xml:space="preserve" text-anchor="middle" x="2163.75" y="-194" font-family="Helvetica,sans-Serif" font-size="10.00">/Sinh.hh</text>
</a>
</g>
</g>
<!-- Node1&#45;&gt;Node30 -->
<g id="edge38_Node000001_Node000030" class="edge">
<title>Node1&#45;&gt;Node30</title>
<g id="a_edge38_Node000001_Node000030"><a xlink:title=" ">
<path fill="none" stroke="#63b8ff" d="M1469.64,-261.85C1601.58,-258.58 1869.13,-248.57 2093.75,-218.75 2096.45,-218.39 2099.21,-217.99 2101.99,-217.55"/>
<polygon fill="#63b8ff" stroke="#63b8ff" points="1469.88,-258.35 1459.97,-262.09 1470.05,-265.35 1469.88,-258.35"/>
</a>
</g>
</g>
<!-- Node3 -->
<g id="Node000003" class="node">
<title>Node3</title>
<g id="a_Node000003"><a xlink:href="_optimizer_8hh.html" target="_top" xlink:title=" ">
<polygon fill="white" stroke="#666666" points="362.88,-152.25 218.62,-152.25 218.62,-133 362.88,-133 362.88,-152.25"/>
<text xml:space="preserve" text-anchor="middle" x="290.75" y="-138.75" font-family="Helvetica,sans-Serif" font-size="10.00">include/Optimist/Optimizer.hh</text>
</a>
</g>
</g>
<!-- Node2&#45;&gt;Node3 -->
<g id="edge2_Node000002_Node000003" class="edge">
<title>Node2&#45;&gt;Node3</title>
<g id="a_edge2_Node000002_Node000003"><a xlink:title=" ">
<path fill="none" stroke="#63b8ff" d="M539.2,-191.27C480.8,-180.07 392.21,-163.08 338.1,-152.71"/>
<polygon fill="#63b8ff" stroke="#63b8ff" points="538.49,-194.7 548.97,-193.14 539.81,-187.82 538.49,-194.7"/>
</a>
</g>
</g>
<!-- Node7 -->
<g id="Node000007" class="node">
<title>Node7</title>
<g id="a_Node000007"><a xlink:href="_root_finder_8hh.html" target="_top" xlink:title=" ">
<polygon fill="white" stroke="#666666" points="983.88,-152.25 833.62,-152.25 833.62,-133 983.88,-133 983.88,-152.25"/>
<text xml:space="preserve" text-anchor="middle" x="908.75" y="-138.75" font-family="Helvetica,sans-Serif" font-size="10.00">include/Optimist/RootFinder.hh</text>
</a>
</g>
</g>
<!-- Node2&#45;&gt;Node7 -->
<g id="edge6_Node000002_Node000007" class="edge">
<title>Node2&#45;&gt;Node7</title>
<g id="a_edge6_Node000002_Node000007"><a xlink:title=" ">
<path fill="none" stroke="#63b8ff" d="M656.7,-191.34C715.85,-180.14 805.86,-163.1 860.78,-152.71"/>
<polygon fill="#63b8ff" stroke="#63b8ff" points="656.32,-187.85 647.15,-193.15 657.63,-194.73 656.32,-187.85"/>
</a>
</g>
</g>
<!-- Node4 -->
<g id="Node000004" class="node">
<title>Node4</title>
<g id="a_Node000004"><a xlink:href="_nelder_mead_8hh.html" target="_top" xlink:title=" ">
<polygon fill="white" stroke="#666666" points="131.5,-97 0,-97 0,-66.5 131.5,-66.5 131.5,-97"/>
<text xml:space="preserve" text-anchor="start" x="8" y="-83.5" font-family="Helvetica,sans-Serif" font-size="10.00">include/Optimist/Optimizer</text>
<text xml:space="preserve" text-anchor="middle" x="65.75" y="-72.25" font-family="Helvetica,sans-Serif" font-size="10.00">/NelderMead.hh</text>
</a>
</g>
</g>
<!-- Node3&#45;&gt;Node4 -->
<g id="edge3_Node000003_Node000004" class="edge">
<title>Node3&#45;&gt;Node4</title>
<g id="a_edge3_Node000003_Node000004"><a xlink:title=" ">
<path fill="none" stroke="#63b8ff" d="M245.06,-129.67C209.47,-120.36 159.91,-107.39 121.91,-97.44"/>
<polygon fill="#63b8ff" stroke="#63b8ff" points="244.06,-133.03 254.62,-132.17 245.83,-126.25 244.06,-133.03"/>
</a>
</g>
</g>
<!-- Node5 -->
<g id="Node000005" class="node">
<title>Node5</title>
<g id="a_Node000005"><a xlink:href="_particle_swarm_8hh.html" target="_top" xlink:title=" ">
<polygon fill="white" stroke="#666666" points="281.5,-97 150,-97 150,-66.5 281.5,-66.5 281.5,-97"/>
<text xml:space="preserve" text-anchor="start" x="158" y="-83.5" font-family="Helvetica,sans-Serif" font-size="10.00">include/Optimist/Optimizer</text>
<text xml:space="preserve" text-anchor="middle" x="215.75" y="-72.25" font-family="Helvetica,sans-Serif" font-size="10.00">/ParticleSwarm.hh</text>
</a>
</g>
</g>
<!-- Node3&#45;&gt;Node5 -->
<g id="edge4_Node000003_Node000005" class="edge">
<title>Node3&#45;&gt;Node5</title>
<g id="a_edge4_Node000003_Node000005"><a xlink:title=" ">
<path fill="none" stroke="#63b8ff" d="M270.62,-125.82C259.31,-116.95 245.3,-105.94 234.26,-97.28"/>
<polygon fill="#63b8ff" stroke="#63b8ff" points="268.14,-128.33 278.17,-131.75 272.46,-122.82 268.14,-128.33"/>
</a>
</g>
</g>
<!-- Node6 -->
<g id="Node000006" class="node">
<title>Node6</title>
<g id="a_Node000006"><a xlink:href="_pattern_search_8hh.html" target="_top" xlink:title=" ">
<polygon fill="white" stroke="#666666" points="431.5,-97 300,-97 300,-66.5 431.5,-66.5 431.5,-97"/>
<text xml:space="preserve" text-anchor="start" x="308" y="-83.5" font-family="Helvetica,sans-Serif" font-size="10.00">include/Optimist/Optimizer</text>
<text xml:space="preserve" text-anchor="middle" x="365.75" y="-72.25" font-family="Helvetica,sans-Serif" font-size="10.00">/PatternSearch.hh</text>
</a>
</g>
</g>
<!-- Node3&#45;&gt;Node6 -->
<g id="edge5_Node000003_Node000006" class="edge">
<title>Node3&#45;&gt;Node6</title>
<g id="a_edge5_Node000003_Node000006"><a xlink:title=" ">
<path fill="none" stroke="#63b8ff" d="M310.88,-125.82C322.19,-116.95 336.2,-105.94 347.24,-97.28"/>
<polygon fill="#63b8ff" stroke="#63b8ff" points="309.04,-122.82 303.33,-131.75 313.36,-128.33 309.04,-122.82"/>
</a>
</g>
</g>
<!-- Node8 -->
<g id="Node000008" class="node">
<title>Node8</title>
<g id="a_Node000008"><a xlink:href="_bracketing_8hh.html" target="_top" xlink:title=" ">
<polygon fill="white" stroke="#666666" points="587.5,-97 450,-97 450,-66.5 587.5,-66.5 587.5,-97"/>
<text xml:space="preserve" text-anchor="start" x="458" y="-83.5" font-family="Helvetica,sans-Serif" font-size="10.00">include/Optimist/RootFinder</text>
<text xml:space="preserve" text-anchor="middle" x="518.75" y="-72.25" font-family="Helvetica,sans-Serif" font-size="10.00">/Bracketing.hh</text>
</a>
</g>
</g>
<!-- Node7&#45;&gt;Node8 -->
<g id="edge7_Node000007_Node000008" class="edge">
<title>Node7&#45;&gt;Node8</title>
<g id="a_edge7_Node000007_Node000008"><a xlink:title=" ">
<path fill="none" stroke="#63b8ff" d="M828.48,-131.01C765.39,-122.46 675.34,-109.79 596.75,-97 593.76,-96.51 590.71,-96.01 587.63,-95.48"/>
<polygon fill="#63b8ff" stroke="#63b8ff" points="827.67,-134.43 838.05,-132.3 828.6,-127.5 827.67,-134.43"/>
</a>
</g>
</g>
<!-- Node11 -->
<g id="Node000011" class="node">
<title>Node11</title>
<g id="a_Node000011"><a xlink:href="_chebyshev_8hh.html" target="_top" xlink:title=" ">
<polygon fill="white" stroke="#666666" points="743.5,-97 606,-97 606,-66.5 743.5,-66.5 743.5,-97"/>
<text xml:space="preserve" text-anchor="start" x="614" y="-83.5" font-family="Helvetica,sans-Serif" font-size="10.00">include/Optimist/RootFinder</text>
<text xml:space="preserve" text-anchor="middle" x="674.75" y="-72.25" font-family="Helvetica,sans-Serif" font-size="10.00">/Chebyshev.hh</text>
</a>
</g>
</g>
<!-- Node7&#45;&gt;Node11 -->
<g id="edge10_Node000007_Node000011" class="edge">
<title>Node7&#45;&gt;Node11</title>
<g id="a_edge10_Node000007_Node000011"><a xlink:title=" ">
<path fill="none" stroke="#63b8ff" d="M861.71,-129.79C824.67,-120.47 772.85,-107.43 733.15,-97.44"/>
<polygon fill="#63b8ff" stroke="#63b8ff" points="860.68,-133.14 871.23,-132.19 862.39,-126.35 860.68,-133.14"/>
</a>
</g>
</g>
<!-- Node12 -->
<g id="Node000012" class="node">
<title>Node12</title>
<g id="a_Node000012"><a xlink:href="_halley_8hh.html" target="_top" xlink:title=" ">
<polygon fill="white" stroke="#666666" points="899.5,-97 762,-97 762,-66.5 899.5,-66.5 899.5,-97"/>
<text xml:space="preserve" text-anchor="start" x="770" y="-83.5" font-family="Helvetica,sans-Serif" font-size="10.00">include/Optimist/RootFinder</text>
<text xml:space="preserve" text-anchor="middle" x="830.75" y="-72.25" font-family="Helvetica,sans-Serif" font-size="10.00">/Halley.hh</text>
</a>
</g>
</g>
<!-- Node7&#45;&gt;Node12 -->
<g id="edge11_Node000007_Node000012" class="edge">
<title>Node7&#45;&gt;Node12</title>
<g id="a_edge11_Node000007_Node000012"><a xlink:title=" ">
<path fill="none" stroke="#63b8ff" d="M887.82,-125.82C876.05,-116.95 861.48,-105.94 850,-97.28"/>
<polygon fill="#63b8ff" stroke="#63b8ff" points="885.61,-128.54 895.7,-131.77 889.82,-122.95 885.61,-128.54"/>
</a>
</g>
</g>
<!-- Node13 -->
<g id="Node000013" class="node">
<title>Node13</title>
<g id="a_Node000013"><a xlink:href="_newton_8hh.html" target="_top" xlink:title=" ">
<polygon fill="white" stroke="#666666" points="1055.5,-97 918,-97 918,-66.5 1055.5,-66.5 1055.5,-97"/>
<text xml:space="preserve" text-anchor="start" x="926" y="-83.5" font-family="Helvetica,sans-Serif" font-size="10.00">include/Optimist/RootFinder</text>
<text xml:space="preserve" text-anchor="middle" x="986.75" y="-72.25" font-family="Helvetica,sans-Serif" font-size="10.00">/Newton.hh</text>
</a>
</g>
</g>
<!-- Node7&#45;&gt;Node13 -->
<g id="edge12_Node000007_Node000013" class="edge">
<title>Node7&#45;&gt;Node13</title>
<g id="a_edge12_Node000007_Node000013"><a xlink:title=" ">
<path fill="none" stroke="#63b8ff" d="M929.68,-125.82C941.45,-116.95 956.02,-105.94 967.5,-97.28"/>
<polygon fill="#63b8ff" stroke="#63b8ff" points="927.68,-122.95 921.8,-131.77 931.89,-128.54 927.68,-122.95"/>
</a>
</g>
</g>
<!-- Node14 -->
<g id="Node000014" class="node">
<title>Node14</title>
<g id="a_Node000014"><a xlink:href="_newton_raphson_8hh.html" target="_top" xlink:title=" ">
<polygon fill="white" stroke="#666666" points="1211.5,-97 1074,-97 1074,-66.5 1211.5,-66.5 1211.5,-97"/>
<text xml:space="preserve" text-anchor="start" x="1082" y="-83.5" font-family="Helvetica,sans-Serif" font-size="10.00">include/Optimist/RootFinder</text>
<text xml:space="preserve" text-anchor="middle" x="1142.75" y="-72.25" font-family="Helvetica,sans-Serif" font-size="10.00">/NewtonRaphson.hh</text>
</a>
</g>
</g>
<!-- Node7&#45;&gt;Node14 -->
<g id="edge13_Node000007_Node000014" class="edge">
<title>Node7&#45;&gt;Node14</title>
<g id="a_edge13_Node000007_Node000014"><a xlink:title=" ">
<path fill="none" stroke="#63b8ff" d="M955.79,-129.79C992.83,-120.47 1044.65,-107.43 1084.35,-97.44"/>
<polygon fill="#63b8ff" stroke="#63b8ff" points="955.11,-126.35 946.27,-132.19 956.82,-133.14 955.11,-126.35"/>
</a>
</g>
</g>
<!-- Node15 -->
<g id="Node000015" class="node">
<title>Node15</title>
<g id="a_Node000015"><a xlink:href="_quasi_newton_8hh.html" target="_top" xlink:title=" ">
<polygon fill="white" stroke="#666666" points="1367.5,-97 1230,-97 1230,-66.5 1367.5,-66.5 1367.5,-97"/>
<text xml:space="preserve" text-anchor="start" x="1238" y="-83.5" font-family="Helvetica,sans-Serif" font-size="10.00">include/Optimist/RootFinder</text>
<text xml:space="preserve" text-anchor="middle" x="1298.75" y="-72.25" font-family="Helvetica,sans-Serif" font-size="10.00">/QuasiNewton.hh</text>
</a>
</g>
</g>
<!-- Node7&#45;&gt;Node15 -->
<g id="edge14_Node000007_Node000015" class="edge">
<title>Node7&#45;&gt;Node15</title>
<g id="a_edge14_Node000007_Node000015"><a xlink:title=" ">
<path fill="none" stroke="#63b8ff" d="M989.02,-131.01C1052.11,-122.46 1142.16,-109.79 1220.75,-97 1223.74,-96.51 1226.79,-96.01 1229.87,-95.48"/>
<polygon fill="#63b8ff" stroke="#63b8ff" points="988.9,-127.5 979.45,-132.3 989.83,-134.43 988.9,-127.5"/>
</a>
</g>
</g>
<!-- Node18 -->
<g id="Node000018" class="node">
<title>Node18</title>
<g id="a_Node000018"><a xlink:href="_varona_8hh.html" target="_top" xlink:title=" ">
<polygon fill="white" stroke="#666666" points="1523.5,-97 1386,-97 1386,-66.5 1523.5,-66.5 1523.5,-97"/>
<text xml:space="preserve" text-anchor="start" x="1394" y="-83.5" font-family="Helvetica,sans-Serif" font-size="10.00">include/Optimist/RootFinder</text>
<text xml:space="preserve" text-anchor="middle" x="1454.75" y="-72.25" font-family="Helvetica,sans-Serif" font-size="10.00">/Varona.hh</text>
</a>
</g>
</g>
<!-- Node7&#45;&gt;Node18 -->
<g id="edge17_Node000007_Node000018" class="edge">
<title>Node7&#45;&gt;Node18</title>
<g id="a_edge17_Node000007_Node000018"><a xlink:title=" ">
<path fill="none" stroke="#63b8ff" d="M995.83,-135.56C1090,-128.49 1244.43,-115.36 1376.75,-97 1379.75,-96.58 1382.81,-96.13 1385.9,-95.66"/>
<polygon fill="#63b8ff" stroke="#63b8ff" points="995.59,-132.07 985.87,-136.3 996.11,-139.05 995.59,-132.07"/>
</a>
</g>
</g>
<!-- Node9 -->
<g id="Node000009" class="node">
<title>Node9</title>
<g id="a_Node000009"><a xlink:href="_algo748_8hh.html" target="_top" xlink:title=" ">
<polygon fill="white" stroke="#666666" points="509.5,-30.5 372,-30.5 372,0 509.5,0 509.5,-30.5"/>
<text xml:space="preserve" text-anchor="start" x="380" y="-17" font-family="Helvetica,sans-Serif" font-size="10.00">include/Optimist/RootFinder</text>
<text xml:space="preserve" text-anchor="middle" x="440.75" y="-5.75" font-family="Helvetica,sans-Serif" font-size="10.00">/Algo748.hh</text>
</a>
</g>
</g>
<!-- Node8&#45;&gt;Node9 -->
<g id="edge8_Node000008_Node000009" class="edge">
<title>Node8&#45;&gt;Node9</title>
<g id="a_edge8_Node000008_Node000009"><a xlink:title=" ">
<path fill="none" stroke="#63b8ff" d="M492.47,-59.02C481.24,-49.73 468.44,-39.15 458.38,-30.83"/>
<polygon fill="#63b8ff" stroke="#63b8ff" points="489.95,-61.47 499.88,-65.15 494.41,-56.08 489.95,-61.47"/>
</a>
</g>
</g>
<!-- Node10 -->
<g id="Node000010" class="node">
<title>Node10</title>
<g id="a_Node000010"><a xlink:href="_chandrupatla_8hh.html" target="_top" xlink:title=" ">
<polygon fill="white" stroke="#666666" points="665.5,-30.5 528,-30.5 528,0 665.5,0 665.5,-30.5"/>
<text xml:space="preserve" text-anchor="start" x="536" y="-17" font-family="Helvetica,sans-Serif" font-size="10.00">include/Optimist/RootFinder</text>
<text xml:space="preserve" text-anchor="middle" x="596.75" y="-5.75" font-family="Helvetica,sans-Serif" font-size="10.00">/Chandrupatla.hh</text>
</a>
</g>
</g>
<!-- Node8&#45;&gt;Node10 -->
<g id="edge9_Node000008_Node000010" class="edge">
<title>Node8&#45;&gt;Node10</title>
<g id="a_edge9_Node000008_Node000010"><a xlink:title=" ">
<path fill="none" stroke="#63b8ff" d="M545.03,-59.02C556.26,-49.73 569.06,-39.15 579.12,-30.83"/>
<polygon fill="#63b8ff" stroke="#63b8ff" points="543.09,-56.08 537.62,-65.15 547.55,-61.47 543.09,-56.08"/>
</a>
</g>
</g>
<!-- Node16 -->
<g id="Node000016" class="node">
<title>Node16</title>
<g id="a_Node000016"><a xlink:href="_broyden_8hh.html" target="_top" xlink:title=" ">
<polygon fill="white" stroke="#666666" points="1289.5,-30.5 1152,-30.5 1152,0 1289.5,0 1289.5,-30.5"/>
<text xml:space="preserve" text-anchor="start" x="1160" y="-17" font-family="Helvetica,sans-Serif" font-size="10.00">include/Optimist/RootFinder</text>
<text xml:space="preserve" text-anchor="middle" x="1220.75" y="-5.75" font-family="Helvetica,sans-Serif" font-size="10.00">/Broyden.hh</text>
</a>
</g>
</g>
<!-- Node15&#45;&gt;Node16 -->
<g id="edge15_Node000015_Node000016" class="edge">
<title>Node15&#45;&gt;Node16</title>
<g id="a_edge15_Node000015_Node000016"><a xlink:title=" ">
<path fill="none" stroke="#63b8ff" d="M1272.47,-59.02C1261.24,-49.73 1248.44,-39.15 1238.38,-30.83"/>
<polygon fill="#63b8ff" stroke="#63b8ff" points="1269.95,-61.47 1279.88,-65.15 1274.41,-56.08 1269.95,-61.47"/>
</a>
</g>
</g>
<!-- Node17 -->
<g id="Node000017" class="node">
<title>Node17</title>
<g id="a_Node000017"><a xlink:href="_greenstadt_8hh.html" target="_top" xlink:title=" ">
<polygon fill="white" stroke="#666666" points="1445.5,-30.5 1308,-30.5 1308,0 1445.5,0 1445.5,-30.5"/>
<text xml:space="preserve" text-anchor="start" x="1316" y="-17" font-family="Helvetica,sans-Serif" font-size="10.00">include/Optimist/RootFinder</text>
<text xml:space="preserve" text-anchor="middle" x="1376.75" y="-5.75" font-family="Helvetica,sans-Serif" font-size="10.00">/Greenstadt.hh</text>
</a>
</g>
</g>
<!-- Node15&#45;&gt;Node17 -->
<g id="edge16_Node000015_Node000017" class="edge">
<title>Node15&#45;&gt;Node17</title>
<g id="a_edge16_Node000015_Node000017"><a xlink:title=" ">
<path fill="none" stroke="#63b8ff" d="M1325.03,-59.02C1336.26,-49.73 1349.06,-39.15 1359.12,-30.83"/>
<polygon fill="#63b8ff" stroke="#63b8ff" points="1323.09,-56.08 1317.62,-65.15 1327.55,-61.47 1323.09,-56.08"/>
</a>
</g>
</g>
<!-- Node20 -->
<g id="Node000020" class="node">
<title>Node20</title>
<g id="a_Node000020"><a xlink:href="_test_set_8hh.html" target="_top" xlink:title=" ">
<polygon fill="white" stroke="#666666" points="1527.12,-152.25 1390.38,-152.25 1390.38,-133 1527.12,-133 1527.12,-152.25"/>
<text xml:space="preserve" text-anchor="middle" x="1458.75" y="-138.75" font-family="Helvetica,sans-Serif" font-size="10.00">include/Optimist/TestSet.hh</text>
</a>
</g>
</g>
<!-- Node19&#45;&gt;Node20 -->
<g id="edge19_Node000019_Node000020" class="edge">
<title>Node19&#45;&gt;Node20</title>
<g id="a_edge19_Node000019_Node000020"><a xlink:title=" ">
<path fill="none" stroke="#63b8ff" d="M826.79,-187.95C1037.36,-159.91 1275.66,-149.29 1390.32,-145.5"/>
<polygon fill="#63b8ff" stroke="#63b8ff" points="826.45,-184.46 817.01,-189.27 827.39,-191.4 826.45,-184.46"/>
</a>
</g>
</g>
<!-- Node21&#45;&gt;Node20 -->
<g id="edge21_Node000021_Node000020" class="edge">
<title>Node21&#45;&gt;Node20</title>
<g id="a_edge21_Node000021_Node000020"><a xlink:title=" ">
<path fill="none" stroke="#63b8ff" d="M967.75,-187.91C1124.11,-165.53 1296.73,-153.11 1390.14,-147.41"/>
<polygon fill="#63b8ff" stroke="#63b8ff" points="967.41,-184.42 958.02,-189.32 968.42,-191.35 967.41,-184.42"/>
</a>
</g>
</g>
<!-- Node22&#45;&gt;Node20 -->
<g id="edge23_Node000022_Node000020" class="edge">
<title>Node22&#45;&gt;Node20</title>
<g id="a_edge23_Node000022_Node000020"><a xlink:title=" ">
<path fill="none" stroke="#63b8ff" d="M1108.82,-187.82C1212.2,-171.09 1321.42,-158.24 1390.2,-150.75"/>
<polygon fill="#63b8ff" stroke="#63b8ff" points="1108.34,-184.35 1099.03,-189.42 1109.47,-191.26 1108.34,-184.35"/>
</a>
</g>
</g>
<!-- Node23&#45;&gt;Node20 -->
<g id="edge25_Node000023_Node000020" class="edge">
<title>Node23&#45;&gt;Node20</title>
<g id="a_edge25_Node000023_Node000020"><a xlink:title=" ">
<path fill="none" stroke="#63b8ff" d="M1249.58,-187.3C1302.1,-176.33 1371.25,-161.89 1415.37,-152.68"/>
<polygon fill="#63b8ff" stroke="#63b8ff" points="1249.19,-183.8 1240.12,-189.27 1250.62,-190.65 1249.19,-183.8"/>
</a>
</g>
</g>
<!-- Node24&#45;&gt;Node20 -->
<g id="edge27_Node000024_Node000020" class="edge">
<title>Node24&#45;&gt;Node20</title>
<g id="a_edge27_Node000024_Node000020"><a xlink:title=" ">
<path fill="none" stroke="#63b8ff" d="M1363.58,-183.36C1388.29,-173.05 1417.62,-160.8 1437.13,-152.65"/>
<polygon fill="#63b8ff" stroke="#63b8ff" points="1362.24,-180.13 1354.36,-187.21 1364.94,-186.59 1362.24,-180.13"/>
</a>
</g>
</g>
<!-- Node25&#45;&gt;Node20 -->
<g id="edge29_Node000025_Node000020" class="edge">
<title>Node25&#45;&gt;Node20</title>
<g id="a_edge29_Node000025_Node000020"><a xlink:title=" ">
<path fill="none" stroke="#63b8ff" d="M1458.75,-176.48C1458.75,-167.98 1458.75,-159.09 1458.75,-152.7"/>
<polygon fill="#63b8ff" stroke="#63b8ff" points="1455.25,-176.43 1458.75,-186.43 1462.25,-176.43 1455.25,-176.43"/>
</a>
</g>
</g>
<!-- Node26&#45;&gt;Node20 -->
<g id="edge31_Node000026_Node000020" class="edge">
<title>Node26&#45;&gt;Node20</title>
<g id="a_edge31_Node000026_Node000020"><a xlink:title=" ">
<path fill="none" stroke="#63b8ff" d="M1553.92,-183.36C1529.21,-173.05 1499.88,-160.8 1480.37,-152.65"/>
<polygon fill="#63b8ff" stroke="#63b8ff" points="1552.56,-186.59 1563.14,-187.21 1555.26,-180.13 1552.56,-186.59"/>
</a>
</g>
</g>
<!-- Node27&#45;&gt;Node20 -->
<g id="edge33_Node000027_Node000020" class="edge">
<title>Node27&#45;&gt;Node20</title>
<g id="a_edge33_Node000027_Node000020"><a xlink:title=" ">
<path fill="none" stroke="#63b8ff" d="M1667.92,-187.3C1615.4,-176.33 1546.25,-161.89 1502.13,-152.68"/>
<polygon fill="#63b8ff" stroke="#63b8ff" points="1666.88,-190.65 1677.38,-189.27 1668.31,-183.8 1666.88,-190.65"/>
</a>
</g>
</g>
<!-- Node28&#45;&gt;Node20 -->
<g id="edge35_Node000028_Node000020" class="edge">
<title>Node28&#45;&gt;Node20</title>
<g id="a_edge35_Node000028_Node000020"><a xlink:title=" ">
<path fill="none" stroke="#63b8ff" d="M1808.68,-187.82C1705.3,-171.09 1596.08,-158.24 1527.3,-150.75"/>
<polygon fill="#63b8ff" stroke="#63b8ff" points="1808.03,-191.26 1818.47,-189.42 1809.16,-184.35 1808.03,-191.26"/>
</a>
</g>
</g>
<!-- Node29&#45;&gt;Node20 -->
<g id="edge37_Node000029_Node000020" class="edge">
<title>Node29&#45;&gt;Node20</title>
<g id="a_edge37_Node000029_Node000020"><a xlink:title=" ">
<path fill="none" stroke="#63b8ff" d="M1949.75,-187.91C1793.39,-165.53 1620.77,-153.11 1527.36,-147.41"/>
<polygon fill="#63b8ff" stroke="#63b8ff" points="1949.08,-191.35 1959.48,-189.32 1950.09,-184.42 1949.08,-191.35"/>
</a>
</g>
</g>
<!-- Node30&#45;&gt;Node20 -->
<g id="edge39_Node000030_Node000020" class="edge">
<title>Node30&#45;&gt;Node20</title>
<g id="a_edge39_Node000030_Node000020"><a xlink:title=" ">
<path fill="none" stroke="#63b8ff" d="M2090.71,-187.95C1880.14,-159.91 1641.84,-149.29 1527.18,-145.5"/>
<polygon fill="#63b8ff" stroke="#63b8ff" points="2090.11,-191.4 2100.49,-189.27 2091.05,-184.46 2090.11,-191.4"/>
</a>
</g>
</g>
</g>
</svg>
