<?xml version="1.0" encoding="UTF-8" standalone="no"?>
<!DOCTYPE svg PUBLIC "-//W3C//DTD SVG 1.1//EN"
 "http://www.w3.org/Graphics/SVG/1.1/DTD/svg11.dtd">
<!-- Generated by graphviz version 12.2.1 (20241206.2353)
 -->
<!-- Title: include/Optimist/Function.hh Pages: 1 -->
<svg width="2759pt" height="293pt"
 viewBox="0.00 0.00 2759.25 293.25" xmlns="http://www.w3.org/2000/svg" xmlns:xlink="http://www.w3.org/1999/xlink">
<g id="graph0" class="graph" transform="scale(1 1) rotate(0) translate(4 289.25)">
<title>include/Optimist/Function.hh</title>
<!-- Node1 -->
<g id="Node000001" class="node">
<title>Node1</title>
<g id="a_Node000001"><a xlink:title=" ">
<polygon fill="#999999" stroke="#666666" points="1128.75,-285.25 988.25,-285.25 988.25,-266 1128.75,-266 1128.75,-285.25"/>
<text text-anchor="middle" x="1058.5" y="-271.75" font-family="Helvetica,sans-Serif" font-size="10.00">include/Optimist/Function.hh</text>
</a>
</g>
</g>
<!-- Node2 -->
<g id="Node000002" class="node">
<title>Node2</title>
<g id="a_Node000002"><a xlink:href="_cost_function_8hh.html" target="_top" xlink:title=" ">
<polygon fill="white" stroke="#666666" points="319,-230 192,-230 192,-199.5 319,-199.5 319,-230"/>
<text text-anchor="start" x="200" y="-216.5" font-family="Helvetica,sans-Serif" font-size="10.00">include/Optimist/Function</text>
<text text-anchor="middle" x="255.5" y="-205.25" font-family="Helvetica,sans-Serif" font-size="10.00">/CostFunction.hh</text>
</a>
</g>
</g>
<!-- Node1&#45;&gt;Node2 -->
<g id="edge1_Node000001_Node000002" class="edge">
<title>Node1&#45;&gt;Node2</title>
<g id="a_edge1_Node000001_Node000002"><a xlink:title=" ">
<path fill="none" stroke="#63b8ff" d="M976.74,-268.63C816.49,-256.88 464.12,-231.05 319.43,-220.44"/>
<polygon fill="#63b8ff" stroke="#63b8ff" points="976.2,-272.1 986.43,-269.34 976.72,-265.12 976.2,-272.1"/>
</a>
</g>
</g>
<!-- Node5 -->
<g id="Node000005" class="node">
<title>Node5</title>
<g id="a_Node000005"><a xlink:href="_scalar_function_8hh.html" target="_top" xlink:title=" ">
<polygon fill="white" stroke="#666666" points="905,-230 778,-230 778,-199.5 905,-199.5 905,-230"/>
<text text-anchor="start" x="786" y="-216.5" font-family="Helvetica,sans-Serif" font-size="10.00">include/Optimist/Function</text>
<text text-anchor="middle" x="841.5" y="-205.25" font-family="Helvetica,sans-Serif" font-size="10.00">/ScalarFunction.hh</text>
</a>
</g>
</g>
<!-- Node1&#45;&gt;Node5 -->
<g id="edge4_Node000001_Node000005" class="edge">
<title>Node1&#45;&gt;Node5</title>
<g id="a_edge4_Node000001_Node000005"><a xlink:title=" ">
<path fill="none" stroke="#63b8ff" d="M1013.99,-262.55C979.7,-253.25 932.15,-240.35 895.66,-230.44"/>
<polygon fill="#63b8ff" stroke="#63b8ff" points="1013.04,-265.92 1023.61,-265.16 1014.87,-259.16 1013.04,-265.92"/>
</a>
</g>
</g>
<!-- Node12 -->
<g id="Node000012" class="node">
<title>Node12</title>
<g id="a_Node000012"><a xlink:href="_vector_function_8hh.html" target="_top" xlink:title=" ">
<polygon fill="white" stroke="#666666" points="1413,-230 1286,-230 1286,-199.5 1413,-199.5 1413,-230"/>
<text text-anchor="start" x="1294" y="-216.5" font-family="Helvetica,sans-Serif" font-size="10.00">include/Optimist/Function</text>
<text text-anchor="middle" x="1349.5" y="-205.25" font-family="Helvetica,sans-Serif" font-size="10.00">/VectorFunction.hh</text>
</a>
</g>
</g>
<!-- Node1&#45;&gt;Node12 -->
<g id="edge11_Node000001_Node000012" class="edge">
<title>Node1&#45;&gt;Node12</title>
<g id="a_edge11_Node000001_Node000012"><a xlink:title=" ">
<path fill="none" stroke="#63b8ff" d="M1114.35,-263.33C1163.33,-253.42 1234.51,-239.02 1285.71,-228.66"/>
<polygon fill="#63b8ff" stroke="#63b8ff" points="1113.92,-259.84 1104.81,-265.25 1115.31,-266.7 1113.92,-259.84"/>
</a>
</g>
</g>
<!-- Node16 -->
<g id="Node000016" class="node">
<title>Node16</title>
<g id="a_Node000016"><a xlink:href="_solver_8hh.html" target="_top" xlink:title=" ">
<polygon fill="white" stroke="#666666" points="1814.5,-224.38 1684.5,-224.38 1684.5,-205.12 1814.5,-205.12 1814.5,-224.38"/>
<text text-anchor="middle" x="1749.5" y="-210.88" font-family="Helvetica,sans-Serif" font-size="10.00">include/Optimist/Solver.hh</text>
</a>
</g>
</g>
<!-- Node1&#45;&gt;Node16 -->
<g id="edge15_Node000001_Node000016" class="edge">
<title>Node1&#45;&gt;Node16</title>
<g id="a_edge15_Node000001_Node000016"><a xlink:title=" ">
<path fill="none" stroke="#63b8ff" d="M1140.58,-267.63C1279.48,-255.8 1558.08,-232.06 1684.48,-221.29"/>
<polygon fill="#63b8ff" stroke="#63b8ff" points="1140.38,-264.14 1130.71,-268.47 1140.97,-271.11 1140.38,-264.14"/>
</a>
</g>
</g>
<!-- Node3 -->
<g id="Node000003" class="node">
<title>Node3</title>
<g id="a_Node000003"><a xlink:href="_elliptic_paraboloid_8hh.html" target="_top" xlink:title=" ">
<polygon fill="white" stroke="#666666" points="169,-163.5 0,-163.5 0,-133 169,-133 169,-163.5"/>
<text text-anchor="start" x="8" y="-150" font-family="Helvetica,sans-Serif" font-size="10.00">include/Optimist/TestSet</text>
<text text-anchor="middle" x="84.5" y="-138.75" font-family="Helvetica,sans-Serif" font-size="10.00">/CostFunction/EllipticParaboloid.hh</text>
</a>
</g>
</g>
<!-- Node2&#45;&gt;Node3 -->
<g id="edge2_Node000002_Node000003" class="edge">
<title>Node2&#45;&gt;Node3</title>
<g id="a_edge2_Node000002_Node000003"><a xlink:title=" ">
<path fill="none" stroke="#63b8ff" d="M206.18,-195.15C179.88,-185.23 147.98,-173.2 123.44,-163.94"/>
<polygon fill="#63b8ff" stroke="#63b8ff" points="204.69,-198.33 215.28,-198.58 207.16,-191.78 204.69,-198.33"/>
</a>
</g>
</g>
<!-- Node4 -->
<g id="Node000004" class="node">
<title>Node4</title>
<g id="a_Node000004"><a xlink:href="_schaffer2_8hh.html" target="_top" xlink:title=" ">
<polygon fill="white" stroke="#666666" points="323.5,-163.5 187.5,-163.5 187.5,-133 323.5,-133 323.5,-163.5"/>
<text text-anchor="start" x="195.5" y="-150" font-family="Helvetica,sans-Serif" font-size="10.00">include/Optimist/TestSet</text>
<text text-anchor="middle" x="255.5" y="-138.75" font-family="Helvetica,sans-Serif" font-size="10.00">/CostFunction/Schaffer2.hh</text>
</a>
</g>
</g>
<!-- Node2&#45;&gt;Node4 -->
<g id="edge3_Node000002_Node000004" class="edge">
<title>Node2&#45;&gt;Node4</title>
<g id="a_edge3_Node000002_Node000004"><a xlink:title=" ">
<path fill="none" stroke="#63b8ff" d="M255.5,-187.81C255.5,-179.64 255.5,-170.91 255.5,-163.83"/>
<polygon fill="#63b8ff" stroke="#63b8ff" points="252,-187.6 255.5,-197.6 259,-187.6 252,-187.6"/>
</a>
</g>
</g>
<!-- Node6 -->
<g id="Node000006" class="node">
<title>Node6</title>
<g id="a_Node000006"><a xlink:href="_cos_8hh.html" target="_top" xlink:title=" ">
<polygon fill="white" stroke="#666666" points="465.12,-163.5 341.88,-163.5 341.88,-133 465.12,-133 465.12,-163.5"/>
<text text-anchor="start" x="349.88" y="-150" font-family="Helvetica,sans-Serif" font-size="10.00">include/Optimist/TestSet</text>
<text text-anchor="middle" x="403.5" y="-138.75" font-family="Helvetica,sans-Serif" font-size="10.00">/ScalarFunction/Cos.hh</text>
</a>
</g>
</g>
<!-- Node5&#45;&gt;Node6 -->
<g id="edge5_Node000005_Node000006" class="edge">
<title>Node5&#45;&gt;Node6</title>
<g id="a_edge5_Node000005_Node000006"><a xlink:title=" ">
<path fill="none" stroke="#63b8ff" d="M766.57,-204.87C692.25,-195.74 575.23,-180.49 474.5,-163.5 471.52,-163 468.48,-162.47 465.41,-161.91"/>
<polygon fill="#63b8ff" stroke="#63b8ff" points="765.82,-208.31 776.17,-206.04 766.67,-201.36 765.82,-208.31"/>
</a>
</g>
</g>
<!-- Node7 -->
<g id="Node000007" class="node">
<title>Node7</title>
<g id="a_Node000007"><a xlink:href="_cosh_8hh.html" target="_top" xlink:title=" ">
<polygon fill="white" stroke="#666666" points="607.5,-163.5 483.5,-163.5 483.5,-133 607.5,-133 607.5,-163.5"/>
<text text-anchor="start" x="491.5" y="-150" font-family="Helvetica,sans-Serif" font-size="10.00">include/Optimist/TestSet</text>
<text text-anchor="middle" x="545.5" y="-138.75" font-family="Helvetica,sans-Serif" font-size="10.00">/ScalarFunction/Cosh.hh</text>
</a>
</g>
</g>
<!-- Node5&#45;&gt;Node7 -->
<g id="edge6_Node000005_Node000007" class="edge">
<title>Node5&#45;&gt;Node7</title>
<g id="a_edge6_Node000005_Node000007"><a xlink:title=" ">
<path fill="none" stroke="#63b8ff" d="M766.46,-197.4C717.46,-186.72 654.24,-172.94 607.98,-162.86"/>
<polygon fill="#63b8ff" stroke="#63b8ff" points="765.64,-200.8 776.16,-199.51 767.13,-193.96 765.64,-200.8"/>
</a>
</g>
</g>
<!-- Node8 -->
<g id="Node000008" class="node">
<title>Node8</title>
<g id="a_Node000008"><a xlink:href="_linear_8hh.html" target="_top" xlink:title=" ">
<polygon fill="white" stroke="#666666" points="751.62,-163.5 625.38,-163.5 625.38,-133 751.62,-133 751.62,-163.5"/>
<text text-anchor="start" x="633.38" y="-150" font-family="Helvetica,sans-Serif" font-size="10.00">include/Optimist/TestSet</text>
<text text-anchor="middle" x="688.5" y="-138.75" font-family="Helvetica,sans-Serif" font-size="10.00">/ScalarFunction/Linear.hh</text>
</a>
</g>
</g>
<!-- Node5&#45;&gt;Node8 -->
<g id="edge7_Node000005_Node000008" class="edge">
<title>Node5&#45;&gt;Node8</title>
<g id="a_edge7_Node000005_Node000008"><a xlink:title=" ">
<path fill="none" stroke="#63b8ff" d="M796.43,-194.75C773.08,-184.91 745.01,-173.07 723.35,-163.94"/>
<polygon fill="#63b8ff" stroke="#63b8ff" points="794.81,-197.87 805.39,-198.53 797.53,-191.42 794.81,-197.87"/>
</a>
</g>
</g>
<!-- Node9 -->
<g id="Node000009" class="node">
<title>Node9</title>
<g id="a_Node000009"><a xlink:href="_quadratic_8hh.html" target="_top" xlink:title=" ">
<polygon fill="white" stroke="#666666" points="912.88,-163.5 770.12,-163.5 770.12,-133 912.88,-133 912.88,-163.5"/>
<text text-anchor="start" x="778.12" y="-150" font-family="Helvetica,sans-Serif" font-size="10.00">include/Optimist/TestSet</text>
<text text-anchor="middle" x="841.5" y="-138.75" font-family="Helvetica,sans-Serif" font-size="10.00">/ScalarFunction/Quadratic.hh</text>
</a>
</g>
</g>
<!-- Node5&#45;&gt;Node9 -->
<g id="edge8_Node000005_Node000009" class="edge">
<title>Node5&#45;&gt;Node9</title>
<g id="a_edge8_Node000005_Node000009"><a xlink:title=" ">
<path fill="none" stroke="#63b8ff" d="M841.5,-187.81C841.5,-179.64 841.5,-170.91 841.5,-163.83"/>
<polygon fill="#63b8ff" stroke="#63b8ff" points="838,-187.6 841.5,-197.6 845,-187.6 838,-187.6"/>
</a>
</g>
</g>
<!-- Node10 -->
<g id="Node000010" class="node">
<title>Node10</title>
<g id="a_Node000010"><a xlink:href="_sin_8hh.html" target="_top" xlink:title=" ">
<polygon fill="white" stroke="#666666" points="1054.12,-163.5 930.88,-163.5 930.88,-133 1054.12,-133 1054.12,-163.5"/>
<text text-anchor="start" x="938.88" y="-150" font-family="Helvetica,sans-Serif" font-size="10.00">include/Optimist/TestSet</text>
<text text-anchor="middle" x="992.5" y="-138.75" font-family="Helvetica,sans-Serif" font-size="10.00">/ScalarFunction/Sin.hh</text>
</a>
</g>
</g>
<!-- Node5&#45;&gt;Node10 -->
<g id="edge9_Node000005_Node000010" class="edge">
<title>Node5&#45;&gt;Node10</title>
<g id="a_edge9_Node000005_Node000010"><a xlink:title=" ">
<path fill="none" stroke="#63b8ff" d="M886.29,-194.62C909.27,-184.8 936.83,-173.03 958.11,-163.94"/>
<polygon fill="#63b8ff" stroke="#63b8ff" points="884.98,-191.37 877.16,-198.52 887.73,-197.81 884.98,-191.37"/>
</a>
</g>
</g>
<!-- Node11 -->
<g id="Node000011" class="node">
<title>Node11</title>
<g id="a_Node000011"><a xlink:href="_sinh_8hh.html" target="_top" xlink:title=" ">
<polygon fill="white" stroke="#666666" points="1195.12,-163.5 1071.88,-163.5 1071.88,-133 1195.12,-133 1195.12,-163.5"/>
<text text-anchor="start" x="1079.88" y="-150" font-family="Helvetica,sans-Serif" font-size="10.00">include/Optimist/TestSet</text>
<text text-anchor="middle" x="1133.5" y="-138.75" font-family="Helvetica,sans-Serif" font-size="10.00">/ScalarFunction/Sinh.hh</text>
</a>
</g>
</g>
<!-- Node5&#45;&gt;Node11 -->
<g id="edge10_Node000005_Node000011" class="edge">
<title>Node5&#45;&gt;Node11</title>
<g id="a_edge10_Node000005_Node000011"><a xlink:title=" ">
<path fill="none" stroke="#63b8ff" d="M916.19,-197.25C964.28,-186.63 1026.04,-172.99 1071.42,-162.96"/>
<polygon fill="#63b8ff" stroke="#63b8ff" points="915.71,-193.77 906.7,-199.35 917.22,-200.61 915.71,-193.77"/>
</a>
</g>
</g>
<!-- Node13 -->
<g id="Node000013" class="node">
<title>Node13</title>
<g id="a_Node000013"><a xlink:href="_booth_8hh.html" target="_top" xlink:title=" ">
<polygon fill="white" stroke="#666666" points="1340,-163.5 1213,-163.5 1213,-133 1340,-133 1340,-163.5"/>
<text text-anchor="start" x="1221" y="-150" font-family="Helvetica,sans-Serif" font-size="10.00">include/Optimist/TestSet</text>
<text text-anchor="middle" x="1276.5" y="-138.75" font-family="Helvetica,sans-Serif" font-size="10.00">/VectorFunction/Booth.hh</text>
</a>
</g>
</g>
<!-- Node12&#45;&gt;Node13 -->
<g id="edge12_Node000012_Node000013" class="edge">
<title>Node12&#45;&gt;Node13</title>
<g id="a_edge12_Node000012_Node000013"><a xlink:title=" ">
<path fill="none" stroke="#63b8ff" d="M1324.59,-191.74C1314.16,-182.53 1302.32,-172.06 1293,-163.83"/>
<polygon fill="#63b8ff" stroke="#63b8ff" points="1321.99,-194.11 1331.8,-198.11 1326.62,-188.87 1321.99,-194.11"/>
</a>
</g>
</g>
<!-- Node14 -->
<g id="Node000014" class="node">
<title>Node14</title>
<g id="a_Node000014"><a xlink:href="_brown_8hh.html" target="_top" xlink:title=" ">
<polygon fill="white" stroke="#666666" points="1487.12,-163.5 1357.88,-163.5 1357.88,-133 1487.12,-133 1487.12,-163.5"/>
<text text-anchor="start" x="1365.88" y="-150" font-family="Helvetica,sans-Serif" font-size="10.00">include/Optimist/TestSet</text>
<text text-anchor="middle" x="1422.5" y="-138.75" font-family="Helvetica,sans-Serif" font-size="10.00">/VectorFunction/Brown.hh</text>
</a>
</g>
</g>
<!-- Node12&#45;&gt;Node14 -->
<g id="edge13_Node000012_Node000014" class="edge">
<title>Node12&#45;&gt;Node14</title>
<g id="a_edge13_Node000012_Node000014"><a xlink:title=" ">
<path fill="none" stroke="#63b8ff" d="M1374.41,-191.74C1384.84,-182.53 1396.68,-172.06 1406,-163.83"/>
<polygon fill="#63b8ff" stroke="#63b8ff" points="1372.38,-188.87 1367.2,-198.11 1377.01,-194.11 1372.38,-188.87"/>
</a>
</g>
</g>
<!-- Node15 -->
<g id="Node000015" class="node">
<title>Node15</title>
<g id="a_Node000015"><a xlink:href="_rosenbrock_8hh.html" target="_top" xlink:title=" ">
<polygon fill="white" stroke="#666666" points="1659.5,-163.5 1505.5,-163.5 1505.5,-133 1659.5,-133 1659.5,-163.5"/>
<text text-anchor="start" x="1513.5" y="-150" font-family="Helvetica,sans-Serif" font-size="10.00">include/Optimist/TestSet</text>
<text text-anchor="middle" x="1582.5" y="-138.75" font-family="Helvetica,sans-Serif" font-size="10.00">/VectorFunction/Rosenbrock.hh</text>
</a>
</g>
</g>
<!-- Node12&#45;&gt;Node15 -->
<g id="edge14_Node000012_Node000015" class="edge">
<title>Node12&#45;&gt;Node15</title>
<g id="a_edge14_Node000012_Node000015"><a xlink:title=" ">
<path fill="none" stroke="#63b8ff" d="M1413.67,-195.99C1450.11,-185.9 1495.17,-173.43 1529.57,-163.9"/>
<polygon fill="#63b8ff" stroke="#63b8ff" points="1412.83,-192.59 1404.12,-198.63 1414.69,-199.33 1412.83,-192.59"/>
</a>
</g>
</g>
<!-- Node17 -->
<g id="Node000017" class="node">
<title>Node17</title>
<g id="a_Node000017"><a xlink:href="_optimizer_8hh.html" target="_top" xlink:title=" ">
<polygon fill="white" stroke="#666666" points="1821.62,-157.88 1677.38,-157.88 1677.38,-138.62 1821.62,-138.62 1821.62,-157.88"/>
<text text-anchor="middle" x="1749.5" y="-144.38" font-family="Helvetica,sans-Serif" font-size="10.00">include/Optimist/Optimizer.hh</text>
</a>
</g>
</g>
<!-- Node16&#45;&gt;Node17 -->
<g id="edge16_Node000016_Node000017" class="edge">
<title>Node16&#45;&gt;Node17</title>
<g id="a_edge16_Node000016_Node000017"><a xlink:title=" ">
<path fill="none" stroke="#63b8ff" d="M1749.5,-193.27C1749.5,-181.44 1749.5,-167.16 1749.5,-158.14"/>
<polygon fill="#63b8ff" stroke="#63b8ff" points="1746,-193.27 1749.5,-203.27 1753,-193.27 1746,-193.27"/>
</a>
</g>
</g>
<!-- Node20 -->
<g id="Node000020" class="node">
<title>Node20</title>
<g id="a_Node000020"><a xlink:href="_root_finder_8hh.html" target="_top" xlink:title=" ">
<polygon fill="white" stroke="#666666" points="2289.62,-157.88 2139.38,-157.88 2139.38,-138.62 2289.62,-138.62 2289.62,-157.88"/>
<text text-anchor="middle" x="2214.5" y="-144.38" font-family="Helvetica,sans-Serif" font-size="10.00">include/Optimist/RootFinder.hh</text>
</a>
</g>
</g>
<!-- Node16&#45;&gt;Node20 -->
<g id="edge19_Node000016_Node000020" class="edge">
<title>Node16&#45;&gt;Node20</title>
<g id="a_edge19_Node000016_Node000020"><a xlink:title=" ">
<path fill="none" stroke="#63b8ff" d="M1825.87,-203.16C1915.91,-190.67 2064.04,-170.12 2149.05,-158.33"/>
<polygon fill="#63b8ff" stroke="#63b8ff" points="1825.57,-199.66 1816.15,-204.51 1826.53,-206.6 1825.57,-199.66"/>
</a>
</g>
</g>
<!-- Node18 -->
<g id="Node000018" class="node">
<title>Node18</title>
<g id="a_Node000018"><a xlink:href="_nelder_mead_8hh.html" target="_top" xlink:title=" ">
<polygon fill="white" stroke="#666666" points="1665.25,-97 1533.75,-97 1533.75,-66.5 1665.25,-66.5 1665.25,-97"/>
<text text-anchor="start" x="1541.75" y="-83.5" font-family="Helvetica,sans-Serif" font-size="10.00">include/Optimist/Optimizer</text>
<text text-anchor="middle" x="1599.5" y="-72.25" font-family="Helvetica,sans-Serif" font-size="10.00">/NelderMead.hh</text>
</a>
</g>
</g>
<!-- Node17&#45;&gt;Node18 -->
<g id="edge17_Node000017_Node000018" class="edge">
<title>Node17&#45;&gt;Node18</title>
<g id="a_edge17_Node000017_Node000018"><a xlink:title=" ">
<path fill="none" stroke="#63b8ff" d="M1718.05,-133.72C1693.32,-123.09 1658.94,-108.31 1633.57,-97.4"/>
<polygon fill="#63b8ff" stroke="#63b8ff" points="1716.37,-136.81 1726.94,-137.55 1719.13,-130.38 1716.37,-136.81"/>
</a>
</g>
</g>
<!-- Node19 -->
<g id="Node000019" class="node">
<title>Node19</title>
<g id="a_Node000019"><a xlink:href="_pattern_search_8hh.html" target="_top" xlink:title=" ">
<polygon fill="white" stroke="#666666" points="1815.25,-97 1683.75,-97 1683.75,-66.5 1815.25,-66.5 1815.25,-97"/>
<text text-anchor="start" x="1691.75" y="-83.5" font-family="Helvetica,sans-Serif" font-size="10.00">include/Optimist/Optimizer</text>
<text text-anchor="middle" x="1749.5" y="-72.25" font-family="Helvetica,sans-Serif" font-size="10.00">/PatternSearch.hh</text>
</a>
</g>
</g>
<!-- Node17&#45;&gt;Node19 -->
<g id="edge18_Node000017_Node000019" class="edge">
<title>Node17&#45;&gt;Node19</title>
<g id="a_edge18_Node000017_Node000019"><a xlink:title=" ">
<path fill="none" stroke="#63b8ff" d="M1749.5,-126.87C1749.5,-117.19 1749.5,-105.85 1749.5,-97.09"/>
<polygon fill="#63b8ff" stroke="#63b8ff" points="1746,-126.77 1749.5,-136.77 1753,-126.77 1746,-126.77"/>
</a>
</g>
</g>
<!-- Node21 -->
<g id="Node000021" class="node">
<title>Node21</title>
<g id="a_Node000021"><a xlink:href="_bracketing_8hh.html" target="_top" xlink:title=" ">
<polygon fill="white" stroke="#666666" points="1971.25,-97 1833.75,-97 1833.75,-66.5 1971.25,-66.5 1971.25,-97"/>
<text text-anchor="start" x="1841.75" y="-83.5" font-family="Helvetica,sans-Serif" font-size="10.00">include/Optimist/RootFinder</text>
<text text-anchor="middle" x="1902.5" y="-72.25" font-family="Helvetica,sans-Serif" font-size="10.00">/Bracketing.hh</text>
</a>
</g>
</g>
<!-- Node20&#45;&gt;Node21 -->
<g id="edge20_Node000020_Node000021" class="edge">
<title>Node20&#45;&gt;Node21</title>
<g id="a_edge20_Node000020_Node000021"><a xlink:title=" ">
<path fill="none" stroke="#63b8ff" d="M2159.38,-135.86C2107.02,-125.03 2028.12,-108.72 1971.58,-97.03"/>
<polygon fill="#63b8ff" stroke="#63b8ff" points="2158.48,-139.24 2168.98,-137.84 2159.89,-132.39 2158.48,-139.24"/>
</a>
</g>
</g>
<!-- Node24 -->
<g id="Node000024" class="node">
<title>Node24</title>
<g id="a_Node000024"><a xlink:href="_chebyshev_8hh.html" target="_top" xlink:title=" ">
<polygon fill="white" stroke="#666666" points="2127.25,-97 1989.75,-97 1989.75,-66.5 2127.25,-66.5 2127.25,-97"/>
<text text-anchor="start" x="1997.75" y="-83.5" font-family="Helvetica,sans-Serif" font-size="10.00">include/Optimist/RootFinder</text>
<text text-anchor="middle" x="2058.5" y="-72.25" font-family="Helvetica,sans-Serif" font-size="10.00">/Chebyshev.hh</text>
</a>
</g>
</g>
<!-- Node20&#45;&gt;Node24 -->
<g id="edge23_Node000020_Node000024" class="edge">
<title>Node20&#45;&gt;Node24</title>
<g id="a_edge23_Node000020_Node000024"><a xlink:title=" ">
<path fill="none" stroke="#63b8ff" d="M2182.13,-133.87C2156.4,-123.23 2120.44,-108.36 2093.93,-97.4"/>
<polygon fill="#63b8ff" stroke="#63b8ff" points="2180.5,-136.98 2191.08,-137.57 2183.18,-130.51 2180.5,-136.98"/>
</a>
</g>
</g>
<!-- Node25 -->
<g id="Node000025" class="node">
<title>Node25</title>
<g id="a_Node000025"><a xlink:href="_halley_8hh.html" target="_top" xlink:title=" ">
<polygon fill="white" stroke="#666666" points="2283.25,-97 2145.75,-97 2145.75,-66.5 2283.25,-66.5 2283.25,-97"/>
<text text-anchor="start" x="2153.75" y="-83.5" font-family="Helvetica,sans-Serif" font-size="10.00">include/Optimist/RootFinder</text>
<text text-anchor="middle" x="2214.5" y="-72.25" font-family="Helvetica,sans-Serif" font-size="10.00">/Halley.hh</text>
</a>
</g>
</g>
<!-- Node20&#45;&gt;Node25 -->
<g id="edge24_Node000020_Node000025" class="edge">
<title>Node20&#45;&gt;Node25</title>
<g id="a_edge24_Node000020_Node000025"><a xlink:title=" ">
<path fill="none" stroke="#63b8ff" d="M2214.5,-126.87C2214.5,-117.19 2214.5,-105.85 2214.5,-97.09"/>
<polygon fill="#63b8ff" stroke="#63b8ff" points="2211,-126.77 2214.5,-136.77 2218,-126.77 2211,-126.77"/>
</a>
</g>
</g>
<!-- Node26 -->
<g id="Node000026" class="node">
<title>Node26</title>
<g id="a_Node000026"><a xlink:href="_newton_8hh.html" target="_top" xlink:title=" ">
<polygon fill="white" stroke="#666666" points="2439.25,-97 2301.75,-97 2301.75,-66.5 2439.25,-66.5 2439.25,-97"/>
<text text-anchor="start" x="2309.75" y="-83.5" font-family="Helvetica,sans-Serif" font-size="10.00">include/Optimist/RootFinder</text>
<text text-anchor="middle" x="2370.5" y="-72.25" font-family="Helvetica,sans-Serif" font-size="10.00">/Newton.hh</text>
</a>
</g>
</g>
<!-- Node20&#45;&gt;Node26 -->
<g id="edge25_Node000020_Node000026" class="edge">
<title>Node20&#45;&gt;Node26</title>
<g id="a_edge25_Node000020_Node000026"><a xlink:title=" ">
<path fill="none" stroke="#63b8ff" d="M2246.87,-133.87C2272.6,-123.23 2308.56,-108.36 2335.07,-97.4"/>
<polygon fill="#63b8ff" stroke="#63b8ff" points="2245.82,-130.51 2237.92,-137.57 2248.5,-136.98 2245.82,-130.51"/>
</a>
</g>
</g>
<!-- Node27 -->
<g id="Node000027" class="node">
<title>Node27</title>
<g id="a_Node000027"><a xlink:href="_quasi_newton_8hh.html" target="_top" xlink:title=" ">
<polygon fill="white" stroke="#666666" points="2595.25,-97 2457.75,-97 2457.75,-66.5 2595.25,-66.5 2595.25,-97"/>
<text text-anchor="start" x="2465.75" y="-83.5" font-family="Helvetica,sans-Serif" font-size="10.00">include/Optimist/RootFinder</text>
<text text-anchor="middle" x="2526.5" y="-72.25" font-family="Helvetica,sans-Serif" font-size="10.00">/QuasiNewton.hh</text>
</a>
</g>
</g>
<!-- Node20&#45;&gt;Node27 -->
<g id="edge26_Node000020_Node000027" class="edge">
<title>Node20&#45;&gt;Node27</title>
<g id="a_edge26_Node000020_Node000027"><a xlink:title=" ">
<path fill="none" stroke="#63b8ff" d="M2269.62,-135.86C2321.98,-125.03 2400.88,-108.72 2457.42,-97.03"/>
<polygon fill="#63b8ff" stroke="#63b8ff" points="2269.11,-132.39 2260.02,-137.84 2270.52,-139.24 2269.11,-132.39"/>
</a>
</g>
</g>
<!-- Node30 -->
<g id="Node000030" class="node">
<title>Node30</title>
<g id="a_Node000030"><a xlink:href="_varona_8hh.html" target="_top" xlink:title=" ">
<polygon fill="white" stroke="#666666" points="2751.25,-97 2613.75,-97 2613.75,-66.5 2751.25,-66.5 2751.25,-97"/>
<text text-anchor="start" x="2621.75" y="-83.5" font-family="Helvetica,sans-Serif" font-size="10.00">include/Optimist/RootFinder</text>
<text text-anchor="middle" x="2682.5" y="-72.25" font-family="Helvetica,sans-Serif" font-size="10.00">/Varona.hh</text>
</a>
</g>
</g>
<!-- Node20&#45;&gt;Node30 -->
<g id="edge29_Node000020_Node000030" class="edge">
<title>Node20&#45;&gt;Node30</title>
<g id="a_edge29_Node000020_Node000030"><a xlink:title=" ">
<path fill="none" stroke="#63b8ff" d="M2301.17,-137.41C2380.33,-128.1 2500.5,-113.19 2604.5,-97 2607.49,-96.53 2610.55,-96.04 2613.63,-95.53"/>
<polygon fill="#63b8ff" stroke="#63b8ff" points="2300.82,-133.92 2291.3,-138.56 2301.64,-140.88 2300.82,-133.92"/>
</a>
</g>
</g>
<!-- Node22 -->
<g id="Node000022" class="node">
<title>Node22</title>
<g id="a_Node000022"><a xlink:href="_algo748_8hh.html" target="_top" xlink:title=" ">
<polygon fill="white" stroke="#666666" points="1893.25,-30.5 1755.75,-30.5 1755.75,0 1893.25,0 1893.25,-30.5"/>
<text text-anchor="start" x="1763.75" y="-17" font-family="Helvetica,sans-Serif" font-size="10.00">include/Optimist/RootFinder</text>
<text text-anchor="middle" x="1824.5" y="-5.75" font-family="Helvetica,sans-Serif" font-size="10.00">/Algo748.hh</text>
</a>
</g>
</g>
<!-- Node21&#45;&gt;Node22 -->
<g id="edge21_Node000021_Node000022" class="edge">
<title>Node21&#45;&gt;Node22</title>
<g id="a_edge21_Node000021_Node000022"><a xlink:title=" ">
<path fill="none" stroke="#63b8ff" d="M1876.22,-59.02C1864.99,-49.73 1852.19,-39.15 1842.13,-30.83"/>
<polygon fill="#63b8ff" stroke="#63b8ff" points="1873.7,-61.47 1883.63,-65.15 1878.16,-56.08 1873.7,-61.47"/>
</a>
</g>
</g>
<!-- Node23 -->
<g id="Node000023" class="node">
<title>Node23</title>
<g id="a_Node000023"><a xlink:href="_chandrupatla_8hh.html" target="_top" xlink:title=" ">
<polygon fill="white" stroke="#666666" points="2049.25,-30.5 1911.75,-30.5 1911.75,0 2049.25,0 2049.25,-30.5"/>
<text text-anchor="start" x="1919.75" y="-17" font-family="Helvetica,sans-Serif" font-size="10.00">include/Optimist/RootFinder</text>
<text text-anchor="middle" x="1980.5" y="-5.75" font-family="Helvetica,sans-Serif" font-size="10.00">/Chandrupatla.hh</text>
</a>
</g>
</g>
<!-- Node21&#45;&gt;Node23 -->
<g id="edge22_Node000021_Node000023" class="edge">
<title>Node21&#45;&gt;Node23</title>
<g id="a_edge22_Node000021_Node000023"><a xlink:title=" ">
<path fill="none" stroke="#63b8ff" d="M1928.78,-59.02C1940.01,-49.73 1952.81,-39.15 1962.87,-30.83"/>
<polygon fill="#63b8ff" stroke="#63b8ff" points="1926.84,-56.08 1921.37,-65.15 1931.3,-61.47 1926.84,-56.08"/>
</a>
</g>
</g>
<!-- Node28 -->
<g id="Node000028" class="node">
<title>Node28</title>
<g id="a_Node000028"><a xlink:href="_broyden_8hh.html" target="_top" xlink:title=" ">
<polygon fill="white" stroke="#666666" points="2517.25,-30.5 2379.75,-30.5 2379.75,0 2517.25,0 2517.25,-30.5"/>
<text text-anchor="start" x="2387.75" y="-17" font-family="Helvetica,sans-Serif" font-size="10.00">include/Optimist/RootFinder</text>
<text text-anchor="middle" x="2448.5" y="-5.75" font-family="Helvetica,sans-Serif" font-size="10.00">/Broyden.hh</text>
</a>
</g>
</g>
<!-- Node27&#45;&gt;Node28 -->
<g id="edge27_Node000027_Node000028" class="edge">
<title>Node27&#45;&gt;Node28</title>
<g id="a_edge27_Node000027_Node000028"><a xlink:title=" ">
<path fill="none" stroke="#63b8ff" d="M2500.22,-59.02C2488.99,-49.73 2476.19,-39.15 2466.13,-30.83"/>
<polygon fill="#63b8ff" stroke="#63b8ff" points="2497.7,-61.47 2507.63,-65.15 2502.16,-56.08 2497.7,-61.47"/>
</a>
</g>
</g>
<!-- Node29 -->
<g id="Node000029" class="node">
<title>Node29</title>
<g id="a_Node000029"><a xlink:href="_greenstadt_8hh.html" target="_top" xlink:title=" ">
<polygon fill="white" stroke="#666666" points="2673.25,-30.5 2535.75,-30.5 2535.75,0 2673.25,0 2673.25,-30.5"/>
<text text-anchor="start" x="2543.75" y="-17" font-family="Helvetica,sans-Serif" font-size="10.00">include/Optimist/RootFinder</text>
<text text-anchor="middle" x="2604.5" y="-5.75" font-family="Helvetica,sans-Serif" font-size="10.00">/Greenstadt.hh</text>
</a>
</g>
</g>
<!-- Node27&#45;&gt;Node29 -->
<g id="edge28_Node000027_Node000029" class="edge">
<title>Node27&#45;&gt;Node29</title>
<g id="a_edge28_Node000027_Node000029"><a xlink:title=" ">
<path fill="none" stroke="#63b8ff" d="M2552.78,-59.02C2564.01,-49.73 2576.81,-39.15 2586.87,-30.83"/>
<polygon fill="#63b8ff" stroke="#63b8ff" points="2550.84,-56.08 2545.37,-65.15 2555.3,-61.47 2550.84,-56.08"/>
</a>
</g>
</g>
</g>
</svg>
