<?xml version="1.0" encoding="UTF-8" standalone="no"?>
<!DOCTYPE svg PUBLIC "-//W3C//DTD SVG 1.1//EN"
 "http://www.w3.org/Graphics/SVG/1.1/DTD/svg11.dtd">
<!-- Generated by graphviz version 13.1.2 (20250808.2320)
 -->
<!-- Title: include/Optimist/Function.hh Pages: 1 -->
<svg width="2534pt" height="282pt"
 viewBox="0.00 0.00 2534.00 282.00" xmlns="http://www.w3.org/2000/svg" xmlns:xlink="http://www.w3.org/1999/xlink">
<g id="graph0" class="graph" transform="scale(1 1) rotate(0) translate(4 278)">
<title>include/Optimist/Function.hh</title>
<!-- Node1 -->
<g id="Node000001" class="node">
<title>Node1</title>
<g id="a_Node000001"><a xlink:title=" ">
<polygon fill="#999999" stroke="#666666" points="1259,-274 1118.5,-274 1118.5,-254.75 1259,-254.75 1259,-274"/>
<text xml:space="preserve" text-anchor="middle" x="1188.75" y="-260.5" font-family="Helvetica,sans-Serif" font-size="10.00">include/Optimist/Function.hh</text>
</a>
</g>
</g>
<!-- Node2 -->
<g id="Node000002" class="node">
<title>Node2</title>
<g id="a_Node000002"><a xlink:href="_solver_base_8hh.html" target="_top" xlink:title=" ">
<polygon fill="white" stroke="#666666" points="835.38,-218.75 682.12,-218.75 682.12,-199.5 835.38,-199.5 835.38,-218.75"/>
<text xml:space="preserve" text-anchor="middle" x="758.75" y="-205.25" font-family="Helvetica,sans-Serif" font-size="10.00">include/Optimist/SolverBase.hh</text>
</a>
</g>
</g>
<!-- Node1&#45;&gt;Node2 -->
<g id="edge1_Node000001_Node000002" class="edge">
<title>Node1&#45;&gt;Node2</title>
<g id="a_edge1_Node000001_Node000002"><a xlink:title=" ">
<path fill="none" stroke="#63b8ff" d="M1106.83,-253.23C1027.55,-243.41 908.47,-228.67 832.19,-219.22"/>
<polygon fill="#63b8ff" stroke="#63b8ff" points="1106.37,-256.7 1116.72,-254.46 1107.23,-249.75 1106.37,-256.7"/>
</a>
</g>
</g>
<!-- Node18 -->
<g id="Node000018" class="node">
<title>Node18</title>
<g id="a_Node000018"><a xlink:href="_test_set_8hh.html" target="_top" xlink:title=" ">
<polygon fill="white" stroke="#666666" points="1687.12,-218.75 1550.38,-218.75 1550.38,-199.5 1687.12,-199.5 1687.12,-218.75"/>
<text xml:space="preserve" text-anchor="middle" x="1618.75" y="-205.25" font-family="Helvetica,sans-Serif" font-size="10.00">include/Optimist/TestSet.hh</text>
</a>
</g>
</g>
<!-- Node1&#45;&gt;Node18 -->
<g id="edge17_Node000001_Node000018" class="edge">
<title>Node1&#45;&gt;Node18</title>
<g id="a_edge17_Node000001_Node000018"><a xlink:title=" ">
<path fill="none" stroke="#63b8ff" d="M1270.41,-253.26C1351.32,-243.24 1473.87,-228.07 1549.97,-218.64"/>
<polygon fill="#63b8ff" stroke="#63b8ff" points="1270.27,-249.75 1260.78,-254.46 1271.13,-256.7 1270.27,-249.75"/>
</a>
</g>
</g>
<!-- Node3 -->
<g id="Node000003" class="node">
<title>Node3</title>
<g id="a_Node000003"><a xlink:href="_optimizer_8hh.html" target="_top" xlink:title=" ">
<polygon fill="white" stroke="#666666" points="287.88,-157.88 143.62,-157.88 143.62,-138.62 287.88,-138.62 287.88,-157.88"/>
<text xml:space="preserve" text-anchor="middle" x="215.75" y="-144.38" font-family="Helvetica,sans-Serif" font-size="10.00">include/Optimist/Optimizer.hh</text>
</a>
</g>
</g>
<!-- Node2&#45;&gt;Node3 -->
<g id="edge2_Node000002_Node000003" class="edge">
<title>Node2&#45;&gt;Node3</title>
<g id="a_edge2_Node000002_Node000003"><a xlink:title=" ">
<path fill="none" stroke="#63b8ff" d="M670.46,-198.55C563.92,-187 386.83,-167.8 288.02,-157.09"/>
<polygon fill="#63b8ff" stroke="#63b8ff" points="669.99,-202.02 680.31,-199.62 670.75,-195.06 669.99,-202.02"/>
</a>
</g>
</g>
<!-- Node6 -->
<g id="Node000006" class="node">
<title>Node6</title>
<g id="a_Node000006"><a xlink:href="_root_finder_8hh.html" target="_top" xlink:title=" ">
<polygon fill="white" stroke="#666666" points="833.88,-157.88 683.62,-157.88 683.62,-138.62 833.88,-138.62 833.88,-157.88"/>
<text xml:space="preserve" text-anchor="middle" x="758.75" y="-144.38" font-family="Helvetica,sans-Serif" font-size="10.00">include/Optimist/RootFinder.hh</text>
</a>
</g>
</g>
<!-- Node2&#45;&gt;Node6 -->
<g id="edge5_Node000002_Node000006" class="edge">
<title>Node2&#45;&gt;Node6</title>
<g id="a_edge5_Node000002_Node000006"><a xlink:title=" ">
<path fill="none" stroke="#63b8ff" d="M758.75,-187.7C758.75,-177.67 758.75,-166.08 758.75,-158.28"/>
<polygon fill="#63b8ff" stroke="#63b8ff" points="755.25,-187.67 758.75,-197.67 762.25,-187.67 755.25,-187.67"/>
</a>
</g>
</g>
<!-- Node4 -->
<g id="Node000004" class="node">
<title>Node4</title>
<g id="a_Node000004"><a xlink:href="_nelder_mead_8hh.html" target="_top" xlink:title=" ">
<polygon fill="white" stroke="#666666" points="131.5,-97 0,-97 0,-66.5 131.5,-66.5 131.5,-97"/>
<text xml:space="preserve" text-anchor="start" x="8" y="-83.5" font-family="Helvetica,sans-Serif" font-size="10.00">include/Optimist/Optimizer</text>
<text xml:space="preserve" text-anchor="middle" x="65.75" y="-72.25" font-family="Helvetica,sans-Serif" font-size="10.00">/NelderMead.hh</text>
</a>
</g>
</g>
<!-- Node3&#45;&gt;Node4 -->
<g id="edge3_Node000003_Node000004" class="edge">
<title>Node3&#45;&gt;Node4</title>
<g id="a_edge3_Node000003_Node000004"><a xlink:title=" ">
<path fill="none" stroke="#63b8ff" d="M184.3,-133.72C159.57,-123.09 125.19,-108.31 99.82,-97.4"/>
<polygon fill="#63b8ff" stroke="#63b8ff" points="182.62,-136.81 193.19,-137.55 185.38,-130.38 182.62,-136.81"/>
</a>
</g>
</g>
<!-- Node5 -->
<g id="Node000005" class="node">
<title>Node5</title>
<g id="a_Node000005"><a xlink:href="_pattern_search_8hh.html" target="_top" xlink:title=" ">
<polygon fill="white" stroke="#666666" points="281.5,-97 150,-97 150,-66.5 281.5,-66.5 281.5,-97"/>
<text xml:space="preserve" text-anchor="start" x="158" y="-83.5" font-family="Helvetica,sans-Serif" font-size="10.00">include/Optimist/Optimizer</text>
<text xml:space="preserve" text-anchor="middle" x="215.75" y="-72.25" font-family="Helvetica,sans-Serif" font-size="10.00">/PatternSearch.hh</text>
</a>
</g>
</g>
<!-- Node3&#45;&gt;Node5 -->
<g id="edge4_Node000003_Node000005" class="edge">
<title>Node3&#45;&gt;Node5</title>
<g id="a_edge4_Node000003_Node000005"><a xlink:title=" ">
<path fill="none" stroke="#63b8ff" d="M215.75,-126.87C215.75,-117.19 215.75,-105.85 215.75,-97.09"/>
<polygon fill="#63b8ff" stroke="#63b8ff" points="212.25,-126.77 215.75,-136.77 219.25,-126.77 212.25,-126.77"/>
</a>
</g>
</g>
<!-- Node7 -->
<g id="Node000007" class="node">
<title>Node7</title>
<g id="a_Node000007"><a xlink:href="_bracketing_8hh.html" target="_top" xlink:title=" ">
<polygon fill="white" stroke="#666666" points="437.5,-97 300,-97 300,-66.5 437.5,-66.5 437.5,-97"/>
<text xml:space="preserve" text-anchor="start" x="308" y="-83.5" font-family="Helvetica,sans-Serif" font-size="10.00">include/Optimist/RootFinder</text>
<text xml:space="preserve" text-anchor="middle" x="368.75" y="-72.25" font-family="Helvetica,sans-Serif" font-size="10.00">/Bracketing.hh</text>
</a>
</g>
</g>
<!-- Node6&#45;&gt;Node7 -->
<g id="edge6_Node000006_Node000007" class="edge">
<title>Node6&#45;&gt;Node7</title>
<g id="a_edge6_Node000006_Node000007"><a xlink:title=" ">
<path fill="none" stroke="#63b8ff" d="M688.71,-136.4C625.43,-126.5 529.77,-111.27 446.75,-97 443.77,-96.49 440.72,-95.96 437.64,-95.42"/>
<polygon fill="#63b8ff" stroke="#63b8ff" points="687.83,-139.81 698.25,-137.89 688.91,-132.89 687.83,-139.81"/>
</a>
</g>
</g>
<!-- Node10 -->
<g id="Node000010" class="node">
<title>Node10</title>
<g id="a_Node000010"><a xlink:href="_chebyshev_8hh.html" target="_top" xlink:title=" ">
<polygon fill="white" stroke="#666666" points="593.5,-97 456,-97 456,-66.5 593.5,-66.5 593.5,-97"/>
<text xml:space="preserve" text-anchor="start" x="464" y="-83.5" font-family="Helvetica,sans-Serif" font-size="10.00">include/Optimist/RootFinder</text>
<text xml:space="preserve" text-anchor="middle" x="524.75" y="-72.25" font-family="Helvetica,sans-Serif" font-size="10.00">/Chebyshev.hh</text>
</a>
</g>
</g>
<!-- Node6&#45;&gt;Node10 -->
<g id="edge9_Node000006_Node000010" class="edge">
<title>Node6&#45;&gt;Node10</title>
<g id="a_edge9_Node000006_Node000010"><a xlink:title=" ">
<path fill="none" stroke="#63b8ff" d="M714.78,-135.13C675.95,-124.43 619.25,-108.8 577.9,-97.4"/>
<polygon fill="#63b8ff" stroke="#63b8ff" points="713.69,-138.46 724.26,-137.74 715.55,-131.71 713.69,-138.46"/>
</a>
</g>
</g>
<!-- Node11 -->
<g id="Node000011" class="node">
<title>Node11</title>
<g id="a_Node000011"><a xlink:href="_halley_8hh.html" target="_top" xlink:title=" ">
<polygon fill="white" stroke="#666666" points="749.5,-97 612,-97 612,-66.5 749.5,-66.5 749.5,-97"/>
<text xml:space="preserve" text-anchor="start" x="620" y="-83.5" font-family="Helvetica,sans-Serif" font-size="10.00">include/Optimist/RootFinder</text>
<text xml:space="preserve" text-anchor="middle" x="680.75" y="-72.25" font-family="Helvetica,sans-Serif" font-size="10.00">/Halley.hh</text>
</a>
</g>
</g>
<!-- Node6&#45;&gt;Node11 -->
<g id="edge10_Node000006_Node000011" class="edge">
<title>Node6&#45;&gt;Node11</title>
<g id="a_edge10_Node000006_Node000011"><a xlink:title=" ">
<path fill="none" stroke="#63b8ff" d="M739.15,-131.04C726.63,-120.69 710.52,-107.37 698.39,-97.34"/>
<polygon fill="#63b8ff" stroke="#63b8ff" points="736.8,-133.64 746.74,-137.32 741.26,-128.25 736.8,-133.64"/>
</a>
</g>
</g>
<!-- Node12 -->
<g id="Node000012" class="node">
<title>Node12</title>
<g id="a_Node000012"><a xlink:href="_newton_8hh.html" target="_top" xlink:title=" ">
<polygon fill="white" stroke="#666666" points="905.5,-97 768,-97 768,-66.5 905.5,-66.5 905.5,-97"/>
<text xml:space="preserve" text-anchor="start" x="776" y="-83.5" font-family="Helvetica,sans-Serif" font-size="10.00">include/Optimist/RootFinder</text>
<text xml:space="preserve" text-anchor="middle" x="836.75" y="-72.25" font-family="Helvetica,sans-Serif" font-size="10.00">/Newton.hh</text>
</a>
</g>
</g>
<!-- Node6&#45;&gt;Node12 -->
<g id="edge11_Node000006_Node000012" class="edge">
<title>Node6&#45;&gt;Node12</title>
<g id="a_edge11_Node000006_Node000012"><a xlink:title=" ">
<path fill="none" stroke="#63b8ff" d="M778.35,-131.04C790.87,-120.69 806.98,-107.37 819.11,-97.34"/>
<polygon fill="#63b8ff" stroke="#63b8ff" points="776.24,-128.25 770.76,-137.32 780.7,-133.64 776.24,-128.25"/>
</a>
</g>
</g>
<!-- Node13 -->
<g id="Node000013" class="node">
<title>Node13</title>
<g id="a_Node000013"><a xlink:href="_newton_raphson_8hh.html" target="_top" xlink:title=" ">
<polygon fill="white" stroke="#666666" points="1061.5,-97 924,-97 924,-66.5 1061.5,-66.5 1061.5,-97"/>
<text xml:space="preserve" text-anchor="start" x="932" y="-83.5" font-family="Helvetica,sans-Serif" font-size="10.00">include/Optimist/RootFinder</text>
<text xml:space="preserve" text-anchor="middle" x="992.75" y="-72.25" font-family="Helvetica,sans-Serif" font-size="10.00">/NewtonRaphson.hh</text>
</a>
</g>
</g>
<!-- Node6&#45;&gt;Node13 -->
<g id="edge12_Node000006_Node000013" class="edge">
<title>Node6&#45;&gt;Node13</title>
<g id="a_edge12_Node000006_Node000013"><a xlink:title=" ">
<path fill="none" stroke="#63b8ff" d="M802.72,-135.13C841.55,-124.43 898.25,-108.8 939.6,-97.4"/>
<polygon fill="#63b8ff" stroke="#63b8ff" points="801.95,-131.71 793.24,-137.74 803.81,-138.46 801.95,-131.71"/>
</a>
</g>
</g>
<!-- Node14 -->
<g id="Node000014" class="node">
<title>Node14</title>
<g id="a_Node000014"><a xlink:href="_quasi_newton_8hh.html" target="_top" xlink:title=" ">
<polygon fill="white" stroke="#666666" points="1217.5,-97 1080,-97 1080,-66.5 1217.5,-66.5 1217.5,-97"/>
<text xml:space="preserve" text-anchor="start" x="1088" y="-83.5" font-family="Helvetica,sans-Serif" font-size="10.00">include/Optimist/RootFinder</text>
<text xml:space="preserve" text-anchor="middle" x="1148.75" y="-72.25" font-family="Helvetica,sans-Serif" font-size="10.00">/QuasiNewton.hh</text>
</a>
</g>
</g>
<!-- Node6&#45;&gt;Node14 -->
<g id="edge13_Node000006_Node000014" class="edge">
<title>Node6&#45;&gt;Node14</title>
<g id="a_edge13_Node000006_Node000014"><a xlink:title=" ">
<path fill="none" stroke="#63b8ff" d="M822.85,-136.3C829.57,-135.17 836.3,-134.06 842.75,-133 943.99,-116.42 969.62,-114.22 1070.75,-97 1073.74,-96.49 1076.78,-95.97 1079.86,-95.43"/>
<polygon fill="#63b8ff" stroke="#63b8ff" points="822.38,-132.83 813.1,-137.94 823.54,-139.73 822.38,-132.83"/>
</a>
</g>
</g>
<!-- Node17 -->
<g id="Node000017" class="node">
<title>Node17</title>
<g id="a_Node000017"><a xlink:href="_varona_8hh.html" target="_top" xlink:title=" ">
<polygon fill="white" stroke="#666666" points="1373.5,-97 1236,-97 1236,-66.5 1373.5,-66.5 1373.5,-97"/>
<text xml:space="preserve" text-anchor="start" x="1244" y="-83.5" font-family="Helvetica,sans-Serif" font-size="10.00">include/Optimist/RootFinder</text>
<text xml:space="preserve" text-anchor="middle" x="1304.75" y="-72.25" font-family="Helvetica,sans-Serif" font-size="10.00">/Varona.hh</text>
</a>
</g>
</g>
<!-- Node6&#45;&gt;Node17 -->
<g id="edge16_Node000006_Node000017" class="edge">
<title>Node6&#45;&gt;Node17</title>
<g id="a_edge16_Node000006_Node000017"><a xlink:title=" ">
<path fill="none" stroke="#63b8ff" d="M819.66,-136.37C827.42,-135.14 835.26,-133.98 842.75,-133 1012.7,-110.65 1056.94,-120.43 1226.75,-97 1229.75,-96.59 1232.81,-96.14 1235.9,-95.66"/>
<polygon fill="#63b8ff" stroke="#63b8ff" points="819.21,-132.9 809.9,-137.95 820.33,-139.8 819.21,-132.9"/>
</a>
</g>
</g>
<!-- Node8 -->
<g id="Node000008" class="node">
<title>Node8</title>
<g id="a_Node000008"><a xlink:href="_algo748_8hh.html" target="_top" xlink:title=" ">
<polygon fill="white" stroke="#666666" points="359.5,-30.5 222,-30.5 222,0 359.5,0 359.5,-30.5"/>
<text xml:space="preserve" text-anchor="start" x="230" y="-17" font-family="Helvetica,sans-Serif" font-size="10.00">include/Optimist/RootFinder</text>
<text xml:space="preserve" text-anchor="middle" x="290.75" y="-5.75" font-family="Helvetica,sans-Serif" font-size="10.00">/Algo748.hh</text>
</a>
</g>
</g>
<!-- Node7&#45;&gt;Node8 -->
<g id="edge7_Node000007_Node000008" class="edge">
<title>Node7&#45;&gt;Node8</title>
<g id="a_edge7_Node000007_Node000008"><a xlink:title=" ">
<path fill="none" stroke="#63b8ff" d="M342.47,-59.02C331.24,-49.73 318.44,-39.15 308.38,-30.83"/>
<polygon fill="#63b8ff" stroke="#63b8ff" points="339.95,-61.47 349.88,-65.15 344.41,-56.08 339.95,-61.47"/>
</a>
</g>
</g>
<!-- Node9 -->
<g id="Node000009" class="node">
<title>Node9</title>
<g id="a_Node000009"><a xlink:href="_chandrupatla_8hh.html" target="_top" xlink:title=" ">
<polygon fill="white" stroke="#666666" points="515.5,-30.5 378,-30.5 378,0 515.5,0 515.5,-30.5"/>
<text xml:space="preserve" text-anchor="start" x="386" y="-17" font-family="Helvetica,sans-Serif" font-size="10.00">include/Optimist/RootFinder</text>
<text xml:space="preserve" text-anchor="middle" x="446.75" y="-5.75" font-family="Helvetica,sans-Serif" font-size="10.00">/Chandrupatla.hh</text>
</a>
</g>
</g>
<!-- Node7&#45;&gt;Node9 -->
<g id="edge8_Node000007_Node000009" class="edge">
<title>Node7&#45;&gt;Node9</title>
<g id="a_edge8_Node000007_Node000009"><a xlink:title=" ">
<path fill="none" stroke="#63b8ff" d="M395.03,-59.02C406.26,-49.73 419.06,-39.15 429.12,-30.83"/>
<polygon fill="#63b8ff" stroke="#63b8ff" points="393.09,-56.08 387.62,-65.15 397.55,-61.47 393.09,-56.08"/>
</a>
</g>
</g>
<!-- Node15 -->
<g id="Node000015" class="node">
<title>Node15</title>
<g id="a_Node000015"><a xlink:href="_broyden_8hh.html" target="_top" xlink:title=" ">
<polygon fill="white" stroke="#666666" points="1139.5,-30.5 1002,-30.5 1002,0 1139.5,0 1139.5,-30.5"/>
<text xml:space="preserve" text-anchor="start" x="1010" y="-17" font-family="Helvetica,sans-Serif" font-size="10.00">include/Optimist/RootFinder</text>
<text xml:space="preserve" text-anchor="middle" x="1070.75" y="-5.75" font-family="Helvetica,sans-Serif" font-size="10.00">/Broyden.hh</text>
</a>
</g>
</g>
<!-- Node14&#45;&gt;Node15 -->
<g id="edge14_Node000014_Node000015" class="edge">
<title>Node14&#45;&gt;Node15</title>
<g id="a_edge14_Node000014_Node000015"><a xlink:title=" ">
<path fill="none" stroke="#63b8ff" d="M1122.47,-59.02C1111.24,-49.73 1098.44,-39.15 1088.38,-30.83"/>
<polygon fill="#63b8ff" stroke="#63b8ff" points="1119.95,-61.47 1129.88,-65.15 1124.41,-56.08 1119.95,-61.47"/>
</a>
</g>
</g>
<!-- Node16 -->
<g id="Node000016" class="node">
<title>Node16</title>
<g id="a_Node000016"><a xlink:href="_greenstadt_8hh.html" target="_top" xlink:title=" ">
<polygon fill="white" stroke="#666666" points="1295.5,-30.5 1158,-30.5 1158,0 1295.5,0 1295.5,-30.5"/>
<text xml:space="preserve" text-anchor="start" x="1166" y="-17" font-family="Helvetica,sans-Serif" font-size="10.00">include/Optimist/RootFinder</text>
<text xml:space="preserve" text-anchor="middle" x="1226.75" y="-5.75" font-family="Helvetica,sans-Serif" font-size="10.00">/Greenstadt.hh</text>
</a>
</g>
</g>
<!-- Node14&#45;&gt;Node16 -->
<g id="edge15_Node000014_Node000016" class="edge">
<title>Node14&#45;&gt;Node16</title>
<g id="a_edge15_Node000014_Node000016"><a xlink:title=" ">
<path fill="none" stroke="#63b8ff" d="M1175.03,-59.02C1186.26,-49.73 1199.06,-39.15 1209.12,-30.83"/>
<polygon fill="#63b8ff" stroke="#63b8ff" points="1173.09,-56.08 1167.62,-65.15 1177.55,-61.47 1173.09,-56.08"/>
</a>
</g>
</g>
<!-- Node19 -->
<g id="Node000019" class="node">
<title>Node19</title>
<g id="a_Node000019"><a xlink:href="_booth_8hh.html" target="_top" xlink:title=" ">
<polygon fill="white" stroke="#666666" points="975.38,-163.5 852.12,-163.5 852.12,-133 975.38,-133 975.38,-163.5"/>
<text xml:space="preserve" text-anchor="start" x="860.12" y="-150" font-family="Helvetica,sans-Serif" font-size="10.00">include/Optimist/TestSet</text>
<text xml:space="preserve" text-anchor="middle" x="913.75" y="-138.75" font-family="Helvetica,sans-Serif" font-size="10.00">/Booth.hh</text>
</a>
</g>
</g>
<!-- Node18&#45;&gt;Node19 -->
<g id="edge18_Node000018_Node000019" class="edge">
<title>Node18&#45;&gt;Node19</title>
<g id="a_edge18_Node000018_Node000019"><a xlink:title=" ">
<path fill="none" stroke="#63b8ff" d="M1539.01,-205.86C1418.35,-201.69 1182.39,-190.58 983.75,-163.5 981.05,-163.13 978.29,-162.72 975.51,-162.28"/>
<polygon fill="#63b8ff" stroke="#63b8ff" points="1538.7,-209.36 1548.81,-206.2 1538.93,-202.36 1538.7,-209.36"/>
</a>
</g>
</g>
<!-- Node20 -->
<g id="Node000020" class="node">
<title>Node20</title>
<g id="a_Node000020"><a xlink:href="_brown_8hh.html" target="_top" xlink:title=" ">
<polygon fill="white" stroke="#666666" points="1116.38,-163.5 993.12,-163.5 993.12,-133 1116.38,-133 1116.38,-163.5"/>
<text xml:space="preserve" text-anchor="start" x="1001.12" y="-150" font-family="Helvetica,sans-Serif" font-size="10.00">include/Optimist/TestSet</text>
<text xml:space="preserve" text-anchor="middle" x="1054.75" y="-138.75" font-family="Helvetica,sans-Serif" font-size="10.00">/Brown.hh</text>
</a>
</g>
</g>
<!-- Node18&#45;&gt;Node20 -->
<g id="edge19_Node000018_Node000020" class="edge">
<title>Node18&#45;&gt;Node20</title>
<g id="a_edge19_Node000018_Node000020"><a xlink:title=" ">
<path fill="none" stroke="#63b8ff" d="M1538.86,-203.64C1440.91,-197.51 1270.02,-184.78 1124.75,-163.5 1122.05,-163.1 1119.3,-162.67 1116.52,-162.21"/>
<polygon fill="#63b8ff" stroke="#63b8ff" points="1538.44,-207.12 1548.63,-204.24 1538.87,-200.13 1538.44,-207.12"/>
</a>
</g>
</g>
<!-- Node21 -->
<g id="Node000021" class="node">
<title>Node21</title>
<g id="a_Node000021"><a xlink:href="_cos_8hh.html" target="_top" xlink:title=" ">
<polygon fill="white" stroke="#666666" points="1257.38,-163.5 1134.12,-163.5 1134.12,-133 1257.38,-133 1257.38,-163.5"/>
<text xml:space="preserve" text-anchor="start" x="1142.12" y="-150" font-family="Helvetica,sans-Serif" font-size="10.00">include/Optimist/TestSet</text>
<text xml:space="preserve" text-anchor="middle" x="1195.75" y="-138.75" font-family="Helvetica,sans-Serif" font-size="10.00">/Cos.hh</text>
</a>
</g>
</g>
<!-- Node18&#45;&gt;Node21 -->
<g id="edge20_Node000018_Node000021" class="edge">
<title>Node18&#45;&gt;Node21</title>
<g id="a_edge20_Node000018_Node000021"><a xlink:title=" ">
<path fill="none" stroke="#63b8ff" d="M1539.01,-199.77C1467.3,-191.85 1359.19,-178.89 1265.75,-163.5 1263.06,-163.06 1260.31,-162.58 1257.54,-162.09"/>
<polygon fill="#63b8ff" stroke="#63b8ff" points="1538.37,-203.22 1548.69,-200.84 1539.13,-196.27 1538.37,-203.22"/>
</a>
</g>
</g>
<!-- Node22 -->
<g id="Node000022" class="node">
<title>Node22</title>
<g id="a_Node000022"><a xlink:href="_cosh_8hh.html" target="_top" xlink:title=" ">
<polygon fill="white" stroke="#666666" points="1398.38,-163.5 1275.12,-163.5 1275.12,-133 1398.38,-133 1398.38,-163.5"/>
<text xml:space="preserve" text-anchor="start" x="1283.12" y="-150" font-family="Helvetica,sans-Serif" font-size="10.00">include/Optimist/TestSet</text>
<text xml:space="preserve" text-anchor="middle" x="1336.75" y="-138.75" font-family="Helvetica,sans-Serif" font-size="10.00">/Cosh.hh</text>
</a>
</g>
</g>
<!-- Node18&#45;&gt;Node22 -->
<g id="edge21_Node000018_Node000022" class="edge">
<title>Node18&#45;&gt;Node22</title>
<g id="a_edge21_Node000018_Node000022"><a xlink:title=" ">
<path fill="none" stroke="#63b8ff" d="M1564.04,-196.7C1516.69,-186.82 1448.23,-172.52 1398.83,-162.21"/>
<polygon fill="#63b8ff" stroke="#63b8ff" points="1563.32,-200.13 1573.82,-198.75 1564.75,-193.28 1563.32,-200.13"/>
</a>
</g>
</g>
<!-- Node23 -->
<g id="Node000023" class="node">
<title>Node23</title>
<g id="a_Node000023"><a xlink:href="_elliptic_paraboloid_8hh.html" target="_top" xlink:title=" ">
<polygon fill="white" stroke="#666666" points="1539.38,-163.5 1416.12,-163.5 1416.12,-133 1539.38,-133 1539.38,-163.5"/>
<text xml:space="preserve" text-anchor="start" x="1424.12" y="-150" font-family="Helvetica,sans-Serif" font-size="10.00">include/Optimist/TestSet</text>
<text xml:space="preserve" text-anchor="middle" x="1477.75" y="-138.75" font-family="Helvetica,sans-Serif" font-size="10.00">/EllipticParaboloid.hh</text>
</a>
</g>
</g>
<!-- Node18&#45;&gt;Node23 -->
<g id="edge22_Node000018_Node000023" class="edge">
<title>Node18&#45;&gt;Node23</title>
<g id="a_edge22_Node000018_Node000023"><a xlink:title=" ">
<path fill="none" stroke="#63b8ff" d="M1586.57,-194.69C1564.61,-185.52 1535.52,-173.37 1512.94,-163.94"/>
<polygon fill="#63b8ff" stroke="#63b8ff" points="1585.05,-197.85 1595.63,-198.47 1587.75,-191.39 1585.05,-197.85"/>
</a>
</g>
</g>
<!-- Node24 -->
<g id="Node000024" class="node">
<title>Node24</title>
<g id="a_Node000024"><a xlink:href="_linear_8hh.html" target="_top" xlink:title=" ">
<polygon fill="white" stroke="#666666" points="1680.38,-163.5 1557.12,-163.5 1557.12,-133 1680.38,-133 1680.38,-163.5"/>
<text xml:space="preserve" text-anchor="start" x="1565.12" y="-150" font-family="Helvetica,sans-Serif" font-size="10.00">include/Optimist/TestSet</text>
<text xml:space="preserve" text-anchor="middle" x="1618.75" y="-138.75" font-family="Helvetica,sans-Serif" font-size="10.00">/Linear.hh</text>
</a>
</g>
</g>
<!-- Node18&#45;&gt;Node24 -->
<g id="edge23_Node000018_Node000024" class="edge">
<title>Node18&#45;&gt;Node24</title>
<g id="a_edge23_Node000018_Node000024"><a xlink:title=" ">
<path fill="none" stroke="#63b8ff" d="M1618.75,-187.92C1618.75,-179.99 1618.75,-171.06 1618.75,-163.78"/>
<polygon fill="#63b8ff" stroke="#63b8ff" points="1615.25,-187.67 1618.75,-197.67 1622.25,-187.67 1615.25,-187.67"/>
</a>
</g>
</g>
<!-- Node25 -->
<g id="Node000025" class="node">
<title>Node25</title>
<g id="a_Node000025"><a xlink:href="_quadratic_8hh.html" target="_top" xlink:title=" ">
<polygon fill="white" stroke="#666666" points="1821.38,-163.5 1698.12,-163.5 1698.12,-133 1821.38,-133 1821.38,-163.5"/>
<text xml:space="preserve" text-anchor="start" x="1706.12" y="-150" font-family="Helvetica,sans-Serif" font-size="10.00">include/Optimist/TestSet</text>
<text xml:space="preserve" text-anchor="middle" x="1759.75" y="-138.75" font-family="Helvetica,sans-Serif" font-size="10.00">/Quadratic.hh</text>
</a>
</g>
</g>
<!-- Node18&#45;&gt;Node25 -->
<g id="edge24_Node000018_Node000025" class="edge">
<title>Node18&#45;&gt;Node25</title>
<g id="a_edge24_Node000018_Node000025"><a xlink:title=" ">
<path fill="none" stroke="#63b8ff" d="M1650.93,-194.69C1672.89,-185.52 1701.98,-173.37 1724.56,-163.94"/>
<polygon fill="#63b8ff" stroke="#63b8ff" points="1649.75,-191.39 1641.87,-198.47 1652.45,-197.85 1649.75,-191.39"/>
</a>
</g>
</g>
<!-- Node26 -->
<g id="Node000026" class="node">
<title>Node26</title>
<g id="a_Node000026"><a xlink:href="_rosenbrock_8hh.html" target="_top" xlink:title=" ">
<polygon fill="white" stroke="#666666" points="1962.38,-163.5 1839.12,-163.5 1839.12,-133 1962.38,-133 1962.38,-163.5"/>
<text xml:space="preserve" text-anchor="start" x="1847.12" y="-150" font-family="Helvetica,sans-Serif" font-size="10.00">include/Optimist/TestSet</text>
<text xml:space="preserve" text-anchor="middle" x="1900.75" y="-138.75" font-family="Helvetica,sans-Serif" font-size="10.00">/Rosenbrock.hh</text>
</a>
</g>
</g>
<!-- Node18&#45;&gt;Node26 -->
<g id="edge25_Node000018_Node000026" class="edge">
<title>Node18&#45;&gt;Node26</title>
<g id="a_edge25_Node000018_Node000026"><a xlink:title=" ">
<path fill="none" stroke="#63b8ff" d="M1673.46,-196.7C1720.81,-186.82 1789.27,-172.52 1838.67,-162.21"/>
<polygon fill="#63b8ff" stroke="#63b8ff" points="1672.75,-193.28 1663.68,-198.75 1674.18,-200.13 1672.75,-193.28"/>
</a>
</g>
</g>
<!-- Node27 -->
<g id="Node000027" class="node">
<title>Node27</title>
<g id="a_Node000027"><a xlink:href="_schaffer2_8hh.html" target="_top" xlink:title=" ">
<polygon fill="white" stroke="#666666" points="2103.38,-163.5 1980.12,-163.5 1980.12,-133 2103.38,-133 2103.38,-163.5"/>
<text xml:space="preserve" text-anchor="start" x="1988.12" y="-150" font-family="Helvetica,sans-Serif" font-size="10.00">include/Optimist/TestSet</text>
<text xml:space="preserve" text-anchor="middle" x="2041.75" y="-138.75" font-family="Helvetica,sans-Serif" font-size="10.00">/Schaffer2.hh</text>
</a>
</g>
</g>
<!-- Node18&#45;&gt;Node27 -->
<g id="edge26_Node000018_Node000027" class="edge">
<title>Node18&#45;&gt;Node27</title>
<g id="a_edge26_Node000018_Node000027"><a xlink:title=" ">
<path fill="none" stroke="#63b8ff" d="M1698.49,-199.77C1770.2,-191.85 1878.31,-178.89 1971.75,-163.5 1974.44,-163.06 1977.19,-162.58 1979.96,-162.09"/>
<polygon fill="#63b8ff" stroke="#63b8ff" points="1698.37,-196.27 1688.81,-200.84 1699.13,-203.22 1698.37,-196.27"/>
</a>
</g>
</g>
<!-- Node28 -->
<g id="Node000028" class="node">
<title>Node28</title>
<g id="a_Node000028"><a xlink:href="_sin_8hh.html" target="_top" xlink:title=" ">
<polygon fill="white" stroke="#666666" points="2244.38,-163.5 2121.12,-163.5 2121.12,-133 2244.38,-133 2244.38,-163.5"/>
<text xml:space="preserve" text-anchor="start" x="2129.12" y="-150" font-family="Helvetica,sans-Serif" font-size="10.00">include/Optimist/TestSet</text>
<text xml:space="preserve" text-anchor="middle" x="2182.75" y="-138.75" font-family="Helvetica,sans-Serif" font-size="10.00">/Sin.hh</text>
</a>
</g>
</g>
<!-- Node18&#45;&gt;Node28 -->
<g id="edge27_Node000018_Node000028" class="edge">
<title>Node18&#45;&gt;Node28</title>
<g id="a_edge27_Node000018_Node000028"><a xlink:title=" ">
<path fill="none" stroke="#63b8ff" d="M1698.64,-203.64C1796.59,-197.51 1967.48,-184.78 2112.75,-163.5 2115.45,-163.1 2118.2,-162.67 2120.98,-162.21"/>
<polygon fill="#63b8ff" stroke="#63b8ff" points="1698.63,-200.13 1688.87,-204.24 1699.06,-207.12 1698.63,-200.13"/>
</a>
</g>
</g>
<!-- Node29 -->
<g id="Node000029" class="node">
<title>Node29</title>
<g id="a_Node000029"><a xlink:href="_sinh_8hh.html" target="_top" xlink:title=" ">
<polygon fill="white" stroke="#666666" points="2385.38,-163.5 2262.12,-163.5 2262.12,-133 2385.38,-133 2385.38,-163.5"/>
<text xml:space="preserve" text-anchor="start" x="2270.12" y="-150" font-family="Helvetica,sans-Serif" font-size="10.00">include/Optimist/TestSet</text>
<text xml:space="preserve" text-anchor="middle" x="2323.75" y="-138.75" font-family="Helvetica,sans-Serif" font-size="10.00">/Sinh.hh</text>
</a>
</g>
</g>
<!-- Node18&#45;&gt;Node29 -->
<g id="edge28_Node000018_Node000029" class="edge">
<title>Node18&#45;&gt;Node29</title>
<g id="a_edge28_Node000018_Node000029"><a xlink:title=" ">
<path fill="none" stroke="#63b8ff" d="M1698.49,-205.86C1819.15,-201.69 2055.11,-190.58 2253.75,-163.5 2256.45,-163.13 2259.21,-162.72 2261.99,-162.28"/>
<polygon fill="#63b8ff" stroke="#63b8ff" points="1698.57,-202.36 1688.69,-206.2 1698.8,-209.36 1698.57,-202.36"/>
</a>
</g>
</g>
<!-- Node30 -->
<g id="Node000030" class="node">
<title>Node30</title>
<g id="a_Node000030"><a xlink:href="_test11_8hh.html" target="_top" xlink:title=" ">
<polygon fill="white" stroke="#666666" points="2526.38,-163.5 2403.12,-163.5 2403.12,-133 2526.38,-133 2526.38,-163.5"/>
<text xml:space="preserve" text-anchor="start" x="2411.12" y="-150" font-family="Helvetica,sans-Serif" font-size="10.00">include/Optimist/TestSet</text>
<text xml:space="preserve" text-anchor="middle" x="2464.75" y="-138.75" font-family="Helvetica,sans-Serif" font-size="10.00">/Test11.hh</text>
</a>
</g>
</g>
<!-- Node18&#45;&gt;Node30 -->
<g id="edge29_Node000018_Node000030" class="edge">
<title>Node18&#45;&gt;Node30</title>
<g id="a_edge29_Node000018_Node000030"><a xlink:title=" ">
<path fill="none" stroke="#63b8ff" d="M1698.67,-207.3C1839.76,-205 2141.98,-196.32 2394.75,-163.5 2397.46,-163.15 2400.21,-162.75 2402.99,-162.32"/>
<polygon fill="#63b8ff" stroke="#63b8ff" points="1699.03,-203.79 1689.08,-207.45 1699.14,-210.79 1699.03,-203.79"/>
</a>
</g>
</g>
</g>
</svg>
