<?xml version="1.0" encoding="UTF-8" standalone="no"?>
<!DOCTYPE svg PUBLIC "-//W3C//DTD SVG 1.1//EN"
 "http://www.w3.org/Graphics/SVG/1.1/DTD/svg11.dtd">
<!-- Generated by graphviz version 14.0.2 (20251019.1705)
 -->
<!-- Title: include/Optimist/Function.hh Pages: 1 -->
<svg width="2684pt" height="282pt"
 viewBox="0.00 0.00 2684.00 282.00" xmlns="http://www.w3.org/2000/svg" xmlns:xlink="http://www.w3.org/1999/xlink">
<g id="graph0" class="graph" transform="scale(1 1) rotate(0) translate(4 278)">
<title>include/Optimist/Function.hh</title>
<!-- Node1 -->
<g id="Node000001" class="node">
<title>Node1</title>
<g id="a_Node000001"><a xlink:title=" ">
<polygon fill="#999999" stroke="#666666" points="1409,-274 1268.5,-274 1268.5,-254.75 1409,-254.75 1409,-274"/>
<text xml:space="preserve" text-anchor="middle" x="1338.75" y="-260.5" font-family="Helvetica,sans-Serif" font-size="10.00">include/Optimist/Function.hh</text>
</a>
</g>
</g>
<!-- Node2 -->
<g id="Node000002" class="node">
<title>Node2</title>
<g id="a_Node000002"><a xlink:href="_solver_base_8hh.html" target="_top" xlink:title=" ">
<polygon fill="white" stroke="#666666" points="985.38,-218.75 832.12,-218.75 832.12,-199.5 985.38,-199.5 985.38,-218.75"/>
<text xml:space="preserve" text-anchor="middle" x="908.75" y="-205.25" font-family="Helvetica,sans-Serif" font-size="10.00">include/Optimist/SolverBase.hh</text>
</a>
</g>
</g>
<!-- Node1&#45;&gt;Node2 -->
<g id="edge1_Node000001_Node000002" class="edge">
<title>Node1&#45;&gt;Node2</title>
<g id="a_edge1_Node000001_Node000002"><a xlink:title=" ">
<path fill="none" stroke="#63b8ff" d="M1256.83,-253.23C1177.55,-243.41 1058.47,-228.67 982.19,-219.22"/>
<polygon fill="#63b8ff" stroke="#63b8ff" points="1256.37,-256.7 1266.72,-254.46 1257.23,-249.75 1256.37,-256.7"/>
</a>
</g>
</g>
<!-- Node19 -->
<g id="Node000019" class="node">
<title>Node19</title>
<g id="a_Node000019"><a xlink:href="_test_set_8hh.html" target="_top" xlink:title=" ">
<polygon fill="white" stroke="#666666" points="1837.12,-218.75 1700.38,-218.75 1700.38,-199.5 1837.12,-199.5 1837.12,-218.75"/>
<text xml:space="preserve" text-anchor="middle" x="1768.75" y="-205.25" font-family="Helvetica,sans-Serif" font-size="10.00">include/Optimist/TestSet.hh</text>
</a>
</g>
</g>
<!-- Node1&#45;&gt;Node19 -->
<g id="edge18_Node000001_Node000019" class="edge">
<title>Node1&#45;&gt;Node19</title>
<g id="a_edge18_Node000001_Node000019"><a xlink:title=" ">
<path fill="none" stroke="#63b8ff" d="M1420.41,-253.26C1501.32,-243.24 1623.87,-228.07 1699.97,-218.64"/>
<polygon fill="#63b8ff" stroke="#63b8ff" points="1420.27,-249.75 1410.78,-254.46 1421.13,-256.7 1420.27,-249.75"/>
</a>
</g>
</g>
<!-- Node3 -->
<g id="Node000003" class="node">
<title>Node3</title>
<g id="a_Node000003"><a xlink:href="_optimizer_8hh.html" target="_top" xlink:title=" ">
<polygon fill="white" stroke="#666666" points="362.88,-157.88 218.62,-157.88 218.62,-138.62 362.88,-138.62 362.88,-157.88"/>
<text xml:space="preserve" text-anchor="middle" x="290.75" y="-144.38" font-family="Helvetica,sans-Serif" font-size="10.00">include/Optimist/Optimizer.hh</text>
</a>
</g>
</g>
<!-- Node2&#45;&gt;Node3 -->
<g id="edge2_Node000002_Node000003" class="edge">
<title>Node2&#45;&gt;Node3</title>
<g id="a_edge2_Node000002_Node000003"><a xlink:title=" ">
<path fill="none" stroke="#63b8ff" d="M820.5,-199.72C697.48,-188 476.77,-166.97 362.98,-156.13"/>
<polygon fill="#63b8ff" stroke="#63b8ff" points="819.94,-203.18 830.22,-200.64 820.6,-196.21 819.94,-203.18"/>
</a>
</g>
</g>
<!-- Node7 -->
<g id="Node000007" class="node">
<title>Node7</title>
<g id="a_Node000007"><a xlink:href="_root_finder_8hh.html" target="_top" xlink:title=" ">
<polygon fill="white" stroke="#666666" points="983.88,-157.88 833.62,-157.88 833.62,-138.62 983.88,-138.62 983.88,-157.88"/>
<text xml:space="preserve" text-anchor="middle" x="908.75" y="-144.38" font-family="Helvetica,sans-Serif" font-size="10.00">include/Optimist/RootFinder.hh</text>
</a>
</g>
</g>
<!-- Node2&#45;&gt;Node7 -->
<g id="edge6_Node000002_Node000007" class="edge">
<title>Node2&#45;&gt;Node7</title>
<g id="a_edge6_Node000002_Node000007"><a xlink:title=" ">
<path fill="none" stroke="#63b8ff" d="M908.75,-187.7C908.75,-177.67 908.75,-166.08 908.75,-158.28"/>
<polygon fill="#63b8ff" stroke="#63b8ff" points="905.25,-187.67 908.75,-197.67 912.25,-187.67 905.25,-187.67"/>
</a>
</g>
</g>
<!-- Node4 -->
<g id="Node000004" class="node">
<title>Node4</title>
<g id="a_Node000004"><a xlink:href="_nelder_mead_8hh.html" target="_top" xlink:title=" ">
<polygon fill="white" stroke="#666666" points="131.5,-97 0,-97 0,-66.5 131.5,-66.5 131.5,-97"/>
<text xml:space="preserve" text-anchor="start" x="8" y="-83.5" font-family="Helvetica,sans-Serif" font-size="10.00">include/Optimist/Optimizer</text>
<text xml:space="preserve" text-anchor="middle" x="65.75" y="-72.25" font-family="Helvetica,sans-Serif" font-size="10.00">/NelderMead.hh</text>
</a>
</g>
</g>
<!-- Node3&#45;&gt;Node4 -->
<g id="edge3_Node000003_Node000004" class="edge">
<title>Node3&#45;&gt;Node4</title>
<g id="a_edge3_Node000003_Node000004"><a xlink:title=" ">
<path fill="none" stroke="#63b8ff" d="M247.99,-134.99C210.67,-124.29 156.45,-108.75 116.85,-97.4"/>
<polygon fill="#63b8ff" stroke="#63b8ff" points="246.96,-138.34 257.54,-137.73 248.89,-131.61 246.96,-138.34"/>
</a>
</g>
</g>
<!-- Node5 -->
<g id="Node000005" class="node">
<title>Node5</title>
<g id="a_Node000005"><a xlink:href="_particle_swarm_8hh.html" target="_top" xlink:title=" ">
<polygon fill="white" stroke="#666666" points="281.5,-97 150,-97 150,-66.5 281.5,-66.5 281.5,-97"/>
<text xml:space="preserve" text-anchor="start" x="158" y="-83.5" font-family="Helvetica,sans-Serif" font-size="10.00">include/Optimist/Optimizer</text>
<text xml:space="preserve" text-anchor="middle" x="215.75" y="-72.25" font-family="Helvetica,sans-Serif" font-size="10.00">/ParticleSwarm.hh</text>
</a>
</g>
</g>
<!-- Node3&#45;&gt;Node5 -->
<g id="edge4_Node000003_Node000005" class="edge">
<title>Node3&#45;&gt;Node5</title>
<g id="a_edge4_Node000003_Node000005"><a xlink:title=" ">
<path fill="none" stroke="#63b8ff" d="M271.9,-131.04C259.86,-120.69 244.37,-107.37 232.72,-97.34"/>
<polygon fill="#63b8ff" stroke="#63b8ff" points="269.31,-133.43 279.17,-137.29 273.87,-128.12 269.31,-133.43"/>
</a>
</g>
</g>
<!-- Node6 -->
<g id="Node000006" class="node">
<title>Node6</title>
<g id="a_Node000006"><a xlink:href="_pattern_search_8hh.html" target="_top" xlink:title=" ">
<polygon fill="white" stroke="#666666" points="431.5,-97 300,-97 300,-66.5 431.5,-66.5 431.5,-97"/>
<text xml:space="preserve" text-anchor="start" x="308" y="-83.5" font-family="Helvetica,sans-Serif" font-size="10.00">include/Optimist/Optimizer</text>
<text xml:space="preserve" text-anchor="middle" x="365.75" y="-72.25" font-family="Helvetica,sans-Serif" font-size="10.00">/PatternSearch.hh</text>
</a>
</g>
</g>
<!-- Node3&#45;&gt;Node6 -->
<g id="edge5_Node000003_Node000006" class="edge">
<title>Node3&#45;&gt;Node6</title>
<g id="a_edge5_Node000003_Node000006"><a xlink:title=" ">
<path fill="none" stroke="#63b8ff" d="M309.6,-131.04C321.64,-120.69 337.13,-107.37 348.78,-97.34"/>
<polygon fill="#63b8ff" stroke="#63b8ff" points="307.63,-128.12 302.33,-137.29 312.19,-133.43 307.63,-128.12"/>
</a>
</g>
</g>
<!-- Node8 -->
<g id="Node000008" class="node">
<title>Node8</title>
<g id="a_Node000008"><a xlink:href="_bracketing_8hh.html" target="_top" xlink:title=" ">
<polygon fill="white" stroke="#666666" points="587.5,-97 450,-97 450,-66.5 587.5,-66.5 587.5,-97"/>
<text xml:space="preserve" text-anchor="start" x="458" y="-83.5" font-family="Helvetica,sans-Serif" font-size="10.00">include/Optimist/RootFinder</text>
<text xml:space="preserve" text-anchor="middle" x="518.75" y="-72.25" font-family="Helvetica,sans-Serif" font-size="10.00">/Bracketing.hh</text>
</a>
</g>
</g>
<!-- Node7&#45;&gt;Node8 -->
<g id="edge7_Node000007_Node000008" class="edge">
<title>Node7&#45;&gt;Node8</title>
<g id="a_edge7_Node000007_Node000008"><a xlink:title=" ">
<path fill="none" stroke="#63b8ff" d="M838.71,-136.4C775.43,-126.5 679.77,-111.27 596.75,-97 593.77,-96.49 590.72,-95.96 587.64,-95.42"/>
<polygon fill="#63b8ff" stroke="#63b8ff" points="837.83,-139.81 848.25,-137.89 838.91,-132.89 837.83,-139.81"/>
</a>
</g>
</g>
<!-- Node11 -->
<g id="Node000011" class="node">
<title>Node11</title>
<g id="a_Node000011"><a xlink:href="_chebyshev_8hh.html" target="_top" xlink:title=" ">
<polygon fill="white" stroke="#666666" points="743.5,-97 606,-97 606,-66.5 743.5,-66.5 743.5,-97"/>
<text xml:space="preserve" text-anchor="start" x="614" y="-83.5" font-family="Helvetica,sans-Serif" font-size="10.00">include/Optimist/RootFinder</text>
<text xml:space="preserve" text-anchor="middle" x="674.75" y="-72.25" font-family="Helvetica,sans-Serif" font-size="10.00">/Chebyshev.hh</text>
</a>
</g>
</g>
<!-- Node7&#45;&gt;Node11 -->
<g id="edge10_Node000007_Node000011" class="edge">
<title>Node7&#45;&gt;Node11</title>
<g id="a_edge10_Node000007_Node000011"><a xlink:title=" ">
<path fill="none" stroke="#63b8ff" d="M864.78,-135.13C825.95,-124.43 769.25,-108.8 727.9,-97.4"/>
<polygon fill="#63b8ff" stroke="#63b8ff" points="863.69,-138.46 874.26,-137.74 865.55,-131.71 863.69,-138.46"/>
</a>
</g>
</g>
<!-- Node12 -->
<g id="Node000012" class="node">
<title>Node12</title>
<g id="a_Node000012"><a xlink:href="_halley_8hh.html" target="_top" xlink:title=" ">
<polygon fill="white" stroke="#666666" points="899.5,-97 762,-97 762,-66.5 899.5,-66.5 899.5,-97"/>
<text xml:space="preserve" text-anchor="start" x="770" y="-83.5" font-family="Helvetica,sans-Serif" font-size="10.00">include/Optimist/RootFinder</text>
<text xml:space="preserve" text-anchor="middle" x="830.75" y="-72.25" font-family="Helvetica,sans-Serif" font-size="10.00">/Halley.hh</text>
</a>
</g>
</g>
<!-- Node7&#45;&gt;Node12 -->
<g id="edge11_Node000007_Node000012" class="edge">
<title>Node7&#45;&gt;Node12</title>
<g id="a_edge11_Node000007_Node000012"><a xlink:title=" ">
<path fill="none" stroke="#63b8ff" d="M889.15,-131.04C876.63,-120.69 860.52,-107.37 848.39,-97.34"/>
<polygon fill="#63b8ff" stroke="#63b8ff" points="886.8,-133.64 896.74,-137.32 891.26,-128.25 886.8,-133.64"/>
</a>
</g>
</g>
<!-- Node13 -->
<g id="Node000013" class="node">
<title>Node13</title>
<g id="a_Node000013"><a xlink:href="_newton_8hh.html" target="_top" xlink:title=" ">
<polygon fill="white" stroke="#666666" points="1055.5,-97 918,-97 918,-66.5 1055.5,-66.5 1055.5,-97"/>
<text xml:space="preserve" text-anchor="start" x="926" y="-83.5" font-family="Helvetica,sans-Serif" font-size="10.00">include/Optimist/RootFinder</text>
<text xml:space="preserve" text-anchor="middle" x="986.75" y="-72.25" font-family="Helvetica,sans-Serif" font-size="10.00">/Newton.hh</text>
</a>
</g>
</g>
<!-- Node7&#45;&gt;Node13 -->
<g id="edge12_Node000007_Node000013" class="edge">
<title>Node7&#45;&gt;Node13</title>
<g id="a_edge12_Node000007_Node000013"><a xlink:title=" ">
<path fill="none" stroke="#63b8ff" d="M928.35,-131.04C940.87,-120.69 956.98,-107.37 969.11,-97.34"/>
<polygon fill="#63b8ff" stroke="#63b8ff" points="926.24,-128.25 920.76,-137.32 930.7,-133.64 926.24,-128.25"/>
</a>
</g>
</g>
<!-- Node14 -->
<g id="Node000014" class="node">
<title>Node14</title>
<g id="a_Node000014"><a xlink:href="_newton_raphson_8hh.html" target="_top" xlink:title=" ">
<polygon fill="white" stroke="#666666" points="1211.5,-97 1074,-97 1074,-66.5 1211.5,-66.5 1211.5,-97"/>
<text xml:space="preserve" text-anchor="start" x="1082" y="-83.5" font-family="Helvetica,sans-Serif" font-size="10.00">include/Optimist/RootFinder</text>
<text xml:space="preserve" text-anchor="middle" x="1142.75" y="-72.25" font-family="Helvetica,sans-Serif" font-size="10.00">/NewtonRaphson.hh</text>
</a>
</g>
</g>
<!-- Node7&#45;&gt;Node14 -->
<g id="edge13_Node000007_Node000014" class="edge">
<title>Node7&#45;&gt;Node14</title>
<g id="a_edge13_Node000007_Node000014"><a xlink:title=" ">
<path fill="none" stroke="#63b8ff" d="M952.72,-135.13C991.55,-124.43 1048.25,-108.8 1089.6,-97.4"/>
<polygon fill="#63b8ff" stroke="#63b8ff" points="951.95,-131.71 943.24,-137.74 953.81,-138.46 951.95,-131.71"/>
</a>
</g>
</g>
<!-- Node15 -->
<g id="Node000015" class="node">
<title>Node15</title>
<g id="a_Node000015"><a xlink:href="_quasi_newton_8hh.html" target="_top" xlink:title=" ">
<polygon fill="white" stroke="#666666" points="1367.5,-97 1230,-97 1230,-66.5 1367.5,-66.5 1367.5,-97"/>
<text xml:space="preserve" text-anchor="start" x="1238" y="-83.5" font-family="Helvetica,sans-Serif" font-size="10.00">include/Optimist/RootFinder</text>
<text xml:space="preserve" text-anchor="middle" x="1298.75" y="-72.25" font-family="Helvetica,sans-Serif" font-size="10.00">/QuasiNewton.hh</text>
</a>
</g>
</g>
<!-- Node7&#45;&gt;Node15 -->
<g id="edge14_Node000007_Node000015" class="edge">
<title>Node7&#45;&gt;Node15</title>
<g id="a_edge14_Node000007_Node000015"><a xlink:title=" ">
<path fill="none" stroke="#63b8ff" d="M972.85,-136.3C979.57,-135.17 986.3,-134.06 992.75,-133 1093.99,-116.42 1119.62,-114.22 1220.75,-97 1223.74,-96.49 1226.78,-95.97 1229.86,-95.43"/>
<polygon fill="#63b8ff" stroke="#63b8ff" points="972.38,-132.83 963.1,-137.94 973.54,-139.73 972.38,-132.83"/>
</a>
</g>
</g>
<!-- Node18 -->
<g id="Node000018" class="node">
<title>Node18</title>
<g id="a_Node000018"><a xlink:href="_varona_8hh.html" target="_top" xlink:title=" ">
<polygon fill="white" stroke="#666666" points="1523.5,-97 1386,-97 1386,-66.5 1523.5,-66.5 1523.5,-97"/>
<text xml:space="preserve" text-anchor="start" x="1394" y="-83.5" font-family="Helvetica,sans-Serif" font-size="10.00">include/Optimist/RootFinder</text>
<text xml:space="preserve" text-anchor="middle" x="1454.75" y="-72.25" font-family="Helvetica,sans-Serif" font-size="10.00">/Varona.hh</text>
</a>
</g>
</g>
<!-- Node7&#45;&gt;Node18 -->
<g id="edge17_Node000007_Node000018" class="edge">
<title>Node7&#45;&gt;Node18</title>
<g id="a_edge17_Node000007_Node000018"><a xlink:title=" ">
<path fill="none" stroke="#63b8ff" d="M969.66,-136.37C977.42,-135.14 985.26,-133.98 992.75,-133 1162.7,-110.65 1206.94,-120.43 1376.75,-97 1379.75,-96.59 1382.81,-96.14 1385.9,-95.66"/>
<polygon fill="#63b8ff" stroke="#63b8ff" points="969.21,-132.9 959.9,-137.95 970.33,-139.8 969.21,-132.9"/>
</a>
</g>
</g>
<!-- Node9 -->
<g id="Node000009" class="node">
<title>Node9</title>
<g id="a_Node000009"><a xlink:href="_algo748_8hh.html" target="_top" xlink:title=" ">
<polygon fill="white" stroke="#666666" points="509.5,-30.5 372,-30.5 372,0 509.5,0 509.5,-30.5"/>
<text xml:space="preserve" text-anchor="start" x="380" y="-17" font-family="Helvetica,sans-Serif" font-size="10.00">include/Optimist/RootFinder</text>
<text xml:space="preserve" text-anchor="middle" x="440.75" y="-5.75" font-family="Helvetica,sans-Serif" font-size="10.00">/Algo748.hh</text>
</a>
</g>
</g>
<!-- Node8&#45;&gt;Node9 -->
<g id="edge8_Node000008_Node000009" class="edge">
<title>Node8&#45;&gt;Node9</title>
<g id="a_edge8_Node000008_Node000009"><a xlink:title=" ">
<path fill="none" stroke="#63b8ff" d="M492.47,-59.02C481.24,-49.73 468.44,-39.15 458.38,-30.83"/>
<polygon fill="#63b8ff" stroke="#63b8ff" points="489.95,-61.47 499.88,-65.15 494.41,-56.08 489.95,-61.47"/>
</a>
</g>
</g>
<!-- Node10 -->
<g id="Node000010" class="node">
<title>Node10</title>
<g id="a_Node000010"><a xlink:href="_chandrupatla_8hh.html" target="_top" xlink:title=" ">
<polygon fill="white" stroke="#666666" points="665.5,-30.5 528,-30.5 528,0 665.5,0 665.5,-30.5"/>
<text xml:space="preserve" text-anchor="start" x="536" y="-17" font-family="Helvetica,sans-Serif" font-size="10.00">include/Optimist/RootFinder</text>
<text xml:space="preserve" text-anchor="middle" x="596.75" y="-5.75" font-family="Helvetica,sans-Serif" font-size="10.00">/Chandrupatla.hh</text>
</a>
</g>
</g>
<!-- Node8&#45;&gt;Node10 -->
<g id="edge9_Node000008_Node000010" class="edge">
<title>Node8&#45;&gt;Node10</title>
<g id="a_edge9_Node000008_Node000010"><a xlink:title=" ">
<path fill="none" stroke="#63b8ff" d="M545.03,-59.02C556.26,-49.73 569.06,-39.15 579.12,-30.83"/>
<polygon fill="#63b8ff" stroke="#63b8ff" points="543.09,-56.08 537.62,-65.15 547.55,-61.47 543.09,-56.08"/>
</a>
</g>
</g>
<!-- Node16 -->
<g id="Node000016" class="node">
<title>Node16</title>
<g id="a_Node000016"><a xlink:href="_broyden_8hh.html" target="_top" xlink:title=" ">
<polygon fill="white" stroke="#666666" points="1289.5,-30.5 1152,-30.5 1152,0 1289.5,0 1289.5,-30.5"/>
<text xml:space="preserve" text-anchor="start" x="1160" y="-17" font-family="Helvetica,sans-Serif" font-size="10.00">include/Optimist/RootFinder</text>
<text xml:space="preserve" text-anchor="middle" x="1220.75" y="-5.75" font-family="Helvetica,sans-Serif" font-size="10.00">/Broyden.hh</text>
</a>
</g>
</g>
<!-- Node15&#45;&gt;Node16 -->
<g id="edge15_Node000015_Node000016" class="edge">
<title>Node15&#45;&gt;Node16</title>
<g id="a_edge15_Node000015_Node000016"><a xlink:title=" ">
<path fill="none" stroke="#63b8ff" d="M1272.47,-59.02C1261.24,-49.73 1248.44,-39.15 1238.38,-30.83"/>
<polygon fill="#63b8ff" stroke="#63b8ff" points="1269.95,-61.47 1279.88,-65.15 1274.41,-56.08 1269.95,-61.47"/>
</a>
</g>
</g>
<!-- Node17 -->
<g id="Node000017" class="node">
<title>Node17</title>
<g id="a_Node000017"><a xlink:href="_greenstadt_8hh.html" target="_top" xlink:title=" ">
<polygon fill="white" stroke="#666666" points="1445.5,-30.5 1308,-30.5 1308,0 1445.5,0 1445.5,-30.5"/>
<text xml:space="preserve" text-anchor="start" x="1316" y="-17" font-family="Helvetica,sans-Serif" font-size="10.00">include/Optimist/RootFinder</text>
<text xml:space="preserve" text-anchor="middle" x="1376.75" y="-5.75" font-family="Helvetica,sans-Serif" font-size="10.00">/Greenstadt.hh</text>
</a>
</g>
</g>
<!-- Node15&#45;&gt;Node17 -->
<g id="edge16_Node000015_Node000017" class="edge">
<title>Node15&#45;&gt;Node17</title>
<g id="a_edge16_Node000015_Node000017"><a xlink:title=" ">
<path fill="none" stroke="#63b8ff" d="M1325.03,-59.02C1336.26,-49.73 1349.06,-39.15 1359.12,-30.83"/>
<polygon fill="#63b8ff" stroke="#63b8ff" points="1323.09,-56.08 1317.62,-65.15 1327.55,-61.47 1323.09,-56.08"/>
</a>
</g>
</g>
<!-- Node20 -->
<g id="Node000020" class="node">
<title>Node20</title>
<g id="a_Node000020"><a xlink:href="_booth_8hh.html" target="_top" xlink:title=" ">
<polygon fill="white" stroke="#666666" points="1125.38,-163.5 1002.12,-163.5 1002.12,-133 1125.38,-133 1125.38,-163.5"/>
<text xml:space="preserve" text-anchor="start" x="1010.12" y="-150" font-family="Helvetica,sans-Serif" font-size="10.00">include/Optimist/TestSet</text>
<text xml:space="preserve" text-anchor="middle" x="1063.75" y="-138.75" font-family="Helvetica,sans-Serif" font-size="10.00">/Booth.hh</text>
</a>
</g>
</g>
<!-- Node19&#45;&gt;Node20 -->
<g id="edge19_Node000019_Node000020" class="edge">
<title>Node19&#45;&gt;Node20</title>
<g id="a_edge19_Node000019_Node000020"><a xlink:title=" ">
<path fill="none" stroke="#63b8ff" d="M1689.01,-205.86C1568.35,-201.69 1332.39,-190.58 1133.75,-163.5 1131.05,-163.13 1128.29,-162.72 1125.51,-162.28"/>
<polygon fill="#63b8ff" stroke="#63b8ff" points="1688.7,-209.36 1698.81,-206.2 1688.93,-202.36 1688.7,-209.36"/>
</a>
</g>
</g>
<!-- Node21 -->
<g id="Node000021" class="node">
<title>Node21</title>
<g id="a_Node000021"><a xlink:href="_brown_8hh.html" target="_top" xlink:title=" ">
<polygon fill="white" stroke="#666666" points="1266.38,-163.5 1143.12,-163.5 1143.12,-133 1266.38,-133 1266.38,-163.5"/>
<text xml:space="preserve" text-anchor="start" x="1151.12" y="-150" font-family="Helvetica,sans-Serif" font-size="10.00">include/Optimist/TestSet</text>
<text xml:space="preserve" text-anchor="middle" x="1204.75" y="-138.75" font-family="Helvetica,sans-Serif" font-size="10.00">/Brown.hh</text>
</a>
</g>
</g>
<!-- Node19&#45;&gt;Node21 -->
<g id="edge20_Node000019_Node000021" class="edge">
<title>Node19&#45;&gt;Node21</title>
<g id="a_edge20_Node000019_Node000021"><a xlink:title=" ">
<path fill="none" stroke="#63b8ff" d="M1688.86,-203.64C1590.91,-197.51 1420.02,-184.78 1274.75,-163.5 1272.05,-163.1 1269.3,-162.67 1266.52,-162.21"/>
<polygon fill="#63b8ff" stroke="#63b8ff" points="1688.44,-207.12 1698.63,-204.24 1688.87,-200.13 1688.44,-207.12"/>
</a>
</g>
</g>
<!-- Node22 -->
<g id="Node000022" class="node">
<title>Node22</title>
<g id="a_Node000022"><a xlink:href="_cos_8hh.html" target="_top" xlink:title=" ">
<polygon fill="white" stroke="#666666" points="1407.38,-163.5 1284.12,-163.5 1284.12,-133 1407.38,-133 1407.38,-163.5"/>
<text xml:space="preserve" text-anchor="start" x="1292.12" y="-150" font-family="Helvetica,sans-Serif" font-size="10.00">include/Optimist/TestSet</text>
<text xml:space="preserve" text-anchor="middle" x="1345.75" y="-138.75" font-family="Helvetica,sans-Serif" font-size="10.00">/Cos.hh</text>
</a>
</g>
</g>
<!-- Node19&#45;&gt;Node22 -->
<g id="edge21_Node000019_Node000022" class="edge">
<title>Node19&#45;&gt;Node22</title>
<g id="a_edge21_Node000019_Node000022"><a xlink:title=" ">
<path fill="none" stroke="#63b8ff" d="M1689.01,-199.77C1617.3,-191.85 1509.19,-178.89 1415.75,-163.5 1413.06,-163.06 1410.31,-162.58 1407.54,-162.09"/>
<polygon fill="#63b8ff" stroke="#63b8ff" points="1688.37,-203.22 1698.69,-200.84 1689.13,-196.27 1688.37,-203.22"/>
</a>
</g>
</g>
<!-- Node23 -->
<g id="Node000023" class="node">
<title>Node23</title>
<g id="a_Node000023"><a xlink:href="_cosh_8hh.html" target="_top" xlink:title=" ">
<polygon fill="white" stroke="#666666" points="1548.38,-163.5 1425.12,-163.5 1425.12,-133 1548.38,-133 1548.38,-163.5"/>
<text xml:space="preserve" text-anchor="start" x="1433.12" y="-150" font-family="Helvetica,sans-Serif" font-size="10.00">include/Optimist/TestSet</text>
<text xml:space="preserve" text-anchor="middle" x="1486.75" y="-138.75" font-family="Helvetica,sans-Serif" font-size="10.00">/Cosh.hh</text>
</a>
</g>
</g>
<!-- Node19&#45;&gt;Node23 -->
<g id="edge22_Node000019_Node000023" class="edge">
<title>Node19&#45;&gt;Node23</title>
<g id="a_edge22_Node000019_Node000023"><a xlink:title=" ">
<path fill="none" stroke="#63b8ff" d="M1714.04,-196.7C1666.69,-186.82 1598.23,-172.52 1548.83,-162.21"/>
<polygon fill="#63b8ff" stroke="#63b8ff" points="1713.32,-200.13 1723.82,-198.75 1714.75,-193.28 1713.32,-200.13"/>
</a>
</g>
</g>
<!-- Node24 -->
<g id="Node000024" class="node">
<title>Node24</title>
<g id="a_Node000024"><a xlink:href="_elliptic_paraboloid_8hh.html" target="_top" xlink:title=" ">
<polygon fill="white" stroke="#666666" points="1689.38,-163.5 1566.12,-163.5 1566.12,-133 1689.38,-133 1689.38,-163.5"/>
<text xml:space="preserve" text-anchor="start" x="1574.12" y="-150" font-family="Helvetica,sans-Serif" font-size="10.00">include/Optimist/TestSet</text>
<text xml:space="preserve" text-anchor="middle" x="1627.75" y="-138.75" font-family="Helvetica,sans-Serif" font-size="10.00">/EllipticParaboloid.hh</text>
</a>
</g>
</g>
<!-- Node19&#45;&gt;Node24 -->
<g id="edge23_Node000019_Node000024" class="edge">
<title>Node19&#45;&gt;Node24</title>
<g id="a_edge23_Node000019_Node000024"><a xlink:title=" ">
<path fill="none" stroke="#63b8ff" d="M1736.57,-194.69C1714.61,-185.52 1685.52,-173.37 1662.94,-163.94"/>
<polygon fill="#63b8ff" stroke="#63b8ff" points="1735.05,-197.85 1745.63,-198.47 1737.75,-191.39 1735.05,-197.85"/>
</a>
</g>
</g>
<!-- Node25 -->
<g id="Node000025" class="node">
<title>Node25</title>
<g id="a_Node000025"><a xlink:href="_linear_8hh.html" target="_top" xlink:title=" ">
<polygon fill="white" stroke="#666666" points="1830.38,-163.5 1707.12,-163.5 1707.12,-133 1830.38,-133 1830.38,-163.5"/>
<text xml:space="preserve" text-anchor="start" x="1715.12" y="-150" font-family="Helvetica,sans-Serif" font-size="10.00">include/Optimist/TestSet</text>
<text xml:space="preserve" text-anchor="middle" x="1768.75" y="-138.75" font-family="Helvetica,sans-Serif" font-size="10.00">/Linear.hh</text>
</a>
</g>
</g>
<!-- Node19&#45;&gt;Node25 -->
<g id="edge24_Node000019_Node000025" class="edge">
<title>Node19&#45;&gt;Node25</title>
<g id="a_edge24_Node000019_Node000025"><a xlink:title=" ">
<path fill="none" stroke="#63b8ff" d="M1768.75,-187.92C1768.75,-179.99 1768.75,-171.06 1768.75,-163.78"/>
<polygon fill="#63b8ff" stroke="#63b8ff" points="1765.25,-187.67 1768.75,-197.67 1772.25,-187.67 1765.25,-187.67"/>
</a>
</g>
</g>
<!-- Node26 -->
<g id="Node000026" class="node">
<title>Node26</title>
<g id="a_Node000026"><a xlink:href="_quadratic_8hh.html" target="_top" xlink:title=" ">
<polygon fill="white" stroke="#666666" points="1971.38,-163.5 1848.12,-163.5 1848.12,-133 1971.38,-133 1971.38,-163.5"/>
<text xml:space="preserve" text-anchor="start" x="1856.12" y="-150" font-family="Helvetica,sans-Serif" font-size="10.00">include/Optimist/TestSet</text>
<text xml:space="preserve" text-anchor="middle" x="1909.75" y="-138.75" font-family="Helvetica,sans-Serif" font-size="10.00">/Quadratic.hh</text>
</a>
</g>
</g>
<!-- Node19&#45;&gt;Node26 -->
<g id="edge25_Node000019_Node000026" class="edge">
<title>Node19&#45;&gt;Node26</title>
<g id="a_edge25_Node000019_Node000026"><a xlink:title=" ">
<path fill="none" stroke="#63b8ff" d="M1800.93,-194.69C1822.89,-185.52 1851.98,-173.37 1874.56,-163.94"/>
<polygon fill="#63b8ff" stroke="#63b8ff" points="1799.75,-191.39 1791.87,-198.47 1802.45,-197.85 1799.75,-191.39"/>
</a>
</g>
</g>
<!-- Node27 -->
<g id="Node000027" class="node">
<title>Node27</title>
<g id="a_Node000027"><a xlink:href="_rosenbrock_8hh.html" target="_top" xlink:title=" ">
<polygon fill="white" stroke="#666666" points="2112.38,-163.5 1989.12,-163.5 1989.12,-133 2112.38,-133 2112.38,-163.5"/>
<text xml:space="preserve" text-anchor="start" x="1997.12" y="-150" font-family="Helvetica,sans-Serif" font-size="10.00">include/Optimist/TestSet</text>
<text xml:space="preserve" text-anchor="middle" x="2050.75" y="-138.75" font-family="Helvetica,sans-Serif" font-size="10.00">/Rosenbrock.hh</text>
</a>
</g>
</g>
<!-- Node19&#45;&gt;Node27 -->
<g id="edge26_Node000019_Node000027" class="edge">
<title>Node19&#45;&gt;Node27</title>
<g id="a_edge26_Node000019_Node000027"><a xlink:title=" ">
<path fill="none" stroke="#63b8ff" d="M1823.46,-196.7C1870.81,-186.82 1939.27,-172.52 1988.67,-162.21"/>
<polygon fill="#63b8ff" stroke="#63b8ff" points="1822.75,-193.28 1813.68,-198.75 1824.18,-200.13 1822.75,-193.28"/>
</a>
</g>
</g>
<!-- Node28 -->
<g id="Node000028" class="node">
<title>Node28</title>
<g id="a_Node000028"><a xlink:href="_schaffer2_8hh.html" target="_top" xlink:title=" ">
<polygon fill="white" stroke="#666666" points="2253.38,-163.5 2130.12,-163.5 2130.12,-133 2253.38,-133 2253.38,-163.5"/>
<text xml:space="preserve" text-anchor="start" x="2138.12" y="-150" font-family="Helvetica,sans-Serif" font-size="10.00">include/Optimist/TestSet</text>
<text xml:space="preserve" text-anchor="middle" x="2191.75" y="-138.75" font-family="Helvetica,sans-Serif" font-size="10.00">/Schaffer2.hh</text>
</a>
</g>
</g>
<!-- Node19&#45;&gt;Node28 -->
<g id="edge27_Node000019_Node000028" class="edge">
<title>Node19&#45;&gt;Node28</title>
<g id="a_edge27_Node000019_Node000028"><a xlink:title=" ">
<path fill="none" stroke="#63b8ff" d="M1848.49,-199.77C1920.2,-191.85 2028.31,-178.89 2121.75,-163.5 2124.44,-163.06 2127.19,-162.58 2129.96,-162.09"/>
<polygon fill="#63b8ff" stroke="#63b8ff" points="1848.37,-196.27 1838.81,-200.84 1849.13,-203.22 1848.37,-196.27"/>
</a>
</g>
</g>
<!-- Node29 -->
<g id="Node000029" class="node">
<title>Node29</title>
<g id="a_Node000029"><a xlink:href="_sin_8hh.html" target="_top" xlink:title=" ">
<polygon fill="white" stroke="#666666" points="2394.38,-163.5 2271.12,-163.5 2271.12,-133 2394.38,-133 2394.38,-163.5"/>
<text xml:space="preserve" text-anchor="start" x="2279.12" y="-150" font-family="Helvetica,sans-Serif" font-size="10.00">include/Optimist/TestSet</text>
<text xml:space="preserve" text-anchor="middle" x="2332.75" y="-138.75" font-family="Helvetica,sans-Serif" font-size="10.00">/Sin.hh</text>
</a>
</g>
</g>
<!-- Node19&#45;&gt;Node29 -->
<g id="edge28_Node000019_Node000029" class="edge">
<title>Node19&#45;&gt;Node29</title>
<g id="a_edge28_Node000019_Node000029"><a xlink:title=" ">
<path fill="none" stroke="#63b8ff" d="M1848.64,-203.64C1946.59,-197.51 2117.48,-184.78 2262.75,-163.5 2265.45,-163.1 2268.2,-162.67 2270.98,-162.21"/>
<polygon fill="#63b8ff" stroke="#63b8ff" points="1848.63,-200.13 1838.87,-204.24 1849.06,-207.12 1848.63,-200.13"/>
</a>
</g>
</g>
<!-- Node30 -->
<g id="Node000030" class="node">
<title>Node30</title>
<g id="a_Node000030"><a xlink:href="_sinh_8hh.html" target="_top" xlink:title=" ">
<polygon fill="white" stroke="#666666" points="2535.38,-163.5 2412.12,-163.5 2412.12,-133 2535.38,-133 2535.38,-163.5"/>
<text xml:space="preserve" text-anchor="start" x="2420.12" y="-150" font-family="Helvetica,sans-Serif" font-size="10.00">include/Optimist/TestSet</text>
<text xml:space="preserve" text-anchor="middle" x="2473.75" y="-138.75" font-family="Helvetica,sans-Serif" font-size="10.00">/Sinh.hh</text>
</a>
</g>
</g>
<!-- Node19&#45;&gt;Node30 -->
<g id="edge29_Node000019_Node000030" class="edge">
<title>Node19&#45;&gt;Node30</title>
<g id="a_edge29_Node000019_Node000030"><a xlink:title=" ">
<path fill="none" stroke="#63b8ff" d="M1848.49,-205.86C1969.15,-201.69 2205.11,-190.58 2403.75,-163.5 2406.45,-163.13 2409.21,-162.72 2411.99,-162.28"/>
<polygon fill="#63b8ff" stroke="#63b8ff" points="1848.57,-202.36 1838.69,-206.2 1848.8,-209.36 1848.57,-202.36"/>
</a>
</g>
</g>
<!-- Node31 -->
<g id="Node000031" class="node">
<title>Node31</title>
<g id="a_Node000031"><a xlink:href="_test11_8hh.html" target="_top" xlink:title=" ">
<polygon fill="white" stroke="#666666" points="2676.38,-163.5 2553.12,-163.5 2553.12,-133 2676.38,-133 2676.38,-163.5"/>
<text xml:space="preserve" text-anchor="start" x="2561.12" y="-150" font-family="Helvetica,sans-Serif" font-size="10.00">include/Optimist/TestSet</text>
<text xml:space="preserve" text-anchor="middle" x="2614.75" y="-138.75" font-family="Helvetica,sans-Serif" font-size="10.00">/Test11.hh</text>
</a>
</g>
</g>
<!-- Node19&#45;&gt;Node31 -->
<g id="edge30_Node000019_Node000031" class="edge">
<title>Node19&#45;&gt;Node31</title>
<g id="a_edge30_Node000019_Node000031"><a xlink:title=" ">
<path fill="none" stroke="#63b8ff" d="M1848.67,-207.3C1989.76,-205 2291.98,-196.32 2544.75,-163.5 2547.46,-163.15 2550.21,-162.75 2552.99,-162.32"/>
<polygon fill="#63b8ff" stroke="#63b8ff" points="1849.03,-203.79 1839.08,-207.45 1849.14,-210.79 1849.03,-203.79"/>
</a>
</g>
</g>
</g>
</svg>
