<?xml version="1.0" encoding="UTF-8" standalone="no"?>
<!DOCTYPE svg PUBLIC "-//W3C//DTD SVG 1.1//EN"
 "http://www.w3.org/Graphics/SVG/1.1/DTD/svg11.dtd">
<!-- Generated by graphviz version 14.1.2 (20260124.0452)
 -->
<!-- Title: core/include/Optimist/Function.hh Pages: 1 -->
<svg width="2104pt" height="305pt"
 viewBox="0.00 0.00 2104.00 305.00" xmlns="http://www.w3.org/2000/svg" xmlns:xlink="http://www.w3.org/1999/xlink">
<g id="graph0" class="graph" transform="scale(1 1) rotate(0) translate(4 300.5)">
<title>core/include/Optimist/Function.hh</title>
<!-- Node1 -->
<g id="Node000001" class="node">
<title>Node1</title>
<g id="a_Node000001"><a xlink:title=" ">
<polygon fill="#999999" stroke="#666666" points="1372.12,-296.5 1263.88,-296.5 1263.88,-266 1372.12,-266 1372.12,-296.5"/>
<text xml:space="preserve" text-anchor="start" x="1271.88" y="-283" font-family="Helvetica,sans-Serif" font-size="10.00">core/include/Optimist</text>
<text xml:space="preserve" text-anchor="middle" x="1318" y="-271.75" font-family="Helvetica,sans-Serif" font-size="10.00">/Function.hh</text>
</a>
</g>
</g>
<!-- Node2 -->
<g id="Node000002" class="node">
<title>Node2</title>
<g id="a_Node000002"><a xlink:href="_solver_base_8hh.html" target="_top" xlink:title=" ">
<polygon fill="white" stroke="#666666" points="652.12,-230 543.88,-230 543.88,-199.5 652.12,-199.5 652.12,-230"/>
<text xml:space="preserve" text-anchor="start" x="551.88" y="-216.5" font-family="Helvetica,sans-Serif" font-size="10.00">core/include/Optimist</text>
<text xml:space="preserve" text-anchor="middle" x="598" y="-205.25" font-family="Helvetica,sans-Serif" font-size="10.00">/SolverBase.hh</text>
</a>
</g>
</g>
<!-- Node1&#45;&gt;Node2 -->
<g id="edge1_Node000001_Node000002" class="edge">
<title>Node1&#45;&gt;Node2</title>
<g id="a_edge1_Node000001_Node000002"><a xlink:title=" ">
<path fill="none" stroke="#63b8ff" d="M1252.23,-278.4C1133.53,-274.35 875.85,-262.34 661,-230 658.23,-229.58 655.4,-229.11 652.54,-228.6"/>
<polygon fill="#63b8ff" stroke="#63b8ff" points="1251.99,-281.89 1262.1,-278.73 1252.23,-274.9 1251.99,-281.89"/>
</a>
</g>
</g>
<!-- Node19 -->
<g id="Node000019" class="node">
<title>Node19</title>
<g id="a_Node000019"><a xlink:href="_booth_8hh.html" target="_top" xlink:title=" ">
<polygon fill="white" stroke="#666666" points="778.12,-230 669.88,-230 669.88,-199.5 778.12,-199.5 778.12,-230"/>
<text xml:space="preserve" text-anchor="start" x="677.88" y="-216.5" font-family="Helvetica,sans-Serif" font-size="10.00">core/include/Optimist</text>
<text xml:space="preserve" text-anchor="middle" x="724" y="-205.25" font-family="Helvetica,sans-Serif" font-size="10.00">/TestSet/Booth.hh</text>
</a>
</g>
</g>
<!-- Node1&#45;&gt;Node19 -->
<g id="edge18_Node000001_Node000019" class="edge">
<title>Node1&#45;&gt;Node19</title>
<g id="a_edge18_Node000001_Node000019"><a xlink:title=" ">
<path fill="none" stroke="#63b8ff" d="M1252.24,-276.74C1151.57,-270.76 953.41,-256.58 787,-230 784.23,-229.56 781.4,-229.07 778.55,-228.54"/>
<polygon fill="#63b8ff" stroke="#63b8ff" points="1251.74,-280.22 1261.93,-277.31 1252.15,-273.23 1251.74,-280.22"/>
</a>
</g>
</g>
<!-- Node21 -->
<g id="Node000021" class="node">
<title>Node21</title>
<g id="a_Node000021"><a xlink:href="_brown_8hh.html" target="_top" xlink:title=" ">
<polygon fill="white" stroke="#666666" points="904.12,-230 795.88,-230 795.88,-199.5 904.12,-199.5 904.12,-230"/>
<text xml:space="preserve" text-anchor="start" x="803.88" y="-216.5" font-family="Helvetica,sans-Serif" font-size="10.00">core/include/Optimist</text>
<text xml:space="preserve" text-anchor="middle" x="850" y="-205.25" font-family="Helvetica,sans-Serif" font-size="10.00">/TestSet/Brown.hh</text>
</a>
</g>
</g>
<!-- Node1&#45;&gt;Node21 -->
<g id="edge20_Node000001_Node000021" class="edge">
<title>Node1&#45;&gt;Node21</title>
<g id="a_edge20_Node000001_Node000021"><a xlink:title=" ">
<path fill="none" stroke="#63b8ff" d="M1252.29,-274.12C1171.92,-266.15 1031.91,-250.77 913,-230 910.24,-229.52 907.42,-228.99 904.57,-228.44"/>
<polygon fill="#63b8ff" stroke="#63b8ff" points="1251.9,-277.6 1262.2,-275.09 1252.59,-270.63 1251.9,-277.6"/>
</a>
</g>
</g>
<!-- Node22 -->
<g id="Node000022" class="node">
<title>Node22</title>
<g id="a_Node000022"><a xlink:href="_cos_8hh.html" target="_top" xlink:title=" ">
<polygon fill="white" stroke="#666666" points="1030.12,-230 921.88,-230 921.88,-199.5 1030.12,-199.5 1030.12,-230"/>
<text xml:space="preserve" text-anchor="start" x="929.88" y="-216.5" font-family="Helvetica,sans-Serif" font-size="10.00">core/include/Optimist</text>
<text xml:space="preserve" text-anchor="middle" x="976" y="-205.25" font-family="Helvetica,sans-Serif" font-size="10.00">/TestSet/Cos.hh</text>
</a>
</g>
</g>
<!-- Node1&#45;&gt;Node22 -->
<g id="edge22_Node000001_Node000022" class="edge">
<title>Node1&#45;&gt;Node22</title>
<g id="a_edge22_Node000001_Node000022"><a xlink:title=" ">
<path fill="none" stroke="#63b8ff" d="M1252.29,-269.26C1195.65,-259.59 1111.76,-244.77 1039,-230 1036.25,-229.44 1033.44,-228.86 1030.6,-228.26"/>
<polygon fill="#63b8ff" stroke="#63b8ff" points="1251.66,-272.7 1262.1,-270.93 1252.83,-265.8 1251.66,-272.7"/>
</a>
</g>
</g>
<!-- Node23 -->
<g id="Node000023" class="node">
<title>Node23</title>
<g id="a_Node000023"><a xlink:href="_cosh_8hh.html" target="_top" xlink:title=" ">
<polygon fill="white" stroke="#666666" points="1156.12,-230 1047.88,-230 1047.88,-199.5 1156.12,-199.5 1156.12,-230"/>
<text xml:space="preserve" text-anchor="start" x="1055.88" y="-216.5" font-family="Helvetica,sans-Serif" font-size="10.00">core/include/Optimist</text>
<text xml:space="preserve" text-anchor="middle" x="1102" y="-205.25" font-family="Helvetica,sans-Serif" font-size="10.00">/TestSet/Cosh.hh</text>
</a>
</g>
</g>
<!-- Node1&#45;&gt;Node23 -->
<g id="edge24_Node000001_Node000023" class="edge">
<title>Node1&#45;&gt;Node23</title>
<g id="a_edge24_Node000001_Node000023"><a xlink:title=" ">
<path fill="none" stroke="#63b8ff" d="M1258.07,-262.35C1224.37,-252.29 1182.82,-239.89 1151.07,-230.4"/>
<polygon fill="#63b8ff" stroke="#63b8ff" points="1256.68,-265.59 1267.27,-265.1 1258.69,-258.89 1256.68,-265.59"/>
</a>
</g>
</g>
<!-- Node24 -->
<g id="Node000024" class="node">
<title>Node24</title>
<g id="a_Node000024"><a xlink:href="_elliptic_paraboloid_8hh.html" target="_top" xlink:title=" ">
<polygon fill="white" stroke="#666666" points="1318.12,-230 1173.88,-230 1173.88,-199.5 1318.12,-199.5 1318.12,-230"/>
<text xml:space="preserve" text-anchor="start" x="1181.88" y="-216.5" font-family="Helvetica,sans-Serif" font-size="10.00">core/include/Optimist</text>
<text xml:space="preserve" text-anchor="middle" x="1246" y="-205.25" font-family="Helvetica,sans-Serif" font-size="10.00">/TestSet/EllipticParaboloid.hh</text>
</a>
</g>
</g>
<!-- Node1&#45;&gt;Node24 -->
<g id="edge26_Node000001_Node000024" class="edge">
<title>Node1&#45;&gt;Node24</title>
<g id="a_edge26_Node000001_Node000024"><a xlink:title=" ">
<path fill="none" stroke="#63b8ff" d="M1293.12,-257.96C1282.91,-248.82 1271.38,-238.48 1262.27,-230.33"/>
<polygon fill="#63b8ff" stroke="#63b8ff" points="1290.75,-260.54 1300.53,-264.6 1295.42,-255.32 1290.75,-260.54"/>
</a>
</g>
</g>
<!-- Node25 -->
<g id="Node000025" class="node">
<title>Node25</title>
<g id="a_Node000025"><a xlink:href="_linear_8hh.html" target="_top" xlink:title=" ">
<polygon fill="white" stroke="#666666" points="1444.12,-230 1335.88,-230 1335.88,-199.5 1444.12,-199.5 1444.12,-230"/>
<text xml:space="preserve" text-anchor="start" x="1343.88" y="-216.5" font-family="Helvetica,sans-Serif" font-size="10.00">core/include/Optimist</text>
<text xml:space="preserve" text-anchor="middle" x="1390" y="-205.25" font-family="Helvetica,sans-Serif" font-size="10.00">/TestSet/Linear.hh</text>
</a>
</g>
</g>
<!-- Node1&#45;&gt;Node25 -->
<g id="edge28_Node000001_Node000025" class="edge">
<title>Node1&#45;&gt;Node25</title>
<g id="a_edge28_Node000001_Node000025"><a xlink:title=" ">
<path fill="none" stroke="#63b8ff" d="M1342.88,-257.96C1353.09,-248.82 1364.62,-238.48 1373.73,-230.33"/>
<polygon fill="#63b8ff" stroke="#63b8ff" points="1340.58,-255.32 1335.47,-264.6 1345.25,-260.54 1340.58,-255.32"/>
</a>
</g>
</g>
<!-- Node26 -->
<g id="Node000026" class="node">
<title>Node26</title>
<g id="a_Node000026"><a xlink:href="_quadratic_8hh.html" target="_top" xlink:title=" ">
<polygon fill="white" stroke="#666666" points="1573.62,-230 1462.38,-230 1462.38,-199.5 1573.62,-199.5 1573.62,-230"/>
<text xml:space="preserve" text-anchor="start" x="1470.38" y="-216.5" font-family="Helvetica,sans-Serif" font-size="10.00">core/include/Optimist</text>
<text xml:space="preserve" text-anchor="middle" x="1518" y="-205.25" font-family="Helvetica,sans-Serif" font-size="10.00">/TestSet/Quadratic.hh</text>
</a>
</g>
</g>
<!-- Node1&#45;&gt;Node26 -->
<g id="edge30_Node000001_Node000026" class="edge">
<title>Node1&#45;&gt;Node26</title>
<g id="a_edge30_Node000001_Node000026"><a xlink:title=" ">
<path fill="none" stroke="#63b8ff" d="M1374.3,-262.09C1405.36,-252.08 1443.42,-239.8 1472.56,-230.4"/>
<polygon fill="#63b8ff" stroke="#63b8ff" points="1373.52,-258.67 1365.07,-265.07 1375.67,-265.33 1373.52,-258.67"/>
</a>
</g>
</g>
<!-- Node27 -->
<g id="Node000027" class="node">
<title>Node27</title>
<g id="a_Node000027"><a xlink:href="_rosenbrock_8hh.html" target="_top" xlink:title=" ">
<polygon fill="white" stroke="#666666" points="1713.88,-230 1592.12,-230 1592.12,-199.5 1713.88,-199.5 1713.88,-230"/>
<text xml:space="preserve" text-anchor="start" x="1600.12" y="-216.5" font-family="Helvetica,sans-Serif" font-size="10.00">core/include/Optimist</text>
<text xml:space="preserve" text-anchor="middle" x="1653" y="-205.25" font-family="Helvetica,sans-Serif" font-size="10.00">/TestSet/Rosenbrock.hh</text>
</a>
</g>
</g>
<!-- Node1&#45;&gt;Node27 -->
<g id="edge32_Node000001_Node000027" class="edge">
<title>Node1&#45;&gt;Node27</title>
<g id="a_edge32_Node000001_Node000027"><a xlink:title=" ">
<path fill="none" stroke="#63b8ff" d="M1383.67,-268.05C1437.33,-258.02 1515.12,-243.34 1583,-230 1585.92,-229.43 1588.91,-228.83 1591.93,-228.23"/>
<polygon fill="#63b8ff" stroke="#63b8ff" points="1383.28,-264.56 1374.09,-269.84 1384.56,-271.45 1383.28,-264.56"/>
</a>
</g>
</g>
<!-- Node28 -->
<g id="Node000028" class="node">
<title>Node28</title>
<g id="a_Node000028"><a xlink:href="_schaffer2_8hh.html" target="_top" xlink:title=" ">
<polygon fill="white" stroke="#666666" points="1843.62,-230 1732.38,-230 1732.38,-199.5 1843.62,-199.5 1843.62,-230"/>
<text xml:space="preserve" text-anchor="start" x="1740.38" y="-216.5" font-family="Helvetica,sans-Serif" font-size="10.00">core/include/Optimist</text>
<text xml:space="preserve" text-anchor="middle" x="1788" y="-205.25" font-family="Helvetica,sans-Serif" font-size="10.00">/TestSet/Schaffer2.hh</text>
</a>
</g>
</g>
<!-- Node1&#45;&gt;Node28 -->
<g id="edge34_Node000001_Node000028" class="edge">
<title>Node1&#45;&gt;Node28</title>
<g id="a_edge34_Node000001_Node000028"><a xlink:title=" ">
<path fill="none" stroke="#63b8ff" d="M1384.03,-273.95C1464.42,-265.85 1604.19,-250.35 1723,-230 1725.96,-229.49 1728.99,-228.94 1732.04,-228.36"/>
<polygon fill="#63b8ff" stroke="#63b8ff" points="1383.71,-270.46 1374.11,-274.94 1384.41,-277.43 1383.71,-270.46"/>
</a>
</g>
</g>
<!-- Node29 -->
<g id="Node000029" class="node">
<title>Node29</title>
<g id="a_Node000029"><a xlink:href="_sin_8hh.html" target="_top" xlink:title=" ">
<polygon fill="white" stroke="#666666" points="1970.12,-230 1861.88,-230 1861.88,-199.5 1970.12,-199.5 1970.12,-230"/>
<text xml:space="preserve" text-anchor="start" x="1869.88" y="-216.5" font-family="Helvetica,sans-Serif" font-size="10.00">core/include/Optimist</text>
<text xml:space="preserve" text-anchor="middle" x="1916" y="-205.25" font-family="Helvetica,sans-Serif" font-size="10.00">/TestSet/Sin.hh</text>
</a>
</g>
</g>
<!-- Node1&#45;&gt;Node29 -->
<g id="edge36_Node000001_Node000029" class="edge">
<title>Node1&#45;&gt;Node29</title>
<g id="a_edge36_Node000001_Node000029"><a xlink:title=" ">
<path fill="none" stroke="#63b8ff" d="M1383.86,-276.8C1485.16,-270.88 1685.12,-256.76 1853,-230 1855.77,-229.56 1858.6,-229.07 1861.45,-228.54"/>
<polygon fill="#63b8ff" stroke="#63b8ff" points="1383.88,-273.29 1374.1,-277.36 1384.29,-280.28 1383.88,-273.29"/>
</a>
</g>
</g>
<!-- Node30 -->
<g id="Node000030" class="node">
<title>Node30</title>
<g id="a_Node000030"><a xlink:href="_sinh_8hh.html" target="_top" xlink:title=" ">
<polygon fill="white" stroke="#666666" points="2096.12,-230 1987.88,-230 1987.88,-199.5 2096.12,-199.5 2096.12,-230"/>
<text xml:space="preserve" text-anchor="start" x="1995.88" y="-216.5" font-family="Helvetica,sans-Serif" font-size="10.00">core/include/Optimist</text>
<text xml:space="preserve" text-anchor="middle" x="2042" y="-205.25" font-family="Helvetica,sans-Serif" font-size="10.00">/TestSet/Sinh.hh</text>
</a>
</g>
</g>
<!-- Node1&#45;&gt;Node30 -->
<g id="edge38_Node000001_Node000030" class="edge">
<title>Node1&#45;&gt;Node30</title>
<g id="a_edge38_Node000001_Node000030"><a xlink:title=" ">
<path fill="none" stroke="#63b8ff" d="M1383.72,-278.44C1502.94,-274.46 1762.57,-262.52 1979,-230 1981.77,-229.58 1984.6,-229.11 1987.46,-228.6"/>
<polygon fill="#63b8ff" stroke="#63b8ff" points="1383.67,-274.94 1373.79,-278.77 1383.9,-281.94 1383.67,-274.94"/>
</a>
</g>
</g>
<!-- Node3 -->
<g id="Node000003" class="node">
<title>Node3</title>
<g id="a_Node000003"><a xlink:href="_optimizer_8hh.html" target="_top" xlink:title=" ">
<polygon fill="white" stroke="#666666" points="352.12,-163.5 243.88,-163.5 243.88,-133 352.12,-133 352.12,-163.5"/>
<text xml:space="preserve" text-anchor="start" x="251.88" y="-150" font-family="Helvetica,sans-Serif" font-size="10.00">core/include/Optimist</text>
<text xml:space="preserve" text-anchor="middle" x="298" y="-138.75" font-family="Helvetica,sans-Serif" font-size="10.00">/Optimizer.hh</text>
</a>
</g>
</g>
<!-- Node2&#45;&gt;Node3 -->
<g id="edge2_Node000002_Node000003" class="edge">
<title>Node2&#45;&gt;Node3</title>
<g id="a_edge2_Node000002_Node000003"><a xlink:title=" ">
<path fill="none" stroke="#63b8ff" d="M532.51,-199.67C478.6,-188.08 403.06,-171.84 352.43,-160.95"/>
<polygon fill="#63b8ff" stroke="#63b8ff" points="531.68,-203.07 542.19,-201.75 533.15,-196.23 531.68,-203.07"/>
</a>
</g>
</g>
<!-- Node7 -->
<g id="Node000007" class="node">
<title>Node7</title>
<g id="a_Node000007"><a xlink:href="_root_finder_8hh.html" target="_top" xlink:title=" ">
<polygon fill="white" stroke="#666666" points="939.12,-163.5 830.88,-163.5 830.88,-133 939.12,-133 939.12,-163.5"/>
<text xml:space="preserve" text-anchor="start" x="838.88" y="-150" font-family="Helvetica,sans-Serif" font-size="10.00">core/include/Optimist</text>
<text xml:space="preserve" text-anchor="middle" x="885" y="-138.75" font-family="Helvetica,sans-Serif" font-size="10.00">/RootFinder.hh</text>
</a>
</g>
</g>
<!-- Node2&#45;&gt;Node7 -->
<g id="edge6_Node000002_Node000007" class="edge">
<title>Node2&#45;&gt;Node7</title>
<g id="a_edge6_Node000002_Node000007"><a xlink:title=" ">
<path fill="none" stroke="#63b8ff" d="M663.22,-199C726.13,-184.84 787.79,-171.01 830.68,-161.41"/>
<polygon fill="#63b8ff" stroke="#63b8ff" points="662.76,-195.52 653.77,-201.13 664.3,-202.35 662.76,-195.52"/>
</a>
</g>
</g>
<!-- Node4 -->
<g id="Node000004" class="node">
<title>Node4</title>
<g id="a_Node000004"><a xlink:href="_nelder_mead_8hh.html" target="_top" xlink:title=" ">
<polygon fill="white" stroke="#666666" points="130,-97 0,-97 0,-66.5 130,-66.5 130,-97"/>
<text xml:space="preserve" text-anchor="start" x="8" y="-83.5" font-family="Helvetica,sans-Serif" font-size="10.00">core/include/Optimist</text>
<text xml:space="preserve" text-anchor="middle" x="65" y="-72.25" font-family="Helvetica,sans-Serif" font-size="10.00">/Optimizer/NelderMead.hh</text>
</a>
</g>
</g>
<!-- Node3&#45;&gt;Node4 -->
<g id="edge3_Node000003_Node000004" class="edge">
<title>Node3&#45;&gt;Node4</title>
<g id="a_edge3_Node000003_Node000004"><a xlink:title=" ">
<path fill="none" stroke="#63b8ff" d="M233.83,-129.49C197.39,-119.4 152.33,-106.93 117.93,-97.4"/>
<polygon fill="#63b8ff" stroke="#63b8ff" points="232.81,-132.83 243.38,-132.13 234.67,-126.09 232.81,-132.83"/>
</a>
</g>
</g>
<!-- Node5 -->
<g id="Node000005" class="node">
<title>Node5</title>
<g id="a_Node000005"><a xlink:href="_particle_swarm_8hh.html" target="_top" xlink:title=" ">
<polygon fill="white" stroke="#666666" points="289.62,-97 148.38,-97 148.38,-66.5 289.62,-66.5 289.62,-97"/>
<text xml:space="preserve" text-anchor="start" x="156.38" y="-83.5" font-family="Helvetica,sans-Serif" font-size="10.00">core/include/Optimist</text>
<text xml:space="preserve" text-anchor="middle" x="219" y="-72.25" font-family="Helvetica,sans-Serif" font-size="10.00">/Optimizer/ParticleSwarm.hh</text>
</a>
</g>
</g>
<!-- Node3&#45;&gt;Node5 -->
<g id="edge4_Node000003_Node000005" class="edge">
<title>Node3&#45;&gt;Node5</title>
<g id="a_edge4_Node000003_Node000005"><a xlink:title=" ">
<path fill="none" stroke="#63b8ff" d="M271.38,-125.52C260.01,-116.23 247.04,-105.65 236.86,-97.33"/>
<polygon fill="#63b8ff" stroke="#63b8ff" points="268.94,-128.04 278.9,-131.66 273.37,-122.62 268.94,-128.04"/>
</a>
</g>
</g>
<!-- Node6 -->
<g id="Node000006" class="node">
<title>Node6</title>
<g id="a_Node000006"><a xlink:href="_pattern_search_8hh.html" target="_top" xlink:title=" ">
<polygon fill="white" stroke="#666666" points="447.88,-97 308.12,-97 308.12,-66.5 447.88,-66.5 447.88,-97"/>
<text xml:space="preserve" text-anchor="start" x="316.12" y="-83.5" font-family="Helvetica,sans-Serif" font-size="10.00">core/include/Optimist</text>
<text xml:space="preserve" text-anchor="middle" x="378" y="-72.25" font-family="Helvetica,sans-Serif" font-size="10.00">/Optimizer/PatternSearch.hh</text>
</a>
</g>
</g>
<!-- Node3&#45;&gt;Node6 -->
<g id="edge5_Node000003_Node000006" class="edge">
<title>Node3&#45;&gt;Node6</title>
<g id="a_edge5_Node000003_Node000006"><a xlink:title=" ">
<path fill="none" stroke="#63b8ff" d="M324.95,-125.52C336.47,-116.23 349.6,-105.65 359.92,-97.33"/>
<polygon fill="#63b8ff" stroke="#63b8ff" points="322.92,-122.66 317.33,-131.66 327.31,-128.11 322.92,-122.66"/>
</a>
</g>
</g>
<!-- Node8 -->
<g id="Node000008" class="node">
<title>Node8</title>
<g id="a_Node000008"><a xlink:href="_bracketing_8hh.html" target="_top" xlink:title=" ">
<polygon fill="white" stroke="#666666" points="596,-97 466,-97 466,-66.5 596,-66.5 596,-97"/>
<text xml:space="preserve" text-anchor="start" x="474" y="-83.5" font-family="Helvetica,sans-Serif" font-size="10.00">core/include/Optimist</text>
<text xml:space="preserve" text-anchor="middle" x="531" y="-72.25" font-family="Helvetica,sans-Serif" font-size="10.00">/RootFinder/Bracketing.hh</text>
</a>
</g>
</g>
<!-- Node7&#45;&gt;Node8 -->
<g id="edge7_Node000007_Node000008" class="edge">
<title>Node7&#45;&gt;Node8</title>
<g id="a_edge7_Node000007_Node000008"><a xlink:title=" ">
<path fill="none" stroke="#63b8ff" d="M819.17,-135.68C762.4,-125.64 678.25,-110.62 605,-97 602.17,-96.47 599.28,-95.93 596.36,-95.38"/>
<polygon fill="#63b8ff" stroke="#63b8ff" points="818.55,-139.12 829.01,-137.42 819.77,-132.23 818.55,-139.12"/>
</a>
</g>
</g>
<!-- Node11 -->
<g id="Node000011" class="node">
<title>Node11</title>
<g id="a_Node000011"><a xlink:href="_chebyshev_8hh.html" target="_top" xlink:title=" ">
<polygon fill="white" stroke="#666666" points="745.75,-97 614.25,-97 614.25,-66.5 745.75,-66.5 745.75,-97"/>
<text xml:space="preserve" text-anchor="start" x="622.25" y="-83.5" font-family="Helvetica,sans-Serif" font-size="10.00">core/include/Optimist</text>
<text xml:space="preserve" text-anchor="middle" x="680" y="-72.25" font-family="Helvetica,sans-Serif" font-size="10.00">/RootFinder/Chebyshev.hh</text>
</a>
</g>
</g>
<!-- Node7&#45;&gt;Node11 -->
<g id="edge10_Node000007_Node000011" class="edge">
<title>Node7&#45;&gt;Node11</title>
<g id="a_edge10_Node000007_Node000011"><a xlink:title=" ">
<path fill="none" stroke="#63b8ff" d="M827.29,-129.09C795.46,-119.08 756.45,-106.8 726.57,-97.4"/>
<polygon fill="#63b8ff" stroke="#63b8ff" points="826.19,-132.42 836.78,-132.08 828.29,-125.74 826.19,-132.42"/>
</a>
</g>
</g>
<!-- Node12 -->
<g id="Node000012" class="node">
<title>Node12</title>
<g id="a_Node000012"><a xlink:href="_halley_8hh.html" target="_top" xlink:title=" ">
<polygon fill="white" stroke="#666666" points="873.88,-97 764.12,-97 764.12,-66.5 873.88,-66.5 873.88,-97"/>
<text xml:space="preserve" text-anchor="start" x="772.12" y="-83.5" font-family="Helvetica,sans-Serif" font-size="10.00">core/include/Optimist</text>
<text xml:space="preserve" text-anchor="middle" x="819" y="-72.25" font-family="Helvetica,sans-Serif" font-size="10.00">/RootFinder/Halley.hh</text>
</a>
</g>
</g>
<!-- Node7&#45;&gt;Node12 -->
<g id="edge11_Node000007_Node000012" class="edge">
<title>Node7&#45;&gt;Node12</title>
<g id="a_edge11_Node000007_Node000012"><a xlink:title=" ">
<path fill="none" stroke="#63b8ff" d="M861.91,-124.69C852.62,-115.61 842.18,-105.4 833.92,-97.33"/>
<polygon fill="#63b8ff" stroke="#63b8ff" points="859.34,-127.07 868.94,-131.56 864.24,-122.06 859.34,-127.07"/>
</a>
</g>
</g>
<!-- Node13 -->
<g id="Node000013" class="node">
<title>Node13</title>
<g id="a_Node000013"><a xlink:href="_newton_8hh.html" target="_top" xlink:title=" ">
<polygon fill="white" stroke="#666666" points="1009.62,-97 892.38,-97 892.38,-66.5 1009.62,-66.5 1009.62,-97"/>
<text xml:space="preserve" text-anchor="start" x="900.38" y="-83.5" font-family="Helvetica,sans-Serif" font-size="10.00">core/include/Optimist</text>
<text xml:space="preserve" text-anchor="middle" x="951" y="-72.25" font-family="Helvetica,sans-Serif" font-size="10.00">/RootFinder/Newton.hh</text>
</a>
</g>
</g>
<!-- Node7&#45;&gt;Node13 -->
<g id="edge12_Node000007_Node000013" class="edge">
<title>Node7&#45;&gt;Node13</title>
<g id="a_edge12_Node000007_Node000013"><a xlink:title=" ">
<path fill="none" stroke="#63b8ff" d="M908.09,-124.69C917.38,-115.61 927.82,-105.4 936.08,-97.33"/>
<polygon fill="#63b8ff" stroke="#63b8ff" points="905.76,-122.06 901.06,-131.56 910.66,-127.07 905.76,-122.06"/>
</a>
</g>
</g>
<!-- Node14 -->
<g id="Node000014" class="node">
<title>Node14</title>
<g id="a_Node000014"><a xlink:href="_newton_raphson_8hh.html" target="_top" xlink:title=" ">
<polygon fill="white" stroke="#666666" points="1184.12,-97 1027.88,-97 1027.88,-66.5 1184.12,-66.5 1184.12,-97"/>
<text xml:space="preserve" text-anchor="start" x="1035.88" y="-83.5" font-family="Helvetica,sans-Serif" font-size="10.00">core/include/Optimist</text>
<text xml:space="preserve" text-anchor="middle" x="1106" y="-72.25" font-family="Helvetica,sans-Serif" font-size="10.00">/RootFinder/NewtonRaphson.hh</text>
</a>
</g>
</g>
<!-- Node7&#45;&gt;Node14 -->
<g id="edge13_Node000007_Node000014" class="edge">
<title>Node7&#45;&gt;Node14</title>
<g id="a_edge13_Node000007_Node000014"><a xlink:title=" ">
<path fill="none" stroke="#63b8ff" d="M946.31,-129.35C980.8,-119.29 1023.3,-106.89 1055.79,-97.4"/>
<polygon fill="#63b8ff" stroke="#63b8ff" points="945.5,-125.95 936.88,-132.11 947.46,-132.67 945.5,-125.95"/>
</a>
</g>
</g>
<!-- Node15 -->
<g id="Node000015" class="node">
<title>Node15</title>
<g id="a_Node000015"><a xlink:href="_quasi_newton_8hh.html" target="_top" xlink:title=" ">
<polygon fill="white" stroke="#666666" points="1345.38,-97 1202.62,-97 1202.62,-66.5 1345.38,-66.5 1345.38,-97"/>
<text xml:space="preserve" text-anchor="start" x="1210.62" y="-83.5" font-family="Helvetica,sans-Serif" font-size="10.00">core/include/Optimist</text>
<text xml:space="preserve" text-anchor="middle" x="1274" y="-72.25" font-family="Helvetica,sans-Serif" font-size="10.00">/RootFinder/QuasiNewton.hh</text>
</a>
</g>
</g>
<!-- Node7&#45;&gt;Node15 -->
<g id="edge14_Node000007_Node000015" class="edge">
<title>Node7&#45;&gt;Node15</title>
<g id="a_edge14_Node000007_Node000015"><a xlink:title=" ">
<path fill="none" stroke="#63b8ff" d="M950.8,-136.76C1013.19,-126.75 1109.52,-111.15 1193,-97 1196.1,-96.47 1199.26,-95.93 1202.45,-95.39"/>
<polygon fill="#63b8ff" stroke="#63b8ff" points="950.37,-133.28 941.05,-138.32 951.48,-140.19 950.37,-133.28"/>
</a>
</g>
</g>
<!-- Node18 -->
<g id="Node000018" class="node">
<title>Node18</title>
<g id="a_Node000018"><a xlink:href="_varona_8hh.html" target="_top" xlink:title=" ">
<polygon fill="white" stroke="#666666" points="1476.75,-97 1363.25,-97 1363.25,-66.5 1476.75,-66.5 1476.75,-97"/>
<text xml:space="preserve" text-anchor="start" x="1371.25" y="-83.5" font-family="Helvetica,sans-Serif" font-size="10.00">core/include/Optimist</text>
<text xml:space="preserve" text-anchor="middle" x="1420" y="-72.25" font-family="Helvetica,sans-Serif" font-size="10.00">/RootFinder/Varona.hh</text>
</a>
</g>
</g>
<!-- Node7&#45;&gt;Node18 -->
<g id="edge17_Node000007_Node000018" class="edge">
<title>Node7&#45;&gt;Node18</title>
<g id="a_edge17_Node000007_Node000018"><a xlink:title=" ">
<path fill="none" stroke="#63b8ff" d="M950.64,-142.42C1041.61,-135.24 1210.95,-120.04 1354,-97 1356.89,-96.53 1359.85,-96.02 1362.83,-95.48"/>
<polygon fill="#63b8ff" stroke="#63b8ff" points="950.62,-138.92 940.92,-143.18 951.16,-145.89 950.62,-138.92"/>
</a>
</g>
</g>
<!-- Node9 -->
<g id="Node000009" class="node">
<title>Node9</title>
<g id="a_Node000009"><a xlink:href="_algo748_8hh.html" target="_top" xlink:title=" ">
<polygon fill="white" stroke="#666666" points="516.38,-30.5 397.62,-30.5 397.62,0 516.38,0 516.38,-30.5"/>
<text xml:space="preserve" text-anchor="start" x="405.62" y="-17" font-family="Helvetica,sans-Serif" font-size="10.00">core/include/Optimist</text>
<text xml:space="preserve" text-anchor="middle" x="457" y="-5.75" font-family="Helvetica,sans-Serif" font-size="10.00">/RootFinder/Algo748.hh</text>
</a>
</g>
</g>
<!-- Node8&#45;&gt;Node9 -->
<g id="edge8_Node000008_Node000009" class="edge">
<title>Node8&#45;&gt;Node9</title>
<g id="a_edge8_Node000008_Node000009"><a xlink:title=" ">
<path fill="none" stroke="#63b8ff" d="M505.75,-58.74C495.18,-49.53 483.17,-39.06 473.73,-30.83"/>
<polygon fill="#63b8ff" stroke="#63b8ff" points="503.23,-61.19 513.07,-65.12 507.83,-55.91 503.23,-61.19"/>
</a>
</g>
</g>
<!-- Node10 -->
<g id="Node000010" class="node">
<title>Node10</title>
<g id="a_Node000010"><a xlink:href="_chandrupatla_8hh.html" target="_top" xlink:title=" ">
<polygon fill="white" stroke="#666666" points="675.62,-30.5 534.38,-30.5 534.38,0 675.62,0 675.62,-30.5"/>
<text xml:space="preserve" text-anchor="start" x="542.38" y="-17" font-family="Helvetica,sans-Serif" font-size="10.00">core/include/Optimist</text>
<text xml:space="preserve" text-anchor="middle" x="605" y="-5.75" font-family="Helvetica,sans-Serif" font-size="10.00">/RootFinder/Chandrupatla.hh</text>
</a>
</g>
</g>
<!-- Node8&#45;&gt;Node10 -->
<g id="edge9_Node000008_Node000010" class="edge">
<title>Node8&#45;&gt;Node10</title>
<g id="a_edge9_Node000008_Node000010"><a xlink:title=" ">
<path fill="none" stroke="#63b8ff" d="M556.25,-58.74C566.82,-49.53 578.83,-39.06 588.27,-30.83"/>
<polygon fill="#63b8ff" stroke="#63b8ff" points="554.17,-55.91 548.93,-65.12 558.77,-61.19 554.17,-55.91"/>
</a>
</g>
</g>
<!-- Node16 -->
<g id="Node000016" class="node">
<title>Node16</title>
<g id="a_Node000016"><a xlink:href="_broyden_8hh.html" target="_top" xlink:title=" ">
<polygon fill="white" stroke="#666666" points="1261.75,-30.5 1142.25,-30.5 1142.25,0 1261.75,0 1261.75,-30.5"/>
<text xml:space="preserve" text-anchor="start" x="1150.25" y="-17" font-family="Helvetica,sans-Serif" font-size="10.00">core/include/Optimist</text>
<text xml:space="preserve" text-anchor="middle" x="1202" y="-5.75" font-family="Helvetica,sans-Serif" font-size="10.00">/RootFinder/Broyden.hh</text>
</a>
</g>
</g>
<!-- Node15&#45;&gt;Node16 -->
<g id="edge15_Node000015_Node000016" class="edge">
<title>Node15&#45;&gt;Node16</title>
<g id="a_edge15_Node000015_Node000016"><a xlink:title=" ">
<path fill="none" stroke="#63b8ff" d="M1249.12,-58.46C1238.91,-49.32 1227.38,-38.98 1218.27,-30.83"/>
<polygon fill="#63b8ff" stroke="#63b8ff" points="1246.75,-61.04 1256.53,-65.1 1251.42,-55.82 1246.75,-61.04"/>
</a>
</g>
</g>
<!-- Node17 -->
<g id="Node000017" class="node">
<title>Node17</title>
<g id="a_Node000017"><a xlink:href="_greenstadt_8hh.html" target="_top" xlink:title=" ">
<polygon fill="white" stroke="#666666" points="1411.75,-30.5 1280.25,-30.5 1280.25,0 1411.75,0 1411.75,-30.5"/>
<text xml:space="preserve" text-anchor="start" x="1288.25" y="-17" font-family="Helvetica,sans-Serif" font-size="10.00">core/include/Optimist</text>
<text xml:space="preserve" text-anchor="middle" x="1346" y="-5.75" font-family="Helvetica,sans-Serif" font-size="10.00">/RootFinder/Greenstadt.hh</text>
</a>
</g>
</g>
<!-- Node15&#45;&gt;Node17 -->
<g id="edge16_Node000015_Node000017" class="edge">
<title>Node15&#45;&gt;Node17</title>
<g id="a_edge16_Node000015_Node000017"><a xlink:title=" ">
<path fill="none" stroke="#63b8ff" d="M1298.88,-58.46C1309.09,-49.32 1320.62,-38.98 1329.73,-30.83"/>
<polygon fill="#63b8ff" stroke="#63b8ff" points="1296.58,-55.82 1291.47,-65.1 1301.25,-61.04 1296.58,-55.82"/>
</a>
</g>
</g>
<!-- Node20 -->
<g id="Node000020" class="node">
<title>Node20</title>
<g id="a_Node000020"><a xlink:href="_test_set_8hh.html" target="_top" xlink:title=" ">
<polygon fill="white" stroke="#666666" points="1444.12,-163.5 1335.88,-163.5 1335.88,-133 1444.12,-133 1444.12,-163.5"/>
<text xml:space="preserve" text-anchor="start" x="1343.88" y="-150" font-family="Helvetica,sans-Serif" font-size="10.00">core/include/Optimist</text>
<text xml:space="preserve" text-anchor="middle" x="1390" y="-138.75" font-family="Helvetica,sans-Serif" font-size="10.00">/TestSet.hh</text>
</a>
</g>
</g>
<!-- Node19&#45;&gt;Node20 -->
<g id="edge19_Node000019_Node000020" class="edge">
<title>Node19&#45;&gt;Node20</title>
<g id="a_edge19_Node000019_Node000020"><a xlink:title=" ">
<path fill="none" stroke="#63b8ff" d="M789.92,-199.19C996.59,-168.1 1231.52,-155.6 1335.65,-151.24"/>
<polygon fill="#63b8ff" stroke="#63b8ff" points="789.4,-195.73 780.04,-200.7 790.46,-202.65 789.4,-195.73"/>
</a>
</g>
</g>
<!-- Node21&#45;&gt;Node20 -->
<g id="edge21_Node000021_Node000020" class="edge">
<title>Node21&#45;&gt;Node20</title>
<g id="a_edge21_Node000021_Node000020"><a xlink:title=" ">
<path fill="none" stroke="#63b8ff" d="M915.89,-199.14C1073.66,-173.66 1248.98,-159.14 1335.71,-152.88"/>
<polygon fill="#63b8ff" stroke="#63b8ff" points="915.36,-195.68 906.05,-200.75 916.49,-202.59 915.36,-195.68"/>
</a>
</g>
</g>
<!-- Node22&#45;&gt;Node20 -->
<g id="edge23_Node000022_Node000020" class="edge">
<title>Node22&#45;&gt;Node20</title>
<g id="a_edge23_Node000022_Node000020"><a xlink:title=" ">
<path fill="none" stroke="#63b8ff" d="M1041.85,-199.06C1151.54,-179.18 1268.79,-163.84 1335.66,-155.66"/>
<polygon fill="#63b8ff" stroke="#63b8ff" points="1041.28,-195.61 1032.07,-200.85 1042.54,-202.49 1041.28,-195.61"/>
</a>
</g>
</g>
<!-- Node23&#45;&gt;Node20 -->
<g id="edge25_Node000023_Node000020" class="edge">
<title>Node23&#45;&gt;Node20</title>
<g id="a_edge25_Node000023_Node000020"><a xlink:title=" ">
<path fill="none" stroke="#63b8ff" d="M1167.26,-198.99C1230.41,-184.81 1292.35,-170.99 1335.43,-161.39"/>
<polygon fill="#63b8ff" stroke="#63b8ff" points="1166.76,-195.52 1157.77,-201.13 1168.29,-202.35 1166.76,-195.52"/>
</a>
</g>
</g>
<!-- Node24&#45;&gt;Node20 -->
<g id="edge27_Node000024_Node000020" class="edge">
<title>Node24&#45;&gt;Node20</title>
<g id="a_edge27_Node000024_Node000020"><a xlink:title=" ">
<path fill="none" stroke="#63b8ff" d="M1289.05,-194.47C1310.99,-184.64 1337.23,-172.89 1357.45,-163.83"/>
<polygon fill="#63b8ff" stroke="#63b8ff" points="1287.75,-191.21 1280.06,-198.5 1290.61,-197.6 1287.75,-191.21"/>
</a>
</g>
</g>
<!-- Node25&#45;&gt;Node20 -->
<g id="edge29_Node000025_Node000020" class="edge">
<title>Node25&#45;&gt;Node20</title>
<g id="a_edge29_Node000025_Node000020"><a xlink:title=" ">
<path fill="none" stroke="#63b8ff" d="M1390,-187.81C1390,-179.64 1390,-170.91 1390,-163.83"/>
<polygon fill="#63b8ff" stroke="#63b8ff" points="1386.5,-187.6 1390,-197.6 1393.5,-187.6 1386.5,-187.6"/>
</a>
</g>
</g>
<!-- Node26&#45;&gt;Node20 -->
<g id="edge31_Node000026_Node000020" class="edge">
<title>Node26&#45;&gt;Node20</title>
<g id="a_edge31_Node000026_Node000020"><a xlink:title=" ">
<path fill="none" stroke="#63b8ff" d="M1478.93,-194.06C1459.6,-184.32 1436.66,-172.76 1418.93,-163.83"/>
<polygon fill="#63b8ff" stroke="#63b8ff" points="1477.1,-197.06 1487.6,-198.43 1480.25,-190.81 1477.1,-197.06"/>
</a>
</g>
</g>
<!-- Node27&#45;&gt;Node20 -->
<g id="edge33_Node000027_Node000020" class="edge">
<title>Node27&#45;&gt;Node20</title>
<g id="a_edge33_Node000027_Node000020"><a xlink:title=" ">
<path fill="none" stroke="#63b8ff" d="M1581.96,-196.33C1538.68,-185.71 1484.23,-172.36 1444.38,-162.59"/>
<polygon fill="#63b8ff" stroke="#63b8ff" points="1580.98,-199.69 1591.52,-198.67 1582.64,-192.89 1580.98,-199.69"/>
</a>
</g>
</g>
<!-- Node28&#45;&gt;Node20 -->
<g id="edge35_Node000028_Node000020" class="edge">
<title>Node28&#45;&gt;Node20</title>
<g id="a_edge35_Node000028_Node000020"><a xlink:title=" ">
<path fill="none" stroke="#63b8ff" d="M1720.74,-199.16C1617.25,-180.3 1508.16,-164.89 1444.4,-156.34"/>
<polygon fill="#63b8ff" stroke="#63b8ff" points="1720.07,-202.59 1730.54,-200.96 1721.34,-195.71 1720.07,-202.59"/>
</a>
</g>
</g>
<!-- Node29&#45;&gt;Node20 -->
<g id="edge37_Node000029_Node000020" class="edge">
<title>Node29&#45;&gt;Node20</title>
<g id="a_edge37_Node000029_Node000020"><a xlink:title=" ">
<path fill="none" stroke="#63b8ff" d="M1850.5,-199.2C1698.1,-174.31 1529.24,-159.62 1444.45,-153.13"/>
<polygon fill="#63b8ff" stroke="#63b8ff" points="1849.51,-202.58 1859.95,-200.76 1850.65,-195.68 1849.51,-202.58"/>
</a>
</g>
</g>
<!-- Node30&#45;&gt;Node20 -->
<g id="edge39_Node000030_Node000020" class="edge">
<title>Node30&#45;&gt;Node20</title>
<g id="a_edge39_Node000030_Node000020"><a xlink:title=" ">
<path fill="none" stroke="#63b8ff" d="M1976.37,-199.23C1775.07,-168.73 1546.62,-155.96 1444.3,-151.39"/>
<polygon fill="#63b8ff" stroke="#63b8ff" points="1975.54,-202.64 1985.96,-200.7 1976.6,-195.72 1975.54,-202.64"/>
</a>
</g>
</g>
</g>
</svg>
