<?xml version="1.0" encoding="UTF-8" standalone="no"?>
<!DOCTYPE svg PUBLIC "-//W3C//DTD SVG 1.1//EN"
 "http://www.w3.org/Graphics/SVG/1.1/DTD/svg11.dtd">
<!-- Generated by graphviz version 14.0.5 (20251129.0259)
 -->
<!-- Title: include/Optimist/RootFinder/Halley.hh Pages: 1 -->
<svg width="1045pt" height="315pt"
 viewBox="0.00 0.00 1045.00 315.00" xmlns="http://www.w3.org/2000/svg" xmlns:xlink="http://www.w3.org/1999/xlink">
<g id="graph0" class="graph" transform="scale(1 1) rotate(0) translate(4 310.75)">
<title>include/Optimist/RootFinder/Halley.hh</title>
<!-- Node1 -->
<g id="Node000001" class="node">
<title>Node1</title>
<g id="a_Node000001"><a xlink:title=" ">
<polygon fill="#999999" stroke="#666666" points="509.5,-306.75 372,-306.75 372,-276.25 509.5,-276.25 509.5,-306.75"/>
<text xml:space="preserve" text-anchor="start" x="380" y="-293.25" font-family="Helvetica,sans-Serif" font-size="10.00">include/Optimist/RootFinder</text>
<text xml:space="preserve" text-anchor="middle" x="440.75" y="-282" font-family="Helvetica,sans-Serif" font-size="10.00">/Halley.hh</text>
</a>
</g>
</g>
<!-- Node2 -->
<g id="Node000002" class="node">
<title>Node2</title>
<g id="a_Node000002"><a xlink:href="_root_finder_8hh.html" target="_top" xlink:title=" ">
<polygon fill="white" stroke="#666666" points="499,-240.25 382.5,-240.25 382.5,-221 499,-221 499,-240.25"/>
<text xml:space="preserve" text-anchor="middle" x="440.75" y="-226.75" font-family="Helvetica,sans-Serif" font-size="10.00">Optimist/RootFinder.hh</text>
</a>
</g>
</g>
<!-- Node1&#45;&gt;Node2 -->
<g id="edge1_Node000001_Node000002" class="edge">
<title>Node1&#45;&gt;Node2</title>
<g id="a_edge1_Node000001_Node000002"><a xlink:title=" ">
<path fill="none" stroke="#63b8ff" d="M440.75,-275.95C440.75,-268.71 440.75,-259.84 440.75,-251.94"/>
<polygon fill="#63b8ff" stroke="#63b8ff" points="444.25,-252.21 440.75,-242.21 437.25,-252.21 444.25,-252.21"/>
</a>
</g>
</g>
<!-- Node3 -->
<g id="Node000003" class="node">
<title>Node3</title>
<g id="a_Node000003"><a xlink:href="_solver_base_8hh.html" target="_top" xlink:title=" ">
<polygon fill="white" stroke="#666666" points="500.5,-185 381,-185 381,-165.75 500.5,-165.75 500.5,-185"/>
<text xml:space="preserve" text-anchor="middle" x="440.75" y="-171.5" font-family="Helvetica,sans-Serif" font-size="10.00">Optimist/SolverBase.hh</text>
</a>
</g>
</g>
<!-- Node2&#45;&gt;Node3 -->
<g id="edge2_Node000002_Node000003" class="edge">
<title>Node2&#45;&gt;Node3</title>
<g id="a_edge2_Node000002_Node000003"><a xlink:title=" ">
<path fill="none" stroke="#63b8ff" d="M440.75,-220.83C440.75,-214.32 440.75,-205.17 440.75,-196.87"/>
<polygon fill="#63b8ff" stroke="#63b8ff" points="444.25,-196.87 440.75,-186.87 437.25,-196.87 444.25,-196.87"/>
</a>
</g>
</g>
<!-- Node4 -->
<g id="Node000004" class="node">
<title>Node4</title>
<g id="a_Node000004"><a xlink:href="_optimist_8hh.html" target="_top" xlink:title=" ">
<polygon fill="white" stroke="#666666" points="473.88,-74.5 407.62,-74.5 407.62,-55.25 473.88,-55.25 473.88,-74.5"/>
<text xml:space="preserve" text-anchor="middle" x="440.75" y="-61" font-family="Helvetica,sans-Serif" font-size="10.00">Optimist.hh</text>
</a>
</g>
</g>
<!-- Node3&#45;&gt;Node4 -->
<g id="edge3_Node000003_Node000004" class="edge">
<title>Node3&#45;&gt;Node4</title>
<g id="a_edge3_Node000003_Node000004"><a xlink:title=" ">
<path fill="none" stroke="#63b8ff" d="M435.17,-165.57C430.01,-156.86 422.7,-142.95 419.75,-129.75 416.28,-114.24 422.44,-97.17 428.97,-84.57"/>
<polygon fill="#63b8ff" stroke="#63b8ff" points="431.87,-86.54 433.81,-76.13 425.8,-83.06 431.87,-86.54"/>
</a>
</g>
</g>
<!-- Node20 -->
<g id="Node000020" class="node">
<title>Node20</title>
<g id="a_Node000020"><a xlink:href="_function_8hh.html" target="_top" xlink:title=" ">
<polygon fill="white" stroke="#666666" points="535.12,-129.75 428.38,-129.75 428.38,-110.5 535.12,-110.5 535.12,-129.75"/>
<text xml:space="preserve" text-anchor="middle" x="481.75" y="-116.25" font-family="Helvetica,sans-Serif" font-size="10.00">Optimist/Function.hh</text>
</a>
</g>
</g>
<!-- Node3&#45;&gt;Node20 -->
<g id="edge19_Node000003_Node000020" class="edge">
<title>Node3&#45;&gt;Node20</title>
<g id="a_edge19_Node000003_Node000020"><a xlink:title=" ">
<path fill="none" stroke="#63b8ff" d="M447.52,-165.58C453.07,-158.38 461.09,-147.96 467.98,-139.01"/>
<polygon fill="#63b8ff" stroke="#63b8ff" points="470.58,-141.37 473.91,-131.31 465.04,-137.1 470.58,-141.37"/>
</a>
</g>
</g>
<!-- Node5 -->
<g id="Node000005" class="node">
<title>Node5</title>
<g id="a_Node000005"><a xlink:title=" ">
<polygon fill="#e0e0e0" stroke="#999999" points="53.5,-19.25 0,-19.25 0,0 53.5,0 53.5,-19.25"/>
<text xml:space="preserve" text-anchor="middle" x="26.75" y="-5.75" font-family="Helvetica,sans-Serif" font-size="10.00">iostream</text>
</a>
</g>
</g>
<!-- Node4&#45;&gt;Node5 -->
<g id="edge4_Node000004_Node000005" class="edge">
<title>Node4&#45;&gt;Node5</title>
<g id="a_edge4_Node000004_Node000005"><a xlink:title=" ">
<path fill="none" stroke="#63b8ff" d="M407.18,-61.25C342.77,-55.92 197.21,-42.5 64.93,-19.44"/>
<polygon fill="#63b8ff" stroke="#63b8ff" points="65.75,-16.03 55.3,-17.73 64.53,-22.92 65.75,-16.03"/>
</a>
</g>
</g>
<!-- Node6 -->
<g id="Node000006" class="node">
<title>Node6</title>
<g id="a_Node000006"><a xlink:title=" ">
<polygon fill="#e0e0e0" stroke="#999999" points="100.15,-19.25 71.35,-19.25 71.35,0 100.15,0 100.15,-19.25"/>
<text xml:space="preserve" text-anchor="middle" x="85.75" y="-5.75" font-family="Helvetica,sans-Serif" font-size="10.00">ios</text>
</a>
</g>
</g>
<!-- Node4&#45;&gt;Node6 -->
<g id="edge5_Node000004_Node000006" class="edge">
<title>Node4&#45;&gt;Node6</title>
<g id="a_edge5_Node000004_Node000006"><a xlink:title=" ">
<path fill="none" stroke="#63b8ff" d="M407.3,-61.88C348.78,-57.85 224.03,-46.89 111.08,-19.32"/>
<polygon fill="#63b8ff" stroke="#63b8ff" points="112.21,-16 101.66,-16.97 110.52,-22.79 112.21,-16"/>
</a>
</g>
</g>
<!-- Node7 -->
<g id="Node000007" class="node">
<title>Node7</title>
<g id="a_Node000007"><a xlink:title=" ">
<polygon fill="#e0e0e0" stroke="#999999" points="167.62,-19.25 117.88,-19.25 117.88,0 167.62,0 167.62,-19.25"/>
<text xml:space="preserve" text-anchor="middle" x="142.75" y="-5.75" font-family="Helvetica,sans-Serif" font-size="10.00">iomanip</text>
</a>
</g>
</g>
<!-- Node4&#45;&gt;Node7 -->
<g id="edge6_Node000004_Node000007" class="edge">
<title>Node4&#45;&gt;Node7</title>
<g id="a_edge6_Node000004_Node000007"><a xlink:title=" ">
<path fill="none" stroke="#63b8ff" d="M407.25,-59.1C359.02,-52.04 267.02,-37.85 179.19,-19.62"/>
<polygon fill="#63b8ff" stroke="#63b8ff" points="179.94,-16.2 169.43,-17.57 178.5,-23.05 179.94,-16.2"/>
</a>
</g>
</g>
<!-- Node8 -->
<g id="Node000008" class="node">
<title>Node8</title>
<g id="a_Node000008"><a xlink:title=" ">
<polygon fill="#e0e0e0" stroke="#999999" points="225.75,-19.25 185.75,-19.25 185.75,0 225.75,0 225.75,-19.25"/>
<text xml:space="preserve" text-anchor="middle" x="205.75" y="-5.75" font-family="Helvetica,sans-Serif" font-size="10.00">string</text>
</a>
</g>
</g>
<!-- Node4&#45;&gt;Node8 -->
<g id="edge7_Node000004_Node000008" class="edge">
<title>Node4&#45;&gt;Node8</title>
<g id="a_edge7_Node000004_Node000008"><a xlink:title=" ">
<path fill="none" stroke="#63b8ff" d="M407.39,-57.46C368.65,-49.83 302.62,-36.29 236.94,-19.66"/>
<polygon fill="#63b8ff" stroke="#63b8ff" points="238,-16.32 227.44,-17.23 236.26,-23.1 238,-16.32"/>
</a>
</g>
</g>
<!-- Node9 -->
<g id="Node000009" class="node">
<title>Node9</title>
<g id="a_Node000009"><a xlink:title=" ">
<polygon fill="#e0e0e0" stroke="#999999" points="287.25,-19.25 244.25,-19.25 244.25,0 287.25,0 287.25,-19.25"/>
<text xml:space="preserve" text-anchor="middle" x="265.75" y="-5.75" font-family="Helvetica,sans-Serif" font-size="10.00">cmath</text>
</a>
</g>
</g>
<!-- Node4&#45;&gt;Node9 -->
<g id="edge8_Node000004_Node000009" class="edge">
<title>Node4&#45;&gt;Node9</title>
<g id="a_edge8_Node000004_Node000009"><a xlink:title=" ">
<path fill="none" stroke="#63b8ff" d="M411.06,-54.84C379.75,-45.31 330.55,-30.34 298.22,-20.51"/>
<polygon fill="#63b8ff" stroke="#63b8ff" points="299.58,-17.26 288.99,-17.7 297.54,-23.96 299.58,-17.26"/>
</a>
</g>
</g>
<!-- Node10 -->
<g id="Node000010" class="node">
<title>Node10</title>
<g id="a_Node000010"><a xlink:title=" ">
<polygon fill="#e0e0e0" stroke="#999999" points="344.38,-19.25 305.12,-19.25 305.12,0 344.38,0 344.38,-19.25"/>
<text xml:space="preserve" text-anchor="middle" x="324.75" y="-5.75" font-family="Helvetica,sans-Serif" font-size="10.00">limits</text>
</a>
</g>
</g>
<!-- Node4&#45;&gt;Node10 -->
<g id="edge9_Node000004_Node000010" class="edge">
<title>Node4&#45;&gt;Node10</title>
<g id="a_edge9_Node000004_Node000010"><a xlink:title=" ">
<path fill="none" stroke="#63b8ff" d="M421.07,-54.84C402.91,-46.5 375.67,-34 354.78,-24.41"/>
<polygon fill="#63b8ff" stroke="#63b8ff" points="356.45,-21.33 345.9,-20.33 353.53,-27.69 356.45,-21.33"/>
</a>
</g>
</g>
<!-- Node11 -->
<g id="Node000011" class="node">
<title>Node11</title>
<g id="a_Node000011"><a xlink:title=" ">
<polygon fill="#e0e0e0" stroke="#999999" points="405.25,-19.25 362.25,-19.25 362.25,0 405.25,0 405.25,-19.25"/>
<text xml:space="preserve" text-anchor="middle" x="383.75" y="-5.75" font-family="Helvetica,sans-Serif" font-size="10.00">vector</text>
</a>
</g>
</g>
<!-- Node4&#45;&gt;Node11 -->
<g id="edge10_Node000004_Node000011" class="edge">
<title>Node4&#45;&gt;Node11</title>
<g id="a_edge10_Node000004_Node000011"><a xlink:title=" ">
<path fill="none" stroke="#63b8ff" d="M431.08,-54.84C423.01,-47.3 411.28,-36.35 401.53,-27.23"/>
<polygon fill="#63b8ff" stroke="#63b8ff" points="404.08,-24.83 394.38,-20.56 399.3,-29.94 404.08,-24.83"/>
</a>
</g>
</g>
<!-- Node12 -->
<g id="Node000012" class="node">
<title>Node12</title>
<g id="a_Node000012"><a xlink:title=" ">
<polygon fill="#e0e0e0" stroke="#999999" points="458.12,-19.25 423.38,-19.25 423.38,0 458.12,0 458.12,-19.25"/>
<text xml:space="preserve" text-anchor="middle" x="440.75" y="-5.75" font-family="Helvetica,sans-Serif" font-size="10.00">map</text>
</a>
</g>
</g>
<!-- Node4&#45;&gt;Node12 -->
<g id="edge11_Node000004_Node000012" class="edge">
<title>Node4&#45;&gt;Node12</title>
<g id="a_edge11_Node000004_Node000012"><a xlink:title=" ">
<path fill="none" stroke="#63b8ff" d="M440.75,-55.08C440.75,-48.57 440.75,-39.42 440.75,-31.12"/>
<polygon fill="#63b8ff" stroke="#63b8ff" points="444.25,-31.12 440.75,-21.12 437.25,-31.12 444.25,-31.12"/>
</a>
</g>
</g>
<!-- Node13 -->
<g id="Node000013" class="node">
<title>Node13</title>
<g id="a_Node000013"><a xlink:title=" ">
<polygon fill="#e0e0e0" stroke="#999999" points="527.38,-19.25 476.12,-19.25 476.12,0 527.38,0 527.38,-19.25"/>
<text xml:space="preserve" text-anchor="middle" x="501.75" y="-5.75" font-family="Helvetica,sans-Serif" font-size="10.00">memory</text>
</a>
</g>
</g>
<!-- Node4&#45;&gt;Node13 -->
<g id="edge12_Node000004_Node000013" class="edge">
<title>Node4&#45;&gt;Node13</title>
<g id="a_edge12_Node000004_Node000013"><a xlink:title=" ">
<path fill="none" stroke="#63b8ff" d="M451.1,-54.84C459.83,-47.22 472.54,-36.12 483.05,-26.95"/>
<polygon fill="#63b8ff" stroke="#63b8ff" points="485.18,-29.73 490.41,-20.52 480.58,-24.46 485.18,-29.73"/>
</a>
</g>
</g>
<!-- Node14 -->
<g id="Node000014" class="node">
<title>Node14</title>
<g id="a_Node000014"><a xlink:title=" ">
<polygon fill="#e0e0e0" stroke="#999999" points="596,-19.25 545.5,-19.25 545.5,0 596,0 596,-19.25"/>
<text xml:space="preserve" text-anchor="middle" x="570.75" y="-5.75" font-family="Helvetica,sans-Serif" font-size="10.00">numeric</text>
</a>
</g>
</g>
<!-- Node4&#45;&gt;Node14 -->
<g id="edge13_Node000004_Node000014" class="edge">
<title>Node4&#45;&gt;Node14</title>
<g id="a_edge13_Node000004_Node000014"><a xlink:title=" ">
<path fill="none" stroke="#63b8ff" d="M462.8,-54.84C483.44,-46.39 514.53,-33.65 538.05,-24.02"/>
<polygon fill="#63b8ff" stroke="#63b8ff" points="539.26,-27.31 547.19,-20.28 536.61,-20.83 539.26,-27.31"/>
</a>
</g>
</g>
<!-- Node15 -->
<g id="Node000015" class="node">
<title>Node15</title>
<g id="a_Node000015"><a xlink:title=" ">
<polygon fill="#e0e0e0" stroke="#999999" points="669.62,-19.25 613.88,-19.25 613.88,0 669.62,0 669.62,-19.25"/>
<text xml:space="preserve" text-anchor="middle" x="641.75" y="-5.75" font-family="Helvetica,sans-Serif" font-size="10.00">algorithm</text>
</a>
</g>
</g>
<!-- Node4&#45;&gt;Node15 -->
<g id="edge14_Node000004_Node000015" class="edge">
<title>Node4&#45;&gt;Node15</title>
<g id="a_edge14_Node000004_Node000015"><a xlink:title=" ">
<path fill="none" stroke="#63b8ff" d="M473.94,-55.08C509.21,-45.74 564.94,-30.97 602.39,-21.05"/>
<polygon fill="#63b8ff" stroke="#63b8ff" points="603.15,-24.47 611.92,-18.53 601.36,-17.7 603.15,-24.47"/>
</a>
</g>
</g>
<!-- Node16 -->
<g id="Node000016" class="node">
<title>Node16</title>
<g id="a_Node000016"><a xlink:title=" ">
<polygon fill="#e0e0e0" stroke="#999999" points="749.62,-19.25 687.88,-19.25 687.88,0 749.62,0 749.62,-19.25"/>
<text xml:space="preserve" text-anchor="middle" x="718.75" y="-5.75" font-family="Helvetica,sans-Serif" font-size="10.00">type_traits</text>
</a>
</g>
</g>
<!-- Node4&#45;&gt;Node16 -->
<g id="edge15_Node000004_Node000016" class="edge">
<title>Node4&#45;&gt;Node16</title>
<g id="a_edge15_Node000004_Node000016"><a xlink:title=" ">
<path fill="none" stroke="#63b8ff" d="M474.31,-57.88C518.37,-49.94 598.4,-35.3 676.72,-19.61"/>
<polygon fill="#63b8ff" stroke="#63b8ff" points="677.16,-23.1 686.27,-17.69 675.78,-16.23 677.16,-23.1"/>
</a>
</g>
</g>
<!-- Node17 -->
<g id="Node000017" class="node">
<title>Node17</title>
<g id="a_Node000017"><a xlink:title=" ">
<polygon fill="#e0e0e0" stroke="#999999" points="839.88,-19.25 767.62,-19.25 767.62,0 839.88,0 839.88,-19.25"/>
<text xml:space="preserve" text-anchor="middle" x="803.75" y="-5.75" font-family="Helvetica,sans-Serif" font-size="10.00">Eigen/Dense</text>
</a>
</g>
</g>
<!-- Node4&#45;&gt;Node17 -->
<g id="edge16_Node000004_Node000017" class="edge">
<title>Node4&#45;&gt;Node17</title>
<g id="a_edge16_Node000004_Node000017"><a xlink:title=" ">
<path fill="none" stroke="#63b8ff" d="M474.26,-59.73C530.39,-52.67 647.26,-37.46 756.23,-19.6"/>
<polygon fill="#63b8ff" stroke="#63b8ff" points="756.64,-23.08 765.94,-17.99 755.5,-16.17 756.64,-23.08"/>
</a>
</g>
</g>
<!-- Node18 -->
<g id="Node000018" class="node">
<title>Node18</title>
<g id="a_Node000018"><a xlink:title=" ">
<polygon fill="#e0e0e0" stroke="#999999" points="932,-19.25 857.5,-19.25 857.5,0 932,0 932,-19.25"/>
<text xml:space="preserve" text-anchor="middle" x="894.75" y="-5.75" font-family="Helvetica,sans-Serif" font-size="10.00">Eigen/Sparse</text>
</a>
</g>
</g>
<!-- Node4&#45;&gt;Node18 -->
<g id="edge17_Node000004_Node000018" class="edge">
<title>Node4&#45;&gt;Node18</title>
<g id="a_edge17_Node000004_Node000018"><a xlink:title=" ">
<path fill="none" stroke="#63b8ff" d="M474.18,-61.09C542.21,-55.24 701.86,-40.55 845.91,-19.57"/>
<polygon fill="#63b8ff" stroke="#63b8ff" points="846.25,-23.06 855.64,-18.14 845.23,-16.13 846.25,-23.06"/>
</a>
</g>
</g>
<!-- Node19 -->
<g id="Node000019" class="node">
<title>Node19</title>
<g id="a_Node000019"><a xlink:title=" ">
<polygon fill="#e0e0e0" stroke="#999999" points="1037.38,-19.25 950.12,-19.25 950.12,0 1037.38,0 1037.38,-19.25"/>
<text xml:space="preserve" text-anchor="middle" x="993.75" y="-5.75" font-family="Helvetica,sans-Serif" font-size="10.00">Eigen/SparseLU</text>
</a>
</g>
</g>
<!-- Node4&#45;&gt;Node19 -->
<g id="edge18_Node000004_Node000019" class="edge">
<title>Node4&#45;&gt;Node19</title>
<g id="a_edge18_Node000004_Node000019"><a xlink:title=" ">
<path fill="none" stroke="#63b8ff" d="M474.19,-61.73C553.06,-56.49 757.05,-41.9 938.46,-19.44"/>
<polygon fill="#63b8ff" stroke="#63b8ff" points="938.84,-22.93 948.32,-18.21 937.97,-15.98 938.84,-22.93"/>
</a>
</g>
</g>
<!-- Node20&#45;&gt;Node4 -->
<g id="edge20_Node000020_Node000004" class="edge">
<title>Node20&#45;&gt;Node4</title>
<g id="a_edge20_Node000020_Node000004"><a xlink:title=" ">
<path fill="none" stroke="#63b8ff" d="M474.98,-110.33C469.43,-103.13 461.41,-92.71 454.52,-83.76"/>
<polygon fill="#63b8ff" stroke="#63b8ff" points="457.46,-81.85 448.59,-76.06 451.92,-86.12 457.46,-81.85"/>
</a>
</g>
</g>
</g>
</svg>
