<?xml version="1.0" encoding="UTF-8" standalone="no"?>
<!DOCTYPE svg PUBLIC "-//W3C//DTD SVG 1.1//EN"
 "http://www.w3.org/Graphics/SVG/1.1/DTD/svg11.dtd">
<!-- Generated by graphviz version 14.1.2 (20260124.0452)
 -->
<!-- Title: core/include/Optimist.hh Pages: 1 -->
<svg width="1044pt" height="83pt"
 viewBox="0.00 0.00 1044.00 83.00" xmlns="http://www.w3.org/2000/svg" xmlns:xlink="http://www.w3.org/1999/xlink">
<g id="graph0" class="graph" transform="scale(1 1) rotate(0) translate(4 78.5)">
<title>core/include/Optimist.hh</title>
<!-- Node1 -->
<g id="Node000001" class="node">
<title>Node1</title>
<g id="a_Node000001"><a xlink:title=" ">
<polygon fill="#999999" stroke="#666666" points="515.75,-74.5 394,-74.5 394,-55.25 515.75,-55.25 515.75,-74.5"/>
<text xml:space="preserve" text-anchor="middle" x="454.88" y="-61" font-family="Helvetica,sans-Serif" font-size="10.00">core/include/Optimist.hh</text>
</a>
</g>
</g>
<!-- Node2 -->
<g id="Node000002" class="node">
<title>Node2</title>
<g id="a_Node000002"><a xlink:title=" ">
<polygon fill="#e0e0e0" stroke="#999999" points="55.75,-19.25 0,-19.25 0,0 55.75,0 55.75,-19.25"/>
<text xml:space="preserve" text-anchor="middle" x="27.88" y="-5.75" font-family="Helvetica,sans-Serif" font-size="10.00">algorithm</text>
</a>
</g>
</g>
<!-- Node1&#45;&gt;Node2 -->
<g id="edge1_Node000001_Node000002" class="edge">
<title>Node1&#45;&gt;Node2</title>
<g id="a_edge1_Node000001_Node000002"><a xlink:title=" ">
<path fill="none" stroke="#63b8ff" d="M393.59,-59.2C318.67,-52.97 187.83,-40.43 67.36,-19.7"/>
<polygon fill="#63b8ff" stroke="#63b8ff" points="68.05,-16.27 57.6,-17.99 66.85,-23.16 68.05,-16.27"/>
</a>
</g>
</g>
<!-- Node3 -->
<g id="Node000003" class="node">
<title>Node3</title>
<g id="a_Node000003"><a xlink:title=" ">
<polygon fill="#e0e0e0" stroke="#999999" points="116.38,-19.25 73.38,-19.25 73.38,0 116.38,0 116.38,-19.25"/>
<text xml:space="preserve" text-anchor="middle" x="94.88" y="-5.75" font-family="Helvetica,sans-Serif" font-size="10.00">cmath</text>
</a>
</g>
</g>
<!-- Node1&#45;&gt;Node3 -->
<g id="edge2_Node000001_Node000003" class="edge">
<title>Node1&#45;&gt;Node3</title>
<g id="a_edge2_Node000001_Node000003"><a xlink:title=" ">
<path fill="none" stroke="#63b8ff" d="M393.6,-58.28C329.47,-51.83 225.72,-39.7 128.01,-19.66"/>
<polygon fill="#63b8ff" stroke="#63b8ff" points="128.72,-16.24 118.22,-17.62 127.29,-23.09 128.72,-16.24"/>
</a>
</g>
</g>
<!-- Node4 -->
<g id="Node000004" class="node">
<title>Node4</title>
<g id="a_Node000004"><a xlink:title=" ">
<polygon fill="#e0e0e0" stroke="#999999" points="183.75,-19.25 134,-19.25 134,0 183.75,0 183.75,-19.25"/>
<text xml:space="preserve" text-anchor="middle" x="158.88" y="-5.75" font-family="Helvetica,sans-Serif" font-size="10.00">iomanip</text>
</a>
</g>
</g>
<!-- Node1&#45;&gt;Node4 -->
<g id="edge3_Node000001_Node000004" class="edge">
<title>Node1&#45;&gt;Node4</title>
<g id="a_edge3_Node000001_Node000004"><a xlink:title=" ">
<path fill="none" stroke="#63b8ff" d="M393.73,-54.87C342.96,-47.08 268.63,-34.93 194.94,-19.55"/>
<polygon fill="#63b8ff" stroke="#63b8ff" points="196.06,-16.21 185.55,-17.57 194.62,-23.06 196.06,-16.21"/>
</a>
</g>
</g>
<!-- Node5 -->
<g id="Node000005" class="node">
<title>Node5</title>
<g id="a_Node000005"><a xlink:title=" ">
<polygon fill="#e0e0e0" stroke="#999999" points="230.28,-19.25 201.47,-19.25 201.47,0 230.28,0 230.28,-19.25"/>
<text xml:space="preserve" text-anchor="middle" x="215.88" y="-5.75" font-family="Helvetica,sans-Serif" font-size="10.00">ios</text>
</a>
</g>
</g>
<!-- Node1&#45;&gt;Node5 -->
<g id="edge4_Node000001_Node000005" class="edge">
<title>Node1&#45;&gt;Node5</title>
<g id="a_edge4_Node000001_Node000005"><a xlink:title=" ">
<path fill="none" stroke="#63b8ff" d="M398.8,-54.75C357.43,-47.47 299.66,-36.14 241.27,-19.6"/>
<polygon fill="#63b8ff" stroke="#63b8ff" points="242.39,-16.28 231.82,-16.87 240.45,-23 242.39,-16.28"/>
</a>
</g>
</g>
<!-- Node6 -->
<g id="Node000006" class="node">
<title>Node6</title>
<g id="a_Node000006"><a xlink:title=" ">
<polygon fill="#e0e0e0" stroke="#999999" points="301.62,-19.25 248.12,-19.25 248.12,0 301.62,0 301.62,-19.25"/>
<text xml:space="preserve" text-anchor="middle" x="274.88" y="-5.75" font-family="Helvetica,sans-Serif" font-size="10.00">iostream</text>
</a>
</g>
</g>
<!-- Node1&#45;&gt;Node6 -->
<g id="edge5_Node000001_Node000006" class="edge">
<title>Node1&#45;&gt;Node6</title>
<g id="a_edge5_Node000001_Node000006"><a xlink:title=" ">
<path fill="none" stroke="#63b8ff" d="M424.34,-54.84C393.52,-45.72 345.86,-31.63 312.68,-21.81"/>
<polygon fill="#63b8ff" stroke="#63b8ff" points="314.05,-18.57 303.47,-19.08 312.07,-25.28 314.05,-18.57"/>
</a>
</g>
</g>
<!-- Node7 -->
<g id="Node000007" class="node">
<title>Node7</title>
<g id="a_Node000007"><a xlink:title=" ">
<polygon fill="#e0e0e0" stroke="#999999" points="358.5,-19.25 319.25,-19.25 319.25,0 358.5,0 358.5,-19.25"/>
<text xml:space="preserve" text-anchor="middle" x="338.88" y="-5.75" font-family="Helvetica,sans-Serif" font-size="10.00">limits</text>
</a>
</g>
</g>
<!-- Node1&#45;&gt;Node7 -->
<g id="edge6_Node000001_Node000007" class="edge">
<title>Node1&#45;&gt;Node7</title>
<g id="a_edge6_Node000001_Node000007"><a xlink:title=" ">
<path fill="none" stroke="#63b8ff" d="M435.2,-54.84C417.03,-46.5 389.79,-34 368.91,-24.41"/>
<polygon fill="#63b8ff" stroke="#63b8ff" points="370.57,-21.33 360.02,-20.33 367.65,-27.69 370.57,-21.33"/>
</a>
</g>
</g>
<!-- Node8 -->
<g id="Node000008" class="node">
<title>Node8</title>
<g id="a_Node000008"><a xlink:title=" ">
<polygon fill="#e0e0e0" stroke="#999999" points="411.25,-19.25 376.5,-19.25 376.5,0 411.25,0 411.25,-19.25"/>
<text xml:space="preserve" text-anchor="middle" x="393.88" y="-5.75" font-family="Helvetica,sans-Serif" font-size="10.00">map</text>
</a>
</g>
</g>
<!-- Node1&#45;&gt;Node8 -->
<g id="edge7_Node000001_Node000008" class="edge">
<title>Node1&#45;&gt;Node8</title>
<g id="a_edge7_Node000001_Node000008"><a xlink:title=" ">
<path fill="none" stroke="#63b8ff" d="M444.53,-54.84C435.8,-47.22 423.09,-36.12 412.58,-26.95"/>
<polygon fill="#63b8ff" stroke="#63b8ff" points="415.05,-24.46 405.21,-20.52 410.44,-29.73 415.05,-24.46"/>
</a>
</g>
</g>
<!-- Node9 -->
<g id="Node000009" class="node">
<title>Node9</title>
<g id="a_Node000009"><a xlink:title=" ">
<polygon fill="#e0e0e0" stroke="#999999" points="480.5,-19.25 429.25,-19.25 429.25,0 480.5,0 480.5,-19.25"/>
<text xml:space="preserve" text-anchor="middle" x="454.88" y="-5.75" font-family="Helvetica,sans-Serif" font-size="10.00">memory</text>
</a>
</g>
</g>
<!-- Node1&#45;&gt;Node9 -->
<g id="edge8_Node000001_Node000009" class="edge">
<title>Node1&#45;&gt;Node9</title>
<g id="a_edge8_Node000001_Node000009"><a xlink:title=" ">
<path fill="none" stroke="#63b8ff" d="M454.88,-55.08C454.88,-48.57 454.88,-39.42 454.88,-31.12"/>
<polygon fill="#63b8ff" stroke="#63b8ff" points="458.38,-31.12 454.88,-21.12 451.38,-31.12 458.38,-31.12"/>
</a>
</g>
</g>
<!-- Node10 -->
<g id="Node000010" class="node">
<title>Node10</title>
<g id="a_Node000010"><a xlink:title=" ">
<polygon fill="#e0e0e0" stroke="#999999" points="549.12,-19.25 498.62,-19.25 498.62,0 549.12,0 549.12,-19.25"/>
<text xml:space="preserve" text-anchor="middle" x="523.88" y="-5.75" font-family="Helvetica,sans-Serif" font-size="10.00">numeric</text>
</a>
</g>
</g>
<!-- Node1&#45;&gt;Node10 -->
<g id="edge9_Node000001_Node000010" class="edge">
<title>Node1&#45;&gt;Node10</title>
<g id="a_edge9_Node000001_Node000010"><a xlink:title=" ">
<path fill="none" stroke="#63b8ff" d="M466.58,-54.84C476.65,-47.07 491.42,-35.67 503.44,-26.4"/>
<polygon fill="#63b8ff" stroke="#63b8ff" points="505.37,-29.33 511.14,-20.45 501.09,-23.79 505.37,-29.33"/>
</a>
</g>
</g>
<!-- Node11 -->
<g id="Node000011" class="node">
<title>Node11</title>
<g id="a_Node000011"><a xlink:title=" ">
<polygon fill="#e0e0e0" stroke="#999999" points="606.88,-19.25 566.88,-19.25 566.88,0 606.88,0 606.88,-19.25"/>
<text xml:space="preserve" text-anchor="middle" x="586.88" y="-5.75" font-family="Helvetica,sans-Serif" font-size="10.00">string</text>
</a>
</g>
</g>
<!-- Node1&#45;&gt;Node11 -->
<g id="edge10_Node000001_Node000011" class="edge">
<title>Node1&#45;&gt;Node11</title>
<g id="a_edge10_Node000001_Node000011"><a xlink:title=" ">
<path fill="none" stroke="#63b8ff" d="M477.27,-54.84C498.95,-46.09 532.01,-32.76 556.15,-23.02"/>
<polygon fill="#63b8ff" stroke="#63b8ff" points="557.18,-26.38 565.14,-19.39 554.56,-19.89 557.18,-26.38"/>
</a>
</g>
</g>
<!-- Node12 -->
<g id="Node000012" class="node">
<title>Node12</title>
<g id="a_Node000012"><a xlink:title=" ">
<polygon fill="#e0e0e0" stroke="#999999" points="686.75,-19.25 625,-19.25 625,0 686.75,0 686.75,-19.25"/>
<text xml:space="preserve" text-anchor="middle" x="655.88" y="-5.75" font-family="Helvetica,sans-Serif" font-size="10.00">type_traits</text>
</a>
</g>
</g>
<!-- Node1&#45;&gt;Node12 -->
<g id="edge11_Node000001_Node000012" class="edge">
<title>Node1&#45;&gt;Node12</title>
<g id="a_edge11_Node000001_Node000012"><a xlink:title=" ">
<path fill="none" stroke="#63b8ff" d="M488.97,-54.84C523.38,-45.73 576.59,-31.63 613.65,-21.81"/>
<polygon fill="#63b8ff" stroke="#63b8ff" points="614.36,-25.24 623.13,-19.3 612.57,-18.48 614.36,-25.24"/>
</a>
</g>
</g>
<!-- Node13 -->
<g id="Node000013" class="node">
<title>Node13</title>
<g id="a_Node000013"><a xlink:title=" ">
<polygon fill="#e0e0e0" stroke="#999999" points="747.38,-19.25 704.38,-19.25 704.38,0 747.38,0 747.38,-19.25"/>
<text xml:space="preserve" text-anchor="middle" x="725.88" y="-5.75" font-family="Helvetica,sans-Serif" font-size="10.00">vector</text>
</a>
</g>
</g>
<!-- Node1&#45;&gt;Node13 -->
<g id="edge12_Node000001_Node000013" class="edge">
<title>Node1&#45;&gt;Node13</title>
<g id="a_edge12_Node000001_Node000013"><a xlink:title=" ">
<path fill="none" stroke="#63b8ff" d="M512.66,-54.79C559.1,-47.13 626.21,-35.23 692.86,-19.79"/>
<polygon fill="#63b8ff" stroke="#63b8ff" points="693.58,-23.22 702.51,-17.53 691.98,-16.41 693.58,-23.22"/>
</a>
</g>
</g>
<!-- Node14 -->
<g id="Node000014" class="node">
<title>Node14</title>
<g id="a_Node000014"><a xlink:title=" ">
<polygon fill="#e0e0e0" stroke="#999999" points="838,-19.25 765.75,-19.25 765.75,0 838,0 838,-19.25"/>
<text xml:space="preserve" text-anchor="middle" x="801.88" y="-5.75" font-family="Helvetica,sans-Serif" font-size="10.00">Eigen/Dense</text>
</a>
</g>
</g>
<!-- Node1&#45;&gt;Node14 -->
<g id="edge13_Node000001_Node000014" class="edge">
<title>Node1&#45;&gt;Node14</title>
<g id="a_edge13_Node000001_Node000014"><a xlink:title=" ">
<path fill="none" stroke="#63b8ff" d="M516.02,-55.62C574.61,-47.53 665.8,-34.49 754.22,-19.64"/>
<polygon fill="#63b8ff" stroke="#63b8ff" points="754.78,-23.1 764.06,-17.98 753.61,-16.19 754.78,-23.1"/>
</a>
</g>
</g>
<!-- Node15 -->
<g id="Node000015" class="node">
<title>Node15</title>
<g id="a_Node000015"><a xlink:title=" ">
<polygon fill="#e0e0e0" stroke="#999999" points="930.12,-19.25 855.62,-19.25 855.62,0 930.12,0 930.12,-19.25"/>
<text xml:space="preserve" text-anchor="middle" x="892.88" y="-5.75" font-family="Helvetica,sans-Serif" font-size="10.00">Eigen/Sparse</text>
</a>
</g>
</g>
<!-- Node1&#45;&gt;Node15 -->
<g id="edge14_Node000001_Node000015" class="edge">
<title>Node1&#45;&gt;Node15</title>
<g id="a_edge14_Node000001_Node000015"><a xlink:title=" ">
<path fill="none" stroke="#63b8ff" d="M516.16,-58.28C591.13,-51.12 722.14,-37.63 843.88,-19.61"/>
<polygon fill="#63b8ff" stroke="#63b8ff" points="844.39,-23.07 853.76,-18.13 843.35,-16.15 844.39,-23.07"/>
</a>
</g>
</g>
<!-- Node16 -->
<g id="Node000016" class="node">
<title>Node16</title>
<g id="a_Node000016"><a xlink:title=" ">
<polygon fill="#e0e0e0" stroke="#999999" points="1035.5,-19.25 948.25,-19.25 948.25,0 1035.5,0 1035.5,-19.25"/>
<text xml:space="preserve" text-anchor="middle" x="991.88" y="-5.75" font-family="Helvetica,sans-Serif" font-size="10.00">Eigen/SparseLU</text>
</a>
</g>
</g>
<!-- Node1&#45;&gt;Node16 -->
<g id="edge15_Node000001_Node000016" class="edge">
<title>Node1&#45;&gt;Node16</title>
<g id="a_edge15_Node000001_Node000016"><a xlink:title=" ">
<path fill="none" stroke="#63b8ff" d="M516.15,-59.6C605.99,-53.02 779.01,-39.21 936.63,-19.45"/>
<polygon fill="#63b8ff" stroke="#63b8ff" points="936.97,-22.93 946.45,-18.2 936.09,-15.99 936.97,-22.93"/>
</a>
</g>
</g>
</g>
</svg>
