<?xml version="1.0" encoding="UTF-8" standalone="no"?>
<!DOCTYPE svg PUBLIC "-//W3C//DTD SVG 1.1//EN"
 "http://www.w3.org/Graphics/SVG/1.1/DTD/svg11.dtd">
<!-- Generated by graphviz version 12.2.1 (20241206.2353)
 -->
<!-- Title: include/Optimist.hh Pages: 1 -->
<svg width="2595pt" height="349pt"
 viewBox="0.00 0.00 2595.25 348.50" xmlns="http://www.w3.org/2000/svg" xmlns:xlink="http://www.w3.org/1999/xlink">
<g id="graph0" class="graph" transform="scale(1 1) rotate(0) translate(4 344.5)">
<title>include/Optimist.hh</title>
<!-- Node1 -->
<g id="Node000001" class="node">
<title>Node1</title>
<g id="a_Node000001"><a xlink:title=" ">
<polygon fill="#999999" stroke="#666666" points="1149.5,-340.5 1049.5,-340.5 1049.5,-321.25 1149.5,-321.25 1149.5,-340.5"/>
<text text-anchor="middle" x="1099.5" y="-327" font-family="Helvetica,sans-Serif" font-size="10.00">include/Optimist.hh</text>
</a>
</g>
</g>
<!-- Node2 -->
<g id="Node000002" class="node">
<title>Node2</title>
<g id="a_Node000002"><a xlink:href="_function_8hh.html" target="_top" xlink:title=" ">
<polygon fill="white" stroke="#666666" points="1071.75,-285.25 931.25,-285.25 931.25,-266 1071.75,-266 1071.75,-285.25"/>
<text text-anchor="middle" x="1001.5" y="-271.75" font-family="Helvetica,sans-Serif" font-size="10.00">include/Optimist/Function.hh</text>
</a>
</g>
</g>
<!-- Node1&#45;&gt;Node2 -->
<g id="edge1_Node000001_Node000002" class="edge">
<title>Node1&#45;&gt;Node2</title>
<g id="a_edge1_Node000001_Node000002"><a xlink:title=" ">
<path fill="none" stroke="#63b8ff" d="M1073.25,-315.61C1055.76,-306.11 1033.3,-293.9 1018.21,-285.7"/>
<polygon fill="#63b8ff" stroke="#63b8ff" points="1071.09,-318.42 1081.55,-320.12 1074.43,-312.27 1071.09,-318.42"/>
</a>
</g>
</g>
<!-- Node17 -->
<g id="Node000017" class="node">
<title>Node17</title>
<g id="a_Node000017"><a xlink:href="_solver_8hh.html" target="_top" xlink:title=" ">
<polygon fill="white" stroke="#666666" points="1929.5,-224.38 1799.5,-224.38 1799.5,-205.12 1929.5,-205.12 1929.5,-224.38"/>
<text text-anchor="middle" x="1864.5" y="-210.88" font-family="Helvetica,sans-Serif" font-size="10.00">include/Optimist/Solver.hh</text>
</a>
</g>
</g>
<!-- Node1&#45;&gt;Node17 -->
<g id="edge34_Node000001_Node000017" class="edge">
<title>Node1&#45;&gt;Node17</title>
<g id="a_edge34_Node000001_Node000017"><a xlink:title=" ">
<path fill="none" stroke="#63b8ff" d="M1161.19,-320.67C1304.88,-299.24 1660.5,-246.18 1803.51,-224.85"/>
<polygon fill="#63b8ff" stroke="#63b8ff" points="1160.86,-317.18 1151.49,-322.12 1161.89,-324.11 1160.86,-317.18"/>
</a>
</g>
</g>
<!-- Node35 -->
<g id="Node000035" class="node">
<title>Node35</title>
<g id="a_Node000035"><a xlink:href="_test_set_8hh.html" target="_top" xlink:title=" ">
<polygon fill="white" stroke="#666666" points="977.88,-224.38 841.12,-224.38 841.12,-205.12 977.88,-205.12 977.88,-224.38"/>
<text text-anchor="middle" x="909.5" y="-210.88" font-family="Helvetica,sans-Serif" font-size="10.00">include/Optimist/TestSet.hh</text>
</a>
</g>
</g>
<!-- Node1&#45;&gt;Node35 -->
<g id="edge35_Node000001_Node000035" class="edge">
<title>Node1&#45;&gt;Node35</title>
<g id="a_edge35_Node000001_Node000035"><a xlink:title=" ">
<path fill="none" stroke="#63b8ff" d="M1098.43,-309.72C1096.64,-295.69 1092.04,-277.51 1080.5,-266 1053.54,-239.13 1013.01,-226.48 978.18,-220.59"/>
<polygon fill="#63b8ff" stroke="#63b8ff" points="1094.94,-309.95 1099.28,-319.62 1101.91,-309.35 1094.94,-309.95"/>
</a>
</g>
</g>
<!-- Node3 -->
<g id="Node000003" class="node">
<title>Node3</title>
<g id="a_Node000003"><a xlink:href="_cost_function_8hh.html" target="_top" xlink:title=" ">
<polygon fill="white" stroke="#666666" points="319,-230 192,-230 192,-199.5 319,-199.5 319,-230"/>
<text text-anchor="start" x="200" y="-216.5" font-family="Helvetica,sans-Serif" font-size="10.00">include/Optimist/Function</text>
<text text-anchor="middle" x="255.5" y="-205.25" font-family="Helvetica,sans-Serif" font-size="10.00">/CostFunction.hh</text>
</a>
</g>
</g>
<!-- Node2&#45;&gt;Node3 -->
<g id="edge2_Node000002_Node000003" class="edge">
<title>Node2&#45;&gt;Node3</title>
<g id="a_edge2_Node000002_Node000003"><a xlink:title=" ">
<path fill="none" stroke="#63b8ff" d="M919.62,-268.16C769.79,-256.34 454.51,-231.46 319.29,-220.78"/>
<polygon fill="#63b8ff" stroke="#63b8ff" points="919.23,-271.64 929.47,-268.94 919.78,-264.66 919.23,-271.64"/>
</a>
</g>
</g>
<!-- Node6 -->
<g id="Node000006" class="node">
<title>Node6</title>
<g id="a_Node000006"><a xlink:href="_scalar_function_8hh.html" target="_top" xlink:title=" ">
<polygon fill="white" stroke="#666666" points="1214,-230 1087,-230 1087,-199.5 1214,-199.5 1214,-230"/>
<text text-anchor="start" x="1095" y="-216.5" font-family="Helvetica,sans-Serif" font-size="10.00">include/Optimist/Function</text>
<text text-anchor="middle" x="1150.5" y="-205.25" font-family="Helvetica,sans-Serif" font-size="10.00">/ScalarFunction.hh</text>
</a>
</g>
</g>
<!-- Node2&#45;&gt;Node6 -->
<g id="edge5_Node000002_Node000006" class="edge">
<title>Node2&#45;&gt;Node6</title>
<g id="a_edge5_Node000002_Node000006"><a xlink:title=" ">
<path fill="none" stroke="#63b8ff" d="M1034.87,-261.44C1058.15,-252.24 1089.23,-239.96 1113.31,-230.44"/>
<polygon fill="#63b8ff" stroke="#63b8ff" points="1033.88,-258.07 1025.86,-265 1036.45,-264.58 1033.88,-258.07"/>
</a>
</g>
</g>
<!-- Node13 -->
<g id="Node000013" class="node">
<title>Node13</title>
<g id="a_Node000013"><a xlink:href="_vector_function_8hh.html" target="_top" xlink:title=" ">
<polygon fill="white" stroke="#666666" points="747,-230 620,-230 620,-199.5 747,-199.5 747,-230"/>
<text text-anchor="start" x="628" y="-216.5" font-family="Helvetica,sans-Serif" font-size="10.00">include/Optimist/Function</text>
<text text-anchor="middle" x="683.5" y="-205.25" font-family="Helvetica,sans-Serif" font-size="10.00">/VectorFunction.hh</text>
</a>
</g>
</g>
<!-- Node2&#45;&gt;Node13 -->
<g id="edge12_Node000002_Node000013" class="edge">
<title>Node2&#45;&gt;Node13</title>
<g id="a_edge12_Node000002_Node000013"><a xlink:title=" ">
<path fill="none" stroke="#63b8ff" d="M941.45,-263.51C886.03,-253.25 803.99,-238.06 747.38,-227.58"/>
<polygon fill="#63b8ff" stroke="#63b8ff" points="940.55,-266.9 951.02,-265.28 941.83,-260.02 940.55,-266.9"/>
</a>
</g>
</g>
<!-- Node2&#45;&gt;Node17 -->
<g id="edge16_Node000002_Node000017" class="edge">
<title>Node2&#45;&gt;Node17</title>
<g id="a_edge16_Node000002_Node000017"><a xlink:title=" ">
<path fill="none" stroke="#63b8ff" d="M1083.53,-269.03C1254.11,-257.39 1644.09,-230.79 1799.16,-220.21"/>
<polygon fill="#63b8ff" stroke="#63b8ff" points="1083.37,-265.53 1073.63,-269.7 1083.85,-272.52 1083.37,-265.53"/>
</a>
</g>
</g>
<!-- Node4 -->
<g id="Node000004" class="node">
<title>Node4</title>
<g id="a_Node000004"><a xlink:href="_elliptic_paraboloid_8hh.html" target="_top" xlink:title=" ">
<polygon fill="white" stroke="#666666" points="169,-163.5 0,-163.5 0,-133 169,-133 169,-163.5"/>
<text text-anchor="start" x="8" y="-150" font-family="Helvetica,sans-Serif" font-size="10.00">include/Optimist/TestSet</text>
<text text-anchor="middle" x="84.5" y="-138.75" font-family="Helvetica,sans-Serif" font-size="10.00">/CostFunction/EllipticParaboloid.hh</text>
</a>
</g>
</g>
<!-- Node3&#45;&gt;Node4 -->
<g id="edge3_Node000003_Node000004" class="edge">
<title>Node3&#45;&gt;Node4</title>
<g id="a_edge3_Node000003_Node000004"><a xlink:title=" ">
<path fill="none" stroke="#63b8ff" d="M206.18,-195.15C179.88,-185.23 147.98,-173.2 123.44,-163.94"/>
<polygon fill="#63b8ff" stroke="#63b8ff" points="204.69,-198.33 215.28,-198.58 207.16,-191.78 204.69,-198.33"/>
</a>
</g>
</g>
<!-- Node5 -->
<g id="Node000005" class="node">
<title>Node5</title>
<g id="a_Node000005"><a xlink:href="_schaffer2_8hh.html" target="_top" xlink:title=" ">
<polygon fill="white" stroke="#666666" points="323.5,-163.5 187.5,-163.5 187.5,-133 323.5,-133 323.5,-163.5"/>
<text text-anchor="start" x="195.5" y="-150" font-family="Helvetica,sans-Serif" font-size="10.00">include/Optimist/TestSet</text>
<text text-anchor="middle" x="255.5" y="-138.75" font-family="Helvetica,sans-Serif" font-size="10.00">/CostFunction/Schaffer2.hh</text>
</a>
</g>
</g>
<!-- Node3&#45;&gt;Node5 -->
<g id="edge4_Node000003_Node000005" class="edge">
<title>Node3&#45;&gt;Node5</title>
<g id="a_edge4_Node000003_Node000005"><a xlink:title=" ">
<path fill="none" stroke="#63b8ff" d="M255.5,-187.81C255.5,-179.64 255.5,-170.91 255.5,-163.83"/>
<polygon fill="#63b8ff" stroke="#63b8ff" points="252,-187.6 255.5,-197.6 259,-187.6 252,-187.6"/>
</a>
</g>
</g>
<!-- Node7 -->
<g id="Node000007" class="node">
<title>Node7</title>
<g id="a_Node000007"><a xlink:href="_cos_8hh.html" target="_top" xlink:title=" ">
<polygon fill="white" stroke="#666666" points="1212.12,-163.5 1088.88,-163.5 1088.88,-133 1212.12,-133 1212.12,-163.5"/>
<text text-anchor="start" x="1096.88" y="-150" font-family="Helvetica,sans-Serif" font-size="10.00">include/Optimist/TestSet</text>
<text text-anchor="middle" x="1150.5" y="-138.75" font-family="Helvetica,sans-Serif" font-size="10.00">/ScalarFunction/Cos.hh</text>
</a>
</g>
</g>
<!-- Node6&#45;&gt;Node7 -->
<g id="edge6_Node000006_Node000007" class="edge">
<title>Node6&#45;&gt;Node7</title>
<g id="a_edge6_Node000006_Node000007"><a xlink:title=" ">
<path fill="none" stroke="#63b8ff" d="M1150.5,-187.81C1150.5,-179.64 1150.5,-170.91 1150.5,-163.83"/>
<polygon fill="#63b8ff" stroke="#63b8ff" points="1147,-187.6 1150.5,-197.6 1154,-187.6 1147,-187.6"/>
</a>
</g>
</g>
<!-- Node8 -->
<g id="Node000008" class="node">
<title>Node8</title>
<g id="a_Node000008"><a xlink:href="_cosh_8hh.html" target="_top" xlink:title=" ">
<polygon fill="white" stroke="#666666" points="1354.5,-163.5 1230.5,-163.5 1230.5,-133 1354.5,-133 1354.5,-163.5"/>
<text text-anchor="start" x="1238.5" y="-150" font-family="Helvetica,sans-Serif" font-size="10.00">include/Optimist/TestSet</text>
<text text-anchor="middle" x="1292.5" y="-138.75" font-family="Helvetica,sans-Serif" font-size="10.00">/ScalarFunction/Cosh.hh</text>
</a>
</g>
</g>
<!-- Node6&#45;&gt;Node8 -->
<g id="edge7_Node000006_Node000008" class="edge">
<title>Node6&#45;&gt;Node8</title>
<g id="a_edge7_Node000006_Node000008"><a xlink:title=" ">
<path fill="none" stroke="#63b8ff" d="M1192.96,-194.47C1214.59,-184.64 1240.46,-172.89 1260.41,-163.83"/>
<polygon fill="#63b8ff" stroke="#63b8ff" points="1191.76,-191.17 1184.1,-198.49 1194.65,-197.54 1191.76,-191.17"/>
</a>
</g>
</g>
<!-- Node9 -->
<g id="Node000009" class="node">
<title>Node9</title>
<g id="a_Node000009"><a xlink:href="_linear_8hh.html" target="_top" xlink:title=" ">
<polygon fill="white" stroke="#666666" points="1498.62,-163.5 1372.38,-163.5 1372.38,-133 1498.62,-133 1498.62,-163.5"/>
<text text-anchor="start" x="1380.38" y="-150" font-family="Helvetica,sans-Serif" font-size="10.00">include/Optimist/TestSet</text>
<text text-anchor="middle" x="1435.5" y="-138.75" font-family="Helvetica,sans-Serif" font-size="10.00">/ScalarFunction/Linear.hh</text>
</a>
</g>
</g>
<!-- Node6&#45;&gt;Node9 -->
<g id="edge8_Node000006_Node000009" class="edge">
<title>Node6&#45;&gt;Node9</title>
<g id="a_edge8_Node000006_Node000009"><a xlink:title=" ">
<path fill="none" stroke="#63b8ff" d="M1225.5,-196.78C1271.18,-186.44 1328.89,-173.38 1372.25,-163.57"/>
<polygon fill="#63b8ff" stroke="#63b8ff" points="1224.92,-193.32 1215.94,-198.94 1226.46,-200.15 1224.92,-193.32"/>
</a>
</g>
</g>
<!-- Node10 -->
<g id="Node000010" class="node">
<title>Node10</title>
<g id="a_Node000010"><a xlink:href="_quadratic_8hh.html" target="_top" xlink:title=" ">
<polygon fill="white" stroke="#666666" points="1659.88,-163.5 1517.12,-163.5 1517.12,-133 1659.88,-133 1659.88,-163.5"/>
<text text-anchor="start" x="1525.12" y="-150" font-family="Helvetica,sans-Serif" font-size="10.00">include/Optimist/TestSet</text>
<text text-anchor="middle" x="1588.5" y="-138.75" font-family="Helvetica,sans-Serif" font-size="10.00">/ScalarFunction/Quadratic.hh</text>
</a>
</g>
</g>
<!-- Node6&#45;&gt;Node10 -->
<g id="edge9_Node000006_Node000010" class="edge">
<title>Node6&#45;&gt;Node10</title>
<g id="a_edge9_Node000006_Node000010"><a xlink:title=" ">
<path fill="none" stroke="#63b8ff" d="M1225.7,-203.93C1298.02,-194.3 1410.38,-178.87 1507.5,-163.5 1510.6,-163.01 1513.77,-162.5 1516.97,-161.97"/>
<polygon fill="#63b8ff" stroke="#63b8ff" points="1225.4,-200.44 1215.94,-205.22 1226.32,-207.38 1225.4,-200.44"/>
</a>
</g>
</g>
<!-- Node11 -->
<g id="Node000011" class="node">
<title>Node11</title>
<g id="a_Node000011"><a xlink:href="_sin_8hh.html" target="_top" xlink:title=" ">
<polygon fill="white" stroke="#666666" points="930.12,-163.5 806.88,-163.5 806.88,-133 930.12,-133 930.12,-163.5"/>
<text text-anchor="start" x="814.88" y="-150" font-family="Helvetica,sans-Serif" font-size="10.00">include/Optimist/TestSet</text>
<text text-anchor="middle" x="868.5" y="-138.75" font-family="Helvetica,sans-Serif" font-size="10.00">/ScalarFunction/Sin.hh</text>
</a>
</g>
</g>
<!-- Node6&#45;&gt;Node11 -->
<g id="edge10_Node000006_Node000011" class="edge">
<title>Node6&#45;&gt;Node11</title>
<g id="a_edge10_Node000006_Node000011"><a xlink:title=" ">
<path fill="none" stroke="#63b8ff" d="M1075.55,-196.61C1030.19,-186.23 973.05,-173.16 930.3,-163.38"/>
<polygon fill="#63b8ff" stroke="#63b8ff" points="1074.51,-199.96 1085.03,-198.78 1076.07,-193.13 1074.51,-199.96"/>
</a>
</g>
</g>
<!-- Node12 -->
<g id="Node000012" class="node">
<title>Node12</title>
<g id="a_Node000012"><a xlink:href="_sinh_8hh.html" target="_top" xlink:title=" ">
<polygon fill="white" stroke="#666666" points="1071.12,-163.5 947.88,-163.5 947.88,-133 1071.12,-133 1071.12,-163.5"/>
<text text-anchor="start" x="955.88" y="-150" font-family="Helvetica,sans-Serif" font-size="10.00">include/Optimist/TestSet</text>
<text text-anchor="middle" x="1009.5" y="-138.75" font-family="Helvetica,sans-Serif" font-size="10.00">/ScalarFunction/Sinh.hh</text>
</a>
</g>
</g>
<!-- Node6&#45;&gt;Node12 -->
<g id="edge11_Node000006_Node000012" class="edge">
<title>Node6&#45;&gt;Node12</title>
<g id="a_edge11_Node000006_Node000012"><a xlink:title=" ">
<path fill="none" stroke="#63b8ff" d="M1108.05,-194.33C1086.63,-184.53 1061.08,-172.85 1041.37,-163.83"/>
<polygon fill="#63b8ff" stroke="#63b8ff" points="1106.58,-197.51 1117.13,-198.48 1109.49,-191.14 1106.58,-197.51"/>
</a>
</g>
</g>
<!-- Node14 -->
<g id="Node000014" class="node">
<title>Node14</title>
<g id="a_Node000014"><a xlink:href="_booth_8hh.html" target="_top" xlink:title=" ">
<polygon fill="white" stroke="#666666" points="789,-163.5 662,-163.5 662,-133 789,-133 789,-163.5"/>
<text text-anchor="start" x="670" y="-150" font-family="Helvetica,sans-Serif" font-size="10.00">include/Optimist/TestSet</text>
<text text-anchor="middle" x="725.5" y="-138.75" font-family="Helvetica,sans-Serif" font-size="10.00">/VectorFunction/Booth.hh</text>
</a>
</g>
</g>
<!-- Node13&#45;&gt;Node14 -->
<g id="edge13_Node000013_Node000014" class="edge">
<title>Node13&#45;&gt;Node14</title>
<g id="a_edge13_Node000013_Node000014"><a xlink:title=" ">
<path fill="none" stroke="#63b8ff" d="M699.29,-189.51C704.91,-180.87 711.07,-171.41 716.01,-163.83"/>
<polygon fill="#63b8ff" stroke="#63b8ff" points="696.38,-187.56 693.86,-197.85 702.25,-191.38 696.38,-187.56"/>
</a>
</g>
</g>
<!-- Node15 -->
<g id="Node000015" class="node">
<title>Node15</title>
<g id="a_Node000015"><a xlink:href="_brown_8hh.html" target="_top" xlink:title=" ">
<polygon fill="white" stroke="#666666" points="471.12,-163.5 341.88,-163.5 341.88,-133 471.12,-133 471.12,-163.5"/>
<text text-anchor="start" x="349.88" y="-150" font-family="Helvetica,sans-Serif" font-size="10.00">include/Optimist/TestSet</text>
<text text-anchor="middle" x="406.5" y="-138.75" font-family="Helvetica,sans-Serif" font-size="10.00">/VectorFunction/Brown.hh</text>
</a>
</g>
</g>
<!-- Node13&#45;&gt;Node15 -->
<g id="edge14_Node000013_Node000015" class="edge">
<title>Node13&#45;&gt;Node15</title>
<g id="a_edge14_Node000013_Node000015"><a xlink:title=" ">
<path fill="none" stroke="#63b8ff" d="M609.16,-196.44C565.51,-186.28 510.94,-173.57 469.43,-163.9"/>
<polygon fill="#63b8ff" stroke="#63b8ff" points="608.29,-199.83 618.82,-198.69 609.88,-193.01 608.29,-199.83"/>
</a>
</g>
</g>
<!-- Node16 -->
<g id="Node000016" class="node">
<title>Node16</title>
<g id="a_Node000016"><a xlink:href="_rosenbrock_8hh.html" target="_top" xlink:title=" ">
<polygon fill="white" stroke="#666666" points="643.5,-163.5 489.5,-163.5 489.5,-133 643.5,-133 643.5,-163.5"/>
<text text-anchor="start" x="497.5" y="-150" font-family="Helvetica,sans-Serif" font-size="10.00">include/Optimist/TestSet</text>
<text text-anchor="middle" x="566.5" y="-138.75" font-family="Helvetica,sans-Serif" font-size="10.00">/VectorFunction/Rosenbrock.hh</text>
</a>
</g>
</g>
<!-- Node13&#45;&gt;Node16 -->
<g id="edge15_Node000013_Node000016" class="edge">
<title>Node13&#45;&gt;Node16</title>
<g id="a_edge15_Node000013_Node000016"><a xlink:title=" ">
<path fill="none" stroke="#63b8ff" d="M647.05,-193.66C629.54,-184 608.93,-172.64 592.94,-163.83"/>
<polygon fill="#63b8ff" stroke="#63b8ff" points="645.18,-196.62 655.63,-198.38 648.56,-190.49 645.18,-196.62"/>
</a>
</g>
</g>
<!-- Node18 -->
<g id="Node000018" class="node">
<title>Node18</title>
<g id="a_Node000018"><a xlink:href="_optimizer_8hh.html" target="_top" xlink:title=" ">
<polygon fill="white" stroke="#666666" points="2053.62,-157.88 1909.38,-157.88 1909.38,-138.62 2053.62,-138.62 2053.62,-157.88"/>
<text text-anchor="middle" x="1981.5" y="-144.38" font-family="Helvetica,sans-Serif" font-size="10.00">include/Optimist/Optimizer.hh</text>
</a>
</g>
</g>
<!-- Node17&#45;&gt;Node18 -->
<g id="edge17_Node000017_Node000018" class="edge">
<title>Node17&#45;&gt;Node18</title>
<g id="a_edge17_Node000017_Node000018"><a xlink:title=" ">
<path fill="none" stroke="#63b8ff" d="M1891.04,-199.12C1913.79,-186.58 1945.86,-168.9 1965.07,-158.31"/>
<polygon fill="#63b8ff" stroke="#63b8ff" points="1889.41,-196.02 1882.34,-203.91 1892.79,-202.15 1889.41,-196.02"/>
</a>
</g>
</g>
<!-- Node21 -->
<g id="Node000021" class="node">
<title>Node21</title>
<g id="a_Node000021"><a xlink:href="_root_finder_8hh.html" target="_top" xlink:title=" ">
<polygon fill="white" stroke="#666666" points="2290.62,-157.88 2140.38,-157.88 2140.38,-138.62 2290.62,-138.62 2290.62,-157.88"/>
<text text-anchor="middle" x="2215.5" y="-144.38" font-family="Helvetica,sans-Serif" font-size="10.00">include/Optimist/RootFinder.hh</text>
</a>
</g>
</g>
<!-- Node17&#45;&gt;Node21 -->
<g id="edge20_Node000017_Node000021" class="edge">
<title>Node17&#45;&gt;Node21</title>
<g id="a_edge20_Node000017_Node000021"><a xlink:title=" ">
<path fill="none" stroke="#63b8ff" d="M1925.03,-202.63C1993.18,-190.1 2102.63,-169.99 2165.92,-158.36"/>
<polygon fill="#63b8ff" stroke="#63b8ff" points="1924.74,-199.12 1915.53,-204.37 1926,-206.01 1924.74,-199.12"/>
</a>
</g>
</g>
<!-- Node26 -->
<g id="Node000026" class="node">
<title>Node26</title>
<g id="a_Node000026"><a xlink:href="_scalar_optimizer_8hh.html" target="_top" xlink:title=" ">
<polygon fill="white" stroke="#666666" points="2480.5,-157.88 2308.5,-157.88 2308.5,-138.62 2480.5,-138.62 2480.5,-157.88"/>
<text text-anchor="middle" x="2394.5" y="-144.38" font-family="Helvetica,sans-Serif" font-size="10.00">include/Optimist/ScalarOptimizer.hh</text>
</a>
</g>
</g>
<!-- Node17&#45;&gt;Node26 -->
<g id="edge25_Node000017_Node000026" class="edge">
<title>Node17&#45;&gt;Node26</title>
<g id="a_edge25_Node000017_Node000026"><a xlink:title=" ">
<path fill="none" stroke="#63b8ff" d="M1941.16,-205.69C2028.13,-196.36 2174.18,-180.13 2299.5,-163.5 2311.32,-161.93 2323.95,-160.13 2336.01,-158.34"/>
<polygon fill="#63b8ff" stroke="#63b8ff" points="1940.88,-202.2 1931.31,-206.74 1941.63,-209.16 1940.88,-202.2"/>
</a>
</g>
</g>
<!-- Node27 -->
<g id="Node000027" class="node">
<title>Node27</title>
<g id="a_Node000027"><a xlink:href="_scalar_root_finder_8hh.html" target="_top" xlink:title=" ">
<polygon fill="white" stroke="#666666" points="1816.62,-163.5 1678.38,-163.5 1678.38,-133 1816.62,-133 1816.62,-163.5"/>
<text text-anchor="start" x="1686.38" y="-150" font-family="Helvetica,sans-Serif" font-size="10.00">include/Optimist/ScalarRoot</text>
<text text-anchor="middle" x="1747.5" y="-138.75" font-family="Helvetica,sans-Serif" font-size="10.00">Finder.hh</text>
</a>
</g>
</g>
<!-- Node17&#45;&gt;Node27 -->
<g id="edge26_Node000017_Node000027" class="edge">
<title>Node17&#45;&gt;Node27</title>
<g id="a_edge26_Node000017_Node000027"><a xlink:title=" ">
<path fill="none" stroke="#63b8ff" d="M1838.09,-199.19C1818.9,-188.61 1793.03,-174.35 1773.85,-163.78"/>
<polygon fill="#63b8ff" stroke="#63b8ff" points="1836.21,-202.15 1846.66,-203.91 1839.59,-196.02 1836.21,-202.15"/>
</a>
</g>
</g>
<!-- Node19 -->
<g id="Node000019" class="node">
<title>Node19</title>
<g id="a_Node000019"><a xlink:href="_nelder_mead_8hh.html" target="_top" xlink:title=" ">
<polygon fill="white" stroke="#666666" points="2047.25,-97 1915.75,-97 1915.75,-66.5 2047.25,-66.5 2047.25,-97"/>
<text text-anchor="start" x="1923.75" y="-83.5" font-family="Helvetica,sans-Serif" font-size="10.00">include/Optimist/Optimizer</text>
<text text-anchor="middle" x="1981.5" y="-72.25" font-family="Helvetica,sans-Serif" font-size="10.00">/NelderMead.hh</text>
</a>
</g>
</g>
<!-- Node18&#45;&gt;Node19 -->
<g id="edge18_Node000018_Node000019" class="edge">
<title>Node18&#45;&gt;Node19</title>
<g id="a_edge18_Node000018_Node000019"><a xlink:title=" ">
<path fill="none" stroke="#63b8ff" d="M1981.5,-126.87C1981.5,-117.19 1981.5,-105.85 1981.5,-97.09"/>
<polygon fill="#63b8ff" stroke="#63b8ff" points="1978,-126.77 1981.5,-136.77 1985,-126.77 1978,-126.77"/>
</a>
</g>
</g>
<!-- Node20 -->
<g id="Node000020" class="node">
<title>Node20</title>
<g id="a_Node000020"><a xlink:href="_pattern_search_8hh.html" target="_top" xlink:title=" ">
<polygon fill="white" stroke="#666666" points="2197.25,-97 2065.75,-97 2065.75,-66.5 2197.25,-66.5 2197.25,-97"/>
<text text-anchor="start" x="2073.75" y="-83.5" font-family="Helvetica,sans-Serif" font-size="10.00">include/Optimist/Optimizer</text>
<text text-anchor="middle" x="2131.5" y="-72.25" font-family="Helvetica,sans-Serif" font-size="10.00">/PatternSearch.hh</text>
</a>
</g>
</g>
<!-- Node18&#45;&gt;Node20 -->
<g id="edge19_Node000018_Node000020" class="edge">
<title>Node18&#45;&gt;Node20</title>
<g id="a_edge19_Node000018_Node000020"><a xlink:title=" ">
<path fill="none" stroke="#63b8ff" d="M2012.95,-133.72C2037.68,-123.09 2072.06,-108.31 2097.43,-97.4"/>
<polygon fill="#63b8ff" stroke="#63b8ff" points="2011.87,-130.38 2004.06,-137.55 2014.63,-136.81 2011.87,-130.38"/>
</a>
</g>
</g>
<!-- Node22 -->
<g id="Node000022" class="node">
<title>Node22</title>
<g id="a_Node000022"><a xlink:href="_root_finder_2_newton_8hh.html" target="_top" xlink:title=" ">
<polygon fill="white" stroke="#666666" points="2353.25,-97 2215.75,-97 2215.75,-66.5 2353.25,-66.5 2353.25,-97"/>
<text text-anchor="start" x="2223.75" y="-83.5" font-family="Helvetica,sans-Serif" font-size="10.00">include/Optimist/RootFinder</text>
<text text-anchor="middle" x="2284.5" y="-72.25" font-family="Helvetica,sans-Serif" font-size="10.00">/Newton.hh</text>
</a>
</g>
</g>
<!-- Node21&#45;&gt;Node22 -->
<g id="edge21_Node000021_Node000022" class="edge">
<title>Node21&#45;&gt;Node22</title>
<g id="a_edge21_Node000021_Node000022"><a xlink:title=" ">
<path fill="none" stroke="#63b8ff" d="M2233.49,-130.43C2244.48,-120.16 2258.38,-107.17 2268.89,-97.34"/>
<polygon fill="#63b8ff" stroke="#63b8ff" points="2231.12,-127.86 2226.2,-137.25 2235.9,-132.98 2231.12,-127.86"/>
</a>
</g>
</g>
<!-- Node23 -->
<g id="Node000023" class="node">
<title>Node23</title>
<g id="a_Node000023"><a xlink:href="_quasi_newton_8hh.html" target="_top" xlink:title=" ">
<polygon fill="white" stroke="#666666" points="2509.25,-97 2371.75,-97 2371.75,-66.5 2509.25,-66.5 2509.25,-97"/>
<text text-anchor="start" x="2379.75" y="-83.5" font-family="Helvetica,sans-Serif" font-size="10.00">include/Optimist/RootFinder</text>
<text text-anchor="middle" x="2440.5" y="-72.25" font-family="Helvetica,sans-Serif" font-size="10.00">/QuasiNewton.hh</text>
</a>
</g>
</g>
<!-- Node21&#45;&gt;Node23 -->
<g id="edge22_Node000021_Node000023" class="edge">
<title>Node21&#45;&gt;Node23</title>
<g id="a_edge22_Node000021_Node000023"><a xlink:title=" ">
<path fill="none" stroke="#63b8ff" d="M2258.26,-134.99C2295.58,-124.29 2349.8,-108.75 2389.4,-97.4"/>
<polygon fill="#63b8ff" stroke="#63b8ff" points="2257.36,-131.61 2248.71,-137.73 2259.29,-138.34 2257.36,-131.61"/>
</a>
</g>
</g>
<!-- Node24 -->
<g id="Node000024" class="node">
<title>Node24</title>
<g id="a_Node000024"><a xlink:href="_broyden_8hh.html" target="_top" xlink:title=" ">
<polygon fill="white" stroke="#666666" points="2431.25,-30.5 2293.75,-30.5 2293.75,0 2431.25,0 2431.25,-30.5"/>
<text text-anchor="start" x="2301.75" y="-17" font-family="Helvetica,sans-Serif" font-size="10.00">include/Optimist/RootFinder</text>
<text text-anchor="middle" x="2362.5" y="-5.75" font-family="Helvetica,sans-Serif" font-size="10.00">/Broyden.hh</text>
</a>
</g>
</g>
<!-- Node23&#45;&gt;Node24 -->
<g id="edge23_Node000023_Node000024" class="edge">
<title>Node23&#45;&gt;Node24</title>
<g id="a_edge23_Node000023_Node000024"><a xlink:title=" ">
<path fill="none" stroke="#63b8ff" d="M2414.22,-59.02C2402.99,-49.73 2390.19,-39.15 2380.13,-30.83"/>
<polygon fill="#63b8ff" stroke="#63b8ff" points="2411.7,-61.47 2421.63,-65.15 2416.16,-56.08 2411.7,-61.47"/>
</a>
</g>
</g>
<!-- Node25 -->
<g id="Node000025" class="node">
<title>Node25</title>
<g id="a_Node000025"><a xlink:href="_greenstadt_8hh.html" target="_top" xlink:title=" ">
<polygon fill="white" stroke="#666666" points="2587.25,-30.5 2449.75,-30.5 2449.75,0 2587.25,0 2587.25,-30.5"/>
<text text-anchor="start" x="2457.75" y="-17" font-family="Helvetica,sans-Serif" font-size="10.00">include/Optimist/RootFinder</text>
<text text-anchor="middle" x="2518.5" y="-5.75" font-family="Helvetica,sans-Serif" font-size="10.00">/Greenstadt.hh</text>
</a>
</g>
</g>
<!-- Node23&#45;&gt;Node25 -->
<g id="edge24_Node000023_Node000025" class="edge">
<title>Node23&#45;&gt;Node25</title>
<g id="a_edge24_Node000023_Node000025"><a xlink:title=" ">
<path fill="none" stroke="#63b8ff" d="M2466.78,-59.02C2478.01,-49.73 2490.81,-39.15 2500.87,-30.83"/>
<polygon fill="#63b8ff" stroke="#63b8ff" points="2464.84,-56.08 2459.37,-65.15 2469.3,-61.47 2464.84,-56.08"/>
</a>
</g>
</g>
<!-- Node28 -->
<g id="Node000028" class="node">
<title>Node28</title>
<g id="a_Node000028"><a xlink:href="_bracketing_8hh.html" target="_top" xlink:title=" ">
<polygon fill="white" stroke="#666666" points="1429.62,-97 1291.38,-97 1291.38,-66.5 1429.62,-66.5 1429.62,-97"/>
<text text-anchor="start" x="1299.38" y="-83.5" font-family="Helvetica,sans-Serif" font-size="10.00">include/Optimist/ScalarRoot</text>
<text text-anchor="middle" x="1360.5" y="-72.25" font-family="Helvetica,sans-Serif" font-size="10.00">Finder/Bracketing.hh</text>
</a>
</g>
</g>
<!-- Node27&#45;&gt;Node28 -->
<g id="edge27_Node000027_Node000028" class="edge">
<title>Node27&#45;&gt;Node28</title>
<g id="a_edge27_Node000027_Node000028"><a xlink:title=" ">
<path fill="none" stroke="#63b8ff" d="M1667,-132.78C1564.61,-115.69 1537.02,-113.71 1438.5,-97 1435.65,-96.52 1432.74,-96.02 1429.81,-95.51"/>
<polygon fill="#63b8ff" stroke="#63b8ff" points="1666.22,-136.19 1676.66,-134.4 1667.38,-129.29 1666.22,-136.19"/>
</a>
</g>
</g>
<!-- Node31 -->
<g id="Node000031" class="node">
<title>Node31</title>
<g id="a_Node000031"><a xlink:href="_chebyshev_8hh.html" target="_top" xlink:title=" ">
<polygon fill="white" stroke="#666666" points="1585.62,-97 1447.38,-97 1447.38,-66.5 1585.62,-66.5 1585.62,-97"/>
<text text-anchor="start" x="1455.38" y="-83.5" font-family="Helvetica,sans-Serif" font-size="10.00">include/Optimist/ScalarRoot</text>
<text text-anchor="middle" x="1516.5" y="-72.25" font-family="Helvetica,sans-Serif" font-size="10.00">Finder/Chebyshev.hh</text>
</a>
</g>
</g>
<!-- Node27&#45;&gt;Node31 -->
<g id="edge30_Node000027_Node000031" class="edge">
<title>Node27&#45;&gt;Node31</title>
<g id="a_edge30_Node000027_Node000031"><a xlink:title=" ">
<path fill="none" stroke="#63b8ff" d="M1683.88,-129.49C1647.75,-119.4 1603.08,-106.93 1568.98,-97.4"/>
<polygon fill="#63b8ff" stroke="#63b8ff" points="1682.76,-132.81 1693.34,-132.13 1684.65,-126.07 1682.76,-132.81"/>
</a>
</g>
</g>
<!-- Node32 -->
<g id="Node000032" class="node">
<title>Node32</title>
<g id="a_Node000032"><a xlink:href="_halley_8hh.html" target="_top" xlink:title=" ">
<polygon fill="white" stroke="#666666" points="1741.62,-97 1603.38,-97 1603.38,-66.5 1741.62,-66.5 1741.62,-97"/>
<text text-anchor="start" x="1611.38" y="-83.5" font-family="Helvetica,sans-Serif" font-size="10.00">include/Optimist/ScalarRoot</text>
<text text-anchor="middle" x="1672.5" y="-72.25" font-family="Helvetica,sans-Serif" font-size="10.00">Finder/Halley.hh</text>
</a>
</g>
</g>
<!-- Node27&#45;&gt;Node32 -->
<g id="edge31_Node000027_Node000032" class="edge">
<title>Node27&#45;&gt;Node32</title>
<g id="a_edge31_Node000027_Node000032"><a xlink:title=" ">
<path fill="none" stroke="#63b8ff" d="M1721.91,-125.24C1711.19,-116.03 1699.03,-105.56 1689.45,-97.33"/>
<polygon fill="#63b8ff" stroke="#63b8ff" points="1719.47,-127.76 1729.33,-131.63 1724.03,-122.45 1719.47,-127.76"/>
</a>
</g>
</g>
<!-- Node33 -->
<g id="Node000033" class="node">
<title>Node33</title>
<g id="a_Node000033"><a xlink:href="_scalar_root_finder_2_newton_8hh.html" target="_top" xlink:title=" ">
<polygon fill="white" stroke="#666666" points="1897.62,-97 1759.38,-97 1759.38,-66.5 1897.62,-66.5 1897.62,-97"/>
<text text-anchor="start" x="1767.38" y="-83.5" font-family="Helvetica,sans-Serif" font-size="10.00">include/Optimist/ScalarRoot</text>
<text text-anchor="middle" x="1828.5" y="-72.25" font-family="Helvetica,sans-Serif" font-size="10.00">Finder/Newton.hh</text>
</a>
</g>
</g>
<!-- Node27&#45;&gt;Node33 -->
<g id="edge32_Node000027_Node000033" class="edge">
<title>Node27&#45;&gt;Node33</title>
<g id="a_edge32_Node000027_Node000033"><a xlink:title=" ">
<path fill="none" stroke="#63b8ff" d="M1774.79,-125.52C1786.45,-116.23 1799.75,-105.65 1810.19,-97.33"/>
<polygon fill="#63b8ff" stroke="#63b8ff" points="1772.71,-122.7 1767.06,-131.67 1777.07,-128.18 1772.71,-122.7"/>
</a>
</g>
</g>
<!-- Node34 -->
<g id="Node000034" class="node">
<title>Node34</title>
<g id="a_Node000034"><a xlink:href="_varona_8hh.html" target="_top" xlink:title=" ">
<polygon fill="white" stroke="#666666" points="1273.62,-97 1135.38,-97 1135.38,-66.5 1273.62,-66.5 1273.62,-97"/>
<text text-anchor="start" x="1143.38" y="-83.5" font-family="Helvetica,sans-Serif" font-size="10.00">include/Optimist/ScalarRoot</text>
<text text-anchor="middle" x="1204.5" y="-72.25" font-family="Helvetica,sans-Serif" font-size="10.00">Finder/Varona.hh</text>
</a>
</g>
</g>
<!-- Node27&#45;&gt;Node34 -->
<g id="edge33_Node000027_Node000034" class="edge">
<title>Node27&#45;&gt;Node34</title>
<g id="a_edge33_Node000027_Node000034"><a xlink:title=" ">
<path fill="none" stroke="#63b8ff" d="M1667,-132.89C1495.86,-110.12 1449.61,-120.01 1282.5,-97 1279.64,-96.61 1276.72,-96.18 1273.77,-95.73"/>
<polygon fill="#63b8ff" stroke="#63b8ff" points="1666.31,-136.33 1676.69,-134.2 1667.25,-129.39 1666.31,-136.33"/>
</a>
</g>
</g>
<!-- Node29 -->
<g id="Node000029" class="node">
<title>Node29</title>
<g id="a_Node000029"><a xlink:href="_algo748_8hh.html" target="_top" xlink:title=" ">
<polygon fill="white" stroke="#666666" points="1351.62,-30.5 1213.38,-30.5 1213.38,0 1351.62,0 1351.62,-30.5"/>
<text text-anchor="start" x="1221.38" y="-17" font-family="Helvetica,sans-Serif" font-size="10.00">include/Optimist/ScalarRoot</text>
<text text-anchor="middle" x="1282.5" y="-5.75" font-family="Helvetica,sans-Serif" font-size="10.00">Finder/Algo748.hh</text>
</a>
</g>
</g>
<!-- Node28&#45;&gt;Node29 -->
<g id="edge28_Node000028_Node000029" class="edge">
<title>Node28&#45;&gt;Node29</title>
<g id="a_edge28_Node000028_Node000029"><a xlink:title=" ">
<path fill="none" stroke="#63b8ff" d="M1334.22,-59.02C1322.99,-49.73 1310.19,-39.15 1300.13,-30.83"/>
<polygon fill="#63b8ff" stroke="#63b8ff" points="1331.7,-61.47 1341.63,-65.15 1336.16,-56.08 1331.7,-61.47"/>
</a>
</g>
</g>
<!-- Node30 -->
<g id="Node000030" class="node">
<title>Node30</title>
<g id="a_Node000030"><a xlink:href="_chandrupatla_8hh.html" target="_top" xlink:title=" ">
<polygon fill="white" stroke="#666666" points="1507.62,-30.5 1369.38,-30.5 1369.38,0 1507.62,0 1507.62,-30.5"/>
<text text-anchor="start" x="1377.38" y="-17" font-family="Helvetica,sans-Serif" font-size="10.00">include/Optimist/ScalarRoot</text>
<text text-anchor="middle" x="1438.5" y="-5.75" font-family="Helvetica,sans-Serif" font-size="10.00">Finder/Chandrupatla.hh</text>
</a>
</g>
</g>
<!-- Node28&#45;&gt;Node30 -->
<g id="edge29_Node000028_Node000030" class="edge">
<title>Node28&#45;&gt;Node30</title>
<g id="a_edge29_Node000028_Node000030"><a xlink:title=" ">
<path fill="none" stroke="#63b8ff" d="M1386.78,-59.02C1398.01,-49.73 1410.81,-39.15 1420.87,-30.83"/>
<polygon fill="#63b8ff" stroke="#63b8ff" points="1384.84,-56.08 1379.37,-65.15 1389.3,-61.47 1384.84,-56.08"/>
</a>
</g>
</g>
<!-- Node35&#45;&gt;Node4 -->
<g id="edge36_Node000035_Node000004" class="edge">
<title>Node35&#45;&gt;Node4</title>
<g id="a_edge36_Node000035_Node000004"><a xlink:title=" ">
<path fill="none" stroke="#63b8ff" d="M829.78,-205.91C805.9,-203.69 779.65,-201.37 755.5,-199.5 499.32,-179.66 433.99,-190.78 178.5,-163.5 175.46,-163.18 172.38,-162.82 169.26,-162.45"/>
<polygon fill="#63b8ff" stroke="#63b8ff" points="829.14,-209.37 839.42,-206.82 829.79,-202.4 829.14,-209.37"/>
</a>
</g>
</g>
<!-- Node35&#45;&gt;Node5 -->
<g id="edge37_Node000035_Node000005" class="edge">
<title>Node35&#45;&gt;Node5</title>
<g id="a_edge37_Node000035_Node000005"><a xlink:title=" ">
<path fill="none" stroke="#63b8ff" d="M829.75,-206.26C805.87,-204.05 779.63,-201.64 755.5,-199.5 567.56,-182.81 519.49,-188.7 332.5,-163.5 329.67,-163.12 326.79,-162.7 323.88,-162.26"/>
<polygon fill="#63b8ff" stroke="#63b8ff" points="829.11,-209.71 839.39,-207.15 829.76,-202.74 829.11,-209.71"/>
</a>
</g>
</g>
<!-- Node35&#45;&gt;Node7 -->
<g id="edge38_Node000035_Node000007" class="edge">
<title>Node35&#45;&gt;Node7</title>
<g id="a_edge38_Node000035_Node000007"><a xlink:title=" ">
<path fill="none" stroke="#63b8ff" d="M954.53,-201.7C994.52,-190.99 1053.08,-175.32 1095.77,-163.9"/>
<polygon fill="#63b8ff" stroke="#63b8ff" points="953.74,-198.29 944.98,-204.25 955.55,-205.05 953.74,-198.29"/>
</a>
</g>
</g>
<!-- Node35&#45;&gt;Node8 -->
<g id="edge39_Node000035_Node000008" class="edge">
<title>Node35&#45;&gt;Node8</title>
<g id="a_edge39_Node000035_Node000008"><a xlink:title=" ">
<path fill="none" stroke="#63b8ff" d="M981.36,-202.98C1044.69,-193.29 1139.37,-178.35 1221.5,-163.5 1224.35,-162.99 1227.25,-162.45 1230.19,-161.9"/>
<polygon fill="#63b8ff" stroke="#63b8ff" points="981.16,-199.47 971.8,-204.44 982.21,-206.39 981.16,-199.47"/>
</a>
</g>
</g>
<!-- Node35&#45;&gt;Node9 -->
<g id="edge40_Node000035_Node000009" class="edge">
<title>Node35&#45;&gt;Node9</title>
<g id="a_edge40_Node000035_Node000009"><a xlink:title=" ">
<path fill="none" stroke="#63b8ff" d="M989.51,-206.97C1080.42,-198.79 1233.09,-183.58 1363.5,-163.5 1366.27,-163.07 1369.1,-162.61 1371.95,-162.13"/>
<polygon fill="#63b8ff" stroke="#63b8ff" points="989.35,-203.47 979.7,-207.85 989.97,-210.44 989.35,-203.47"/>
</a>
</g>
</g>
<!-- Node35&#45;&gt;Node10 -->
<g id="edge41_Node000035_Node000010" class="edge">
<title>Node35&#45;&gt;Node10</title>
<g id="a_edge41_Node000035_Node000010"><a xlink:title=" ">
<path fill="none" stroke="#63b8ff" d="M989.45,-206.95C1017.32,-204.59 1048.79,-201.92 1077.5,-199.5 1268.6,-183.4 1317.31,-188.14 1507.5,-163.5 1510.62,-163.1 1513.79,-162.66 1517,-162.19"/>
<polygon fill="#63b8ff" stroke="#63b8ff" points="989.33,-203.45 979.67,-207.78 989.93,-210.42 989.33,-203.45"/>
</a>
</g>
</g>
<!-- Node35&#45;&gt;Node11 -->
<g id="edge42_Node000035_Node000011" class="edge">
<title>Node35&#45;&gt;Node11</title>
<g id="a_edge42_Node000035_Node000011"><a xlink:title=" ">
<path fill="none" stroke="#63b8ff" d="M897.77,-195.3C891.37,-185.23 883.56,-172.94 877.62,-163.59"/>
<polygon fill="#63b8ff" stroke="#63b8ff" points="894.67,-196.94 902.99,-203.5 900.58,-193.19 894.67,-196.94"/>
</a>
</g>
</g>
<!-- Node35&#45;&gt;Node12 -->
<g id="edge43_Node000035_Node000012" class="edge">
<title>Node35&#45;&gt;Node12</title>
<g id="a_edge43_Node000035_Node000012"><a xlink:title=" ">
<path fill="none" stroke="#63b8ff" d="M932.76,-198.75C949.06,-188.24 970.72,-174.26 986.88,-163.84"/>
<polygon fill="#63b8ff" stroke="#63b8ff" points="931.18,-195.6 924.68,-203.96 934.98,-201.48 931.18,-195.6"/>
</a>
</g>
</g>
<!-- Node35&#45;&gt;Node14 -->
<g id="edge44_Node000035_Node000014" class="edge">
<title>Node35&#45;&gt;Node14</title>
<g id="a_edge44_Node000035_Node000014"><a xlink:title=" ">
<path fill="none" stroke="#63b8ff" d="M872.94,-200.93C842.49,-190.26 799.11,-175.05 767.29,-163.9"/>
<polygon fill="#63b8ff" stroke="#63b8ff" points="871.5,-204.14 882.1,-204.14 873.82,-197.53 871.5,-204.14"/>
</a>
</g>
</g>
<!-- Node35&#45;&gt;Node15 -->
<g id="edge45_Node000035_Node000015" class="edge">
<title>Node35&#45;&gt;Node15</title>
<g id="a_edge45_Node000035_Node000015"><a xlink:title=" ">
<path fill="none" stroke="#63b8ff" d="M829.65,-206.17C743.31,-197.57 601.78,-182.25 480.5,-163.5 477.53,-163.04 474.49,-162.55 471.43,-162.03"/>
<polygon fill="#63b8ff" stroke="#63b8ff" points="829.13,-209.64 839.43,-207.14 829.82,-202.67 829.13,-209.64"/>
</a>
</g>
</g>
<!-- Node35&#45;&gt;Node16 -->
<g id="edge46_Node000035_Node000016" class="edge">
<title>Node35&#45;&gt;Node16</title>
<g id="a_edge46_Node000035_Node000016"><a xlink:title=" ">
<path fill="none" stroke="#63b8ff" d="M850.06,-202.57C792.91,-191.83 706.22,-175.52 643.75,-163.78"/>
<polygon fill="#63b8ff" stroke="#63b8ff" points="849.12,-205.96 859.6,-204.37 850.42,-199.08 849.12,-205.96"/>
</a>
</g>
</g>
</g>
</svg>
