<?xml version="1.0" encoding="UTF-8" standalone="no"?>
<!DOCTYPE svg PUBLIC "-//W3C//DTD SVG 1.1//EN"
 "http://www.w3.org/Graphics/SVG/1.1/DTD/svg11.dtd">
<!-- Generated by graphviz version 12.2.1 (20241206.2353)
 -->
<!-- Title: include/Optimist.hh Pages: 1 -->
<svg width="1729pt" height="94pt"
 viewBox="0.00 0.00 1729.12 93.75" xmlns="http://www.w3.org/2000/svg" xmlns:xlink="http://www.w3.org/1999/xlink">
<g id="graph0" class="graph" transform="scale(1 1) rotate(0) translate(4 89.75)">
<title>include/Optimist.hh</title>
<!-- Node1 -->
<g id="Node000001" class="node">
<title>Node1</title>
<g id="a_Node000001"><a xlink:title=" ">
<polygon fill="#999999" stroke="#666666" points="576.75,-85.75 476.75,-85.75 476.75,-66.5 576.75,-66.5 576.75,-85.75"/>
<text text-anchor="middle" x="526.75" y="-72.25" font-family="Helvetica,sans-Serif" font-size="10.00">include/Optimist.hh</text>
</a>
</g>
</g>
<!-- Node2 -->
<g id="Node000002" class="node">
<title>Node2</title>
<g id="a_Node000002"><a xlink:title=" ">
<polygon fill="#e0e0e0" stroke="#999999" points="53.5,-24.88 0,-24.88 0,-5.63 53.5,-5.63 53.5,-24.88"/>
<text text-anchor="middle" x="26.75" y="-11.38" font-family="Helvetica,sans-Serif" font-size="10.00">iostream</text>
</a>
</g>
</g>
<!-- Node1&#45;&gt;Node2 -->
<g id="edge1_Node000001_Node000002" class="edge">
<title>Node1&#45;&gt;Node2</title>
<g id="a_edge1_Node000001_Node000002"><a xlink:title=" ">
<path fill="none" stroke="#63b8ff" d="M476.55,-74.88C390.6,-73.46 210.27,-66.04 62.75,-30.5 60.99,-30.08 59.21,-29.58 57.42,-29.04"/>
<polygon fill="#63b8ff" stroke="#63b8ff" points="58.63,-25.76 48.04,-25.76 56.32,-32.37 58.63,-25.76"/>
</a>
</g>
</g>
<!-- Node3 -->
<g id="Node000003" class="node">
<title>Node3</title>
<g id="a_Node000003"><a xlink:title=" ">
<polygon fill="#e0e0e0" stroke="#999999" points="111.75,-24.88 71.75,-24.88 71.75,-5.63 111.75,-5.63 111.75,-24.88"/>
<text text-anchor="middle" x="91.75" y="-11.38" font-family="Helvetica,sans-Serif" font-size="10.00">string</text>
</a>
</g>
</g>
<!-- Node1&#45;&gt;Node3 -->
<g id="edge2_Node000001_Node000003" class="edge">
<title>Node1&#45;&gt;Node3</title>
<g id="a_edge2_Node000001_Node000003"><a xlink:title=" ">
<path fill="none" stroke="#63b8ff" d="M476.29,-75.14C398.44,-73.94 245.01,-66.65 120.75,-30.5 119.78,-30.22 118.81,-29.91 117.84,-29.57"/>
<polygon fill="#63b8ff" stroke="#63b8ff" points="119.58,-26.51 109,-25.86 116.86,-32.96 119.58,-26.51"/>
</a>
</g>
</g>
<!-- Node4 -->
<g id="Node000004" class="node">
<title>Node4</title>
<g id="a_Node000004"><a xlink:title=" ">
<polygon fill="#e0e0e0" stroke="#999999" points="173.25,-24.88 130.25,-24.88 130.25,-5.63 173.25,-5.63 173.25,-24.88"/>
<text text-anchor="middle" x="151.75" y="-11.38" font-family="Helvetica,sans-Serif" font-size="10.00">cmath</text>
</a>
</g>
</g>
<!-- Node1&#45;&gt;Node4 -->
<g id="edge3_Node000001_Node000004" class="edge">
<title>Node1&#45;&gt;Node4</title>
<g id="a_edge3_Node000001_Node000004"><a xlink:title=" ">
<path fill="none" stroke="#63b8ff" d="M476.32,-73.55C408.2,-70.31 283.58,-60.45 181.75,-30.5 180.78,-30.22 179.81,-29.9 178.83,-29.57"/>
<polygon fill="#63b8ff" stroke="#63b8ff" points="180.5,-26.47 169.92,-25.92 177.85,-32.95 180.5,-26.47"/>
</a>
</g>
</g>
<!-- Node5 -->
<g id="Node000005" class="node">
<title>Node5</title>
<g id="a_Node000005"><a xlink:title=" ">
<polygon fill="#e0e0e0" stroke="#999999" points="234.25,-24.88 191.25,-24.88 191.25,-5.63 234.25,-5.63 234.25,-24.88"/>
<text text-anchor="middle" x="212.75" y="-11.38" font-family="Helvetica,sans-Serif" font-size="10.00">vector</text>
</a>
</g>
</g>
<!-- Node1&#45;&gt;Node5 -->
<g id="edge4_Node000001_Node000005" class="edge">
<title>Node1&#45;&gt;Node5</title>
<g id="a_edge4_Node000001_Node000005"><a xlink:title=" ">
<path fill="none" stroke="#63b8ff" d="M476.49,-71.39C419.18,-66.17 323.14,-54.51 243.75,-30.5 242.76,-30.2 241.76,-29.87 240.75,-29.53"/>
<polygon fill="#63b8ff" stroke="#63b8ff" points="242.12,-26.3 231.53,-25.82 239.5,-32.8 242.12,-26.3"/>
</a>
</g>
</g>
<!-- Node6 -->
<g id="Node000006" class="node">
<title>Node6</title>
<g id="a_Node000006"><a xlink:title=" ">
<polygon fill="#e0e0e0" stroke="#999999" points="287.12,-24.88 252.38,-24.88 252.38,-5.63 287.12,-5.63 287.12,-24.88"/>
<text text-anchor="middle" x="269.75" y="-11.38" font-family="Helvetica,sans-Serif" font-size="10.00">map</text>
</a>
</g>
</g>
<!-- Node1&#45;&gt;Node6 -->
<g id="edge5_Node000001_Node000006" class="edge">
<title>Node1&#45;&gt;Node6</title>
<g id="a_edge5_Node000001_Node000006"><a xlink:title=" ">
<path fill="none" stroke="#63b8ff" d="M476.44,-69.97C428.82,-64.03 355.88,-52.18 295.75,-30.5 295.4,-30.37 295.04,-30.24 294.69,-30.1"/>
<polygon fill="#63b8ff" stroke="#63b8ff" points="296.42,-27.05 285.87,-26 293.46,-33.4 296.42,-27.05"/>
</a>
</g>
</g>
<!-- Node7 -->
<g id="Node000007" class="node">
<title>Node7</title>
<g id="a_Node000007"><a xlink:title=" ">
<polygon fill="#e0e0e0" stroke="#999999" points="356.38,-24.88 305.12,-24.88 305.12,-5.63 356.38,-5.63 356.38,-24.88"/>
<text text-anchor="middle" x="330.75" y="-11.38" font-family="Helvetica,sans-Serif" font-size="10.00">memory</text>
</a>
</g>
</g>
<!-- Node1&#45;&gt;Node7 -->
<g id="edge6_Node000001_Node000007" class="edge">
<title>Node1&#45;&gt;Node7</title>
<g id="a_edge6_Node000001_Node000007"><a xlink:title=" ">
<path fill="none" stroke="#63b8ff" d="M488.36,-66.03C455.26,-57.83 406.38,-44.89 364.75,-30.5 363.77,-30.16 362.78,-29.81 361.78,-29.45"/>
<polygon fill="#63b8ff" stroke="#63b8ff" points="363.08,-26.2 352.49,-25.82 360.54,-32.72 363.08,-26.2"/>
</a>
</g>
</g>
<!-- Node8 -->
<g id="Node000008" class="node">
<title>Node8</title>
<g id="a_Node000008"><a xlink:title=" ">
<polygon fill="#e0e0e0" stroke="#999999" points="419.38,-24.88 374.12,-24.88 374.12,-5.63 419.38,-5.63 419.38,-24.88"/>
<text text-anchor="middle" x="396.75" y="-11.38" font-family="Helvetica,sans-Serif" font-size="10.00">chrono</text>
</a>
</g>
</g>
<!-- Node1&#45;&gt;Node8 -->
<g id="edge7_Node000001_Node000008" class="edge">
<title>Node1&#45;&gt;Node8</title>
<g id="a_edge7_Node000001_Node000008"><a xlink:title=" ">
<path fill="none" stroke="#63b8ff" d="M506.72,-66.05C485.38,-56.39 451.35,-40.98 426.79,-29.86"/>
<polygon fill="#63b8ff" stroke="#63b8ff" points="428.52,-26.8 417.97,-25.86 425.63,-33.17 428.52,-26.8"/>
</a>
</g>
</g>
<!-- Node9 -->
<g id="Node000009" class="node">
<title>Node9</title>
<g id="a_Node000009"><a xlink:title=" ">
<polygon fill="#e0e0e0" stroke="#999999" points="509.88,-24.88 437.62,-24.88 437.62,-5.63 509.88,-5.63 509.88,-24.88"/>
<text text-anchor="middle" x="473.75" y="-11.38" font-family="Helvetica,sans-Serif" font-size="10.00">Eigen/Dense</text>
</a>
</g>
</g>
<!-- Node1&#45;&gt;Node9 -->
<g id="edge8_Node000001_Node000009" class="edge">
<title>Node1&#45;&gt;Node9</title>
<g id="a_edge8_Node000001_Node000009"><a xlink:title=" ">
<path fill="none" stroke="#63b8ff" d="M518.7,-66.18C511,-57.62 499.16,-44.48 489.57,-33.82"/>
<polygon fill="#63b8ff" stroke="#63b8ff" points="492.18,-31.49 482.89,-26.4 486.98,-36.17 492.18,-31.49"/>
</a>
</g>
</g>
<!-- Node10 -->
<g id="Node000010" class="node">
<title>Node10</title>
<g id="a_Node000010"><a xlink:href="_tic_toc_8hxx.html" target="_top" xlink:title=" ">
<polygon fill="white" stroke="#666666" points="631.62,-24.88 527.88,-24.88 527.88,-5.63 631.62,-5.63 631.62,-24.88"/>
<text text-anchor="middle" x="579.75" y="-11.38" font-family="Helvetica,sans-Serif" font-size="10.00">Optimist/TicToc.hxx</text>
</a>
</g>
</g>
<!-- Node1&#45;&gt;Node10 -->
<g id="edge9_Node000001_Node000010" class="edge">
<title>Node1&#45;&gt;Node10</title>
<g id="a_edge9_Node000001_Node000010"><a xlink:title=" ">
<path fill="none" stroke="#63b8ff" d="M534.8,-66.18C542.5,-57.62 554.34,-44.48 563.93,-33.82"/>
<polygon fill="#63b8ff" stroke="#63b8ff" points="566.52,-36.17 570.61,-26.4 561.32,-31.49 566.52,-36.17"/>
</a>
</g>
</g>
<!-- Node11 -->
<g id="Node000011" class="node">
<title>Node11</title>
<g id="a_Node000011"><a xlink:href="_nonlinear_solver_8hxx.html" target="_top" xlink:title=" ">
<polygon fill="white" stroke="#666666" points="774.12,-30.5 649.38,-30.5 649.38,0 774.12,0 774.12,-30.5"/>
<text text-anchor="start" x="657.38" y="-17" font-family="Helvetica,sans-Serif" font-size="10.00">Optimist/NonlinearSolver</text>
<text text-anchor="middle" x="711.75" y="-5.75" font-family="Helvetica,sans-Serif" font-size="10.00">/NonlinearSolver.hxx</text>
</a>
</g>
</g>
<!-- Node1&#45;&gt;Node11 -->
<g id="edge10_Node000001_Node000011" class="edge">
<title>Node1&#45;&gt;Node11</title>
<g id="a_edge10_Node000001_Node000011"><a xlink:title=" ">
<path fill="none" stroke="#63b8ff" d="M555.25,-66.05C581.66,-57.65 621.72,-44.9 654.69,-34.41"/>
<polygon fill="#63b8ff" stroke="#63b8ff" points="655.67,-37.77 664.13,-31.4 653.54,-31.1 655.67,-37.77"/>
</a>
</g>
</g>
<!-- Node12 -->
<g id="Node000012" class="node">
<title>Node12</title>
<g id="a_Node000012"><a xlink:href="_newton_8hxx.html" target="_top" xlink:title=" ">
<polygon fill="white" stroke="#666666" points="917.12,-30.5 792.38,-30.5 792.38,0 917.12,0 917.12,-30.5"/>
<text text-anchor="start" x="800.38" y="-17" font-family="Helvetica,sans-Serif" font-size="10.00">Optimist/NonlinearSolver</text>
<text text-anchor="middle" x="854.75" y="-5.75" font-family="Helvetica,sans-Serif" font-size="10.00">/Newton.hxx</text>
</a>
</g>
</g>
<!-- Node1&#45;&gt;Node12 -->
<g id="edge11_Node000001_Node000012" class="edge">
<title>Node1&#45;&gt;Node12</title>
<g id="a_edge11_Node000001_Node000012"><a xlink:title=" ">
<path fill="none" stroke="#63b8ff" d="M576.85,-66.74C626.18,-58.4 703.96,-45.06 781.07,-30.79"/>
<polygon fill="#63b8ff" stroke="#63b8ff" points="781.26,-34.31 790.45,-29.05 779.98,-27.43 781.26,-34.31"/>
</a>
</g>
</g>
<!-- Node13 -->
<g id="Node000013" class="node">
<title>Node13</title>
<g id="a_Node000013"><a xlink:href="_broyden_8hxx.html" target="_top" xlink:title=" ">
<polygon fill="white" stroke="#666666" points="1060.12,-30.5 935.38,-30.5 935.38,0 1060.12,0 1060.12,-30.5"/>
<text text-anchor="start" x="943.38" y="-17" font-family="Helvetica,sans-Serif" font-size="10.00">Optimist/NonlinearSolver</text>
<text text-anchor="middle" x="997.75" y="-5.75" font-family="Helvetica,sans-Serif" font-size="10.00">/Broyden.hxx</text>
</a>
</g>
</g>
<!-- Node1&#45;&gt;Node13 -->
<g id="edge12_Node000001_Node000013" class="edge">
<title>Node1&#45;&gt;Node13</title>
<g id="a_edge12_Node000001_Node000013"><a xlink:title=" ">
<path fill="none" stroke="#63b8ff" d="M577,-70.87C650.76,-64.33 792.85,-50.58 923.95,-30.69"/>
<polygon fill="#63b8ff" stroke="#63b8ff" points="924.13,-34.2 933.48,-29.23 923.07,-27.28 924.13,-34.2"/>
</a>
</g>
</g>
<!-- Node14 -->
<g id="Node000014" class="node">
<title>Node14</title>
<g id="a_Node000014"><a xlink:title=" ">
<polygon fill="#e0e0e0" stroke="#999999" points="1221.12,-24.88 1078.38,-24.88 1078.38,-5.63 1221.12,-5.63 1221.12,-24.88"/>
<text text-anchor="middle" x="1149.75" y="-11.38" font-family="Helvetica,sans-Serif" font-size="10.00">Optimist/System/Implicit.hxx</text>
</a>
</g>
</g>
<!-- Node1&#45;&gt;Node14 -->
<g id="edge13_Node000001_Node000014" class="edge">
<title>Node1&#45;&gt;Node14</title>
<g id="a_edge13_Node000001_Node000014"><a xlink:title=" ">
<path fill="none" stroke="#63b8ff" d="M576.98,-72.54C672.86,-67.26 888.49,-53.73 1068.75,-30.5 1075.99,-29.57 1083.57,-28.44 1091.07,-27.23"/>
<polygon fill="#63b8ff" stroke="#63b8ff" points="1091.54,-30.7 1100.83,-25.6 1090.39,-23.79 1091.54,-30.7"/>
</a>
</g>
</g>
<!-- Node15 -->
<g id="Node000015" class="node">
<title>Node15</title>
<g id="a_Node000015"><a xlink:title=" ">
<polygon fill="#e0e0e0" stroke="#999999" points="1382.5,-24.88 1239,-24.88 1239,-5.63 1382.5,-5.63 1382.5,-24.88"/>
<text text-anchor="middle" x="1310.75" y="-11.38" font-family="Helvetica,sans-Serif" font-size="10.00">Optimist/System/Explicit.hxx</text>
</a>
</g>
</g>
<!-- Node1&#45;&gt;Node15 -->
<g id="edge14_Node000001_Node000015" class="edge">
<title>Node1&#45;&gt;Node15</title>
<g id="a_edge14_Node000001_Node000015"><a xlink:title=" ">
<path fill="none" stroke="#63b8ff" d="M577.22,-73.84C692.96,-70.47 986.28,-59.55 1229.75,-30.5 1237.28,-29.6 1245.16,-28.46 1252.94,-27.22"/>
<polygon fill="#63b8ff" stroke="#63b8ff" points="1253.41,-30.69 1262.7,-25.6 1252.26,-23.79 1253.41,-30.69"/>
</a>
</g>
</g>
<!-- Node16 -->
<g id="Node000016" class="node">
<title>Node16</title>
<g id="a_Node000016"><a xlink:title=" ">
<polygon fill="#e0e0e0" stroke="#999999" points="1566.75,-24.88 1400.75,-24.88 1400.75,-5.63 1566.75,-5.63 1566.75,-24.88"/>
<text text-anchor="middle" x="1483.75" y="-11.38" font-family="Helvetica,sans-Serif" font-size="10.00">Optimist/System/SemiExplicit.hxx</text>
</a>
</g>
</g>
<!-- Node1&#45;&gt;Node16 -->
<g id="edge15_Node000001_Node000016" class="edge">
<title>Node1&#45;&gt;Node16</title>
<g id="a_edge15_Node000001_Node000016"><a xlink:title=" ">
<path fill="none" stroke="#63b8ff" d="M577.1,-74.32C710.37,-71.81 1083.24,-62.27 1391.75,-30.5 1400.89,-29.56 1410.52,-28.33 1419.95,-26.99"/>
<polygon fill="#63b8ff" stroke="#63b8ff" points="1420.45,-30.46 1429.83,-25.54 1419.43,-23.53 1420.45,-30.46"/>
</a>
</g>
</g>
<!-- Node17 -->
<g id="Node000017" class="node">
<title>Node17</title>
<g id="a_Node000017"><a xlink:title=" ">
<polygon fill="#e0e0e0" stroke="#999999" points="1721.12,-24.88 1584.38,-24.88 1584.38,-5.63 1721.12,-5.63 1721.12,-24.88"/>
<text text-anchor="middle" x="1652.75" y="-11.38" font-family="Helvetica,sans-Serif" font-size="10.00">Optimist/System/Linear.hxx</text>
</a>
</g>
</g>
<!-- Node1&#45;&gt;Node17 -->
<g id="edge16_Node000001_Node000017" class="edge">
<title>Node1&#45;&gt;Node17</title>
<g id="a_edge16_Node000001_Node000017"><a xlink:title=" ">
<path fill="none" stroke="#63b8ff" d="M577.17,-75.48C728.77,-76.03 1193.58,-73.78 1575.75,-30.5 1583.19,-29.66 1591,-28.52 1598.67,-27.25"/>
<polygon fill="#63b8ff" stroke="#63b8ff" points="1599,-30.74 1608.25,-25.57 1597.8,-23.85 1599,-30.74"/>
</a>
</g>
</g>
</g>
</svg>
