<?xml version="1.0" encoding="UTF-8" standalone="no"?>
<!DOCTYPE svg PUBLIC "-//W3C//DTD SVG 1.1//EN"
 "http://www.w3.org/Graphics/SVG/1.1/DTD/svg11.dtd">
<!-- Generated by graphviz version 12.2.1 (20241206.2353)
 -->
<!-- Title: include/Optimist.hh Pages: 1 -->
<svg width="1996pt" height="94pt"
 viewBox="0.00 0.00 1995.75 93.75" xmlns="http://www.w3.org/2000/svg" xmlns:xlink="http://www.w3.org/1999/xlink">
<g id="graph0" class="graph" transform="scale(1 1) rotate(0) translate(4 89.75)">
<title>include/Optimist.hh</title>
<!-- Node1 -->
<g id="Node000001" class="node">
<title>Node1</title>
<g id="a_Node000001"><a xlink:title=" ">
<polygon fill="#999999" stroke="#666666" points="689.75,-85.75 589.75,-85.75 589.75,-66.5 689.75,-66.5 689.75,-85.75"/>
<text text-anchor="middle" x="639.75" y="-72.25" font-family="Helvetica,sans-Serif" font-size="10.00">include/Optimist.hh</text>
</a>
</g>
</g>
<!-- Node2 -->
<g id="Node000002" class="node">
<title>Node2</title>
<g id="a_Node000002"><a xlink:title=" ">
<polygon fill="#e0e0e0" stroke="#999999" points="53.5,-24.88 0,-24.88 0,-5.63 53.5,-5.63 53.5,-24.88"/>
<text text-anchor="middle" x="26.75" y="-11.38" font-family="Helvetica,sans-Serif" font-size="10.00">iostream</text>
</a>
</g>
</g>
<!-- Node1&#45;&gt;Node2 -->
<g id="edge1_Node000001_Node000002" class="edge">
<title>Node1&#45;&gt;Node2</title>
<g id="a_edge1_Node000001_Node000002"><a xlink:title=" ">
<path fill="none" stroke="#63b8ff" d="M589.47,-73.17C468.21,-68.14 162.36,-53.51 62.75,-30.5 60.99,-30.09 59.2,-29.61 57.41,-29.08"/>
<polygon fill="#63b8ff" stroke="#63b8ff" points="58.62,-25.8 48.02,-25.83 56.32,-32.41 58.62,-25.8"/>
</a>
</g>
</g>
<!-- Node3 -->
<g id="Node000003" class="node">
<title>Node3</title>
<g id="a_Node000003"><a xlink:title=" ">
<polygon fill="#e0e0e0" stroke="#999999" points="100.15,-24.88 71.35,-24.88 71.35,-5.63 100.15,-5.63 100.15,-24.88"/>
<text text-anchor="middle" x="85.75" y="-11.38" font-family="Helvetica,sans-Serif" font-size="10.00">ios</text>
</a>
</g>
</g>
<!-- Node1&#45;&gt;Node3 -->
<g id="edge2_Node000001_Node000003" class="edge">
<title>Node1&#45;&gt;Node3</title>
<g id="a_edge2_Node000001_Node000003"><a xlink:title=" ">
<path fill="none" stroke="#63b8ff" d="M589.4,-73.88C474.72,-70.58 197.14,-59.72 108.75,-30.5 108.52,-30.42 108.28,-30.34 108.05,-30.26"/>
<polygon fill="#63b8ff" stroke="#63b8ff" points="109.74,-27.19 99.23,-25.9 106.64,-33.47 109.74,-27.19"/>
</a>
</g>
</g>
<!-- Node4 -->
<g id="Node000004" class="node">
<title>Node4</title>
<g id="a_Node000004"><a xlink:title=" ">
<polygon fill="#e0e0e0" stroke="#999999" points="167.62,-24.88 117.88,-24.88 117.88,-5.63 167.62,-5.63 167.62,-24.88"/>
<text text-anchor="middle" x="142.75" y="-11.38" font-family="Helvetica,sans-Serif" font-size="10.00">iomanip</text>
</a>
</g>
</g>
<!-- Node1&#45;&gt;Node4 -->
<g id="edge3_Node000001_Node000004" class="edge">
<title>Node1&#45;&gt;Node4</title>
<g id="a_edge3_Node000001_Node000004"><a xlink:title=" ">
<path fill="none" stroke="#63b8ff" d="M589.58,-75.19C503.7,-74.21 323.59,-67.44 176.75,-30.5 175.16,-30.1 173.55,-29.64 171.93,-29.13"/>
<polygon fill="#63b8ff" stroke="#63b8ff" points="173.48,-25.97 162.89,-25.8 171.06,-32.54 173.48,-25.97"/>
</a>
</g>
</g>
<!-- Node5 -->
<g id="Node000005" class="node">
<title>Node5</title>
<g id="a_Node000005"><a xlink:title=" ">
<polygon fill="#e0e0e0" stroke="#999999" points="225.75,-24.88 185.75,-24.88 185.75,-5.63 225.75,-5.63 225.75,-24.88"/>
<text text-anchor="middle" x="205.75" y="-11.38" font-family="Helvetica,sans-Serif" font-size="10.00">string</text>
</a>
</g>
</g>
<!-- Node1&#45;&gt;Node5 -->
<g id="edge4_Node000001_Node000005" class="edge">
<title>Node1&#45;&gt;Node5</title>
<g id="a_edge4_Node000001_Node000005"><a xlink:title=" ">
<path fill="none" stroke="#63b8ff" d="M589.42,-75.12C511.75,-73.9 358.7,-66.58 234.75,-30.5 233.78,-30.22 232.81,-29.91 231.84,-29.57"/>
<polygon fill="#63b8ff" stroke="#63b8ff" points="233.58,-26.51 223,-25.86 230.86,-32.96 233.58,-26.51"/>
</a>
</g>
</g>
<!-- Node6 -->
<g id="Node000006" class="node">
<title>Node6</title>
<g id="a_Node000006"><a xlink:title=" ">
<polygon fill="#e0e0e0" stroke="#999999" points="287.25,-24.88 244.25,-24.88 244.25,-5.63 287.25,-5.63 287.25,-24.88"/>
<text text-anchor="middle" x="265.75" y="-11.38" font-family="Helvetica,sans-Serif" font-size="10.00">cmath</text>
</a>
</g>
</g>
<!-- Node1&#45;&gt;Node6 -->
<g id="edge5_Node000001_Node000006" class="edge">
<title>Node1&#45;&gt;Node6</title>
<g id="a_edge5_Node000001_Node000006"><a xlink:title=" ">
<path fill="none" stroke="#63b8ff" d="M589.46,-73.53C521.54,-70.27 397.29,-60.38 295.75,-30.5 294.78,-30.22 293.81,-29.9 292.83,-29.57"/>
<polygon fill="#63b8ff" stroke="#63b8ff" points="294.5,-26.47 283.92,-25.92 291.85,-32.95 294.5,-26.47"/>
</a>
</g>
</g>
<!-- Node7 -->
<g id="Node000007" class="node">
<title>Node7</title>
<g id="a_Node000007"><a xlink:title=" ">
<polygon fill="#e0e0e0" stroke="#999999" points="348.25,-24.88 305.25,-24.88 305.25,-5.63 348.25,-5.63 348.25,-24.88"/>
<text text-anchor="middle" x="326.75" y="-11.38" font-family="Helvetica,sans-Serif" font-size="10.00">vector</text>
</a>
</g>
</g>
<!-- Node1&#45;&gt;Node7 -->
<g id="edge6_Node000001_Node000007" class="edge">
<title>Node1&#45;&gt;Node7</title>
<g id="a_edge6_Node000001_Node000007"><a xlink:title=" ">
<path fill="none" stroke="#63b8ff" d="M589.41,-71.34C532.27,-66.09 436.74,-54.41 357.75,-30.5 356.76,-30.2 355.76,-29.87 354.75,-29.53"/>
<polygon fill="#63b8ff" stroke="#63b8ff" points="356.12,-26.3 345.53,-25.81 353.5,-32.8 356.12,-26.3"/>
</a>
</g>
</g>
<!-- Node8 -->
<g id="Node000008" class="node">
<title>Node8</title>
<g id="a_Node000008"><a xlink:title=" ">
<polygon fill="#e0e0e0" stroke="#999999" points="401.12,-24.88 366.38,-24.88 366.38,-5.63 401.12,-5.63 401.12,-24.88"/>
<text text-anchor="middle" x="383.75" y="-11.38" font-family="Helvetica,sans-Serif" font-size="10.00">map</text>
</a>
</g>
</g>
<!-- Node1&#45;&gt;Node8 -->
<g id="edge7_Node000001_Node000008" class="edge">
<title>Node1&#45;&gt;Node8</title>
<g id="a_edge7_Node000001_Node000008"><a xlink:title=" ">
<path fill="none" stroke="#63b8ff" d="M589.66,-69.94C542.25,-63.98 469.62,-52.12 409.75,-30.5 409.4,-30.37 409.04,-30.24 408.69,-30.1"/>
<polygon fill="#63b8ff" stroke="#63b8ff" points="410.42,-27.05 399.87,-26 407.46,-33.39 410.42,-27.05"/>
</a>
</g>
</g>
<!-- Node9 -->
<g id="Node000009" class="node">
<title>Node9</title>
<g id="a_Node000009"><a xlink:title=" ">
<polygon fill="#e0e0e0" stroke="#999999" points="470.38,-24.88 419.12,-24.88 419.12,-5.63 470.38,-5.63 470.38,-24.88"/>
<text text-anchor="middle" x="444.75" y="-11.38" font-family="Helvetica,sans-Serif" font-size="10.00">memory</text>
</a>
</g>
</g>
<!-- Node1&#45;&gt;Node9 -->
<g id="edge8_Node000001_Node000009" class="edge">
<title>Node1&#45;&gt;Node9</title>
<g id="a_edge8_Node000001_Node000009"><a xlink:title=" ">
<path fill="none" stroke="#63b8ff" d="M601.6,-66C568.71,-57.79 520.13,-44.84 478.75,-30.5 477.77,-30.16 476.78,-29.81 475.78,-29.44"/>
<polygon fill="#63b8ff" stroke="#63b8ff" points="477.08,-26.19 466.49,-25.82 474.54,-32.71 477.08,-26.19"/>
</a>
</g>
</g>
<!-- Node10 -->
<g id="Node000010" class="node">
<title>Node10</title>
<g id="a_Node000010"><a xlink:title=" ">
<polygon fill="#e0e0e0" stroke="#999999" points="533.38,-24.88 488.12,-24.88 488.12,-5.63 533.38,-5.63 533.38,-24.88"/>
<text text-anchor="middle" x="510.75" y="-11.38" font-family="Helvetica,sans-Serif" font-size="10.00">chrono</text>
</a>
</g>
</g>
<!-- Node1&#45;&gt;Node10 -->
<g id="edge9_Node000001_Node000010" class="edge">
<title>Node1&#45;&gt;Node10</title>
<g id="a_edge9_Node000001_Node000010"><a xlink:title=" ">
<path fill="none" stroke="#63b8ff" d="M619.88,-66.05C598.79,-56.43 565.23,-41.12 540.89,-30.01"/>
<polygon fill="#63b8ff" stroke="#63b8ff" points="542.36,-26.83 531.81,-25.86 539.46,-33.2 542.36,-26.83"/>
</a>
</g>
</g>
<!-- Node11 -->
<g id="Node000011" class="node">
<title>Node11</title>
<g id="a_Node000011"><a xlink:title=" ">
<polygon fill="#e0e0e0" stroke="#999999" points="623.88,-24.88 551.62,-24.88 551.62,-5.63 623.88,-5.63 623.88,-24.88"/>
<text text-anchor="middle" x="587.75" y="-11.38" font-family="Helvetica,sans-Serif" font-size="10.00">Eigen/Dense</text>
</a>
</g>
</g>
<!-- Node1&#45;&gt;Node11 -->
<g id="edge10_Node000001_Node000011" class="edge">
<title>Node1&#45;&gt;Node11</title>
<g id="a_edge10_Node000001_Node000011"><a xlink:title=" ">
<path fill="none" stroke="#63b8ff" d="M631.85,-66.18C624.29,-57.62 612.68,-44.48 603.27,-33.82"/>
<polygon fill="#63b8ff" stroke="#63b8ff" points="605.97,-31.59 596.72,-26.41 600.72,-36.22 605.97,-31.59"/>
</a>
</g>
</g>
<!-- Node12 -->
<g id="Node000012" class="node">
<title>Node12</title>
<g id="a_Node000012"><a xlink:href="_solver_8hxx.html" target="_top" xlink:title=" ">
<polygon fill="white" stroke="#666666" points="743.5,-24.88 642,-24.88 642,-5.63 743.5,-5.63 743.5,-24.88"/>
<text text-anchor="middle" x="692.75" y="-11.38" font-family="Helvetica,sans-Serif" font-size="10.00">Optimist/Solver.hxx</text>
</a>
</g>
</g>
<!-- Node1&#45;&gt;Node12 -->
<g id="edge11_Node000001_Node000012" class="edge">
<title>Node1&#45;&gt;Node12</title>
<g id="a_edge11_Node000001_Node000012"><a xlink:title=" ">
<path fill="none" stroke="#63b8ff" d="M647.8,-66.18C655.5,-57.62 667.34,-44.48 676.93,-33.82"/>
<polygon fill="#63b8ff" stroke="#63b8ff" points="679.52,-36.17 683.61,-26.4 674.32,-31.49 679.52,-36.17"/>
</a>
</g>
</g>
<!-- Node13 -->
<g id="Node000013" class="node">
<title>Node13</title>
<g id="a_Node000013"><a xlink:href="_scalar_root_finder_8hxx.html" target="_top" xlink:title=" ">
<polygon fill="white" stroke="#666666" points="911.5,-24.88 762,-24.88 762,-5.63 911.5,-5.63 911.5,-24.88"/>
<text text-anchor="middle" x="836.75" y="-11.38" font-family="Helvetica,sans-Serif" font-size="10.00">Optimist/ScalarRootFinder.hxx</text>
</a>
</g>
</g>
<!-- Node1&#45;&gt;Node13 -->
<g id="edge12_Node000001_Node000013" class="edge">
<title>Node1&#45;&gt;Node13</title>
<g id="a_edge12_Node000001_Node000013"><a xlink:title=" ">
<path fill="none" stroke="#63b8ff" d="M670.1,-66.05C703.79,-55.99 758.36,-39.68 795.81,-28.49"/>
<polygon fill="#63b8ff" stroke="#63b8ff" points="796.34,-31.98 804.92,-25.76 794.33,-25.27 796.34,-31.98"/>
</a>
</g>
</g>
<!-- Node14 -->
<g id="Node000014" class="node">
<title>Node14</title>
<g id="a_Node000014"><a xlink:href="_scalar_root_finder_2_newton_8hxx.html" target="_top" xlink:title=" ">
<polygon fill="white" stroke="#666666" points="1061.5,-30.5 930,-30.5 930,0 1061.5,0 1061.5,-30.5"/>
<text text-anchor="start" x="938" y="-17" font-family="Helvetica,sans-Serif" font-size="10.00">Optimist/ScalarRootFinder</text>
<text text-anchor="middle" x="995.75" y="-5.75" font-family="Helvetica,sans-Serif" font-size="10.00">/Newton.hxx</text>
</a>
</g>
</g>
<!-- Node1&#45;&gt;Node14 -->
<g id="edge13_Node000001_Node000014" class="edge">
<title>Node1&#45;&gt;Node14</title>
<g id="a_edge13_Node000001_Node000014"><a xlink:title=" ">
<path fill="none" stroke="#63b8ff" d="M690.08,-67.6C744,-59.44 832.4,-45.75 918.25,-30.91"/>
<polygon fill="#63b8ff" stroke="#63b8ff" points="918.77,-34.37 928.03,-29.21 917.57,-27.47 918.77,-34.37"/>
</a>
</g>
</g>
<!-- Node15 -->
<g id="Node000015" class="node">
<title>Node15</title>
<g id="a_Node000015"><a xlink:href="_root_finder_8hxx.html" target="_top" xlink:title=" ">
<polygon fill="white" stroke="#666666" points="1201.62,-24.88 1079.88,-24.88 1079.88,-5.63 1201.62,-5.63 1201.62,-24.88"/>
<text text-anchor="middle" x="1140.75" y="-11.38" font-family="Helvetica,sans-Serif" font-size="10.00">Optimist/RootFinder.hxx</text>
</a>
</g>
</g>
<!-- Node1&#45;&gt;Node15 -->
<g id="edge14_Node000001_Node000015" class="edge">
<title>Node1&#45;&gt;Node15</title>
<g id="a_edge14_Node000001_Node000015"><a xlink:title=" ">
<path fill="none" stroke="#63b8ff" d="M690.05,-71.52C770.69,-65.38 933.74,-51.49 1070.75,-30.5 1076.43,-29.63 1082.34,-28.61 1088.22,-27.52"/>
<polygon fill="#63b8ff" stroke="#63b8ff" points="1088.77,-30.98 1097.93,-25.65 1087.45,-24.1 1088.77,-30.98"/>
</a>
</g>
</g>
<!-- Node16 -->
<g id="Node000016" class="node">
<title>Node16</title>
<g id="a_Node000016"><a xlink:href="_root_finder_2_newton_8hxx.html" target="_top" xlink:title=" ">
<polygon fill="white" stroke="#666666" points="1323.62,-30.5 1219.88,-30.5 1219.88,0 1323.62,0 1323.62,-30.5"/>
<text text-anchor="start" x="1227.88" y="-17" font-family="Helvetica,sans-Serif" font-size="10.00">Optimist/RootFinder</text>
<text text-anchor="middle" x="1271.75" y="-5.75" font-family="Helvetica,sans-Serif" font-size="10.00">/Newton.hxx</text>
</a>
</g>
</g>
<!-- Node1&#45;&gt;Node16 -->
<g id="edge15_Node000001_Node000016" class="edge">
<title>Node1&#45;&gt;Node16</title>
<g id="a_edge15_Node000001_Node000016"><a xlink:title=" ">
<path fill="none" stroke="#63b8ff" d="M690.07,-73.75C788.06,-70.52 1011.39,-60.46 1208.46,-30.69"/>
<polygon fill="#63b8ff" stroke="#63b8ff" points="1208.76,-34.18 1218.11,-29.21 1207.7,-27.26 1208.76,-34.18"/>
</a>
</g>
</g>
<!-- Node17 -->
<g id="Node000017" class="node">
<title>Node17</title>
<g id="a_Node000017"><a xlink:href="_broyden_8hxx.html" target="_top" xlink:title=" ">
<polygon fill="white" stroke="#666666" points="1445.62,-30.5 1341.88,-30.5 1341.88,0 1445.62,0 1445.62,-30.5"/>
<text text-anchor="start" x="1349.88" y="-17" font-family="Helvetica,sans-Serif" font-size="10.00">Optimist/RootFinder</text>
<text text-anchor="middle" x="1393.75" y="-5.75" font-family="Helvetica,sans-Serif" font-size="10.00">/Broyden.hxx</text>
</a>
</g>
</g>
<!-- Node1&#45;&gt;Node17 -->
<g id="edge16_Node000001_Node000017" class="edge">
<title>Node1&#45;&gt;Node17</title>
<g id="a_edge16_Node000001_Node000017"><a xlink:title=" ">
<path fill="none" stroke="#63b8ff" d="M690.05,-74.73C802.96,-73.22 1085.21,-66.06 1330.34,-30.68"/>
<polygon fill="#63b8ff" stroke="#63b8ff" points="1330.73,-34.16 1340.12,-29.25 1329.72,-27.23 1330.73,-34.16"/>
</a>
</g>
</g>
<!-- Node18 -->
<g id="Node000018" class="node">
<title>Node18</title>
<g id="a_Node000018"><a xlink:href="_greenstadt_8hxx.html" target="_top" xlink:title=" ">
<polygon fill="white" stroke="#666666" points="1567.62,-30.5 1463.88,-30.5 1463.88,0 1567.62,0 1567.62,-30.5"/>
<text text-anchor="start" x="1471.88" y="-17" font-family="Helvetica,sans-Serif" font-size="10.00">Optimist/RootFinder</text>
<text text-anchor="middle" x="1515.75" y="-5.75" font-family="Helvetica,sans-Serif" font-size="10.00">/Greenstadt.hxx</text>
</a>
</g>
</g>
<!-- Node1&#45;&gt;Node18 -->
<g id="edge17_Node000001_Node000018" class="edge">
<title>Node1&#45;&gt;Node18</title>
<g id="a_edge17_Node000001_Node000018"><a xlink:title=" ">
<path fill="none" stroke="#63b8ff" d="M690.13,-75.42C816.78,-75.5 1158.7,-71.69 1452.32,-30.66"/>
<polygon fill="#63b8ff" stroke="#63b8ff" points="1452.71,-34.14 1462.12,-29.27 1451.73,-27.21 1452.71,-34.14"/>
</a>
</g>
</g>
<!-- Node19 -->
<g id="Node000019" class="node">
<title>Node19</title>
<g id="a_Node000019"><a xlink:href="_optimizer_8hxx.html" target="_top" xlink:title=" ">
<polygon fill="white" stroke="#666666" points="1701.62,-24.88 1585.88,-24.88 1585.88,-5.63 1701.62,-5.63 1701.62,-24.88"/>
<text text-anchor="middle" x="1643.75" y="-11.38" font-family="Helvetica,sans-Serif" font-size="10.00">Optimist/Optimizer.hxx</text>
</a>
</g>
</g>
<!-- Node1&#45;&gt;Node19 -->
<g id="edge18_Node000001_Node000019" class="edge">
<title>Node1&#45;&gt;Node19</title>
<g id="a_edge18_Node000001_Node000019"><a xlink:title=" ">
<path fill="none" stroke="#63b8ff" d="M690.03,-75.58C830.73,-76.26 1240.2,-74.01 1576.75,-30.5 1582.79,-29.72 1589.1,-28.68 1595.33,-27.52"/>
<polygon fill="#63b8ff" stroke="#63b8ff" points="1595.76,-31 1604.89,-25.61 1594.4,-24.13 1595.76,-31"/>
</a>
</g>
</g>
<!-- Node20 -->
<g id="Node000020" class="node">
<title>Node20</title>
<g id="a_Node000020"><a xlink:href="_scalar_optimizer_8hxx.html" target="_top" xlink:title=" ">
<polygon fill="white" stroke="#666666" points="1863.5,-24.88 1720,-24.88 1720,-5.63 1863.5,-5.63 1863.5,-24.88"/>
<text text-anchor="middle" x="1791.75" y="-11.38" font-family="Helvetica,sans-Serif" font-size="10.00">Optimist/ScalarOptimizer.hxx</text>
</a>
</g>
</g>
<!-- Node1&#45;&gt;Node20 -->
<g id="edge19_Node000001_Node000020" class="edge">
<title>Node1&#45;&gt;Node20</title>
<g id="a_edge19_Node000001_Node000020"><a xlink:title=" ">
<path fill="none" stroke="#63b8ff" d="M690.11,-75.39C843.69,-75.69 1319.44,-72.88 1710.75,-30.5 1718.75,-29.63 1727.16,-28.46 1735.4,-27.15"/>
<polygon fill="#63b8ff" stroke="#63b8ff" points="1735.71,-30.65 1745,-25.55 1734.56,-23.74 1735.71,-30.65"/>
</a>
</g>
</g>
<!-- Node21 -->
<g id="Node000021" class="node">
<title>Node21</title>
<g id="a_Node000021"><a xlink:href="_factory_8hxx.html" target="_top" xlink:title=" ">
<polygon fill="white" stroke="#666666" points="1987.75,-24.88 1881.75,-24.88 1881.75,-5.63 1987.75,-5.63 1987.75,-24.88"/>
<text text-anchor="middle" x="1934.75" y="-11.38" font-family="Helvetica,sans-Serif" font-size="10.00">Optimist/Factory.hxx</text>
</a>
</g>
</g>
<!-- Node1&#45;&gt;Node21 -->
<g id="edge20_Node000001_Node000021" class="edge">
<title>Node1&#45;&gt;Node21</title>
<g id="a_edge20_Node000001_Node000021"><a xlink:title=" ">
<path fill="none" stroke="#63b8ff" d="M690.11,-74.58C891.38,-72.19 1638.35,-61.39 1872.75,-30.5 1878.15,-29.79 1883.76,-28.82 1889.31,-27.73"/>
<polygon fill="#63b8ff" stroke="#63b8ff" points="1890,-31.16 1899.05,-25.65 1888.54,-24.31 1890,-31.16"/>
</a>
</g>
</g>
</g>
</svg>
