<?xml version="1.0" encoding="UTF-8" standalone="no"?>
<!DOCTYPE svg PUBLIC "-//W3C//DTD SVG 1.1//EN"
 "http://www.w3.org/Graphics/SVG/1.1/DTD/svg11.dtd">
<!-- Generated by graphviz version 14.1.4 (20260321.0153)
 -->
<!-- Title: core/include/Optimist.hh Pages: 1 -->
<svg width="1128pt" height="83pt"
 viewBox="0.00 0.00 1128.00 83.00" xmlns="http://www.w3.org/2000/svg" xmlns:xlink="http://www.w3.org/1999/xlink">
<g id="graph0" class="graph" transform="scale(1 1) rotate(0) translate(4 78.5)">
<title>core/include/Optimist.hh</title>
<!-- Node1 -->
<g id="Node000001" class="node">
<title>Node1</title>
<g id="a_Node000001"><a xlink:title=" ">
<polygon fill="#999999" stroke="#666666" points="549.75,-74.5 428,-74.5 428,-55.25 549.75,-55.25 549.75,-74.5"/>
<text xml:space="preserve" text-anchor="middle" x="488.88" y="-61" font-family="Helvetica,sans-Serif" font-size="10.00">core/include/Optimist.hh</text>
</a>
</g>
</g>
<!-- Node2 -->
<g id="Node000002" class="node">
<title>Node2</title>
<g id="a_Node000002"><a xlink:title=" ">
<polygon fill="#e0e0e0" stroke="#999999" points="55.75,-19.25 0,-19.25 0,0 55.75,0 55.75,-19.25"/>
<text xml:space="preserve" text-anchor="middle" x="27.88" y="-5.75" font-family="Helvetica,sans-Serif" font-size="10.00">algorithm</text>
</a>
</g>
</g>
<!-- Node1&#45;&gt;Node2 -->
<g id="edge1_Node000001_Node000002" class="edge">
<title>Node1&#45;&gt;Node2</title>
<g id="a_edge1_Node000001_Node000002"><a xlink:title=" ">
<path fill="none" stroke="#63b8ff" d="M427.65,-59.97C347.02,-54.26 200.67,-41.99 67.32,-19.66"/>
<polygon fill="#63b8ff" stroke="#63b8ff" points="68.04,-16.24 57.59,-18.01 66.87,-23.14 68.04,-16.24"/>
</a>
</g>
</g>
<!-- Node3 -->
<g id="Node000003" class="node">
<title>Node3</title>
<g id="a_Node000003"><a xlink:title=" ">
<polygon fill="#e0e0e0" stroke="#999999" points="116.38,-19.25 73.38,-19.25 73.38,0 116.38,0 116.38,-19.25"/>
<text xml:space="preserve" text-anchor="middle" x="94.88" y="-5.75" font-family="Helvetica,sans-Serif" font-size="10.00">cmath</text>
</a>
</g>
</g>
<!-- Node1&#45;&gt;Node3 -->
<g id="edge2_Node000001_Node000003" class="edge">
<title>Node1&#45;&gt;Node3</title>
<g id="a_edge2_Node000001_Node000003"><a xlink:title=" ">
<path fill="none" stroke="#63b8ff" d="M427.54,-59.33C357.14,-53.46 238.13,-41.5 127.73,-19.57"/>
<polygon fill="#63b8ff" stroke="#63b8ff" points="128.71,-16.19 118.21,-17.64 127.32,-23.05 128.71,-16.19"/>
</a>
</g>
</g>
<!-- Node4 -->
<g id="Node000004" class="node">
<title>Node4</title>
<g id="a_Node000004"><a xlink:title=" ">
<polygon fill="#e0e0e0" stroke="#999999" points="183.75,-19.25 134,-19.25 134,0 183.75,0 183.75,-19.25"/>
<text xml:space="preserve" text-anchor="middle" x="158.88" y="-5.75" font-family="Helvetica,sans-Serif" font-size="10.00">iomanip</text>
</a>
</g>
</g>
<!-- Node1&#45;&gt;Node4 -->
<g id="edge3_Node000001_Node000004" class="edge">
<title>Node1&#45;&gt;Node4</title>
<g id="a_edge3_Node000001_Node000004"><a xlink:title=" ">
<path fill="none" stroke="#63b8ff" d="M427.63,-56.44C370.07,-49.04 281.33,-36.61 195.35,-19.58"/>
<polygon fill="#63b8ff" stroke="#63b8ff" points="196.04,-16.14 185.55,-17.61 194.66,-23.01 196.04,-16.14"/>
</a>
</g>
</g>
<!-- Node5 -->
<g id="Node000005" class="node">
<title>Node5</title>
<g id="a_Node000005"><a xlink:title=" ">
<polygon fill="#e0e0e0" stroke="#999999" points="230.28,-19.25 201.47,-19.25 201.47,0 230.28,0 230.28,-19.25"/>
<text xml:space="preserve" text-anchor="middle" x="215.88" y="-5.75" font-family="Helvetica,sans-Serif" font-size="10.00">ios</text>
</a>
</g>
</g>
<!-- Node1&#45;&gt;Node5 -->
<g id="edge4_Node000001_Node000005" class="edge">
<title>Node1&#45;&gt;Node5</title>
<g id="a_edge4_Node000001_Node000005"><a xlink:title=" ">
<path fill="none" stroke="#63b8ff" d="M427.56,-56.11C379.12,-49.26 309.71,-37.86 241.31,-19.51"/>
<polygon fill="#63b8ff" stroke="#63b8ff" points="242.37,-16.17 231.8,-16.91 240.52,-22.92 242.37,-16.17"/>
</a>
</g>
</g>
<!-- Node6 -->
<g id="Node000006" class="node">
<title>Node6</title>
<g id="a_Node000006"><a xlink:title=" ">
<polygon fill="#e0e0e0" stroke="#999999" points="301.62,-19.25 248.12,-19.25 248.12,0 301.62,0 301.62,-19.25"/>
<text xml:space="preserve" text-anchor="middle" x="274.88" y="-5.75" font-family="Helvetica,sans-Serif" font-size="10.00">iostream</text>
</a>
</g>
</g>
<!-- Node1&#45;&gt;Node6 -->
<g id="edge5_Node000001_Node000006" class="edge">
<title>Node1&#45;&gt;Node6</title>
<g id="a_edge5_Node000001_Node000006"><a xlink:title=" ">
<path fill="none" stroke="#63b8ff" d="M452.57,-54.84C413.72,-45.17 352.35,-29.9 312.86,-20.08"/>
<polygon fill="#63b8ff" stroke="#63b8ff" points="313.86,-16.72 303.31,-17.7 312.17,-23.51 313.86,-16.72"/>
</a>
</g>
</g>
<!-- Node7 -->
<g id="Node000007" class="node">
<title>Node7</title>
<g id="a_Node000007"><a xlink:title=" ">
<polygon fill="#e0e0e0" stroke="#999999" points="358.5,-19.25 319.25,-19.25 319.25,0 358.5,0 358.5,-19.25"/>
<text xml:space="preserve" text-anchor="middle" x="338.88" y="-5.75" font-family="Helvetica,sans-Serif" font-size="10.00">limits</text>
</a>
</g>
</g>
<!-- Node1&#45;&gt;Node7 -->
<g id="edge6_Node000001_Node000007" class="edge">
<title>Node1&#45;&gt;Node7</title>
<g id="a_edge6_Node000001_Node000007"><a xlink:title=" ">
<path fill="none" stroke="#63b8ff" d="M463.43,-54.84C437.42,-45.61 397.03,-31.27 369.34,-21.44"/>
<polygon fill="#63b8ff" stroke="#63b8ff" points="370.71,-18.21 360.11,-18.16 368.36,-24.81 370.71,-18.21"/>
</a>
</g>
</g>
<!-- Node8 -->
<g id="Node000008" class="node">
<title>Node8</title>
<g id="a_Node000008"><a xlink:title=" ">
<polygon fill="#e0e0e0" stroke="#999999" points="411.25,-19.25 376.5,-19.25 376.5,0 411.25,0 411.25,-19.25"/>
<text xml:space="preserve" text-anchor="middle" x="393.88" y="-5.75" font-family="Helvetica,sans-Serif" font-size="10.00">map</text>
</a>
</g>
</g>
<!-- Node1&#45;&gt;Node8 -->
<g id="edge7_Node000001_Node000008" class="edge">
<title>Node1&#45;&gt;Node8</title>
<g id="a_edge7_Node000001_Node000008"><a xlink:title=" ">
<path fill="none" stroke="#63b8ff" d="M472.76,-54.84C458.29,-46.73 436.8,-34.68 419.89,-25.21"/>
<polygon fill="#63b8ff" stroke="#63b8ff" points="421.82,-22.28 411.39,-20.44 418.4,-28.39 421.82,-22.28"/>
</a>
</g>
</g>
<!-- Node9 -->
<g id="Node000009" class="node">
<title>Node9</title>
<g id="a_Node000009"><a xlink:title=" ">
<polygon fill="#e0e0e0" stroke="#999999" points="480.5,-19.25 429.25,-19.25 429.25,0 480.5,0 480.5,-19.25"/>
<text xml:space="preserve" text-anchor="middle" x="454.88" y="-5.75" font-family="Helvetica,sans-Serif" font-size="10.00">memory</text>
</a>
</g>
</g>
<!-- Node1&#45;&gt;Node9 -->
<g id="edge8_Node000001_Node000009" class="edge">
<title>Node1&#45;&gt;Node9</title>
<g id="a_edge8_Node000001_Node000009"><a xlink:title=" ">
<path fill="none" stroke="#63b8ff" d="M483.26,-55.08C478.76,-48.03 472.29,-37.9 466.66,-29.08"/>
<polygon fill="#63b8ff" stroke="#63b8ff" points="469.76,-27.43 461.43,-20.88 463.86,-31.2 469.76,-27.43"/>
</a>
</g>
</g>
<!-- Node10 -->
<g id="Node000010" class="node">
<title>Node10</title>
<g id="a_Node000010"><a xlink:title=" ">
<polygon fill="#e0e0e0" stroke="#999999" points="549.12,-19.25 498.62,-19.25 498.62,0 549.12,0 549.12,-19.25"/>
<text xml:space="preserve" text-anchor="middle" x="523.88" y="-5.75" font-family="Helvetica,sans-Serif" font-size="10.00">numeric</text>
</a>
</g>
</g>
<!-- Node1&#45;&gt;Node10 -->
<g id="edge9_Node000001_Node000010" class="edge">
<title>Node1&#45;&gt;Node10</title>
<g id="a_edge9_Node000001_Node000010"><a xlink:title=" ">
<path fill="none" stroke="#63b8ff" d="M494.65,-55.08C499.29,-48.03 505.95,-37.9 511.74,-29.08"/>
<polygon fill="#63b8ff" stroke="#63b8ff" points="514.57,-31.15 517.14,-20.87 508.72,-27.31 514.57,-31.15"/>
</a>
</g>
</g>
<!-- Node11 -->
<g id="Node000011" class="node">
<title>Node11</title>
<g id="a_Node000011"><a xlink:title=" ">
<polygon fill="#e0e0e0" stroke="#999999" points="606.88,-19.25 566.88,-19.25 566.88,0 606.88,0 606.88,-19.25"/>
<text xml:space="preserve" text-anchor="middle" x="586.88" y="-5.75" font-family="Helvetica,sans-Serif" font-size="10.00">string</text>
</a>
</g>
</g>
<!-- Node1&#45;&gt;Node11 -->
<g id="edge10_Node000001_Node000011" class="edge">
<title>Node1&#45;&gt;Node11</title>
<g id="a_edge10_Node000001_Node000011"><a xlink:title=" ">
<path fill="none" stroke="#63b8ff" d="M505.5,-54.84C520.56,-46.66 543.02,-34.46 560.53,-24.94"/>
<polygon fill="#63b8ff" stroke="#63b8ff" points="561.72,-28.27 568.84,-20.43 558.38,-22.12 561.72,-28.27"/>
</a>
</g>
</g>
<!-- Node12 -->
<g id="Node000012" class="node">
<title>Node12</title>
<g id="a_Node000012"><a xlink:title=" ">
<polygon fill="#e0e0e0" stroke="#999999" points="690.62,-19.25 625.12,-19.25 625.12,0 690.62,0 690.62,-19.25"/>
<text xml:space="preserve" text-anchor="middle" x="657.88" y="-5.75" font-family="Helvetica,sans-Serif" font-size="10.00">string_view</text>
</a>
</g>
</g>
<!-- Node1&#45;&gt;Node12 -->
<g id="edge11_Node000001_Node000012" class="edge">
<title>Node1&#45;&gt;Node12</title>
<g id="a_edge11_Node000001_Node000012"><a xlink:title=" ">
<path fill="none" stroke="#63b8ff" d="M517.54,-54.84C545.22,-46.12 587.36,-32.84 618.25,-23.11"/>
<polygon fill="#63b8ff" stroke="#63b8ff" points="619.14,-26.5 627.62,-20.16 617.03,-19.82 619.14,-26.5"/>
</a>
</g>
</g>
<!-- Node13 -->
<g id="Node000013" class="node">
<title>Node13</title>
<g id="a_Node000013"><a xlink:title=" ">
<polygon fill="#e0e0e0" stroke="#999999" points="770.75,-19.25 709,-19.25 709,0 770.75,0 770.75,-19.25"/>
<text xml:space="preserve" text-anchor="middle" x="739.88" y="-5.75" font-family="Helvetica,sans-Serif" font-size="10.00">type_traits</text>
</a>
</g>
</g>
<!-- Node1&#45;&gt;Node13 -->
<g id="edge12_Node000001_Node000013" class="edge">
<title>Node1&#45;&gt;Node13</title>
<g id="a_edge12_Node000001_Node000013"><a xlink:title=" ">
<path fill="none" stroke="#63b8ff" d="M532.13,-54.78C572.45,-46.29 634.58,-33.18 697.88,-19.67"/>
<polygon fill="#63b8ff" stroke="#63b8ff" points="698.34,-23.15 707.39,-17.64 696.88,-16.3 698.34,-23.15"/>
</a>
</g>
</g>
<!-- Node14 -->
<g id="Node000014" class="node">
<title>Node14</title>
<g id="a_Node000014"><a xlink:title=" ">
<polygon fill="#e0e0e0" stroke="#999999" points="831.38,-19.25 788.38,-19.25 788.38,0 831.38,0 831.38,-19.25"/>
<text xml:space="preserve" text-anchor="middle" x="809.88" y="-5.75" font-family="Helvetica,sans-Serif" font-size="10.00">vector</text>
</a>
</g>
</g>
<!-- Node1&#45;&gt;Node14 -->
<g id="edge13_Node000001_Node000014" class="edge">
<title>Node1&#45;&gt;Node14</title>
<g id="a_edge13_Node000001_Node000014"><a xlink:title=" ">
<path fill="none" stroke="#63b8ff" d="M550.04,-56.8C606.68,-49.74 693.4,-37.61 776.79,-19.71"/>
<polygon fill="#63b8ff" stroke="#63b8ff" points="777.5,-23.14 786.52,-17.59 776.01,-16.3 777.5,-23.14"/>
</a>
</g>
</g>
<!-- Node15 -->
<g id="Node000015" class="node">
<title>Node15</title>
<g id="a_Node000015"><a xlink:title=" ">
<polygon fill="#e0e0e0" stroke="#999999" points="922,-19.25 849.75,-19.25 849.75,0 922,0 922,-19.25"/>
<text xml:space="preserve" text-anchor="middle" x="885.88" y="-5.75" font-family="Helvetica,sans-Serif" font-size="10.00">Eigen/Dense</text>
</a>
</g>
</g>
<!-- Node1&#45;&gt;Node15 -->
<g id="edge14_Node000001_Node000015" class="edge">
<title>Node1&#45;&gt;Node15</title>
<g id="a_edge14_Node000001_Node000015"><a xlink:title=" ">
<path fill="none" stroke="#63b8ff" d="M550.09,-57.3C618.04,-49.74 731.21,-36.36 838.22,-19.58"/>
<polygon fill="#63b8ff" stroke="#63b8ff" points="838.74,-23.05 848.07,-18.03 837.64,-16.13 838.74,-23.05"/>
</a>
</g>
</g>
<!-- Node16 -->
<g id="Node000016" class="node">
<title>Node16</title>
<g id="a_Node000016"><a xlink:title=" ">
<polygon fill="#e0e0e0" stroke="#999999" points="1014.12,-19.25 939.62,-19.25 939.62,0 1014.12,0 1014.12,-19.25"/>
<text xml:space="preserve" text-anchor="middle" x="976.88" y="-5.75" font-family="Helvetica,sans-Serif" font-size="10.00">Eigen/Sparse</text>
</a>
</g>
</g>
<!-- Node1&#45;&gt;Node16 -->
<g id="edge15_Node000001_Node000016" class="edge">
<title>Node1&#45;&gt;Node16</title>
<g id="a_edge15_Node000001_Node000016"><a xlink:title=" ">
<path fill="none" stroke="#63b8ff" d="M550.21,-59.33C633.56,-52.8 787.5,-39.43 928.29,-19.52"/>
<polygon fill="#63b8ff" stroke="#63b8ff" points="928.36,-23.04 937.76,-18.16 927.37,-16.11 928.36,-23.04"/>
</a>
</g>
</g>
<!-- Node17 -->
<g id="Node000017" class="node">
<title>Node17</title>
<g id="a_Node000017"><a xlink:title=" ">
<polygon fill="#e0e0e0" stroke="#999999" points="1119.5,-19.25 1032.25,-19.25 1032.25,0 1119.5,0 1119.5,-19.25"/>
<text xml:space="preserve" text-anchor="middle" x="1075.88" y="-5.75" font-family="Helvetica,sans-Serif" font-size="10.00">Eigen/SparseLU</text>
</a>
</g>
</g>
<!-- Node1&#45;&gt;Node17 -->
<g id="edge16_Node000001_Node000017" class="edge">
<title>Node1&#45;&gt;Node17</title>
<g id="a_edge16_Node000001_Node000017"><a xlink:title=" ">
<path fill="none" stroke="#63b8ff" d="M549.9,-60.33C647.16,-54.33 843.58,-40.84 1020.59,-19.43"/>
<polygon fill="#63b8ff" stroke="#63b8ff" points="1020.95,-22.91 1030.45,-18.23 1020.1,-15.97 1020.95,-22.91"/>
</a>
</g>
</g>
</g>
</svg>
