<?xml version="1.0" encoding="UTF-8" standalone="no"?>
<!DOCTYPE svg PUBLIC "-//W3C//DTD SVG 1.1//EN"
 "http://www.w3.org/Graphics/SVG/1.1/DTD/svg11.dtd">
<!-- Generated by graphviz version 12.2.1 (20241206.2353)
 -->
<!-- Title: include/Optimist.hh Pages: 1 -->
<svg width="711pt" height="83pt"
 viewBox="0.00 0.00 710.88 82.50" xmlns="http://www.w3.org/2000/svg" xmlns:xlink="http://www.w3.org/1999/xlink">
<g id="graph0" class="graph" transform="scale(1 1) rotate(0) translate(4 78.5)">
<title>include/Optimist.hh</title>
<!-- Node1 -->
<g id="Node000001" class="node">
<title>Node1</title>
<g id="a_Node000001"><a xlink:title=" ">
<polygon fill="#999999" stroke="#666666" points="376.75,-74.5 276.75,-74.5 276.75,-55.25 376.75,-55.25 376.75,-74.5"/>
<text text-anchor="middle" x="326.75" y="-61" font-family="Helvetica,sans-Serif" font-size="10.00">include/Optimist.hh</text>
</a>
</g>
</g>
<!-- Node2 -->
<g id="Node000002" class="node">
<title>Node2</title>
<g id="a_Node000002"><a xlink:title=" ">
<polygon fill="#e0e0e0" stroke="#999999" points="53.5,-19.25 0,-19.25 0,0 53.5,0 53.5,-19.25"/>
<text text-anchor="middle" x="26.75" y="-5.75" font-family="Helvetica,sans-Serif" font-size="10.00">iostream</text>
</a>
</g>
</g>
<!-- Node1&#45;&gt;Node2 -->
<g id="edge1_Node000001_Node000002" class="edge">
<title>Node1&#45;&gt;Node2</title>
<g id="a_edge1_Node000001_Node000002"><a xlink:title=" ">
<path fill="none" stroke="#63b8ff" d="M276.44,-56.41C225.58,-48.63 144.46,-35.59 65.03,-19.6"/>
<polygon fill="#63b8ff" stroke="#63b8ff" points="65.81,-16.19 55.32,-17.62 64.42,-23.05 65.81,-16.19"/>
</a>
</g>
</g>
<!-- Node3 -->
<g id="Node000003" class="node">
<title>Node3</title>
<g id="a_Node000003"><a xlink:title=" ">
<polygon fill="#e0e0e0" stroke="#999999" points="100.15,-19.25 71.35,-19.25 71.35,0 100.15,0 100.15,-19.25"/>
<text text-anchor="middle" x="85.75" y="-5.75" font-family="Helvetica,sans-Serif" font-size="10.00">ios</text>
</a>
</g>
</g>
<!-- Node1&#45;&gt;Node3 -->
<g id="edge2_Node000001_Node000003" class="edge">
<title>Node1&#45;&gt;Node3</title>
<g id="a_edge2_Node000001_Node000003"><a xlink:title=" ">
<path fill="none" stroke="#63b8ff" d="M276.42,-55.88C234.32,-48.68 172.57,-36.93 110.93,-19.53"/>
<polygon fill="#63b8ff" stroke="#63b8ff" points="112.27,-16.27 101.69,-16.87 110.33,-23 112.27,-16.27"/>
</a>
</g>
</g>
<!-- Node4 -->
<g id="Node000004" class="node">
<title>Node4</title>
<g id="a_Node000004"><a xlink:title=" ">
<polygon fill="#e0e0e0" stroke="#999999" points="167.62,-19.25 117.88,-19.25 117.88,0 167.62,0 167.62,-19.25"/>
<text text-anchor="middle" x="142.75" y="-5.75" font-family="Helvetica,sans-Serif" font-size="10.00">iomanip</text>
</a>
</g>
</g>
<!-- Node1&#45;&gt;Node4 -->
<g id="edge3_Node000001_Node000004" class="edge">
<title>Node1&#45;&gt;Node4</title>
<g id="a_edge3_Node000001_Node000004"><a xlink:title=" ">
<path fill="none" stroke="#63b8ff" d="M295.54,-54.84C263.2,-45.48 212.74,-30.88 178.74,-21.04"/>
<polygon fill="#63b8ff" stroke="#63b8ff" points="179.93,-17.74 169.35,-18.32 177.98,-24.47 179.93,-17.74"/>
</a>
</g>
</g>
<!-- Node5 -->
<g id="Node000005" class="node">
<title>Node5</title>
<g id="a_Node000005"><a xlink:title=" ">
<polygon fill="#e0e0e0" stroke="#999999" points="225.75,-19.25 185.75,-19.25 185.75,0 225.75,0 225.75,-19.25"/>
<text text-anchor="middle" x="205.75" y="-5.75" font-family="Helvetica,sans-Serif" font-size="10.00">string</text>
</a>
</g>
</g>
<!-- Node1&#45;&gt;Node5 -->
<g id="edge4_Node000001_Node000005" class="edge">
<title>Node1&#45;&gt;Node5</title>
<g id="a_edge4_Node000001_Node000005"><a xlink:title=" ">
<path fill="none" stroke="#63b8ff" d="M306.22,-54.84C287.07,-46.41 258.25,-33.73 236.38,-24.11"/>
<polygon fill="#63b8ff" stroke="#63b8ff" points="237.92,-20.96 227.36,-20.13 235.1,-27.37 237.92,-20.96"/>
</a>
</g>
</g>
<!-- Node6 -->
<g id="Node000006" class="node">
<title>Node6</title>
<g id="a_Node000006"><a xlink:title=" ">
<polygon fill="#e0e0e0" stroke="#999999" points="287.25,-19.25 244.25,-19.25 244.25,0 287.25,0 287.25,-19.25"/>
<text text-anchor="middle" x="265.75" y="-5.75" font-family="Helvetica,sans-Serif" font-size="10.00">cmath</text>
</a>
</g>
</g>
<!-- Node1&#45;&gt;Node6 -->
<g id="edge5_Node000001_Node000006" class="edge">
<title>Node1&#45;&gt;Node6</title>
<g id="a_edge5_Node000001_Node000006"><a xlink:title=" ">
<path fill="none" stroke="#63b8ff" d="M316.4,-54.84C307.67,-47.22 294.96,-36.12 284.45,-26.95"/>
<polygon fill="#63b8ff" stroke="#63b8ff" points="286.92,-24.46 277.09,-20.52 282.32,-29.73 286.92,-24.46"/>
</a>
</g>
</g>
<!-- Node7 -->
<g id="Node000007" class="node">
<title>Node7</title>
<g id="a_Node000007"><a xlink:title=" ">
<polygon fill="#e0e0e0" stroke="#999999" points="348.25,-19.25 305.25,-19.25 305.25,0 348.25,0 348.25,-19.25"/>
<text text-anchor="middle" x="326.75" y="-5.75" font-family="Helvetica,sans-Serif" font-size="10.00">vector</text>
</a>
</g>
</g>
<!-- Node1&#45;&gt;Node7 -->
<g id="edge6_Node000001_Node000007" class="edge">
<title>Node1&#45;&gt;Node7</title>
<g id="a_edge6_Node000001_Node000007"><a xlink:title=" ">
<path fill="none" stroke="#63b8ff" d="M326.75,-55.08C326.75,-48.57 326.75,-39.42 326.75,-31.12"/>
<polygon fill="#63b8ff" stroke="#63b8ff" points="330.25,-31.12 326.75,-21.12 323.25,-31.12 330.25,-31.12"/>
</a>
</g>
</g>
<!-- Node8 -->
<g id="Node000008" class="node">
<title>Node8</title>
<g id="a_Node000008"><a xlink:title=" ">
<polygon fill="#e0e0e0" stroke="#999999" points="401.12,-19.25 366.38,-19.25 366.38,0 401.12,0 401.12,-19.25"/>
<text text-anchor="middle" x="383.75" y="-5.75" font-family="Helvetica,sans-Serif" font-size="10.00">map</text>
</a>
</g>
</g>
<!-- Node1&#45;&gt;Node8 -->
<g id="edge7_Node000001_Node000008" class="edge">
<title>Node1&#45;&gt;Node8</title>
<g id="a_edge7_Node000001_Node000008"><a xlink:title=" ">
<path fill="none" stroke="#63b8ff" d="M336.42,-54.84C344.49,-47.3 356.22,-36.35 365.97,-27.23"/>
<polygon fill="#63b8ff" stroke="#63b8ff" points="368.2,-29.94 373.12,-20.56 363.42,-24.83 368.2,-29.94"/>
</a>
</g>
</g>
<!-- Node9 -->
<g id="Node000009" class="node">
<title>Node9</title>
<g id="a_Node000009"><a xlink:title=" ">
<polygon fill="#e0e0e0" stroke="#999999" points="470.38,-19.25 419.12,-19.25 419.12,0 470.38,0 470.38,-19.25"/>
<text text-anchor="middle" x="444.75" y="-5.75" font-family="Helvetica,sans-Serif" font-size="10.00">memory</text>
</a>
</g>
</g>
<!-- Node1&#45;&gt;Node9 -->
<g id="edge8_Node000001_Node000009" class="edge">
<title>Node1&#45;&gt;Node9</title>
<g id="a_edge8_Node000001_Node000009"><a xlink:title=" ">
<path fill="none" stroke="#63b8ff" d="M346.77,-54.84C365.24,-46.5 392.96,-34 414.2,-24.41"/>
<polygon fill="#63b8ff" stroke="#63b8ff" points="415.58,-27.63 423.26,-20.33 412.7,-21.25 415.58,-27.63"/>
</a>
</g>
</g>
<!-- Node10 -->
<g id="Node000010" class="node">
<title>Node10</title>
<g id="a_Node000010"><a xlink:title=" ">
<polygon fill="#e0e0e0" stroke="#999999" points="539,-19.25 488.5,-19.25 488.5,0 539,0 539,-19.25"/>
<text text-anchor="middle" x="513.75" y="-5.75" font-family="Helvetica,sans-Serif" font-size="10.00">numeric</text>
</a>
</g>
</g>
<!-- Node1&#45;&gt;Node10 -->
<g id="edge9_Node000001_Node000010" class="edge">
<title>Node1&#45;&gt;Node10</title>
<g id="a_edge9_Node000001_Node000010"><a xlink:title=" ">
<path fill="none" stroke="#63b8ff" d="M358.47,-54.84C391.33,-45.48 442.62,-30.88 477.17,-21.04"/>
<polygon fill="#63b8ff" stroke="#63b8ff" points="478.08,-24.42 486.74,-18.32 476.16,-17.69 478.08,-24.42"/>
</a>
</g>
</g>
<!-- Node11 -->
<g id="Node000011" class="node">
<title>Node11</title>
<g id="a_Node000011"><a xlink:title=" ">
<polygon fill="#e0e0e0" stroke="#999999" points="612.62,-19.25 556.88,-19.25 556.88,0 612.62,0 612.62,-19.25"/>
<text text-anchor="middle" x="584.75" y="-5.75" font-family="Helvetica,sans-Serif" font-size="10.00">algorithm</text>
</a>
</g>
</g>
<!-- Node1&#45;&gt;Node11 -->
<g id="edge10_Node000001_Node000011" class="edge">
<title>Node1&#45;&gt;Node11</title>
<g id="a_edge10_Node000001_Node000011"><a xlink:title=" ">
<path fill="none" stroke="#63b8ff" d="M373.83,-54.79C416.26,-46.51 480.65,-33.71 545.63,-19.66"/>
<polygon fill="#63b8ff" stroke="#63b8ff" points="545.98,-23.17 555.01,-17.63 544.49,-16.33 545.98,-23.17"/>
</a>
</g>
</g>
<!-- Node12 -->
<g id="Node000012" class="node">
<title>Node12</title>
<g id="a_Node000012"><a xlink:title=" ">
<polygon fill="#e0e0e0" stroke="#999999" points="702.88,-19.25 630.62,-19.25 630.62,0 702.88,0 702.88,-19.25"/>
<text text-anchor="middle" x="666.75" y="-5.75" font-family="Helvetica,sans-Serif" font-size="10.00">Eigen/Dense</text>
</a>
</g>
</g>
<!-- Node1&#45;&gt;Node12 -->
<g id="edge11_Node000001_Node000012" class="edge">
<title>Node1&#45;&gt;Node12</title>
<g id="a_edge11_Node000001_Node000012"><a xlink:title=" ">
<path fill="none" stroke="#63b8ff" d="M377.22,-56.86C433.74,-48.86 528.35,-35.06 619.35,-19.61"/>
<polygon fill="#63b8ff" stroke="#63b8ff" points="619.66,-23.1 628.93,-17.97 618.48,-16.2 619.66,-23.1"/>
</a>
</g>
</g>
</g>
</svg>
