<?xml version="1.0" encoding="UTF-8" standalone="no"?>
<!DOCTYPE svg PUBLIC "-//W3C//DTD SVG 1.1//EN"
 "http://www.w3.org/Graphics/SVG/1.1/DTD/svg11.dtd">
<!-- Generated by graphviz version 14.0.2 (20251019.1705)
 -->
<!-- Title: include/Optimist.hh Pages: 1 -->
<svg width="2684pt" height="337pt"
 viewBox="0.00 0.00 2684.00 337.00" xmlns="http://www.w3.org/2000/svg" xmlns:xlink="http://www.w3.org/1999/xlink">
<g id="graph0" class="graph" transform="scale(1 1) rotate(0) translate(4 333.25)">
<title>include/Optimist.hh</title>
<!-- Node1 -->
<g id="Node000001" class="node">
<title>Node1</title>
<g id="a_Node000001"><a xlink:title=" ">
<polygon fill="#999999" stroke="#666666" points="1208.75,-329.25 1108.75,-329.25 1108.75,-310 1208.75,-310 1208.75,-329.25"/>
<text xml:space="preserve" text-anchor="middle" x="1158.75" y="-315.75" font-family="Helvetica,sans-Serif" font-size="10.00">include/Optimist.hh</text>
</a>
</g>
</g>
<!-- Node2 -->
<g id="Node000002" class="node">
<title>Node2</title>
<g id="a_Node000002"><a xlink:href="_finite_differences_8hh.html" target="_top" xlink:title=" ">
<polygon fill="white" stroke="#666666" points="1081.38,-274 904.12,-274 904.12,-254.75 1081.38,-254.75 1081.38,-274"/>
<text xml:space="preserve" text-anchor="middle" x="992.75" y="-260.5" font-family="Helvetica,sans-Serif" font-size="10.00">include/Optimist/FiniteDifferences.hh</text>
</a>
</g>
</g>
<!-- Node1&#45;&gt;Node2 -->
<g id="edge1_Node000001_Node000002" class="edge">
<title>Node1&#45;&gt;Node2</title>
<g id="a_edge1_Node000001_Node000002"><a xlink:title=" ">
<path fill="none" stroke="#63b8ff" d="M1119.98,-306.19C1089.68,-296.47 1048.28,-283.19 1021.05,-274.45"/>
<polygon fill="#63b8ff" stroke="#63b8ff" points="1118.56,-309.41 1129.15,-309.13 1120.7,-302.74 1118.56,-309.41"/>
</a>
</g>
</g>
<!-- Node3 -->
<g id="Node000003" class="node">
<title>Node3</title>
<g id="a_Node000003"><a xlink:href="_function_8hh.html" target="_top" xlink:title=" ">
<polygon fill="white" stroke="#666666" points="1278,-274 1137.5,-274 1137.5,-254.75 1278,-254.75 1278,-274"/>
<text xml:space="preserve" text-anchor="middle" x="1207.75" y="-260.5" font-family="Helvetica,sans-Serif" font-size="10.00">include/Optimist/Function.hh</text>
</a>
</g>
</g>
<!-- Node1&#45;&gt;Node3 -->
<g id="edge2_Node000001_Node000003" class="edge">
<title>Node1&#45;&gt;Node3</title>
<g id="a_edge2_Node000001_Node000003"><a xlink:title=" ">
<path fill="none" stroke="#63b8ff" d="M1174.47,-301.54C1182.79,-292.5 1192.66,-281.77 1199.48,-274.36"/>
<polygon fill="#63b8ff" stroke="#63b8ff" points="1172.06,-298.99 1167.87,-308.72 1177.21,-303.73 1172.06,-298.99"/>
</a>
</g>
</g>
<!-- Node4 -->
<g id="Node000004" class="node">
<title>Node4</title>
<g id="a_Node000004"><a xlink:href="_solver_base_8hh.html" target="_top" xlink:title=" ">
<polygon fill="white" stroke="#666666" points="1121.38,-218.75 968.12,-218.75 968.12,-199.5 1121.38,-199.5 1121.38,-218.75"/>
<text xml:space="preserve" text-anchor="middle" x="1044.75" y="-205.25" font-family="Helvetica,sans-Serif" font-size="10.00">include/Optimist/SolverBase.hh</text>
</a>
</g>
</g>
<!-- Node1&#45;&gt;Node4 -->
<g id="edge33_Node000001_Node000004" class="edge">
<title>Node1&#45;&gt;Node4</title>
<g id="a_edge33_Node000001_Node000004"><a xlink:title=" ">
<path fill="none" stroke="#63b8ff" d="M1141.38,-302.09C1116.96,-278.86 1073.36,-237.35 1054.21,-219.13"/>
<polygon fill="#63b8ff" stroke="#63b8ff" points="1138.67,-304.34 1148.32,-308.7 1143.49,-299.27 1138.67,-304.34"/>
</a>
</g>
</g>
<!-- Node21 -->
<g id="Node000021" class="node">
<title>Node21</title>
<g id="a_Node000021"><a xlink:href="_test_set_8hh.html" target="_top" xlink:title=" ">
<polygon fill="white" stroke="#666666" points="1766.12,-218.75 1629.38,-218.75 1629.38,-199.5 1766.12,-199.5 1766.12,-218.75"/>
<text xml:space="preserve" text-anchor="middle" x="1697.75" y="-205.25" font-family="Helvetica,sans-Serif" font-size="10.00">include/Optimist/TestSet.hh</text>
</a>
</g>
</g>
<!-- Node1&#45;&gt;Node21 -->
<g id="edge34_Node000001_Node000021" class="edge">
<title>Node1&#45;&gt;Node21</title>
<g id="a_edge34_Node000001_Node000021"><a xlink:title=" ">
<path fill="none" stroke="#63b8ff" d="M1215,-307.3C1322.32,-285.7 1554.35,-238.99 1652.47,-219.24"/>
<polygon fill="#63b8ff" stroke="#63b8ff" points="1214.37,-303.86 1205.26,-309.26 1215.76,-310.72 1214.37,-303.86"/>
</a>
</g>
</g>
<!-- Node3&#45;&gt;Node4 -->
<g id="edge3_Node000003_Node000004" class="edge">
<title>Node3&#45;&gt;Node4</title>
<g id="a_edge3_Node000003_Node000004"><a xlink:title=" ">
<path fill="none" stroke="#63b8ff" d="M1169.29,-250.81C1139.57,-241.1 1099.16,-227.9 1072.54,-219.2"/>
<polygon fill="#63b8ff" stroke="#63b8ff" points="1168.07,-254.09 1178.66,-253.87 1170.24,-247.44 1168.07,-254.09"/>
</a>
</g>
</g>
<!-- Node3&#45;&gt;Node21 -->
<g id="edge20_Node000003_Node000021" class="edge">
<title>Node3&#45;&gt;Node21</title>
<g id="a_edge20_Node000003_Node000021"><a xlink:title=" ">
<path fill="none" stroke="#63b8ff" d="M1289.77,-254.46C1384.88,-244.13 1539.97,-227.27 1629.02,-217.59"/>
<polygon fill="#63b8ff" stroke="#63b8ff" points="1289.54,-250.97 1279.98,-255.53 1290.3,-257.92 1289.54,-250.97"/>
</a>
</g>
</g>
<!-- Node5 -->
<g id="Node000005" class="node">
<title>Node5</title>
<g id="a_Node000005"><a xlink:href="_optimizer_8hh.html" target="_top" xlink:title=" ">
<polygon fill="white" stroke="#666666" points="362.88,-157.88 218.62,-157.88 218.62,-138.62 362.88,-138.62 362.88,-157.88"/>
<text xml:space="preserve" text-anchor="middle" x="290.75" y="-144.38" font-family="Helvetica,sans-Serif" font-size="10.00">include/Optimist/Optimizer.hh</text>
</a>
</g>
</g>
<!-- Node4&#45;&gt;Node5 -->
<g id="edge4_Node000004_Node000005" class="edge">
<title>Node4&#45;&gt;Node5</title>
<g id="a_edge4_Node000004_Node000005"><a xlink:title=" ">
<path fill="none" stroke="#63b8ff" d="M956.5,-201.23C805.91,-189.48 502.14,-165.76 363.15,-154.9"/>
<polygon fill="#63b8ff" stroke="#63b8ff" points="956.2,-204.72 966.44,-202.01 956.75,-197.74 956.2,-204.72"/>
</a>
</g>
</g>
<!-- Node9 -->
<g id="Node000009" class="node">
<title>Node9</title>
<g id="a_Node000009"><a xlink:href="_root_finder_8hh.html" target="_top" xlink:title=" ">
<polygon fill="white" stroke="#666666" points="983.88,-157.88 833.62,-157.88 833.62,-138.62 983.88,-138.62 983.88,-157.88"/>
<text xml:space="preserve" text-anchor="middle" x="908.75" y="-144.38" font-family="Helvetica,sans-Serif" font-size="10.00">include/Optimist/RootFinder.hh</text>
</a>
</g>
</g>
<!-- Node4&#45;&gt;Node9 -->
<g id="edge8_Node000004_Node000009" class="edge">
<title>Node4&#45;&gt;Node9</title>
<g id="a_edge8_Node000004_Node000009"><a xlink:title=" ">
<path fill="none" stroke="#63b8ff" d="M1013.43,-194.57C987.66,-183.41 951.85,-167.91 929.5,-158.23"/>
<polygon fill="#63b8ff" stroke="#63b8ff" points="1011.84,-197.69 1022.41,-198.45 1014.62,-191.27 1011.84,-197.69"/>
</a>
</g>
</g>
<!-- Node6 -->
<g id="Node000006" class="node">
<title>Node6</title>
<g id="a_Node000006"><a xlink:href="_nelder_mead_8hh.html" target="_top" xlink:title=" ">
<polygon fill="white" stroke="#666666" points="131.5,-97 0,-97 0,-66.5 131.5,-66.5 131.5,-97"/>
<text xml:space="preserve" text-anchor="start" x="8" y="-83.5" font-family="Helvetica,sans-Serif" font-size="10.00">include/Optimist/Optimizer</text>
<text xml:space="preserve" text-anchor="middle" x="65.75" y="-72.25" font-family="Helvetica,sans-Serif" font-size="10.00">/NelderMead.hh</text>
</a>
</g>
</g>
<!-- Node5&#45;&gt;Node6 -->
<g id="edge5_Node000005_Node000006" class="edge">
<title>Node5&#45;&gt;Node6</title>
<g id="a_edge5_Node000005_Node000006"><a xlink:title=" ">
<path fill="none" stroke="#63b8ff" d="M247.99,-134.99C210.67,-124.29 156.45,-108.75 116.85,-97.4"/>
<polygon fill="#63b8ff" stroke="#63b8ff" points="246.96,-138.34 257.54,-137.73 248.89,-131.61 246.96,-138.34"/>
</a>
</g>
</g>
<!-- Node7 -->
<g id="Node000007" class="node">
<title>Node7</title>
<g id="a_Node000007"><a xlink:href="_particle_swarm_8hh.html" target="_top" xlink:title=" ">
<polygon fill="white" stroke="#666666" points="281.5,-97 150,-97 150,-66.5 281.5,-66.5 281.5,-97"/>
<text xml:space="preserve" text-anchor="start" x="158" y="-83.5" font-family="Helvetica,sans-Serif" font-size="10.00">include/Optimist/Optimizer</text>
<text xml:space="preserve" text-anchor="middle" x="215.75" y="-72.25" font-family="Helvetica,sans-Serif" font-size="10.00">/ParticleSwarm.hh</text>
</a>
</g>
</g>
<!-- Node5&#45;&gt;Node7 -->
<g id="edge6_Node000005_Node000007" class="edge">
<title>Node5&#45;&gt;Node7</title>
<g id="a_edge6_Node000005_Node000007"><a xlink:title=" ">
<path fill="none" stroke="#63b8ff" d="M271.9,-131.04C259.86,-120.69 244.37,-107.37 232.72,-97.34"/>
<polygon fill="#63b8ff" stroke="#63b8ff" points="269.31,-133.43 279.17,-137.29 273.87,-128.12 269.31,-133.43"/>
</a>
</g>
</g>
<!-- Node8 -->
<g id="Node000008" class="node">
<title>Node8</title>
<g id="a_Node000008"><a xlink:href="_pattern_search_8hh.html" target="_top" xlink:title=" ">
<polygon fill="white" stroke="#666666" points="431.5,-97 300,-97 300,-66.5 431.5,-66.5 431.5,-97"/>
<text xml:space="preserve" text-anchor="start" x="308" y="-83.5" font-family="Helvetica,sans-Serif" font-size="10.00">include/Optimist/Optimizer</text>
<text xml:space="preserve" text-anchor="middle" x="365.75" y="-72.25" font-family="Helvetica,sans-Serif" font-size="10.00">/PatternSearch.hh</text>
</a>
</g>
</g>
<!-- Node5&#45;&gt;Node8 -->
<g id="edge7_Node000005_Node000008" class="edge">
<title>Node5&#45;&gt;Node8</title>
<g id="a_edge7_Node000005_Node000008"><a xlink:title=" ">
<path fill="none" stroke="#63b8ff" d="M309.6,-131.04C321.64,-120.69 337.13,-107.37 348.78,-97.34"/>
<polygon fill="#63b8ff" stroke="#63b8ff" points="307.63,-128.12 302.33,-137.29 312.19,-133.43 307.63,-128.12"/>
</a>
</g>
</g>
<!-- Node10 -->
<g id="Node000010" class="node">
<title>Node10</title>
<g id="a_Node000010"><a xlink:href="_bracketing_8hh.html" target="_top" xlink:title=" ">
<polygon fill="white" stroke="#666666" points="587.5,-97 450,-97 450,-66.5 587.5,-66.5 587.5,-97"/>
<text xml:space="preserve" text-anchor="start" x="458" y="-83.5" font-family="Helvetica,sans-Serif" font-size="10.00">include/Optimist/RootFinder</text>
<text xml:space="preserve" text-anchor="middle" x="518.75" y="-72.25" font-family="Helvetica,sans-Serif" font-size="10.00">/Bracketing.hh</text>
</a>
</g>
</g>
<!-- Node9&#45;&gt;Node10 -->
<g id="edge9_Node000009_Node000010" class="edge">
<title>Node9&#45;&gt;Node10</title>
<g id="a_edge9_Node000009_Node000010"><a xlink:title=" ">
<path fill="none" stroke="#63b8ff" d="M838.71,-136.4C775.43,-126.5 679.77,-111.27 596.75,-97 593.77,-96.49 590.72,-95.96 587.64,-95.42"/>
<polygon fill="#63b8ff" stroke="#63b8ff" points="837.83,-139.81 848.25,-137.89 838.91,-132.89 837.83,-139.81"/>
</a>
</g>
</g>
<!-- Node13 -->
<g id="Node000013" class="node">
<title>Node13</title>
<g id="a_Node000013"><a xlink:href="_chebyshev_8hh.html" target="_top" xlink:title=" ">
<polygon fill="white" stroke="#666666" points="743.5,-97 606,-97 606,-66.5 743.5,-66.5 743.5,-97"/>
<text xml:space="preserve" text-anchor="start" x="614" y="-83.5" font-family="Helvetica,sans-Serif" font-size="10.00">include/Optimist/RootFinder</text>
<text xml:space="preserve" text-anchor="middle" x="674.75" y="-72.25" font-family="Helvetica,sans-Serif" font-size="10.00">/Chebyshev.hh</text>
</a>
</g>
</g>
<!-- Node9&#45;&gt;Node13 -->
<g id="edge12_Node000009_Node000013" class="edge">
<title>Node9&#45;&gt;Node13</title>
<g id="a_edge12_Node000009_Node000013"><a xlink:title=" ">
<path fill="none" stroke="#63b8ff" d="M864.78,-135.13C825.95,-124.43 769.25,-108.8 727.9,-97.4"/>
<polygon fill="#63b8ff" stroke="#63b8ff" points="863.69,-138.46 874.26,-137.74 865.55,-131.71 863.69,-138.46"/>
</a>
</g>
</g>
<!-- Node14 -->
<g id="Node000014" class="node">
<title>Node14</title>
<g id="a_Node000014"><a xlink:href="_halley_8hh.html" target="_top" xlink:title=" ">
<polygon fill="white" stroke="#666666" points="899.5,-97 762,-97 762,-66.5 899.5,-66.5 899.5,-97"/>
<text xml:space="preserve" text-anchor="start" x="770" y="-83.5" font-family="Helvetica,sans-Serif" font-size="10.00">include/Optimist/RootFinder</text>
<text xml:space="preserve" text-anchor="middle" x="830.75" y="-72.25" font-family="Helvetica,sans-Serif" font-size="10.00">/Halley.hh</text>
</a>
</g>
</g>
<!-- Node9&#45;&gt;Node14 -->
<g id="edge13_Node000009_Node000014" class="edge">
<title>Node9&#45;&gt;Node14</title>
<g id="a_edge13_Node000009_Node000014"><a xlink:title=" ">
<path fill="none" stroke="#63b8ff" d="M889.15,-131.04C876.63,-120.69 860.52,-107.37 848.39,-97.34"/>
<polygon fill="#63b8ff" stroke="#63b8ff" points="886.8,-133.64 896.74,-137.32 891.26,-128.25 886.8,-133.64"/>
</a>
</g>
</g>
<!-- Node15 -->
<g id="Node000015" class="node">
<title>Node15</title>
<g id="a_Node000015"><a xlink:href="_newton_8hh.html" target="_top" xlink:title=" ">
<polygon fill="white" stroke="#666666" points="1055.5,-97 918,-97 918,-66.5 1055.5,-66.5 1055.5,-97"/>
<text xml:space="preserve" text-anchor="start" x="926" y="-83.5" font-family="Helvetica,sans-Serif" font-size="10.00">include/Optimist/RootFinder</text>
<text xml:space="preserve" text-anchor="middle" x="986.75" y="-72.25" font-family="Helvetica,sans-Serif" font-size="10.00">/Newton.hh</text>
</a>
</g>
</g>
<!-- Node9&#45;&gt;Node15 -->
<g id="edge14_Node000009_Node000015" class="edge">
<title>Node9&#45;&gt;Node15</title>
<g id="a_edge14_Node000009_Node000015"><a xlink:title=" ">
<path fill="none" stroke="#63b8ff" d="M928.35,-131.04C940.87,-120.69 956.98,-107.37 969.11,-97.34"/>
<polygon fill="#63b8ff" stroke="#63b8ff" points="926.24,-128.25 920.76,-137.32 930.7,-133.64 926.24,-128.25"/>
</a>
</g>
</g>
<!-- Node16 -->
<g id="Node000016" class="node">
<title>Node16</title>
<g id="a_Node000016"><a xlink:href="_newton_raphson_8hh.html" target="_top" xlink:title=" ">
<polygon fill="white" stroke="#666666" points="1211.5,-97 1074,-97 1074,-66.5 1211.5,-66.5 1211.5,-97"/>
<text xml:space="preserve" text-anchor="start" x="1082" y="-83.5" font-family="Helvetica,sans-Serif" font-size="10.00">include/Optimist/RootFinder</text>
<text xml:space="preserve" text-anchor="middle" x="1142.75" y="-72.25" font-family="Helvetica,sans-Serif" font-size="10.00">/NewtonRaphson.hh</text>
</a>
</g>
</g>
<!-- Node9&#45;&gt;Node16 -->
<g id="edge15_Node000009_Node000016" class="edge">
<title>Node9&#45;&gt;Node16</title>
<g id="a_edge15_Node000009_Node000016"><a xlink:title=" ">
<path fill="none" stroke="#63b8ff" d="M952.72,-135.13C991.55,-124.43 1048.25,-108.8 1089.6,-97.4"/>
<polygon fill="#63b8ff" stroke="#63b8ff" points="951.95,-131.71 943.24,-137.74 953.81,-138.46 951.95,-131.71"/>
</a>
</g>
</g>
<!-- Node17 -->
<g id="Node000017" class="node">
<title>Node17</title>
<g id="a_Node000017"><a xlink:href="_quasi_newton_8hh.html" target="_top" xlink:title=" ">
<polygon fill="white" stroke="#666666" points="1367.5,-97 1230,-97 1230,-66.5 1367.5,-66.5 1367.5,-97"/>
<text xml:space="preserve" text-anchor="start" x="1238" y="-83.5" font-family="Helvetica,sans-Serif" font-size="10.00">include/Optimist/RootFinder</text>
<text xml:space="preserve" text-anchor="middle" x="1298.75" y="-72.25" font-family="Helvetica,sans-Serif" font-size="10.00">/QuasiNewton.hh</text>
</a>
</g>
</g>
<!-- Node9&#45;&gt;Node17 -->
<g id="edge16_Node000009_Node000017" class="edge">
<title>Node9&#45;&gt;Node17</title>
<g id="a_edge16_Node000009_Node000017"><a xlink:title=" ">
<path fill="none" stroke="#63b8ff" d="M972.85,-136.3C979.57,-135.17 986.3,-134.06 992.75,-133 1093.99,-116.42 1119.62,-114.22 1220.75,-97 1223.74,-96.49 1226.78,-95.97 1229.86,-95.43"/>
<polygon fill="#63b8ff" stroke="#63b8ff" points="972.38,-132.83 963.1,-137.94 973.54,-139.73 972.38,-132.83"/>
</a>
</g>
</g>
<!-- Node20 -->
<g id="Node000020" class="node">
<title>Node20</title>
<g id="a_Node000020"><a xlink:href="_varona_8hh.html" target="_top" xlink:title=" ">
<polygon fill="white" stroke="#666666" points="1523.5,-97 1386,-97 1386,-66.5 1523.5,-66.5 1523.5,-97"/>
<text xml:space="preserve" text-anchor="start" x="1394" y="-83.5" font-family="Helvetica,sans-Serif" font-size="10.00">include/Optimist/RootFinder</text>
<text xml:space="preserve" text-anchor="middle" x="1454.75" y="-72.25" font-family="Helvetica,sans-Serif" font-size="10.00">/Varona.hh</text>
</a>
</g>
</g>
<!-- Node9&#45;&gt;Node20 -->
<g id="edge19_Node000009_Node000020" class="edge">
<title>Node9&#45;&gt;Node20</title>
<g id="a_edge19_Node000009_Node000020"><a xlink:title=" ">
<path fill="none" stroke="#63b8ff" d="M969.66,-136.37C977.42,-135.14 985.26,-133.98 992.75,-133 1162.7,-110.65 1206.94,-120.43 1376.75,-97 1379.75,-96.59 1382.81,-96.14 1385.9,-95.66"/>
<polygon fill="#63b8ff" stroke="#63b8ff" points="969.21,-132.9 959.9,-137.95 970.33,-139.8 969.21,-132.9"/>
</a>
</g>
</g>
<!-- Node11 -->
<g id="Node000011" class="node">
<title>Node11</title>
<g id="a_Node000011"><a xlink:href="_algo748_8hh.html" target="_top" xlink:title=" ">
<polygon fill="white" stroke="#666666" points="509.5,-30.5 372,-30.5 372,0 509.5,0 509.5,-30.5"/>
<text xml:space="preserve" text-anchor="start" x="380" y="-17" font-family="Helvetica,sans-Serif" font-size="10.00">include/Optimist/RootFinder</text>
<text xml:space="preserve" text-anchor="middle" x="440.75" y="-5.75" font-family="Helvetica,sans-Serif" font-size="10.00">/Algo748.hh</text>
</a>
</g>
</g>
<!-- Node10&#45;&gt;Node11 -->
<g id="edge10_Node000010_Node000011" class="edge">
<title>Node10&#45;&gt;Node11</title>
<g id="a_edge10_Node000010_Node000011"><a xlink:title=" ">
<path fill="none" stroke="#63b8ff" d="M492.47,-59.02C481.24,-49.73 468.44,-39.15 458.38,-30.83"/>
<polygon fill="#63b8ff" stroke="#63b8ff" points="489.95,-61.47 499.88,-65.15 494.41,-56.08 489.95,-61.47"/>
</a>
</g>
</g>
<!-- Node12 -->
<g id="Node000012" class="node">
<title>Node12</title>
<g id="a_Node000012"><a xlink:href="_chandrupatla_8hh.html" target="_top" xlink:title=" ">
<polygon fill="white" stroke="#666666" points="665.5,-30.5 528,-30.5 528,0 665.5,0 665.5,-30.5"/>
<text xml:space="preserve" text-anchor="start" x="536" y="-17" font-family="Helvetica,sans-Serif" font-size="10.00">include/Optimist/RootFinder</text>
<text xml:space="preserve" text-anchor="middle" x="596.75" y="-5.75" font-family="Helvetica,sans-Serif" font-size="10.00">/Chandrupatla.hh</text>
</a>
</g>
</g>
<!-- Node10&#45;&gt;Node12 -->
<g id="edge11_Node000010_Node000012" class="edge">
<title>Node10&#45;&gt;Node12</title>
<g id="a_edge11_Node000010_Node000012"><a xlink:title=" ">
<path fill="none" stroke="#63b8ff" d="M545.03,-59.02C556.26,-49.73 569.06,-39.15 579.12,-30.83"/>
<polygon fill="#63b8ff" stroke="#63b8ff" points="543.09,-56.08 537.62,-65.15 547.55,-61.47 543.09,-56.08"/>
</a>
</g>
</g>
<!-- Node18 -->
<g id="Node000018" class="node">
<title>Node18</title>
<g id="a_Node000018"><a xlink:href="_broyden_8hh.html" target="_top" xlink:title=" ">
<polygon fill="white" stroke="#666666" points="1289.5,-30.5 1152,-30.5 1152,0 1289.5,0 1289.5,-30.5"/>
<text xml:space="preserve" text-anchor="start" x="1160" y="-17" font-family="Helvetica,sans-Serif" font-size="10.00">include/Optimist/RootFinder</text>
<text xml:space="preserve" text-anchor="middle" x="1220.75" y="-5.75" font-family="Helvetica,sans-Serif" font-size="10.00">/Broyden.hh</text>
</a>
</g>
</g>
<!-- Node17&#45;&gt;Node18 -->
<g id="edge17_Node000017_Node000018" class="edge">
<title>Node17&#45;&gt;Node18</title>
<g id="a_edge17_Node000017_Node000018"><a xlink:title=" ">
<path fill="none" stroke="#63b8ff" d="M1272.47,-59.02C1261.24,-49.73 1248.44,-39.15 1238.38,-30.83"/>
<polygon fill="#63b8ff" stroke="#63b8ff" points="1269.95,-61.47 1279.88,-65.15 1274.41,-56.08 1269.95,-61.47"/>
</a>
</g>
</g>
<!-- Node19 -->
<g id="Node000019" class="node">
<title>Node19</title>
<g id="a_Node000019"><a xlink:href="_greenstadt_8hh.html" target="_top" xlink:title=" ">
<polygon fill="white" stroke="#666666" points="1445.5,-30.5 1308,-30.5 1308,0 1445.5,0 1445.5,-30.5"/>
<text xml:space="preserve" text-anchor="start" x="1316" y="-17" font-family="Helvetica,sans-Serif" font-size="10.00">include/Optimist/RootFinder</text>
<text xml:space="preserve" text-anchor="middle" x="1376.75" y="-5.75" font-family="Helvetica,sans-Serif" font-size="10.00">/Greenstadt.hh</text>
</a>
</g>
</g>
<!-- Node17&#45;&gt;Node19 -->
<g id="edge18_Node000017_Node000019" class="edge">
<title>Node17&#45;&gt;Node19</title>
<g id="a_edge18_Node000017_Node000019"><a xlink:title=" ">
<path fill="none" stroke="#63b8ff" d="M1325.03,-59.02C1336.26,-49.73 1349.06,-39.15 1359.12,-30.83"/>
<polygon fill="#63b8ff" stroke="#63b8ff" points="1323.09,-56.08 1317.62,-65.15 1327.55,-61.47 1323.09,-56.08"/>
</a>
</g>
</g>
<!-- Node22 -->
<g id="Node000022" class="node">
<title>Node22</title>
<g id="a_Node000022"><a xlink:href="_booth_8hh.html" target="_top" xlink:title=" ">
<polygon fill="white" stroke="#666666" points="1125.38,-163.5 1002.12,-163.5 1002.12,-133 1125.38,-133 1125.38,-163.5"/>
<text xml:space="preserve" text-anchor="start" x="1010.12" y="-150" font-family="Helvetica,sans-Serif" font-size="10.00">include/Optimist/TestSet</text>
<text xml:space="preserve" text-anchor="middle" x="1063.75" y="-138.75" font-family="Helvetica,sans-Serif" font-size="10.00">/Booth.hh</text>
</a>
</g>
</g>
<!-- Node21&#45;&gt;Node22 -->
<g id="edge21_Node000021_Node000022" class="edge">
<title>Node21&#45;&gt;Node22</title>
<g id="a_edge21_Node000021_Node000022"><a xlink:title=" ">
<path fill="none" stroke="#63b8ff" d="M1618.03,-204.88C1508.48,-199.73 1305.42,-187.67 1133.75,-163.5 1131.05,-163.12 1128.29,-162.7 1125.52,-162.25"/>
<polygon fill="#63b8ff" stroke="#63b8ff" points="1617.64,-208.37 1627.79,-205.33 1617.97,-201.37 1617.64,-208.37"/>
</a>
</g>
</g>
<!-- Node23 -->
<g id="Node000023" class="node">
<title>Node23</title>
<g id="a_Node000023"><a xlink:href="_brown_8hh.html" target="_top" xlink:title=" ">
<polygon fill="white" stroke="#666666" points="1266.38,-163.5 1143.12,-163.5 1143.12,-133 1266.38,-133 1266.38,-163.5"/>
<text xml:space="preserve" text-anchor="start" x="1151.12" y="-150" font-family="Helvetica,sans-Serif" font-size="10.00">include/Optimist/TestSet</text>
<text xml:space="preserve" text-anchor="middle" x="1204.75" y="-138.75" font-family="Helvetica,sans-Serif" font-size="10.00">/Brown.hh</text>
</a>
</g>
</g>
<!-- Node21&#45;&gt;Node23 -->
<g id="edge22_Node000021_Node000023" class="edge">
<title>Node21&#45;&gt;Node23</title>
<g id="a_edge22_Node000021_Node000023"><a xlink:title=" ">
<path fill="none" stroke="#63b8ff" d="M1617.57,-201.97C1532.28,-194.88 1393.54,-181.81 1274.75,-163.5 1272.05,-163.08 1269.3,-162.63 1266.53,-162.16"/>
<polygon fill="#63b8ff" stroke="#63b8ff" points="1617.23,-205.45 1627.48,-202.78 1617.8,-198.47 1617.23,-205.45"/>
</a>
</g>
</g>
<!-- Node24 -->
<g id="Node000024" class="node">
<title>Node24</title>
<g id="a_Node000024"><a xlink:href="_cos_8hh.html" target="_top" xlink:title=" ">
<polygon fill="white" stroke="#666666" points="1407.38,-163.5 1284.12,-163.5 1284.12,-133 1407.38,-133 1407.38,-163.5"/>
<text xml:space="preserve" text-anchor="start" x="1292.12" y="-150" font-family="Helvetica,sans-Serif" font-size="10.00">include/Optimist/TestSet</text>
<text xml:space="preserve" text-anchor="middle" x="1345.75" y="-138.75" font-family="Helvetica,sans-Serif" font-size="10.00">/Cos.hh</text>
</a>
</g>
</g>
<!-- Node21&#45;&gt;Node24 -->
<g id="edge23_Node000021_Node000024" class="edge">
<title>Node21&#45;&gt;Node24</title>
<g id="a_edge23_Node000021_Node000024"><a xlink:title=" ">
<path fill="none" stroke="#63b8ff" d="M1624.1,-197.38C1567.12,-188.84 1486.29,-176.25 1415.75,-163.5 1413.07,-163.01 1410.32,-162.51 1407.56,-161.99"/>
<polygon fill="#63b8ff" stroke="#63b8ff" points="1623.27,-200.79 1633.68,-198.8 1624.3,-193.87 1623.27,-200.79"/>
</a>
</g>
</g>
<!-- Node25 -->
<g id="Node000025" class="node">
<title>Node25</title>
<g id="a_Node000025"><a xlink:href="_cosh_8hh.html" target="_top" xlink:title=" ">
<polygon fill="white" stroke="#666666" points="1548.38,-163.5 1425.12,-163.5 1425.12,-133 1548.38,-133 1548.38,-163.5"/>
<text xml:space="preserve" text-anchor="start" x="1433.12" y="-150" font-family="Helvetica,sans-Serif" font-size="10.00">include/Optimist/TestSet</text>
<text xml:space="preserve" text-anchor="middle" x="1486.75" y="-138.75" font-family="Helvetica,sans-Serif" font-size="10.00">/Cosh.hh</text>
</a>
</g>
</g>
<!-- Node21&#45;&gt;Node25 -->
<g id="edge24_Node000021_Node000025" class="edge">
<title>Node21&#45;&gt;Node25</title>
<g id="a_edge24_Node000021_Node000025"><a xlink:title=" ">
<path fill="none" stroke="#63b8ff" d="M1654.47,-196.05C1621.13,-186.75 1574.9,-173.85 1539.41,-163.94"/>
<polygon fill="#63b8ff" stroke="#63b8ff" points="1653.21,-199.33 1663.79,-198.65 1655.09,-192.59 1653.21,-199.33"/>
</a>
</g>
</g>
<!-- Node26 -->
<g id="Node000026" class="node">
<title>Node26</title>
<g id="a_Node000026"><a xlink:href="_elliptic_paraboloid_8hh.html" target="_top" xlink:title=" ">
<polygon fill="white" stroke="#666666" points="1689.38,-163.5 1566.12,-163.5 1566.12,-133 1689.38,-133 1689.38,-163.5"/>
<text xml:space="preserve" text-anchor="start" x="1574.12" y="-150" font-family="Helvetica,sans-Serif" font-size="10.00">include/Optimist/TestSet</text>
<text xml:space="preserve" text-anchor="middle" x="1627.75" y="-138.75" font-family="Helvetica,sans-Serif" font-size="10.00">/EllipticParaboloid.hh</text>
</a>
</g>
</g>
<!-- Node21&#45;&gt;Node26 -->
<g id="edge25_Node000021_Node000026" class="edge">
<title>Node21&#45;&gt;Node26</title>
<g id="a_edge25_Node000021_Node000026"><a xlink:title=" ">
<path fill="none" stroke="#63b8ff" d="M1678.33,-191.79C1667.89,-183.01 1655.12,-172.27 1645.03,-163.78"/>
<polygon fill="#63b8ff" stroke="#63b8ff" points="1676.05,-194.45 1685.96,-198.21 1680.56,-189.09 1676.05,-194.45"/>
</a>
</g>
</g>
<!-- Node27 -->
<g id="Node000027" class="node">
<title>Node27</title>
<g id="a_Node000027"><a xlink:href="_linear_8hh.html" target="_top" xlink:title=" ">
<polygon fill="white" stroke="#666666" points="1830.38,-163.5 1707.12,-163.5 1707.12,-133 1830.38,-133 1830.38,-163.5"/>
<text xml:space="preserve" text-anchor="start" x="1715.12" y="-150" font-family="Helvetica,sans-Serif" font-size="10.00">include/Optimist/TestSet</text>
<text xml:space="preserve" text-anchor="middle" x="1768.75" y="-138.75" font-family="Helvetica,sans-Serif" font-size="10.00">/Linear.hh</text>
</a>
</g>
</g>
<!-- Node21&#45;&gt;Node27 -->
<g id="edge26_Node000021_Node000027" class="edge">
<title>Node21&#45;&gt;Node27</title>
<g id="a_edge26_Node000021_Node000027"><a xlink:title=" ">
<path fill="none" stroke="#63b8ff" d="M1717.13,-192.06C1727.78,-183.23 1740.88,-172.36 1751.23,-163.78"/>
<polygon fill="#63b8ff" stroke="#63b8ff" points="1715.16,-189.14 1709.7,-198.22 1719.63,-194.53 1715.16,-189.14"/>
</a>
</g>
</g>
<!-- Node28 -->
<g id="Node000028" class="node">
<title>Node28</title>
<g id="a_Node000028"><a xlink:href="_quadratic_8hh.html" target="_top" xlink:title=" ">
<polygon fill="white" stroke="#666666" points="1971.38,-163.5 1848.12,-163.5 1848.12,-133 1971.38,-133 1971.38,-163.5"/>
<text xml:space="preserve" text-anchor="start" x="1856.12" y="-150" font-family="Helvetica,sans-Serif" font-size="10.00">include/Optimist/TestSet</text>
<text xml:space="preserve" text-anchor="middle" x="1909.75" y="-138.75" font-family="Helvetica,sans-Serif" font-size="10.00">/Quadratic.hh</text>
</a>
</g>
</g>
<!-- Node21&#45;&gt;Node28 -->
<g id="edge27_Node000021_Node000028" class="edge">
<title>Node21&#45;&gt;Node28</title>
<g id="a_edge27_Node000021_Node000028"><a xlink:title=" ">
<path fill="none" stroke="#63b8ff" d="M1741.24,-196.05C1774.73,-186.75 1821.18,-173.85 1856.84,-163.94"/>
<polygon fill="#63b8ff" stroke="#63b8ff" points="1740.57,-192.6 1731.87,-198.65 1742.44,-199.35 1740.57,-192.6"/>
</a>
</g>
</g>
<!-- Node29 -->
<g id="Node000029" class="node">
<title>Node29</title>
<g id="a_Node000029"><a xlink:href="_rosenbrock_8hh.html" target="_top" xlink:title=" ">
<polygon fill="white" stroke="#666666" points="2112.38,-163.5 1989.12,-163.5 1989.12,-133 2112.38,-133 2112.38,-163.5"/>
<text xml:space="preserve" text-anchor="start" x="1997.12" y="-150" font-family="Helvetica,sans-Serif" font-size="10.00">include/Optimist/TestSet</text>
<text xml:space="preserve" text-anchor="middle" x="2050.75" y="-138.75" font-family="Helvetica,sans-Serif" font-size="10.00">/Rosenbrock.hh</text>
</a>
</g>
</g>
<!-- Node21&#45;&gt;Node29 -->
<g id="edge28_Node000021_Node000029" class="edge">
<title>Node21&#45;&gt;Node29</title>
<g id="a_edge28_Node000021_Node000029"><a xlink:title=" ">
<path fill="none" stroke="#63b8ff" d="M1771.66,-197.39C1828.85,-188.86 1909.97,-176.28 1980.75,-163.5 1983.44,-163.02 1986.18,-162.51 1988.94,-161.99"/>
<polygon fill="#63b8ff" stroke="#63b8ff" points="1771.42,-193.89 1762.05,-198.82 1772.45,-200.81 1771.42,-193.89"/>
</a>
</g>
</g>
<!-- Node30 -->
<g id="Node000030" class="node">
<title>Node30</title>
<g id="a_Node000030"><a xlink:href="_schaffer2_8hh.html" target="_top" xlink:title=" ">
<polygon fill="white" stroke="#666666" points="2253.38,-163.5 2130.12,-163.5 2130.12,-133 2253.38,-133 2253.38,-163.5"/>
<text xml:space="preserve" text-anchor="start" x="2138.12" y="-150" font-family="Helvetica,sans-Serif" font-size="10.00">include/Optimist/TestSet</text>
<text xml:space="preserve" text-anchor="middle" x="2191.75" y="-138.75" font-family="Helvetica,sans-Serif" font-size="10.00">/Schaffer2.hh</text>
</a>
</g>
</g>
<!-- Node21&#45;&gt;Node30 -->
<g id="edge29_Node000021_Node000030" class="edge">
<title>Node21&#45;&gt;Node30</title>
<g id="a_edge29_Node000021_Node000030"><a xlink:title=" ">
<path fill="none" stroke="#63b8ff" d="M1777.74,-202.01C1863.21,-194.94 2002.5,-181.87 2121.75,-163.5 2124.45,-163.08 2127.2,-162.64 2129.97,-162.16"/>
<polygon fill="#63b8ff" stroke="#63b8ff" points="1777.49,-198.52 1767.81,-202.82 1778.07,-205.49 1777.49,-198.52"/>
</a>
</g>
</g>
<!-- Node31 -->
<g id="Node000031" class="node">
<title>Node31</title>
<g id="a_Node000031"><a xlink:href="_sin_8hh.html" target="_top" xlink:title=" ">
<polygon fill="white" stroke="#666666" points="2394.38,-163.5 2271.12,-163.5 2271.12,-133 2394.38,-133 2394.38,-163.5"/>
<text xml:space="preserve" text-anchor="start" x="2279.12" y="-150" font-family="Helvetica,sans-Serif" font-size="10.00">include/Optimist/TestSet</text>
<text xml:space="preserve" text-anchor="middle" x="2332.75" y="-138.75" font-family="Helvetica,sans-Serif" font-size="10.00">/Sin.hh</text>
</a>
</g>
</g>
<!-- Node21&#45;&gt;Node31 -->
<g id="edge30_Node000021_Node000031" class="edge">
<title>Node21&#45;&gt;Node31</title>
<g id="a_edge30_Node000021_Node000031"><a xlink:title=" ">
<path fill="none" stroke="#63b8ff" d="M1777.61,-204.89C1887.36,-199.75 2090.77,-187.7 2262.75,-163.5 2265.45,-163.12 2268.21,-162.7 2270.98,-162.25"/>
<polygon fill="#63b8ff" stroke="#63b8ff" points="1777.66,-201.38 1767.83,-205.34 1777.98,-208.38 1777.66,-201.38"/>
</a>
</g>
</g>
<!-- Node32 -->
<g id="Node000032" class="node">
<title>Node32</title>
<g id="a_Node000032"><a xlink:href="_sinh_8hh.html" target="_top" xlink:title=" ">
<polygon fill="white" stroke="#666666" points="2535.38,-163.5 2412.12,-163.5 2412.12,-133 2535.38,-133 2535.38,-163.5"/>
<text xml:space="preserve" text-anchor="start" x="2420.12" y="-150" font-family="Helvetica,sans-Serif" font-size="10.00">include/Optimist/TestSet</text>
<text xml:space="preserve" text-anchor="middle" x="2473.75" y="-138.75" font-family="Helvetica,sans-Serif" font-size="10.00">/Sinh.hh</text>
</a>
</g>
</g>
<!-- Node21&#45;&gt;Node32 -->
<g id="edge31_Node000021_Node000032" class="edge">
<title>Node21&#45;&gt;Node32</title>
<g id="a_edge31_Node000021_Node000032"><a xlink:title=" ">
<path fill="none" stroke="#63b8ff" d="M1777.71,-206.65C1908.95,-203.43 2178.03,-193.46 2403.75,-163.5 2406.45,-163.14 2409.21,-162.74 2411.99,-162.3"/>
<polygon fill="#63b8ff" stroke="#63b8ff" points="1777.63,-203.15 1767.72,-206.89 1777.8,-210.15 1777.63,-203.15"/>
</a>
</g>
</g>
<!-- Node33 -->
<g id="Node000033" class="node">
<title>Node33</title>
<g id="a_Node000033"><a xlink:href="_test11_8hh.html" target="_top" xlink:title=" ">
<polygon fill="white" stroke="#666666" points="2676.38,-163.5 2553.12,-163.5 2553.12,-133 2676.38,-133 2676.38,-163.5"/>
<text xml:space="preserve" text-anchor="start" x="2561.12" y="-150" font-family="Helvetica,sans-Serif" font-size="10.00">include/Optimist/TestSet</text>
<text xml:space="preserve" text-anchor="middle" x="2614.75" y="-138.75" font-family="Helvetica,sans-Serif" font-size="10.00">/Test11.hh</text>
</a>
</g>
</g>
<!-- Node21&#45;&gt;Node33 -->
<g id="edge32_Node000021_Node000033" class="edge">
<title>Node21&#45;&gt;Node33</title>
<g id="a_edge32_Node000021_Node000033"><a xlink:title=" ">
<path fill="none" stroke="#63b8ff" d="M1777.8,-207.85C1928.52,-206.46 2264.47,-199.21 2544.75,-163.5 2547.46,-163.16 2550.21,-162.76 2553,-162.34"/>
<polygon fill="#63b8ff" stroke="#63b8ff" points="1777.88,-204.35 1767.91,-207.93 1777.94,-211.35 1777.88,-204.35"/>
</a>
</g>
</g>
</g>
</svg>
