<?xml version="1.0" encoding="UTF-8" standalone="no"?>
<!DOCTYPE svg PUBLIC "-//W3C//DTD SVG 1.1//EN"
 "http://www.w3.org/Graphics/SVG/1.1/DTD/svg11.dtd">
<!-- Generated by graphviz version 12.2.1 (20241206.2353)
 -->
<!-- Title: include/Optimist.hh Pages: 1 -->
<svg width="1872pt" height="94pt"
 viewBox="0.00 0.00 1871.50 93.75" xmlns="http://www.w3.org/2000/svg" xmlns:xlink="http://www.w3.org/1999/xlink">
<g id="graph0" class="graph" transform="scale(1 1) rotate(0) translate(4 89.75)">
<title>include/Optimist.hh</title>
<!-- Node1 -->
<g id="Node000001" class="node">
<title>Node1</title>
<g id="a_Node000001"><a xlink:title=" ">
<polygon fill="#999999" stroke="#666666" points="637.75,-85.75 537.75,-85.75 537.75,-66.5 637.75,-66.5 637.75,-85.75"/>
<text text-anchor="middle" x="587.75" y="-72.25" font-family="Helvetica,sans-Serif" font-size="10.00">include/Optimist.hh</text>
</a>
</g>
</g>
<!-- Node2 -->
<g id="Node000002" class="node">
<title>Node2</title>
<g id="a_Node000002"><a xlink:title=" ">
<polygon fill="#e0e0e0" stroke="#999999" points="53.5,-24.88 0,-24.88 0,-5.63 53.5,-5.63 53.5,-24.88"/>
<text text-anchor="middle" x="26.75" y="-11.38" font-family="Helvetica,sans-Serif" font-size="10.00">iostream</text>
</a>
</g>
</g>
<!-- Node1&#45;&gt;Node2 -->
<g id="edge1_Node000001_Node000002" class="edge">
<title>Node1&#45;&gt;Node2</title>
<g id="a_edge1_Node000001_Node000002"><a xlink:title=" ">
<path fill="none" stroke="#63b8ff" d="M537.41,-75.69C443,-75.68 233.5,-70.63 62.75,-30.5 60.99,-30.09 59.2,-29.6 57.41,-29.07"/>
<polygon fill="#63b8ff" stroke="#63b8ff" points="58.62,-25.78 48.03,-25.8 56.32,-32.39 58.62,-25.78"/>
</a>
</g>
</g>
<!-- Node3 -->
<g id="Node000003" class="node">
<title>Node3</title>
<g id="a_Node000003"><a xlink:title=" ">
<polygon fill="#e0e0e0" stroke="#999999" points="100.15,-24.88 71.35,-24.88 71.35,-5.63 100.15,-5.63 100.15,-24.88"/>
<text text-anchor="middle" x="85.75" y="-11.38" font-family="Helvetica,sans-Serif" font-size="10.00">ios</text>
</a>
</g>
</g>
<!-- Node1&#45;&gt;Node3 -->
<g id="edge2_Node000001_Node000003" class="edge">
<title>Node1&#45;&gt;Node3</title>
<g id="a_edge2_Node000001_Node000003"><a xlink:title=" ">
<path fill="none" stroke="#63b8ff" d="M537.6,-73.36C431.43,-69.15 187.24,-56.84 108.75,-30.5 108.52,-30.42 108.28,-30.34 108.05,-30.26"/>
<polygon fill="#63b8ff" stroke="#63b8ff" points="109.75,-27.19 99.24,-25.88 106.63,-33.46 109.75,-27.19"/>
</a>
</g>
</g>
<!-- Node4 -->
<g id="Node000004" class="node">
<title>Node4</title>
<g id="a_Node000004"><a xlink:title=" ">
<polygon fill="#e0e0e0" stroke="#999999" points="167.62,-24.88 117.88,-24.88 117.88,-5.63 167.62,-5.63 167.62,-24.88"/>
<text text-anchor="middle" x="142.75" y="-11.38" font-family="Helvetica,sans-Serif" font-size="10.00">iomanip</text>
</a>
</g>
</g>
<!-- Node1&#45;&gt;Node4 -->
<g id="edge3_Node000001_Node000004" class="edge">
<title>Node1&#45;&gt;Node4</title>
<g id="a_edge3_Node000001_Node000004"><a xlink:title=" ">
<path fill="none" stroke="#63b8ff" d="M537.25,-74.3C458.88,-71.99 303.76,-63.27 176.75,-30.5 175.16,-30.09 173.55,-29.62 171.94,-29.1"/>
<polygon fill="#63b8ff" stroke="#63b8ff" points="173.49,-25.95 162.9,-25.76 171.06,-32.51 173.49,-25.95"/>
</a>
</g>
</g>
<!-- Node5 -->
<g id="Node000005" class="node">
<title>Node5</title>
<g id="a_Node000005"><a xlink:title=" ">
<polygon fill="#e0e0e0" stroke="#999999" points="225.75,-24.88 185.75,-24.88 185.75,-5.63 225.75,-5.63 225.75,-24.88"/>
<text text-anchor="middle" x="205.75" y="-11.38" font-family="Helvetica,sans-Serif" font-size="10.00">string</text>
</a>
</g>
</g>
<!-- Node1&#45;&gt;Node5 -->
<g id="edge4_Node000001_Node000005" class="edge">
<title>Node1&#45;&gt;Node5</title>
<g id="a_edge4_Node000001_Node000005"><a xlink:title=" ">
<path fill="none" stroke="#63b8ff" d="M537.28,-73.96C467.78,-71.18 339.34,-61.85 234.75,-30.5 233.94,-30.26 233.13,-30 232.32,-29.72"/>
<polygon fill="#63b8ff" stroke="#63b8ff" points="233.9,-26.58 223.32,-25.95 231.2,-33.04 233.9,-26.58"/>
</a>
</g>
</g>
<!-- Node6 -->
<g id="Node000006" class="node">
<title>Node6</title>
<g id="a_Node000006"><a xlink:title=" ">
<polygon fill="#e0e0e0" stroke="#999999" points="287.25,-24.88 244.25,-24.88 244.25,-5.63 287.25,-5.63 287.25,-24.88"/>
<text text-anchor="middle" x="265.75" y="-11.38" font-family="Helvetica,sans-Serif" font-size="10.00">cmath</text>
</a>
</g>
</g>
<!-- Node1&#45;&gt;Node6 -->
<g id="edge5_Node000001_Node000006" class="edge">
<title>Node1&#45;&gt;Node6</title>
<g id="a_edge5_Node000001_Node000006"><a xlink:title=" ">
<path fill="none" stroke="#63b8ff" d="M537.42,-71.91C478.43,-67.12 378.24,-55.8 295.75,-30.5 294.79,-30.2 293.81,-29.88 292.84,-29.54"/>
<polygon fill="#63b8ff" stroke="#63b8ff" points="294.52,-26.45 283.94,-25.86 291.84,-32.91 294.52,-26.45"/>
</a>
</g>
</g>
<!-- Node7 -->
<g id="Node000007" class="node">
<title>Node7</title>
<g id="a_Node000007"><a xlink:title=" ">
<polygon fill="#e0e0e0" stroke="#999999" points="348.25,-24.88 305.25,-24.88 305.25,-5.63 348.25,-5.63 348.25,-24.88"/>
<text text-anchor="middle" x="326.75" y="-11.38" font-family="Helvetica,sans-Serif" font-size="10.00">vector</text>
</a>
</g>
</g>
<!-- Node1&#45;&gt;Node7 -->
<g id="edge6_Node000001_Node000007" class="edge">
<title>Node1&#45;&gt;Node7</title>
<g id="a_edge6_Node000001_Node000007"><a xlink:title=" ">
<path fill="none" stroke="#63b8ff" d="M537.53,-68.91C490.35,-62.25 418.15,-49.93 357.75,-30.5 356.79,-30.19 355.82,-29.86 354.84,-29.51"/>
<polygon fill="#63b8ff" stroke="#63b8ff" points="356.47,-26.4 345.89,-25.86 353.83,-32.88 356.47,-26.4"/>
</a>
</g>
</g>
<!-- Node8 -->
<g id="Node000008" class="node">
<title>Node8</title>
<g id="a_Node000008"><a xlink:title=" ">
<polygon fill="#e0e0e0" stroke="#999999" points="401.12,-24.88 366.38,-24.88 366.38,-5.63 401.12,-5.63 401.12,-24.88"/>
<text text-anchor="middle" x="383.75" y="-11.38" font-family="Helvetica,sans-Serif" font-size="10.00">map</text>
</a>
</g>
</g>
<!-- Node1&#45;&gt;Node8 -->
<g id="edge7_Node000001_Node000008" class="edge">
<title>Node1&#45;&gt;Node8</title>
<g id="a_edge7_Node000001_Node000008"><a xlink:title=" ">
<path fill="none" stroke="#63b8ff" d="M537.58,-66.12C501.32,-58.76 451.57,-46.89 409.75,-30.5 409.52,-30.41 409.29,-30.32 409.07,-30.23"/>
<polygon fill="#63b8ff" stroke="#63b8ff" points="410.73,-27.15 400.2,-26.01 407.73,-33.47 410.73,-27.15"/>
</a>
</g>
</g>
<!-- Node9 -->
<g id="Node000009" class="node">
<title>Node9</title>
<g id="a_Node000009"><a xlink:title=" ">
<polygon fill="#e0e0e0" stroke="#999999" points="470.38,-24.88 419.12,-24.88 419.12,-5.63 470.38,-5.63 470.38,-24.88"/>
<text text-anchor="middle" x="444.75" y="-11.38" font-family="Helvetica,sans-Serif" font-size="10.00">memory</text>
</a>
</g>
</g>
<!-- Node1&#45;&gt;Node9 -->
<g id="edge8_Node000001_Node000009" class="edge">
<title>Node1&#45;&gt;Node9</title>
<g id="a_edge8_Node000001_Node000009"><a xlink:title=" ">
<path fill="none" stroke="#63b8ff" d="M565.6,-66.12C543.56,-57.14 508.79,-42.94 478.75,-30.5 478.12,-30.24 477.49,-29.98 476.85,-29.71"/>
<polygon fill="#63b8ff" stroke="#63b8ff" points="478.3,-26.52 467.72,-25.91 475.6,-32.98 478.3,-26.52"/>
</a>
</g>
</g>
<!-- Node10 -->
<g id="Node000010" class="node">
<title>Node10</title>
<g id="a_Node000010"><a xlink:title=" ">
<polygon fill="#e0e0e0" stroke="#999999" points="533.38,-24.88 488.12,-24.88 488.12,-5.63 533.38,-5.63 533.38,-24.88"/>
<text text-anchor="middle" x="510.75" y="-11.38" font-family="Helvetica,sans-Serif" font-size="10.00">chrono</text>
</a>
</g>
</g>
<!-- Node1&#45;&gt;Node10 -->
<g id="edge9_Node000001_Node000010" class="edge">
<title>Node1&#45;&gt;Node10</title>
<g id="a_edge9_Node000001_Node000010"><a xlink:title=" ">
<path fill="none" stroke="#63b8ff" d="M576.06,-66.18C564.3,-57.19 545.91,-43.14 531.64,-32.23"/>
<polygon fill="#63b8ff" stroke="#63b8ff" points="533.83,-29.49 523.76,-26.2 529.58,-35.05 533.83,-29.49"/>
</a>
</g>
</g>
<!-- Node11 -->
<g id="Node000011" class="node">
<title>Node11</title>
<g id="a_Node000011"><a xlink:title=" ">
<polygon fill="#e0e0e0" stroke="#999999" points="623.88,-24.88 551.62,-24.88 551.62,-5.63 623.88,-5.63 623.88,-24.88"/>
<text text-anchor="middle" x="587.75" y="-11.38" font-family="Helvetica,sans-Serif" font-size="10.00">Eigen/Dense</text>
</a>
</g>
</g>
<!-- Node1&#45;&gt;Node11 -->
<g id="edge10_Node000001_Node000011" class="edge">
<title>Node1&#45;&gt;Node11</title>
<g id="a_edge10_Node000001_Node000011"><a xlink:title=" ">
<path fill="none" stroke="#63b8ff" d="M587.75,-66.18C587.75,-58.4 587.75,-46.83 587.75,-36.78"/>
<polygon fill="#63b8ff" stroke="#63b8ff" points="591.25,-36.79 587.75,-26.79 584.25,-36.79 591.25,-36.79"/>
</a>
</g>
</g>
<!-- Node12 -->
<g id="Node000012" class="node">
<title>Node12</title>
<g id="a_Node000012"><a xlink:href="_solver_8hxx.html" target="_top" xlink:title=" ">
<polygon fill="white" stroke="#666666" points="743.5,-24.88 642,-24.88 642,-5.63 743.5,-5.63 743.5,-24.88"/>
<text text-anchor="middle" x="692.75" y="-11.38" font-family="Helvetica,sans-Serif" font-size="10.00">Optimist/Solver.hxx</text>
</a>
</g>
</g>
<!-- Node1&#45;&gt;Node12 -->
<g id="edge11_Node000001_Node000012" class="edge">
<title>Node1&#45;&gt;Node12</title>
<g id="a_edge11_Node000001_Node000012"><a xlink:title=" ">
<path fill="none" stroke="#63b8ff" d="M603.7,-66.18C620.43,-56.8 646.98,-41.91 666.75,-30.83"/>
<polygon fill="#63b8ff" stroke="#63b8ff" points="668.32,-33.96 675.33,-26.02 664.9,-27.85 668.32,-33.96"/>
</a>
</g>
</g>
<!-- Node13 -->
<g id="Node000013" class="node">
<title>Node13</title>
<g id="a_Node000013"><a xlink:href="_scalar_root_finder_8hxx.html" target="_top" xlink:title=" ">
<polygon fill="white" stroke="#666666" points="911.5,-24.88 762,-24.88 762,-5.63 911.5,-5.63 911.5,-24.88"/>
<text text-anchor="middle" x="836.75" y="-11.38" font-family="Helvetica,sans-Serif" font-size="10.00">Optimist/ScalarRootFinder.hxx</text>
</a>
</g>
</g>
<!-- Node1&#45;&gt;Node13 -->
<g id="edge12_Node000001_Node000013" class="edge">
<title>Node1&#45;&gt;Node13</title>
<g id="a_edge12_Node000001_Node000013"><a xlink:title=" ">
<path fill="none" stroke="#63b8ff" d="M626.11,-66.05C669.43,-55.81 740.04,-39.12 787.42,-27.91"/>
<polygon fill="#63b8ff" stroke="#63b8ff" points="787.95,-31.39 796.87,-25.68 786.34,-24.57 787.95,-31.39"/>
</a>
</g>
</g>
<!-- Node14 -->
<g id="Node000014" class="node">
<title>Node14</title>
<g id="a_Node000014"><a xlink:href="_scalar_root_finder_2_newton_8hxx.html" target="_top" xlink:title=" ">
<polygon fill="white" stroke="#666666" points="1061.5,-30.5 930,-30.5 930,0 1061.5,0 1061.5,-30.5"/>
<text text-anchor="start" x="938" y="-17" font-family="Helvetica,sans-Serif" font-size="10.00">Optimist/ScalarRootFinder</text>
<text text-anchor="middle" x="995.75" y="-5.75" font-family="Helvetica,sans-Serif" font-size="10.00">/Newton.hxx</text>
</a>
</g>
</g>
<!-- Node1&#45;&gt;Node14 -->
<g id="edge13_Node000001_Node000014" class="edge">
<title>Node1&#45;&gt;Node14</title>
<g id="a_edge13_Node000001_Node000014"><a xlink:title=" ">
<path fill="none" stroke="#63b8ff" d="M638.09,-69.25C701.17,-61.69 812.88,-47.67 918.36,-30.83"/>
<polygon fill="#63b8ff" stroke="#63b8ff" points="918.72,-34.32 928.04,-29.27 917.61,-27.41 918.72,-34.32"/>
</a>
</g>
</g>
<!-- Node15 -->
<g id="Node000015" class="node">
<title>Node15</title>
<g id="a_Node000015"><a xlink:href="_root_finder_8hxx.html" target="_top" xlink:title=" ">
<polygon fill="white" stroke="#666666" points="1201.62,-24.88 1079.88,-24.88 1079.88,-5.63 1201.62,-5.63 1201.62,-24.88"/>
<text text-anchor="middle" x="1140.75" y="-11.38" font-family="Helvetica,sans-Serif" font-size="10.00">Optimist/RootFinder.hxx</text>
</a>
</g>
</g>
<!-- Node1&#45;&gt;Node15 -->
<g id="edge14_Node000001_Node000015" class="edge">
<title>Node1&#45;&gt;Node15</title>
<g id="a_edge14_Node000001_Node000015"><a xlink:title=" ">
<path fill="none" stroke="#63b8ff" d="M638.03,-72.29C726.06,-66.91 913.71,-53.67 1070.75,-30.5 1076.65,-29.63 1082.81,-28.58 1088.92,-27.46"/>
<polygon fill="#63b8ff" stroke="#63b8ff" points="1089.15,-30.98 1098.31,-25.65 1087.83,-24.1 1089.15,-30.98"/>
</a>
</g>
</g>
<!-- Node16 -->
<g id="Node000016" class="node">
<title>Node16</title>
<g id="a_Node000016"><a xlink:href="_root_finder_2_newton_8hxx.html" target="_top" xlink:title=" ">
<polygon fill="white" stroke="#666666" points="1323.62,-30.5 1219.88,-30.5 1219.88,0 1323.62,0 1323.62,-30.5"/>
<text text-anchor="start" x="1227.88" y="-17" font-family="Helvetica,sans-Serif" font-size="10.00">Optimist/RootFinder</text>
<text text-anchor="middle" x="1271.75" y="-5.75" font-family="Helvetica,sans-Serif" font-size="10.00">/Newton.hxx</text>
</a>
</g>
</g>
<!-- Node1&#45;&gt;Node16 -->
<g id="edge15_Node000001_Node000016" class="edge">
<title>Node1&#45;&gt;Node16</title>
<g id="a_edge15_Node000001_Node000016"><a xlink:title=" ">
<path fill="none" stroke="#63b8ff" d="M638.12,-74.21C742.65,-71.73 990.87,-62.84 1208.3,-30.7"/>
<polygon fill="#63b8ff" stroke="#63b8ff" points="1208.75,-34.17 1218.11,-29.23 1207.71,-27.25 1208.75,-34.17"/>
</a>
</g>
</g>
<!-- Node17 -->
<g id="Node000017" class="node">
<title>Node17</title>
<g id="a_Node000017"><a xlink:href="_broyden_8hxx.html" target="_top" xlink:title=" ">
<polygon fill="white" stroke="#666666" points="1445.62,-30.5 1341.88,-30.5 1341.88,0 1445.62,0 1445.62,-30.5"/>
<text text-anchor="start" x="1349.88" y="-17" font-family="Helvetica,sans-Serif" font-size="10.00">Optimist/RootFinder</text>
<text text-anchor="middle" x="1393.75" y="-5.75" font-family="Helvetica,sans-Serif" font-size="10.00">/Broyden.hxx</text>
</a>
</g>
</g>
<!-- Node1&#45;&gt;Node17 -->
<g id="edge16_Node000001_Node000017" class="edge">
<title>Node1&#45;&gt;Node17</title>
<g id="a_edge16_Node000001_Node000017"><a xlink:title=" ">
<path fill="none" stroke="#63b8ff" d="M638.19,-75.05C757.2,-74.23 1064.86,-68.44 1330.59,-30.63"/>
<polygon fill="#63b8ff" stroke="#63b8ff" points="1330.72,-34.15 1340.12,-29.26 1329.72,-27.22 1330.72,-34.15"/>
</a>
</g>
</g>
<!-- Node18 -->
<g id="Node000018" class="node">
<title>Node18</title>
<g id="a_Node000018"><a xlink:href="_greenstadt_8hxx.html" target="_top" xlink:title=" ">
<polygon fill="white" stroke="#666666" points="1567.62,-30.5 1463.88,-30.5 1463.88,0 1567.62,0 1567.62,-30.5"/>
<text text-anchor="start" x="1471.88" y="-17" font-family="Helvetica,sans-Serif" font-size="10.00">Optimist/RootFinder</text>
<text text-anchor="middle" x="1515.75" y="-5.75" font-family="Helvetica,sans-Serif" font-size="10.00">/Greenstadt.hxx</text>
</a>
</g>
</g>
<!-- Node1&#45;&gt;Node18 -->
<g id="edge17_Node000001_Node000018" class="edge">
<title>Node1&#45;&gt;Node18</title>
<g id="a_edge17_Node000001_Node000018"><a xlink:title=" ">
<path fill="none" stroke="#63b8ff" d="M637.89,-75.65C769.88,-76.38 1137.82,-74.13 1452.45,-30.64"/>
<polygon fill="#63b8ff" stroke="#63b8ff" points="1452.71,-34.13 1462.12,-29.28 1451.73,-27.2 1452.71,-34.13"/>
</a>
</g>
</g>
<!-- Node19 -->
<g id="Node000019" class="node">
<title>Node19</title>
<g id="a_Node000019"><a xlink:href="_optimizer_8hxx.html" target="_top" xlink:title=" ">
<polygon fill="white" stroke="#666666" points="1701.62,-24.88 1585.88,-24.88 1585.88,-5.63 1701.62,-5.63 1701.62,-24.88"/>
<text text-anchor="middle" x="1643.75" y="-11.38" font-family="Helvetica,sans-Serif" font-size="10.00">Optimist/Optimizer.hxx</text>
</a>
</g>
</g>
<!-- Node1&#45;&gt;Node19 -->
<g id="edge18_Node000001_Node000019" class="edge">
<title>Node1&#45;&gt;Node19</title>
<g id="a_edge18_Node000001_Node000019"><a xlink:title=" ">
<path fill="none" stroke="#63b8ff" d="M638.17,-75.77C784.13,-77 1219.37,-76.25 1576.75,-30.5 1582.8,-29.73 1589.11,-28.69 1595.33,-27.53"/>
<polygon fill="#63b8ff" stroke="#63b8ff" points="1595.76,-31.01 1604.89,-25.63 1594.4,-24.15 1595.76,-31.01"/>
</a>
</g>
</g>
<!-- Node20 -->
<g id="Node000020" class="node">
<title>Node20</title>
<g id="a_Node000020"><a xlink:href="_scalar_optimizer_8hxx.html" target="_top" xlink:title=" ">
<polygon fill="white" stroke="#666666" points="1863.5,-24.88 1720,-24.88 1720,-5.63 1863.5,-5.63 1863.5,-24.88"/>
<text text-anchor="middle" x="1791.75" y="-11.38" font-family="Helvetica,sans-Serif" font-size="10.00">Optimist/ScalarOptimizer.hxx</text>
</a>
</g>
</g>
<!-- Node1&#45;&gt;Node20 -->
<g id="edge19_Node000001_Node000020" class="edge">
<title>Node1&#45;&gt;Node20</title>
<g id="a_edge19_Node000001_Node000020"><a xlink:title=" ">
<path fill="none" stroke="#63b8ff" d="M638.02,-75.53C796.28,-76.29 1298.25,-74.78 1710.75,-30.5 1718.75,-29.64 1727.16,-28.47 1735.4,-27.16"/>
<polygon fill="#63b8ff" stroke="#63b8ff" points="1735.71,-30.66 1745,-25.57 1734.56,-23.76 1735.71,-30.66"/>
</a>
</g>
</g>
</g>
</svg>
