<?xml version="1.0" encoding="UTF-8" standalone="no"?>
<!DOCTYPE svg PUBLIC "-//W3C//DTD SVG 1.1//EN"
 "http://www.w3.org/Graphics/SVG/1.1/DTD/svg11.dtd">
<!-- Generated by graphviz version 12.2.1 (20241206.2353)
 -->
<!-- Title: include/Optimist.hh Pages: 1 -->
<svg width="1868pt" height="94pt"
 viewBox="0.00 0.00 1867.75 93.75" xmlns="http://www.w3.org/2000/svg" xmlns:xlink="http://www.w3.org/1999/xlink">
<g id="graph0" class="graph" transform="scale(1 1) rotate(0) translate(4 89.75)">
<title>include/Optimist.hh</title>
<!-- Node1 -->
<g id="Node000001" class="node">
<title>Node1</title>
<g id="a_Node000001"><a xlink:title=" ">
<polygon fill="#999999" stroke="#666666" points="697.75,-85.75 597.75,-85.75 597.75,-66.5 697.75,-66.5 697.75,-85.75"/>
<text text-anchor="middle" x="647.75" y="-72.25" font-family="Helvetica,sans-Serif" font-size="10.00">include/Optimist.hh</text>
</a>
</g>
</g>
<!-- Node2 -->
<g id="Node000002" class="node">
<title>Node2</title>
<g id="a_Node000002"><a xlink:title=" ">
<polygon fill="#e0e0e0" stroke="#999999" points="53.5,-24.88 0,-24.88 0,-5.63 53.5,-5.63 53.5,-24.88"/>
<text text-anchor="middle" x="26.75" y="-11.38" font-family="Helvetica,sans-Serif" font-size="10.00">iostream</text>
</a>
</g>
</g>
<!-- Node1&#45;&gt;Node2 -->
<g id="edge1_Node000001_Node000002" class="edge">
<title>Node1&#45;&gt;Node2</title>
<g id="a_edge1_Node000001_Node000002"><a xlink:title=" ">
<path fill="none" stroke="#63b8ff" d="M597.68,-73.24C475.36,-68.32 163.99,-53.83 62.75,-30.5 60.99,-30.09 59.2,-29.62 57.41,-29.08"/>
<polygon fill="#63b8ff" stroke="#63b8ff" points="58.62,-25.8 48.02,-25.83 56.32,-32.41 58.62,-25.8"/>
</a>
</g>
</g>
<!-- Node3 -->
<g id="Node000003" class="node">
<title>Node3</title>
<g id="a_Node000003"><a xlink:title=" ">
<polygon fill="#e0e0e0" stroke="#999999" points="121.62,-24.88 71.88,-24.88 71.88,-5.63 121.62,-5.63 121.62,-24.88"/>
<text text-anchor="middle" x="96.75" y="-11.38" font-family="Helvetica,sans-Serif" font-size="10.00">iomanip</text>
</a>
</g>
</g>
<!-- Node1&#45;&gt;Node3 -->
<g id="edge2_Node000001_Node000003" class="edge">
<title>Node1&#45;&gt;Node3</title>
<g id="a_edge2_Node000001_Node000003"><a xlink:title=" ">
<path fill="none" stroke="#63b8ff" d="M597.37,-75.91C503.92,-76.25 298.05,-71.71 130.75,-30.5 129.16,-30.11 127.54,-29.65 125.93,-29.15"/>
<polygon fill="#63b8ff" stroke="#63b8ff" points="127.47,-25.99 116.88,-25.83 125.06,-32.56 127.47,-25.99"/>
</a>
</g>
</g>
<!-- Node4 -->
<g id="Node000004" class="node">
<title>Node4</title>
<g id="a_Node000004"><a xlink:title=" ">
<polygon fill="#e0e0e0" stroke="#999999" points="179.75,-24.88 139.75,-24.88 139.75,-5.63 179.75,-5.63 179.75,-24.88"/>
<text text-anchor="middle" x="159.75" y="-11.38" font-family="Helvetica,sans-Serif" font-size="10.00">string</text>
</a>
</g>
</g>
<!-- Node1&#45;&gt;Node4 -->
<g id="edge3_Node000001_Node000004" class="edge">
<title>Node1&#45;&gt;Node4</title>
<g id="a_edge3_Node000001_Node000004"><a xlink:title=" ">
<path fill="none" stroke="#63b8ff" d="M597.42,-76.06C511.78,-76.38 332.96,-71.47 188.75,-30.5 187.78,-30.22 186.81,-29.92 185.83,-29.59"/>
<polygon fill="#63b8ff" stroke="#63b8ff" points="187.57,-26.52 176.99,-25.89 184.87,-32.98 187.57,-26.52"/>
</a>
</g>
</g>
<!-- Node5 -->
<g id="Node000005" class="node">
<title>Node5</title>
<g id="a_Node000005"><a xlink:title=" ">
<polygon fill="#e0e0e0" stroke="#999999" points="241.25,-24.88 198.25,-24.88 198.25,-5.63 241.25,-5.63 241.25,-24.88"/>
<text text-anchor="middle" x="219.75" y="-11.38" font-family="Helvetica,sans-Serif" font-size="10.00">cmath</text>
</a>
</g>
</g>
<!-- Node1&#45;&gt;Node5 -->
<g id="edge4_Node000001_Node000005" class="edge">
<title>Node1&#45;&gt;Node5</title>
<g id="a_edge4_Node000001_Node000005"><a xlink:title=" ">
<path fill="none" stroke="#63b8ff" d="M597.4,-74.78C520.86,-73.08 371.28,-65.13 249.75,-30.5 248.76,-30.22 247.75,-29.9 246.75,-29.56"/>
<polygon fill="#63b8ff" stroke="#63b8ff" points="248.17,-26.36 237.59,-25.83 245.52,-32.85 248.17,-26.36"/>
</a>
</g>
</g>
<!-- Node6 -->
<g id="Node000006" class="node">
<title>Node6</title>
<g id="a_Node000006"><a xlink:title=" ">
<polygon fill="#e0e0e0" stroke="#999999" points="302.25,-24.88 259.25,-24.88 259.25,-5.63 302.25,-5.63 302.25,-24.88"/>
<text text-anchor="middle" x="280.75" y="-11.38" font-family="Helvetica,sans-Serif" font-size="10.00">vector</text>
</a>
</g>
</g>
<!-- Node1&#45;&gt;Node6 -->
<g id="edge5_Node000001_Node000006" class="edge">
<title>Node1&#45;&gt;Node6</title>
<g id="a_edge5_Node000001_Node000006"><a xlink:title=" ">
<path fill="none" stroke="#63b8ff" d="M597.26,-73.11C530.68,-69.39 410.4,-59.02 311.75,-30.5 310.75,-30.21 309.75,-29.9 308.74,-29.56"/>
<polygon fill="#63b8ff" stroke="#63b8ff" points="310.1,-26.33 299.51,-25.89 307.51,-32.84 310.1,-26.33"/>
</a>
</g>
</g>
<!-- Node7 -->
<g id="Node000007" class="node">
<title>Node7</title>
<g id="a_Node000007"><a xlink:title=" ">
<polygon fill="#e0e0e0" stroke="#999999" points="355.12,-24.88 320.38,-24.88 320.38,-5.63 355.12,-5.63 355.12,-24.88"/>
<text text-anchor="middle" x="337.75" y="-11.38" font-family="Helvetica,sans-Serif" font-size="10.00">map</text>
</a>
</g>
</g>
<!-- Node1&#45;&gt;Node7 -->
<g id="edge6_Node000001_Node000007" class="edge">
<title>Node1&#45;&gt;Node7</title>
<g id="a_edge6_Node000001_Node000007"><a xlink:title=" ">
<path fill="none" stroke="#63b8ff" d="M597.5,-72.47C539.75,-68.23 442.76,-57.44 363.75,-30.5 363.38,-30.38 363.02,-30.25 362.65,-30.11"/>
<polygon fill="#63b8ff" stroke="#63b8ff" points="364.12,-26.93 353.57,-25.94 361.2,-33.3 364.12,-26.93"/>
</a>
</g>
</g>
<!-- Node8 -->
<g id="Node000008" class="node">
<title>Node8</title>
<g id="a_Node000008"><a xlink:title=" ">
<polygon fill="#e0e0e0" stroke="#999999" points="424.38,-24.88 373.12,-24.88 373.12,-5.63 424.38,-5.63 424.38,-24.88"/>
<text text-anchor="middle" x="398.75" y="-11.38" font-family="Helvetica,sans-Serif" font-size="10.00">memory</text>
</a>
</g>
</g>
<!-- Node1&#45;&gt;Node8 -->
<g id="edge7_Node000001_Node000008" class="edge">
<title>Node1&#45;&gt;Node8</title>
<g id="a_edge7_Node000001_Node000008"><a xlink:title=" ">
<path fill="none" stroke="#63b8ff" d="M597.53,-67.51C553.51,-60.18 488.09,-47.67 432.75,-30.5 431.59,-30.14 430.41,-29.75 429.23,-29.35"/>
<polygon fill="#63b8ff" stroke="#63b8ff" points="430.66,-26.15 420.06,-25.88 428.18,-32.69 430.66,-26.15"/>
</a>
</g>
</g>
<!-- Node9 -->
<g id="Node000009" class="node">
<title>Node9</title>
<g id="a_Node000009"><a xlink:title=" ">
<polygon fill="#e0e0e0" stroke="#999999" points="487.38,-24.88 442.12,-24.88 442.12,-5.63 487.38,-5.63 487.38,-24.88"/>
<text text-anchor="middle" x="464.75" y="-11.38" font-family="Helvetica,sans-Serif" font-size="10.00">chrono</text>
</a>
</g>
</g>
<!-- Node1&#45;&gt;Node9 -->
<g id="edge8_Node000001_Node000009" class="edge">
<title>Node1&#45;&gt;Node9</title>
<g id="a_edge8_Node000001_Node000009"><a xlink:title=" ">
<path fill="none" stroke="#63b8ff" d="M612.23,-66.05C581.36,-57.82 535.61,-44.82 496.75,-30.5 495.96,-30.21 495.16,-29.91 494.35,-29.6"/>
<polygon fill="#63b8ff" stroke="#63b8ff" points="495.85,-26.43 485.27,-25.84 493.17,-32.89 495.85,-26.43"/>
</a>
</g>
</g>
<!-- Node10 -->
<g id="Node000010" class="node">
<title>Node10</title>
<g id="a_Node000010"><a xlink:title=" ">
<polygon fill="#e0e0e0" stroke="#999999" points="577.88,-24.88 505.62,-24.88 505.62,-5.63 577.88,-5.63 577.88,-24.88"/>
<text text-anchor="middle" x="541.75" y="-11.38" font-family="Helvetica,sans-Serif" font-size="10.00">Eigen/Dense</text>
</a>
</g>
</g>
<!-- Node1&#45;&gt;Node10 -->
<g id="edge9_Node000001_Node000010" class="edge">
<title>Node1&#45;&gt;Node10</title>
<g id="a_edge9_Node000001_Node000010"><a xlink:title=" ">
<path fill="none" stroke="#63b8ff" d="M631.65,-66.18C614.76,-56.8 587.95,-41.91 568,-30.83"/>
<polygon fill="#63b8ff" stroke="#63b8ff" points="569.77,-27.81 559.32,-26.01 566.37,-33.93 569.77,-27.81"/>
</a>
</g>
</g>
<!-- Node11 -->
<g id="Node000011" class="node">
<title>Node11</title>
<g id="a_Node000011"><a xlink:href="_tic_toc_8hxx.html" target="_top" xlink:title=" ">
<polygon fill="white" stroke="#666666" points="699.62,-24.88 595.88,-24.88 595.88,-5.63 699.62,-5.63 699.62,-24.88"/>
<text text-anchor="middle" x="647.75" y="-11.38" font-family="Helvetica,sans-Serif" font-size="10.00">Optimist/TicToc.hxx</text>
</a>
</g>
</g>
<!-- Node1&#45;&gt;Node11 -->
<g id="edge10_Node000001_Node000011" class="edge">
<title>Node1&#45;&gt;Node11</title>
<g id="a_edge10_Node000001_Node000011"><a xlink:title=" ">
<path fill="none" stroke="#63b8ff" d="M647.75,-66.18C647.75,-58.4 647.75,-46.83 647.75,-36.78"/>
<polygon fill="#63b8ff" stroke="#63b8ff" points="651.25,-36.79 647.75,-26.79 644.25,-36.79 651.25,-36.79"/>
</a>
</g>
</g>
<!-- Node12 -->
<g id="Node000012" class="node">
<title>Node12</title>
<g id="a_Node000012"><a xlink:href="_solver_8hxx.html" target="_top" xlink:title=" ">
<polygon fill="white" stroke="#666666" points="819.5,-24.88 718,-24.88 718,-5.63 819.5,-5.63 819.5,-24.88"/>
<text text-anchor="middle" x="768.75" y="-11.38" font-family="Helvetica,sans-Serif" font-size="10.00">Optimist/Solver.hxx</text>
</a>
</g>
</g>
<!-- Node1&#45;&gt;Node12 -->
<g id="edge11_Node000001_Node000012" class="edge">
<title>Node1&#45;&gt;Node12</title>
<g id="a_edge11_Node000001_Node000012"><a xlink:title=" ">
<path fill="none" stroke="#63b8ff" d="M666.39,-66.05C686.08,-56.48 717.36,-41.25 740.17,-30.16"/>
<polygon fill="#63b8ff" stroke="#63b8ff" points="741.46,-33.42 748.93,-25.9 738.4,-27.12 741.46,-33.42"/>
</a>
</g>
</g>
<!-- Node13 -->
<g id="Node000013" class="node">
<title>Node13</title>
<g id="a_Node000013"><a xlink:href="_scalar_solver_8hxx.html" target="_top" xlink:title=" ">
<polygon fill="white" stroke="#666666" points="966.38,-24.88 837.12,-24.88 837.12,-5.63 966.38,-5.63 966.38,-24.88"/>
<text text-anchor="middle" x="901.75" y="-11.38" font-family="Helvetica,sans-Serif" font-size="10.00">Optimist/ScalarSolver.hxx</text>
</a>
</g>
</g>
<!-- Node1&#45;&gt;Node13 -->
<g id="edge12_Node000001_Node000013" class="edge">
<title>Node1&#45;&gt;Node13</title>
<g id="a_edge12_Node000001_Node000013"><a xlink:title=" ">
<path fill="none" stroke="#63b8ff" d="M686.88,-66.05C731.07,-55.81 803.1,-39.12 851.43,-27.91"/>
<polygon fill="#63b8ff" stroke="#63b8ff" points="852.15,-31.34 861.1,-25.67 850.57,-24.52 852.15,-31.34"/>
</a>
</g>
</g>
<!-- Node14 -->
<g id="Node000014" class="node">
<title>Node14</title>
<g id="a_Node000014"><a xlink:href="_scalar_solver_2_newton_8hxx.html" target="_top" xlink:title=" ">
<polygon fill="white" stroke="#666666" points="1095.38,-30.5 984.12,-30.5 984.12,0 1095.38,0 1095.38,-30.5"/>
<text text-anchor="start" x="992.12" y="-17" font-family="Helvetica,sans-Serif" font-size="10.00">Optimist/ScalarSolver</text>
<text text-anchor="middle" x="1039.75" y="-5.75" font-family="Helvetica,sans-Serif" font-size="10.00">/Newton.hxx</text>
</a>
</g>
</g>
<!-- Node1&#45;&gt;Node14 -->
<g id="edge13_Node000001_Node000014" class="edge">
<title>Node1&#45;&gt;Node14</title>
<g id="a_edge13_Node000001_Node000014"><a xlink:title=" ">
<path fill="none" stroke="#63b8ff" d="M698.25,-69.59C760.56,-62.46 869.99,-48.99 972.75,-30.95"/>
<polygon fill="#63b8ff" stroke="#63b8ff" points="973.23,-34.42 982.47,-29.23 972.01,-27.53 973.23,-34.42"/>
</a>
</g>
</g>
<!-- Node15 -->
<g id="Node000015" class="node">
<title>Node15</title>
<g id="a_Node000015"><a xlink:href="_root_finder_8hxx.html" target="_top" xlink:title=" ">
<polygon fill="white" stroke="#666666" points="1235.62,-24.88 1113.88,-24.88 1113.88,-5.63 1235.62,-5.63 1235.62,-24.88"/>
<text text-anchor="middle" x="1174.75" y="-11.38" font-family="Helvetica,sans-Serif" font-size="10.00">Optimist/RootFinder.hxx</text>
</a>
</g>
</g>
<!-- Node1&#45;&gt;Node15 -->
<g id="edge14_Node000001_Node000015" class="edge">
<title>Node1&#45;&gt;Node15</title>
<g id="a_edge14_Node000001_Node000015"><a xlink:title=" ">
<path fill="none" stroke="#63b8ff" d="M698,-71.93C782.37,-66.17 957.73,-52.58 1104.75,-30.5 1110.65,-29.61 1116.81,-28.56 1122.92,-27.42"/>
<polygon fill="#63b8ff" stroke="#63b8ff" points="1123.15,-30.94 1132.3,-25.61 1121.82,-24.07 1123.15,-30.94"/>
</a>
</g>
</g>
<!-- Node16 -->
<g id="Node000016" class="node">
<title>Node16</title>
<g id="a_Node000016"><a xlink:href="_root_finder_2_newton_8hxx.html" target="_top" xlink:title=" ">
<polygon fill="white" stroke="#666666" points="1357.62,-30.5 1253.88,-30.5 1253.88,0 1357.62,0 1357.62,-30.5"/>
<text text-anchor="start" x="1261.88" y="-17" font-family="Helvetica,sans-Serif" font-size="10.00">Optimist/RootFinder</text>
<text text-anchor="middle" x="1305.75" y="-5.75" font-family="Helvetica,sans-Serif" font-size="10.00">/Newton.hxx</text>
</a>
</g>
</g>
<!-- Node1&#45;&gt;Node16 -->
<g id="edge15_Node000001_Node000016" class="edge">
<title>Node1&#45;&gt;Node16</title>
<g id="a_edge15_Node000001_Node000016"><a xlink:title=" ">
<path fill="none" stroke="#63b8ff" d="M697.97,-73.99C799.22,-71.15 1035.16,-61.66 1242.51,-30.67"/>
<polygon fill="#63b8ff" stroke="#63b8ff" points="1242.75,-34.18 1252.11,-29.22 1241.7,-27.26 1242.75,-34.18"/>
</a>
</g>
</g>
<!-- Node17 -->
<g id="Node000017" class="node">
<title>Node17</title>
<g id="a_Node000017"><a xlink:href="_broyden_8hxx.html" target="_top" xlink:title=" ">
<polygon fill="white" stroke="#666666" points="1479.62,-30.5 1375.88,-30.5 1375.88,0 1479.62,0 1479.62,-30.5"/>
<text text-anchor="start" x="1383.88" y="-17" font-family="Helvetica,sans-Serif" font-size="10.00">Optimist/RootFinder</text>
<text text-anchor="middle" x="1427.75" y="-5.75" font-family="Helvetica,sans-Serif" font-size="10.00">/Broyden.hxx</text>
</a>
</g>
</g>
<!-- Node1&#45;&gt;Node17 -->
<g id="edge16_Node000001_Node000017" class="edge">
<title>Node1&#45;&gt;Node17</title>
<g id="a_edge16_Node000001_Node000017"><a xlink:title=" ">
<path fill="none" stroke="#63b8ff" d="M698.17,-74.89C814.16,-73.73 1108.92,-67.25 1364.26,-30.68"/>
<polygon fill="#63b8ff" stroke="#63b8ff" points="1364.73,-34.15 1374.12,-29.25 1363.72,-27.23 1364.73,-34.15"/>
</a>
</g>
</g>
<!-- Node18 -->
<g id="Node000018" class="node">
<title>Node18</title>
<g id="a_Node000018"><a xlink:href="_greenstadt_8hxx.html" target="_top" xlink:title=" ">
<polygon fill="white" stroke="#666666" points="1601.62,-30.5 1497.88,-30.5 1497.88,0 1601.62,0 1601.62,-30.5"/>
<text text-anchor="start" x="1505.88" y="-17" font-family="Helvetica,sans-Serif" font-size="10.00">Optimist/RootFinder</text>
<text text-anchor="middle" x="1549.75" y="-5.75" font-family="Helvetica,sans-Serif" font-size="10.00">/Greenstadt.hxx</text>
</a>
</g>
</g>
<!-- Node1&#45;&gt;Node18 -->
<g id="edge17_Node000001_Node000018" class="edge">
<title>Node1&#45;&gt;Node18</title>
<g id="a_edge17_Node000001_Node000018"><a xlink:title=" ">
<path fill="none" stroke="#63b8ff" d="M697.81,-75.54C826.98,-75.95 1182.1,-72.93 1486.36,-30.65"/>
<polygon fill="#63b8ff" stroke="#63b8ff" points="1486.71,-34.14 1496.12,-29.28 1485.73,-27.21 1486.71,-34.14"/>
</a>
</g>
</g>
<!-- Node19 -->
<g id="Node000019" class="node">
<title>Node19</title>
<g id="a_Node000019"><a xlink:href="_optimizer_8hxx.html" target="_top" xlink:title=" ">
<polygon fill="white" stroke="#666666" points="1735.62,-24.88 1619.88,-24.88 1619.88,-5.63 1735.62,-5.63 1735.62,-24.88"/>
<text text-anchor="middle" x="1677.75" y="-11.38" font-family="Helvetica,sans-Serif" font-size="10.00">Optimist/Optimizer.hxx</text>
</a>
</g>
</g>
<!-- Node1&#45;&gt;Node19 -->
<g id="edge18_Node000001_Node000019" class="edge">
<title>Node1&#45;&gt;Node19</title>
<g id="a_edge18_Node000001_Node000019"><a xlink:title=" ">
<path fill="none" stroke="#63b8ff" d="M698.13,-75.68C841.5,-76.63 1263.81,-75.13 1610.75,-30.5 1616.79,-29.72 1623.1,-28.69 1629.33,-27.52"/>
<polygon fill="#63b8ff" stroke="#63b8ff" points="1629.76,-31.01 1638.89,-25.62 1628.4,-24.14 1629.76,-31.01"/>
</a>
</g>
</g>
<!-- Node20 -->
<g id="Node000020" class="node">
<title>Node20</title>
<g id="a_Node000020"><a xlink:href="_factory_8hxx.html" target="_top" xlink:title=" ">
<polygon fill="white" stroke="#666666" points="1859.75,-24.88 1753.75,-24.88 1753.75,-5.63 1859.75,-5.63 1859.75,-24.88"/>
<text text-anchor="middle" x="1806.75" y="-11.38" font-family="Helvetica,sans-Serif" font-size="10.00">Optimist/Factory.hxx</text>
</a>
</g>
</g>
<!-- Node1&#45;&gt;Node20 -->
<g id="edge19_Node000001_Node000020" class="edge">
<title>Node1&#45;&gt;Node20</title>
<g id="a_edge19_Node000001_Node000020"><a xlink:title=" ">
<path fill="none" stroke="#63b8ff" d="M698.18,-74.31C885.13,-71.12 1538.36,-58.17 1744.75,-30.5 1750.14,-29.78 1755.76,-28.8 1761.31,-27.7"/>
<polygon fill="#63b8ff" stroke="#63b8ff" points="1762,-31.14 1771.04,-25.62 1760.53,-24.29 1762,-31.14"/>
</a>
</g>
</g>
</g>
</svg>
