<?xml version="1.0" encoding="UTF-8" standalone="no"?>
<!DOCTYPE svg PUBLIC "-//W3C//DTD SVG 1.1//EN"
 "http://www.w3.org/Graphics/SVG/1.1/DTD/svg11.dtd">
<!-- Generated by graphviz version 12.2.1 (20241206.2353)
 -->
<!-- Title: include/Optimist.hh Pages: 1 -->
<svg width="2760pt" height="349pt"
 viewBox="0.00 0.00 2759.75 348.50" xmlns="http://www.w3.org/2000/svg" xmlns:xlink="http://www.w3.org/1999/xlink">
<g id="graph0" class="graph" transform="scale(1 1) rotate(0) translate(4 344.5)">
<title>include/Optimist.hh</title>
<!-- Node1 -->
<g id="Node000001" class="node">
<title>Node1</title>
<g id="a_Node000001"><a xlink:title=" ">
<polygon fill="#999999" stroke="#666666" points="1128,-340.5 1028,-340.5 1028,-321.25 1128,-321.25 1128,-340.5"/>
<text text-anchor="middle" x="1078" y="-327" font-family="Helvetica,sans-Serif" font-size="10.00">include/Optimist.hh</text>
</a>
</g>
</g>
<!-- Node2 -->
<g id="Node000002" class="node">
<title>Node2</title>
<g id="a_Node000002"><a xlink:href="_function_8hh.html" target="_top" xlink:title=" ">
<polygon fill="white" stroke="#666666" points="1050.25,-285.25 909.75,-285.25 909.75,-266 1050.25,-266 1050.25,-285.25"/>
<text text-anchor="middle" x="980" y="-271.75" font-family="Helvetica,sans-Serif" font-size="10.00">include/Optimist/Function.hh</text>
</a>
</g>
</g>
<!-- Node1&#45;&gt;Node2 -->
<g id="edge1_Node000001_Node000002" class="edge">
<title>Node1&#45;&gt;Node2</title>
<g id="a_edge1_Node000001_Node000002"><a xlink:title=" ">
<path fill="none" stroke="#63b8ff" d="M1051.75,-315.61C1034.26,-306.11 1011.8,-293.9 996.71,-285.7"/>
<polygon fill="#63b8ff" stroke="#63b8ff" points="1049.59,-318.42 1060.05,-320.12 1052.93,-312.27 1049.59,-318.42"/>
</a>
</g>
</g>
<!-- Node17 -->
<g id="Node000017" class="node">
<title>Node17</title>
<g id="a_Node000017"><a xlink:href="_solver_8hh.html" target="_top" xlink:title=" ">
<polygon fill="white" stroke="#666666" points="1588,-224.38 1458,-224.38 1458,-205.12 1588,-205.12 1588,-224.38"/>
<text text-anchor="middle" x="1523" y="-210.88" font-family="Helvetica,sans-Serif" font-size="10.00">include/Optimist/Solver.hh</text>
</a>
</g>
</g>
<!-- Node1&#45;&gt;Node17 -->
<g id="edge31_Node000001_Node000017" class="edge">
<title>Node1&#45;&gt;Node17</title>
<g id="a_edge31_Node000001_Node000017"><a xlink:title=" ">
<path fill="none" stroke="#63b8ff" d="M1124.42,-317.97C1213.79,-295.05 1407.94,-245.26 1487.71,-224.8"/>
<polygon fill="#63b8ff" stroke="#63b8ff" points="1123.57,-314.57 1114.76,-320.45 1125.31,-321.35 1123.57,-314.57"/>
</a>
</g>
</g>
<!-- Node32 -->
<g id="Node000032" class="node">
<title>Node32</title>
<g id="a_Node000032"><a xlink:href="_test_set_8hh.html" target="_top" xlink:title=" ">
<polygon fill="white" stroke="#666666" points="977.38,-224.38 840.62,-224.38 840.62,-205.12 977.38,-205.12 977.38,-224.38"/>
<text text-anchor="middle" x="909" y="-210.88" font-family="Helvetica,sans-Serif" font-size="10.00">include/Optimist/TestSet.hh</text>
</a>
</g>
</g>
<!-- Node1&#45;&gt;Node32 -->
<g id="edge32_Node000001_Node000032" class="edge">
<title>Node1&#45;&gt;Node32</title>
<g id="a_edge32_Node000001_Node000032"><a xlink:title=" ">
<path fill="none" stroke="#63b8ff" d="M1076.8,-309.85C1074.94,-295.88 1070.33,-277.72 1059,-266 1037.62,-243.88 1006.24,-231.5 977.7,-224.57"/>
<polygon fill="#63b8ff" stroke="#63b8ff" points="1073.3,-310.05 1077.71,-319.68 1080.27,-309.41 1073.3,-310.05"/>
</a>
</g>
</g>
<!-- Node3 -->
<g id="Node000003" class="node">
<title>Node3</title>
<g id="a_Node000003"><a xlink:href="_cost_function_8hh.html" target="_top" xlink:title=" ">
<polygon fill="white" stroke="#666666" points="302.5,-230 175.5,-230 175.5,-199.5 302.5,-199.5 302.5,-230"/>
<text text-anchor="start" x="183.5" y="-216.5" font-family="Helvetica,sans-Serif" font-size="10.00">include/Optimist/Function</text>
<text text-anchor="middle" x="239" y="-205.25" font-family="Helvetica,sans-Serif" font-size="10.00">/CostFunction.hh</text>
</a>
</g>
</g>
<!-- Node2&#45;&gt;Node3 -->
<g id="edge2_Node000002_Node000003" class="edge">
<title>Node2&#45;&gt;Node3</title>
<g id="a_edge2_Node000002_Node000003"><a xlink:title=" ">
<path fill="none" stroke="#63b8ff" d="M897.99,-268.11C749.13,-256.28 437.46,-231.52 303,-220.83"/>
<polygon fill="#63b8ff" stroke="#63b8ff" points="897.53,-271.58 907.78,-268.89 898.09,-264.61 897.53,-271.58"/>
</a>
</g>
</g>
<!-- Node6 -->
<g id="Node000006" class="node">
<title>Node6</title>
<g id="a_Node000006"><a xlink:href="_scalar_function_8hh.html" target="_top" xlink:title=" ">
<polygon fill="white" stroke="#666666" points="1213.5,-230 1086.5,-230 1086.5,-199.5 1213.5,-199.5 1213.5,-230"/>
<text text-anchor="start" x="1094.5" y="-216.5" font-family="Helvetica,sans-Serif" font-size="10.00">include/Optimist/Function</text>
<text text-anchor="middle" x="1150" y="-205.25" font-family="Helvetica,sans-Serif" font-size="10.00">/ScalarFunction.hh</text>
</a>
</g>
</g>
<!-- Node2&#45;&gt;Node6 -->
<g id="edge5_Node000002_Node000006" class="edge">
<title>Node2&#45;&gt;Node6</title>
<g id="a_edge5_Node000002_Node000006"><a xlink:title=" ">
<path fill="none" stroke="#63b8ff" d="M1017,-261.81C1043.67,-252.57 1079.73,-240.09 1107.57,-230.44"/>
<polygon fill="#63b8ff" stroke="#63b8ff" points="1015.92,-258.48 1007.62,-265.06 1018.21,-265.09 1015.92,-258.48"/>
</a>
</g>
</g>
<!-- Node13 -->
<g id="Node000013" class="node">
<title>Node13</title>
<g id="a_Node000013"><a xlink:href="_vector_function_8hh.html" target="_top" xlink:title=" ">
<polygon fill="white" stroke="#666666" points="746.5,-230 619.5,-230 619.5,-199.5 746.5,-199.5 746.5,-230"/>
<text text-anchor="start" x="627.5" y="-216.5" font-family="Helvetica,sans-Serif" font-size="10.00">include/Optimist/Function</text>
<text text-anchor="middle" x="683" y="-205.25" font-family="Helvetica,sans-Serif" font-size="10.00">/VectorFunction.hh</text>
</a>
</g>
</g>
<!-- Node2&#45;&gt;Node13 -->
<g id="edge12_Node000002_Node000013" class="edge">
<title>Node2&#45;&gt;Node13</title>
<g id="a_edge12_Node000002_Node000013"><a xlink:title=" ">
<path fill="none" stroke="#63b8ff" d="M923.22,-263.37C872.79,-253.37 799.16,-238.78 746.73,-228.38"/>
<polygon fill="#63b8ff" stroke="#63b8ff" points="922.27,-266.75 932.76,-265.26 923.63,-259.88 922.27,-266.75"/>
</a>
</g>
</g>
<!-- Node2&#45;&gt;Node17 -->
<g id="edge16_Node000002_Node000017" class="edge">
<title>Node2&#45;&gt;Node17</title>
<g id="a_edge16_Node000002_Node000017"><a xlink:title=" ">
<path fill="none" stroke="#63b8ff" d="M1061.89,-265.75C1170.15,-254.01 1358.73,-233.56 1457.86,-222.81"/>
<polygon fill="#63b8ff" stroke="#63b8ff" points="1061.78,-262.24 1052.21,-266.8 1062.53,-269.2 1061.78,-262.24"/>
</a>
</g>
</g>
<!-- Node4 -->
<g id="Node000004" class="node">
<title>Node4</title>
<g id="a_Node000004"><a xlink:href="_elliptic_paraboloid_8hh.html" target="_top" xlink:title=" ">
<polygon fill="white" stroke="#666666" points="323.5,-163.5 154.5,-163.5 154.5,-133 323.5,-133 323.5,-163.5"/>
<text text-anchor="start" x="162.5" y="-150" font-family="Helvetica,sans-Serif" font-size="10.00">include/Optimist/TestSet</text>
<text text-anchor="middle" x="239" y="-138.75" font-family="Helvetica,sans-Serif" font-size="10.00">/CostFunction/EllipticParaboloid.hh</text>
</a>
</g>
</g>
<!-- Node3&#45;&gt;Node4 -->
<g id="edge3_Node000003_Node000004" class="edge">
<title>Node3&#45;&gt;Node4</title>
<g id="a_edge3_Node000003_Node000004"><a xlink:title=" ">
<path fill="none" stroke="#63b8ff" d="M239,-187.81C239,-179.64 239,-170.91 239,-163.83"/>
<polygon fill="#63b8ff" stroke="#63b8ff" points="235.5,-187.6 239,-197.6 242.5,-187.6 235.5,-187.6"/>
</a>
</g>
</g>
<!-- Node5 -->
<g id="Node000005" class="node">
<title>Node5</title>
<g id="a_Node000005"><a xlink:href="_schaffer2_8hh.html" target="_top" xlink:title=" ">
<polygon fill="white" stroke="#666666" points="136,-163.5 0,-163.5 0,-133 136,-133 136,-163.5"/>
<text text-anchor="start" x="8" y="-150" font-family="Helvetica,sans-Serif" font-size="10.00">include/Optimist/TestSet</text>
<text text-anchor="middle" x="68" y="-138.75" font-family="Helvetica,sans-Serif" font-size="10.00">/CostFunction/Schaffer2.hh</text>
</a>
</g>
</g>
<!-- Node3&#45;&gt;Node5 -->
<g id="edge4_Node000003_Node000005" class="edge">
<title>Node3&#45;&gt;Node5</title>
<g id="a_edge4_Node000003_Node000005"><a xlink:title=" ">
<path fill="none" stroke="#63b8ff" d="M189.68,-195.15C163.38,-185.23 131.48,-173.2 106.94,-163.94"/>
<polygon fill="#63b8ff" stroke="#63b8ff" points="188.19,-198.33 198.78,-198.58 190.66,-191.78 188.19,-198.33"/>
</a>
</g>
</g>
<!-- Node7 -->
<g id="Node000007" class="node">
<title>Node7</title>
<g id="a_Node000007"><a xlink:href="_cos_8hh.html" target="_top" xlink:title=" ">
<polygon fill="white" stroke="#666666" points="1211.62,-163.5 1088.38,-163.5 1088.38,-133 1211.62,-133 1211.62,-163.5"/>
<text text-anchor="start" x="1096.38" y="-150" font-family="Helvetica,sans-Serif" font-size="10.00">include/Optimist/TestSet</text>
<text text-anchor="middle" x="1150" y="-138.75" font-family="Helvetica,sans-Serif" font-size="10.00">/ScalarFunction/Cos.hh</text>
</a>
</g>
</g>
<!-- Node6&#45;&gt;Node7 -->
<g id="edge6_Node000006_Node000007" class="edge">
<title>Node6&#45;&gt;Node7</title>
<g id="a_edge6_Node000006_Node000007"><a xlink:title=" ">
<path fill="none" stroke="#63b8ff" d="M1150,-187.81C1150,-179.64 1150,-170.91 1150,-163.83"/>
<polygon fill="#63b8ff" stroke="#63b8ff" points="1146.5,-187.6 1150,-197.6 1153.5,-187.6 1146.5,-187.6"/>
</a>
</g>
</g>
<!-- Node8 -->
<g id="Node000008" class="node">
<title>Node8</title>
<g id="a_Node000008"><a xlink:href="_cosh_8hh.html" target="_top" xlink:title=" ">
<polygon fill="white" stroke="#666666" points="1354,-163.5 1230,-163.5 1230,-133 1354,-133 1354,-163.5"/>
<text text-anchor="start" x="1238" y="-150" font-family="Helvetica,sans-Serif" font-size="10.00">include/Optimist/TestSet</text>
<text text-anchor="middle" x="1292" y="-138.75" font-family="Helvetica,sans-Serif" font-size="10.00">/ScalarFunction/Cosh.hh</text>
</a>
</g>
</g>
<!-- Node6&#45;&gt;Node8 -->
<g id="edge7_Node000006_Node000008" class="edge">
<title>Node6&#45;&gt;Node8</title>
<g id="a_edge7_Node000006_Node000008"><a xlink:title=" ">
<path fill="none" stroke="#63b8ff" d="M1192.46,-194.47C1214.09,-184.64 1239.96,-172.89 1259.91,-163.83"/>
<polygon fill="#63b8ff" stroke="#63b8ff" points="1191.26,-191.17 1183.6,-198.49 1194.15,-197.54 1191.26,-191.17"/>
</a>
</g>
</g>
<!-- Node9 -->
<g id="Node000009" class="node">
<title>Node9</title>
<g id="a_Node000009"><a xlink:href="_linear_8hh.html" target="_top" xlink:title=" ">
<polygon fill="white" stroke="#666666" points="1498.12,-163.5 1371.88,-163.5 1371.88,-133 1498.12,-133 1498.12,-163.5"/>
<text text-anchor="start" x="1379.88" y="-150" font-family="Helvetica,sans-Serif" font-size="10.00">include/Optimist/TestSet</text>
<text text-anchor="middle" x="1435" y="-138.75" font-family="Helvetica,sans-Serif" font-size="10.00">/ScalarFunction/Linear.hh</text>
</a>
</g>
</g>
<!-- Node6&#45;&gt;Node9 -->
<g id="edge8_Node000006_Node000009" class="edge">
<title>Node6&#45;&gt;Node9</title>
<g id="a_edge8_Node000006_Node000009"><a xlink:title=" ">
<path fill="none" stroke="#63b8ff" d="M1225,-196.78C1270.68,-186.44 1328.39,-173.38 1371.75,-163.57"/>
<polygon fill="#63b8ff" stroke="#63b8ff" points="1224.42,-193.32 1215.44,-198.94 1225.96,-200.15 1224.42,-193.32"/>
</a>
</g>
</g>
<!-- Node10 -->
<g id="Node000010" class="node">
<title>Node10</title>
<g id="a_Node000010"><a xlink:href="_quadratic_8hh.html" target="_top" xlink:title=" ">
<polygon fill="white" stroke="#666666" points="1659.38,-163.5 1516.62,-163.5 1516.62,-133 1659.38,-133 1659.38,-163.5"/>
<text text-anchor="start" x="1524.62" y="-150" font-family="Helvetica,sans-Serif" font-size="10.00">include/Optimist/TestSet</text>
<text text-anchor="middle" x="1588" y="-138.75" font-family="Helvetica,sans-Serif" font-size="10.00">/ScalarFunction/Quadratic.hh</text>
</a>
</g>
</g>
<!-- Node6&#45;&gt;Node10 -->
<g id="edge9_Node000006_Node000010" class="edge">
<title>Node6&#45;&gt;Node10</title>
<g id="a_edge9_Node000006_Node000010"><a xlink:title=" ">
<path fill="none" stroke="#63b8ff" d="M1225.2,-203.93C1297.52,-194.3 1409.88,-178.87 1507,-163.5 1510.1,-163.01 1513.27,-162.5 1516.47,-161.97"/>
<polygon fill="#63b8ff" stroke="#63b8ff" points="1224.9,-200.44 1215.44,-205.22 1225.82,-207.38 1224.9,-200.44"/>
</a>
</g>
</g>
<!-- Node11 -->
<g id="Node000011" class="node">
<title>Node11</title>
<g id="a_Node000011"><a xlink:href="_sin_8hh.html" target="_top" xlink:title=" ">
<polygon fill="white" stroke="#666666" points="929.62,-163.5 806.38,-163.5 806.38,-133 929.62,-133 929.62,-163.5"/>
<text text-anchor="start" x="814.38" y="-150" font-family="Helvetica,sans-Serif" font-size="10.00">include/Optimist/TestSet</text>
<text text-anchor="middle" x="868" y="-138.75" font-family="Helvetica,sans-Serif" font-size="10.00">/ScalarFunction/Sin.hh</text>
</a>
</g>
</g>
<!-- Node6&#45;&gt;Node11 -->
<g id="edge10_Node000006_Node000011" class="edge">
<title>Node6&#45;&gt;Node11</title>
<g id="a_edge10_Node000006_Node000011"><a xlink:title=" ">
<path fill="none" stroke="#63b8ff" d="M1075.05,-196.61C1029.69,-186.23 972.55,-173.16 929.8,-163.38"/>
<polygon fill="#63b8ff" stroke="#63b8ff" points="1074.01,-199.96 1084.53,-198.78 1075.57,-193.13 1074.01,-199.96"/>
</a>
</g>
</g>
<!-- Node12 -->
<g id="Node000012" class="node">
<title>Node12</title>
<g id="a_Node000012"><a xlink:href="_sinh_8hh.html" target="_top" xlink:title=" ">
<polygon fill="white" stroke="#666666" points="1070.62,-163.5 947.38,-163.5 947.38,-133 1070.62,-133 1070.62,-163.5"/>
<text text-anchor="start" x="955.38" y="-150" font-family="Helvetica,sans-Serif" font-size="10.00">include/Optimist/TestSet</text>
<text text-anchor="middle" x="1009" y="-138.75" font-family="Helvetica,sans-Serif" font-size="10.00">/ScalarFunction/Sinh.hh</text>
</a>
</g>
</g>
<!-- Node6&#45;&gt;Node12 -->
<g id="edge11_Node000006_Node000012" class="edge">
<title>Node6&#45;&gt;Node12</title>
<g id="a_edge11_Node000006_Node000012"><a xlink:title=" ">
<path fill="none" stroke="#63b8ff" d="M1107.55,-194.33C1086.13,-184.53 1060.58,-172.85 1040.87,-163.83"/>
<polygon fill="#63b8ff" stroke="#63b8ff" points="1106.08,-197.51 1116.63,-198.48 1108.99,-191.14 1106.08,-197.51"/>
</a>
</g>
</g>
<!-- Node14 -->
<g id="Node000014" class="node">
<title>Node14</title>
<g id="a_Node000014"><a xlink:href="_booth_8hh.html" target="_top" xlink:title=" ">
<polygon fill="white" stroke="#666666" points="788.5,-163.5 661.5,-163.5 661.5,-133 788.5,-133 788.5,-163.5"/>
<text text-anchor="start" x="669.5" y="-150" font-family="Helvetica,sans-Serif" font-size="10.00">include/Optimist/TestSet</text>
<text text-anchor="middle" x="725" y="-138.75" font-family="Helvetica,sans-Serif" font-size="10.00">/VectorFunction/Booth.hh</text>
</a>
</g>
</g>
<!-- Node13&#45;&gt;Node14 -->
<g id="edge13_Node000013_Node000014" class="edge">
<title>Node13&#45;&gt;Node14</title>
<g id="a_edge13_Node000013_Node000014"><a xlink:title=" ">
<path fill="none" stroke="#63b8ff" d="M698.79,-189.51C704.41,-180.87 710.57,-171.41 715.51,-163.83"/>
<polygon fill="#63b8ff" stroke="#63b8ff" points="695.88,-187.56 693.36,-197.85 701.75,-191.38 695.88,-187.56"/>
</a>
</g>
</g>
<!-- Node15 -->
<g id="Node000015" class="node">
<title>Node15</title>
<g id="a_Node000015"><a xlink:href="_brown_8hh.html" target="_top" xlink:title=" ">
<polygon fill="white" stroke="#666666" points="470.62,-163.5 341.38,-163.5 341.38,-133 470.62,-133 470.62,-163.5"/>
<text text-anchor="start" x="349.38" y="-150" font-family="Helvetica,sans-Serif" font-size="10.00">include/Optimist/TestSet</text>
<text text-anchor="middle" x="406" y="-138.75" font-family="Helvetica,sans-Serif" font-size="10.00">/VectorFunction/Brown.hh</text>
</a>
</g>
</g>
<!-- Node13&#45;&gt;Node15 -->
<g id="edge14_Node000013_Node000015" class="edge">
<title>Node13&#45;&gt;Node15</title>
<g id="a_edge14_Node000013_Node000015"><a xlink:title=" ">
<path fill="none" stroke="#63b8ff" d="M608.66,-196.44C565.01,-186.28 510.44,-173.57 468.93,-163.9"/>
<polygon fill="#63b8ff" stroke="#63b8ff" points="607.79,-199.83 618.32,-198.69 609.38,-193.01 607.79,-199.83"/>
</a>
</g>
</g>
<!-- Node16 -->
<g id="Node000016" class="node">
<title>Node16</title>
<g id="a_Node000016"><a xlink:href="_rosenbrock_8hh.html" target="_top" xlink:title=" ">
<polygon fill="white" stroke="#666666" points="643,-163.5 489,-163.5 489,-133 643,-133 643,-163.5"/>
<text text-anchor="start" x="497" y="-150" font-family="Helvetica,sans-Serif" font-size="10.00">include/Optimist/TestSet</text>
<text text-anchor="middle" x="566" y="-138.75" font-family="Helvetica,sans-Serif" font-size="10.00">/VectorFunction/Rosenbrock.hh</text>
</a>
</g>
</g>
<!-- Node13&#45;&gt;Node16 -->
<g id="edge15_Node000013_Node000016" class="edge">
<title>Node13&#45;&gt;Node16</title>
<g id="a_edge15_Node000013_Node000016"><a xlink:title=" ">
<path fill="none" stroke="#63b8ff" d="M646.55,-193.66C629.04,-184 608.43,-172.64 592.44,-163.83"/>
<polygon fill="#63b8ff" stroke="#63b8ff" points="644.68,-196.62 655.13,-198.38 648.06,-190.49 644.68,-196.62"/>
</a>
</g>
</g>
<!-- Node18 -->
<g id="Node000018" class="node">
<title>Node18</title>
<g id="a_Node000018"><a xlink:href="_optimizer_8hh.html" target="_top" xlink:title=" ">
<polygon fill="white" stroke="#666666" points="1822.12,-157.88 1677.88,-157.88 1677.88,-138.62 1822.12,-138.62 1822.12,-157.88"/>
<text text-anchor="middle" x="1750" y="-144.38" font-family="Helvetica,sans-Serif" font-size="10.00">include/Optimist/Optimizer.hh</text>
</a>
</g>
</g>
<!-- Node17&#45;&gt;Node18 -->
<g id="edge17_Node000017_Node000018" class="edge">
<title>Node17&#45;&gt;Node18</title>
<g id="a_edge17_Node000017_Node000018"><a xlink:title=" ">
<path fill="none" stroke="#63b8ff" d="M1566.04,-201.52C1610.36,-188.93 1678.4,-169.59 1718.12,-158.31"/>
<polygon fill="#63b8ff" stroke="#63b8ff" points="1565.16,-198.13 1556.5,-204.23 1567.07,-204.87 1565.16,-198.13"/>
</a>
</g>
</g>
<!-- Node21 -->
<g id="Node000021" class="node">
<title>Node21</title>
<g id="a_Node000021"><a xlink:href="_root_finder_8hh.html" target="_top" xlink:title=" ">
<polygon fill="white" stroke="#666666" points="2290.12,-157.88 2139.88,-157.88 2139.88,-138.62 2290.12,-138.62 2290.12,-157.88"/>
<text text-anchor="middle" x="2215" y="-144.38" font-family="Helvetica,sans-Serif" font-size="10.00">include/Optimist/RootFinder.hh</text>
</a>
</g>
</g>
<!-- Node17&#45;&gt;Node21 -->
<g id="edge20_Node000017_Node000021" class="edge">
<title>Node17&#45;&gt;Node21</title>
<g id="a_edge20_Node000017_Node000021"><a xlink:title=" ">
<path fill="none" stroke="#63b8ff" d="M1599.73,-206.6C1733.26,-194.15 2006.8,-168.66 2139.49,-156.29"/>
<polygon fill="#63b8ff" stroke="#63b8ff" points="1599.55,-203.1 1589.92,-207.51 1600.2,-210.07 1599.55,-203.1"/>
</a>
</g>
</g>
<!-- Node19 -->
<g id="Node000019" class="node">
<title>Node19</title>
<g id="a_Node000019"><a xlink:href="_nelder_mead_8hh.html" target="_top" xlink:title=" ">
<polygon fill="white" stroke="#666666" points="1665.75,-97 1534.25,-97 1534.25,-66.5 1665.75,-66.5 1665.75,-97"/>
<text text-anchor="start" x="1542.25" y="-83.5" font-family="Helvetica,sans-Serif" font-size="10.00">include/Optimist/Optimizer</text>
<text text-anchor="middle" x="1600" y="-72.25" font-family="Helvetica,sans-Serif" font-size="10.00">/NelderMead.hh</text>
</a>
</g>
</g>
<!-- Node18&#45;&gt;Node19 -->
<g id="edge18_Node000018_Node000019" class="edge">
<title>Node18&#45;&gt;Node19</title>
<g id="a_edge18_Node000018_Node000019"><a xlink:title=" ">
<path fill="none" stroke="#63b8ff" d="M1718.55,-133.72C1693.82,-123.09 1659.44,-108.31 1634.07,-97.4"/>
<polygon fill="#63b8ff" stroke="#63b8ff" points="1716.87,-136.81 1727.44,-137.55 1719.63,-130.38 1716.87,-136.81"/>
</a>
</g>
</g>
<!-- Node20 -->
<g id="Node000020" class="node">
<title>Node20</title>
<g id="a_Node000020"><a xlink:href="_pattern_search_8hh.html" target="_top" xlink:title=" ">
<polygon fill="white" stroke="#666666" points="1815.75,-97 1684.25,-97 1684.25,-66.5 1815.75,-66.5 1815.75,-97"/>
<text text-anchor="start" x="1692.25" y="-83.5" font-family="Helvetica,sans-Serif" font-size="10.00">include/Optimist/Optimizer</text>
<text text-anchor="middle" x="1750" y="-72.25" font-family="Helvetica,sans-Serif" font-size="10.00">/PatternSearch.hh</text>
</a>
</g>
</g>
<!-- Node18&#45;&gt;Node20 -->
<g id="edge19_Node000018_Node000020" class="edge">
<title>Node18&#45;&gt;Node20</title>
<g id="a_edge19_Node000018_Node000020"><a xlink:title=" ">
<path fill="none" stroke="#63b8ff" d="M1750,-126.87C1750,-117.19 1750,-105.85 1750,-97.09"/>
<polygon fill="#63b8ff" stroke="#63b8ff" points="1746.5,-126.77 1750,-136.77 1753.5,-126.77 1746.5,-126.77"/>
</a>
</g>
</g>
<!-- Node22 -->
<g id="Node000022" class="node">
<title>Node22</title>
<g id="a_Node000022"><a xlink:href="_bracketing_8hh.html" target="_top" xlink:title=" ">
<polygon fill="white" stroke="#666666" points="2283.75,-97 2146.25,-97 2146.25,-66.5 2283.75,-66.5 2283.75,-97"/>
<text text-anchor="start" x="2154.25" y="-83.5" font-family="Helvetica,sans-Serif" font-size="10.00">include/Optimist/RootFinder</text>
<text text-anchor="middle" x="2215" y="-72.25" font-family="Helvetica,sans-Serif" font-size="10.00">/Bracketing.hh</text>
</a>
</g>
</g>
<!-- Node21&#45;&gt;Node22 -->
<g id="edge21_Node000021_Node000022" class="edge">
<title>Node21&#45;&gt;Node22</title>
<g id="a_edge21_Node000021_Node000022"><a xlink:title=" ">
<path fill="none" stroke="#63b8ff" d="M2215,-126.87C2215,-117.19 2215,-105.85 2215,-97.09"/>
<polygon fill="#63b8ff" stroke="#63b8ff" points="2211.5,-126.77 2215,-136.77 2218.5,-126.77 2211.5,-126.77"/>
</a>
</g>
</g>
<!-- Node25 -->
<g id="Node000025" class="node">
<title>Node25</title>
<g id="a_Node000025"><a xlink:href="_chebyshev_8hh.html" target="_top" xlink:title=" ">
<polygon fill="white" stroke="#666666" points="2439.75,-97 2302.25,-97 2302.25,-66.5 2439.75,-66.5 2439.75,-97"/>
<text text-anchor="start" x="2310.25" y="-83.5" font-family="Helvetica,sans-Serif" font-size="10.00">include/Optimist/RootFinder</text>
<text text-anchor="middle" x="2371" y="-72.25" font-family="Helvetica,sans-Serif" font-size="10.00">/Chebyshev.hh</text>
</a>
</g>
</g>
<!-- Node21&#45;&gt;Node25 -->
<g id="edge24_Node000021_Node000025" class="edge">
<title>Node21&#45;&gt;Node25</title>
<g id="a_edge24_Node000021_Node000025"><a xlink:title=" ">
<path fill="none" stroke="#63b8ff" d="M2247.37,-133.87C2273.1,-123.23 2309.06,-108.36 2335.57,-97.4"/>
<polygon fill="#63b8ff" stroke="#63b8ff" points="2246.32,-130.51 2238.42,-137.57 2249,-136.98 2246.32,-130.51"/>
</a>
</g>
</g>
<!-- Node26 -->
<g id="Node000026" class="node">
<title>Node26</title>
<g id="a_Node000026"><a xlink:href="_halley_8hh.html" target="_top" xlink:title=" ">
<polygon fill="white" stroke="#666666" points="2595.75,-97 2458.25,-97 2458.25,-66.5 2595.75,-66.5 2595.75,-97"/>
<text text-anchor="start" x="2466.25" y="-83.5" font-family="Helvetica,sans-Serif" font-size="10.00">include/Optimist/RootFinder</text>
<text text-anchor="middle" x="2527" y="-72.25" font-family="Helvetica,sans-Serif" font-size="10.00">/Halley.hh</text>
</a>
</g>
</g>
<!-- Node21&#45;&gt;Node26 -->
<g id="edge25_Node000021_Node000026" class="edge">
<title>Node21&#45;&gt;Node26</title>
<g id="a_edge25_Node000021_Node000026"><a xlink:title=" ">
<path fill="none" stroke="#63b8ff" d="M2270.12,-135.86C2322.48,-125.03 2401.38,-108.72 2457.92,-97.03"/>
<polygon fill="#63b8ff" stroke="#63b8ff" points="2269.61,-132.39 2260.52,-137.84 2271.02,-139.24 2269.61,-132.39"/>
</a>
</g>
</g>
<!-- Node27 -->
<g id="Node000027" class="node">
<title>Node27</title>
<g id="a_Node000027"><a xlink:href="_newton_8hh.html" target="_top" xlink:title=" ">
<polygon fill="white" stroke="#666666" points="2751.75,-97 2614.25,-97 2614.25,-66.5 2751.75,-66.5 2751.75,-97"/>
<text text-anchor="start" x="2622.25" y="-83.5" font-family="Helvetica,sans-Serif" font-size="10.00">include/Optimist/RootFinder</text>
<text text-anchor="middle" x="2683" y="-72.25" font-family="Helvetica,sans-Serif" font-size="10.00">/Newton.hh</text>
</a>
</g>
</g>
<!-- Node21&#45;&gt;Node27 -->
<g id="edge26_Node000021_Node000027" class="edge">
<title>Node21&#45;&gt;Node27</title>
<g id="a_edge26_Node000021_Node000027"><a xlink:title=" ">
<path fill="none" stroke="#63b8ff" d="M2301.67,-137.41C2380.83,-128.1 2501,-113.19 2605,-97 2607.99,-96.53 2611.05,-96.04 2614.13,-95.53"/>
<polygon fill="#63b8ff" stroke="#63b8ff" points="2301.32,-133.92 2291.8,-138.56 2302.14,-140.88 2301.32,-133.92"/>
</a>
</g>
</g>
<!-- Node28 -->
<g id="Node000028" class="node">
<title>Node28</title>
<g id="a_Node000028"><a xlink:href="_quasi_newton_8hh.html" target="_top" xlink:title=" ">
<polygon fill="white" stroke="#666666" points="1971.75,-97 1834.25,-97 1834.25,-66.5 1971.75,-66.5 1971.75,-97"/>
<text text-anchor="start" x="1842.25" y="-83.5" font-family="Helvetica,sans-Serif" font-size="10.00">include/Optimist/RootFinder</text>
<text text-anchor="middle" x="1903" y="-72.25" font-family="Helvetica,sans-Serif" font-size="10.00">/QuasiNewton.hh</text>
</a>
</g>
</g>
<!-- Node21&#45;&gt;Node28 -->
<g id="edge27_Node000021_Node000028" class="edge">
<title>Node21&#45;&gt;Node28</title>
<g id="a_edge27_Node000021_Node000028"><a xlink:title=" ">
<path fill="none" stroke="#63b8ff" d="M2159.88,-135.86C2107.52,-125.03 2028.62,-108.72 1972.08,-97.03"/>
<polygon fill="#63b8ff" stroke="#63b8ff" points="2158.98,-139.24 2169.48,-137.84 2160.39,-132.39 2158.98,-139.24"/>
</a>
</g>
</g>
<!-- Node31 -->
<g id="Node000031" class="node">
<title>Node31</title>
<g id="a_Node000031"><a xlink:href="_varona_8hh.html" target="_top" xlink:title=" ">
<polygon fill="white" stroke="#666666" points="2127.75,-97 1990.25,-97 1990.25,-66.5 2127.75,-66.5 2127.75,-97"/>
<text text-anchor="start" x="1998.25" y="-83.5" font-family="Helvetica,sans-Serif" font-size="10.00">include/Optimist/RootFinder</text>
<text text-anchor="middle" x="2059" y="-72.25" font-family="Helvetica,sans-Serif" font-size="10.00">/Varona.hh</text>
</a>
</g>
</g>
<!-- Node21&#45;&gt;Node31 -->
<g id="edge30_Node000021_Node000031" class="edge">
<title>Node21&#45;&gt;Node31</title>
<g id="a_edge30_Node000021_Node000031"><a xlink:title=" ">
<path fill="none" stroke="#63b8ff" d="M2182.63,-133.87C2156.9,-123.23 2120.94,-108.36 2094.43,-97.4"/>
<polygon fill="#63b8ff" stroke="#63b8ff" points="2181,-136.98 2191.58,-137.57 2183.68,-130.51 2181,-136.98"/>
</a>
</g>
</g>
<!-- Node23 -->
<g id="Node000023" class="node">
<title>Node23</title>
<g id="a_Node000023"><a xlink:href="_algo748_8hh.html" target="_top" xlink:title=" ">
<polygon fill="white" stroke="#666666" points="2244.75,-30.5 2107.25,-30.5 2107.25,0 2244.75,0 2244.75,-30.5"/>
<text text-anchor="start" x="2115.25" y="-17" font-family="Helvetica,sans-Serif" font-size="10.00">include/Optimist/RootFinder</text>
<text text-anchor="middle" x="2176" y="-5.75" font-family="Helvetica,sans-Serif" font-size="10.00">/Algo748.hh</text>
</a>
</g>
</g>
<!-- Node22&#45;&gt;Node23 -->
<g id="edge22_Node000022_Node000023" class="edge">
<title>Node22&#45;&gt;Node23</title>
<g id="a_edge22_Node000022_Node000023"><a xlink:title=" ">
<path fill="none" stroke="#63b8ff" d="M2200.34,-56.51C2195.12,-47.87 2189.4,-38.41 2184.81,-30.83"/>
<polygon fill="#63b8ff" stroke="#63b8ff" points="2197.2,-58.07 2205.37,-64.82 2203.19,-54.45 2197.2,-58.07"/>
</a>
</g>
</g>
<!-- Node24 -->
<g id="Node000024" class="node">
<title>Node24</title>
<g id="a_Node000024"><a xlink:href="_chandrupatla_8hh.html" target="_top" xlink:title=" ">
<polygon fill="white" stroke="#666666" points="2400.75,-30.5 2263.25,-30.5 2263.25,0 2400.75,0 2400.75,-30.5"/>
<text text-anchor="start" x="2271.25" y="-17" font-family="Helvetica,sans-Serif" font-size="10.00">include/Optimist/RootFinder</text>
<text text-anchor="middle" x="2332" y="-5.75" font-family="Helvetica,sans-Serif" font-size="10.00">/Chandrupatla.hh</text>
</a>
</g>
</g>
<!-- Node22&#45;&gt;Node24 -->
<g id="edge23_Node000022_Node000024" class="edge">
<title>Node22&#45;&gt;Node24</title>
<g id="a_edge23_Node000022_Node000024"><a xlink:title=" ">
<path fill="none" stroke="#63b8ff" d="M2251.45,-60.66C2268.96,-51 2289.57,-39.64 2305.56,-30.83"/>
<polygon fill="#63b8ff" stroke="#63b8ff" points="2249.94,-57.49 2242.87,-65.38 2253.32,-63.62 2249.94,-57.49"/>
</a>
</g>
</g>
<!-- Node29 -->
<g id="Node000029" class="node">
<title>Node29</title>
<g id="a_Node000029"><a xlink:href="_broyden_8hh.html" target="_top" xlink:title=" ">
<polygon fill="white" stroke="#666666" points="1854.75,-30.5 1717.25,-30.5 1717.25,0 1854.75,0 1854.75,-30.5"/>
<text text-anchor="start" x="1725.25" y="-17" font-family="Helvetica,sans-Serif" font-size="10.00">include/Optimist/RootFinder</text>
<text text-anchor="middle" x="1786" y="-5.75" font-family="Helvetica,sans-Serif" font-size="10.00">/Broyden.hh</text>
</a>
</g>
</g>
<!-- Node28&#45;&gt;Node29 -->
<g id="edge28_Node000028_Node000029" class="edge">
<title>Node28&#45;&gt;Node29</title>
<g id="a_edge28_Node000028_Node000029"><a xlink:title=" ">
<path fill="none" stroke="#63b8ff" d="M1866.55,-60.66C1849.04,-51 1828.43,-39.64 1812.44,-30.83"/>
<polygon fill="#63b8ff" stroke="#63b8ff" points="1864.68,-63.62 1875.13,-65.38 1868.06,-57.49 1864.68,-63.62"/>
</a>
</g>
</g>
<!-- Node30 -->
<g id="Node000030" class="node">
<title>Node30</title>
<g id="a_Node000030"><a xlink:href="_greenstadt_8hh.html" target="_top" xlink:title=" ">
<polygon fill="white" stroke="#666666" points="2010.75,-30.5 1873.25,-30.5 1873.25,0 2010.75,0 2010.75,-30.5"/>
<text text-anchor="start" x="1881.25" y="-17" font-family="Helvetica,sans-Serif" font-size="10.00">include/Optimist/RootFinder</text>
<text text-anchor="middle" x="1942" y="-5.75" font-family="Helvetica,sans-Serif" font-size="10.00">/Greenstadt.hh</text>
</a>
</g>
</g>
<!-- Node28&#45;&gt;Node30 -->
<g id="edge29_Node000028_Node000030" class="edge">
<title>Node28&#45;&gt;Node30</title>
<g id="a_edge29_Node000028_Node000030"><a xlink:title=" ">
<path fill="none" stroke="#63b8ff" d="M1917.66,-56.51C1922.88,-47.87 1928.6,-38.41 1933.19,-30.83"/>
<polygon fill="#63b8ff" stroke="#63b8ff" points="1914.81,-54.45 1912.63,-64.82 1920.8,-58.07 1914.81,-54.45"/>
</a>
</g>
</g>
<!-- Node32&#45;&gt;Node4 -->
<g id="edge33_Node000032_Node000004" class="edge">
<title>Node32&#45;&gt;Node4</title>
<g id="a_edge33_Node000032_Node000004"><a xlink:title=" ">
<path fill="none" stroke="#63b8ff" d="M829.25,-206.26C805.37,-204.05 779.13,-201.64 755,-199.5 567.06,-182.81 519.36,-185.8 332,-163.5 329.24,-163.17 326.44,-162.82 323.61,-162.46"/>
<polygon fill="#63b8ff" stroke="#63b8ff" points="828.61,-209.71 838.89,-207.15 829.26,-202.74 828.61,-209.71"/>
</a>
</g>
</g>
<!-- Node32&#45;&gt;Node5 -->
<g id="edge34_Node000032_Node000005" class="edge">
<title>Node32&#45;&gt;Node5</title>
<g id="a_edge34_Node000032_Node000005"><a xlink:title=" ">
<path fill="none" stroke="#63b8ff" d="M829.28,-205.86C805.41,-203.64 779.15,-201.33 755,-199.5 484.19,-178.99 414.6,-196.27 145,-163.5 142.17,-163.16 139.28,-162.77 136.37,-162.36"/>
<polygon fill="#63b8ff" stroke="#63b8ff" points="828.64,-209.32 838.92,-206.77 829.29,-202.35 828.64,-209.32"/>
</a>
</g>
</g>
<!-- Node32&#45;&gt;Node7 -->
<g id="edge35_Node000032_Node000007" class="edge">
<title>Node32&#45;&gt;Node7</title>
<g id="a_edge35_Node000032_Node000007"><a xlink:title=" ">
<path fill="none" stroke="#63b8ff" d="M954.03,-201.7C994.02,-190.99 1052.58,-175.32 1095.27,-163.9"/>
<polygon fill="#63b8ff" stroke="#63b8ff" points="953.24,-198.29 944.48,-204.25 955.05,-205.05 953.24,-198.29"/>
</a>
</g>
</g>
<!-- Node32&#45;&gt;Node8 -->
<g id="edge36_Node000032_Node000008" class="edge">
<title>Node32&#45;&gt;Node8</title>
<g id="a_edge36_Node000032_Node000008"><a xlink:title=" ">
<path fill="none" stroke="#63b8ff" d="M980.86,-202.98C1044.19,-193.29 1138.87,-178.35 1221,-163.5 1223.85,-162.99 1226.75,-162.45 1229.69,-161.9"/>
<polygon fill="#63b8ff" stroke="#63b8ff" points="980.66,-199.47 971.3,-204.44 981.71,-206.39 980.66,-199.47"/>
</a>
</g>
</g>
<!-- Node32&#45;&gt;Node9 -->
<g id="edge37_Node000032_Node000009" class="edge">
<title>Node32&#45;&gt;Node9</title>
<g id="a_edge37_Node000032_Node000009"><a xlink:title=" ">
<path fill="none" stroke="#63b8ff" d="M989.01,-206.97C1079.92,-198.79 1232.59,-183.58 1363,-163.5 1365.77,-163.07 1368.6,-162.61 1371.45,-162.13"/>
<polygon fill="#63b8ff" stroke="#63b8ff" points="988.85,-203.47 979.2,-207.85 989.47,-210.44 988.85,-203.47"/>
</a>
</g>
</g>
<!-- Node32&#45;&gt;Node10 -->
<g id="edge38_Node000032_Node000010" class="edge">
<title>Node32&#45;&gt;Node10</title>
<g id="a_edge38_Node000032_Node000010"><a xlink:title=" ">
<path fill="none" stroke="#63b8ff" d="M988.95,-206.95C1016.82,-204.59 1048.29,-201.92 1077,-199.5 1268.1,-183.4 1316.81,-188.14 1507,-163.5 1510.12,-163.1 1513.29,-162.66 1516.5,-162.19"/>
<polygon fill="#63b8ff" stroke="#63b8ff" points="988.83,-203.45 979.17,-207.78 989.43,-210.42 988.83,-203.45"/>
</a>
</g>
</g>
<!-- Node32&#45;&gt;Node11 -->
<g id="edge39_Node000032_Node000011" class="edge">
<title>Node32&#45;&gt;Node11</title>
<g id="a_edge39_Node000032_Node000011"><a xlink:title=" ">
<path fill="none" stroke="#63b8ff" d="M897.27,-195.3C890.87,-185.23 883.06,-172.94 877.12,-163.59"/>
<polygon fill="#63b8ff" stroke="#63b8ff" points="894.17,-196.94 902.49,-203.5 900.08,-193.19 894.17,-196.94"/>
</a>
</g>
</g>
<!-- Node32&#45;&gt;Node12 -->
<g id="edge40_Node000032_Node000012" class="edge">
<title>Node32&#45;&gt;Node12</title>
<g id="a_edge40_Node000032_Node000012"><a xlink:title=" ">
<path fill="none" stroke="#63b8ff" d="M932.26,-198.75C948.56,-188.24 970.22,-174.26 986.38,-163.84"/>
<polygon fill="#63b8ff" stroke="#63b8ff" points="930.68,-195.6 924.18,-203.96 934.48,-201.48 930.68,-195.6"/>
</a>
</g>
</g>
<!-- Node32&#45;&gt;Node14 -->
<g id="edge41_Node000032_Node000014" class="edge">
<title>Node32&#45;&gt;Node14</title>
<g id="a_edge41_Node000032_Node000014"><a xlink:title=" ">
<path fill="none" stroke="#63b8ff" d="M872.44,-200.93C841.99,-190.26 798.61,-175.05 766.79,-163.9"/>
<polygon fill="#63b8ff" stroke="#63b8ff" points="871,-204.14 881.6,-204.14 873.32,-197.53 871,-204.14"/>
</a>
</g>
</g>
<!-- Node32&#45;&gt;Node15 -->
<g id="edge42_Node000032_Node000015" class="edge">
<title>Node32&#45;&gt;Node15</title>
<g id="a_edge42_Node000032_Node000015"><a xlink:title=" ">
<path fill="none" stroke="#63b8ff" d="M829.15,-206.17C742.81,-197.57 601.28,-182.25 480,-163.5 477.03,-163.04 473.99,-162.55 470.93,-162.03"/>
<polygon fill="#63b8ff" stroke="#63b8ff" points="828.63,-209.64 838.93,-207.14 829.32,-202.67 828.63,-209.64"/>
</a>
</g>
</g>
<!-- Node32&#45;&gt;Node16 -->
<g id="edge43_Node000032_Node000016" class="edge">
<title>Node32&#45;&gt;Node16</title>
<g id="a_edge43_Node000032_Node000016"><a xlink:title=" ">
<path fill="none" stroke="#63b8ff" d="M849.56,-202.57C792.41,-191.83 705.72,-175.52 643.25,-163.78"/>
<polygon fill="#63b8ff" stroke="#63b8ff" points="848.62,-205.96 859.1,-204.37 849.92,-199.08 848.62,-205.96"/>
</a>
</g>
</g>
</g>
</svg>
