<?xml version="1.0" encoding="UTF-8" standalone="no"?>
<!DOCTYPE svg PUBLIC "-//W3C//DTD SVG 1.1//EN"
 "http://www.w3.org/Graphics/SVG/1.1/DTD/svg11.dtd">
<!-- Generated by graphviz version 14.0.5 (20251129.0259)
 -->
<!-- Title: include/Optimist/Optimizer.hh Pages: 1 -->
<svg width="440pt" height="94pt"
 viewBox="0.00 0.00 440.00 94.00" xmlns="http://www.w3.org/2000/svg" xmlns:xlink="http://www.w3.org/1999/xlink">
<g id="graph0" class="graph" transform="scale(1 1) rotate(0) translate(4 89.75)">
<title>include/Optimist/Optimizer.hh</title>
<!-- Node1 -->
<g id="Node000001" class="node">
<title>Node1</title>
<g id="a_Node000001"><a xlink:title=" ">
<polygon fill="#999999" stroke="#666666" points="287.88,-85.75 143.62,-85.75 143.62,-66.5 287.88,-66.5 287.88,-85.75"/>
<text xml:space="preserve" text-anchor="middle" x="215.75" y="-72.25" font-family="Helvetica,sans-Serif" font-size="10.00">include/Optimist/Optimizer.hh</text>
</a>
</g>
</g>
<!-- Node2 -->
<g id="Node000002" class="node">
<title>Node2</title>
<g id="a_Node000002"><a xlink:href="_nelder_mead_8hh.html" target="_top" xlink:title=" ">
<polygon fill="white" stroke="#666666" points="131.5,-30.5 0,-30.5 0,0 131.5,0 131.5,-30.5"/>
<text xml:space="preserve" text-anchor="start" x="8" y="-17" font-family="Helvetica,sans-Serif" font-size="10.00">include/Optimist/Optimizer</text>
<text xml:space="preserve" text-anchor="middle" x="65.75" y="-5.75" font-family="Helvetica,sans-Serif" font-size="10.00">/NelderMead.hh</text>
</a>
</g>
</g>
<!-- Node1&#45;&gt;Node2 -->
<g id="edge1_Node000001_Node000002" class="edge">
<title>Node1&#45;&gt;Node2</title>
<g id="a_edge1_Node000001_Node000002"><a xlink:title=" ">
<path fill="none" stroke="#63b8ff" d="M182.16,-61.94C158.72,-52.74 127.43,-40.46 103.19,-30.94"/>
<polygon fill="#63b8ff" stroke="#63b8ff" points="180.64,-65.11 191.23,-65.5 183.2,-58.59 180.64,-65.11"/>
</a>
</g>
</g>
<!-- Node3 -->
<g id="Node000003" class="node">
<title>Node3</title>
<g id="a_Node000003"><a xlink:href="_particle_swarm_8hh.html" target="_top" xlink:title=" ">
<polygon fill="white" stroke="#666666" points="281.5,-30.5 150,-30.5 150,0 281.5,0 281.5,-30.5"/>
<text xml:space="preserve" text-anchor="start" x="158" y="-17" font-family="Helvetica,sans-Serif" font-size="10.00">include/Optimist/Optimizer</text>
<text xml:space="preserve" text-anchor="middle" x="215.75" y="-5.75" font-family="Helvetica,sans-Serif" font-size="10.00">/ParticleSwarm.hh</text>
</a>
</g>
</g>
<!-- Node1&#45;&gt;Node3 -->
<g id="edge2_Node000001_Node000003" class="edge">
<title>Node1&#45;&gt;Node3</title>
<g id="a_edge2_Node000001_Node000003"><a xlink:title=" ">
<path fill="none" stroke="#63b8ff" d="M215.75,-54.92C215.75,-46.99 215.75,-38.06 215.75,-30.78"/>
<polygon fill="#63b8ff" stroke="#63b8ff" points="212.25,-54.67 215.75,-64.67 219.25,-54.67 212.25,-54.67"/>
</a>
</g>
</g>
<!-- Node4 -->
<g id="Node000004" class="node">
<title>Node4</title>
<g id="a_Node000004"><a xlink:href="_pattern_search_8hh.html" target="_top" xlink:title=" ">
<polygon fill="white" stroke="#666666" points="431.5,-30.5 300,-30.5 300,0 431.5,0 431.5,-30.5"/>
<text xml:space="preserve" text-anchor="start" x="308" y="-17" font-family="Helvetica,sans-Serif" font-size="10.00">include/Optimist/Optimizer</text>
<text xml:space="preserve" text-anchor="middle" x="365.75" y="-5.75" font-family="Helvetica,sans-Serif" font-size="10.00">/PatternSearch.hh</text>
</a>
</g>
</g>
<!-- Node1&#45;&gt;Node4 -->
<g id="edge3_Node000001_Node000004" class="edge">
<title>Node1&#45;&gt;Node4</title>
<g id="a_edge3_Node000001_Node000004"><a xlink:title=" ">
<path fill="none" stroke="#63b8ff" d="M249.34,-61.94C272.78,-52.74 304.07,-40.46 328.31,-30.94"/>
<polygon fill="#63b8ff" stroke="#63b8ff" points="248.3,-58.59 240.27,-65.5 250.86,-65.11 248.3,-58.59"/>
</a>
</g>
</g>
</g>
</svg>
