<?xml version="1.0" encoding="UTF-8" standalone="no"?>
<!DOCTYPE svg PUBLIC "-//W3C//DTD SVG 1.1//EN"
 "http://www.w3.org/Graphics/SVG/1.1/DTD/svg11.dtd">
<!-- Generated by graphviz version 14.1.2 (20260124.0452)
 -->
<!-- Title: core/include/Optimist.hh Pages: 1 -->
<svg width="2104pt" height="360pt"
 viewBox="0.00 0.00 2104.00 360.00" xmlns="http://www.w3.org/2000/svg" xmlns:xlink="http://www.w3.org/1999/xlink">
<g id="graph0" class="graph" transform="scale(1 1) rotate(0) translate(4 355.75)">
<title>core/include/Optimist.hh</title>
<!-- Node1 -->
<g id="Node000001" class="node">
<title>Node1</title>
<g id="a_Node000001"><a xlink:title=" ">
<polygon fill="#999999" stroke="#666666" points="941.88,-351.75 820.12,-351.75 820.12,-332.5 941.88,-332.5 941.88,-351.75"/>
<text xml:space="preserve" text-anchor="middle" x="881" y="-338.25" font-family="Helvetica,sans-Serif" font-size="10.00">core/include/Optimist.hh</text>
</a>
</g>
</g>
<!-- Node2 -->
<g id="Node000002" class="node">
<title>Node2</title>
<g id="a_Node000002"><a xlink:href="_finite_differences_8hh.html" target="_top" xlink:title=" ">
<polygon fill="white" stroke="#666666" points="853.12,-296.5 744.88,-296.5 744.88,-266 853.12,-266 853.12,-296.5"/>
<text xml:space="preserve" text-anchor="start" x="752.88" y="-283" font-family="Helvetica,sans-Serif" font-size="10.00">core/include/Optimist</text>
<text xml:space="preserve" text-anchor="middle" x="799" y="-271.75" font-family="Helvetica,sans-Serif" font-size="10.00">/FiniteDifferences.hh</text>
</a>
</g>
</g>
<!-- Node1&#45;&gt;Node2 -->
<g id="edge1_Node000001_Node000002" class="edge">
<title>Node1&#45;&gt;Node2</title>
<g id="a_edge1_Node000001_Node000002"><a xlink:title=" ">
<path fill="none" stroke="#63b8ff" d="M859.36,-325.59C846.93,-316.67 831.43,-305.53 819.24,-296.78"/>
<polygon fill="#63b8ff" stroke="#63b8ff" points="857.15,-328.31 867.32,-331.3 861.23,-322.63 857.15,-328.31"/>
</a>
</g>
</g>
<!-- Node3 -->
<g id="Node000003" class="node">
<title>Node3</title>
<g id="a_Node000003"><a xlink:href="_function_8hh.html" target="_top" xlink:title=" ">
<polygon fill="white" stroke="#666666" points="1300.12,-296.5 1191.88,-296.5 1191.88,-266 1300.12,-266 1300.12,-296.5"/>
<text xml:space="preserve" text-anchor="start" x="1199.88" y="-283" font-family="Helvetica,sans-Serif" font-size="10.00">core/include/Optimist</text>
<text xml:space="preserve" text-anchor="middle" x="1246" y="-271.75" font-family="Helvetica,sans-Serif" font-size="10.00">/Function.hh</text>
</a>
</g>
</g>
<!-- Node1&#45;&gt;Node3 -->
<g id="edge2_Node000001_Node000003" class="edge">
<title>Node1&#45;&gt;Node3</title>
<g id="a_edge2_Node000001_Node000003"><a xlink:title=" ">
<path fill="none" stroke="#63b8ff" d="M948.56,-330.23C1018.59,-318.93 1126.71,-301.49 1191.49,-291.04"/>
<polygon fill="#63b8ff" stroke="#63b8ff" points="948.04,-326.77 938.73,-331.81 949.16,-333.68 948.04,-326.77"/>
</a>
</g>
</g>
<!-- Node4 -->
<g id="Node000004" class="node">
<title>Node4</title>
<g id="a_Node000004"><a xlink:href="_solver_base_8hh.html" target="_top" xlink:title=" ">
<polygon fill="white" stroke="#666666" points="652.12,-230 543.88,-230 543.88,-199.5 652.12,-199.5 652.12,-230"/>
<text xml:space="preserve" text-anchor="start" x="551.88" y="-216.5" font-family="Helvetica,sans-Serif" font-size="10.00">core/include/Optimist</text>
<text xml:space="preserve" text-anchor="middle" x="598" y="-205.25" font-family="Helvetica,sans-Serif" font-size="10.00">/SolverBase.hh</text>
</a>
</g>
</g>
<!-- Node1&#45;&gt;Node4 -->
<g id="edge42_Node000001_Node000004" class="edge">
<title>Node1&#45;&gt;Node4</title>
<g id="a_edge42_Node000001_Node000004"><a xlink:title=" ">
<path fill="none" stroke="#63b8ff" d="M881.54,-320.7C880.82,-303.63 876.9,-279.89 862,-266 795.61,-204.13 749.95,-248.02 661,-230 658.25,-229.44 655.44,-228.86 652.6,-228.26"/>
<polygon fill="#63b8ff" stroke="#63b8ff" points="878.04,-320.7 881.58,-330.68 885.04,-320.67 878.04,-320.7"/>
</a>
</g>
</g>
<!-- Node3&#45;&gt;Node4 -->
<g id="edge3_Node000003_Node000004" class="edge">
<title>Node3&#45;&gt;Node4</title>
<g id="a_edge3_Node000003_Node000004"><a xlink:title=" ">
<path fill="none" stroke="#63b8ff" d="M1180.26,-277.54C1071.63,-272.4 848.09,-259.05 661,-230 658.23,-229.57 655.4,-229.09 652.55,-228.57"/>
<polygon fill="#63b8ff" stroke="#63b8ff" points="1180,-281.03 1190.15,-278 1180.33,-274.04 1180,-281.03"/>
</a>
</g>
</g>
<!-- Node21 -->
<g id="Node000021" class="node">
<title>Node21</title>
<g id="a_Node000021"><a xlink:href="_booth_8hh.html" target="_top" xlink:title=" ">
<polygon fill="white" stroke="#666666" points="778.12,-230 669.88,-230 669.88,-199.5 778.12,-199.5 778.12,-230"/>
<text xml:space="preserve" text-anchor="start" x="677.88" y="-216.5" font-family="Helvetica,sans-Serif" font-size="10.00">core/include/Optimist</text>
<text xml:space="preserve" text-anchor="middle" x="724" y="-205.25" font-family="Helvetica,sans-Serif" font-size="10.00">/TestSet/Booth.hh</text>
</a>
</g>
</g>
<!-- Node3&#45;&gt;Node21 -->
<g id="edge20_Node000003_Node000021" class="edge">
<title>Node3&#45;&gt;Node21</title>
<g id="a_edge20_Node000003_Node000021"><a xlink:title=" ">
<path fill="none" stroke="#63b8ff" d="M1180.36,-275.42C1090.98,-268.31 926.18,-253.28 787,-230 784.23,-229.54 781.41,-229.03 778.56,-228.49"/>
<polygon fill="#63b8ff" stroke="#63b8ff" points="1179.92,-278.89 1190.16,-276.19 1180.47,-271.92 1179.92,-278.89"/>
</a>
</g>
</g>
<!-- Node23 -->
<g id="Node000023" class="node">
<title>Node23</title>
<g id="a_Node000023"><a xlink:href="_brown_8hh.html" target="_top" xlink:title=" ">
<polygon fill="white" stroke="#666666" points="904.12,-230 795.88,-230 795.88,-199.5 904.12,-199.5 904.12,-230"/>
<text xml:space="preserve" text-anchor="start" x="803.88" y="-216.5" font-family="Helvetica,sans-Serif" font-size="10.00">core/include/Optimist</text>
<text xml:space="preserve" text-anchor="middle" x="850" y="-205.25" font-family="Helvetica,sans-Serif" font-size="10.00">/TestSet/Brown.hh</text>
</a>
</g>
</g>
<!-- Node3&#45;&gt;Node23 -->
<g id="edge22_Node000003_Node000023" class="edge">
<title>Node3&#45;&gt;Node23</title>
<g id="a_edge22_Node000003_Node000023"><a xlink:title=" ">
<path fill="none" stroke="#63b8ff" d="M1180.31,-271.77C1112.97,-262.75 1005.34,-247.39 913,-230 910.24,-229.48 907.43,-228.93 904.59,-228.35"/>
<polygon fill="#63b8ff" stroke="#63b8ff" points="1179.7,-275.22 1190.08,-273.07 1180.63,-268.28 1179.7,-275.22"/>
</a>
</g>
</g>
<!-- Node24 -->
<g id="Node000024" class="node">
<title>Node24</title>
<g id="a_Node000024"><a xlink:href="_cos_8hh.html" target="_top" xlink:title=" ">
<polygon fill="white" stroke="#666666" points="1030.12,-230 921.88,-230 921.88,-199.5 1030.12,-199.5 1030.12,-230"/>
<text xml:space="preserve" text-anchor="start" x="929.88" y="-216.5" font-family="Helvetica,sans-Serif" font-size="10.00">core/include/Optimist</text>
<text xml:space="preserve" text-anchor="middle" x="976" y="-205.25" font-family="Helvetica,sans-Serif" font-size="10.00">/TestSet/Cos.hh</text>
</a>
</g>
</g>
<!-- Node3&#45;&gt;Node24 -->
<g id="edge24_Node000003_Node000024" class="edge">
<title>Node3&#45;&gt;Node24</title>
<g id="a_edge24_Node000003_Node000024"><a xlink:title=" ">
<path fill="none" stroke="#63b8ff" d="M1180.61,-264.63C1134.55,-253.63 1073.59,-239.06 1030.23,-228.7"/>
<polygon fill="#63b8ff" stroke="#63b8ff" points="1179.67,-268 1190.21,-266.92 1181.3,-261.2 1179.67,-268"/>
</a>
</g>
</g>
<!-- Node25 -->
<g id="Node000025" class="node">
<title>Node25</title>
<g id="a_Node000025"><a xlink:href="_cosh_8hh.html" target="_top" xlink:title=" ">
<polygon fill="white" stroke="#666666" points="1156.12,-230 1047.88,-230 1047.88,-199.5 1156.12,-199.5 1156.12,-230"/>
<text xml:space="preserve" text-anchor="start" x="1055.88" y="-216.5" font-family="Helvetica,sans-Serif" font-size="10.00">core/include/Optimist</text>
<text xml:space="preserve" text-anchor="middle" x="1102" y="-205.25" font-family="Helvetica,sans-Serif" font-size="10.00">/TestSet/Cosh.hh</text>
</a>
</g>
</g>
<!-- Node3&#45;&gt;Node25 -->
<g id="edge26_Node000003_Node000025" class="edge">
<title>Node3&#45;&gt;Node25</title>
<g id="a_edge26_Node000003_Node000025"><a xlink:title=" ">
<path fill="none" stroke="#63b8ff" d="M1202.95,-260.97C1181.01,-251.14 1154.77,-239.39 1134.55,-230.33"/>
<polygon fill="#63b8ff" stroke="#63b8ff" points="1201.39,-264.1 1211.94,-265 1204.25,-257.71 1201.39,-264.1"/>
</a>
</g>
</g>
<!-- Node26 -->
<g id="Node000026" class="node">
<title>Node26</title>
<g id="a_Node000026"><a xlink:href="_elliptic_paraboloid_8hh.html" target="_top" xlink:title=" ">
<polygon fill="white" stroke="#666666" points="1318.12,-230 1173.88,-230 1173.88,-199.5 1318.12,-199.5 1318.12,-230"/>
<text xml:space="preserve" text-anchor="start" x="1181.88" y="-216.5" font-family="Helvetica,sans-Serif" font-size="10.00">core/include/Optimist</text>
<text xml:space="preserve" text-anchor="middle" x="1246" y="-205.25" font-family="Helvetica,sans-Serif" font-size="10.00">/TestSet/EllipticParaboloid.hh</text>
</a>
</g>
</g>
<!-- Node3&#45;&gt;Node26 -->
<g id="edge28_Node000003_Node000026" class="edge">
<title>Node3&#45;&gt;Node26</title>
<g id="a_edge28_Node000003_Node000026"><a xlink:title=" ">
<path fill="none" stroke="#63b8ff" d="M1246,-254.31C1246,-246.14 1246,-237.41 1246,-230.33"/>
<polygon fill="#63b8ff" stroke="#63b8ff" points="1242.5,-254.1 1246,-264.1 1249.5,-254.1 1242.5,-254.1"/>
</a>
</g>
</g>
<!-- Node27 -->
<g id="Node000027" class="node">
<title>Node27</title>
<g id="a_Node000027"><a xlink:href="_linear_8hh.html" target="_top" xlink:title=" ">
<polygon fill="white" stroke="#666666" points="1444.12,-230 1335.88,-230 1335.88,-199.5 1444.12,-199.5 1444.12,-230"/>
<text xml:space="preserve" text-anchor="start" x="1343.88" y="-216.5" font-family="Helvetica,sans-Serif" font-size="10.00">core/include/Optimist</text>
<text xml:space="preserve" text-anchor="middle" x="1390" y="-205.25" font-family="Helvetica,sans-Serif" font-size="10.00">/TestSet/Linear.hh</text>
</a>
</g>
</g>
<!-- Node3&#45;&gt;Node27 -->
<g id="edge30_Node000003_Node000027" class="edge">
<title>Node3&#45;&gt;Node27</title>
<g id="a_edge30_Node000003_Node000027"><a xlink:title=" ">
<path fill="none" stroke="#63b8ff" d="M1289.05,-260.97C1310.99,-251.14 1337.23,-239.39 1357.45,-230.33"/>
<polygon fill="#63b8ff" stroke="#63b8ff" points="1287.75,-257.71 1280.06,-265 1290.61,-264.1 1287.75,-257.71"/>
</a>
</g>
</g>
<!-- Node28 -->
<g id="Node000028" class="node">
<title>Node28</title>
<g id="a_Node000028"><a xlink:href="_quadratic_8hh.html" target="_top" xlink:title=" ">
<polygon fill="white" stroke="#666666" points="1573.62,-230 1462.38,-230 1462.38,-199.5 1573.62,-199.5 1573.62,-230"/>
<text xml:space="preserve" text-anchor="start" x="1470.38" y="-216.5" font-family="Helvetica,sans-Serif" font-size="10.00">core/include/Optimist</text>
<text xml:space="preserve" text-anchor="middle" x="1518" y="-205.25" font-family="Helvetica,sans-Serif" font-size="10.00">/TestSet/Quadratic.hh</text>
</a>
</g>
</g>
<!-- Node3&#45;&gt;Node28 -->
<g id="edge32_Node000003_Node000028" class="edge">
<title>Node3&#45;&gt;Node28</title>
<g id="a_edge32_Node000003_Node000028"><a xlink:title=" ">
<path fill="none" stroke="#63b8ff" d="M1311.46,-264.73C1357.54,-253.8 1418.56,-239.33 1462.3,-228.96"/>
<polygon fill="#63b8ff" stroke="#63b8ff" points="1310.78,-261.29 1301.86,-267 1312.4,-268.1 1310.78,-261.29"/>
</a>
</g>
</g>
<!-- Node29 -->
<g id="Node000029" class="node">
<title>Node29</title>
<g id="a_Node000029"><a xlink:href="_rosenbrock_8hh.html" target="_top" xlink:title=" ">
<polygon fill="white" stroke="#666666" points="1713.88,-230 1592.12,-230 1592.12,-199.5 1713.88,-199.5 1713.88,-230"/>
<text xml:space="preserve" text-anchor="start" x="1600.12" y="-216.5" font-family="Helvetica,sans-Serif" font-size="10.00">core/include/Optimist</text>
<text xml:space="preserve" text-anchor="middle" x="1653" y="-205.25" font-family="Helvetica,sans-Serif" font-size="10.00">/TestSet/Rosenbrock.hh</text>
</a>
</g>
</g>
<!-- Node3&#45;&gt;Node29 -->
<g id="edge34_Node000003_Node000029" class="edge">
<title>Node3&#45;&gt;Node29</title>
<g id="a_edge34_Node000003_Node000029"><a xlink:title=" ">
<path fill="none" stroke="#63b8ff" d="M1311.81,-271.48C1379.86,-262.18 1489.11,-246.55 1583,-230 1585.93,-229.48 1588.93,-228.94 1591.95,-228.38"/>
<polygon fill="#63b8ff" stroke="#63b8ff" points="1311.36,-268.01 1301.92,-272.83 1312.31,-274.95 1311.36,-268.01"/>
</a>
</g>
</g>
<!-- Node30 -->
<g id="Node000030" class="node">
<title>Node30</title>
<g id="a_Node000030"><a xlink:href="_schaffer2_8hh.html" target="_top" xlink:title=" ">
<polygon fill="white" stroke="#666666" points="1843.62,-230 1732.38,-230 1732.38,-199.5 1843.62,-199.5 1843.62,-230"/>
<text xml:space="preserve" text-anchor="start" x="1740.38" y="-216.5" font-family="Helvetica,sans-Serif" font-size="10.00">core/include/Optimist</text>
<text xml:space="preserve" text-anchor="middle" x="1788" y="-205.25" font-family="Helvetica,sans-Serif" font-size="10.00">/TestSet/Schaffer2.hh</text>
</a>
</g>
</g>
<!-- Node3&#45;&gt;Node30 -->
<g id="edge36_Node000003_Node000030" class="edge">
<title>Node3&#45;&gt;Node30</title>
<g id="a_edge36_Node000003_Node000030"><a xlink:title=" ">
<path fill="none" stroke="#63b8ff" d="M1311.65,-275.65C1403.9,-268.66 1576.97,-253.62 1723,-230 1725.97,-229.52 1729,-228.99 1732.06,-228.43"/>
<polygon fill="#63b8ff" stroke="#63b8ff" points="1311.49,-272.15 1301.78,-276.39 1312.01,-279.13 1311.49,-272.15"/>
</a>
</g>
</g>
<!-- Node31 -->
<g id="Node000031" class="node">
<title>Node31</title>
<g id="a_Node000031"><a xlink:href="_sin_8hh.html" target="_top" xlink:title=" ">
<polygon fill="white" stroke="#666666" points="1970.12,-230 1861.88,-230 1861.88,-199.5 1970.12,-199.5 1970.12,-230"/>
<text xml:space="preserve" text-anchor="start" x="1869.88" y="-216.5" font-family="Helvetica,sans-Serif" font-size="10.00">core/include/Optimist</text>
<text xml:space="preserve" text-anchor="middle" x="1916" y="-205.25" font-family="Helvetica,sans-Serif" font-size="10.00">/TestSet/Sin.hh</text>
</a>
</g>
</g>
<!-- Node3&#45;&gt;Node31 -->
<g id="edge38_Node000003_Node000031" class="edge">
<title>Node3&#45;&gt;Node31</title>
<g id="a_edge38_Node000003_Node000031"><a xlink:title=" ">
<path fill="none" stroke="#63b8ff" d="M1311.7,-277.82C1423.44,-273.03 1657.42,-260.06 1853,-230 1855.77,-229.57 1858.6,-229.1 1861.45,-228.58"/>
<polygon fill="#63b8ff" stroke="#63b8ff" points="1311.65,-274.32 1301.81,-278.24 1311.95,-281.32 1311.65,-274.32"/>
</a>
</g>
</g>
<!-- Node32 -->
<g id="Node000032" class="node">
<title>Node32</title>
<g id="a_Node000032"><a xlink:href="_sinh_8hh.html" target="_top" xlink:title=" ">
<polygon fill="white" stroke="#666666" points="2096.12,-230 1987.88,-230 1987.88,-199.5 2096.12,-199.5 2096.12,-230"/>
<text xml:space="preserve" text-anchor="start" x="1995.88" y="-216.5" font-family="Helvetica,sans-Serif" font-size="10.00">core/include/Optimist</text>
<text xml:space="preserve" text-anchor="middle" x="2042" y="-205.25" font-family="Helvetica,sans-Serif" font-size="10.00">/TestSet/Sinh.hh</text>
</a>
</g>
</g>
<!-- Node3&#45;&gt;Node32 -->
<g id="edge40_Node000003_Node000032" class="edge">
<title>Node3&#45;&gt;Node32</title>
<g id="a_edge40_Node000003_Node000032"><a xlink:title=" ">
<path fill="none" stroke="#63b8ff" d="M1311.76,-279.13C1440.5,-276.19 1734.59,-265.8 1979,-230 1981.77,-229.59 1984.61,-229.13 1987.46,-228.63"/>
<polygon fill="#63b8ff" stroke="#63b8ff" points="1311.99,-275.62 1302.07,-279.34 1312.15,-282.62 1311.99,-275.62"/>
</a>
</g>
</g>
<!-- Node5 -->
<g id="Node000005" class="node">
<title>Node5</title>
<g id="a_Node000005"><a xlink:href="_optimizer_8hh.html" target="_top" xlink:title=" ">
<polygon fill="white" stroke="#666666" points="352.12,-163.5 243.88,-163.5 243.88,-133 352.12,-133 352.12,-163.5"/>
<text xml:space="preserve" text-anchor="start" x="251.88" y="-150" font-family="Helvetica,sans-Serif" font-size="10.00">core/include/Optimist</text>
<text xml:space="preserve" text-anchor="middle" x="298" y="-138.75" font-family="Helvetica,sans-Serif" font-size="10.00">/Optimizer.hh</text>
</a>
</g>
</g>
<!-- Node4&#45;&gt;Node5 -->
<g id="edge4_Node000004_Node000005" class="edge">
<title>Node4&#45;&gt;Node5</title>
<g id="a_edge4_Node000004_Node000005"><a xlink:title=" ">
<path fill="none" stroke="#63b8ff" d="M532.51,-199.67C478.6,-188.08 403.06,-171.84 352.43,-160.95"/>
<polygon fill="#63b8ff" stroke="#63b8ff" points="531.68,-203.07 542.19,-201.75 533.15,-196.23 531.68,-203.07"/>
</a>
</g>
</g>
<!-- Node9 -->
<g id="Node000009" class="node">
<title>Node9</title>
<g id="a_Node000009"><a xlink:href="_root_finder_8hh.html" target="_top" xlink:title=" ">
<polygon fill="white" stroke="#666666" points="939.12,-163.5 830.88,-163.5 830.88,-133 939.12,-133 939.12,-163.5"/>
<text xml:space="preserve" text-anchor="start" x="838.88" y="-150" font-family="Helvetica,sans-Serif" font-size="10.00">core/include/Optimist</text>
<text xml:space="preserve" text-anchor="middle" x="885" y="-138.75" font-family="Helvetica,sans-Serif" font-size="10.00">/RootFinder.hh</text>
</a>
</g>
</g>
<!-- Node4&#45;&gt;Node9 -->
<g id="edge8_Node000004_Node000009" class="edge">
<title>Node4&#45;&gt;Node9</title>
<g id="a_edge8_Node000004_Node000009"><a xlink:title=" ">
<path fill="none" stroke="#63b8ff" d="M663.22,-199C726.13,-184.84 787.79,-171.01 830.68,-161.41"/>
<polygon fill="#63b8ff" stroke="#63b8ff" points="662.76,-195.52 653.77,-201.13 664.3,-202.35 662.76,-195.52"/>
</a>
</g>
</g>
<!-- Node6 -->
<g id="Node000006" class="node">
<title>Node6</title>
<g id="a_Node000006"><a xlink:href="_nelder_mead_8hh.html" target="_top" xlink:title=" ">
<polygon fill="white" stroke="#666666" points="130,-97 0,-97 0,-66.5 130,-66.5 130,-97"/>
<text xml:space="preserve" text-anchor="start" x="8" y="-83.5" font-family="Helvetica,sans-Serif" font-size="10.00">core/include/Optimist</text>
<text xml:space="preserve" text-anchor="middle" x="65" y="-72.25" font-family="Helvetica,sans-Serif" font-size="10.00">/Optimizer/NelderMead.hh</text>
</a>
</g>
</g>
<!-- Node5&#45;&gt;Node6 -->
<g id="edge5_Node000005_Node000006" class="edge">
<title>Node5&#45;&gt;Node6</title>
<g id="a_edge5_Node000005_Node000006"><a xlink:title=" ">
<path fill="none" stroke="#63b8ff" d="M233.83,-129.49C197.39,-119.4 152.33,-106.93 117.93,-97.4"/>
<polygon fill="#63b8ff" stroke="#63b8ff" points="232.81,-132.83 243.38,-132.13 234.67,-126.09 232.81,-132.83"/>
</a>
</g>
</g>
<!-- Node7 -->
<g id="Node000007" class="node">
<title>Node7</title>
<g id="a_Node000007"><a xlink:href="_particle_swarm_8hh.html" target="_top" xlink:title=" ">
<polygon fill="white" stroke="#666666" points="289.62,-97 148.38,-97 148.38,-66.5 289.62,-66.5 289.62,-97"/>
<text xml:space="preserve" text-anchor="start" x="156.38" y="-83.5" font-family="Helvetica,sans-Serif" font-size="10.00">core/include/Optimist</text>
<text xml:space="preserve" text-anchor="middle" x="219" y="-72.25" font-family="Helvetica,sans-Serif" font-size="10.00">/Optimizer/ParticleSwarm.hh</text>
</a>
</g>
</g>
<!-- Node5&#45;&gt;Node7 -->
<g id="edge6_Node000005_Node000007" class="edge">
<title>Node5&#45;&gt;Node7</title>
<g id="a_edge6_Node000005_Node000007"><a xlink:title=" ">
<path fill="none" stroke="#63b8ff" d="M271.38,-125.52C260.01,-116.23 247.04,-105.65 236.86,-97.33"/>
<polygon fill="#63b8ff" stroke="#63b8ff" points="268.94,-128.04 278.9,-131.66 273.37,-122.62 268.94,-128.04"/>
</a>
</g>
</g>
<!-- Node8 -->
<g id="Node000008" class="node">
<title>Node8</title>
<g id="a_Node000008"><a xlink:href="_pattern_search_8hh.html" target="_top" xlink:title=" ">
<polygon fill="white" stroke="#666666" points="447.88,-97 308.12,-97 308.12,-66.5 447.88,-66.5 447.88,-97"/>
<text xml:space="preserve" text-anchor="start" x="316.12" y="-83.5" font-family="Helvetica,sans-Serif" font-size="10.00">core/include/Optimist</text>
<text xml:space="preserve" text-anchor="middle" x="378" y="-72.25" font-family="Helvetica,sans-Serif" font-size="10.00">/Optimizer/PatternSearch.hh</text>
</a>
</g>
</g>
<!-- Node5&#45;&gt;Node8 -->
<g id="edge7_Node000005_Node000008" class="edge">
<title>Node5&#45;&gt;Node8</title>
<g id="a_edge7_Node000005_Node000008"><a xlink:title=" ">
<path fill="none" stroke="#63b8ff" d="M324.95,-125.52C336.47,-116.23 349.6,-105.65 359.92,-97.33"/>
<polygon fill="#63b8ff" stroke="#63b8ff" points="322.92,-122.66 317.33,-131.66 327.31,-128.11 322.92,-122.66"/>
</a>
</g>
</g>
<!-- Node10 -->
<g id="Node000010" class="node">
<title>Node10</title>
<g id="a_Node000010"><a xlink:href="_bracketing_8hh.html" target="_top" xlink:title=" ">
<polygon fill="white" stroke="#666666" points="596,-97 466,-97 466,-66.5 596,-66.5 596,-97"/>
<text xml:space="preserve" text-anchor="start" x="474" y="-83.5" font-family="Helvetica,sans-Serif" font-size="10.00">core/include/Optimist</text>
<text xml:space="preserve" text-anchor="middle" x="531" y="-72.25" font-family="Helvetica,sans-Serif" font-size="10.00">/RootFinder/Bracketing.hh</text>
</a>
</g>
</g>
<!-- Node9&#45;&gt;Node10 -->
<g id="edge9_Node000009_Node000010" class="edge">
<title>Node9&#45;&gt;Node10</title>
<g id="a_edge9_Node000009_Node000010"><a xlink:title=" ">
<path fill="none" stroke="#63b8ff" d="M819.17,-135.68C762.4,-125.64 678.25,-110.62 605,-97 602.17,-96.47 599.28,-95.93 596.36,-95.38"/>
<polygon fill="#63b8ff" stroke="#63b8ff" points="818.55,-139.12 829.01,-137.42 819.77,-132.23 818.55,-139.12"/>
</a>
</g>
</g>
<!-- Node13 -->
<g id="Node000013" class="node">
<title>Node13</title>
<g id="a_Node000013"><a xlink:href="_chebyshev_8hh.html" target="_top" xlink:title=" ">
<polygon fill="white" stroke="#666666" points="745.75,-97 614.25,-97 614.25,-66.5 745.75,-66.5 745.75,-97"/>
<text xml:space="preserve" text-anchor="start" x="622.25" y="-83.5" font-family="Helvetica,sans-Serif" font-size="10.00">core/include/Optimist</text>
<text xml:space="preserve" text-anchor="middle" x="680" y="-72.25" font-family="Helvetica,sans-Serif" font-size="10.00">/RootFinder/Chebyshev.hh</text>
</a>
</g>
</g>
<!-- Node9&#45;&gt;Node13 -->
<g id="edge12_Node000009_Node000013" class="edge">
<title>Node9&#45;&gt;Node13</title>
<g id="a_edge12_Node000009_Node000013"><a xlink:title=" ">
<path fill="none" stroke="#63b8ff" d="M827.29,-129.09C795.46,-119.08 756.45,-106.8 726.57,-97.4"/>
<polygon fill="#63b8ff" stroke="#63b8ff" points="826.19,-132.42 836.78,-132.08 828.29,-125.74 826.19,-132.42"/>
</a>
</g>
</g>
<!-- Node14 -->
<g id="Node000014" class="node">
<title>Node14</title>
<g id="a_Node000014"><a xlink:href="_halley_8hh.html" target="_top" xlink:title=" ">
<polygon fill="white" stroke="#666666" points="873.88,-97 764.12,-97 764.12,-66.5 873.88,-66.5 873.88,-97"/>
<text xml:space="preserve" text-anchor="start" x="772.12" y="-83.5" font-family="Helvetica,sans-Serif" font-size="10.00">core/include/Optimist</text>
<text xml:space="preserve" text-anchor="middle" x="819" y="-72.25" font-family="Helvetica,sans-Serif" font-size="10.00">/RootFinder/Halley.hh</text>
</a>
</g>
</g>
<!-- Node9&#45;&gt;Node14 -->
<g id="edge13_Node000009_Node000014" class="edge">
<title>Node9&#45;&gt;Node14</title>
<g id="a_edge13_Node000009_Node000014"><a xlink:title=" ">
<path fill="none" stroke="#63b8ff" d="M861.91,-124.69C852.62,-115.61 842.18,-105.4 833.92,-97.33"/>
<polygon fill="#63b8ff" stroke="#63b8ff" points="859.34,-127.07 868.94,-131.56 864.24,-122.06 859.34,-127.07"/>
</a>
</g>
</g>
<!-- Node15 -->
<g id="Node000015" class="node">
<title>Node15</title>
<g id="a_Node000015"><a xlink:href="_newton_8hh.html" target="_top" xlink:title=" ">
<polygon fill="white" stroke="#666666" points="1009.62,-97 892.38,-97 892.38,-66.5 1009.62,-66.5 1009.62,-97"/>
<text xml:space="preserve" text-anchor="start" x="900.38" y="-83.5" font-family="Helvetica,sans-Serif" font-size="10.00">core/include/Optimist</text>
<text xml:space="preserve" text-anchor="middle" x="951" y="-72.25" font-family="Helvetica,sans-Serif" font-size="10.00">/RootFinder/Newton.hh</text>
</a>
</g>
</g>
<!-- Node9&#45;&gt;Node15 -->
<g id="edge14_Node000009_Node000015" class="edge">
<title>Node9&#45;&gt;Node15</title>
<g id="a_edge14_Node000009_Node000015"><a xlink:title=" ">
<path fill="none" stroke="#63b8ff" d="M908.09,-124.69C917.38,-115.61 927.82,-105.4 936.08,-97.33"/>
<polygon fill="#63b8ff" stroke="#63b8ff" points="905.76,-122.06 901.06,-131.56 910.66,-127.07 905.76,-122.06"/>
</a>
</g>
</g>
<!-- Node16 -->
<g id="Node000016" class="node">
<title>Node16</title>
<g id="a_Node000016"><a xlink:href="_newton_raphson_8hh.html" target="_top" xlink:title=" ">
<polygon fill="white" stroke="#666666" points="1184.12,-97 1027.88,-97 1027.88,-66.5 1184.12,-66.5 1184.12,-97"/>
<text xml:space="preserve" text-anchor="start" x="1035.88" y="-83.5" font-family="Helvetica,sans-Serif" font-size="10.00">core/include/Optimist</text>
<text xml:space="preserve" text-anchor="middle" x="1106" y="-72.25" font-family="Helvetica,sans-Serif" font-size="10.00">/RootFinder/NewtonRaphson.hh</text>
</a>
</g>
</g>
<!-- Node9&#45;&gt;Node16 -->
<g id="edge15_Node000009_Node000016" class="edge">
<title>Node9&#45;&gt;Node16</title>
<g id="a_edge15_Node000009_Node000016"><a xlink:title=" ">
<path fill="none" stroke="#63b8ff" d="M946.31,-129.35C980.8,-119.29 1023.3,-106.89 1055.79,-97.4"/>
<polygon fill="#63b8ff" stroke="#63b8ff" points="945.5,-125.95 936.88,-132.11 947.46,-132.67 945.5,-125.95"/>
</a>
</g>
</g>
<!-- Node17 -->
<g id="Node000017" class="node">
<title>Node17</title>
<g id="a_Node000017"><a xlink:href="_quasi_newton_8hh.html" target="_top" xlink:title=" ">
<polygon fill="white" stroke="#666666" points="1345.38,-97 1202.62,-97 1202.62,-66.5 1345.38,-66.5 1345.38,-97"/>
<text xml:space="preserve" text-anchor="start" x="1210.62" y="-83.5" font-family="Helvetica,sans-Serif" font-size="10.00">core/include/Optimist</text>
<text xml:space="preserve" text-anchor="middle" x="1274" y="-72.25" font-family="Helvetica,sans-Serif" font-size="10.00">/RootFinder/QuasiNewton.hh</text>
</a>
</g>
</g>
<!-- Node9&#45;&gt;Node17 -->
<g id="edge16_Node000009_Node000017" class="edge">
<title>Node9&#45;&gt;Node17</title>
<g id="a_edge16_Node000009_Node000017"><a xlink:title=" ">
<path fill="none" stroke="#63b8ff" d="M950.8,-136.76C1013.19,-126.75 1109.52,-111.15 1193,-97 1196.1,-96.47 1199.26,-95.93 1202.45,-95.39"/>
<polygon fill="#63b8ff" stroke="#63b8ff" points="950.37,-133.28 941.05,-138.32 951.48,-140.19 950.37,-133.28"/>
</a>
</g>
</g>
<!-- Node20 -->
<g id="Node000020" class="node">
<title>Node20</title>
<g id="a_Node000020"><a xlink:href="_varona_8hh.html" target="_top" xlink:title=" ">
<polygon fill="white" stroke="#666666" points="1476.75,-97 1363.25,-97 1363.25,-66.5 1476.75,-66.5 1476.75,-97"/>
<text xml:space="preserve" text-anchor="start" x="1371.25" y="-83.5" font-family="Helvetica,sans-Serif" font-size="10.00">core/include/Optimist</text>
<text xml:space="preserve" text-anchor="middle" x="1420" y="-72.25" font-family="Helvetica,sans-Serif" font-size="10.00">/RootFinder/Varona.hh</text>
</a>
</g>
</g>
<!-- Node9&#45;&gt;Node20 -->
<g id="edge19_Node000009_Node000020" class="edge">
<title>Node9&#45;&gt;Node20</title>
<g id="a_edge19_Node000009_Node000020"><a xlink:title=" ">
<path fill="none" stroke="#63b8ff" d="M950.64,-142.42C1041.61,-135.24 1210.95,-120.04 1354,-97 1356.89,-96.53 1359.85,-96.02 1362.83,-95.48"/>
<polygon fill="#63b8ff" stroke="#63b8ff" points="950.62,-138.92 940.92,-143.18 951.16,-145.89 950.62,-138.92"/>
</a>
</g>
</g>
<!-- Node11 -->
<g id="Node000011" class="node">
<title>Node11</title>
<g id="a_Node000011"><a xlink:href="_algo748_8hh.html" target="_top" xlink:title=" ">
<polygon fill="white" stroke="#666666" points="516.38,-30.5 397.62,-30.5 397.62,0 516.38,0 516.38,-30.5"/>
<text xml:space="preserve" text-anchor="start" x="405.62" y="-17" font-family="Helvetica,sans-Serif" font-size="10.00">core/include/Optimist</text>
<text xml:space="preserve" text-anchor="middle" x="457" y="-5.75" font-family="Helvetica,sans-Serif" font-size="10.00">/RootFinder/Algo748.hh</text>
</a>
</g>
</g>
<!-- Node10&#45;&gt;Node11 -->
<g id="edge10_Node000010_Node000011" class="edge">
<title>Node10&#45;&gt;Node11</title>
<g id="a_edge10_Node000010_Node000011"><a xlink:title=" ">
<path fill="none" stroke="#63b8ff" d="M505.75,-58.74C495.18,-49.53 483.17,-39.06 473.73,-30.83"/>
<polygon fill="#63b8ff" stroke="#63b8ff" points="503.23,-61.19 513.07,-65.12 507.83,-55.91 503.23,-61.19"/>
</a>
</g>
</g>
<!-- Node12 -->
<g id="Node000012" class="node">
<title>Node12</title>
<g id="a_Node000012"><a xlink:href="_chandrupatla_8hh.html" target="_top" xlink:title=" ">
<polygon fill="white" stroke="#666666" points="675.62,-30.5 534.38,-30.5 534.38,0 675.62,0 675.62,-30.5"/>
<text xml:space="preserve" text-anchor="start" x="542.38" y="-17" font-family="Helvetica,sans-Serif" font-size="10.00">core/include/Optimist</text>
<text xml:space="preserve" text-anchor="middle" x="605" y="-5.75" font-family="Helvetica,sans-Serif" font-size="10.00">/RootFinder/Chandrupatla.hh</text>
</a>
</g>
</g>
<!-- Node10&#45;&gt;Node12 -->
<g id="edge11_Node000010_Node000012" class="edge">
<title>Node10&#45;&gt;Node12</title>
<g id="a_edge11_Node000010_Node000012"><a xlink:title=" ">
<path fill="none" stroke="#63b8ff" d="M556.25,-58.74C566.82,-49.53 578.83,-39.06 588.27,-30.83"/>
<polygon fill="#63b8ff" stroke="#63b8ff" points="554.17,-55.91 548.93,-65.12 558.77,-61.19 554.17,-55.91"/>
</a>
</g>
</g>
<!-- Node18 -->
<g id="Node000018" class="node">
<title>Node18</title>
<g id="a_Node000018"><a xlink:href="_broyden_8hh.html" target="_top" xlink:title=" ">
<polygon fill="white" stroke="#666666" points="1261.75,-30.5 1142.25,-30.5 1142.25,0 1261.75,0 1261.75,-30.5"/>
<text xml:space="preserve" text-anchor="start" x="1150.25" y="-17" font-family="Helvetica,sans-Serif" font-size="10.00">core/include/Optimist</text>
<text xml:space="preserve" text-anchor="middle" x="1202" y="-5.75" font-family="Helvetica,sans-Serif" font-size="10.00">/RootFinder/Broyden.hh</text>
</a>
</g>
</g>
<!-- Node17&#45;&gt;Node18 -->
<g id="edge17_Node000017_Node000018" class="edge">
<title>Node17&#45;&gt;Node18</title>
<g id="a_edge17_Node000017_Node000018"><a xlink:title=" ">
<path fill="none" stroke="#63b8ff" d="M1249.12,-58.46C1238.91,-49.32 1227.38,-38.98 1218.27,-30.83"/>
<polygon fill="#63b8ff" stroke="#63b8ff" points="1246.75,-61.04 1256.53,-65.1 1251.42,-55.82 1246.75,-61.04"/>
</a>
</g>
</g>
<!-- Node19 -->
<g id="Node000019" class="node">
<title>Node19</title>
<g id="a_Node000019"><a xlink:href="_greenstadt_8hh.html" target="_top" xlink:title=" ">
<polygon fill="white" stroke="#666666" points="1411.75,-30.5 1280.25,-30.5 1280.25,0 1411.75,0 1411.75,-30.5"/>
<text xml:space="preserve" text-anchor="start" x="1288.25" y="-17" font-family="Helvetica,sans-Serif" font-size="10.00">core/include/Optimist</text>
<text xml:space="preserve" text-anchor="middle" x="1346" y="-5.75" font-family="Helvetica,sans-Serif" font-size="10.00">/RootFinder/Greenstadt.hh</text>
</a>
</g>
</g>
<!-- Node17&#45;&gt;Node19 -->
<g id="edge18_Node000017_Node000019" class="edge">
<title>Node17&#45;&gt;Node19</title>
<g id="a_edge18_Node000017_Node000019"><a xlink:title=" ">
<path fill="none" stroke="#63b8ff" d="M1298.88,-58.46C1309.09,-49.32 1320.62,-38.98 1329.73,-30.83"/>
<polygon fill="#63b8ff" stroke="#63b8ff" points="1296.58,-55.82 1291.47,-65.1 1301.25,-61.04 1296.58,-55.82"/>
</a>
</g>
</g>
<!-- Node22 -->
<g id="Node000022" class="node">
<title>Node22</title>
<g id="a_Node000022"><a xlink:href="_test_set_8hh.html" target="_top" xlink:title=" ">
<polygon fill="white" stroke="#666666" points="1444.12,-163.5 1335.88,-163.5 1335.88,-133 1444.12,-133 1444.12,-163.5"/>
<text xml:space="preserve" text-anchor="start" x="1343.88" y="-150" font-family="Helvetica,sans-Serif" font-size="10.00">core/include/Optimist</text>
<text xml:space="preserve" text-anchor="middle" x="1390" y="-138.75" font-family="Helvetica,sans-Serif" font-size="10.00">/TestSet.hh</text>
</a>
</g>
</g>
<!-- Node21&#45;&gt;Node22 -->
<g id="edge21_Node000021_Node000022" class="edge">
<title>Node21&#45;&gt;Node22</title>
<g id="a_edge21_Node000021_Node000022"><a xlink:title=" ">
<path fill="none" stroke="#63b8ff" d="M789.92,-199.19C996.59,-168.1 1231.52,-155.6 1335.65,-151.24"/>
<polygon fill="#63b8ff" stroke="#63b8ff" points="789.4,-195.73 780.04,-200.7 790.46,-202.65 789.4,-195.73"/>
</a>
</g>
</g>
<!-- Node23&#45;&gt;Node22 -->
<g id="edge23_Node000023_Node000022" class="edge">
<title>Node23&#45;&gt;Node22</title>
<g id="a_edge23_Node000023_Node000022"><a xlink:title=" ">
<path fill="none" stroke="#63b8ff" d="M915.89,-199.14C1073.66,-173.66 1248.98,-159.14 1335.71,-152.88"/>
<polygon fill="#63b8ff" stroke="#63b8ff" points="915.36,-195.68 906.05,-200.75 916.49,-202.59 915.36,-195.68"/>
</a>
</g>
</g>
<!-- Node24&#45;&gt;Node22 -->
<g id="edge25_Node000024_Node000022" class="edge">
<title>Node24&#45;&gt;Node22</title>
<g id="a_edge25_Node000024_Node000022"><a xlink:title=" ">
<path fill="none" stroke="#63b8ff" d="M1041.85,-199.06C1151.54,-179.18 1268.79,-163.84 1335.66,-155.66"/>
<polygon fill="#63b8ff" stroke="#63b8ff" points="1041.28,-195.61 1032.07,-200.85 1042.54,-202.49 1041.28,-195.61"/>
</a>
</g>
</g>
<!-- Node25&#45;&gt;Node22 -->
<g id="edge27_Node000025_Node000022" class="edge">
<title>Node25&#45;&gt;Node22</title>
<g id="a_edge27_Node000025_Node000022"><a xlink:title=" ">
<path fill="none" stroke="#63b8ff" d="M1167.26,-198.99C1230.41,-184.81 1292.35,-170.99 1335.43,-161.39"/>
<polygon fill="#63b8ff" stroke="#63b8ff" points="1166.76,-195.52 1157.77,-201.13 1168.29,-202.35 1166.76,-195.52"/>
</a>
</g>
</g>
<!-- Node26&#45;&gt;Node22 -->
<g id="edge29_Node000026_Node000022" class="edge">
<title>Node26&#45;&gt;Node22</title>
<g id="a_edge29_Node000026_Node000022"><a xlink:title=" ">
<path fill="none" stroke="#63b8ff" d="M1289.05,-194.47C1310.99,-184.64 1337.23,-172.89 1357.45,-163.83"/>
<polygon fill="#63b8ff" stroke="#63b8ff" points="1287.75,-191.21 1280.06,-198.5 1290.61,-197.6 1287.75,-191.21"/>
</a>
</g>
</g>
<!-- Node27&#45;&gt;Node22 -->
<g id="edge31_Node000027_Node000022" class="edge">
<title>Node27&#45;&gt;Node22</title>
<g id="a_edge31_Node000027_Node000022"><a xlink:title=" ">
<path fill="none" stroke="#63b8ff" d="M1390,-187.81C1390,-179.64 1390,-170.91 1390,-163.83"/>
<polygon fill="#63b8ff" stroke="#63b8ff" points="1386.5,-187.6 1390,-197.6 1393.5,-187.6 1386.5,-187.6"/>
</a>
</g>
</g>
<!-- Node28&#45;&gt;Node22 -->
<g id="edge33_Node000028_Node000022" class="edge">
<title>Node28&#45;&gt;Node22</title>
<g id="a_edge33_Node000028_Node000022"><a xlink:title=" ">
<path fill="none" stroke="#63b8ff" d="M1478.93,-194.06C1459.6,-184.32 1436.66,-172.76 1418.93,-163.83"/>
<polygon fill="#63b8ff" stroke="#63b8ff" points="1477.1,-197.06 1487.6,-198.43 1480.25,-190.81 1477.1,-197.06"/>
</a>
</g>
</g>
<!-- Node29&#45;&gt;Node22 -->
<g id="edge35_Node000029_Node000022" class="edge">
<title>Node29&#45;&gt;Node22</title>
<g id="a_edge35_Node000029_Node000022"><a xlink:title=" ">
<path fill="none" stroke="#63b8ff" d="M1581.96,-196.33C1538.68,-185.71 1484.23,-172.36 1444.38,-162.59"/>
<polygon fill="#63b8ff" stroke="#63b8ff" points="1580.98,-199.69 1591.52,-198.67 1582.64,-192.89 1580.98,-199.69"/>
</a>
</g>
</g>
<!-- Node30&#45;&gt;Node22 -->
<g id="edge37_Node000030_Node000022" class="edge">
<title>Node30&#45;&gt;Node22</title>
<g id="a_edge37_Node000030_Node000022"><a xlink:title=" ">
<path fill="none" stroke="#63b8ff" d="M1720.74,-199.16C1617.25,-180.3 1508.16,-164.89 1444.4,-156.34"/>
<polygon fill="#63b8ff" stroke="#63b8ff" points="1720.07,-202.59 1730.54,-200.96 1721.34,-195.71 1720.07,-202.59"/>
</a>
</g>
</g>
<!-- Node31&#45;&gt;Node22 -->
<g id="edge39_Node000031_Node000022" class="edge">
<title>Node31&#45;&gt;Node22</title>
<g id="a_edge39_Node000031_Node000022"><a xlink:title=" ">
<path fill="none" stroke="#63b8ff" d="M1850.5,-199.2C1698.1,-174.31 1529.24,-159.62 1444.45,-153.13"/>
<polygon fill="#63b8ff" stroke="#63b8ff" points="1849.51,-202.58 1859.95,-200.76 1850.65,-195.68 1849.51,-202.58"/>
</a>
</g>
</g>
<!-- Node32&#45;&gt;Node22 -->
<g id="edge41_Node000032_Node000022" class="edge">
<title>Node32&#45;&gt;Node22</title>
<g id="a_edge41_Node000032_Node000022"><a xlink:title=" ">
<path fill="none" stroke="#63b8ff" d="M1976.37,-199.23C1775.07,-168.73 1546.62,-155.96 1444.3,-151.39"/>
<polygon fill="#63b8ff" stroke="#63b8ff" points="1975.54,-202.64 1985.96,-200.7 1976.6,-195.72 1975.54,-202.64"/>
</a>
</g>
</g>
</g>
</svg>
