<?xml version="1.0" encoding="UTF-8" standalone="no"?>
<!DOCTYPE svg PUBLIC "-//W3C//DTD SVG 1.1//EN"
 "http://www.w3.org/Graphics/SVG/1.1/DTD/svg11.dtd">
<!-- Generated by graphviz version 13.1.2 (20250808.2320)
 -->
<!-- Title: include/Optimist.hh Pages: 1 -->
<svg width="768pt" height="83pt"
 viewBox="0.00 0.00 768.00 83.00" xmlns="http://www.w3.org/2000/svg" xmlns:xlink="http://www.w3.org/1999/xlink">
<g id="graph0" class="graph" transform="scale(1 1) rotate(0) translate(4 78.5)">
<title>include/Optimist.hh</title>
<!-- Node1 -->
<g id="Node000001" class="node">
<title>Node1</title>
<g id="a_Node000001"><a xlink:title=" ">
<polygon fill="#999999" stroke="#666666" points="403.75,-74.5 303.75,-74.5 303.75,-55.25 403.75,-55.25 403.75,-74.5"/>
<text xml:space="preserve" text-anchor="middle" x="353.75" y="-61" font-family="Helvetica,sans-Serif" font-size="10.00">include/Optimist.hh</text>
</a>
</g>
</g>
<!-- Node2 -->
<g id="Node000002" class="node">
<title>Node2</title>
<g id="a_Node000002"><a xlink:title=" ">
<polygon fill="#e0e0e0" stroke="#999999" points="53.5,-19.25 0,-19.25 0,0 53.5,0 53.5,-19.25"/>
<text xml:space="preserve" text-anchor="middle" x="26.75" y="-5.75" font-family="Helvetica,sans-Serif" font-size="10.00">iostream</text>
</a>
</g>
</g>
<!-- Node1&#45;&gt;Node2 -->
<g id="edge1_Node000001_Node000002" class="edge">
<title>Node1&#45;&gt;Node2</title>
<g id="a_edge1_Node000001_Node000002"><a xlink:title=" ">
<path fill="none" stroke="#63b8ff" d="M303.32,-57.44C247.45,-50.01 154.46,-36.81 65,-19.55"/>
<polygon fill="#63b8ff" stroke="#63b8ff" points="65.79,-16.14 55.31,-17.66 64.45,-23.01 65.79,-16.14"/>
</a>
</g>
</g>
<!-- Node3 -->
<g id="Node000003" class="node">
<title>Node3</title>
<g id="a_Node000003"><a xlink:title=" ">
<polygon fill="#e0e0e0" stroke="#999999" points="100.15,-19.25 71.35,-19.25 71.35,0 100.15,0 100.15,-19.25"/>
<text xml:space="preserve" text-anchor="middle" x="85.75" y="-5.75" font-family="Helvetica,sans-Serif" font-size="10.00">ios</text>
</a>
</g>
</g>
<!-- Node1&#45;&gt;Node3 -->
<g id="edge2_Node000001_Node000003" class="edge">
<title>Node1&#45;&gt;Node3</title>
<g id="a_edge2_Node000001_Node000003"><a xlink:title=" ">
<path fill="none" stroke="#63b8ff" d="M303.42,-57.39C255.91,-50.68 182.61,-38.79 111.2,-19.52"/>
<polygon fill="#63b8ff" stroke="#63b8ff" points="112.25,-16.18 101.68,-16.9 110.39,-22.93 112.25,-16.18"/>
</a>
</g>
</g>
<!-- Node4 -->
<g id="Node000004" class="node">
<title>Node4</title>
<g id="a_Node000004"><a xlink:title=" ">
<polygon fill="#e0e0e0" stroke="#999999" points="167.62,-19.25 117.88,-19.25 117.88,0 167.62,0 167.62,-19.25"/>
<text xml:space="preserve" text-anchor="middle" x="142.75" y="-5.75" font-family="Helvetica,sans-Serif" font-size="10.00">iomanip</text>
</a>
</g>
</g>
<!-- Node1&#45;&gt;Node4 -->
<g id="edge3_Node000001_Node000004" class="edge">
<title>Node1&#45;&gt;Node4</title>
<g id="a_edge3_Node000001_Node000004"><a xlink:title=" ">
<path fill="none" stroke="#63b8ff" d="M317.81,-54.83C284.35,-46.41 232.79,-33.42 179.12,-19.85"/>
<polygon fill="#63b8ff" stroke="#63b8ff" points="180.02,-16.46 169.47,-17.41 178.3,-23.25 180.02,-16.46"/>
</a>
</g>
</g>
<!-- Node5 -->
<g id="Node000005" class="node">
<title>Node5</title>
<g id="a_Node000005"><a xlink:title=" ">
<polygon fill="#e0e0e0" stroke="#999999" points="225.75,-19.25 185.75,-19.25 185.75,0 225.75,0 225.75,-19.25"/>
<text xml:space="preserve" text-anchor="middle" x="205.75" y="-5.75" font-family="Helvetica,sans-Serif" font-size="10.00">string</text>
</a>
</g>
</g>
<!-- Node1&#45;&gt;Node5 -->
<g id="edge4_Node000001_Node000005" class="edge">
<title>Node1&#45;&gt;Node5</title>
<g id="a_edge4_Node000001_Node000005"><a xlink:title=" ">
<path fill="none" stroke="#63b8ff" d="M328.64,-54.84C303.27,-45.71 264.03,-31.59 236.74,-21.77"/>
<polygon fill="#63b8ff" stroke="#63b8ff" points="238.22,-18.59 227.63,-18.5 235.85,-25.18 238.22,-18.59"/>
</a>
</g>
</g>
<!-- Node6 -->
<g id="Node000006" class="node">
<title>Node6</title>
<g id="a_Node000006"><a xlink:title=" ">
<polygon fill="#e0e0e0" stroke="#999999" points="287.25,-19.25 244.25,-19.25 244.25,0 287.25,0 287.25,-19.25"/>
<text xml:space="preserve" text-anchor="middle" x="265.75" y="-5.75" font-family="Helvetica,sans-Serif" font-size="10.00">cmath</text>
</a>
</g>
</g>
<!-- Node1&#45;&gt;Node6 -->
<g id="edge5_Node000001_Node000006" class="edge">
<title>Node1&#45;&gt;Node6</title>
<g id="a_edge5_Node000001_Node000006"><a xlink:title=" ">
<path fill="none" stroke="#63b8ff" d="M338.82,-54.84C325.55,-46.81 305.88,-34.91 290.3,-25.48"/>
<polygon fill="#63b8ff" stroke="#63b8ff" points="292.41,-22.67 282.05,-20.49 288.79,-28.66 292.41,-22.67"/>
</a>
</g>
</g>
<!-- Node7 -->
<g id="Node000007" class="node">
<title>Node7</title>
<g id="a_Node000007"><a xlink:title=" ">
<polygon fill="#e0e0e0" stroke="#999999" points="344.38,-19.25 305.12,-19.25 305.12,0 344.38,0 344.38,-19.25"/>
<text xml:space="preserve" text-anchor="middle" x="324.75" y="-5.75" font-family="Helvetica,sans-Serif" font-size="10.00">limits</text>
</a>
</g>
</g>
<!-- Node1&#45;&gt;Node7 -->
<g id="edge6_Node000001_Node000007" class="edge">
<title>Node1&#45;&gt;Node7</title>
<g id="a_edge6_Node000001_Node000007"><a xlink:title=" ">
<path fill="none" stroke="#63b8ff" d="M348.96,-55.08C345.21,-48.19 339.84,-38.34 335.12,-29.66"/>
<polygon fill="#63b8ff" stroke="#63b8ff" points="338.22,-28.05 330.37,-20.94 332.08,-31.39 338.22,-28.05"/>
</a>
</g>
</g>
<!-- Node8 -->
<g id="Node000008" class="node">
<title>Node8</title>
<g id="a_Node000008"><a xlink:title=" ">
<polygon fill="#e0e0e0" stroke="#999999" points="405.25,-19.25 362.25,-19.25 362.25,0 405.25,0 405.25,-19.25"/>
<text xml:space="preserve" text-anchor="middle" x="383.75" y="-5.75" font-family="Helvetica,sans-Serif" font-size="10.00">vector</text>
</a>
</g>
</g>
<!-- Node1&#45;&gt;Node8 -->
<g id="edge7_Node000001_Node000008" class="edge">
<title>Node1&#45;&gt;Node8</title>
<g id="a_edge7_Node000001_Node000008"><a xlink:title=" ">
<path fill="none" stroke="#63b8ff" d="M358.7,-55.08C362.63,-48.11 368.26,-38.12 373.19,-29.37"/>
<polygon fill="#63b8ff" stroke="#63b8ff" points="376.09,-31.36 377.95,-20.93 369.99,-27.92 376.09,-31.36"/>
</a>
</g>
</g>
<!-- Node9 -->
<g id="Node000009" class="node">
<title>Node9</title>
<g id="a_Node000009"><a xlink:title=" ">
<polygon fill="#e0e0e0" stroke="#999999" points="458.12,-19.25 423.38,-19.25 423.38,0 458.12,0 458.12,-19.25"/>
<text xml:space="preserve" text-anchor="middle" x="440.75" y="-5.75" font-family="Helvetica,sans-Serif" font-size="10.00">map</text>
</a>
</g>
</g>
<!-- Node1&#45;&gt;Node9 -->
<g id="edge8_Node000001_Node000009" class="edge">
<title>Node1&#45;&gt;Node9</title>
<g id="a_edge8_Node000001_Node000009"><a xlink:title=" ">
<path fill="none" stroke="#63b8ff" d="M368.51,-54.84C381.63,-46.81 401.07,-34.91 416.48,-25.48"/>
<polygon fill="#63b8ff" stroke="#63b8ff" points="417.93,-28.7 424.63,-20.49 414.27,-22.73 417.93,-28.7"/>
</a>
</g>
</g>
<!-- Node10 -->
<g id="Node000010" class="node">
<title>Node10</title>
<g id="a_Node000010"><a xlink:title=" ">
<polygon fill="#e0e0e0" stroke="#999999" points="527.38,-19.25 476.12,-19.25 476.12,0 527.38,0 527.38,-19.25"/>
<text xml:space="preserve" text-anchor="middle" x="501.75" y="-5.75" font-family="Helvetica,sans-Serif" font-size="10.00">memory</text>
</a>
</g>
</g>
<!-- Node1&#45;&gt;Node10 -->
<g id="edge9_Node000001_Node000010" class="edge">
<title>Node1&#45;&gt;Node10</title>
<g id="a_edge9_Node000001_Node000010"><a xlink:title=" ">
<path fill="none" stroke="#63b8ff" d="M378.86,-54.84C402.78,-46.24 439.03,-33.19 465.97,-23.5"/>
<polygon fill="#63b8ff" stroke="#63b8ff" points="466.87,-26.89 475.1,-20.21 464.5,-20.31 466.87,-26.89"/>
</a>
</g>
</g>
<!-- Node11 -->
<g id="Node000011" class="node">
<title>Node11</title>
<g id="a_Node000011"><a xlink:title=" ">
<polygon fill="#e0e0e0" stroke="#999999" points="596,-19.25 545.5,-19.25 545.5,0 596,0 596,-19.25"/>
<text xml:space="preserve" text-anchor="middle" x="570.75" y="-5.75" font-family="Helvetica,sans-Serif" font-size="10.00">numeric</text>
</a>
</g>
</g>
<!-- Node1&#45;&gt;Node11 -->
<g id="edge10_Node000001_Node000011" class="edge">
<title>Node1&#45;&gt;Node11</title>
<g id="a_edge10_Node000001_Node000011"><a xlink:title=" ">
<path fill="none" stroke="#63b8ff" d="M391.28,-54.83C425.97,-46.45 479.26,-33.51 534.14,-19.88"/>
<polygon fill="#63b8ff" stroke="#63b8ff" points="534.81,-23.32 543.67,-17.51 533.12,-16.53 534.81,-23.32"/>
</a>
</g>
</g>
<!-- Node12 -->
<g id="Node000012" class="node">
<title>Node12</title>
<g id="a_Node000012"><a xlink:title=" ">
<polygon fill="#e0e0e0" stroke="#999999" points="669.62,-19.25 613.88,-19.25 613.88,0 669.62,0 669.62,-19.25"/>
<text xml:space="preserve" text-anchor="middle" x="641.75" y="-5.75" font-family="Helvetica,sans-Serif" font-size="10.00">algorithm</text>
</a>
</g>
</g>
<!-- Node1&#45;&gt;Node12 -->
<g id="edge11_Node000001_Node000012" class="edge">
<title>Node1&#45;&gt;Node12</title>
<g id="a_edge11_Node000001_Node000012"><a xlink:title=" ">
<path fill="none" stroke="#63b8ff" d="M403.9,-55.76C452.3,-47.76 527.88,-34.78 602.5,-19.62"/>
<polygon fill="#63b8ff" stroke="#63b8ff" points="602.92,-23.11 612.02,-17.68 601.52,-16.25 602.92,-23.11"/>
</a>
</g>
</g>
<!-- Node13 -->
<g id="Node000013" class="node">
<title>Node13</title>
<g id="a_Node000013"><a xlink:title=" ">
<polygon fill="#e0e0e0" stroke="#999999" points="759.88,-19.25 687.62,-19.25 687.62,0 759.88,0 759.88,-19.25"/>
<text xml:space="preserve" text-anchor="middle" x="723.75" y="-5.75" font-family="Helvetica,sans-Serif" font-size="10.00">Eigen/Dense</text>
</a>
</g>
</g>
<!-- Node1&#45;&gt;Node13 -->
<g id="edge12_Node000001_Node000013" class="edge">
<title>Node1&#45;&gt;Node13</title>
<g id="a_edge12_Node000001_Node000013"><a xlink:title=" ">
<path fill="none" stroke="#63b8ff" d="M403.98,-57.82C465.7,-50.18 573.86,-36.21 676.26,-19.59"/>
<polygon fill="#63b8ff" stroke="#63b8ff" points="676.63,-23.07 685.94,-18 675.5,-16.16 676.63,-23.07"/>
</a>
</g>
</g>
</g>
</svg>
