<?xml version="1.0" encoding="UTF-8" standalone="no"?>
<!DOCTYPE svg PUBLIC "-//W3C//DTD SVG 1.1//EN"
 "http://www.w3.org/Graphics/SVG/1.1/DTD/svg11.dtd">
<!-- Generated by graphviz version 13.1.2 (20250808.2320)
 -->
<!-- Title: include/Optimist/Optimizer.hh Pages: 1 -->
<svg width="768pt" height="248pt"
 viewBox="0.00 0.00 768.00 248.00" xmlns="http://www.w3.org/2000/svg" xmlns:xlink="http://www.w3.org/1999/xlink">
<g id="graph0" class="graph" transform="scale(1 1) rotate(0) translate(4 244.25)">
<title>include/Optimist/Optimizer.hh</title>
<!-- Node1 -->
<g id="Node000001" class="node">
<title>Node1</title>
<g id="a_Node000001"><a xlink:title=" ">
<polygon fill="#999999" stroke="#666666" points="425.88,-240.25 281.62,-240.25 281.62,-221 425.88,-221 425.88,-240.25"/>
<text xml:space="preserve" text-anchor="middle" x="353.75" y="-226.75" font-family="Helvetica,sans-Serif" font-size="10.00">include/Optimist/Optimizer.hh</text>
</a>
</g>
</g>
<!-- Node2 -->
<g id="Node000002" class="node">
<title>Node2</title>
<g id="a_Node000002"><a xlink:href="_solver_base_8hh.html" target="_top" xlink:title=" ">
<polygon fill="white" stroke="#666666" points="413.5,-185 294,-185 294,-165.75 413.5,-165.75 413.5,-185"/>
<text xml:space="preserve" text-anchor="middle" x="353.75" y="-171.5" font-family="Helvetica,sans-Serif" font-size="10.00">Optimist/SolverBase.hh</text>
</a>
</g>
</g>
<!-- Node1&#45;&gt;Node2 -->
<g id="edge1_Node000001_Node000002" class="edge">
<title>Node1&#45;&gt;Node2</title>
<g id="a_edge1_Node000001_Node000002"><a xlink:title=" ">
<path fill="none" stroke="#63b8ff" d="M353.75,-220.83C353.75,-214.32 353.75,-205.17 353.75,-196.87"/>
<polygon fill="#63b8ff" stroke="#63b8ff" points="357.25,-196.87 353.75,-186.87 350.25,-196.87 357.25,-196.87"/>
</a>
</g>
</g>
<!-- Node3 -->
<g id="Node000003" class="node">
<title>Node3</title>
<g id="a_Node000003"><a xlink:href="_optimist_8hh.html" target="_top" xlink:title=" ">
<polygon fill="white" stroke="#666666" points="386.88,-74.5 320.62,-74.5 320.62,-55.25 386.88,-55.25 386.88,-74.5"/>
<text xml:space="preserve" text-anchor="middle" x="353.75" y="-61" font-family="Helvetica,sans-Serif" font-size="10.00">Optimist.hh</text>
</a>
</g>
</g>
<!-- Node2&#45;&gt;Node3 -->
<g id="edge2_Node000002_Node000003" class="edge">
<title>Node2&#45;&gt;Node3</title>
<g id="a_edge2_Node000002_Node000003"><a xlink:title=" ">
<path fill="none" stroke="#63b8ff" d="M348.17,-165.57C343.01,-156.86 335.7,-142.95 332.75,-129.75 329.28,-114.24 335.44,-97.17 341.97,-84.57"/>
<polygon fill="#63b8ff" stroke="#63b8ff" points="344.87,-86.54 346.81,-76.13 338.8,-83.06 344.87,-86.54"/>
</a>
</g>
</g>
<!-- Node16 -->
<g id="Node000016" class="node">
<title>Node16</title>
<g id="a_Node000016"><a xlink:href="_function_8hh.html" target="_top" xlink:title=" ">
<polygon fill="white" stroke="#666666" points="448.12,-129.75 341.38,-129.75 341.38,-110.5 448.12,-110.5 448.12,-129.75"/>
<text xml:space="preserve" text-anchor="middle" x="394.75" y="-116.25" font-family="Helvetica,sans-Serif" font-size="10.00">Optimist/Function.hh</text>
</a>
</g>
</g>
<!-- Node2&#45;&gt;Node16 -->
<g id="edge15_Node000002_Node000016" class="edge">
<title>Node2&#45;&gt;Node16</title>
<g id="a_edge15_Node000002_Node000016"><a xlink:title=" ">
<path fill="none" stroke="#63b8ff" d="M360.52,-165.58C366.07,-158.38 374.09,-147.96 380.98,-139.01"/>
<polygon fill="#63b8ff" stroke="#63b8ff" points="383.58,-141.37 386.91,-131.31 378.04,-137.1 383.58,-141.37"/>
</a>
</g>
</g>
<!-- Node4 -->
<g id="Node000004" class="node">
<title>Node4</title>
<g id="a_Node000004"><a xlink:title=" ">
<polygon fill="#e0e0e0" stroke="#999999" points="53.5,-19.25 0,-19.25 0,0 53.5,0 53.5,-19.25"/>
<text xml:space="preserve" text-anchor="middle" x="26.75" y="-5.75" font-family="Helvetica,sans-Serif" font-size="10.00">iostream</text>
</a>
</g>
</g>
<!-- Node3&#45;&gt;Node4 -->
<g id="edge3_Node000003_Node000004" class="edge">
<title>Node3&#45;&gt;Node4</title>
<g id="a_edge3_Node000003_Node000004"><a xlink:title=" ">
<path fill="none" stroke="#63b8ff" d="M320.43,-59.68C268.15,-52.9 163.46,-38.54 64.88,-19.52"/>
<polygon fill="#63b8ff" stroke="#63b8ff" points="65.79,-16.14 55.31,-17.66 64.45,-23.01 65.79,-16.14"/>
</a>
</g>
</g>
<!-- Node5 -->
<g id="Node000005" class="node">
<title>Node5</title>
<g id="a_Node000005"><a xlink:title=" ">
<polygon fill="#e0e0e0" stroke="#999999" points="100.15,-19.25 71.35,-19.25 71.35,0 100.15,0 100.15,-19.25"/>
<text xml:space="preserve" text-anchor="middle" x="85.75" y="-5.75" font-family="Helvetica,sans-Serif" font-size="10.00">ios</text>
</a>
</g>
</g>
<!-- Node3&#45;&gt;Node5 -->
<g id="edge4_Node000003_Node000005" class="edge">
<title>Node3&#45;&gt;Node5</title>
<g id="a_edge4_Node000003_Node000005"><a xlink:title=" ">
<path fill="none" stroke="#63b8ff" d="M320.44,-59.73C274.95,-53.66 190.77,-40.95 110.94,-19.45"/>
<polygon fill="#63b8ff" stroke="#63b8ff" points="112.25,-16.18 101.68,-16.9 110.39,-22.93 112.25,-16.18"/>
</a>
</g>
</g>
<!-- Node6 -->
<g id="Node000006" class="node">
<title>Node6</title>
<g id="a_Node000006"><a xlink:title=" ">
<polygon fill="#e0e0e0" stroke="#999999" points="167.62,-19.25 117.88,-19.25 117.88,0 167.62,0 167.62,-19.25"/>
<text xml:space="preserve" text-anchor="middle" x="142.75" y="-5.75" font-family="Helvetica,sans-Serif" font-size="10.00">iomanip</text>
</a>
</g>
</g>
<!-- Node3&#45;&gt;Node6 -->
<g id="edge5_Node000003_Node000006" class="edge">
<title>Node3&#45;&gt;Node6</title>
<g id="a_edge5_Node000003_Node000006"><a xlink:title=" ">
<path fill="none" stroke="#63b8ff" d="M320.14,-55.42C286.76,-47.01 233.82,-33.68 178.99,-19.81"/>
<polygon fill="#63b8ff" stroke="#63b8ff" points="180.02,-16.46 169.47,-17.41 178.3,-23.25 180.02,-16.46"/>
</a>
</g>
</g>
<!-- Node7 -->
<g id="Node000007" class="node">
<title>Node7</title>
<g id="a_Node000007"><a xlink:title=" ">
<polygon fill="#e0e0e0" stroke="#999999" points="225.75,-19.25 185.75,-19.25 185.75,0 225.75,0 225.75,-19.25"/>
<text xml:space="preserve" text-anchor="middle" x="205.75" y="-5.75" font-family="Helvetica,sans-Serif" font-size="10.00">string</text>
</a>
</g>
</g>
<!-- Node3&#45;&gt;Node7 -->
<g id="edge6_Node000003_Node000007" class="edge">
<title>Node3&#45;&gt;Node7</title>
<g id="a_edge6_Node000003_Node000007"><a xlink:title=" ">
<path fill="none" stroke="#63b8ff" d="M328.64,-54.84C303.27,-45.71 264.03,-31.59 236.74,-21.77"/>
<polygon fill="#63b8ff" stroke="#63b8ff" points="238.22,-18.59 227.63,-18.5 235.85,-25.18 238.22,-18.59"/>
</a>
</g>
</g>
<!-- Node8 -->
<g id="Node000008" class="node">
<title>Node8</title>
<g id="a_Node000008"><a xlink:title=" ">
<polygon fill="#e0e0e0" stroke="#999999" points="287.25,-19.25 244.25,-19.25 244.25,0 287.25,0 287.25,-19.25"/>
<text xml:space="preserve" text-anchor="middle" x="265.75" y="-5.75" font-family="Helvetica,sans-Serif" font-size="10.00">cmath</text>
</a>
</g>
</g>
<!-- Node3&#45;&gt;Node8 -->
<g id="edge7_Node000003_Node000008" class="edge">
<title>Node3&#45;&gt;Node8</title>
<g id="a_edge7_Node000003_Node000008"><a xlink:title=" ">
<path fill="none" stroke="#63b8ff" d="M338.82,-54.84C325.55,-46.81 305.88,-34.91 290.3,-25.48"/>
<polygon fill="#63b8ff" stroke="#63b8ff" points="292.41,-22.67 282.05,-20.49 288.79,-28.66 292.41,-22.67"/>
</a>
</g>
</g>
<!-- Node9 -->
<g id="Node000009" class="node">
<title>Node9</title>
<g id="a_Node000009"><a xlink:title=" ">
<polygon fill="#e0e0e0" stroke="#999999" points="344.38,-19.25 305.12,-19.25 305.12,0 344.38,0 344.38,-19.25"/>
<text xml:space="preserve" text-anchor="middle" x="324.75" y="-5.75" font-family="Helvetica,sans-Serif" font-size="10.00">limits</text>
</a>
</g>
</g>
<!-- Node3&#45;&gt;Node9 -->
<g id="edge8_Node000003_Node000009" class="edge">
<title>Node3&#45;&gt;Node9</title>
<g id="a_edge8_Node000003_Node000009"><a xlink:title=" ">
<path fill="none" stroke="#63b8ff" d="M348.96,-55.08C345.21,-48.19 339.84,-38.34 335.12,-29.66"/>
<polygon fill="#63b8ff" stroke="#63b8ff" points="338.22,-28.05 330.37,-20.94 332.08,-31.39 338.22,-28.05"/>
</a>
</g>
</g>
<!-- Node10 -->
<g id="Node000010" class="node">
<title>Node10</title>
<g id="a_Node000010"><a xlink:title=" ">
<polygon fill="#e0e0e0" stroke="#999999" points="405.25,-19.25 362.25,-19.25 362.25,0 405.25,0 405.25,-19.25"/>
<text xml:space="preserve" text-anchor="middle" x="383.75" y="-5.75" font-family="Helvetica,sans-Serif" font-size="10.00">vector</text>
</a>
</g>
</g>
<!-- Node3&#45;&gt;Node10 -->
<g id="edge9_Node000003_Node000010" class="edge">
<title>Node3&#45;&gt;Node10</title>
<g id="a_edge9_Node000003_Node000010"><a xlink:title=" ">
<path fill="none" stroke="#63b8ff" d="M358.7,-55.08C362.63,-48.11 368.26,-38.12 373.19,-29.37"/>
<polygon fill="#63b8ff" stroke="#63b8ff" points="376.09,-31.36 377.95,-20.93 369.99,-27.92 376.09,-31.36"/>
</a>
</g>
</g>
<!-- Node11 -->
<g id="Node000011" class="node">
<title>Node11</title>
<g id="a_Node000011"><a xlink:title=" ">
<polygon fill="#e0e0e0" stroke="#999999" points="458.12,-19.25 423.38,-19.25 423.38,0 458.12,0 458.12,-19.25"/>
<text xml:space="preserve" text-anchor="middle" x="440.75" y="-5.75" font-family="Helvetica,sans-Serif" font-size="10.00">map</text>
</a>
</g>
</g>
<!-- Node3&#45;&gt;Node11 -->
<g id="edge10_Node000003_Node000011" class="edge">
<title>Node3&#45;&gt;Node11</title>
<g id="a_edge10_Node000003_Node000011"><a xlink:title=" ">
<path fill="none" stroke="#63b8ff" d="M368.51,-54.84C381.63,-46.81 401.07,-34.91 416.48,-25.48"/>
<polygon fill="#63b8ff" stroke="#63b8ff" points="417.93,-28.7 424.63,-20.49 414.27,-22.73 417.93,-28.7"/>
</a>
</g>
</g>
<!-- Node12 -->
<g id="Node000012" class="node">
<title>Node12</title>
<g id="a_Node000012"><a xlink:title=" ">
<polygon fill="#e0e0e0" stroke="#999999" points="527.38,-19.25 476.12,-19.25 476.12,0 527.38,0 527.38,-19.25"/>
<text xml:space="preserve" text-anchor="middle" x="501.75" y="-5.75" font-family="Helvetica,sans-Serif" font-size="10.00">memory</text>
</a>
</g>
</g>
<!-- Node3&#45;&gt;Node12 -->
<g id="edge11_Node000003_Node000012" class="edge">
<title>Node3&#45;&gt;Node12</title>
<g id="a_edge11_Node000003_Node000012"><a xlink:title=" ">
<path fill="none" stroke="#63b8ff" d="M378.86,-54.84C402.78,-46.24 439.03,-33.19 465.97,-23.5"/>
<polygon fill="#63b8ff" stroke="#63b8ff" points="466.87,-26.89 475.1,-20.21 464.5,-20.31 466.87,-26.89"/>
</a>
</g>
</g>
<!-- Node13 -->
<g id="Node000013" class="node">
<title>Node13</title>
<g id="a_Node000013"><a xlink:title=" ">
<polygon fill="#e0e0e0" stroke="#999999" points="596,-19.25 545.5,-19.25 545.5,0 596,0 596,-19.25"/>
<text xml:space="preserve" text-anchor="middle" x="570.75" y="-5.75" font-family="Helvetica,sans-Serif" font-size="10.00">numeric</text>
</a>
</g>
</g>
<!-- Node3&#45;&gt;Node13 -->
<g id="edge12_Node000003_Node000013" class="edge">
<title>Node3&#45;&gt;Node13</title>
<g id="a_edge12_Node000003_Node000013"><a xlink:title=" ">
<path fill="none" stroke="#63b8ff" d="M387.17,-55.82C421.65,-47.5 477.29,-34 534.14,-19.88"/>
<polygon fill="#63b8ff" stroke="#63b8ff" points="534.81,-23.32 543.67,-17.51 533.12,-16.53 534.81,-23.32"/>
</a>
</g>
</g>
<!-- Node14 -->
<g id="Node000014" class="node">
<title>Node14</title>
<g id="a_Node000014"><a xlink:title=" ">
<polygon fill="#e0e0e0" stroke="#999999" points="669.62,-19.25 613.88,-19.25 613.88,0 669.62,0 669.62,-19.25"/>
<text xml:space="preserve" text-anchor="middle" x="641.75" y="-5.75" font-family="Helvetica,sans-Serif" font-size="10.00">algorithm</text>
</a>
</g>
</g>
<!-- Node3&#45;&gt;Node14 -->
<g id="edge13_Node000003_Node000014" class="edge">
<title>Node3&#45;&gt;Node14</title>
<g id="a_edge13_Node000003_Node000014"><a xlink:title=" ">
<path fill="none" stroke="#63b8ff" d="M387.15,-58.52C433.28,-50.99 519.34,-36.5 602.34,-19.65"/>
<polygon fill="#63b8ff" stroke="#63b8ff" points="602.92,-23.11 612.02,-17.68 601.52,-16.25 602.92,-23.11"/>
</a>
</g>
</g>
<!-- Node15 -->
<g id="Node000015" class="node">
<title>Node15</title>
<g id="a_Node000015"><a xlink:title=" ">
<polygon fill="#e0e0e0" stroke="#999999" points="759.88,-19.25 687.62,-19.25 687.62,0 759.88,0 759.88,-19.25"/>
<text xml:space="preserve" text-anchor="middle" x="723.75" y="-5.75" font-family="Helvetica,sans-Serif" font-size="10.00">Eigen/Dense</text>
</a>
</g>
</g>
<!-- Node3&#45;&gt;Node15 -->
<g id="edge14_Node000003_Node000015" class="edge">
<title>Node3&#45;&gt;Node15</title>
<g id="a_edge14_Node000003_Node000015"><a xlink:title=" ">
<path fill="none" stroke="#63b8ff" d="M387.06,-59.89C444.11,-52.94 564.45,-37.73 676.29,-19.58"/>
<polygon fill="#63b8ff" stroke="#63b8ff" points="676.63,-23.07 685.94,-18 675.5,-16.16 676.63,-23.07"/>
</a>
</g>
</g>
<!-- Node16&#45;&gt;Node3 -->
<g id="edge16_Node000016_Node000003" class="edge">
<title>Node16&#45;&gt;Node3</title>
<g id="a_edge16_Node000016_Node000003"><a xlink:title=" ">
<path fill="none" stroke="#63b8ff" d="M387.98,-110.33C382.43,-103.13 374.41,-92.71 367.52,-83.76"/>
<polygon fill="#63b8ff" stroke="#63b8ff" points="370.46,-81.85 361.59,-76.06 364.92,-86.12 370.46,-81.85"/>
</a>
</g>
</g>
</g>
</svg>
