<?xml version="1.0" encoding="UTF-8" standalone="no"?>
<!DOCTYPE svg PUBLIC "-//W3C//DTD SVG 1.1//EN"
 "http://www.w3.org/Graphics/SVG/1.1/DTD/svg11.dtd">
<!-- Generated by graphviz version 12.2.1 (20241206.2353)
 -->
<!-- Title: include/Optimist.hh Pages: 1 -->
<svg width="2981pt" height="94pt"
 viewBox="0.00 0.00 2980.50 93.75" xmlns="http://www.w3.org/2000/svg" xmlns:xlink="http://www.w3.org/1999/xlink">
<g id="graph0" class="graph" transform="scale(1 1) rotate(0) translate(4 89.75)">
<title>include/Optimist.hh</title>
<!-- Node1 -->
<g id="Node000001" class="node">
<title>Node1</title>
<g id="a_Node000001"><a xlink:title=" ">
<polygon fill="#999999" stroke="#666666" points="1104.75,-85.75 1004.75,-85.75 1004.75,-66.5 1104.75,-66.5 1104.75,-85.75"/>
<text text-anchor="middle" x="1054.75" y="-72.25" font-family="Helvetica,sans-Serif" font-size="10.00">include/Optimist.hh</text>
</a>
</g>
</g>
<!-- Node2 -->
<g id="Node000002" class="node">
<title>Node2</title>
<g id="a_Node000002"><a xlink:title=" ">
<polygon fill="#e0e0e0" stroke="#999999" points="53.5,-24.88 0,-24.88 0,-5.63 53.5,-5.63 53.5,-24.88"/>
<text text-anchor="middle" x="26.75" y="-11.38" font-family="Helvetica,sans-Serif" font-size="10.00">iostream</text>
</a>
</g>
</g>
<!-- Node1&#45;&gt;Node2 -->
<g id="edge1_Node000001_Node000002" class="edge">
<title>Node1&#45;&gt;Node2</title>
<g id="a_edge1_Node000001_Node000002"><a xlink:title=" ">
<path fill="none" stroke="#63b8ff" d="M1004.52,-75.06C829.23,-74.48 245.34,-69.6 62.75,-30.5 60.85,-30.09 58.92,-29.6 57,-29.04"/>
<polygon fill="#63b8ff" stroke="#63b8ff" points="58.21,-25.75 47.62,-25.8 55.93,-32.37 58.21,-25.75"/>
</a>
</g>
</g>
<!-- Node3 -->
<g id="Node000003" class="node">
<title>Node3</title>
<g id="a_Node000003"><a xlink:title=" ">
<polygon fill="#e0e0e0" stroke="#999999" points="100.15,-24.88 71.35,-24.88 71.35,-5.63 100.15,-5.63 100.15,-24.88"/>
<text text-anchor="middle" x="85.75" y="-11.38" font-family="Helvetica,sans-Serif" font-size="10.00">ios</text>
</a>
</g>
</g>
<!-- Node1&#45;&gt;Node3 -->
<g id="edge2_Node000001_Node000003" class="edge">
<title>Node1&#45;&gt;Node3</title>
<g id="a_edge2_Node000001_Node000003"><a xlink:title=" ">
<path fill="none" stroke="#63b8ff" d="M1004.38,-74.23C820.88,-70.76 194.38,-57.07 108.75,-30.5 108.51,-30.43 108.28,-30.35 108.04,-30.27"/>
<polygon fill="#63b8ff" stroke="#63b8ff" points="109.73,-27.2 99.2,-25.98 106.67,-33.5 109.73,-27.2"/>
</a>
</g>
</g>
<!-- Node4 -->
<g id="Node000004" class="node">
<title>Node4</title>
<g id="a_Node000004"><a xlink:title=" ">
<polygon fill="#e0e0e0" stroke="#999999" points="167.62,-24.88 117.88,-24.88 117.88,-5.63 167.62,-5.63 167.62,-24.88"/>
<text text-anchor="middle" x="142.75" y="-11.38" font-family="Helvetica,sans-Serif" font-size="10.00">iomanip</text>
</a>
</g>
</g>
<!-- Node1&#45;&gt;Node4 -->
<g id="edge3_Node000001_Node000004" class="edge">
<title>Node1&#45;&gt;Node4</title>
<g id="a_edge3_Node000001_Node000004"><a xlink:title=" ">
<path fill="none" stroke="#63b8ff" d="M1004.46,-74.84C842.54,-73.58 335.99,-66.75 176.75,-30.5 175.11,-30.13 173.45,-29.68 171.79,-29.18"/>
<polygon fill="#63b8ff" stroke="#63b8ff" points="173.09,-25.93 162.49,-25.8 170.7,-32.51 173.09,-25.93"/>
</a>
</g>
</g>
<!-- Node5 -->
<g id="Node000005" class="node">
<title>Node5</title>
<g id="a_Node000005"><a xlink:title=" ">
<polygon fill="#e0e0e0" stroke="#999999" points="225.75,-24.88 185.75,-24.88 185.75,-5.63 225.75,-5.63 225.75,-24.88"/>
<text text-anchor="middle" x="205.75" y="-11.38" font-family="Helvetica,sans-Serif" font-size="10.00">string</text>
</a>
</g>
</g>
<!-- Node1&#45;&gt;Node5 -->
<g id="edge4_Node000001_Node000005" class="edge">
<title>Node1&#45;&gt;Node5</title>
<g id="a_edge4_Node000001_Node000005"><a xlink:title=" ">
<path fill="none" stroke="#63b8ff" d="M1004.46,-75.01C849.56,-74.26 381.31,-68.79 234.75,-30.5 233.75,-30.24 232.75,-29.94 231.75,-29.62"/>
<polygon fill="#63b8ff" stroke="#63b8ff" points="233.24,-26.45 222.66,-25.87 230.57,-32.92 233.24,-26.45"/>
</a>
</g>
</g>
<!-- Node6 -->
<g id="Node000006" class="node">
<title>Node6</title>
<g id="a_Node000006"><a xlink:title=" ">
<polygon fill="#e0e0e0" stroke="#999999" points="287.25,-24.88 244.25,-24.88 244.25,-5.63 287.25,-5.63 287.25,-24.88"/>
<text text-anchor="middle" x="265.75" y="-11.38" font-family="Helvetica,sans-Serif" font-size="10.00">cmath</text>
</a>
</g>
</g>
<!-- Node1&#45;&gt;Node6 -->
<g id="edge5_Node000001_Node000006" class="edge">
<title>Node1&#45;&gt;Node6</title>
<g id="a_edge5_Node000001_Node000006"><a xlink:title=" ">
<path fill="none" stroke="#63b8ff" d="M1004.36,-74.67C857.27,-72.95 430.4,-65.04 295.75,-30.5 294.58,-30.2 293.39,-29.85 292.21,-29.47"/>
<polygon fill="#63b8ff" stroke="#63b8ff" points="293.81,-26.34 283.23,-25.84 291.19,-32.83 293.81,-26.34"/>
</a>
</g>
</g>
<!-- Node7 -->
<g id="Node000007" class="node">
<title>Node7</title>
<g id="a_Node000007"><a xlink:title=" ">
<polygon fill="#e0e0e0" stroke="#999999" points="348.25,-24.88 305.25,-24.88 305.25,-5.63 348.25,-5.63 348.25,-24.88"/>
<text text-anchor="middle" x="326.75" y="-11.38" font-family="Helvetica,sans-Serif" font-size="10.00">vector</text>
</a>
</g>
</g>
<!-- Node1&#45;&gt;Node7 -->
<g id="edge6_Node000001_Node000007" class="edge">
<title>Node1&#45;&gt;Node7</title>
<g id="a_edge6_Node000001_Node000007"><a xlink:title=" ">
<path fill="none" stroke="#63b8ff" d="M1004.32,-74.28C865.57,-71.59 480.31,-61.46 357.75,-30.5 356.54,-30.2 355.33,-29.84 354.11,-29.46"/>
<polygon fill="#63b8ff" stroke="#63b8ff" points="355.39,-26.2 344.8,-25.81 352.83,-32.72 355.39,-26.2"/>
</a>
</g>
</g>
<!-- Node8 -->
<g id="Node000008" class="node">
<title>Node8</title>
<g id="a_Node000008"><a xlink:title=" ">
<polygon fill="#e0e0e0" stroke="#999999" points="401.12,-24.88 366.38,-24.88 366.38,-5.63 401.12,-5.63 401.12,-24.88"/>
<text text-anchor="middle" x="383.75" y="-11.38" font-family="Helvetica,sans-Serif" font-size="10.00">map</text>
</a>
</g>
</g>
<!-- Node1&#45;&gt;Node8 -->
<g id="edge7_Node000001_Node000008" class="edge">
<title>Node1&#45;&gt;Node8</title>
<g id="a_edge7_Node000001_Node000008"><a xlink:title=" ">
<path fill="none" stroke="#63b8ff" d="M1004.68,-74.43C873.29,-72.17 521.1,-63.15 409.75,-30.5 409.1,-30.31 408.45,-30.1 407.8,-29.88"/>
<polygon fill="#63b8ff" stroke="#63b8ff" points="409.5,-26.81 398.95,-25.88 406.62,-33.19 409.5,-26.81"/>
</a>
</g>
</g>
<!-- Node9 -->
<g id="Node000009" class="node">
<title>Node9</title>
<g id="a_Node000009"><a xlink:title=" ">
<polygon fill="#e0e0e0" stroke="#999999" points="470.38,-24.88 419.12,-24.88 419.12,-5.63 470.38,-5.63 470.38,-24.88"/>
<text text-anchor="middle" x="444.75" y="-11.38" font-family="Helvetica,sans-Serif" font-size="10.00">memory</text>
</a>
</g>
</g>
<!-- Node1&#45;&gt;Node9 -->
<g id="edge8_Node000001_Node000009" class="edge">
<title>Node1&#45;&gt;Node9</title>
<g id="a_edge8_Node000001_Node000009"><a xlink:title=" ">
<path fill="none" stroke="#63b8ff" d="M1004.63,-73.22C883.76,-68.31 578.9,-53.93 479.75,-30.5 478.11,-30.11 476.45,-29.66 474.79,-29.16"/>
<polygon fill="#63b8ff" stroke="#63b8ff" points="476.04,-25.89 465.45,-25.84 473.7,-32.49 476.04,-25.89"/>
</a>
</g>
</g>
<!-- Node10 -->
<g id="Node000010" class="node">
<title>Node10</title>
<g id="a_Node000010"><a xlink:title=" ">
<polygon fill="#e0e0e0" stroke="#999999" points="539,-24.88 488.5,-24.88 488.5,-5.63 539,-5.63 539,-24.88"/>
<text text-anchor="middle" x="513.75" y="-11.38" font-family="Helvetica,sans-Serif" font-size="10.00">numeric</text>
</a>
</g>
</g>
<!-- Node1&#45;&gt;Node10 -->
<g id="edge9_Node000001_Node000010" class="edge">
<title>Node1&#45;&gt;Node10</title>
<g id="a_edge9_Node000001_Node000010"><a xlink:title=" ">
<path fill="none" stroke="#63b8ff" d="M1004.26,-75.79C912.12,-75.88 711.16,-70.89 547.75,-30.5 546.16,-30.11 544.54,-29.65 542.93,-29.14"/>
<polygon fill="#63b8ff" stroke="#63b8ff" points="544.47,-25.98 533.88,-25.83 542.06,-32.55 544.47,-25.98"/>
</a>
</g>
</g>
<!-- Node11 -->
<g id="Node000011" class="node">
<title>Node11</title>
<g id="a_Node000011"><a xlink:title=" ">
<polygon fill="#e0e0e0" stroke="#999999" points="612.62,-24.88 556.88,-24.88 556.88,-5.63 612.62,-5.63 612.62,-24.88"/>
<text text-anchor="middle" x="584.75" y="-11.38" font-family="Helvetica,sans-Serif" font-size="10.00">algorithm</text>
</a>
</g>
</g>
<!-- Node1&#45;&gt;Node11 -->
<g id="edge10_Node000001_Node000011" class="edge">
<title>Node1&#45;&gt;Node11</title>
<g id="a_edge10_Node000001_Node000011"><a xlink:title=" ">
<path fill="none" stroke="#63b8ff" d="M1004.35,-74.24C922.84,-71.85 757.53,-63.03 621.75,-30.5 619.86,-30.05 617.94,-29.52 616.02,-28.95"/>
<polygon fill="#63b8ff" stroke="#63b8ff" points="617.21,-25.65 606.62,-25.72 614.94,-32.28 617.21,-25.65"/>
</a>
</g>
</g>
<!-- Node12 -->
<g id="Node000012" class="node">
<title>Node12</title>
<g id="a_Node000012"><a xlink:title=" ">
<polygon fill="#e0e0e0" stroke="#999999" points="702.88,-24.88 630.62,-24.88 630.62,-5.63 702.88,-5.63 702.88,-24.88"/>
<text text-anchor="middle" x="666.75" y="-11.38" font-family="Helvetica,sans-Serif" font-size="10.00">Eigen/Dense</text>
</a>
</g>
</g>
<!-- Node1&#45;&gt;Node12 -->
<g id="edge11_Node000001_Node000012" class="edge">
<title>Node1&#45;&gt;Node12</title>
<g id="a_edge11_Node000001_Node000012"><a xlink:title=" ">
<path fill="none" stroke="#63b8ff" d="M1004.28,-71.38C936.96,-65.74 814.35,-53.23 711.75,-30.5 709.12,-29.92 706.42,-29.25 703.71,-28.53"/>
<polygon fill="#63b8ff" stroke="#63b8ff" points="704.74,-25.18 694.17,-25.75 702.79,-31.9 704.74,-25.18"/>
</a>
</g>
</g>
<!-- Node13 -->
<g id="Node000013" class="node">
<title>Node13</title>
<g id="a_Node000013"><a xlink:href="_function_8hxx.html" target="_top" xlink:title=" ">
<polygon fill="white" stroke="#666666" points="832.75,-24.88 720.75,-24.88 720.75,-5.63 832.75,-5.63 832.75,-24.88"/>
<text text-anchor="middle" x="776.75" y="-11.38" font-family="Helvetica,sans-Serif" font-size="10.00">Optimist/Function.hxx</text>
</a>
</g>
</g>
<!-- Node1&#45;&gt;Node13 -->
<g id="edge12_Node000001_Node000013" class="edge">
<title>Node1&#45;&gt;Node13</title>
<g id="a_edge12_Node000001_Node000013"><a xlink:title=" ">
<path fill="none" stroke="#63b8ff" d="M1010.67,-66.01C967.58,-57.08 900.12,-43.01 841.75,-30.5 837.67,-29.63 833.45,-28.71 829.2,-27.79"/>
<polygon fill="#63b8ff" stroke="#63b8ff" points="829.99,-24.38 819.48,-25.68 828.51,-31.22 829.99,-24.38"/>
</a>
</g>
</g>
<!-- Node14 -->
<g id="Node000014" class="node">
<title>Node14</title>
<g id="a_Node000014"><a xlink:href="_scalar_function_8hxx.html" target="_top" xlink:title=" ">
<polygon fill="white" stroke="#666666" points="974.75,-30.5 850.75,-30.5 850.75,0 974.75,0 974.75,-30.5"/>
<text text-anchor="start" x="858.75" y="-17" font-family="Helvetica,sans-Serif" font-size="10.00">Optimist/Function/Scalar</text>
<text text-anchor="middle" x="912.75" y="-5.75" font-family="Helvetica,sans-Serif" font-size="10.00">Function.hxx</text>
</a>
</g>
</g>
<!-- Node1&#45;&gt;Node14 -->
<g id="edge13_Node000001_Node000014" class="edge">
<title>Node1&#45;&gt;Node14</title>
<g id="a_edge13_Node000001_Node000014"><a xlink:title=" ">
<path fill="none" stroke="#63b8ff" d="M1032.87,-66.05C1013.13,-57.87 983.45,-45.56 958.54,-35.23"/>
<polygon fill="#63b8ff" stroke="#63b8ff" points="960.17,-32.12 949.59,-31.52 957.49,-38.59 960.17,-32.12"/>
</a>
</g>
</g>
<!-- Node15 -->
<g id="Node000015" class="node">
<title>Node15</title>
<g id="a_Node000015"><a xlink:href="_vector_function_8hxx.html" target="_top" xlink:title=" ">
<polygon fill="white" stroke="#666666" points="1117.12,-30.5 992.38,-30.5 992.38,0 1117.12,0 1117.12,-30.5"/>
<text text-anchor="start" x="1000.38" y="-17" font-family="Helvetica,sans-Serif" font-size="10.00">Optimist/Function/Vector</text>
<text text-anchor="middle" x="1054.75" y="-5.75" font-family="Helvetica,sans-Serif" font-size="10.00">Function.hxx</text>
</a>
</g>
</g>
<!-- Node1&#45;&gt;Node15 -->
<g id="edge14_Node000001_Node000015" class="edge">
<title>Node1&#45;&gt;Node15</title>
<g id="a_edge14_Node000001_Node000015"><a xlink:title=" ">
<path fill="none" stroke="#63b8ff" d="M1054.75,-66.18C1054.75,-59.73 1054.75,-50.66 1054.75,-42.01"/>
<polygon fill="#63b8ff" stroke="#63b8ff" points="1058.25,-42.3 1054.75,-32.3 1051.25,-42.3 1058.25,-42.3"/>
</a>
</g>
</g>
<!-- Node16 -->
<g id="Node000016" class="node">
<title>Node16</title>
<g id="a_Node000016"><a xlink:href="_cost_function_8hxx.html" target="_top" xlink:title=" ">
<polygon fill="white" stroke="#666666" points="1308.5,-24.88 1135,-24.88 1135,-5.63 1308.5,-5.63 1308.5,-24.88"/>
<text text-anchor="middle" x="1221.75" y="-11.38" font-family="Helvetica,sans-Serif" font-size="10.00">Optimist/Function/CostFunction.hxx</text>
</a>
</g>
</g>
<!-- Node1&#45;&gt;Node16 -->
<g id="edge15_Node000001_Node000016" class="edge">
<title>Node1&#45;&gt;Node16</title>
<g id="a_edge15_Node000001_Node000016"><a xlink:title=" ">
<path fill="none" stroke="#63b8ff" d="M1080.48,-66.05C1108.55,-56.16 1153.71,-40.24 1185.4,-29.07"/>
<polygon fill="#63b8ff" stroke="#63b8ff" points="1186.3,-32.46 1194.57,-25.83 1183.97,-25.86 1186.3,-32.46"/>
</a>
</g>
</g>
<!-- Node17 -->
<g id="Node000017" class="node">
<title>Node17</title>
<g id="a_Node000017"><a xlink:href="_cut_function_8hxx.html" target="_top" xlink:title=" ">
<polygon fill="white" stroke="#666666" points="1494.88,-24.88 1326.62,-24.88 1326.62,-5.63 1494.88,-5.63 1494.88,-24.88"/>
<text text-anchor="middle" x="1410.75" y="-11.38" font-family="Helvetica,sans-Serif" font-size="10.00">Optimist/Function/CutFunction.hxx</text>
</a>
</g>
</g>
<!-- Node1&#45;&gt;Node17 -->
<g id="edge16_Node000001_Node000017" class="edge">
<title>Node1&#45;&gt;Node17</title>
<g id="a_edge16_Node000001_Node000017"><a xlink:title=" ">
<path fill="none" stroke="#63b8ff" d="M1105,-66.81C1167.73,-56.44 1275.19,-38.67 1344.57,-27.19"/>
<polygon fill="#63b8ff" stroke="#63b8ff" points="1345,-30.67 1354.29,-25.59 1343.86,-23.77 1345,-30.67"/>
</a>
</g>
</g>
<!-- Node18 -->
<g id="Node000018" class="node">
<title>Node18</title>
<g id="a_Node000018"><a xlink:href="_solver_8hxx.html" target="_top" xlink:title=" ">
<polygon fill="white" stroke="#666666" points="1614.5,-24.88 1513,-24.88 1513,-5.63 1614.5,-5.63 1614.5,-24.88"/>
<text text-anchor="middle" x="1563.75" y="-11.38" font-family="Helvetica,sans-Serif" font-size="10.00">Optimist/Solver.hxx</text>
</a>
</g>
</g>
<!-- Node1&#45;&gt;Node18 -->
<g id="edge17_Node000001_Node000018" class="edge">
<title>Node1&#45;&gt;Node18</title>
<g id="a_edge17_Node000001_Node000018"><a xlink:title=" ">
<path fill="none" stroke="#63b8ff" d="M1105.21,-72.32C1188.6,-67.2 1360.25,-54.56 1503.75,-30.5 1508.38,-29.72 1513.19,-28.79 1517.98,-27.79"/>
<polygon fill="#63b8ff" stroke="#63b8ff" points="1518.53,-31.25 1527.53,-25.66 1517.01,-24.42 1518.53,-31.25"/>
</a>
</g>
</g>
<!-- Node19 -->
<g id="Node000019" class="node">
<title>Node19</title>
<g id="a_Node000019"><a xlink:href="_scalar_root_finder_8hxx.html" target="_top" xlink:title=" ">
<polygon fill="white" stroke="#666666" points="1782.5,-24.88 1633,-24.88 1633,-5.63 1782.5,-5.63 1782.5,-24.88"/>
<text text-anchor="middle" x="1707.75" y="-11.38" font-family="Helvetica,sans-Serif" font-size="10.00">Optimist/ScalarRootFinder.hxx</text>
</a>
</g>
</g>
<!-- Node1&#45;&gt;Node19 -->
<g id="edge18_Node000001_Node000019" class="edge">
<title>Node1&#45;&gt;Node19</title>
<g id="a_edge18_Node000001_Node000019"><a xlink:title=" ">
<path fill="none" stroke="#63b8ff" d="M1105.14,-72.7C1204.58,-67.57 1432.98,-54.11 1623.75,-30.5 1631.43,-29.55 1639.48,-28.39 1647.43,-27.15"/>
<polygon fill="#63b8ff" stroke="#63b8ff" points="1647.75,-30.65 1657.06,-25.6 1646.63,-23.74 1647.75,-30.65"/>
</a>
</g>
</g>
<!-- Node20 -->
<g id="Node000020" class="node">
<title>Node20</title>
<g id="a_Node000020"><a xlink:href="_scalar_root_finder_2_newton_8hxx.html" target="_top" xlink:title=" ">
<polygon fill="white" stroke="#666666" points="1932.5,-30.5 1801,-30.5 1801,0 1932.5,0 1932.5,-30.5"/>
<text text-anchor="start" x="1809" y="-17" font-family="Helvetica,sans-Serif" font-size="10.00">Optimist/ScalarRootFinder</text>
<text text-anchor="middle" x="1866.75" y="-5.75" font-family="Helvetica,sans-Serif" font-size="10.00">/Newton.hxx</text>
</a>
</g>
</g>
<!-- Node1&#45;&gt;Node20 -->
<g id="edge19_Node000001_Node000020" class="edge">
<title>Node1&#45;&gt;Node20</title>
<g id="a_edge19_Node000001_Node000020"><a xlink:title=" ">
<path fill="none" stroke="#63b8ff" d="M1105,-74.28C1222.79,-71.84 1526.06,-62.82 1789.25,-30.7"/>
<polygon fill="#63b8ff" stroke="#63b8ff" points="1789.57,-34.18 1799.07,-29.48 1788.71,-27.24 1789.57,-34.18"/>
</a>
</g>
</g>
<!-- Node21 -->
<g id="Node000021" class="node">
<title>Node21</title>
<g id="a_Node000021"><a xlink:href="_root_finder_8hxx.html" target="_top" xlink:title=" ">
<polygon fill="white" stroke="#666666" points="2072.62,-24.88 1950.88,-24.88 1950.88,-5.63 2072.62,-5.63 2072.62,-24.88"/>
<text text-anchor="middle" x="2011.75" y="-11.38" font-family="Helvetica,sans-Serif" font-size="10.00">Optimist/RootFinder.hxx</text>
</a>
</g>
</g>
<!-- Node1&#45;&gt;Node21 -->
<g id="edge20_Node000001_Node000021" class="edge">
<title>Node1&#45;&gt;Node21</title>
<g id="a_edge20_Node000001_Node000021"><a xlink:title=" ">
<path fill="none" stroke="#63b8ff" d="M1105,-75.24C1240.59,-74.98 1625.09,-70.47 1941.75,-30.5 1948.13,-29.69 1954.81,-28.63 1961.39,-27.44"/>
<polygon fill="#63b8ff" stroke="#63b8ff" points="1961.66,-30.96 1970.82,-25.64 1960.35,-24.08 1961.66,-30.96"/>
</a>
</g>
</g>
<!-- Node22 -->
<g id="Node000022" class="node">
<title>Node22</title>
<g id="a_Node000022"><a xlink:href="_root_finder_2_newton_8hxx.html" target="_top" xlink:title=" ">
<polygon fill="white" stroke="#666666" points="2194.62,-30.5 2090.88,-30.5 2090.88,0 2194.62,0 2194.62,-30.5"/>
<text text-anchor="start" x="2098.88" y="-17" font-family="Helvetica,sans-Serif" font-size="10.00">Optimist/RootFinder</text>
<text text-anchor="middle" x="2142.75" y="-5.75" font-family="Helvetica,sans-Serif" font-size="10.00">/Newton.hxx</text>
</a>
</g>
</g>
<!-- Node1&#45;&gt;Node22 -->
<g id="edge21_Node000001_Node000022" class="edge">
<title>Node1&#45;&gt;Node22</title>
<g id="a_edge21_Node000001_Node000022"><a xlink:title=" ">
<path fill="none" stroke="#63b8ff" d="M1105.02,-74.18C1280.75,-70.69 1867.95,-57.37 2079.34,-30.59"/>
<polygon fill="#63b8ff" stroke="#63b8ff" points="2079.67,-34.08 2089.13,-29.3 2078.75,-27.14 2079.67,-34.08"/>
</a>
</g>
</g>
<!-- Node23 -->
<g id="Node000023" class="node">
<title>Node23</title>
<g id="a_Node000023"><a xlink:href="_quasi_newton_8hxx.html" target="_top" xlink:title=" ">
<polygon fill="white" stroke="#666666" points="2316.62,-30.5 2212.88,-30.5 2212.88,0 2316.62,0 2316.62,-30.5"/>
<text text-anchor="start" x="2220.88" y="-17" font-family="Helvetica,sans-Serif" font-size="10.00">Optimist/RootFinder</text>
<text text-anchor="middle" x="2264.75" y="-5.75" font-family="Helvetica,sans-Serif" font-size="10.00">/QuasiNewton.hxx</text>
</a>
</g>
</g>
<!-- Node1&#45;&gt;Node23 -->
<g id="edge22_Node000001_Node000023" class="edge">
<title>Node1&#45;&gt;Node23</title>
<g id="a_edge22_Node000001_Node000023"><a xlink:title=" ">
<path fill="none" stroke="#63b8ff" d="M1105.25,-74.44C1294.8,-71.69 1964.68,-60.17 2201.35,-30.58"/>
<polygon fill="#63b8ff" stroke="#63b8ff" points="2201.66,-34.07 2211.13,-29.31 2200.76,-27.13 2201.66,-34.07"/>
</a>
</g>
</g>
<!-- Node24 -->
<g id="Node000024" class="node">
<title>Node24</title>
<g id="a_Node000024"><a xlink:href="_broyden_8hxx.html" target="_top" xlink:title=" ">
<polygon fill="white" stroke="#666666" points="2438.62,-30.5 2334.88,-30.5 2334.88,0 2438.62,0 2438.62,-30.5"/>
<text text-anchor="start" x="2342.88" y="-17" font-family="Helvetica,sans-Serif" font-size="10.00">Optimist/RootFinder</text>
<text text-anchor="middle" x="2386.75" y="-5.75" font-family="Helvetica,sans-Serif" font-size="10.00">/Broyden.hxx</text>
</a>
</g>
</g>
<!-- Node1&#45;&gt;Node24 -->
<g id="edge23_Node000001_Node000024" class="edge">
<title>Node1&#45;&gt;Node24</title>
<g id="a_edge23_Node000001_Node000024"><a xlink:title=" ">
<path fill="none" stroke="#63b8ff" d="M1104.92,-74.67C1306.78,-72.62 2060.95,-63.02 2323.26,-30.59"/>
<polygon fill="#63b8ff" stroke="#63b8ff" points="2323.66,-34.07 2333.13,-29.32 2322.76,-27.12 2323.66,-34.07"/>
</a>
</g>
</g>
<!-- Node25 -->
<g id="Node000025" class="node">
<title>Node25</title>
<g id="a_Node000025"><a xlink:href="_greenstadt_8hxx.html" target="_top" xlink:title=" ">
<polygon fill="white" stroke="#666666" points="2560.62,-30.5 2456.88,-30.5 2456.88,0 2560.62,0 2560.62,-30.5"/>
<text text-anchor="start" x="2464.88" y="-17" font-family="Helvetica,sans-Serif" font-size="10.00">Optimist/RootFinder</text>
<text text-anchor="middle" x="2508.75" y="-5.75" font-family="Helvetica,sans-Serif" font-size="10.00">/Greenstadt.hxx</text>
</a>
</g>
</g>
<!-- Node1&#45;&gt;Node25 -->
<g id="edge24_Node000001_Node000025" class="edge">
<title>Node1&#45;&gt;Node25</title>
<g id="a_edge24_Node000001_Node000025"><a xlink:title=" ">
<path fill="none" stroke="#63b8ff" d="M1104.89,-74.85C1318.91,-73.45 2157.74,-65.88 2445.4,-30.57"/>
<polygon fill="#63b8ff" stroke="#63b8ff" points="2445.65,-34.07 2455.13,-29.33 2444.77,-27.12 2445.65,-34.07"/>
</a>
</g>
</g>
<!-- Node26 -->
<g id="Node000026" class="node">
<title>Node26</title>
<g id="a_Node000026"><a xlink:href="_optimizer_8hxx.html" target="_top" xlink:title=" ">
<polygon fill="white" stroke="#666666" points="2694.62,-24.88 2578.88,-24.88 2578.88,-5.63 2694.62,-5.63 2694.62,-24.88"/>
<text text-anchor="middle" x="2636.75" y="-11.38" font-family="Helvetica,sans-Serif" font-size="10.00">Optimist/Optimizer.hxx</text>
</a>
</g>
</g>
<!-- Node1&#45;&gt;Node26 -->
<g id="edge25_Node000001_Node000026" class="edge">
<title>Node1&#45;&gt;Node26</title>
<g id="a_edge25_Node000001_Node000026"><a xlink:title=" ">
<path fill="none" stroke="#63b8ff" d="M1104.98,-74.86C1333.53,-73.48 2276.65,-65.69 2569.75,-30.5 2575.88,-29.76 2582.27,-28.74 2588.57,-27.58"/>
<polygon fill="#63b8ff" stroke="#63b8ff" points="2589.13,-31.04 2598.25,-25.66 2587.76,-24.17 2589.13,-31.04"/>
</a>
</g>
</g>
<!-- Node27 -->
<g id="Node000027" class="node">
<title>Node27</title>
<g id="a_Node000027"><a xlink:href="_nelder_mead_8hxx.html" target="_top" xlink:title=" ">
<polygon fill="white" stroke="#666666" points="2810.62,-30.5 2712.88,-30.5 2712.88,0 2810.62,0 2810.62,-30.5"/>
<text text-anchor="start" x="2720.88" y="-17" font-family="Helvetica,sans-Serif" font-size="10.00">Optimist/Optimizer</text>
<text text-anchor="middle" x="2761.75" y="-5.75" font-family="Helvetica,sans-Serif" font-size="10.00">/NelderMead.hxx</text>
</a>
</g>
</g>
<!-- Node1&#45;&gt;Node27 -->
<g id="edge26_Node000001_Node000027" class="edge">
<title>Node1&#45;&gt;Node27</title>
<g id="a_edge26_Node000001_Node000027"><a xlink:title=" ">
<path fill="none" stroke="#63b8ff" d="M1104.96,-75.21C1343.02,-75.41 2360.18,-73.72 2701.17,-30.59"/>
<polygon fill="#63b8ff" stroke="#63b8ff" points="2701.56,-34.07 2711.03,-29.3 2700.66,-27.13 2701.56,-34.07"/>
</a>
</g>
</g>
<!-- Node28 -->
<g id="Node000028" class="node">
<title>Node28</title>
<g id="a_Node000028"><a xlink:href="_scalar_optimizer_8hxx.html" target="_top" xlink:title=" ">
<polygon fill="white" stroke="#666666" points="2972.5,-24.88 2829,-24.88 2829,-5.63 2972.5,-5.63 2972.5,-24.88"/>
<text text-anchor="middle" x="2900.75" y="-11.38" font-family="Helvetica,sans-Serif" font-size="10.00">Optimist/ScalarOptimizer.hxx</text>
</a>
</g>
</g>
<!-- Node1&#45;&gt;Node28 -->
<g id="edge27_Node000001_Node000028" class="edge">
<title>Node1&#45;&gt;Node28</title>
<g id="a_edge27_Node000001_Node000028"><a xlink:title=" ">
<path fill="none" stroke="#63b8ff" d="M1105.07,-74.87C1356.02,-73.42 2473.96,-65.09 2819.75,-30.5 2827.86,-29.69 2836.37,-28.53 2844.72,-27.22"/>
<polygon fill="#63b8ff" stroke="#63b8ff" points="2845.14,-30.7 2854.44,-25.61 2844,-23.79 2845.14,-30.7"/>
</a>
</g>
</g>
</g>
</svg>
