<?xml version="1.0" encoding="UTF-8" standalone="no"?>
<!DOCTYPE svg PUBLIC "-//W3C//DTD SVG 1.1//EN"
 "http://www.w3.org/Graphics/SVG/1.1/DTD/svg11.dtd">
<!-- Generated by graphviz version 12.2.1 (20241206.2353)
 -->
<!-- Title: include/Optimist.hh Pages: 1 -->
<svg width="3695pt" height="94pt"
 viewBox="0.00 0.00 3694.50 93.75" xmlns="http://www.w3.org/2000/svg" xmlns:xlink="http://www.w3.org/1999/xlink">
<g id="graph0" class="graph" transform="scale(1 1) rotate(0) translate(4 89.75)">
<title>include/Optimist.hh</title>
<!-- Node1 -->
<g id="Node000001" class="node">
<title>Node1</title>
<g id="a_Node000001"><a xlink:title=" ">
<polygon fill="#999999" stroke="#666666" points="1499.75,-85.75 1399.75,-85.75 1399.75,-66.5 1499.75,-66.5 1499.75,-85.75"/>
<text text-anchor="middle" x="1449.75" y="-72.25" font-family="Helvetica,sans-Serif" font-size="10.00">include/Optimist.hh</text>
</a>
</g>
</g>
<!-- Node2 -->
<g id="Node000002" class="node">
<title>Node2</title>
<g id="a_Node000002"><a xlink:title=" ">
<polygon fill="#e0e0e0" stroke="#999999" points="53.5,-24.88 0,-24.88 0,-5.63 53.5,-5.63 53.5,-24.88"/>
<text text-anchor="middle" x="26.75" y="-11.38" font-family="Helvetica,sans-Serif" font-size="10.00">iostream</text>
</a>
</g>
</g>
<!-- Node1&#45;&gt;Node2 -->
<g id="edge1_Node000001_Node000002" class="edge">
<title>Node1&#45;&gt;Node2</title>
<g id="a_edge1_Node000001_Node000002"><a xlink:title=" ">
<path fill="none" stroke="#63b8ff" d="M1399.5,-74.53C1166.31,-71.64 195.44,-58.03 62.75,-30.5 60.85,-30.11 58.92,-29.62 56.99,-29.07"/>
<polygon fill="#63b8ff" stroke="#63b8ff" points="58.2,-25.78 47.61,-25.84 55.93,-32.4 58.2,-25.78"/>
</a>
</g>
</g>
<!-- Node3 -->
<g id="Node000003" class="node">
<title>Node3</title>
<g id="a_Node000003"><a xlink:title=" ">
<polygon fill="#e0e0e0" stroke="#999999" points="100.15,-24.88 71.35,-24.88 71.35,-5.63 100.15,-5.63 100.15,-24.88"/>
<text text-anchor="middle" x="85.75" y="-11.38" font-family="Helvetica,sans-Serif" font-size="10.00">ios</text>
</a>
</g>
</g>
<!-- Node1&#45;&gt;Node3 -->
<g id="edge2_Node000001_Node000003" class="edge">
<title>Node1&#45;&gt;Node3</title>
<g id="a_edge2_Node000001_Node000003"><a xlink:title=" ">
<path fill="none" stroke="#63b8ff" d="M1399.52,-74.99C1170.84,-74.14 233.88,-68.38 108.75,-30.5 108.51,-30.43 108.28,-30.35 108.04,-30.28"/>
<polygon fill="#63b8ff" stroke="#63b8ff" points="109.72,-27.2 99.2,-26.01 106.68,-33.51 109.72,-27.2"/>
</a>
</g>
</g>
<!-- Node4 -->
<g id="Node000004" class="node">
<title>Node4</title>
<g id="a_Node000004"><a xlink:title=" ">
<polygon fill="#e0e0e0" stroke="#999999" points="167.62,-24.88 117.88,-24.88 117.88,-5.63 167.62,-5.63 167.62,-24.88"/>
<text text-anchor="middle" x="142.75" y="-11.38" font-family="Helvetica,sans-Serif" font-size="10.00">iomanip</text>
</a>
</g>
</g>
<!-- Node1&#45;&gt;Node4 -->
<g id="edge3_Node000001_Node000004" class="edge">
<title>Node1&#45;&gt;Node4</title>
<g id="a_edge3_Node000001_Node000004"><a xlink:title=" ">
<path fill="none" stroke="#63b8ff" d="M1399.62,-74.44C1178.67,-71.25 297.51,-56.99 176.75,-30.5 175.11,-30.14 173.45,-29.7 171.79,-29.21"/>
<polygon fill="#63b8ff" stroke="#63b8ff" points="173.08,-25.96 162.48,-25.86 170.7,-32.54 173.08,-25.96"/>
</a>
</g>
</g>
<!-- Node5 -->
<g id="Node000005" class="node">
<title>Node5</title>
<g id="a_Node000005"><a xlink:title=" ">
<polygon fill="#e0e0e0" stroke="#999999" points="225.75,-24.88 185.75,-24.88 185.75,-5.63 225.75,-5.63 225.75,-24.88"/>
<text text-anchor="middle" x="205.75" y="-11.38" font-family="Helvetica,sans-Serif" font-size="10.00">string</text>
</a>
</g>
</g>
<!-- Node1&#45;&gt;Node5 -->
<g id="edge4_Node000001_Node000005" class="edge">
<title>Node1&#45;&gt;Node5</title>
<g id="a_edge4_Node000001_Node000005"><a xlink:title=" ">
<path fill="none" stroke="#63b8ff" d="M1399.35,-74.51C1184.24,-71.74 348.74,-59.21 234.75,-30.5 233.75,-30.25 232.74,-29.96 231.74,-29.64"/>
<polygon fill="#63b8ff" stroke="#63b8ff" points="233.23,-26.47 222.64,-25.92 230.57,-32.94 233.23,-26.47"/>
</a>
</g>
</g>
<!-- Node6 -->
<g id="Node000006" class="node">
<title>Node6</title>
<g id="a_Node000006"><a xlink:title=" ">
<polygon fill="#e0e0e0" stroke="#999999" points="287.25,-24.88 244.25,-24.88 244.25,-5.63 287.25,-5.63 287.25,-24.88"/>
<text text-anchor="middle" x="265.75" y="-11.38" font-family="Helvetica,sans-Serif" font-size="10.00">cmath</text>
</a>
</g>
</g>
<!-- Node1&#45;&gt;Node6 -->
<g id="edge5_Node000001_Node000006" class="edge">
<title>Node1&#45;&gt;Node6</title>
<g id="a_edge5_Node000001_Node000006"><a xlink:title=" ">
<path fill="none" stroke="#63b8ff" d="M1399.46,-74.37C1191.39,-71.1 403.75,-57.05 295.75,-30.5 294.57,-30.21 293.39,-29.87 292.2,-29.5"/>
<polygon fill="#63b8ff" stroke="#63b8ff" points="293.8,-26.37 283.22,-25.9 291.2,-32.86 293.8,-26.37"/>
</a>
</g>
</g>
<!-- Node7 -->
<g id="Node000007" class="node">
<title>Node7</title>
<g id="a_Node000007"><a xlink:title=" ">
<polygon fill="#e0e0e0" stroke="#999999" points="348.25,-24.88 305.25,-24.88 305.25,-5.63 348.25,-5.63 348.25,-24.88"/>
<text text-anchor="middle" x="326.75" y="-11.38" font-family="Helvetica,sans-Serif" font-size="10.00">vector</text>
</a>
</g>
</g>
<!-- Node1&#45;&gt;Node7 -->
<g id="edge6_Node000001_Node000007" class="edge">
<title>Node1&#45;&gt;Node7</title>
<g id="a_edge6_Node000001_Node000007"><a xlink:title=" ">
<path fill="none" stroke="#63b8ff" d="M1399.47,-74.22C1198.6,-70.44 459.62,-54.98 357.75,-30.5 356.54,-30.21 355.32,-29.87 354.1,-29.49"/>
<polygon fill="#63b8ff" stroke="#63b8ff" points="355.38,-26.23 344.79,-25.88 352.84,-32.76 355.38,-26.23"/>
</a>
</g>
</g>
<!-- Node8 -->
<g id="Node000008" class="node">
<title>Node8</title>
<g id="a_Node000008"><a xlink:title=" ">
<polygon fill="#e0e0e0" stroke="#999999" points="401.12,-24.88 366.38,-24.88 366.38,-5.63 401.12,-5.63 401.12,-24.88"/>
<text text-anchor="middle" x="383.75" y="-11.38" font-family="Helvetica,sans-Serif" font-size="10.00">map</text>
</a>
</g>
</g>
<!-- Node1&#45;&gt;Node8 -->
<g id="edge7_Node000001_Node000008" class="edge">
<title>Node1&#45;&gt;Node8</title>
<g id="a_edge7_Node000001_Node000008"><a xlink:title=" ">
<path fill="none" stroke="#63b8ff" d="M1399.51,-74.31C1204.74,-70.97 505.49,-57.22 409.75,-30.5 409.1,-30.32 408.45,-30.12 407.79,-29.9"/>
<polygon fill="#63b8ff" stroke="#63b8ff" points="409.49,-26.82 398.93,-25.95 406.64,-33.22 409.49,-26.82"/>
</a>
</g>
</g>
<!-- Node9 -->
<g id="Node000009" class="node">
<title>Node9</title>
<g id="a_Node000009"><a xlink:title=" ">
<polygon fill="#e0e0e0" stroke="#999999" points="470.38,-24.88 419.12,-24.88 419.12,-5.63 470.38,-5.63 470.38,-24.88"/>
<text text-anchor="middle" x="444.75" y="-11.38" font-family="Helvetica,sans-Serif" font-size="10.00">memory</text>
</a>
</g>
</g>
<!-- Node1&#45;&gt;Node9 -->
<g id="edge8_Node000001_Node000009" class="edge">
<title>Node1&#45;&gt;Node9</title>
<g id="a_edge8_Node000001_Node000009"><a xlink:title=" ">
<path fill="none" stroke="#63b8ff" d="M1399.43,-75.06C1226.53,-74.49 657.68,-69.6 479.75,-30.5 477.98,-30.11 476.19,-29.64 474.4,-29.11"/>
<polygon fill="#63b8ff" stroke="#63b8ff" points="475.65,-25.84 465.06,-25.81 473.32,-32.44 475.65,-25.84"/>
</a>
</g>
</g>
<!-- Node10 -->
<g id="Node000010" class="node">
<title>Node10</title>
<g id="a_Node000010"><a xlink:title=" ">
<polygon fill="#e0e0e0" stroke="#999999" points="539,-24.88 488.5,-24.88 488.5,-5.63 539,-5.63 539,-24.88"/>
<text text-anchor="middle" x="513.75" y="-11.38" font-family="Helvetica,sans-Serif" font-size="10.00">numeric</text>
</a>
</g>
</g>
<!-- Node1&#45;&gt;Node10 -->
<g id="edge9_Node000001_Node000010" class="edge">
<title>Node1&#45;&gt;Node10</title>
<g id="a_edge9_Node000001_Node000010"><a xlink:title=" ">
<path fill="none" stroke="#63b8ff" d="M1399.25,-74.92C1234.18,-73.9 711.74,-67.71 547.75,-30.5 546.11,-30.13 544.45,-29.68 542.79,-29.18"/>
<polygon fill="#63b8ff" stroke="#63b8ff" points="544.09,-25.93 533.49,-25.81 541.7,-32.51 544.09,-25.93"/>
</a>
</g>
</g>
<!-- Node11 -->
<g id="Node000011" class="node">
<title>Node11</title>
<g id="a_Node000011"><a xlink:title=" ">
<polygon fill="#e0e0e0" stroke="#999999" points="612.62,-24.88 556.88,-24.88 556.88,-5.63 612.62,-5.63 612.62,-24.88"/>
<text text-anchor="middle" x="584.75" y="-11.38" font-family="Helvetica,sans-Serif" font-size="10.00">algorithm</text>
</a>
</g>
</g>
<!-- Node1&#45;&gt;Node11 -->
<g id="edge10_Node000001_Node000011" class="edge">
<title>Node1&#45;&gt;Node11</title>
<g id="a_edge10_Node000001_Node000011"><a xlink:title=" ">
<path fill="none" stroke="#63b8ff" d="M1399.38,-74.47C1243.65,-72.13 771.41,-62.51 621.75,-30.5 619.72,-30.07 617.65,-29.54 615.58,-28.94"/>
<polygon fill="#63b8ff" stroke="#63b8ff" points="616.78,-25.65 606.19,-25.75 614.54,-32.28 616.78,-25.65"/>
</a>
</g>
</g>
<!-- Node12 -->
<g id="Node000012" class="node">
<title>Node12</title>
<g id="a_Node000012"><a xlink:title=" ">
<polygon fill="#e0e0e0" stroke="#999999" points="702.88,-24.88 630.62,-24.88 630.62,-5.63 702.88,-5.63 702.88,-24.88"/>
<text text-anchor="middle" x="666.75" y="-11.38" font-family="Helvetica,sans-Serif" font-size="10.00">Eigen/Dense</text>
</a>
</g>
</g>
<!-- Node1&#45;&gt;Node12 -->
<g id="edge11_Node000001_Node000012" class="edge">
<title>Node1&#45;&gt;Node12</title>
<g id="a_edge11_Node000001_Node000012"><a xlink:title=" ">
<path fill="none" stroke="#63b8ff" d="M1399.41,-73.7C1255.49,-69.35 844.18,-55.08 711.75,-30.5 708.76,-29.94 705.68,-29.25 702.62,-28.47"/>
<polygon fill="#63b8ff" stroke="#63b8ff" points="703.73,-25.15 693.16,-25.77 701.81,-31.88 703.73,-25.15"/>
</a>
</g>
</g>
<!-- Node13 -->
<g id="Node000013" class="node">
<title>Node13</title>
<g id="a_Node000013"><a xlink:href="_function_8hxx.html" target="_top" xlink:title=" ">
<polygon fill="white" stroke="#666666" points="832.75,-24.88 720.75,-24.88 720.75,-5.63 832.75,-5.63 832.75,-24.88"/>
<text text-anchor="middle" x="776.75" y="-11.38" font-family="Helvetica,sans-Serif" font-size="10.00">Optimist/Function.hxx</text>
</a>
</g>
</g>
<!-- Node1&#45;&gt;Node13 -->
<g id="edge12_Node000001_Node000013" class="edge">
<title>Node1&#45;&gt;Node13</title>
<g id="a_edge12_Node000001_Node000013"><a xlink:title=" ">
<path fill="none" stroke="#63b8ff" d="M1399.44,-73.86C1295.01,-70.69 1047.29,-60.42 841.75,-30.5 836.18,-29.69 830.37,-28.67 824.62,-27.55"/>
<polygon fill="#63b8ff" stroke="#63b8ff" points="825.69,-24.2 815.19,-25.61 824.28,-31.05 825.69,-24.2"/>
</a>
</g>
</g>
<!-- Node14 -->
<g id="Node000014" class="node">
<title>Node14</title>
<g id="a_Node000014"><a xlink:href="_scalar_function_8hxx.html" target="_top" xlink:title=" ">
<polygon fill="white" stroke="#666666" points="974.75,-30.5 850.75,-30.5 850.75,0 974.75,0 974.75,-30.5"/>
<text text-anchor="start" x="858.75" y="-17" font-family="Helvetica,sans-Serif" font-size="10.00">Optimist/Function/Scalar</text>
<text text-anchor="middle" x="912.75" y="-5.75" font-family="Helvetica,sans-Serif" font-size="10.00">Function.hxx</text>
</a>
</g>
</g>
<!-- Node1&#45;&gt;Node14 -->
<g id="edge13_Node000001_Node000014" class="edge">
<title>Node1&#45;&gt;Node14</title>
<g id="a_edge13_Node000001_Node000014"><a xlink:title=" ">
<path fill="none" stroke="#63b8ff" d="M1399.55,-72.01C1315.93,-66.46 1142.67,-53.39 986.26,-30.77"/>
<polygon fill="#63b8ff" stroke="#63b8ff" points="986.92,-27.33 976.52,-29.34 985.91,-34.26 986.92,-27.33"/>
</a>
</g>
</g>
<!-- Node15 -->
<g id="Node000015" class="node">
<title>Node15</title>
<g id="a_Node000015"><a xlink:href="_vector_function_8hxx.html" target="_top" xlink:title=" ">
<polygon fill="white" stroke="#666666" points="1117.12,-30.5 992.38,-30.5 992.38,0 1117.12,0 1117.12,-30.5"/>
<text text-anchor="start" x="1000.38" y="-17" font-family="Helvetica,sans-Serif" font-size="10.00">Optimist/Function/Vector</text>
<text text-anchor="middle" x="1054.75" y="-5.75" font-family="Helvetica,sans-Serif" font-size="10.00">Function.hxx</text>
</a>
</g>
</g>
<!-- Node1&#45;&gt;Node15 -->
<g id="edge14_Node000001_Node000015" class="edge">
<title>Node1&#45;&gt;Node15</title>
<g id="a_edge14_Node000001_Node000015"><a xlink:title=" ">
<path fill="none" stroke="#63b8ff" d="M1399.37,-69.16C1337.78,-61.64 1230.1,-47.82 1128.51,-30.91"/>
<polygon fill="#63b8ff" stroke="#63b8ff" points="1129.37,-27.5 1118.92,-29.3 1128.21,-34.41 1129.37,-27.5"/>
</a>
</g>
</g>
<!-- Node16 -->
<g id="Node000016" class="node">
<title>Node16</title>
<g id="a_Node000016"><a xlink:href="_cost_function_8hxx.html" target="_top" xlink:title=" ">
<polygon fill="white" stroke="#666666" points="1308.5,-24.88 1135,-24.88 1135,-5.63 1308.5,-5.63 1308.5,-24.88"/>
<text text-anchor="middle" x="1221.75" y="-11.38" font-family="Helvetica,sans-Serif" font-size="10.00">Optimist/Function/CostFunction.hxx</text>
</a>
</g>
</g>
<!-- Node1&#45;&gt;Node16 -->
<g id="edge15_Node000001_Node000016" class="edge">
<title>Node1&#45;&gt;Node16</title>
<g id="a_edge15_Node000001_Node000016"><a xlink:title=" ">
<path fill="none" stroke="#63b8ff" d="M1414.62,-66.05C1375.29,-55.9 1311.4,-39.4 1268.02,-28.2"/>
<polygon fill="#63b8ff" stroke="#63b8ff" points="1268.94,-24.82 1258.38,-25.71 1267.19,-31.6 1268.94,-24.82"/>
</a>
</g>
</g>
<!-- Node17 -->
<g id="Node000017" class="node">
<title>Node17</title>
<g id="a_Node000017"><a xlink:href="_solver_8hxx.html" target="_top" xlink:title=" ">
<polygon fill="white" stroke="#666666" points="1428.5,-24.88 1327,-24.88 1327,-5.63 1428.5,-5.63 1428.5,-24.88"/>
<text text-anchor="middle" x="1377.75" y="-11.38" font-family="Helvetica,sans-Serif" font-size="10.00">Optimist/Solver.hxx</text>
</a>
</g>
</g>
<!-- Node1&#45;&gt;Node17 -->
<g id="edge16_Node000001_Node000017" class="edge">
<title>Node1&#45;&gt;Node17</title>
<g id="a_edge16_Node000001_Node000017"><a xlink:title=" ">
<path fill="none" stroke="#63b8ff" d="M1438.81,-66.18C1427.93,-57.28 1410.96,-43.41 1397.67,-32.54"/>
<polygon fill="#63b8ff" stroke="#63b8ff" points="1399.92,-29.85 1389.96,-26.23 1395.49,-35.27 1399.92,-29.85"/>
</a>
</g>
</g>
<!-- Node18 -->
<g id="Node000018" class="node">
<title>Node18</title>
<g id="a_Node000018"><a xlink:href="_scalar_root_finder_8hxx.html" target="_top" xlink:title=" ">
<polygon fill="white" stroke="#666666" points="1596.5,-24.88 1447,-24.88 1447,-5.63 1596.5,-5.63 1596.5,-24.88"/>
<text text-anchor="middle" x="1521.75" y="-11.38" font-family="Helvetica,sans-Serif" font-size="10.00">Optimist/ScalarRootFinder.hxx</text>
</a>
</g>
</g>
<!-- Node1&#45;&gt;Node18 -->
<g id="edge17_Node000001_Node000018" class="edge">
<title>Node1&#45;&gt;Node18</title>
<g id="a_edge17_Node000001_Node000018"><a xlink:title=" ">
<path fill="none" stroke="#63b8ff" d="M1460.69,-66.18C1471.57,-57.28 1488.54,-43.41 1501.83,-32.54"/>
<polygon fill="#63b8ff" stroke="#63b8ff" points="1504.01,-35.27 1509.54,-26.23 1499.58,-29.85 1504.01,-35.27"/>
</a>
</g>
</g>
<!-- Node19 -->
<g id="Node000019" class="node">
<title>Node19</title>
<g id="a_Node000019"><a xlink:href="_bracketing_8hxx.html" target="_top" xlink:title=" ">
<polygon fill="white" stroke="#666666" points="1746.5,-30.5 1615,-30.5 1615,0 1746.5,0 1746.5,-30.5"/>
<text text-anchor="start" x="1623" y="-17" font-family="Helvetica,sans-Serif" font-size="10.00">Optimist/ScalarRootFinder</text>
<text text-anchor="middle" x="1680.75" y="-5.75" font-family="Helvetica,sans-Serif" font-size="10.00">/Bracketing.hxx</text>
</a>
</g>
</g>
<!-- Node1&#45;&gt;Node19 -->
<g id="edge18_Node000001_Node000019" class="edge">
<title>Node1&#45;&gt;Node19</title>
<g id="a_edge18_Node000001_Node000019"><a xlink:title=" ">
<path fill="none" stroke="#63b8ff" d="M1485.34,-66.05C1519.03,-57.47 1570.51,-44.35 1612.18,-33.73"/>
<polygon fill="#63b8ff" stroke="#63b8ff" points="1612.8,-37.18 1621.63,-31.32 1611.07,-30.4 1612.8,-37.18"/>
</a>
</g>
</g>
<!-- Node20 -->
<g id="Node000020" class="node">
<title>Node20</title>
<g id="a_Node000020"><a xlink:href="_algo748_8hxx.html" target="_top" xlink:title=" ">
<polygon fill="white" stroke="#666666" points="1896.5,-30.5 1765,-30.5 1765,0 1896.5,0 1896.5,-30.5"/>
<text text-anchor="start" x="1773" y="-17" font-family="Helvetica,sans-Serif" font-size="10.00">Optimist/ScalarRootFinder</text>
<text text-anchor="middle" x="1830.75" y="-5.75" font-family="Helvetica,sans-Serif" font-size="10.00">/Algo748.hxx</text>
</a>
</g>
</g>
<!-- Node1&#45;&gt;Node20 -->
<g id="edge19_Node000001_Node000020" class="edge">
<title>Node1&#45;&gt;Node20</title>
<g id="a_edge19_Node000001_Node000020"><a xlink:title=" ">
<path fill="none" stroke="#63b8ff" d="M1500.21,-68.44C1558.64,-60.55 1658.07,-46.67 1753.24,-30.88"/>
<polygon fill="#63b8ff" stroke="#63b8ff" points="1753.74,-34.34 1763.03,-29.24 1752.59,-27.44 1753.74,-34.34"/>
</a>
</g>
</g>
<!-- Node21 -->
<g id="Node000021" class="node">
<title>Node21</title>
<g id="a_Node000021"><a xlink:href="_chandrupatla_8hxx.html" target="_top" xlink:title=" ">
<polygon fill="white" stroke="#666666" points="2046.5,-30.5 1915,-30.5 1915,0 2046.5,0 2046.5,-30.5"/>
<text text-anchor="start" x="1923" y="-17" font-family="Helvetica,sans-Serif" font-size="10.00">Optimist/ScalarRootFinder</text>
<text text-anchor="middle" x="1980.75" y="-5.75" font-family="Helvetica,sans-Serif" font-size="10.00">/Chandrupatla.hxx</text>
</a>
</g>
</g>
<!-- Node1&#45;&gt;Node21 -->
<g id="edge20_Node000001_Node000021" class="edge">
<title>Node1&#45;&gt;Node21</title>
<g id="a_edge20_Node000001_Node000021"><a xlink:title=" ">
<path fill="none" stroke="#63b8ff" d="M1500.2,-71.68C1582.5,-65.74 1750.97,-52.22 1903.59,-30.72"/>
<polygon fill="#63b8ff" stroke="#63b8ff" points="1903.65,-34.25 1913.05,-29.38 1902.66,-27.32 1903.65,-34.25"/>
</a>
</g>
</g>
<!-- Node22 -->
<g id="Node000022" class="node">
<title>Node22</title>
<g id="a_Node000022"><a xlink:href="_chebyshev_8hxx.html" target="_top" xlink:title=" ">
<polygon fill="white" stroke="#666666" points="2196.5,-30.5 2065,-30.5 2065,0 2196.5,0 2196.5,-30.5"/>
<text text-anchor="start" x="2073" y="-17" font-family="Helvetica,sans-Serif" font-size="10.00">Optimist/ScalarRootFinder</text>
<text text-anchor="middle" x="2130.75" y="-5.75" font-family="Helvetica,sans-Serif" font-size="10.00">/Chebyshev.hxx</text>
</a>
</g>
</g>
<!-- Node1&#45;&gt;Node22 -->
<g id="edge21_Node000001_Node000022" class="edge">
<title>Node1&#45;&gt;Node22</title>
<g id="a_edge21_Node000001_Node000022"><a xlink:title=" ">
<path fill="none" stroke="#63b8ff" d="M1500.23,-73.36C1602.6,-69.36 1842.13,-57.85 2053.26,-30.72"/>
<polygon fill="#63b8ff" stroke="#63b8ff" points="2053.6,-34.21 2063.06,-29.45 2052.69,-27.27 2053.6,-34.21"/>
</a>
</g>
</g>
<!-- Node23 -->
<g id="Node000023" class="node">
<title>Node23</title>
<g id="a_Node000023"><a xlink:href="_halley_8hxx.html" target="_top" xlink:title=" ">
<polygon fill="white" stroke="#666666" points="2346.5,-30.5 2215,-30.5 2215,0 2346.5,0 2346.5,-30.5"/>
<text text-anchor="start" x="2223" y="-17" font-family="Helvetica,sans-Serif" font-size="10.00">Optimist/ScalarRootFinder</text>
<text text-anchor="middle" x="2280.75" y="-5.75" font-family="Helvetica,sans-Serif" font-size="10.00">/Halley.hxx</text>
</a>
</g>
</g>
<!-- Node1&#45;&gt;Node23 -->
<g id="edge22_Node000001_Node000023" class="edge">
<title>Node1&#45;&gt;Node23</title>
<g id="a_edge22_Node000001_Node000023"><a xlink:title=" ">
<path fill="none" stroke="#63b8ff" d="M1499.93,-74.39C1619.83,-72.17 1932.5,-63.54 2203.33,-30.68"/>
<polygon fill="#63b8ff" stroke="#63b8ff" points="2203.57,-34.18 2213.07,-29.49 2202.72,-27.23 2203.57,-34.18"/>
</a>
</g>
</g>
<!-- Node24 -->
<g id="Node000024" class="node">
<title>Node24</title>
<g id="a_Node000024"><a xlink:href="_scalar_root_finder_2_newton_8hxx.html" target="_top" xlink:title=" ">
<polygon fill="white" stroke="#666666" points="2496.5,-30.5 2365,-30.5 2365,0 2496.5,0 2496.5,-30.5"/>
<text text-anchor="start" x="2373" y="-17" font-family="Helvetica,sans-Serif" font-size="10.00">Optimist/ScalarRootFinder</text>
<text text-anchor="middle" x="2430.75" y="-5.75" font-family="Helvetica,sans-Serif" font-size="10.00">/Newton.hxx</text>
</a>
</g>
</g>
<!-- Node1&#45;&gt;Node24 -->
<g id="edge23_Node000001_Node000024" class="edge">
<title>Node1&#45;&gt;Node24</title>
<g id="a_edge23_Node000001_Node000024"><a xlink:title=" ">
<path fill="none" stroke="#63b8ff" d="M1500.04,-75.09C1636.03,-74.46 2022.45,-69.25 2353.32,-30.67"/>
<polygon fill="#63b8ff" stroke="#63b8ff" points="2353.55,-34.16 2363.07,-29.52 2352.73,-27.21 2353.55,-34.16"/>
</a>
</g>
</g>
<!-- Node25 -->
<g id="Node000025" class="node">
<title>Node25</title>
<g id="a_Node000025"><a xlink:href="_varona_8hxx.html" target="_top" xlink:title=" ">
<polygon fill="white" stroke="#666666" points="2646.5,-30.5 2515,-30.5 2515,0 2646.5,0 2646.5,-30.5"/>
<text text-anchor="start" x="2523" y="-17" font-family="Helvetica,sans-Serif" font-size="10.00">Optimist/ScalarRootFinder</text>
<text text-anchor="middle" x="2580.75" y="-5.75" font-family="Helvetica,sans-Serif" font-size="10.00">/Varona.hxx</text>
</a>
</g>
</g>
<!-- Node1&#45;&gt;Node25 -->
<g id="edge24_Node000001_Node000025" class="edge">
<title>Node1&#45;&gt;Node25</title>
<g id="a_edge24_Node000001_Node000025"><a xlink:title=" ">
<path fill="none" stroke="#63b8ff" d="M1500.24,-75.59C1651.15,-76.43 2112.01,-74.98 2503.31,-30.65"/>
<polygon fill="#63b8ff" stroke="#63b8ff" points="2503.54,-34.15 2513.07,-29.54 2502.74,-27.2 2503.54,-34.15"/>
</a>
</g>
</g>
<!-- Node26 -->
<g id="Node000026" class="node">
<title>Node26</title>
<g id="a_Node000026"><a xlink:href="_root_finder_8hxx.html" target="_top" xlink:title=" ">
<polygon fill="white" stroke="#666666" points="2786.62,-24.88 2664.88,-24.88 2664.88,-5.63 2786.62,-5.63 2786.62,-24.88"/>
<text text-anchor="middle" x="2725.75" y="-11.38" font-family="Helvetica,sans-Serif" font-size="10.00">Optimist/RootFinder.hxx</text>
</a>
</g>
</g>
<!-- Node1&#45;&gt;Node26 -->
<g id="edge25_Node000001_Node000026" class="edge">
<title>Node1&#45;&gt;Node26</title>
<g id="a_edge25_Node000001_Node000026"><a xlink:title=" ">
<path fill="none" stroke="#63b8ff" d="M1500,-74.36C1698.25,-71.19 2426.52,-57.89 2655.75,-30.5 2662.3,-29.72 2669.15,-28.65 2675.89,-27.44"/>
<polygon fill="#63b8ff" stroke="#63b8ff" points="2676.4,-30.9 2685.57,-25.59 2675.09,-24.03 2676.4,-30.9"/>
</a>
</g>
</g>
<!-- Node27 -->
<g id="Node000027" class="node">
<title>Node27</title>
<g id="a_Node000027"><a xlink:href="_root_finder_2_newton_8hxx.html" target="_top" xlink:title=" ">
<polygon fill="white" stroke="#666666" points="2908.62,-30.5 2804.88,-30.5 2804.88,0 2908.62,0 2908.62,-30.5"/>
<text text-anchor="start" x="2812.88" y="-17" font-family="Helvetica,sans-Serif" font-size="10.00">Optimist/RootFinder</text>
<text text-anchor="middle" x="2856.75" y="-5.75" font-family="Helvetica,sans-Serif" font-size="10.00">/Newton.hxx</text>
</a>
</g>
</g>
<!-- Node1&#45;&gt;Node27 -->
<g id="edge26_Node000001_Node000027" class="edge">
<title>Node1&#45;&gt;Node27</title>
<g id="a_edge26_Node000001_Node000027"><a xlink:title=" ">
<path fill="none" stroke="#63b8ff" d="M1499.98,-74.78C1709.51,-73.14 2515.56,-64.77 2793.39,-30.57"/>
<polygon fill="#63b8ff" stroke="#63b8ff" points="2793.65,-34.07 2803.13,-29.33 2792.77,-27.12 2793.65,-34.07"/>
</a>
</g>
</g>
<!-- Node28 -->
<g id="Node000028" class="node">
<title>Node28</title>
<g id="a_Node000028"><a xlink:href="_quasi_newton_8hxx.html" target="_top" xlink:title=" ">
<polygon fill="white" stroke="#666666" points="3030.62,-30.5 2926.88,-30.5 2926.88,0 3030.62,0 3030.62,-30.5"/>
<text text-anchor="start" x="2934.88" y="-17" font-family="Helvetica,sans-Serif" font-size="10.00">Optimist/RootFinder</text>
<text text-anchor="middle" x="2978.75" y="-5.75" font-family="Helvetica,sans-Serif" font-size="10.00">/QuasiNewton.hxx</text>
</a>
</g>
</g>
<!-- Node1&#45;&gt;Node28 -->
<g id="edge27_Node000001_Node000028" class="edge">
<title>Node1&#45;&gt;Node28</title>
<g id="a_edge27_Node000001_Node000028"><a xlink:title=" ">
<path fill="none" stroke="#63b8ff" d="M1499.93,-74.94C1721.19,-73.92 2611.73,-67.65 2915.22,-30.59"/>
<polygon fill="#63b8ff" stroke="#63b8ff" points="2915.65,-34.06 2925.13,-29.33 2914.77,-27.12 2915.65,-34.06"/>
</a>
</g>
</g>
<!-- Node29 -->
<g id="Node000029" class="node">
<title>Node29</title>
<g id="a_Node000029"><a xlink:href="_broyden_8hxx.html" target="_top" xlink:title=" ">
<polygon fill="white" stroke="#666666" points="3152.62,-30.5 3048.88,-30.5 3048.88,0 3152.62,0 3152.62,-30.5"/>
<text text-anchor="start" x="3056.88" y="-17" font-family="Helvetica,sans-Serif" font-size="10.00">Optimist/RootFinder</text>
<text text-anchor="middle" x="3100.75" y="-5.75" font-family="Helvetica,sans-Serif" font-size="10.00">/Broyden.hxx</text>
</a>
</g>
</g>
<!-- Node1&#45;&gt;Node29 -->
<g id="edge28_Node000001_Node000029" class="edge">
<title>Node1&#45;&gt;Node29</title>
<g id="a_edge28_Node000001_Node000029"><a xlink:title=" ">
<path fill="none" stroke="#63b8ff" d="M1500.1,-75.08C1733.14,-74.64 2709.21,-70.51 3037.69,-30.53"/>
<polygon fill="#63b8ff" stroke="#63b8ff" points="3037.65,-34.06 3047.13,-29.34 3036.77,-27.12 3037.65,-34.06"/>
</a>
</g>
</g>
<!-- Node30 -->
<g id="Node000030" class="node">
<title>Node30</title>
<g id="a_Node000030"><a xlink:href="_greenstadt_8hxx.html" target="_top" xlink:title=" ">
<polygon fill="white" stroke="#666666" points="3274.62,-30.5 3170.88,-30.5 3170.88,0 3274.62,0 3274.62,-30.5"/>
<text text-anchor="start" x="3178.88" y="-17" font-family="Helvetica,sans-Serif" font-size="10.00">Optimist/RootFinder</text>
<text text-anchor="middle" x="3222.75" y="-5.75" font-family="Helvetica,sans-Serif" font-size="10.00">/Greenstadt.hxx</text>
</a>
</g>
</g>
<!-- Node1&#45;&gt;Node30 -->
<g id="edge29_Node000001_Node000030" class="edge">
<title>Node1&#45;&gt;Node30</title>
<g id="a_edge29_Node000001_Node000030"><a xlink:title=" ">
<path fill="none" stroke="#63b8ff" d="M1500.22,-75.19C1744.35,-75.32 2805.01,-73.4 3159.34,-30.57"/>
<polygon fill="#63b8ff" stroke="#63b8ff" points="3159.64,-34.06 3169.13,-29.35 3158.78,-27.11 3159.64,-34.06"/>
</a>
</g>
</g>
<!-- Node31 -->
<g id="Node000031" class="node">
<title>Node31</title>
<g id="a_Node000031"><a xlink:href="_optimizer_8hxx.html" target="_top" xlink:title=" ">
<polygon fill="white" stroke="#666666" points="3408.62,-24.88 3292.88,-24.88 3292.88,-5.63 3408.62,-5.63 3408.62,-24.88"/>
<text text-anchor="middle" x="3350.75" y="-11.38" font-family="Helvetica,sans-Serif" font-size="10.00">Optimist/Optimizer.hxx</text>
</a>
</g>
</g>
<!-- Node1&#45;&gt;Node31 -->
<g id="edge30_Node000001_Node000031" class="edge">
<title>Node1&#45;&gt;Node31</title>
<g id="a_edge30_Node000001_Node000031"><a xlink:title=" ">
<path fill="none" stroke="#63b8ff" d="M1499.92,-75.16C1756.54,-75.15 2924.13,-72.75 3283.75,-30.5 3289.95,-29.77 3296.43,-28.74 3302.8,-27.57"/>
<polygon fill="#63b8ff" stroke="#63b8ff" points="3303.48,-31 3312.61,-25.62 3302.12,-24.13 3303.48,-31"/>
</a>
</g>
</g>
<!-- Node32 -->
<g id="Node000032" class="node">
<title>Node32</title>
<g id="a_Node000032"><a xlink:href="_nelder_mead_8hxx.html" target="_top" xlink:title=" ">
<polygon fill="white" stroke="#666666" points="3524.62,-30.5 3426.88,-30.5 3426.88,0 3524.62,0 3524.62,-30.5"/>
<text text-anchor="start" x="3434.88" y="-17" font-family="Helvetica,sans-Serif" font-size="10.00">Optimist/Optimizer</text>
<text text-anchor="middle" x="3475.75" y="-5.75" font-family="Helvetica,sans-Serif" font-size="10.00">/NelderMead.hxx</text>
</a>
</g>
</g>
<!-- Node1&#45;&gt;Node32 -->
<g id="edge31_Node000001_Node000032" class="edge">
<title>Node1&#45;&gt;Node32</title>
<g id="a_edge31_Node000001_Node000032"><a xlink:title=" ">
<path fill="none" stroke="#63b8ff" d="M1500.03,-74.64C1783.29,-71.83 3175.52,-56.85 3415.38,-30.46"/>
<polygon fill="#63b8ff" stroke="#63b8ff" points="3415.52,-33.97 3425.03,-29.3 3414.68,-27.02 3415.52,-33.97"/>
</a>
</g>
</g>
<!-- Node33 -->
<g id="Node000033" class="node">
<title>Node33</title>
<g id="a_Node000033"><a xlink:href="_scalar_optimizer_8hxx.html" target="_top" xlink:title=" ">
<polygon fill="white" stroke="#666666" points="3686.5,-24.88 3543,-24.88 3543,-5.63 3686.5,-5.63 3686.5,-24.88"/>
<text text-anchor="middle" x="3614.75" y="-11.38" font-family="Helvetica,sans-Serif" font-size="10.00">Optimist/ScalarOptimizer.hxx</text>
</a>
</g>
</g>
<!-- Node1&#45;&gt;Node33 -->
<g id="edge32_Node000001_Node000033" class="edge">
<title>Node1&#45;&gt;Node33</title>
<g id="a_edge32_Node000001_Node000033"><a xlink:title=" ">
<path fill="none" stroke="#63b8ff" d="M1500.19,-75.09C1777.71,-74.74 3121.14,-70.97 3533.75,-30.5 3541.96,-29.7 3550.58,-28.53 3559.02,-27.2"/>
<polygon fill="#63b8ff" stroke="#63b8ff" points="3559.57,-30.66 3568.86,-25.57 3558.42,-23.75 3559.57,-30.66"/>
</a>
</g>
</g>
</g>
</svg>
