<?xml version="1.0" encoding="UTF-8" standalone="no"?>
<!DOCTYPE svg PUBLIC "-//W3C//DTD SVG 1.1//EN"
 "http://www.w3.org/Graphics/SVG/1.1/DTD/svg11.dtd">
<!-- Generated by graphviz version 12.2.1 (20241206.2353)
 -->
<!-- Title: include/Optimist.hh Pages: 1 -->
<svg width="1950pt" height="94pt"
 viewBox="0.00 0.00 1949.75 93.75" xmlns="http://www.w3.org/2000/svg" xmlns:xlink="http://www.w3.org/1999/xlink">
<g id="graph0" class="graph" transform="scale(1 1) rotate(0) translate(4 89.75)">
<title>include/Optimist.hh</title>
<!-- Node1 -->
<g id="Node000001" class="node">
<title>Node1</title>
<g id="a_Node000001"><a xlink:title=" ">
<polygon fill="#999999" stroke="#666666" points="696.75,-85.75 596.75,-85.75 596.75,-66.5 696.75,-66.5 696.75,-85.75"/>
<text text-anchor="middle" x="646.75" y="-72.25" font-family="Helvetica,sans-Serif" font-size="10.00">include/Optimist.hh</text>
</a>
</g>
</g>
<!-- Node2 -->
<g id="Node000002" class="node">
<title>Node2</title>
<g id="a_Node000002"><a xlink:title=" ">
<polygon fill="#e0e0e0" stroke="#999999" points="53.5,-24.88 0,-24.88 0,-5.63 53.5,-5.63 53.5,-24.88"/>
<text text-anchor="middle" x="26.75" y="-11.38" font-family="Helvetica,sans-Serif" font-size="10.00">iostream</text>
</a>
</g>
</g>
<!-- Node1&#45;&gt;Node2 -->
<g id="edge1_Node000001_Node000002" class="edge">
<title>Node1&#45;&gt;Node2</title>
<g id="a_edge1_Node000001_Node000002"><a xlink:title=" ">
<path fill="none" stroke="#63b8ff" d="M596.31,-73.22C473.89,-68.27 163.69,-53.77 62.75,-30.5 60.99,-30.09 59.2,-29.62 57.41,-29.08"/>
<polygon fill="#63b8ff" stroke="#63b8ff" points="58.62,-25.8 48.02,-25.83 56.32,-32.41 58.62,-25.8"/>
</a>
</g>
</g>
<!-- Node3 -->
<g id="Node000003" class="node">
<title>Node3</title>
<g id="a_Node000003"><a xlink:title=" ">
<polygon fill="#e0e0e0" stroke="#999999" points="121.62,-24.88 71.88,-24.88 71.88,-5.63 121.62,-5.63 121.62,-24.88"/>
<text text-anchor="middle" x="96.75" y="-11.38" font-family="Helvetica,sans-Serif" font-size="10.00">iomanip</text>
</a>
</g>
</g>
<!-- Node1&#45;&gt;Node3 -->
<g id="edge2_Node000001_Node000003" class="edge">
<title>Node1&#45;&gt;Node3</title>
<g id="a_edge2_Node000001_Node000003"><a xlink:title=" ">
<path fill="none" stroke="#63b8ff" d="M596.46,-75.9C503.2,-76.22 297.72,-71.64 130.75,-30.5 129.16,-30.11 127.54,-29.65 125.93,-29.15"/>
<polygon fill="#63b8ff" stroke="#63b8ff" points="127.47,-25.99 116.88,-25.83 125.06,-32.56 127.47,-25.99"/>
</a>
</g>
</g>
<!-- Node4 -->
<g id="Node000004" class="node">
<title>Node4</title>
<g id="a_Node000004"><a xlink:title=" ">
<polygon fill="#e0e0e0" stroke="#999999" points="179.75,-24.88 139.75,-24.88 139.75,-5.63 179.75,-5.63 179.75,-24.88"/>
<text text-anchor="middle" x="159.75" y="-11.38" font-family="Helvetica,sans-Serif" font-size="10.00">string</text>
</a>
</g>
</g>
<!-- Node1&#45;&gt;Node4 -->
<g id="edge3_Node000001_Node000004" class="edge">
<title>Node1&#45;&gt;Node4</title>
<g id="a_edge3_Node000001_Node000004"><a xlink:title=" ">
<path fill="none" stroke="#63b8ff" d="M596.53,-76.05C511.07,-76.34 332.65,-71.4 188.75,-30.5 187.78,-30.22 186.81,-29.92 185.83,-29.59"/>
<polygon fill="#63b8ff" stroke="#63b8ff" points="187.57,-26.52 176.99,-25.89 184.87,-32.98 187.57,-26.52"/>
</a>
</g>
</g>
<!-- Node5 -->
<g id="Node000005" class="node">
<title>Node5</title>
<g id="a_Node000005"><a xlink:title=" ">
<polygon fill="#e0e0e0" stroke="#999999" points="241.25,-24.88 198.25,-24.88 198.25,-5.63 241.25,-5.63 241.25,-24.88"/>
<text text-anchor="middle" x="219.75" y="-11.38" font-family="Helvetica,sans-Serif" font-size="10.00">cmath</text>
</a>
</g>
</g>
<!-- Node1&#45;&gt;Node5 -->
<g id="edge4_Node000001_Node000005" class="edge">
<title>Node1&#45;&gt;Node5</title>
<g id="a_edge4_Node000001_Node000005"><a xlink:title=" ">
<path fill="none" stroke="#63b8ff" d="M596.53,-74.76C520.18,-73.04 370.98,-65.06 249.75,-30.5 248.76,-30.22 247.75,-29.9 246.75,-29.56"/>
<polygon fill="#63b8ff" stroke="#63b8ff" points="248.17,-26.36 237.59,-25.83 245.52,-32.84 248.17,-26.36"/>
</a>
</g>
</g>
<!-- Node6 -->
<g id="Node000006" class="node">
<title>Node6</title>
<g id="a_Node000006"><a xlink:title=" ">
<polygon fill="#e0e0e0" stroke="#999999" points="302.25,-24.88 259.25,-24.88 259.25,-5.63 302.25,-5.63 302.25,-24.88"/>
<text text-anchor="middle" x="280.75" y="-11.38" font-family="Helvetica,sans-Serif" font-size="10.00">vector</text>
</a>
</g>
</g>
<!-- Node1&#45;&gt;Node6 -->
<g id="edge5_Node000001_Node000006" class="edge">
<title>Node1&#45;&gt;Node6</title>
<g id="a_edge5_Node000001_Node000006"><a xlink:title=" ">
<path fill="none" stroke="#63b8ff" d="M596.41,-73.09C530.02,-69.35 410.1,-58.96 311.75,-30.5 310.75,-30.21 309.75,-29.9 308.74,-29.56"/>
<polygon fill="#63b8ff" stroke="#63b8ff" points="310.1,-26.33 299.51,-25.89 307.51,-32.84 310.1,-26.33"/>
</a>
</g>
</g>
<!-- Node7 -->
<g id="Node000007" class="node">
<title>Node7</title>
<g id="a_Node000007"><a xlink:title=" ">
<polygon fill="#e0e0e0" stroke="#999999" points="355.12,-24.88 320.38,-24.88 320.38,-5.63 355.12,-5.63 355.12,-24.88"/>
<text text-anchor="middle" x="337.75" y="-11.38" font-family="Helvetica,sans-Serif" font-size="10.00">map</text>
</a>
</g>
</g>
<!-- Node1&#45;&gt;Node7 -->
<g id="edge6_Node000001_Node000007" class="edge">
<title>Node1&#45;&gt;Node7</title>
<g id="a_edge6_Node000001_Node000007"><a xlink:title=" ">
<path fill="none" stroke="#63b8ff" d="M596.42,-72.42C538.84,-68.14 442.36,-57.33 363.75,-30.5 363.38,-30.38 363.02,-30.25 362.65,-30.11"/>
<polygon fill="#63b8ff" stroke="#63b8ff" points="364.12,-26.93 353.57,-25.94 361.2,-33.29 364.12,-26.93"/>
</a>
</g>
</g>
<!-- Node8 -->
<g id="Node000008" class="node">
<title>Node8</title>
<g id="a_Node000008"><a xlink:title=" ">
<polygon fill="#e0e0e0" stroke="#999999" points="424.38,-24.88 373.12,-24.88 373.12,-5.63 424.38,-5.63 424.38,-24.88"/>
<text text-anchor="middle" x="398.75" y="-11.38" font-family="Helvetica,sans-Serif" font-size="10.00">memory</text>
</a>
</g>
</g>
<!-- Node1&#45;&gt;Node8 -->
<g id="edge7_Node000001_Node000008" class="edge">
<title>Node1&#45;&gt;Node8</title>
<g id="a_edge7_Node000001_Node000008"><a xlink:title=" ">
<path fill="none" stroke="#63b8ff" d="M596.33,-67.42C552.53,-60.06 487.66,-47.56 432.75,-30.5 431.59,-30.14 430.41,-29.75 429.23,-29.35"/>
<polygon fill="#63b8ff" stroke="#63b8ff" points="430.66,-26.15 420.07,-25.87 428.18,-32.69 430.66,-26.15"/>
</a>
</g>
</g>
<!-- Node9 -->
<g id="Node000009" class="node">
<title>Node9</title>
<g id="a_Node000009"><a xlink:title=" ">
<polygon fill="#e0e0e0" stroke="#999999" points="487.38,-24.88 442.12,-24.88 442.12,-5.63 487.38,-5.63 487.38,-24.88"/>
<text text-anchor="middle" x="464.75" y="-11.38" font-family="Helvetica,sans-Serif" font-size="10.00">chrono</text>
</a>
</g>
</g>
<!-- Node1&#45;&gt;Node9 -->
<g id="edge8_Node000001_Node000009" class="edge">
<title>Node1&#45;&gt;Node9</title>
<g id="a_edge8_Node000001_Node000009"><a xlink:title=" ">
<path fill="none" stroke="#63b8ff" d="M611.47,-66.02C580.8,-57.78 535.36,-44.77 496.75,-30.5 495.96,-30.21 495.16,-29.9 494.35,-29.59"/>
<polygon fill="#63b8ff" stroke="#63b8ff" points="495.85,-26.43 485.27,-25.83 493.17,-32.89 495.85,-26.43"/>
</a>
</g>
</g>
<!-- Node10 -->
<g id="Node000010" class="node">
<title>Node10</title>
<g id="a_Node000010"><a xlink:title=" ">
<polygon fill="#e0e0e0" stroke="#999999" points="577.88,-24.88 505.62,-24.88 505.62,-5.63 577.88,-5.63 577.88,-24.88"/>
<text text-anchor="middle" x="541.75" y="-11.38" font-family="Helvetica,sans-Serif" font-size="10.00">Eigen/Dense</text>
</a>
</g>
</g>
<!-- Node1&#45;&gt;Node10 -->
<g id="edge9_Node000001_Node000010" class="edge">
<title>Node1&#45;&gt;Node10</title>
<g id="a_edge9_Node000001_Node000010"><a xlink:title=" ">
<path fill="none" stroke="#63b8ff" d="M630.8,-66.18C614.07,-56.8 587.52,-41.91 567.75,-30.83"/>
<polygon fill="#63b8ff" stroke="#63b8ff" points="569.6,-27.85 559.17,-26.02 566.18,-33.96 569.6,-27.85"/>
</a>
</g>
</g>
<!-- Node11 -->
<g id="Node000011" class="node">
<title>Node11</title>
<g id="a_Node000011"><a xlink:href="_solver_8hxx.html" target="_top" xlink:title=" ">
<polygon fill="white" stroke="#666666" points="697.5,-24.88 596,-24.88 596,-5.63 697.5,-5.63 697.5,-24.88"/>
<text text-anchor="middle" x="646.75" y="-11.38" font-family="Helvetica,sans-Serif" font-size="10.00">Optimist/Solver.hxx</text>
</a>
</g>
</g>
<!-- Node1&#45;&gt;Node11 -->
<g id="edge10_Node000001_Node000011" class="edge">
<title>Node1&#45;&gt;Node11</title>
<g id="a_edge10_Node000001_Node000011"><a xlink:title=" ">
<path fill="none" stroke="#63b8ff" d="M646.75,-66.18C646.75,-58.4 646.75,-46.83 646.75,-36.78"/>
<polygon fill="#63b8ff" stroke="#63b8ff" points="650.25,-36.79 646.75,-26.79 643.25,-36.79 650.25,-36.79"/>
</a>
</g>
</g>
<!-- Node12 -->
<g id="Node000012" class="node">
<title>Node12</title>
<g id="a_Node000012"><a xlink:href="_scalar_root_finder_8hxx.html" target="_top" xlink:title=" ">
<polygon fill="white" stroke="#666666" points="865.5,-24.88 716,-24.88 716,-5.63 865.5,-5.63 865.5,-24.88"/>
<text text-anchor="middle" x="790.75" y="-11.38" font-family="Helvetica,sans-Serif" font-size="10.00">Optimist/ScalarRootFinder.hxx</text>
</a>
</g>
</g>
<!-- Node1&#45;&gt;Node12 -->
<g id="edge11_Node000001_Node000012" class="edge">
<title>Node1&#45;&gt;Node12</title>
<g id="a_edge11_Node000001_Node000012"><a xlink:title=" ">
<path fill="none" stroke="#63b8ff" d="M668.93,-66.05C692.79,-56.3 730.95,-40.7 758.2,-29.56"/>
<polygon fill="#63b8ff" stroke="#63b8ff" points="759.44,-32.83 767.38,-25.81 756.79,-26.35 759.44,-32.83"/>
</a>
</g>
</g>
<!-- Node13 -->
<g id="Node000013" class="node">
<title>Node13</title>
<g id="a_Node000013"><a xlink:href="_scalar_root_finder_2_newton_8hxx.html" target="_top" xlink:title=" ">
<polygon fill="white" stroke="#666666" points="1015.5,-30.5 884,-30.5 884,0 1015.5,0 1015.5,-30.5"/>
<text text-anchor="start" x="892" y="-17" font-family="Helvetica,sans-Serif" font-size="10.00">Optimist/ScalarRootFinder</text>
<text text-anchor="middle" x="949.75" y="-5.75" font-family="Helvetica,sans-Serif" font-size="10.00">/Newton.hxx</text>
</a>
</g>
</g>
<!-- Node1&#45;&gt;Node13 -->
<g id="edge12_Node000001_Node000013" class="edge">
<title>Node1&#45;&gt;Node13</title>
<g id="a_edge12_Node000001_Node000013"><a xlink:title=" ">
<path fill="none" stroke="#63b8ff" d="M693.43,-66.05C741.13,-56.79 816.02,-42.23 872.56,-31.25"/>
<polygon fill="#63b8ff" stroke="#63b8ff" points="872.98,-34.73 882.12,-29.39 871.64,-27.86 872.98,-34.73"/>
</a>
</g>
</g>
<!-- Node14 -->
<g id="Node000014" class="node">
<title>Node14</title>
<g id="a_Node000014"><a xlink:href="_root_finder_8hxx.html" target="_top" xlink:title=" ">
<polygon fill="white" stroke="#666666" points="1155.62,-24.88 1033.88,-24.88 1033.88,-5.63 1155.62,-5.63 1155.62,-24.88"/>
<text text-anchor="middle" x="1094.75" y="-11.38" font-family="Helvetica,sans-Serif" font-size="10.00">Optimist/RootFinder.hxx</text>
</a>
</g>
</g>
<!-- Node1&#45;&gt;Node14 -->
<g id="edge13_Node000001_Node000014" class="edge">
<title>Node1&#45;&gt;Node14</title>
<g id="a_edge13_Node000001_Node000014"><a xlink:title=" ">
<path fill="none" stroke="#63b8ff" d="M697.07,-70.53C769.69,-63.6 907.96,-49.25 1024.75,-30.5 1030.35,-29.6 1036.18,-28.57 1041.98,-27.48"/>
<polygon fill="#63b8ff" stroke="#63b8ff" points="1042.39,-30.97 1051.54,-25.62 1041.06,-24.09 1042.39,-30.97"/>
</a>
</g>
</g>
<!-- Node15 -->
<g id="Node000015" class="node">
<title>Node15</title>
<g id="a_Node000015"><a xlink:href="_root_finder_2_newton_8hxx.html" target="_top" xlink:title=" ">
<polygon fill="white" stroke="#666666" points="1277.62,-30.5 1173.88,-30.5 1173.88,0 1277.62,0 1277.62,-30.5"/>
<text text-anchor="start" x="1181.88" y="-17" font-family="Helvetica,sans-Serif" font-size="10.00">Optimist/RootFinder</text>
<text text-anchor="middle" x="1225.75" y="-5.75" font-family="Helvetica,sans-Serif" font-size="10.00">/Newton.hxx</text>
</a>
</g>
</g>
<!-- Node1&#45;&gt;Node15 -->
<g id="edge14_Node000001_Node000015" class="edge">
<title>Node1&#45;&gt;Node15</title>
<g id="a_edge14_Node000001_Node000015"><a xlink:title=" ">
<path fill="none" stroke="#63b8ff" d="M697.05,-73.19C787.99,-69.18 985.95,-58.06 1162.29,-30.73"/>
<polygon fill="#63b8ff" stroke="#63b8ff" points="1162.77,-34.2 1172.11,-29.19 1161.69,-27.28 1162.77,-34.2"/>
</a>
</g>
</g>
<!-- Node16 -->
<g id="Node000016" class="node">
<title>Node16</title>
<g id="a_Node000016"><a xlink:href="_broyden_8hxx.html" target="_top" xlink:title=" ">
<polygon fill="white" stroke="#666666" points="1399.62,-30.5 1295.88,-30.5 1295.88,0 1399.62,0 1399.62,-30.5"/>
<text text-anchor="start" x="1303.88" y="-17" font-family="Helvetica,sans-Serif" font-size="10.00">Optimist/RootFinder</text>
<text text-anchor="middle" x="1347.75" y="-5.75" font-family="Helvetica,sans-Serif" font-size="10.00">/Broyden.hxx</text>
</a>
</g>
</g>
<!-- Node1&#45;&gt;Node16 -->
<g id="edge15_Node000001_Node000016" class="edge">
<title>Node1&#45;&gt;Node16</title>
<g id="a_edge15_Node000001_Node000016"><a xlink:title=" ">
<path fill="none" stroke="#63b8ff" d="M697.25,-74.34C803.95,-72.1 1060.26,-63.61 1284.29,-30.7"/>
<polygon fill="#63b8ff" stroke="#63b8ff" points="1284.74,-34.17 1294.12,-29.23 1283.71,-27.24 1284.74,-34.17"/>
</a>
</g>
</g>
<!-- Node17 -->
<g id="Node000017" class="node">
<title>Node17</title>
<g id="a_Node000017"><a xlink:href="_greenstadt_8hxx.html" target="_top" xlink:title=" ">
<polygon fill="white" stroke="#666666" points="1521.62,-30.5 1417.88,-30.5 1417.88,0 1521.62,0 1521.62,-30.5"/>
<text text-anchor="start" x="1425.88" y="-17" font-family="Helvetica,sans-Serif" font-size="10.00">Optimist/RootFinder</text>
<text text-anchor="middle" x="1469.75" y="-5.75" font-family="Helvetica,sans-Serif" font-size="10.00">/Greenstadt.hxx</text>
</a>
</g>
</g>
<!-- Node1&#45;&gt;Node17 -->
<g id="edge16_Node000001_Node000017" class="edge">
<title>Node1&#45;&gt;Node17</title>
<g id="a_edge16_Node000001_Node000017"><a xlink:title=" ">
<path fill="none" stroke="#63b8ff" d="M696.98,-75.14C817.7,-74.55 1133.72,-69.25 1406.31,-30.67"/>
<polygon fill="#63b8ff" stroke="#63b8ff" points="1406.72,-34.15 1416.12,-29.26 1405.72,-27.22 1406.72,-34.15"/>
</a>
</g>
</g>
<!-- Node18 -->
<g id="Node000018" class="node">
<title>Node18</title>
<g id="a_Node000018"><a xlink:href="_optimizer_8hxx.html" target="_top" xlink:title=" ">
<polygon fill="white" stroke="#666666" points="1655.62,-24.88 1539.88,-24.88 1539.88,-5.63 1655.62,-5.63 1655.62,-24.88"/>
<text text-anchor="middle" x="1597.75" y="-11.38" font-family="Helvetica,sans-Serif" font-size="10.00">Optimist/Optimizer.hxx</text>
</a>
</g>
</g>
<!-- Node1&#45;&gt;Node18 -->
<g id="edge17_Node000001_Node000018" class="edge">
<title>Node1&#45;&gt;Node18</title>
<g id="a_edge17_Node000001_Node000018"><a xlink:title=" ">
<path fill="none" stroke="#63b8ff" d="M696.85,-75.38C832.03,-75.46 1215.34,-71.74 1530.75,-30.5 1536.72,-29.72 1542.95,-28.69 1549.1,-27.54"/>
<polygon fill="#63b8ff" stroke="#63b8ff" points="1549.41,-31.05 1558.53,-25.67 1548.04,-24.18 1549.41,-31.05"/>
</a>
</g>
</g>
<!-- Node19 -->
<g id="Node000019" class="node">
<title>Node19</title>
<g id="a_Node000019"><a xlink:href="_scalar_optimizer_8hxx.html" target="_top" xlink:title=" ">
<polygon fill="white" stroke="#666666" points="1817.5,-24.88 1674,-24.88 1674,-5.63 1817.5,-5.63 1817.5,-24.88"/>
<text text-anchor="middle" x="1745.75" y="-11.38" font-family="Helvetica,sans-Serif" font-size="10.00">Optimist/ScalarOptimizer.hxx</text>
</a>
</g>
</g>
<!-- Node1&#45;&gt;Node19 -->
<g id="edge18_Node000001_Node000019" class="edge">
<title>Node1&#45;&gt;Node19</title>
<g id="a_edge18_Node000001_Node000019"><a xlink:title=" ">
<path fill="none" stroke="#63b8ff" d="M697.24,-75.23C845.94,-75.06 1295.01,-70.95 1664.75,-30.5 1672.56,-29.65 1680.76,-28.5 1688.82,-27.23"/>
<polygon fill="#63b8ff" stroke="#63b8ff" points="1689.28,-30.7 1698.57,-25.61 1688.13,-23.79 1689.28,-30.7"/>
</a>
</g>
</g>
<!-- Node20 -->
<g id="Node000020" class="node">
<title>Node20</title>
<g id="a_Node000020"><a xlink:href="_factory_8hxx.html" target="_top" xlink:title=" ">
<polygon fill="white" stroke="#666666" points="1941.75,-24.88 1835.75,-24.88 1835.75,-5.63 1941.75,-5.63 1941.75,-24.88"/>
<text text-anchor="middle" x="1888.75" y="-11.38" font-family="Helvetica,sans-Serif" font-size="10.00">Optimist/Factory.hxx</text>
</a>
</g>
</g>
<!-- Node1&#45;&gt;Node20 -->
<g id="edge19_Node000001_Node000020" class="edge">
<title>Node1&#45;&gt;Node20</title>
<g id="a_edge19_Node000001_Node000020"><a xlink:title=" ">
<path fill="none" stroke="#63b8ff" d="M696.93,-74.48C892.42,-71.8 1603.2,-60.15 1826.75,-30.5 1832.15,-29.78 1837.76,-28.82 1843.31,-27.72"/>
<polygon fill="#63b8ff" stroke="#63b8ff" points="1844,-31.15 1853.05,-25.64 1842.54,-24.31 1844,-31.15"/>
</a>
</g>
</g>
</g>
</svg>
