<?xml version="1.0" encoding="UTF-8" standalone="no"?>
<!DOCTYPE svg PUBLIC "-//W3C//DTD SVG 1.1//EN"
 "http://www.w3.org/Graphics/SVG/1.1/DTD/svg11.dtd">
<!-- Generated by graphviz version 12.2.1 (20241206.2353)
 -->
<!-- Title: include/Optimist.hh Pages: 1 -->
<svg width="2795pt" height="94pt"
 viewBox="0.00 0.00 2794.50 93.75" xmlns="http://www.w3.org/2000/svg" xmlns:xlink="http://www.w3.org/1999/xlink">
<g id="graph0" class="graph" transform="scale(1 1) rotate(0) translate(4 89.75)">
<title>include/Optimist.hh</title>
<!-- Node1 -->
<g id="Node000001" class="node">
<title>Node1</title>
<g id="a_Node000001"><a xlink:title=" ">
<polygon fill="#999999" stroke="#666666" points="1033.75,-85.75 933.75,-85.75 933.75,-66.5 1033.75,-66.5 1033.75,-85.75"/>
<text text-anchor="middle" x="983.75" y="-72.25" font-family="Helvetica,sans-Serif" font-size="10.00">include/Optimist.hh</text>
</a>
</g>
</g>
<!-- Node2 -->
<g id="Node000002" class="node">
<title>Node2</title>
<g id="a_Node000002"><a xlink:title=" ">
<polygon fill="#e0e0e0" stroke="#999999" points="53.5,-24.88 0,-24.88 0,-5.63 53.5,-5.63 53.5,-24.88"/>
<text text-anchor="middle" x="26.75" y="-11.38" font-family="Helvetica,sans-Serif" font-size="10.00">iostream</text>
</a>
</g>
</g>
<!-- Node1&#45;&gt;Node2 -->
<g id="edge1_Node000001_Node000002" class="edge">
<title>Node1&#45;&gt;Node2</title>
<g id="a_edge1_Node000001_Node000002"><a xlink:title=" ">
<path fill="none" stroke="#63b8ff" d="M933.39,-74.85C766.25,-73.61 230.96,-66.82 62.75,-30.5 60.85,-30.09 58.93,-29.59 57,-29.03"/>
<polygon fill="#63b8ff" stroke="#63b8ff" points="58.22,-25.75 47.62,-25.79 55.93,-32.36 58.22,-25.75"/>
</a>
</g>
</g>
<!-- Node3 -->
<g id="Node000003" class="node">
<title>Node3</title>
<g id="a_Node000003"><a xlink:title=" ">
<polygon fill="#e0e0e0" stroke="#999999" points="100.15,-24.88 71.35,-24.88 71.35,-5.63 100.15,-5.63 100.15,-24.88"/>
<text text-anchor="middle" x="85.75" y="-11.38" font-family="Helvetica,sans-Serif" font-size="10.00">ios</text>
</a>
</g>
</g>
<!-- Node1&#45;&gt;Node3 -->
<g id="edge2_Node000001_Node000003" class="edge">
<title>Node1&#45;&gt;Node3</title>
<g id="a_edge2_Node000001_Node000003"><a xlink:title=" ">
<path fill="none" stroke="#63b8ff" d="M933.3,-74.02C758.81,-69.99 187.33,-55.05 108.75,-30.5 108.51,-30.43 108.28,-30.35 108.04,-30.27"/>
<polygon fill="#63b8ff" stroke="#63b8ff" points="109.73,-27.2 99.21,-25.97 106.67,-33.49 109.73,-27.2"/>
</a>
</g>
</g>
<!-- Node4 -->
<g id="Node000004" class="node">
<title>Node4</title>
<g id="a_Node000004"><a xlink:title=" ">
<polygon fill="#e0e0e0" stroke="#999999" points="167.62,-24.88 117.88,-24.88 117.88,-5.63 167.62,-5.63 167.62,-24.88"/>
<text text-anchor="middle" x="142.75" y="-11.38" font-family="Helvetica,sans-Serif" font-size="10.00">iomanip</text>
</a>
</g>
</g>
<!-- Node1&#45;&gt;Node4 -->
<g id="edge3_Node000001_Node000004" class="edge">
<title>Node1&#45;&gt;Node4</title>
<g id="a_edge3_Node000001_Node000004"><a xlink:title=" ">
<path fill="none" stroke="#63b8ff" d="M933.27,-74.58C780.01,-72.56 321.7,-63.84 176.75,-30.5 175.11,-30.12 173.45,-29.67 171.79,-29.17"/>
<polygon fill="#63b8ff" stroke="#63b8ff" points="173.09,-25.92 162.5,-25.79 170.7,-32.5 173.09,-25.92"/>
</a>
</g>
</g>
<!-- Node5 -->
<g id="Node000005" class="node">
<title>Node5</title>
<g id="a_Node000005"><a xlink:title=" ">
<polygon fill="#e0e0e0" stroke="#999999" points="225.75,-24.88 185.75,-24.88 185.75,-5.63 225.75,-5.63 225.75,-24.88"/>
<text text-anchor="middle" x="205.75" y="-11.38" font-family="Helvetica,sans-Serif" font-size="10.00">string</text>
</a>
</g>
</g>
<!-- Node1&#45;&gt;Node5 -->
<g id="edge4_Node000001_Node000005" class="edge">
<title>Node1&#45;&gt;Node5</title>
<g id="a_edge4_Node000001_Node000005"><a xlink:title=" ">
<path fill="none" stroke="#63b8ff" d="M933.48,-74.71C787.79,-73.1 367.23,-65.48 234.75,-30.5 233.75,-30.24 232.75,-29.94 231.75,-29.61"/>
<polygon fill="#63b8ff" stroke="#63b8ff" points="233.24,-26.44 222.66,-25.85 230.56,-32.91 233.24,-26.44"/>
</a>
</g>
</g>
<!-- Node6 -->
<g id="Node000006" class="node">
<title>Node6</title>
<g id="a_Node000006"><a xlink:title=" ">
<polygon fill="#e0e0e0" stroke="#999999" points="287.25,-24.88 244.25,-24.88 244.25,-5.63 287.25,-5.63 287.25,-24.88"/>
<text text-anchor="middle" x="265.75" y="-11.38" font-family="Helvetica,sans-Serif" font-size="10.00">cmath</text>
</a>
</g>
</g>
<!-- Node1&#45;&gt;Node6 -->
<g id="edge5_Node000001_Node000006" class="edge">
<title>Node1&#45;&gt;Node6</title>
<g id="a_edge5_Node000001_Node000006"><a xlink:title=" ">
<path fill="none" stroke="#63b8ff" d="M933.46,-74.32C796.03,-71.72 416.38,-61.83 295.75,-30.5 294.58,-30.2 293.4,-29.85 292.21,-29.46"/>
<polygon fill="#63b8ff" stroke="#63b8ff" points="293.82,-26.33 283.23,-25.82 291.19,-32.82 293.82,-26.33"/>
</a>
</g>
</g>
<!-- Node7 -->
<g id="Node000007" class="node">
<title>Node7</title>
<g id="a_Node000007"><a xlink:title=" ">
<polygon fill="#e0e0e0" stroke="#999999" points="348.25,-24.88 305.25,-24.88 305.25,-5.63 348.25,-5.63 348.25,-24.88"/>
<text text-anchor="middle" x="326.75" y="-11.38" font-family="Helvetica,sans-Serif" font-size="10.00">vector</text>
</a>
</g>
</g>
<!-- Node1&#45;&gt;Node7 -->
<g id="edge6_Node000001_Node000007" class="edge">
<title>Node1&#45;&gt;Node7</title>
<g id="a_edge6_Node000001_Node000007"><a xlink:title=" ">
<path fill="none" stroke="#63b8ff" d="M933.41,-73.86C804.74,-70.26 466.33,-58.34 357.75,-30.5 356.55,-30.19 355.33,-29.84 354.11,-29.45"/>
<polygon fill="#63b8ff" stroke="#63b8ff" points="355.4,-26.19 344.81,-25.78 352.83,-32.7 355.4,-26.19"/>
</a>
</g>
</g>
<!-- Node8 -->
<g id="Node000008" class="node">
<title>Node8</title>
<g id="a_Node000008"><a xlink:title=" ">
<polygon fill="#e0e0e0" stroke="#999999" points="401.12,-24.88 366.38,-24.88 366.38,-5.63 401.12,-5.63 401.12,-24.88"/>
<text text-anchor="middle" x="383.75" y="-11.38" font-family="Helvetica,sans-Serif" font-size="10.00">map</text>
</a>
</g>
</g>
<!-- Node1&#45;&gt;Node8 -->
<g id="edge7_Node000001_Node000008" class="edge">
<title>Node1&#45;&gt;Node8</title>
<g id="a_edge7_Node000001_Node000008"><a xlink:title=" ">
<path fill="none" stroke="#63b8ff" d="M933.53,-73.93C812.44,-70.61 507.22,-59.53 409.75,-30.5 409.1,-30.31 408.45,-30.1 407.8,-29.87"/>
<polygon fill="#63b8ff" stroke="#63b8ff" points="409.51,-26.8 398.96,-25.86 406.62,-33.18 409.51,-26.8"/>
</a>
</g>
</g>
<!-- Node9 -->
<g id="Node000009" class="node">
<title>Node9</title>
<g id="a_Node000009"><a xlink:title=" ">
<polygon fill="#e0e0e0" stroke="#999999" points="470.38,-24.88 419.12,-24.88 419.12,-5.63 470.38,-5.63 470.38,-24.88"/>
<text text-anchor="middle" x="444.75" y="-11.38" font-family="Helvetica,sans-Serif" font-size="10.00">memory</text>
</a>
</g>
</g>
<!-- Node1&#45;&gt;Node9 -->
<g id="edge8_Node000001_Node000009" class="edge">
<title>Node1&#45;&gt;Node9</title>
<g id="a_edge8_Node000001_Node000009"><a xlink:title=" ">
<path fill="none" stroke="#63b8ff" d="M933.59,-75.59C842.07,-75.36 642.39,-69.87 479.75,-30.5 478.12,-30.1 476.46,-29.65 474.8,-29.14"/>
<polygon fill="#63b8ff" stroke="#63b8ff" points="476.05,-25.87 465.46,-25.81 473.7,-32.46 476.05,-25.87"/>
</a>
</g>
</g>
<!-- Node10 -->
<g id="Node000010" class="node">
<title>Node10</title>
<g id="a_Node000010"><a xlink:title=" ">
<polygon fill="#e0e0e0" stroke="#999999" points="539,-24.88 488.5,-24.88 488.5,-5.63 539,-5.63 539,-24.88"/>
<text text-anchor="middle" x="513.75" y="-11.38" font-family="Helvetica,sans-Serif" font-size="10.00">numeric</text>
</a>
</g>
</g>
<!-- Node1&#45;&gt;Node10 -->
<g id="edge9_Node000001_Node000010" class="edge">
<title>Node1&#45;&gt;Node10</title>
<g id="a_edge9_Node000001_Node000010"><a xlink:title=" ">
<path fill="none" stroke="#63b8ff" d="M933.55,-74.76C851.56,-73.1 684.34,-65.3 547.75,-30.5 546.16,-30.1 544.55,-29.63 542.94,-29.12"/>
<polygon fill="#63b8ff" stroke="#63b8ff" points="544.48,-25.96 533.89,-25.78 542.06,-32.52 544.48,-25.96"/>
</a>
</g>
</g>
<!-- Node11 -->
<g id="Node000011" class="node">
<title>Node11</title>
<g id="a_Node000011"><a xlink:title=" ">
<polygon fill="#e0e0e0" stroke="#999999" points="612.62,-24.88 556.88,-24.88 556.88,-5.63 612.62,-5.63 612.62,-24.88"/>
<text text-anchor="middle" x="584.75" y="-11.38" font-family="Helvetica,sans-Serif" font-size="10.00">algorithm</text>
</a>
</g>
</g>
<!-- Node1&#45;&gt;Node11 -->
<g id="edge10_Node000001_Node000011" class="edge">
<title>Node1&#45;&gt;Node11</title>
<g id="a_edge10_Node000001_Node000011"><a xlink:title=" ">
<path fill="none" stroke="#63b8ff" d="M933.27,-72.81C862.65,-68.68 730.79,-57.78 621.75,-30.5 620,-30.06 618.21,-29.56 616.43,-29.02"/>
<polygon fill="#63b8ff" stroke="#63b8ff" points="617.62,-25.73 607.02,-25.79 615.35,-32.35 617.62,-25.73"/>
</a>
</g>
</g>
<!-- Node12 -->
<g id="Node000012" class="node">
<title>Node12</title>
<g id="a_Node000012"><a xlink:title=" ">
<polygon fill="#e0e0e0" stroke="#999999" points="702.88,-24.88 630.62,-24.88 630.62,-5.63 702.88,-5.63 702.88,-24.88"/>
<text text-anchor="middle" x="666.75" y="-11.38" font-family="Helvetica,sans-Serif" font-size="10.00">Eigen/Dense</text>
</a>
</g>
</g>
<!-- Node1&#45;&gt;Node12 -->
<g id="edge11_Node000001_Node000012" class="edge">
<title>Node1&#45;&gt;Node12</title>
<g id="a_edge11_Node000001_Node000012"><a xlink:title=" ">
<path fill="none" stroke="#63b8ff" d="M933.69,-69.11C878.79,-62.01 788.31,-48.8 711.75,-30.5 709.29,-29.91 706.77,-29.26 704.24,-28.56"/>
<polygon fill="#63b8ff" stroke="#63b8ff" points="705.26,-25.22 694.67,-25.76 703.28,-31.93 705.26,-25.22"/>
</a>
</g>
</g>
<!-- Node13 -->
<g id="Node000013" class="node">
<title>Node13</title>
<g id="a_Node000013"><a xlink:href="_function_8hxx.html" target="_top" xlink:title=" ">
<polygon fill="white" stroke="#666666" points="832.75,-24.88 720.75,-24.88 720.75,-5.63 832.75,-5.63 832.75,-24.88"/>
<text text-anchor="middle" x="776.75" y="-11.38" font-family="Helvetica,sans-Serif" font-size="10.00">Optimist/Function.hxx</text>
</a>
</g>
</g>
<!-- Node1&#45;&gt;Node13 -->
<g id="edge12_Node000001_Node000013" class="edge">
<title>Node1&#45;&gt;Node13</title>
<g id="a_edge12_Node000001_Node000013"><a xlink:title=" ">
<path fill="none" stroke="#63b8ff" d="M951.86,-66.05C916.38,-55.96 858.88,-39.61 819.51,-28.41"/>
<polygon fill="#63b8ff" stroke="#63b8ff" points="820.71,-25.11 810.13,-25.74 818.79,-31.85 820.71,-25.11"/>
</a>
</g>
</g>
<!-- Node14 -->
<g id="Node000014" class="node">
<title>Node14</title>
<g id="a_Node000014"><a xlink:href="_scalar_function_8hxx.html" target="_top" xlink:title=" ">
<polygon fill="white" stroke="#666666" points="974.75,-30.5 850.75,-30.5 850.75,0 974.75,0 974.75,-30.5"/>
<text text-anchor="start" x="858.75" y="-17" font-family="Helvetica,sans-Serif" font-size="10.00">Optimist/Function/Scalar</text>
<text text-anchor="middle" x="912.75" y="-5.75" font-family="Helvetica,sans-Serif" font-size="10.00">Function.hxx</text>
</a>
</g>
</g>
<!-- Node1&#45;&gt;Node14 -->
<g id="edge13_Node000001_Node000014" class="edge">
<title>Node1&#45;&gt;Node14</title>
<g id="a_edge13_Node000001_Node000014"><a xlink:title=" ">
<path fill="none" stroke="#63b8ff" d="M972.97,-66.18C963.94,-58.7 950.68,-47.7 938.9,-37.93"/>
<polygon fill="#63b8ff" stroke="#63b8ff" points="941.37,-35.44 931.44,-31.75 936.9,-40.83 941.37,-35.44"/>
</a>
</g>
</g>
<!-- Node15 -->
<g id="Node000015" class="node">
<title>Node15</title>
<g id="a_Node000015"><a xlink:href="_vector_function_8hxx.html" target="_top" xlink:title=" ">
<polygon fill="white" stroke="#666666" points="1117.12,-30.5 992.38,-30.5 992.38,0 1117.12,0 1117.12,-30.5"/>
<text text-anchor="start" x="1000.38" y="-17" font-family="Helvetica,sans-Serif" font-size="10.00">Optimist/Function/Vector</text>
<text text-anchor="middle" x="1054.75" y="-5.75" font-family="Helvetica,sans-Serif" font-size="10.00">Function.hxx</text>
</a>
</g>
</g>
<!-- Node1&#45;&gt;Node15 -->
<g id="edge14_Node000001_Node000015" class="edge">
<title>Node1&#45;&gt;Node15</title>
<g id="a_edge14_Node000001_Node000015"><a xlink:title=" ">
<path fill="none" stroke="#63b8ff" d="M994.53,-66.18C1003.56,-58.7 1016.82,-47.7 1028.6,-37.93"/>
<polygon fill="#63b8ff" stroke="#63b8ff" points="1030.6,-40.83 1036.06,-31.75 1026.13,-35.44 1030.6,-40.83"/>
</a>
</g>
</g>
<!-- Node16 -->
<g id="Node000016" class="node">
<title>Node16</title>
<g id="a_Node000016"><a xlink:href="_cost_function_8hxx.html" target="_top" xlink:title=" ">
<polygon fill="white" stroke="#666666" points="1308.5,-24.88 1135,-24.88 1135,-5.63 1308.5,-5.63 1308.5,-24.88"/>
<text text-anchor="middle" x="1221.75" y="-11.38" font-family="Helvetica,sans-Serif" font-size="10.00">Optimist/Function/CostFunction.hxx</text>
</a>
</g>
</g>
<!-- Node1&#45;&gt;Node16 -->
<g id="edge15_Node000001_Node000016" class="edge">
<title>Node1&#45;&gt;Node16</title>
<g id="a_edge15_Node000001_Node000016"><a xlink:title=" ">
<path fill="none" stroke="#63b8ff" d="M1020.42,-66.05C1061.65,-55.86 1128.74,-39.26 1174.03,-28.06"/>
<polygon fill="#63b8ff" stroke="#63b8ff" points="1174.71,-31.49 1183.57,-25.69 1173.03,-24.7 1174.71,-31.49"/>
</a>
</g>
</g>
<!-- Node17 -->
<g id="Node000017" class="node">
<title>Node17</title>
<g id="a_Node000017"><a xlink:href="_solver_8hxx.html" target="_top" xlink:title=" ">
<polygon fill="white" stroke="#666666" points="1428.5,-24.88 1327,-24.88 1327,-5.63 1428.5,-5.63 1428.5,-24.88"/>
<text text-anchor="middle" x="1377.75" y="-11.38" font-family="Helvetica,sans-Serif" font-size="10.00">Optimist/Solver.hxx</text>
</a>
</g>
</g>
<!-- Node1&#45;&gt;Node17 -->
<g id="edge16_Node000001_Node000017" class="edge">
<title>Node1&#45;&gt;Node17</title>
<g id="a_edge16_Node000001_Node000017"><a xlink:title=" ">
<path fill="none" stroke="#63b8ff" d="M1034.08,-69.99C1099.67,-62.94 1217.8,-49 1317.75,-30.5 1322.07,-29.7 1326.54,-28.79 1331.01,-27.83"/>
<polygon fill="#63b8ff" stroke="#63b8ff" points="1331.56,-31.29 1340.55,-25.69 1330.02,-24.46 1331.56,-31.29"/>
</a>
</g>
</g>
<!-- Node18 -->
<g id="Node000018" class="node">
<title>Node18</title>
<g id="a_Node000018"><a xlink:href="_scalar_root_finder_8hxx.html" target="_top" xlink:title=" ">
<polygon fill="white" stroke="#666666" points="1596.5,-24.88 1447,-24.88 1447,-5.63 1596.5,-5.63 1596.5,-24.88"/>
<text text-anchor="middle" x="1521.75" y="-11.38" font-family="Helvetica,sans-Serif" font-size="10.00">Optimist/ScalarRootFinder.hxx</text>
</a>
</g>
</g>
<!-- Node1&#45;&gt;Node18 -->
<g id="edge17_Node000001_Node000018" class="edge">
<title>Node1&#45;&gt;Node18</title>
<g id="a_edge17_Node000001_Node000018"><a xlink:title=" ">
<path fill="none" stroke="#63b8ff" d="M1033.93,-71.35C1117.77,-64.78 1291.54,-50.06 1437.75,-30.5 1445.14,-29.51 1452.87,-28.36 1460.53,-27.15"/>
<polygon fill="#63b8ff" stroke="#63b8ff" points="1460.84,-30.64 1470.15,-25.58 1459.72,-23.73 1460.84,-30.64"/>
</a>
</g>
</g>
<!-- Node19 -->
<g id="Node000019" class="node">
<title>Node19</title>
<g id="a_Node000019"><a xlink:href="_scalar_root_finder_2_newton_8hxx.html" target="_top" xlink:title=" ">
<polygon fill="white" stroke="#666666" points="1746.5,-30.5 1615,-30.5 1615,0 1746.5,0 1746.5,-30.5"/>
<text text-anchor="start" x="1623" y="-17" font-family="Helvetica,sans-Serif" font-size="10.00">Optimist/ScalarRootFinder</text>
<text text-anchor="middle" x="1680.75" y="-5.75" font-family="Helvetica,sans-Serif" font-size="10.00">/Newton.hxx</text>
</a>
</g>
</g>
<!-- Node1&#45;&gt;Node19 -->
<g id="edge18_Node000001_Node000019" class="edge">
<title>Node1&#45;&gt;Node19</title>
<g id="a_edge18_Node000001_Node000019"><a xlink:title=" ">
<path fill="none" stroke="#63b8ff" d="M1033.94,-73.5C1138.12,-69.71 1385.61,-58.48 1603.24,-30.72"/>
<polygon fill="#63b8ff" stroke="#63b8ff" points="1603.59,-34.2 1613.06,-29.45 1602.7,-27.26 1603.59,-34.2"/>
</a>
</g>
</g>
<!-- Node20 -->
<g id="Node000020" class="node">
<title>Node20</title>
<g id="a_Node000020"><a xlink:href="_root_finder_8hxx.html" target="_top" xlink:title=" ">
<polygon fill="white" stroke="#666666" points="1886.62,-24.88 1764.88,-24.88 1764.88,-5.63 1886.62,-5.63 1886.62,-24.88"/>
<text text-anchor="middle" x="1825.75" y="-11.38" font-family="Helvetica,sans-Serif" font-size="10.00">Optimist/RootFinder.hxx</text>
</a>
</g>
</g>
<!-- Node1&#45;&gt;Node20 -->
<g id="edge19_Node000001_Node000020" class="edge">
<title>Node1&#45;&gt;Node20</title>
<g id="a_edge19_Node000001_Node000020"><a xlink:title=" ">
<path fill="none" stroke="#63b8ff" d="M1034.11,-74.7C1157.61,-73.13 1485.16,-65.68 1755.75,-30.5 1762.13,-29.67 1768.8,-28.59 1775.38,-27.4"/>
<polygon fill="#63b8ff" stroke="#63b8ff" points="1775.65,-30.91 1784.82,-25.59 1774.34,-24.04 1775.65,-30.91"/>
</a>
</g>
</g>
<!-- Node21 -->
<g id="Node000021" class="node">
<title>Node21</title>
<g id="a_Node000021"><a xlink:href="_root_finder_2_newton_8hxx.html" target="_top" xlink:title=" ">
<polygon fill="white" stroke="#666666" points="2008.62,-30.5 1904.88,-30.5 1904.88,0 2008.62,0 2008.62,-30.5"/>
<text text-anchor="start" x="1912.88" y="-17" font-family="Helvetica,sans-Serif" font-size="10.00">Optimist/RootFinder</text>
<text text-anchor="middle" x="1956.75" y="-5.75" font-family="Helvetica,sans-Serif" font-size="10.00">/Newton.hxx</text>
</a>
</g>
</g>
<!-- Node1&#45;&gt;Node21 -->
<g id="edge20_Node000001_Node000021" class="edge">
<title>Node1&#45;&gt;Node21</title>
<g id="a_edge20_Node000001_Node000021"><a xlink:title=" ">
<path fill="none" stroke="#63b8ff" d="M1034.03,-73.86C1196.26,-69.6 1705.7,-54.74 1893.27,-30.61"/>
<polygon fill="#63b8ff" stroke="#63b8ff" points="1893.68,-34.08 1903.12,-29.28 1892.75,-27.15 1893.68,-34.08"/>
</a>
</g>
</g>
<!-- Node22 -->
<g id="Node000022" class="node">
<title>Node22</title>
<g id="a_Node000022"><a xlink:href="_quasi_newton_8hxx.html" target="_top" xlink:title=" ">
<polygon fill="white" stroke="#666666" points="2130.62,-30.5 2026.88,-30.5 2026.88,0 2130.62,0 2130.62,-30.5"/>
<text text-anchor="start" x="2034.88" y="-17" font-family="Helvetica,sans-Serif" font-size="10.00">Optimist/RootFinder</text>
<text text-anchor="middle" x="2078.75" y="-5.75" font-family="Helvetica,sans-Serif" font-size="10.00">/QuasiNewton.hxx</text>
</a>
</g>
</g>
<!-- Node1&#45;&gt;Node22 -->
<g id="edge21_Node000001_Node000022" class="edge">
<title>Node1&#45;&gt;Node22</title>
<g id="a_edge21_Node000001_Node000022"><a xlink:title=" ">
<path fill="none" stroke="#63b8ff" d="M1034.05,-74.2C1210.6,-70.75 1802.35,-57.53 2015.26,-30.6"/>
<polygon fill="#63b8ff" stroke="#63b8ff" points="2015.67,-34.08 2025.13,-29.3 2014.75,-27.14 2015.67,-34.08"/>
</a>
</g>
</g>
<!-- Node23 -->
<g id="Node000023" class="node">
<title>Node23</title>
<g id="a_Node000023"><a xlink:href="_broyden_8hxx.html" target="_top" xlink:title=" ">
<polygon fill="white" stroke="#666666" points="2252.62,-30.5 2148.88,-30.5 2148.88,0 2252.62,0 2252.62,-30.5"/>
<text text-anchor="start" x="2156.88" y="-17" font-family="Helvetica,sans-Serif" font-size="10.00">Optimist/RootFinder</text>
<text text-anchor="middle" x="2200.75" y="-5.75" font-family="Helvetica,sans-Serif" font-size="10.00">/Broyden.hxx</text>
</a>
</g>
</g>
<!-- Node1&#45;&gt;Node23 -->
<g id="edge22_Node000001_Node000023" class="edge">
<title>Node1&#45;&gt;Node23</title>
<g id="a_edge22_Node000001_Node000023"><a xlink:title=" ">
<path fill="none" stroke="#63b8ff" d="M1034.23,-74.46C1224.48,-71.75 1899.08,-60.33 2137.28,-30.59"/>
<polygon fill="#63b8ff" stroke="#63b8ff" points="2137.66,-34.07 2147.13,-29.31 2136.76,-27.13 2137.66,-34.07"/>
</a>
</g>
</g>
<!-- Node24 -->
<g id="Node000024" class="node">
<title>Node24</title>
<g id="a_Node000024"><a xlink:href="_greenstadt_8hxx.html" target="_top" xlink:title=" ">
<polygon fill="white" stroke="#666666" points="2374.62,-30.5 2270.88,-30.5 2270.88,0 2374.62,0 2374.62,-30.5"/>
<text text-anchor="start" x="2278.88" y="-17" font-family="Helvetica,sans-Serif" font-size="10.00">Optimist/RootFinder</text>
<text text-anchor="middle" x="2322.75" y="-5.75" font-family="Helvetica,sans-Serif" font-size="10.00">/Greenstadt.hxx</text>
</a>
</g>
</g>
<!-- Node1&#45;&gt;Node24 -->
<g id="edge23_Node000001_Node000024" class="edge">
<title>Node1&#45;&gt;Node24</title>
<g id="a_edge23_Node000001_Node000024"><a xlink:title=" ">
<path fill="none" stroke="#63b8ff" d="M1034.19,-74.67C1237.27,-72.66 1996.24,-63.17 2259.59,-30.55"/>
<polygon fill="#63b8ff" stroke="#63b8ff" points="2259.66,-34.07 2269.13,-29.32 2258.76,-27.13 2259.66,-34.07"/>
</a>
</g>
</g>
<!-- Node25 -->
<g id="Node000025" class="node">
<title>Node25</title>
<g id="a_Node000025"><a xlink:href="_optimizer_8hxx.html" target="_top" xlink:title=" ">
<polygon fill="white" stroke="#666666" points="2508.62,-24.88 2392.88,-24.88 2392.88,-5.63 2508.62,-5.63 2508.62,-24.88"/>
<text text-anchor="middle" x="2450.75" y="-11.38" font-family="Helvetica,sans-Serif" font-size="10.00">Optimist/Optimizer.hxx</text>
</a>
</g>
</g>
<!-- Node1&#45;&gt;Node25 -->
<g id="edge24_Node000001_Node000025" class="edge">
<title>Node1&#45;&gt;Node25</title>
<g id="a_edge24_Node000001_Node000025"><a xlink:title=" ">
<path fill="none" stroke="#63b8ff" d="M1034.12,-74.72C1252.03,-72.78 2114.58,-63.15 2383.75,-30.5 2389.87,-29.76 2396.27,-28.73 2402.57,-27.56"/>
<polygon fill="#63b8ff" stroke="#63b8ff" points="2403.12,-31.02 2412.25,-25.64 2401.76,-24.16 2403.12,-31.02"/>
</a>
</g>
</g>
<!-- Node26 -->
<g id="Node000026" class="node">
<title>Node26</title>
<g id="a_Node000026"><a xlink:href="_nelder_mead_8hxx.html" target="_top" xlink:title=" ">
<polygon fill="white" stroke="#666666" points="2624.62,-30.5 2526.88,-30.5 2526.88,0 2624.62,0 2624.62,-30.5"/>
<text text-anchor="start" x="2534.88" y="-17" font-family="Helvetica,sans-Serif" font-size="10.00">Optimist/Optimizer</text>
<text text-anchor="middle" x="2575.75" y="-5.75" font-family="Helvetica,sans-Serif" font-size="10.00">/NelderMead.hxx</text>
</a>
</g>
</g>
<!-- Node1&#45;&gt;Node26 -->
<g id="edge25_Node000001_Node000026" class="edge">
<title>Node1&#45;&gt;Node26</title>
<g id="a_edge25_Node000001_Node000026"><a xlink:title=" ">
<path fill="none" stroke="#63b8ff" d="M1033.87,-75.09C1261.34,-74.73 2198.9,-70.87 2515.53,-30.55"/>
<polygon fill="#63b8ff" stroke="#63b8ff" points="2515.57,-34.07 2525.03,-29.29 2514.65,-27.13 2515.57,-34.07"/>
</a>
</g>
</g>
<!-- Node27 -->
<g id="Node000027" class="node">
<title>Node27</title>
<g id="a_Node000027"><a xlink:href="_scalar_optimizer_8hxx.html" target="_top" xlink:title=" ">
<polygon fill="white" stroke="#666666" points="2786.5,-24.88 2643,-24.88 2643,-5.63 2786.5,-5.63 2786.5,-24.88"/>
<text text-anchor="middle" x="2714.75" y="-11.38" font-family="Helvetica,sans-Serif" font-size="10.00">Optimist/ScalarOptimizer.hxx</text>
</a>
</g>
</g>
<!-- Node1&#45;&gt;Node27 -->
<g id="edge26_Node000001_Node000027" class="edge">
<title>Node1&#45;&gt;Node27</title>
<g id="a_edge26_Node000001_Node000027"><a xlink:title=" ">
<path fill="none" stroke="#63b8ff" d="M1033.94,-74.76C1274.6,-72.88 2311.93,-62.98 2633.75,-30.5 2641.86,-29.68 2650.37,-28.52 2658.72,-27.21"/>
<polygon fill="#63b8ff" stroke="#63b8ff" points="2659.14,-30.69 2668.43,-25.6 2658,-23.78 2659.14,-30.69"/>
</a>
</g>
</g>
</g>
</svg>
