<?xml version="1.0" encoding="UTF-8" standalone="no"?>
<!DOCTYPE svg PUBLIC "-//W3C//DTD SVG 1.1//EN"
 "http://www.w3.org/Graphics/SVG/1.1/DTD/svg11.dtd">
<!-- Generated by graphviz version 12.2.1 (20241206.2353)
 -->
<!-- Title: include/Optimist.hh Pages: 1 -->
<svg width="1671pt" height="94pt"
 viewBox="0.00 0.00 1670.75 93.75" xmlns="http://www.w3.org/2000/svg" xmlns:xlink="http://www.w3.org/1999/xlink">
<g id="graph0" class="graph" transform="scale(1 1) rotate(0) translate(4 89.75)">
<title>include/Optimist.hh</title>
<!-- Node1 -->
<g id="Node000001" class="node">
<title>Node1</title>
<g id="a_Node000001"><a xlink:title=" ">
<polygon fill="#999999" stroke="#666666" points="629.75,-85.75 529.75,-85.75 529.75,-66.5 629.75,-66.5 629.75,-85.75"/>
<text text-anchor="middle" x="579.75" y="-72.25" font-family="Helvetica,sans-Serif" font-size="10.00">include/Optimist.hh</text>
</a>
</g>
</g>
<!-- Node2 -->
<g id="Node000002" class="node">
<title>Node2</title>
<g id="a_Node000002"><a xlink:title=" ">
<polygon fill="#e0e0e0" stroke="#999999" points="53.5,-24.88 0,-24.88 0,-5.63 53.5,-5.63 53.5,-24.88"/>
<text text-anchor="middle" x="26.75" y="-11.38" font-family="Helvetica,sans-Serif" font-size="10.00">iostream</text>
</a>
</g>
</g>
<!-- Node1&#45;&gt;Node2 -->
<g id="edge1_Node000001_Node000002" class="edge">
<title>Node1&#45;&gt;Node2</title>
<g id="a_edge1_Node000001_Node000002"><a xlink:title=" ">
<path fill="none" stroke="#63b8ff" d="M529.44,-75.59C436.13,-75.4 230.45,-70.03 62.75,-30.5 60.99,-30.09 59.2,-29.6 57.41,-29.06"/>
<polygon fill="#63b8ff" stroke="#63b8ff" points="58.62,-25.78 48.03,-25.8 56.32,-32.39 58.62,-25.78"/>
</a>
</g>
</g>
<!-- Node3 -->
<g id="Node000003" class="node">
<title>Node3</title>
<g id="a_Node000003"><a xlink:title=" ">
<polygon fill="#e0e0e0" stroke="#999999" points="111.75,-24.88 71.75,-24.88 71.75,-5.63 111.75,-5.63 111.75,-24.88"/>
<text text-anchor="middle" x="91.75" y="-11.38" font-family="Helvetica,sans-Serif" font-size="10.00">string</text>
</a>
</g>
</g>
<!-- Node1&#45;&gt;Node3 -->
<g id="edge2_Node000001_Node000003" class="edge">
<title>Node1&#45;&gt;Node3</title>
<g id="a_edge2_Node000001_Node000003"><a xlink:title=" ">
<path fill="none" stroke="#63b8ff" d="M529.42,-76.06C443.78,-76.38 264.96,-71.47 120.75,-30.5 119.78,-30.22 118.81,-29.92 117.83,-29.59"/>
<polygon fill="#63b8ff" stroke="#63b8ff" points="119.57,-26.52 108.99,-25.89 116.87,-32.98 119.57,-26.52"/>
</a>
</g>
</g>
<!-- Node4 -->
<g id="Node000004" class="node">
<title>Node4</title>
<g id="a_Node000004"><a xlink:title=" ">
<polygon fill="#e0e0e0" stroke="#999999" points="173.25,-24.88 130.25,-24.88 130.25,-5.63 173.25,-5.63 173.25,-24.88"/>
<text text-anchor="middle" x="151.75" y="-11.38" font-family="Helvetica,sans-Serif" font-size="10.00">cmath</text>
</a>
</g>
</g>
<!-- Node1&#45;&gt;Node4 -->
<g id="edge3_Node000001_Node000004" class="edge">
<title>Node1&#45;&gt;Node4</title>
<g id="a_edge3_Node000001_Node000004"><a xlink:title=" ">
<path fill="none" stroke="#63b8ff" d="M529.4,-74.78C452.86,-73.08 303.28,-65.13 181.75,-30.5 180.76,-30.22 179.75,-29.9 178.75,-29.56"/>
<polygon fill="#63b8ff" stroke="#63b8ff" points="180.17,-26.36 169.59,-25.83 177.52,-32.85 180.17,-26.36"/>
</a>
</g>
</g>
<!-- Node5 -->
<g id="Node000005" class="node">
<title>Node5</title>
<g id="a_Node000005"><a xlink:title=" ">
<polygon fill="#e0e0e0" stroke="#999999" points="234.25,-24.88 191.25,-24.88 191.25,-5.63 234.25,-5.63 234.25,-24.88"/>
<text text-anchor="middle" x="212.75" y="-11.38" font-family="Helvetica,sans-Serif" font-size="10.00">vector</text>
</a>
</g>
</g>
<!-- Node1&#45;&gt;Node5 -->
<g id="edge4_Node000001_Node000005" class="edge">
<title>Node1&#45;&gt;Node5</title>
<g id="a_edge4_Node000001_Node000005"><a xlink:title=" ">
<path fill="none" stroke="#63b8ff" d="M529.26,-73.11C462.68,-69.39 342.4,-59.02 243.75,-30.5 242.75,-30.21 241.75,-29.9 240.74,-29.56"/>
<polygon fill="#63b8ff" stroke="#63b8ff" points="242.1,-26.33 231.51,-25.89 239.51,-32.84 242.1,-26.33"/>
</a>
</g>
</g>
<!-- Node6 -->
<g id="Node000006" class="node">
<title>Node6</title>
<g id="a_Node000006"><a xlink:title=" ">
<polygon fill="#e0e0e0" stroke="#999999" points="287.12,-24.88 252.38,-24.88 252.38,-5.63 287.12,-5.63 287.12,-24.88"/>
<text text-anchor="middle" x="269.75" y="-11.38" font-family="Helvetica,sans-Serif" font-size="10.00">map</text>
</a>
</g>
</g>
<!-- Node1&#45;&gt;Node6 -->
<g id="edge5_Node000001_Node000006" class="edge">
<title>Node1&#45;&gt;Node6</title>
<g id="a_edge5_Node000001_Node000006"><a xlink:title=" ">
<path fill="none" stroke="#63b8ff" d="M529.5,-72.47C471.75,-68.23 374.76,-57.44 295.75,-30.5 295.38,-30.38 295.02,-30.25 294.65,-30.11"/>
<polygon fill="#63b8ff" stroke="#63b8ff" points="296.12,-26.93 285.57,-25.94 293.2,-33.3 296.12,-26.93"/>
</a>
</g>
</g>
<!-- Node7 -->
<g id="Node000007" class="node">
<title>Node7</title>
<g id="a_Node000007"><a xlink:title=" ">
<polygon fill="#e0e0e0" stroke="#999999" points="356.38,-24.88 305.12,-24.88 305.12,-5.63 356.38,-5.63 356.38,-24.88"/>
<text text-anchor="middle" x="330.75" y="-11.38" font-family="Helvetica,sans-Serif" font-size="10.00">memory</text>
</a>
</g>
</g>
<!-- Node1&#45;&gt;Node7 -->
<g id="edge6_Node000001_Node000007" class="edge">
<title>Node1&#45;&gt;Node7</title>
<g id="a_edge6_Node000001_Node000007"><a xlink:title=" ">
<path fill="none" stroke="#63b8ff" d="M529.53,-67.51C485.51,-60.18 420.09,-47.67 364.75,-30.5 363.59,-30.14 362.41,-29.75 361.23,-29.35"/>
<polygon fill="#63b8ff" stroke="#63b8ff" points="362.66,-26.15 352.06,-25.88 360.18,-32.69 362.66,-26.15"/>
</a>
</g>
</g>
<!-- Node8 -->
<g id="Node000008" class="node">
<title>Node8</title>
<g id="a_Node000008"><a xlink:title=" ">
<polygon fill="#e0e0e0" stroke="#999999" points="419.38,-24.88 374.12,-24.88 374.12,-5.63 419.38,-5.63 419.38,-24.88"/>
<text text-anchor="middle" x="396.75" y="-11.38" font-family="Helvetica,sans-Serif" font-size="10.00">chrono</text>
</a>
</g>
</g>
<!-- Node1&#45;&gt;Node8 -->
<g id="edge7_Node000001_Node000008" class="edge">
<title>Node1&#45;&gt;Node8</title>
<g id="a_edge7_Node000001_Node000008"><a xlink:title=" ">
<path fill="none" stroke="#63b8ff" d="M544.23,-66.05C513.36,-57.82 467.61,-44.82 428.75,-30.5 427.96,-30.21 427.16,-29.91 426.35,-29.6"/>
<polygon fill="#63b8ff" stroke="#63b8ff" points="427.85,-26.43 417.27,-25.84 425.17,-32.89 427.85,-26.43"/>
</a>
</g>
</g>
<!-- Node9 -->
<g id="Node000009" class="node">
<title>Node9</title>
<g id="a_Node000009"><a xlink:title=" ">
<polygon fill="#e0e0e0" stroke="#999999" points="509.88,-24.88 437.62,-24.88 437.62,-5.63 509.88,-5.63 509.88,-24.88"/>
<text text-anchor="middle" x="473.75" y="-11.38" font-family="Helvetica,sans-Serif" font-size="10.00">Eigen/Dense</text>
</a>
</g>
</g>
<!-- Node1&#45;&gt;Node9 -->
<g id="edge8_Node000001_Node000009" class="edge">
<title>Node1&#45;&gt;Node9</title>
<g id="a_edge8_Node000001_Node000009"><a xlink:title=" ">
<path fill="none" stroke="#63b8ff" d="M563.65,-66.18C546.76,-56.8 519.95,-41.91 500,-30.83"/>
<polygon fill="#63b8ff" stroke="#63b8ff" points="501.77,-27.81 491.32,-26.01 498.37,-33.93 501.77,-27.81"/>
</a>
</g>
</g>
<!-- Node10 -->
<g id="Node000010" class="node">
<title>Node10</title>
<g id="a_Node000010"><a xlink:href="_tic_toc_8hxx.html" target="_top" xlink:title=" ">
<polygon fill="white" stroke="#666666" points="631.62,-24.88 527.88,-24.88 527.88,-5.63 631.62,-5.63 631.62,-24.88"/>
<text text-anchor="middle" x="579.75" y="-11.38" font-family="Helvetica,sans-Serif" font-size="10.00">Optimist/TicToc.hxx</text>
</a>
</g>
</g>
<!-- Node1&#45;&gt;Node10 -->
<g id="edge9_Node000001_Node000010" class="edge">
<title>Node1&#45;&gt;Node10</title>
<g id="a_edge9_Node000001_Node000010"><a xlink:title=" ">
<path fill="none" stroke="#63b8ff" d="M579.75,-66.18C579.75,-58.4 579.75,-46.83 579.75,-36.78"/>
<polygon fill="#63b8ff" stroke="#63b8ff" points="583.25,-36.79 579.75,-26.79 576.25,-36.79 583.25,-36.79"/>
</a>
</g>
</g>
<!-- Node11 -->
<g id="Node000011" class="node">
<title>Node11</title>
<g id="a_Node000011"><a xlink:href="_solver_8hxx.html" target="_top" xlink:title=" ">
<polygon fill="white" stroke="#666666" points="751.5,-24.88 650,-24.88 650,-5.63 751.5,-5.63 751.5,-24.88"/>
<text text-anchor="middle" x="700.75" y="-11.38" font-family="Helvetica,sans-Serif" font-size="10.00">Optimist/Solver.hxx</text>
</a>
</g>
</g>
<!-- Node1&#45;&gt;Node11 -->
<g id="edge10_Node000001_Node000011" class="edge">
<title>Node1&#45;&gt;Node11</title>
<g id="a_edge10_Node000001_Node000011"><a xlink:title=" ">
<path fill="none" stroke="#63b8ff" d="M598.39,-66.05C618.08,-56.48 649.36,-41.25 672.17,-30.16"/>
<polygon fill="#63b8ff" stroke="#63b8ff" points="673.46,-33.42 680.93,-25.9 670.4,-27.12 673.46,-33.42"/>
</a>
</g>
</g>
<!-- Node12 -->
<g id="Node000012" class="node">
<title>Node12</title>
<g id="a_Node000012"><a xlink:href="_scalar_solver_8hxx.html" target="_top" xlink:title=" ">
<polygon fill="white" stroke="#666666" points="898.38,-24.88 769.12,-24.88 769.12,-5.63 898.38,-5.63 898.38,-24.88"/>
<text text-anchor="middle" x="833.75" y="-11.38" font-family="Helvetica,sans-Serif" font-size="10.00">Optimist/ScalarSolver.hxx</text>
</a>
</g>
</g>
<!-- Node1&#45;&gt;Node12 -->
<g id="edge11_Node000001_Node000012" class="edge">
<title>Node1&#45;&gt;Node12</title>
<g id="a_edge11_Node000001_Node000012"><a xlink:title=" ">
<path fill="none" stroke="#63b8ff" d="M618.88,-66.05C663.07,-55.81 735.1,-39.12 783.43,-27.91"/>
<polygon fill="#63b8ff" stroke="#63b8ff" points="784.15,-31.34 793.1,-25.67 782.57,-24.52 784.15,-31.34"/>
</a>
</g>
</g>
<!-- Node13 -->
<g id="Node000013" class="node">
<title>Node13</title>
<g id="a_Node000013"><a xlink:href="_root_finder_8hxx.html" target="_top" xlink:title=" ">
<polygon fill="white" stroke="#666666" points="1038.62,-24.88 916.88,-24.88 916.88,-5.63 1038.62,-5.63 1038.62,-24.88"/>
<text text-anchor="middle" x="977.75" y="-11.38" font-family="Helvetica,sans-Serif" font-size="10.00">Optimist/RootFinder.hxx</text>
</a>
</g>
</g>
<!-- Node1&#45;&gt;Node13 -->
<g id="edge12_Node000001_Node000013" class="edge">
<title>Node1&#45;&gt;Node13</title>
<g id="a_edge12_Node000001_Node000013"><a xlink:title=" ">
<path fill="none" stroke="#63b8ff" d="M630.2,-69.3C694.73,-61.62 809.87,-47.1 907.75,-30.5 913.05,-29.6 918.56,-28.6 924.06,-27.55"/>
<polygon fill="#63b8ff" stroke="#63b8ff" points="924.63,-31.01 933.78,-25.65 923.29,-24.14 924.63,-31.01"/>
</a>
</g>
</g>
<!-- Node14 -->
<g id="Node000014" class="node">
<title>Node14</title>
<g id="a_Node000014"><a xlink:href="_newton_8hxx.html" target="_top" xlink:title=" ">
<polygon fill="white" stroke="#666666" points="1160.62,-30.5 1056.88,-30.5 1056.88,0 1160.62,0 1160.62,-30.5"/>
<text text-anchor="start" x="1064.88" y="-17" font-family="Helvetica,sans-Serif" font-size="10.00">Optimist/RootFinder</text>
<text text-anchor="middle" x="1108.75" y="-5.75" font-family="Helvetica,sans-Serif" font-size="10.00">/Newton.hxx</text>
</a>
</g>
</g>
<!-- Node1&#45;&gt;Node14 -->
<g id="edge13_Node000001_Node000014" class="edge">
<title>Node1&#45;&gt;Node14</title>
<g id="a_edge13_Node000001_Node000014"><a xlink:title=" ">
<path fill="none" stroke="#63b8ff" d="M630.25,-72.54C714.34,-67.75 888.51,-55.77 1045.34,-30.74"/>
<polygon fill="#63b8ff" stroke="#63b8ff" points="1045.79,-34.22 1055.1,-29.16 1044.67,-27.31 1045.79,-34.22"/>
</a>
</g>
</g>
<!-- Node15 -->
<g id="Node000015" class="node">
<title>Node15</title>
<g id="a_Node000015"><a xlink:href="_broyden_8hxx.html" target="_top" xlink:title=" ">
<polygon fill="white" stroke="#666666" points="1282.62,-30.5 1178.88,-30.5 1178.88,0 1282.62,0 1282.62,-30.5"/>
<text text-anchor="start" x="1186.88" y="-17" font-family="Helvetica,sans-Serif" font-size="10.00">Optimist/RootFinder</text>
<text text-anchor="middle" x="1230.75" y="-5.75" font-family="Helvetica,sans-Serif" font-size="10.00">/Broyden.hxx</text>
</a>
</g>
</g>
<!-- Node1&#45;&gt;Node15 -->
<g id="edge14_Node000001_Node000015" class="edge">
<title>Node1&#45;&gt;Node15</title>
<g id="a_edge14_Node000001_Node000015"><a xlink:title=" ">
<path fill="none" stroke="#63b8ff" d="M630.17,-73.93C730.61,-70.97 962.92,-61.32 1167.35,-30.7"/>
<polygon fill="#63b8ff" stroke="#63b8ff" points="1167.75,-34.18 1177.11,-29.21 1166.7,-27.26 1167.75,-34.18"/>
</a>
</g>
</g>
<!-- Node16 -->
<g id="Node000016" class="node">
<title>Node16</title>
<g id="a_Node000016"><a xlink:href="_greenstadt_8hxx.html" target="_top" xlink:title=" ">
<polygon fill="white" stroke="#666666" points="1404.62,-30.5 1300.88,-30.5 1300.88,0 1404.62,0 1404.62,-30.5"/>
<text text-anchor="start" x="1308.88" y="-17" font-family="Helvetica,sans-Serif" font-size="10.00">Optimist/RootFinder</text>
<text text-anchor="middle" x="1352.75" y="-5.75" font-family="Helvetica,sans-Serif" font-size="10.00">/Greenstadt.hxx</text>
</a>
</g>
</g>
<!-- Node1&#45;&gt;Node16 -->
<g id="edge15_Node000001_Node000016" class="edge">
<title>Node1&#45;&gt;Node16</title>
<g id="a_edge15_Node000001_Node000016"><a xlink:title=" ">
<path fill="none" stroke="#63b8ff" d="M630.12,-74.85C745.28,-73.6 1036.75,-66.93 1289.38,-30.67"/>
<polygon fill="#63b8ff" stroke="#63b8ff" points="1289.73,-34.15 1299.12,-29.25 1288.72,-27.23 1289.73,-34.15"/>
</a>
</g>
</g>
<!-- Node17 -->
<g id="Node000017" class="node">
<title>Node17</title>
<g id="a_Node000017"><a xlink:href="_optimizer_8hxx.html" target="_top" xlink:title=" ">
<polygon fill="white" stroke="#666666" points="1538.62,-24.88 1422.88,-24.88 1422.88,-5.63 1538.62,-5.63 1538.62,-24.88"/>
<text text-anchor="middle" x="1480.75" y="-11.38" font-family="Helvetica,sans-Serif" font-size="10.00">Optimist/Optimizer.hxx</text>
</a>
</g>
</g>
<!-- Node1&#45;&gt;Node17 -->
<g id="edge16_Node000001_Node000017" class="edge">
<title>Node1&#45;&gt;Node17</title>
<g id="a_edge16_Node000001_Node000017"><a xlink:title=" ">
<path fill="none" stroke="#63b8ff" d="M629.82,-75.16C759.79,-74.67 1118.35,-69.57 1413.75,-30.5 1419.72,-29.71 1425.95,-28.68 1432.1,-27.52"/>
<polygon fill="#63b8ff" stroke="#63b8ff" points="1432.41,-31.03 1441.53,-25.65 1431.04,-24.17 1432.41,-31.03"/>
</a>
</g>
</g>
<!-- Node18 -->
<g id="Node000018" class="node">
<title>Node18</title>
<g id="a_Node000018"><a xlink:href="_factory_8hxx.html" target="_top" xlink:title=" ">
<polygon fill="white" stroke="#666666" points="1662.75,-24.88 1556.75,-24.88 1556.75,-5.63 1662.75,-5.63 1662.75,-24.88"/>
<text text-anchor="middle" x="1609.75" y="-11.38" font-family="Helvetica,sans-Serif" font-size="10.00">Optimist/Factory.hxx</text>
</a>
</g>
</g>
<!-- Node1&#45;&gt;Node18 -->
<g id="edge17_Node000001_Node000018" class="edge">
<title>Node1&#45;&gt;Node18</title>
<g id="a_edge17_Node000001_Node000018"><a xlink:title=" ">
<path fill="none" stroke="#63b8ff" d="M630.08,-74C802.36,-69.97 1367.73,-55.13 1547.75,-30.5 1553.08,-29.77 1558.62,-28.8 1564.11,-27.72"/>
<polygon fill="#63b8ff" stroke="#63b8ff" points="1564.66,-31.18 1573.71,-25.66 1563.2,-24.33 1564.66,-31.18"/>
</a>
</g>
</g>
</g>
</svg>
