<?xml version="1.0" encoding="UTF-8" standalone="no"?>
<!DOCTYPE svg PUBLIC "-//W3C//DTD SVG 1.1//EN"
 "http://www.w3.org/Graphics/SVG/1.1/DTD/svg11.dtd">
<!-- Generated by graphviz version 13.1.2 (20250808.2320)
 -->
<!-- Title: include/Optimist.hh Pages: 1 -->
<svg width="2534pt" height="337pt"
 viewBox="0.00 0.00 2534.00 337.00" xmlns="http://www.w3.org/2000/svg" xmlns:xlink="http://www.w3.org/1999/xlink">
<g id="graph0" class="graph" transform="scale(1 1) rotate(0) translate(4 333.25)">
<title>include/Optimist.hh</title>
<!-- Node1 -->
<g id="Node000001" class="node">
<title>Node1</title>
<g id="a_Node000001"><a xlink:title=" ">
<polygon fill="#999999" stroke="#666666" points="1058.75,-329.25 958.75,-329.25 958.75,-310 1058.75,-310 1058.75,-329.25"/>
<text xml:space="preserve" text-anchor="middle" x="1008.75" y="-315.75" font-family="Helvetica,sans-Serif" font-size="10.00">include/Optimist.hh</text>
</a>
</g>
</g>
<!-- Node2 -->
<g id="Node000002" class="node">
<title>Node2</title>
<g id="a_Node000002"><a xlink:href="_finite_differences_8hh.html" target="_top" xlink:title=" ">
<polygon fill="white" stroke="#666666" points="931.38,-274 754.12,-274 754.12,-254.75 931.38,-254.75 931.38,-274"/>
<text xml:space="preserve" text-anchor="middle" x="842.75" y="-260.5" font-family="Helvetica,sans-Serif" font-size="10.00">include/Optimist/FiniteDifferences.hh</text>
</a>
</g>
</g>
<!-- Node1&#45;&gt;Node2 -->
<g id="edge1_Node000001_Node000002" class="edge">
<title>Node1&#45;&gt;Node2</title>
<g id="a_edge1_Node000001_Node000002"><a xlink:title=" ">
<path fill="none" stroke="#63b8ff" d="M969.98,-306.19C939.68,-296.47 898.28,-283.19 871.05,-274.45"/>
<polygon fill="#63b8ff" stroke="#63b8ff" points="968.56,-309.41 979.15,-309.13 970.7,-302.74 968.56,-309.41"/>
</a>
</g>
</g>
<!-- Node3 -->
<g id="Node000003" class="node">
<title>Node3</title>
<g id="a_Node000003"><a xlink:href="_function_8hh.html" target="_top" xlink:title=" ">
<polygon fill="white" stroke="#666666" points="1128,-274 987.5,-274 987.5,-254.75 1128,-254.75 1128,-274"/>
<text xml:space="preserve" text-anchor="middle" x="1057.75" y="-260.5" font-family="Helvetica,sans-Serif" font-size="10.00">include/Optimist/Function.hh</text>
</a>
</g>
</g>
<!-- Node1&#45;&gt;Node3 -->
<g id="edge2_Node000001_Node000003" class="edge">
<title>Node1&#45;&gt;Node3</title>
<g id="a_edge2_Node000001_Node000003"><a xlink:title=" ">
<path fill="none" stroke="#63b8ff" d="M1024.47,-301.54C1032.79,-292.5 1042.66,-281.77 1049.48,-274.36"/>
<polygon fill="#63b8ff" stroke="#63b8ff" points="1022.06,-298.99 1017.87,-308.72 1027.21,-303.73 1022.06,-298.99"/>
</a>
</g>
</g>
<!-- Node4 -->
<g id="Node000004" class="node">
<title>Node4</title>
<g id="a_Node000004"><a xlink:href="_solver_base_8hh.html" target="_top" xlink:title=" ">
<polygon fill="white" stroke="#666666" points="971.38,-218.75 818.12,-218.75 818.12,-199.5 971.38,-199.5 971.38,-218.75"/>
<text xml:space="preserve" text-anchor="middle" x="894.75" y="-205.25" font-family="Helvetica,sans-Serif" font-size="10.00">include/Optimist/SolverBase.hh</text>
</a>
</g>
</g>
<!-- Node1&#45;&gt;Node4 -->
<g id="edge32_Node000001_Node000004" class="edge">
<title>Node1&#45;&gt;Node4</title>
<g id="a_edge32_Node000001_Node000004"><a xlink:title=" ">
<path fill="none" stroke="#63b8ff" d="M991.38,-302.09C966.96,-278.86 923.36,-237.35 904.21,-219.13"/>
<polygon fill="#63b8ff" stroke="#63b8ff" points="988.67,-304.34 998.32,-308.7 993.49,-299.27 988.67,-304.34"/>
</a>
</g>
</g>
<!-- Node20 -->
<g id="Node000020" class="node">
<title>Node20</title>
<g id="a_Node000020"><a xlink:href="_test_set_8hh.html" target="_top" xlink:title=" ">
<polygon fill="white" stroke="#666666" points="1616.12,-218.75 1479.38,-218.75 1479.38,-199.5 1616.12,-199.5 1616.12,-218.75"/>
<text xml:space="preserve" text-anchor="middle" x="1547.75" y="-205.25" font-family="Helvetica,sans-Serif" font-size="10.00">include/Optimist/TestSet.hh</text>
</a>
</g>
</g>
<!-- Node1&#45;&gt;Node20 -->
<g id="edge33_Node000001_Node000020" class="edge">
<title>Node1&#45;&gt;Node20</title>
<g id="a_edge33_Node000001_Node000020"><a xlink:title=" ">
<path fill="none" stroke="#63b8ff" d="M1065,-307.3C1172.32,-285.7 1404.35,-238.99 1502.47,-219.24"/>
<polygon fill="#63b8ff" stroke="#63b8ff" points="1064.37,-303.86 1055.26,-309.26 1065.76,-310.72 1064.37,-303.86"/>
</a>
</g>
</g>
<!-- Node3&#45;&gt;Node4 -->
<g id="edge3_Node000003_Node000004" class="edge">
<title>Node3&#45;&gt;Node4</title>
<g id="a_edge3_Node000003_Node000004"><a xlink:title=" ">
<path fill="none" stroke="#63b8ff" d="M1019.29,-250.81C989.57,-241.1 949.16,-227.9 922.54,-219.2"/>
<polygon fill="#63b8ff" stroke="#63b8ff" points="1018.07,-254.09 1028.66,-253.87 1020.24,-247.44 1018.07,-254.09"/>
</a>
</g>
</g>
<!-- Node3&#45;&gt;Node20 -->
<g id="edge19_Node000003_Node000020" class="edge">
<title>Node3&#45;&gt;Node20</title>
<g id="a_edge19_Node000003_Node000020"><a xlink:title=" ">
<path fill="none" stroke="#63b8ff" d="M1139.77,-254.46C1234.88,-244.13 1389.97,-227.27 1479.02,-217.59"/>
<polygon fill="#63b8ff" stroke="#63b8ff" points="1139.54,-250.97 1129.98,-255.53 1140.3,-257.92 1139.54,-250.97"/>
</a>
</g>
</g>
<!-- Node5 -->
<g id="Node000005" class="node">
<title>Node5</title>
<g id="a_Node000005"><a xlink:href="_optimizer_8hh.html" target="_top" xlink:title=" ">
<polygon fill="white" stroke="#666666" points="287.88,-157.88 143.62,-157.88 143.62,-138.62 287.88,-138.62 287.88,-157.88"/>
<text xml:space="preserve" text-anchor="middle" x="215.75" y="-144.38" font-family="Helvetica,sans-Serif" font-size="10.00">include/Optimist/Optimizer.hh</text>
</a>
</g>
</g>
<!-- Node4&#45;&gt;Node5 -->
<g id="edge4_Node000004_Node000005" class="edge">
<title>Node4&#45;&gt;Node5</title>
<g id="a_edge4_Node000004_Node000005"><a xlink:title=" ">
<path fill="none" stroke="#63b8ff" d="M806.71,-200.49C671.17,-188.74 413.92,-166.43 288.36,-155.55"/>
<polygon fill="#63b8ff" stroke="#63b8ff" points="806.08,-203.95 816.34,-201.33 806.68,-196.98 806.08,-203.95"/>
</a>
</g>
</g>
<!-- Node8 -->
<g id="Node000008" class="node">
<title>Node8</title>
<g id="a_Node000008"><a xlink:href="_root_finder_8hh.html" target="_top" xlink:title=" ">
<polygon fill="white" stroke="#666666" points="833.88,-157.88 683.62,-157.88 683.62,-138.62 833.88,-138.62 833.88,-157.88"/>
<text xml:space="preserve" text-anchor="middle" x="758.75" y="-144.38" font-family="Helvetica,sans-Serif" font-size="10.00">include/Optimist/RootFinder.hh</text>
</a>
</g>
</g>
<!-- Node4&#45;&gt;Node8 -->
<g id="edge7_Node000004_Node000008" class="edge">
<title>Node4&#45;&gt;Node8</title>
<g id="a_edge7_Node000004_Node000008"><a xlink:title=" ">
<path fill="none" stroke="#63b8ff" d="M863.43,-194.57C837.66,-183.41 801.85,-167.91 779.5,-158.23"/>
<polygon fill="#63b8ff" stroke="#63b8ff" points="861.84,-197.69 872.41,-198.45 864.62,-191.27 861.84,-197.69"/>
</a>
</g>
</g>
<!-- Node6 -->
<g id="Node000006" class="node">
<title>Node6</title>
<g id="a_Node000006"><a xlink:href="_nelder_mead_8hh.html" target="_top" xlink:title=" ">
<polygon fill="white" stroke="#666666" points="131.5,-97 0,-97 0,-66.5 131.5,-66.5 131.5,-97"/>
<text xml:space="preserve" text-anchor="start" x="8" y="-83.5" font-family="Helvetica,sans-Serif" font-size="10.00">include/Optimist/Optimizer</text>
<text xml:space="preserve" text-anchor="middle" x="65.75" y="-72.25" font-family="Helvetica,sans-Serif" font-size="10.00">/NelderMead.hh</text>
</a>
</g>
</g>
<!-- Node5&#45;&gt;Node6 -->
<g id="edge5_Node000005_Node000006" class="edge">
<title>Node5&#45;&gt;Node6</title>
<g id="a_edge5_Node000005_Node000006"><a xlink:title=" ">
<path fill="none" stroke="#63b8ff" d="M184.3,-133.72C159.57,-123.09 125.19,-108.31 99.82,-97.4"/>
<polygon fill="#63b8ff" stroke="#63b8ff" points="182.62,-136.81 193.19,-137.55 185.38,-130.38 182.62,-136.81"/>
</a>
</g>
</g>
<!-- Node7 -->
<g id="Node000007" class="node">
<title>Node7</title>
<g id="a_Node000007"><a xlink:href="_pattern_search_8hh.html" target="_top" xlink:title=" ">
<polygon fill="white" stroke="#666666" points="281.5,-97 150,-97 150,-66.5 281.5,-66.5 281.5,-97"/>
<text xml:space="preserve" text-anchor="start" x="158" y="-83.5" font-family="Helvetica,sans-Serif" font-size="10.00">include/Optimist/Optimizer</text>
<text xml:space="preserve" text-anchor="middle" x="215.75" y="-72.25" font-family="Helvetica,sans-Serif" font-size="10.00">/PatternSearch.hh</text>
</a>
</g>
</g>
<!-- Node5&#45;&gt;Node7 -->
<g id="edge6_Node000005_Node000007" class="edge">
<title>Node5&#45;&gt;Node7</title>
<g id="a_edge6_Node000005_Node000007"><a xlink:title=" ">
<path fill="none" stroke="#63b8ff" d="M215.75,-126.87C215.75,-117.19 215.75,-105.85 215.75,-97.09"/>
<polygon fill="#63b8ff" stroke="#63b8ff" points="212.25,-126.77 215.75,-136.77 219.25,-126.77 212.25,-126.77"/>
</a>
</g>
</g>
<!-- Node9 -->
<g id="Node000009" class="node">
<title>Node9</title>
<g id="a_Node000009"><a xlink:href="_bracketing_8hh.html" target="_top" xlink:title=" ">
<polygon fill="white" stroke="#666666" points="437.5,-97 300,-97 300,-66.5 437.5,-66.5 437.5,-97"/>
<text xml:space="preserve" text-anchor="start" x="308" y="-83.5" font-family="Helvetica,sans-Serif" font-size="10.00">include/Optimist/RootFinder</text>
<text xml:space="preserve" text-anchor="middle" x="368.75" y="-72.25" font-family="Helvetica,sans-Serif" font-size="10.00">/Bracketing.hh</text>
</a>
</g>
</g>
<!-- Node8&#45;&gt;Node9 -->
<g id="edge8_Node000008_Node000009" class="edge">
<title>Node8&#45;&gt;Node9</title>
<g id="a_edge8_Node000008_Node000009"><a xlink:title=" ">
<path fill="none" stroke="#63b8ff" d="M688.71,-136.4C625.43,-126.5 529.77,-111.27 446.75,-97 443.77,-96.49 440.72,-95.96 437.64,-95.42"/>
<polygon fill="#63b8ff" stroke="#63b8ff" points="687.83,-139.81 698.25,-137.89 688.91,-132.89 687.83,-139.81"/>
</a>
</g>
</g>
<!-- Node12 -->
<g id="Node000012" class="node">
<title>Node12</title>
<g id="a_Node000012"><a xlink:href="_chebyshev_8hh.html" target="_top" xlink:title=" ">
<polygon fill="white" stroke="#666666" points="593.5,-97 456,-97 456,-66.5 593.5,-66.5 593.5,-97"/>
<text xml:space="preserve" text-anchor="start" x="464" y="-83.5" font-family="Helvetica,sans-Serif" font-size="10.00">include/Optimist/RootFinder</text>
<text xml:space="preserve" text-anchor="middle" x="524.75" y="-72.25" font-family="Helvetica,sans-Serif" font-size="10.00">/Chebyshev.hh</text>
</a>
</g>
</g>
<!-- Node8&#45;&gt;Node12 -->
<g id="edge11_Node000008_Node000012" class="edge">
<title>Node8&#45;&gt;Node12</title>
<g id="a_edge11_Node000008_Node000012"><a xlink:title=" ">
<path fill="none" stroke="#63b8ff" d="M714.78,-135.13C675.95,-124.43 619.25,-108.8 577.9,-97.4"/>
<polygon fill="#63b8ff" stroke="#63b8ff" points="713.69,-138.46 724.26,-137.74 715.55,-131.71 713.69,-138.46"/>
</a>
</g>
</g>
<!-- Node13 -->
<g id="Node000013" class="node">
<title>Node13</title>
<g id="a_Node000013"><a xlink:href="_halley_8hh.html" target="_top" xlink:title=" ">
<polygon fill="white" stroke="#666666" points="749.5,-97 612,-97 612,-66.5 749.5,-66.5 749.5,-97"/>
<text xml:space="preserve" text-anchor="start" x="620" y="-83.5" font-family="Helvetica,sans-Serif" font-size="10.00">include/Optimist/RootFinder</text>
<text xml:space="preserve" text-anchor="middle" x="680.75" y="-72.25" font-family="Helvetica,sans-Serif" font-size="10.00">/Halley.hh</text>
</a>
</g>
</g>
<!-- Node8&#45;&gt;Node13 -->
<g id="edge12_Node000008_Node000013" class="edge">
<title>Node8&#45;&gt;Node13</title>
<g id="a_edge12_Node000008_Node000013"><a xlink:title=" ">
<path fill="none" stroke="#63b8ff" d="M739.15,-131.04C726.63,-120.69 710.52,-107.37 698.39,-97.34"/>
<polygon fill="#63b8ff" stroke="#63b8ff" points="736.8,-133.64 746.74,-137.32 741.26,-128.25 736.8,-133.64"/>
</a>
</g>
</g>
<!-- Node14 -->
<g id="Node000014" class="node">
<title>Node14</title>
<g id="a_Node000014"><a xlink:href="_newton_8hh.html" target="_top" xlink:title=" ">
<polygon fill="white" stroke="#666666" points="905.5,-97 768,-97 768,-66.5 905.5,-66.5 905.5,-97"/>
<text xml:space="preserve" text-anchor="start" x="776" y="-83.5" font-family="Helvetica,sans-Serif" font-size="10.00">include/Optimist/RootFinder</text>
<text xml:space="preserve" text-anchor="middle" x="836.75" y="-72.25" font-family="Helvetica,sans-Serif" font-size="10.00">/Newton.hh</text>
</a>
</g>
</g>
<!-- Node8&#45;&gt;Node14 -->
<g id="edge13_Node000008_Node000014" class="edge">
<title>Node8&#45;&gt;Node14</title>
<g id="a_edge13_Node000008_Node000014"><a xlink:title=" ">
<path fill="none" stroke="#63b8ff" d="M778.35,-131.04C790.87,-120.69 806.98,-107.37 819.11,-97.34"/>
<polygon fill="#63b8ff" stroke="#63b8ff" points="776.24,-128.25 770.76,-137.32 780.7,-133.64 776.24,-128.25"/>
</a>
</g>
</g>
<!-- Node15 -->
<g id="Node000015" class="node">
<title>Node15</title>
<g id="a_Node000015"><a xlink:href="_newton_raphson_8hh.html" target="_top" xlink:title=" ">
<polygon fill="white" stroke="#666666" points="1061.5,-97 924,-97 924,-66.5 1061.5,-66.5 1061.5,-97"/>
<text xml:space="preserve" text-anchor="start" x="932" y="-83.5" font-family="Helvetica,sans-Serif" font-size="10.00">include/Optimist/RootFinder</text>
<text xml:space="preserve" text-anchor="middle" x="992.75" y="-72.25" font-family="Helvetica,sans-Serif" font-size="10.00">/NewtonRaphson.hh</text>
</a>
</g>
</g>
<!-- Node8&#45;&gt;Node15 -->
<g id="edge14_Node000008_Node000015" class="edge">
<title>Node8&#45;&gt;Node15</title>
<g id="a_edge14_Node000008_Node000015"><a xlink:title=" ">
<path fill="none" stroke="#63b8ff" d="M802.72,-135.13C841.55,-124.43 898.25,-108.8 939.6,-97.4"/>
<polygon fill="#63b8ff" stroke="#63b8ff" points="801.95,-131.71 793.24,-137.74 803.81,-138.46 801.95,-131.71"/>
</a>
</g>
</g>
<!-- Node16 -->
<g id="Node000016" class="node">
<title>Node16</title>
<g id="a_Node000016"><a xlink:href="_quasi_newton_8hh.html" target="_top" xlink:title=" ">
<polygon fill="white" stroke="#666666" points="1217.5,-97 1080,-97 1080,-66.5 1217.5,-66.5 1217.5,-97"/>
<text xml:space="preserve" text-anchor="start" x="1088" y="-83.5" font-family="Helvetica,sans-Serif" font-size="10.00">include/Optimist/RootFinder</text>
<text xml:space="preserve" text-anchor="middle" x="1148.75" y="-72.25" font-family="Helvetica,sans-Serif" font-size="10.00">/QuasiNewton.hh</text>
</a>
</g>
</g>
<!-- Node8&#45;&gt;Node16 -->
<g id="edge15_Node000008_Node000016" class="edge">
<title>Node8&#45;&gt;Node16</title>
<g id="a_edge15_Node000008_Node000016"><a xlink:title=" ">
<path fill="none" stroke="#63b8ff" d="M822.85,-136.3C829.57,-135.17 836.3,-134.06 842.75,-133 943.99,-116.42 969.62,-114.22 1070.75,-97 1073.74,-96.49 1076.78,-95.97 1079.86,-95.43"/>
<polygon fill="#63b8ff" stroke="#63b8ff" points="822.38,-132.83 813.1,-137.94 823.54,-139.73 822.38,-132.83"/>
</a>
</g>
</g>
<!-- Node19 -->
<g id="Node000019" class="node">
<title>Node19</title>
<g id="a_Node000019"><a xlink:href="_varona_8hh.html" target="_top" xlink:title=" ">
<polygon fill="white" stroke="#666666" points="1373.5,-97 1236,-97 1236,-66.5 1373.5,-66.5 1373.5,-97"/>
<text xml:space="preserve" text-anchor="start" x="1244" y="-83.5" font-family="Helvetica,sans-Serif" font-size="10.00">include/Optimist/RootFinder</text>
<text xml:space="preserve" text-anchor="middle" x="1304.75" y="-72.25" font-family="Helvetica,sans-Serif" font-size="10.00">/Varona.hh</text>
</a>
</g>
</g>
<!-- Node8&#45;&gt;Node19 -->
<g id="edge18_Node000008_Node000019" class="edge">
<title>Node8&#45;&gt;Node19</title>
<g id="a_edge18_Node000008_Node000019"><a xlink:title=" ">
<path fill="none" stroke="#63b8ff" d="M819.66,-136.37C827.42,-135.14 835.26,-133.98 842.75,-133 1012.7,-110.65 1056.94,-120.43 1226.75,-97 1229.75,-96.59 1232.81,-96.14 1235.9,-95.66"/>
<polygon fill="#63b8ff" stroke="#63b8ff" points="819.21,-132.9 809.9,-137.95 820.33,-139.8 819.21,-132.9"/>
</a>
</g>
</g>
<!-- Node10 -->
<g id="Node000010" class="node">
<title>Node10</title>
<g id="a_Node000010"><a xlink:href="_algo748_8hh.html" target="_top" xlink:title=" ">
<polygon fill="white" stroke="#666666" points="359.5,-30.5 222,-30.5 222,0 359.5,0 359.5,-30.5"/>
<text xml:space="preserve" text-anchor="start" x="230" y="-17" font-family="Helvetica,sans-Serif" font-size="10.00">include/Optimist/RootFinder</text>
<text xml:space="preserve" text-anchor="middle" x="290.75" y="-5.75" font-family="Helvetica,sans-Serif" font-size="10.00">/Algo748.hh</text>
</a>
</g>
</g>
<!-- Node9&#45;&gt;Node10 -->
<g id="edge9_Node000009_Node000010" class="edge">
<title>Node9&#45;&gt;Node10</title>
<g id="a_edge9_Node000009_Node000010"><a xlink:title=" ">
<path fill="none" stroke="#63b8ff" d="M342.47,-59.02C331.24,-49.73 318.44,-39.15 308.38,-30.83"/>
<polygon fill="#63b8ff" stroke="#63b8ff" points="339.95,-61.47 349.88,-65.15 344.41,-56.08 339.95,-61.47"/>
</a>
</g>
</g>
<!-- Node11 -->
<g id="Node000011" class="node">
<title>Node11</title>
<g id="a_Node000011"><a xlink:href="_chandrupatla_8hh.html" target="_top" xlink:title=" ">
<polygon fill="white" stroke="#666666" points="515.5,-30.5 378,-30.5 378,0 515.5,0 515.5,-30.5"/>
<text xml:space="preserve" text-anchor="start" x="386" y="-17" font-family="Helvetica,sans-Serif" font-size="10.00">include/Optimist/RootFinder</text>
<text xml:space="preserve" text-anchor="middle" x="446.75" y="-5.75" font-family="Helvetica,sans-Serif" font-size="10.00">/Chandrupatla.hh</text>
</a>
</g>
</g>
<!-- Node9&#45;&gt;Node11 -->
<g id="edge10_Node000009_Node000011" class="edge">
<title>Node9&#45;&gt;Node11</title>
<g id="a_edge10_Node000009_Node000011"><a xlink:title=" ">
<path fill="none" stroke="#63b8ff" d="M395.03,-59.02C406.26,-49.73 419.06,-39.15 429.12,-30.83"/>
<polygon fill="#63b8ff" stroke="#63b8ff" points="393.09,-56.08 387.62,-65.15 397.55,-61.47 393.09,-56.08"/>
</a>
</g>
</g>
<!-- Node17 -->
<g id="Node000017" class="node">
<title>Node17</title>
<g id="a_Node000017"><a xlink:href="_broyden_8hh.html" target="_top" xlink:title=" ">
<polygon fill="white" stroke="#666666" points="1139.5,-30.5 1002,-30.5 1002,0 1139.5,0 1139.5,-30.5"/>
<text xml:space="preserve" text-anchor="start" x="1010" y="-17" font-family="Helvetica,sans-Serif" font-size="10.00">include/Optimist/RootFinder</text>
<text xml:space="preserve" text-anchor="middle" x="1070.75" y="-5.75" font-family="Helvetica,sans-Serif" font-size="10.00">/Broyden.hh</text>
</a>
</g>
</g>
<!-- Node16&#45;&gt;Node17 -->
<g id="edge16_Node000016_Node000017" class="edge">
<title>Node16&#45;&gt;Node17</title>
<g id="a_edge16_Node000016_Node000017"><a xlink:title=" ">
<path fill="none" stroke="#63b8ff" d="M1122.47,-59.02C1111.24,-49.73 1098.44,-39.15 1088.38,-30.83"/>
<polygon fill="#63b8ff" stroke="#63b8ff" points="1119.95,-61.47 1129.88,-65.15 1124.41,-56.08 1119.95,-61.47"/>
</a>
</g>
</g>
<!-- Node18 -->
<g id="Node000018" class="node">
<title>Node18</title>
<g id="a_Node000018"><a xlink:href="_greenstadt_8hh.html" target="_top" xlink:title=" ">
<polygon fill="white" stroke="#666666" points="1295.5,-30.5 1158,-30.5 1158,0 1295.5,0 1295.5,-30.5"/>
<text xml:space="preserve" text-anchor="start" x="1166" y="-17" font-family="Helvetica,sans-Serif" font-size="10.00">include/Optimist/RootFinder</text>
<text xml:space="preserve" text-anchor="middle" x="1226.75" y="-5.75" font-family="Helvetica,sans-Serif" font-size="10.00">/Greenstadt.hh</text>
</a>
</g>
</g>
<!-- Node16&#45;&gt;Node18 -->
<g id="edge17_Node000016_Node000018" class="edge">
<title>Node16&#45;&gt;Node18</title>
<g id="a_edge17_Node000016_Node000018"><a xlink:title=" ">
<path fill="none" stroke="#63b8ff" d="M1175.03,-59.02C1186.26,-49.73 1199.06,-39.15 1209.12,-30.83"/>
<polygon fill="#63b8ff" stroke="#63b8ff" points="1173.09,-56.08 1167.62,-65.15 1177.55,-61.47 1173.09,-56.08"/>
</a>
</g>
</g>
<!-- Node21 -->
<g id="Node000021" class="node">
<title>Node21</title>
<g id="a_Node000021"><a xlink:href="_booth_8hh.html" target="_top" xlink:title=" ">
<polygon fill="white" stroke="#666666" points="975.38,-163.5 852.12,-163.5 852.12,-133 975.38,-133 975.38,-163.5"/>
<text xml:space="preserve" text-anchor="start" x="860.12" y="-150" font-family="Helvetica,sans-Serif" font-size="10.00">include/Optimist/TestSet</text>
<text xml:space="preserve" text-anchor="middle" x="913.75" y="-138.75" font-family="Helvetica,sans-Serif" font-size="10.00">/Booth.hh</text>
</a>
</g>
</g>
<!-- Node20&#45;&gt;Node21 -->
<g id="edge20_Node000020_Node000021" class="edge">
<title>Node20&#45;&gt;Node21</title>
<g id="a_edge20_Node000020_Node000021"><a xlink:title=" ">
<path fill="none" stroke="#63b8ff" d="M1468.03,-204.88C1358.48,-199.73 1155.42,-187.67 983.75,-163.5 981.05,-163.12 978.29,-162.7 975.52,-162.25"/>
<polygon fill="#63b8ff" stroke="#63b8ff" points="1467.64,-208.37 1477.79,-205.33 1467.97,-201.37 1467.64,-208.37"/>
</a>
</g>
</g>
<!-- Node22 -->
<g id="Node000022" class="node">
<title>Node22</title>
<g id="a_Node000022"><a xlink:href="_brown_8hh.html" target="_top" xlink:title=" ">
<polygon fill="white" stroke="#666666" points="1116.38,-163.5 993.12,-163.5 993.12,-133 1116.38,-133 1116.38,-163.5"/>
<text xml:space="preserve" text-anchor="start" x="1001.12" y="-150" font-family="Helvetica,sans-Serif" font-size="10.00">include/Optimist/TestSet</text>
<text xml:space="preserve" text-anchor="middle" x="1054.75" y="-138.75" font-family="Helvetica,sans-Serif" font-size="10.00">/Brown.hh</text>
</a>
</g>
</g>
<!-- Node20&#45;&gt;Node22 -->
<g id="edge21_Node000020_Node000022" class="edge">
<title>Node20&#45;&gt;Node22</title>
<g id="a_edge21_Node000020_Node000022"><a xlink:title=" ">
<path fill="none" stroke="#63b8ff" d="M1467.57,-201.97C1382.28,-194.88 1243.54,-181.81 1124.75,-163.5 1122.05,-163.08 1119.3,-162.63 1116.53,-162.16"/>
<polygon fill="#63b8ff" stroke="#63b8ff" points="1467.23,-205.45 1477.48,-202.78 1467.8,-198.47 1467.23,-205.45"/>
</a>
</g>
</g>
<!-- Node23 -->
<g id="Node000023" class="node">
<title>Node23</title>
<g id="a_Node000023"><a xlink:href="_cos_8hh.html" target="_top" xlink:title=" ">
<polygon fill="white" stroke="#666666" points="1257.38,-163.5 1134.12,-163.5 1134.12,-133 1257.38,-133 1257.38,-163.5"/>
<text xml:space="preserve" text-anchor="start" x="1142.12" y="-150" font-family="Helvetica,sans-Serif" font-size="10.00">include/Optimist/TestSet</text>
<text xml:space="preserve" text-anchor="middle" x="1195.75" y="-138.75" font-family="Helvetica,sans-Serif" font-size="10.00">/Cos.hh</text>
</a>
</g>
</g>
<!-- Node20&#45;&gt;Node23 -->
<g id="edge22_Node000020_Node000023" class="edge">
<title>Node20&#45;&gt;Node23</title>
<g id="a_edge22_Node000020_Node000023"><a xlink:title=" ">
<path fill="none" stroke="#63b8ff" d="M1474.1,-197.38C1417.12,-188.84 1336.29,-176.25 1265.75,-163.5 1263.07,-163.01 1260.32,-162.51 1257.56,-161.99"/>
<polygon fill="#63b8ff" stroke="#63b8ff" points="1473.27,-200.79 1483.68,-198.8 1474.3,-193.87 1473.27,-200.79"/>
</a>
</g>
</g>
<!-- Node24 -->
<g id="Node000024" class="node">
<title>Node24</title>
<g id="a_Node000024"><a xlink:href="_cosh_8hh.html" target="_top" xlink:title=" ">
<polygon fill="white" stroke="#666666" points="1398.38,-163.5 1275.12,-163.5 1275.12,-133 1398.38,-133 1398.38,-163.5"/>
<text xml:space="preserve" text-anchor="start" x="1283.12" y="-150" font-family="Helvetica,sans-Serif" font-size="10.00">include/Optimist/TestSet</text>
<text xml:space="preserve" text-anchor="middle" x="1336.75" y="-138.75" font-family="Helvetica,sans-Serif" font-size="10.00">/Cosh.hh</text>
</a>
</g>
</g>
<!-- Node20&#45;&gt;Node24 -->
<g id="edge23_Node000020_Node000024" class="edge">
<title>Node20&#45;&gt;Node24</title>
<g id="a_edge23_Node000020_Node000024"><a xlink:title=" ">
<path fill="none" stroke="#63b8ff" d="M1504.47,-196.05C1471.13,-186.75 1424.9,-173.85 1389.41,-163.94"/>
<polygon fill="#63b8ff" stroke="#63b8ff" points="1503.21,-199.33 1513.79,-198.65 1505.09,-192.59 1503.21,-199.33"/>
</a>
</g>
</g>
<!-- Node25 -->
<g id="Node000025" class="node">
<title>Node25</title>
<g id="a_Node000025"><a xlink:href="_elliptic_paraboloid_8hh.html" target="_top" xlink:title=" ">
<polygon fill="white" stroke="#666666" points="1539.38,-163.5 1416.12,-163.5 1416.12,-133 1539.38,-133 1539.38,-163.5"/>
<text xml:space="preserve" text-anchor="start" x="1424.12" y="-150" font-family="Helvetica,sans-Serif" font-size="10.00">include/Optimist/TestSet</text>
<text xml:space="preserve" text-anchor="middle" x="1477.75" y="-138.75" font-family="Helvetica,sans-Serif" font-size="10.00">/EllipticParaboloid.hh</text>
</a>
</g>
</g>
<!-- Node20&#45;&gt;Node25 -->
<g id="edge24_Node000020_Node000025" class="edge">
<title>Node20&#45;&gt;Node25</title>
<g id="a_edge24_Node000020_Node000025"><a xlink:title=" ">
<path fill="none" stroke="#63b8ff" d="M1528.33,-191.79C1517.89,-183.01 1505.12,-172.27 1495.03,-163.78"/>
<polygon fill="#63b8ff" stroke="#63b8ff" points="1526.05,-194.45 1535.96,-198.21 1530.56,-189.09 1526.05,-194.45"/>
</a>
</g>
</g>
<!-- Node26 -->
<g id="Node000026" class="node">
<title>Node26</title>
<g id="a_Node000026"><a xlink:href="_linear_8hh.html" target="_top" xlink:title=" ">
<polygon fill="white" stroke="#666666" points="1680.38,-163.5 1557.12,-163.5 1557.12,-133 1680.38,-133 1680.38,-163.5"/>
<text xml:space="preserve" text-anchor="start" x="1565.12" y="-150" font-family="Helvetica,sans-Serif" font-size="10.00">include/Optimist/TestSet</text>
<text xml:space="preserve" text-anchor="middle" x="1618.75" y="-138.75" font-family="Helvetica,sans-Serif" font-size="10.00">/Linear.hh</text>
</a>
</g>
</g>
<!-- Node20&#45;&gt;Node26 -->
<g id="edge25_Node000020_Node000026" class="edge">
<title>Node20&#45;&gt;Node26</title>
<g id="a_edge25_Node000020_Node000026"><a xlink:title=" ">
<path fill="none" stroke="#63b8ff" d="M1567.13,-192.06C1577.78,-183.23 1590.88,-172.36 1601.23,-163.78"/>
<polygon fill="#63b8ff" stroke="#63b8ff" points="1565.16,-189.14 1559.7,-198.22 1569.63,-194.53 1565.16,-189.14"/>
</a>
</g>
</g>
<!-- Node27 -->
<g id="Node000027" class="node">
<title>Node27</title>
<g id="a_Node000027"><a xlink:href="_quadratic_8hh.html" target="_top" xlink:title=" ">
<polygon fill="white" stroke="#666666" points="1821.38,-163.5 1698.12,-163.5 1698.12,-133 1821.38,-133 1821.38,-163.5"/>
<text xml:space="preserve" text-anchor="start" x="1706.12" y="-150" font-family="Helvetica,sans-Serif" font-size="10.00">include/Optimist/TestSet</text>
<text xml:space="preserve" text-anchor="middle" x="1759.75" y="-138.75" font-family="Helvetica,sans-Serif" font-size="10.00">/Quadratic.hh</text>
</a>
</g>
</g>
<!-- Node20&#45;&gt;Node27 -->
<g id="edge26_Node000020_Node000027" class="edge">
<title>Node20&#45;&gt;Node27</title>
<g id="a_edge26_Node000020_Node000027"><a xlink:title=" ">
<path fill="none" stroke="#63b8ff" d="M1591.24,-196.05C1624.73,-186.75 1671.18,-173.85 1706.84,-163.94"/>
<polygon fill="#63b8ff" stroke="#63b8ff" points="1590.57,-192.6 1581.87,-198.65 1592.44,-199.35 1590.57,-192.6"/>
</a>
</g>
</g>
<!-- Node28 -->
<g id="Node000028" class="node">
<title>Node28</title>
<g id="a_Node000028"><a xlink:href="_rosenbrock_8hh.html" target="_top" xlink:title=" ">
<polygon fill="white" stroke="#666666" points="1962.38,-163.5 1839.12,-163.5 1839.12,-133 1962.38,-133 1962.38,-163.5"/>
<text xml:space="preserve" text-anchor="start" x="1847.12" y="-150" font-family="Helvetica,sans-Serif" font-size="10.00">include/Optimist/TestSet</text>
<text xml:space="preserve" text-anchor="middle" x="1900.75" y="-138.75" font-family="Helvetica,sans-Serif" font-size="10.00">/Rosenbrock.hh</text>
</a>
</g>
</g>
<!-- Node20&#45;&gt;Node28 -->
<g id="edge27_Node000020_Node000028" class="edge">
<title>Node20&#45;&gt;Node28</title>
<g id="a_edge27_Node000020_Node000028"><a xlink:title=" ">
<path fill="none" stroke="#63b8ff" d="M1621.66,-197.39C1678.85,-188.86 1759.97,-176.28 1830.75,-163.5 1833.44,-163.02 1836.18,-162.51 1838.94,-161.99"/>
<polygon fill="#63b8ff" stroke="#63b8ff" points="1621.42,-193.89 1612.05,-198.82 1622.45,-200.81 1621.42,-193.89"/>
</a>
</g>
</g>
<!-- Node29 -->
<g id="Node000029" class="node">
<title>Node29</title>
<g id="a_Node000029"><a xlink:href="_schaffer2_8hh.html" target="_top" xlink:title=" ">
<polygon fill="white" stroke="#666666" points="2103.38,-163.5 1980.12,-163.5 1980.12,-133 2103.38,-133 2103.38,-163.5"/>
<text xml:space="preserve" text-anchor="start" x="1988.12" y="-150" font-family="Helvetica,sans-Serif" font-size="10.00">include/Optimist/TestSet</text>
<text xml:space="preserve" text-anchor="middle" x="2041.75" y="-138.75" font-family="Helvetica,sans-Serif" font-size="10.00">/Schaffer2.hh</text>
</a>
</g>
</g>
<!-- Node20&#45;&gt;Node29 -->
<g id="edge28_Node000020_Node000029" class="edge">
<title>Node20&#45;&gt;Node29</title>
<g id="a_edge28_Node000020_Node000029"><a xlink:title=" ">
<path fill="none" stroke="#63b8ff" d="M1627.74,-202.01C1713.21,-194.94 1852.5,-181.87 1971.75,-163.5 1974.45,-163.08 1977.2,-162.64 1979.97,-162.16"/>
<polygon fill="#63b8ff" stroke="#63b8ff" points="1627.49,-198.52 1617.81,-202.82 1628.07,-205.49 1627.49,-198.52"/>
</a>
</g>
</g>
<!-- Node30 -->
<g id="Node000030" class="node">
<title>Node30</title>
<g id="a_Node000030"><a xlink:href="_sin_8hh.html" target="_top" xlink:title=" ">
<polygon fill="white" stroke="#666666" points="2244.38,-163.5 2121.12,-163.5 2121.12,-133 2244.38,-133 2244.38,-163.5"/>
<text xml:space="preserve" text-anchor="start" x="2129.12" y="-150" font-family="Helvetica,sans-Serif" font-size="10.00">include/Optimist/TestSet</text>
<text xml:space="preserve" text-anchor="middle" x="2182.75" y="-138.75" font-family="Helvetica,sans-Serif" font-size="10.00">/Sin.hh</text>
</a>
</g>
</g>
<!-- Node20&#45;&gt;Node30 -->
<g id="edge29_Node000020_Node000030" class="edge">
<title>Node20&#45;&gt;Node30</title>
<g id="a_edge29_Node000020_Node000030"><a xlink:title=" ">
<path fill="none" stroke="#63b8ff" d="M1627.61,-204.89C1737.36,-199.75 1940.77,-187.7 2112.75,-163.5 2115.45,-163.12 2118.21,-162.7 2120.98,-162.25"/>
<polygon fill="#63b8ff" stroke="#63b8ff" points="1627.66,-201.38 1617.83,-205.34 1627.98,-208.38 1627.66,-201.38"/>
</a>
</g>
</g>
<!-- Node31 -->
<g id="Node000031" class="node">
<title>Node31</title>
<g id="a_Node000031"><a xlink:href="_sinh_8hh.html" target="_top" xlink:title=" ">
<polygon fill="white" stroke="#666666" points="2385.38,-163.5 2262.12,-163.5 2262.12,-133 2385.38,-133 2385.38,-163.5"/>
<text xml:space="preserve" text-anchor="start" x="2270.12" y="-150" font-family="Helvetica,sans-Serif" font-size="10.00">include/Optimist/TestSet</text>
<text xml:space="preserve" text-anchor="middle" x="2323.75" y="-138.75" font-family="Helvetica,sans-Serif" font-size="10.00">/Sinh.hh</text>
</a>
</g>
</g>
<!-- Node20&#45;&gt;Node31 -->
<g id="edge30_Node000020_Node000031" class="edge">
<title>Node20&#45;&gt;Node31</title>
<g id="a_edge30_Node000020_Node000031"><a xlink:title=" ">
<path fill="none" stroke="#63b8ff" d="M1627.71,-206.65C1758.95,-203.43 2028.03,-193.46 2253.75,-163.5 2256.45,-163.14 2259.21,-162.74 2261.99,-162.3"/>
<polygon fill="#63b8ff" stroke="#63b8ff" points="1627.63,-203.15 1617.72,-206.89 1627.8,-210.15 1627.63,-203.15"/>
</a>
</g>
</g>
<!-- Node32 -->
<g id="Node000032" class="node">
<title>Node32</title>
<g id="a_Node000032"><a xlink:href="_test11_8hh.html" target="_top" xlink:title=" ">
<polygon fill="white" stroke="#666666" points="2526.38,-163.5 2403.12,-163.5 2403.12,-133 2526.38,-133 2526.38,-163.5"/>
<text xml:space="preserve" text-anchor="start" x="2411.12" y="-150" font-family="Helvetica,sans-Serif" font-size="10.00">include/Optimist/TestSet</text>
<text xml:space="preserve" text-anchor="middle" x="2464.75" y="-138.75" font-family="Helvetica,sans-Serif" font-size="10.00">/Test11.hh</text>
</a>
</g>
</g>
<!-- Node20&#45;&gt;Node32 -->
<g id="edge31_Node000020_Node000032" class="edge">
<title>Node20&#45;&gt;Node32</title>
<g id="a_edge31_Node000020_Node000032"><a xlink:title=" ">
<path fill="none" stroke="#63b8ff" d="M1627.8,-207.85C1778.52,-206.46 2114.47,-199.21 2394.75,-163.5 2397.46,-163.16 2400.21,-162.76 2403,-162.34"/>
<polygon fill="#63b8ff" stroke="#63b8ff" points="1627.88,-204.35 1617.91,-207.93 1627.94,-211.35 1627.88,-204.35"/>
</a>
</g>
</g>
</g>
</svg>
