<?xml version="1.0" encoding="UTF-8" standalone="no"?>
<!DOCTYPE svg PUBLIC "-//W3C//DTD SVG 1.1//EN"
 "http://www.w3.org/Graphics/SVG/1.1/DTD/svg11.dtd">
<!-- Generated by graphviz version 14.1.2 (20260124.0452)
 -->
<!-- Title: core/include/Optimist/RootFinder/QuasiNewton.hh Pages: 1 -->
<svg width="278pt" height="105pt"
 viewBox="0.00 0.00 278.00 105.00" xmlns="http://www.w3.org/2000/svg" xmlns:xlink="http://www.w3.org/1999/xlink">
<g id="graph0" class="graph" transform="scale(1 1) rotate(0) translate(4 101)">
<title>core/include/Optimist/RootFinder/QuasiNewton.hh</title>
<!-- Node1 -->
<g id="Node000001" class="node">
<title>Node1</title>
<g id="a_Node000001"><a xlink:title=" ">
<polygon fill="#999999" stroke="#666666" points="203.12,-97 60.38,-97 60.38,-66.5 203.12,-66.5 203.12,-97"/>
<text xml:space="preserve" text-anchor="start" x="68.38" y="-83.5" font-family="Helvetica,sans-Serif" font-size="10.00">core/include/Optimist</text>
<text xml:space="preserve" text-anchor="middle" x="131.75" y="-72.25" font-family="Helvetica,sans-Serif" font-size="10.00">/RootFinder/QuasiNewton.hh</text>
</a>
</g>
</g>
<!-- Node2 -->
<g id="Node000002" class="node">
<title>Node2</title>
<g id="a_Node000002"><a xlink:href="_broyden_8hh.html" target="_top" xlink:title=" ">
<polygon fill="white" stroke="#666666" points="119.5,-30.5 0,-30.5 0,0 119.5,0 119.5,-30.5"/>
<text xml:space="preserve" text-anchor="start" x="8" y="-17" font-family="Helvetica,sans-Serif" font-size="10.00">core/include/Optimist</text>
<text xml:space="preserve" text-anchor="middle" x="59.75" y="-5.75" font-family="Helvetica,sans-Serif" font-size="10.00">/RootFinder/Broyden.hh</text>
</a>
</g>
</g>
<!-- Node1&#45;&gt;Node2 -->
<g id="edge1_Node000001_Node000002" class="edge">
<title>Node1&#45;&gt;Node2</title>
<g id="a_edge1_Node000001_Node000002"><a xlink:title=" ">
<path fill="none" stroke="#63b8ff" d="M106.87,-58.46C96.66,-49.32 85.13,-38.98 76.02,-30.83"/>
<polygon fill="#63b8ff" stroke="#63b8ff" points="104.5,-61.04 114.28,-65.1 109.17,-55.82 104.5,-61.04"/>
</a>
</g>
</g>
<!-- Node3 -->
<g id="Node000003" class="node">
<title>Node3</title>
<g id="a_Node000003"><a xlink:href="_greenstadt_8hh.html" target="_top" xlink:title=" ">
<polygon fill="white" stroke="#666666" points="269.5,-30.5 138,-30.5 138,0 269.5,0 269.5,-30.5"/>
<text xml:space="preserve" text-anchor="start" x="146" y="-17" font-family="Helvetica,sans-Serif" font-size="10.00">core/include/Optimist</text>
<text xml:space="preserve" text-anchor="middle" x="203.75" y="-5.75" font-family="Helvetica,sans-Serif" font-size="10.00">/RootFinder/Greenstadt.hh</text>
</a>
</g>
</g>
<!-- Node1&#45;&gt;Node3 -->
<g id="edge2_Node000001_Node000003" class="edge">
<title>Node1&#45;&gt;Node3</title>
<g id="a_edge2_Node000001_Node000003"><a xlink:title=" ">
<path fill="none" stroke="#63b8ff" d="M156.63,-58.46C166.84,-49.32 178.37,-38.98 187.48,-30.83"/>
<polygon fill="#63b8ff" stroke="#63b8ff" points="154.33,-55.82 149.22,-65.1 159,-61.04 154.33,-55.82"/>
</a>
</g>
</g>
</g>
</svg>
