<?xml version="1.0" encoding="UTF-8" standalone="no"?>
<!DOCTYPE svg PUBLIC "-//W3C//DTD SVG 1.1//EN"
 "http://www.w3.org/Graphics/SVG/1.1/DTD/svg11.dtd">
<!-- Generated by graphviz version 12.2.1 (20241206.2353)
 -->
<!-- Title: include/Optimist/RootFinder.hh Pages: 1 -->
<svg width="380pt" height="160pt"
 viewBox="0.00 0.00 379.50 160.25" xmlns="http://www.w3.org/2000/svg" xmlns:xlink="http://www.w3.org/1999/xlink">
<g id="graph0" class="graph" transform="scale(1 1) rotate(0) translate(4 156.25)">
<title>include/Optimist/RootFinder.hh</title>
<!-- Node1 -->
<g id="Node000001" class="node">
<title>Node1</title>
<g id="a_Node000001"><a xlink:title=" ">
<polygon fill="#999999" stroke="#666666" points="221.88,-152.25 71.62,-152.25 71.62,-133 221.88,-133 221.88,-152.25"/>
<text text-anchor="middle" x="146.75" y="-138.75" font-family="Helvetica,sans-Serif" font-size="10.00">include/Optimist/RootFinder.hh</text>
</a>
</g>
</g>
<!-- Node2 -->
<g id="Node000002" class="node">
<title>Node2</title>
<g id="a_Node000002"><a xlink:href="_root_finder_2_newton_8hh.html" target="_top" xlink:title=" ">
<polygon fill="white" stroke="#666666" points="137.5,-97 0,-97 0,-66.5 137.5,-66.5 137.5,-97"/>
<text text-anchor="start" x="8" y="-83.5" font-family="Helvetica,sans-Serif" font-size="10.00">include/Optimist/RootFinder</text>
<text text-anchor="middle" x="68.75" y="-72.25" font-family="Helvetica,sans-Serif" font-size="10.00">/Newton.hh</text>
</a>
</g>
</g>
<!-- Node1&#45;&gt;Node2 -->
<g id="edge1_Node000001_Node000002" class="edge">
<title>Node1&#45;&gt;Node2</title>
<g id="a_edge1_Node000001_Node000002"><a xlink:title=" ">
<path fill="none" stroke="#63b8ff" d="M125.82,-125.82C114.05,-116.95 99.48,-105.94 88,-97.28"/>
<polygon fill="#63b8ff" stroke="#63b8ff" points="123.61,-128.54 133.7,-131.77 127.82,-122.95 123.61,-128.54"/>
</a>
</g>
</g>
<!-- Node3 -->
<g id="Node000003" class="node">
<title>Node3</title>
<g id="a_Node000003"><a xlink:href="_quasi_newton_8hh.html" target="_top" xlink:title=" ">
<polygon fill="white" stroke="#666666" points="293.5,-97 156,-97 156,-66.5 293.5,-66.5 293.5,-97"/>
<text text-anchor="start" x="164" y="-83.5" font-family="Helvetica,sans-Serif" font-size="10.00">include/Optimist/RootFinder</text>
<text text-anchor="middle" x="224.75" y="-72.25" font-family="Helvetica,sans-Serif" font-size="10.00">/QuasiNewton.hh</text>
</a>
</g>
</g>
<!-- Node1&#45;&gt;Node3 -->
<g id="edge2_Node000001_Node000003" class="edge">
<title>Node1&#45;&gt;Node3</title>
<g id="a_edge2_Node000001_Node000003"><a xlink:title=" ">
<path fill="none" stroke="#63b8ff" d="M167.68,-125.82C179.45,-116.95 194.02,-105.94 205.5,-97.28"/>
<polygon fill="#63b8ff" stroke="#63b8ff" points="165.68,-122.95 159.8,-131.77 169.89,-128.54 165.68,-122.95"/>
</a>
</g>
</g>
<!-- Node4 -->
<g id="Node000004" class="node">
<title>Node4</title>
<g id="a_Node000004"><a xlink:href="_broyden_8hh.html" target="_top" xlink:title=" ">
<polygon fill="white" stroke="#666666" points="215.5,-30.5 78,-30.5 78,0 215.5,0 215.5,-30.5"/>
<text text-anchor="start" x="86" y="-17" font-family="Helvetica,sans-Serif" font-size="10.00">include/Optimist/RootFinder</text>
<text text-anchor="middle" x="146.75" y="-5.75" font-family="Helvetica,sans-Serif" font-size="10.00">/Broyden.hh</text>
</a>
</g>
</g>
<!-- Node3&#45;&gt;Node4 -->
<g id="edge3_Node000003_Node000004" class="edge">
<title>Node3&#45;&gt;Node4</title>
<g id="a_edge3_Node000003_Node000004"><a xlink:title=" ">
<path fill="none" stroke="#63b8ff" d="M198.47,-59.02C187.24,-49.73 174.44,-39.15 164.38,-30.83"/>
<polygon fill="#63b8ff" stroke="#63b8ff" points="195.95,-61.47 205.88,-65.15 200.41,-56.08 195.95,-61.47"/>
</a>
</g>
</g>
<!-- Node5 -->
<g id="Node000005" class="node">
<title>Node5</title>
<g id="a_Node000005"><a xlink:href="_greenstadt_8hh.html" target="_top" xlink:title=" ">
<polygon fill="white" stroke="#666666" points="371.5,-30.5 234,-30.5 234,0 371.5,0 371.5,-30.5"/>
<text text-anchor="start" x="242" y="-17" font-family="Helvetica,sans-Serif" font-size="10.00">include/Optimist/RootFinder</text>
<text text-anchor="middle" x="302.75" y="-5.75" font-family="Helvetica,sans-Serif" font-size="10.00">/Greenstadt.hh</text>
</a>
</g>
</g>
<!-- Node3&#45;&gt;Node5 -->
<g id="edge4_Node000003_Node000005" class="edge">
<title>Node3&#45;&gt;Node5</title>
<g id="a_edge4_Node000003_Node000005"><a xlink:title=" ">
<path fill="none" stroke="#63b8ff" d="M251.03,-59.02C262.26,-49.73 275.06,-39.15 285.12,-30.83"/>
<polygon fill="#63b8ff" stroke="#63b8ff" points="249.09,-56.08 243.62,-65.15 253.55,-61.47 249.09,-56.08"/>
</a>
</g>
</g>
</g>
</svg>
