<?xml version="1.0" encoding="UTF-8" standalone="no"?>
<!DOCTYPE svg PUBLIC "-//W3C//DTD SVG 1.1//EN"
 "http://www.w3.org/Graphics/SVG/1.1/DTD/svg11.dtd">
<!-- Generated by graphviz version 14.1.2 (20260124.0452)
 -->
<!-- Title: core/include/Optimist/RootFinder.hh Pages: 1 -->
<svg width="1087pt" height="172pt"
 viewBox="0.00 0.00 1087.00 172.00" xmlns="http://www.w3.org/2000/svg" xmlns:xlink="http://www.w3.org/1999/xlink">
<g id="graph0" class="graph" transform="scale(1 1) rotate(0) translate(4 167.5)">
<title>core/include/Optimist/RootFinder.hh</title>
<!-- Node1 -->
<g id="Node000001" class="node">
<title>Node1</title>
<g id="a_Node000001"><a xlink:title=" ">
<polygon fill="#999999" stroke="#666666" points="607.5,-163.5 499.25,-163.5 499.25,-133 607.5,-133 607.5,-163.5"/>
<text xml:space="preserve" text-anchor="start" x="507.25" y="-150" font-family="Helvetica,sans-Serif" font-size="10.00">core/include/Optimist</text>
<text xml:space="preserve" text-anchor="middle" x="553.38" y="-138.75" font-family="Helvetica,sans-Serif" font-size="10.00">/RootFinder.hh</text>
</a>
</g>
</g>
<!-- Node2 -->
<g id="Node000002" class="node">
<title>Node2</title>
<g id="a_Node000002"><a xlink:href="_bracketing_8hh.html" target="_top" xlink:title=" ">
<polygon fill="white" stroke="#666666" points="198.38,-97 68.38,-97 68.38,-66.5 198.38,-66.5 198.38,-97"/>
<text xml:space="preserve" text-anchor="start" x="76.38" y="-83.5" font-family="Helvetica,sans-Serif" font-size="10.00">core/include/Optimist</text>
<text xml:space="preserve" text-anchor="middle" x="133.38" y="-72.25" font-family="Helvetica,sans-Serif" font-size="10.00">/RootFinder/Bracketing.hh</text>
</a>
</g>
</g>
<!-- Node1&#45;&gt;Node2 -->
<g id="edge1_Node000001_Node000002" class="edge">
<title>Node1&#45;&gt;Node2</title>
<g id="a_edge1_Node000001_Node000002"><a xlink:title=" ">
<path fill="none" stroke="#63b8ff" d="M487.8,-138.64C418.1,-129.28 304.75,-113.44 207.38,-97 204.54,-96.52 201.64,-96.02 198.72,-95.5"/>
<polygon fill="#63b8ff" stroke="#63b8ff" points="487.14,-142.08 497.52,-139.94 488.07,-135.15 487.14,-142.08"/>
</a>
</g>
</g>
<!-- Node5 -->
<g id="Node000005" class="node">
<title>Node5</title>
<g id="a_Node000005"><a xlink:href="_chebyshev_8hh.html" target="_top" xlink:title=" ">
<polygon fill="white" stroke="#666666" points="348.12,-97 216.62,-97 216.62,-66.5 348.12,-66.5 348.12,-97"/>
<text xml:space="preserve" text-anchor="start" x="224.62" y="-83.5" font-family="Helvetica,sans-Serif" font-size="10.00">core/include/Optimist</text>
<text xml:space="preserve" text-anchor="middle" x="282.38" y="-72.25" font-family="Helvetica,sans-Serif" font-size="10.00">/RootFinder/Chebyshev.hh</text>
</a>
</g>
</g>
<!-- Node1&#45;&gt;Node5 -->
<g id="edge4_Node000001_Node000005" class="edge">
<title>Node1&#45;&gt;Node5</title>
<g id="a_edge4_Node000001_Node000005"><a xlink:title=" ">
<path fill="none" stroke="#63b8ff" d="M487.75,-131.63C443.98,-121.21 386.8,-107.6 343.9,-97.39"/>
<polygon fill="#63b8ff" stroke="#63b8ff" points="486.85,-135.01 497.39,-133.92 488.47,-128.2 486.85,-135.01"/>
</a>
</g>
</g>
<!-- Node6 -->
<g id="Node000006" class="node">
<title>Node6</title>
<g id="a_Node000006"><a xlink:href="_halley_8hh.html" target="_top" xlink:title=" ">
<polygon fill="white" stroke="#666666" points="476.25,-97 366.5,-97 366.5,-66.5 476.25,-66.5 476.25,-97"/>
<text xml:space="preserve" text-anchor="start" x="374.5" y="-83.5" font-family="Helvetica,sans-Serif" font-size="10.00">core/include/Optimist</text>
<text xml:space="preserve" text-anchor="middle" x="421.38" y="-72.25" font-family="Helvetica,sans-Serif" font-size="10.00">/RootFinder/Halley.hh</text>
</a>
</g>
</g>
<!-- Node1&#45;&gt;Node6 -->
<g id="edge5_Node000001_Node000006" class="edge">
<title>Node1&#45;&gt;Node6</title>
<g id="a_edge5_Node000001_Node000006"><a xlink:title=" ">
<path fill="none" stroke="#63b8ff" d="M513.08,-127.56C493.15,-117.82 469.5,-106.26 451.21,-97.33"/>
<polygon fill="#63b8ff" stroke="#63b8ff" points="511.54,-130.7 522.06,-131.95 514.61,-124.41 511.54,-130.7"/>
</a>
</g>
</g>
<!-- Node7 -->
<g id="Node000007" class="node">
<title>Node7</title>
<g id="a_Node000007"><a xlink:href="_newton_8hh.html" target="_top" xlink:title=" ">
<polygon fill="white" stroke="#666666" points="612,-97 494.75,-97 494.75,-66.5 612,-66.5 612,-97"/>
<text xml:space="preserve" text-anchor="start" x="502.75" y="-83.5" font-family="Helvetica,sans-Serif" font-size="10.00">core/include/Optimist</text>
<text xml:space="preserve" text-anchor="middle" x="553.38" y="-72.25" font-family="Helvetica,sans-Serif" font-size="10.00">/RootFinder/Newton.hh</text>
</a>
</g>
</g>
<!-- Node1&#45;&gt;Node7 -->
<g id="edge6_Node000001_Node000007" class="edge">
<title>Node1&#45;&gt;Node7</title>
<g id="a_edge6_Node000001_Node000007"><a xlink:title=" ">
<path fill="none" stroke="#63b8ff" d="M553.38,-121.31C553.38,-113.14 553.38,-104.41 553.38,-97.33"/>
<polygon fill="#63b8ff" stroke="#63b8ff" points="549.88,-121.1 553.38,-131.1 556.88,-121.1 549.88,-121.1"/>
</a>
</g>
</g>
<!-- Node8 -->
<g id="Node000008" class="node">
<title>Node8</title>
<g id="a_Node000008"><a xlink:href="_newton_raphson_8hh.html" target="_top" xlink:title=" ">
<polygon fill="white" stroke="#666666" points="786.5,-97 630.25,-97 630.25,-66.5 786.5,-66.5 786.5,-97"/>
<text xml:space="preserve" text-anchor="start" x="638.25" y="-83.5" font-family="Helvetica,sans-Serif" font-size="10.00">core/include/Optimist</text>
<text xml:space="preserve" text-anchor="middle" x="708.38" y="-72.25" font-family="Helvetica,sans-Serif" font-size="10.00">/RootFinder/NewtonRaphson.hh</text>
</a>
</g>
</g>
<!-- Node1&#45;&gt;Node8 -->
<g id="edge7_Node000001_Node000008" class="edge">
<title>Node1&#45;&gt;Node8</title>
<g id="a_edge7_Node000001_Node000008"><a xlink:title=" ">
<path fill="none" stroke="#63b8ff" d="M599.04,-128.25C622.69,-118.41 651.13,-106.57 673.07,-97.44"/>
<polygon fill="#63b8ff" stroke="#63b8ff" points="597.83,-124.96 589.94,-132.03 600.52,-131.42 597.83,-124.96"/>
</a>
</g>
</g>
<!-- Node9 -->
<g id="Node000009" class="node">
<title>Node9</title>
<g id="a_Node000009"><a xlink:href="_quasi_newton_8hh.html" target="_top" xlink:title=" ">
<polygon fill="white" stroke="#666666" points="947.75,-97 805,-97 805,-66.5 947.75,-66.5 947.75,-97"/>
<text xml:space="preserve" text-anchor="start" x="813" y="-83.5" font-family="Helvetica,sans-Serif" font-size="10.00">core/include/Optimist</text>
<text xml:space="preserve" text-anchor="middle" x="876.38" y="-72.25" font-family="Helvetica,sans-Serif" font-size="10.00">/RootFinder/QuasiNewton.hh</text>
</a>
</g>
</g>
<!-- Node1&#45;&gt;Node9 -->
<g id="edge8_Node000001_Node000009" class="edge">
<title>Node1&#45;&gt;Node9</title>
<g id="a_edge8_Node000001_Node000009"><a xlink:title=" ">
<path fill="none" stroke="#63b8ff" d="M618.95,-134.15C672.88,-123.39 749.18,-108.15 804.7,-97.06"/>
<polygon fill="#63b8ff" stroke="#63b8ff" points="618.41,-130.69 609.29,-136.08 619.78,-137.56 618.41,-130.69"/>
</a>
</g>
</g>
<!-- Node12 -->
<g id="Node000012" class="node">
<title>Node12</title>
<g id="a_Node000012"><a xlink:href="_varona_8hh.html" target="_top" xlink:title=" ">
<polygon fill="white" stroke="#666666" points="1079.12,-97 965.62,-97 965.62,-66.5 1079.12,-66.5 1079.12,-97"/>
<text xml:space="preserve" text-anchor="start" x="973.62" y="-83.5" font-family="Helvetica,sans-Serif" font-size="10.00">core/include/Optimist</text>
<text xml:space="preserve" text-anchor="middle" x="1022.38" y="-72.25" font-family="Helvetica,sans-Serif" font-size="10.00">/RootFinder/Varona.hh</text>
</a>
</g>
</g>
<!-- Node1&#45;&gt;Node12 -->
<g id="edge11_Node000001_Node000012" class="edge">
<title>Node1&#45;&gt;Node12</title>
<g id="a_edge11_Node000001_Node000012"><a xlink:title=" ">
<path fill="none" stroke="#63b8ff" d="M619.06,-140.87C699.05,-132.68 838.12,-117.1 956.38,-97 959.26,-96.51 962.22,-95.98 965.2,-95.42"/>
<polygon fill="#63b8ff" stroke="#63b8ff" points="618.8,-137.37 609.21,-141.87 619.51,-144.34 618.8,-137.37"/>
</a>
</g>
</g>
<!-- Node3 -->
<g id="Node000003" class="node">
<title>Node3</title>
<g id="a_Node000003"><a xlink:href="_algo748_8hh.html" target="_top" xlink:title=" ">
<polygon fill="white" stroke="#666666" points="118.75,-30.5 0,-30.5 0,0 118.75,0 118.75,-30.5"/>
<text xml:space="preserve" text-anchor="start" x="8" y="-17" font-family="Helvetica,sans-Serif" font-size="10.00">core/include/Optimist</text>
<text xml:space="preserve" text-anchor="middle" x="59.38" y="-5.75" font-family="Helvetica,sans-Serif" font-size="10.00">/RootFinder/Algo748.hh</text>
</a>
</g>
</g>
<!-- Node2&#45;&gt;Node3 -->
<g id="edge2_Node000002_Node000003" class="edge">
<title>Node2&#45;&gt;Node3</title>
<g id="a_edge2_Node000002_Node000003"><a xlink:title=" ">
<path fill="none" stroke="#63b8ff" d="M108.12,-58.74C97.55,-49.53 85.55,-39.06 76.1,-30.83"/>
<polygon fill="#63b8ff" stroke="#63b8ff" points="105.6,-61.19 115.44,-65.12 110.2,-55.91 105.6,-61.19"/>
</a>
</g>
</g>
<!-- Node4 -->
<g id="Node000004" class="node">
<title>Node4</title>
<g id="a_Node000004"><a xlink:href="_chandrupatla_8hh.html" target="_top" xlink:title=" ">
<polygon fill="white" stroke="#666666" points="278,-30.5 136.75,-30.5 136.75,0 278,0 278,-30.5"/>
<text xml:space="preserve" text-anchor="start" x="144.75" y="-17" font-family="Helvetica,sans-Serif" font-size="10.00">core/include/Optimist</text>
<text xml:space="preserve" text-anchor="middle" x="207.38" y="-5.75" font-family="Helvetica,sans-Serif" font-size="10.00">/RootFinder/Chandrupatla.hh</text>
</a>
</g>
</g>
<!-- Node2&#45;&gt;Node4 -->
<g id="edge3_Node000002_Node000004" class="edge">
<title>Node2&#45;&gt;Node4</title>
<g id="a_edge3_Node000002_Node000004"><a xlink:title=" ">
<path fill="none" stroke="#63b8ff" d="M158.63,-58.74C169.2,-49.53 181.2,-39.06 190.65,-30.83"/>
<polygon fill="#63b8ff" stroke="#63b8ff" points="156.55,-55.91 151.31,-65.12 161.15,-61.19 156.55,-55.91"/>
</a>
</g>
</g>
<!-- Node10 -->
<g id="Node000010" class="node">
<title>Node10</title>
<g id="a_Node000010"><a xlink:href="_broyden_8hh.html" target="_top" xlink:title=" ">
<polygon fill="white" stroke="#666666" points="864.12,-30.5 744.62,-30.5 744.62,0 864.12,0 864.12,-30.5"/>
<text xml:space="preserve" text-anchor="start" x="752.62" y="-17" font-family="Helvetica,sans-Serif" font-size="10.00">core/include/Optimist</text>
<text xml:space="preserve" text-anchor="middle" x="804.38" y="-5.75" font-family="Helvetica,sans-Serif" font-size="10.00">/RootFinder/Broyden.hh</text>
</a>
</g>
</g>
<!-- Node9&#45;&gt;Node10 -->
<g id="edge9_Node000009_Node000010" class="edge">
<title>Node9&#45;&gt;Node10</title>
<g id="a_edge9_Node000009_Node000010"><a xlink:title=" ">
<path fill="none" stroke="#63b8ff" d="M851.5,-58.46C841.29,-49.32 829.75,-38.98 820.65,-30.83"/>
<polygon fill="#63b8ff" stroke="#63b8ff" points="849.13,-61.04 858.91,-65.1 853.8,-55.82 849.13,-61.04"/>
</a>
</g>
</g>
<!-- Node11 -->
<g id="Node000011" class="node">
<title>Node11</title>
<g id="a_Node000011"><a xlink:href="_greenstadt_8hh.html" target="_top" xlink:title=" ">
<polygon fill="white" stroke="#666666" points="1014.12,-30.5 882.62,-30.5 882.62,0 1014.12,0 1014.12,-30.5"/>
<text xml:space="preserve" text-anchor="start" x="890.62" y="-17" font-family="Helvetica,sans-Serif" font-size="10.00">core/include/Optimist</text>
<text xml:space="preserve" text-anchor="middle" x="948.38" y="-5.75" font-family="Helvetica,sans-Serif" font-size="10.00">/RootFinder/Greenstadt.hh</text>
</a>
</g>
</g>
<!-- Node9&#45;&gt;Node11 -->
<g id="edge10_Node000009_Node000011" class="edge">
<title>Node9&#45;&gt;Node11</title>
<g id="a_edge10_Node000009_Node000011"><a xlink:title=" ">
<path fill="none" stroke="#63b8ff" d="M901.25,-58.46C911.46,-49.32 923,-38.98 932.1,-30.83"/>
<polygon fill="#63b8ff" stroke="#63b8ff" points="898.95,-55.82 893.84,-65.1 903.62,-61.04 898.95,-55.82"/>
</a>
</g>
</g>
</g>
</svg>
