<?xml version="1.0" encoding="UTF-8" standalone="no"?>
<!DOCTYPE svg PUBLIC "-//W3C//DTD SVG 1.1//EN"
 "http://www.w3.org/Graphics/SVG/1.1/DTD/svg11.dtd">
<!-- Generated by graphviz version 12.2.1 (20241206.2353)
 -->
<!-- Title: include/Optimist/RootFinder.hh Pages: 1 -->
<svg width="1004pt" height="160pt"
 viewBox="0.00 0.00 1003.50 160.25" xmlns="http://www.w3.org/2000/svg" xmlns:xlink="http://www.w3.org/1999/xlink">
<g id="graph0" class="graph" transform="scale(1 1) rotate(0) translate(4 156.25)">
<title>include/Optimist/RootFinder.hh</title>
<!-- Node1 -->
<g id="Node000001" class="node">
<title>Node1</title>
<g id="a_Node000001"><a xlink:title=" ">
<polygon fill="#999999" stroke="#666666" points="611.88,-152.25 461.62,-152.25 461.62,-133 611.88,-133 611.88,-152.25"/>
<text text-anchor="middle" x="536.75" y="-138.75" font-family="Helvetica,sans-Serif" font-size="10.00">include/Optimist/RootFinder.hh</text>
</a>
</g>
</g>
<!-- Node2 -->
<g id="Node000002" class="node">
<title>Node2</title>
<g id="a_Node000002"><a xlink:href="_bracketing_8hh.html" target="_top" xlink:title=" ">
<polygon fill="white" stroke="#666666" points="215.5,-97 78,-97 78,-66.5 215.5,-66.5 215.5,-97"/>
<text text-anchor="start" x="86" y="-83.5" font-family="Helvetica,sans-Serif" font-size="10.00">include/Optimist/RootFinder</text>
<text text-anchor="middle" x="146.75" y="-72.25" font-family="Helvetica,sans-Serif" font-size="10.00">/Bracketing.hh</text>
</a>
</g>
</g>
<!-- Node1&#45;&gt;Node2 -->
<g id="edge1_Node000001_Node000002" class="edge">
<title>Node1&#45;&gt;Node2</title>
<g id="a_edge1_Node000001_Node000002"><a xlink:title=" ">
<path fill="none" stroke="#63b8ff" d="M456.48,-131.01C393.39,-122.46 303.34,-109.79 224.75,-97 221.76,-96.51 218.71,-96.01 215.63,-95.48"/>
<polygon fill="#63b8ff" stroke="#63b8ff" points="455.67,-134.43 466.05,-132.3 456.6,-127.5 455.67,-134.43"/>
</a>
</g>
</g>
<!-- Node5 -->
<g id="Node000005" class="node">
<title>Node5</title>
<g id="a_Node000005"><a xlink:href="_chebyshev_8hh.html" target="_top" xlink:title=" ">
<polygon fill="white" stroke="#666666" points="371.5,-97 234,-97 234,-66.5 371.5,-66.5 371.5,-97"/>
<text text-anchor="start" x="242" y="-83.5" font-family="Helvetica,sans-Serif" font-size="10.00">include/Optimist/RootFinder</text>
<text text-anchor="middle" x="302.75" y="-72.25" font-family="Helvetica,sans-Serif" font-size="10.00">/Chebyshev.hh</text>
</a>
</g>
</g>
<!-- Node1&#45;&gt;Node5 -->
<g id="edge4_Node000001_Node000005" class="edge">
<title>Node1&#45;&gt;Node5</title>
<g id="a_edge4_Node000001_Node000005"><a xlink:title=" ">
<path fill="none" stroke="#63b8ff" d="M489.71,-129.79C452.67,-120.47 400.85,-107.43 361.15,-97.44"/>
<polygon fill="#63b8ff" stroke="#63b8ff" points="488.68,-133.14 499.23,-132.19 490.39,-126.35 488.68,-133.14"/>
</a>
</g>
</g>
<!-- Node6 -->
<g id="Node000006" class="node">
<title>Node6</title>
<g id="a_Node000006"><a xlink:href="_halley_8hh.html" target="_top" xlink:title=" ">
<polygon fill="white" stroke="#666666" points="527.5,-97 390,-97 390,-66.5 527.5,-66.5 527.5,-97"/>
<text text-anchor="start" x="398" y="-83.5" font-family="Helvetica,sans-Serif" font-size="10.00">include/Optimist/RootFinder</text>
<text text-anchor="middle" x="458.75" y="-72.25" font-family="Helvetica,sans-Serif" font-size="10.00">/Halley.hh</text>
</a>
</g>
</g>
<!-- Node1&#45;&gt;Node6 -->
<g id="edge5_Node000001_Node000006" class="edge">
<title>Node1&#45;&gt;Node6</title>
<g id="a_edge5_Node000001_Node000006"><a xlink:title=" ">
<path fill="none" stroke="#63b8ff" d="M515.82,-125.82C504.05,-116.95 489.48,-105.94 478,-97.28"/>
<polygon fill="#63b8ff" stroke="#63b8ff" points="513.61,-128.54 523.7,-131.77 517.82,-122.95 513.61,-128.54"/>
</a>
</g>
</g>
<!-- Node7 -->
<g id="Node000007" class="node">
<title>Node7</title>
<g id="a_Node000007"><a xlink:href="_newton_8hh.html" target="_top" xlink:title=" ">
<polygon fill="white" stroke="#666666" points="683.5,-97 546,-97 546,-66.5 683.5,-66.5 683.5,-97"/>
<text text-anchor="start" x="554" y="-83.5" font-family="Helvetica,sans-Serif" font-size="10.00">include/Optimist/RootFinder</text>
<text text-anchor="middle" x="614.75" y="-72.25" font-family="Helvetica,sans-Serif" font-size="10.00">/Newton.hh</text>
</a>
</g>
</g>
<!-- Node1&#45;&gt;Node7 -->
<g id="edge6_Node000001_Node000007" class="edge">
<title>Node1&#45;&gt;Node7</title>
<g id="a_edge6_Node000001_Node000007"><a xlink:title=" ">
<path fill="none" stroke="#63b8ff" d="M557.68,-125.82C569.45,-116.95 584.02,-105.94 595.5,-97.28"/>
<polygon fill="#63b8ff" stroke="#63b8ff" points="555.68,-122.95 549.8,-131.77 559.89,-128.54 555.68,-122.95"/>
</a>
</g>
</g>
<!-- Node8 -->
<g id="Node000008" class="node">
<title>Node8</title>
<g id="a_Node000008"><a xlink:href="_quasi_newton_8hh.html" target="_top" xlink:title=" ">
<polygon fill="white" stroke="#666666" points="839.5,-97 702,-97 702,-66.5 839.5,-66.5 839.5,-97"/>
<text text-anchor="start" x="710" y="-83.5" font-family="Helvetica,sans-Serif" font-size="10.00">include/Optimist/RootFinder</text>
<text text-anchor="middle" x="770.75" y="-72.25" font-family="Helvetica,sans-Serif" font-size="10.00">/QuasiNewton.hh</text>
</a>
</g>
</g>
<!-- Node1&#45;&gt;Node8 -->
<g id="edge7_Node000001_Node000008" class="edge">
<title>Node1&#45;&gt;Node8</title>
<g id="a_edge7_Node000001_Node000008"><a xlink:title=" ">
<path fill="none" stroke="#63b8ff" d="M583.79,-129.79C620.83,-120.47 672.65,-107.43 712.35,-97.44"/>
<polygon fill="#63b8ff" stroke="#63b8ff" points="583.11,-126.35 574.27,-132.19 584.82,-133.14 583.11,-126.35"/>
</a>
</g>
</g>
<!-- Node11 -->
<g id="Node000011" class="node">
<title>Node11</title>
<g id="a_Node000011"><a xlink:href="_varona_8hh.html" target="_top" xlink:title=" ">
<polygon fill="white" stroke="#666666" points="995.5,-97 858,-97 858,-66.5 995.5,-66.5 995.5,-97"/>
<text text-anchor="start" x="866" y="-83.5" font-family="Helvetica,sans-Serif" font-size="10.00">include/Optimist/RootFinder</text>
<text text-anchor="middle" x="926.75" y="-72.25" font-family="Helvetica,sans-Serif" font-size="10.00">/Varona.hh</text>
</a>
</g>
</g>
<!-- Node1&#45;&gt;Node11 -->
<g id="edge10_Node000001_Node000011" class="edge">
<title>Node1&#45;&gt;Node11</title>
<g id="a_edge10_Node000001_Node000011"><a xlink:title=" ">
<path fill="none" stroke="#63b8ff" d="M617.02,-131.01C680.11,-122.46 770.16,-109.79 848.75,-97 851.74,-96.51 854.79,-96.01 857.87,-95.48"/>
<polygon fill="#63b8ff" stroke="#63b8ff" points="616.9,-127.5 607.45,-132.3 617.83,-134.43 616.9,-127.5"/>
</a>
</g>
</g>
<!-- Node3 -->
<g id="Node000003" class="node">
<title>Node3</title>
<g id="a_Node000003"><a xlink:href="_algo748_8hh.html" target="_top" xlink:title=" ">
<polygon fill="white" stroke="#666666" points="137.5,-30.5 0,-30.5 0,0 137.5,0 137.5,-30.5"/>
<text text-anchor="start" x="8" y="-17" font-family="Helvetica,sans-Serif" font-size="10.00">include/Optimist/RootFinder</text>
<text text-anchor="middle" x="68.75" y="-5.75" font-family="Helvetica,sans-Serif" font-size="10.00">/Algo748.hh</text>
</a>
</g>
</g>
<!-- Node2&#45;&gt;Node3 -->
<g id="edge2_Node000002_Node000003" class="edge">
<title>Node2&#45;&gt;Node3</title>
<g id="a_edge2_Node000002_Node000003"><a xlink:title=" ">
<path fill="none" stroke="#63b8ff" d="M120.47,-59.02C109.24,-49.73 96.44,-39.15 86.38,-30.83"/>
<polygon fill="#63b8ff" stroke="#63b8ff" points="117.95,-61.47 127.88,-65.15 122.41,-56.08 117.95,-61.47"/>
</a>
</g>
</g>
<!-- Node4 -->
<g id="Node000004" class="node">
<title>Node4</title>
<g id="a_Node000004"><a xlink:href="_chandrupatla_8hh.html" target="_top" xlink:title=" ">
<polygon fill="white" stroke="#666666" points="293.5,-30.5 156,-30.5 156,0 293.5,0 293.5,-30.5"/>
<text text-anchor="start" x="164" y="-17" font-family="Helvetica,sans-Serif" font-size="10.00">include/Optimist/RootFinder</text>
<text text-anchor="middle" x="224.75" y="-5.75" font-family="Helvetica,sans-Serif" font-size="10.00">/Chandrupatla.hh</text>
</a>
</g>
</g>
<!-- Node2&#45;&gt;Node4 -->
<g id="edge3_Node000002_Node000004" class="edge">
<title>Node2&#45;&gt;Node4</title>
<g id="a_edge3_Node000002_Node000004"><a xlink:title=" ">
<path fill="none" stroke="#63b8ff" d="M173.03,-59.02C184.26,-49.73 197.06,-39.15 207.12,-30.83"/>
<polygon fill="#63b8ff" stroke="#63b8ff" points="171.09,-56.08 165.62,-65.15 175.55,-61.47 171.09,-56.08"/>
</a>
</g>
</g>
<!-- Node9 -->
<g id="Node000009" class="node">
<title>Node9</title>
<g id="a_Node000009"><a xlink:href="_broyden_8hh.html" target="_top" xlink:title=" ">
<polygon fill="white" stroke="#666666" points="761.5,-30.5 624,-30.5 624,0 761.5,0 761.5,-30.5"/>
<text text-anchor="start" x="632" y="-17" font-family="Helvetica,sans-Serif" font-size="10.00">include/Optimist/RootFinder</text>
<text text-anchor="middle" x="692.75" y="-5.75" font-family="Helvetica,sans-Serif" font-size="10.00">/Broyden.hh</text>
</a>
</g>
</g>
<!-- Node8&#45;&gt;Node9 -->
<g id="edge8_Node000008_Node000009" class="edge">
<title>Node8&#45;&gt;Node9</title>
<g id="a_edge8_Node000008_Node000009"><a xlink:title=" ">
<path fill="none" stroke="#63b8ff" d="M744.47,-59.02C733.24,-49.73 720.44,-39.15 710.38,-30.83"/>
<polygon fill="#63b8ff" stroke="#63b8ff" points="741.95,-61.47 751.88,-65.15 746.41,-56.08 741.95,-61.47"/>
</a>
</g>
</g>
<!-- Node10 -->
<g id="Node000010" class="node">
<title>Node10</title>
<g id="a_Node000010"><a xlink:href="_greenstadt_8hh.html" target="_top" xlink:title=" ">
<polygon fill="white" stroke="#666666" points="917.5,-30.5 780,-30.5 780,0 917.5,0 917.5,-30.5"/>
<text text-anchor="start" x="788" y="-17" font-family="Helvetica,sans-Serif" font-size="10.00">include/Optimist/RootFinder</text>
<text text-anchor="middle" x="848.75" y="-5.75" font-family="Helvetica,sans-Serif" font-size="10.00">/Greenstadt.hh</text>
</a>
</g>
</g>
<!-- Node8&#45;&gt;Node10 -->
<g id="edge9_Node000008_Node000010" class="edge">
<title>Node8&#45;&gt;Node10</title>
<g id="a_edge9_Node000008_Node000010"><a xlink:title=" ">
<path fill="none" stroke="#63b8ff" d="M797.03,-59.02C808.26,-49.73 821.06,-39.15 831.12,-30.83"/>
<polygon fill="#63b8ff" stroke="#63b8ff" points="795.09,-56.08 789.62,-65.15 799.55,-61.47 795.09,-56.08"/>
</a>
</g>
</g>
</g>
</svg>
