<?xml version="1.0" encoding="UTF-8" standalone="no"?>
<!DOCTYPE svg PUBLIC "-//W3C//DTD SVG 1.1//EN"
 "http://www.w3.org/Graphics/SVG/1.1/DTD/svg11.dtd">
<!-- Generated by graphviz version 12.2.1 (20241206.2353)
 -->
<!-- Title: include/Optimist/ScalarRootFinder.hh Pages: 1 -->
<svg width="848pt" height="172pt"
 viewBox="0.00 0.00 848.25 171.50" xmlns="http://www.w3.org/2000/svg" xmlns:xlink="http://www.w3.org/1999/xlink">
<g id="graph0" class="graph" transform="scale(1 1) rotate(0) translate(4 167.5)">
<title>include/Optimist/ScalarRootFinder.hh</title>
<!-- Node1 -->
<g id="Node000001" class="node">
<title>Node1</title>
<g id="a_Node000001"><a xlink:title=" ">
<polygon fill="#999999" stroke="#666666" points="528.25,-163.5 390,-163.5 390,-133 528.25,-133 528.25,-163.5"/>
<text text-anchor="start" x="398" y="-150" font-family="Helvetica,sans-Serif" font-size="10.00">include/Optimist/ScalarRoot</text>
<text text-anchor="middle" x="459.12" y="-138.75" font-family="Helvetica,sans-Serif" font-size="10.00">Finder.hh</text>
</a>
</g>
</g>
<!-- Node2 -->
<g id="Node000002" class="node">
<title>Node2</title>
<g id="a_Node000002"><a xlink:href="_bracketing_8hh.html" target="_top" xlink:title=" ">
<polygon fill="white" stroke="#666666" points="216.25,-97 78,-97 78,-66.5 216.25,-66.5 216.25,-97"/>
<text text-anchor="start" x="86" y="-83.5" font-family="Helvetica,sans-Serif" font-size="10.00">include/Optimist/ScalarRoot</text>
<text text-anchor="middle" x="147.12" y="-72.25" font-family="Helvetica,sans-Serif" font-size="10.00">Finder/Bracketing.hh</text>
</a>
</g>
</g>
<!-- Node1&#45;&gt;Node2 -->
<g id="edge1_Node000001_Node000002" class="edge">
<title>Node1&#45;&gt;Node2</title>
<g id="a_edge1_Node000001_Node000002"><a xlink:title=" ">
<path fill="none" stroke="#63b8ff" d="M378.75,-130.63C328.6,-120.27 264.69,-107.05 216.71,-97.14"/>
<polygon fill="#63b8ff" stroke="#63b8ff" points="377.9,-134.03 388.4,-132.63 379.32,-127.18 377.9,-134.03"/>
</a>
</g>
</g>
<!-- Node5 -->
<g id="Node000005" class="node">
<title>Node5</title>
<g id="a_Node000005"><a xlink:href="_chebyshev_8hh.html" target="_top" xlink:title=" ">
<polygon fill="white" stroke="#666666" points="372.25,-97 234,-97 234,-66.5 372.25,-66.5 372.25,-97"/>
<text text-anchor="start" x="242" y="-83.5" font-family="Helvetica,sans-Serif" font-size="10.00">include/Optimist/ScalarRoot</text>
<text text-anchor="middle" x="303.12" y="-72.25" font-family="Helvetica,sans-Serif" font-size="10.00">Finder/Chebyshev.hh</text>
</a>
</g>
</g>
<!-- Node1&#45;&gt;Node5 -->
<g id="edge4_Node000001_Node000005" class="edge">
<title>Node1&#45;&gt;Node5</title>
<g id="a_edge4_Node000001_Node000005"><a xlink:title=" ">
<path fill="none" stroke="#63b8ff" d="M413.17,-128.25C389.36,-118.41 360.74,-106.57 338.65,-97.44"/>
<polygon fill="#63b8ff" stroke="#63b8ff" points="411.75,-131.45 422.33,-132.04 414.42,-124.98 411.75,-131.45"/>
</a>
</g>
</g>
<!-- Node6 -->
<g id="Node000006" class="node">
<title>Node6</title>
<g id="a_Node000006"><a xlink:href="_halley_8hh.html" target="_top" xlink:title=" ">
<polygon fill="white" stroke="#666666" points="528.25,-97 390,-97 390,-66.5 528.25,-66.5 528.25,-97"/>
<text text-anchor="start" x="398" y="-83.5" font-family="Helvetica,sans-Serif" font-size="10.00">include/Optimist/ScalarRoot</text>
<text text-anchor="middle" x="459.12" y="-72.25" font-family="Helvetica,sans-Serif" font-size="10.00">Finder/Halley.hh</text>
</a>
</g>
</g>
<!-- Node1&#45;&gt;Node6 -->
<g id="edge5_Node000001_Node000006" class="edge">
<title>Node1&#45;&gt;Node6</title>
<g id="a_edge5_Node000001_Node000006"><a xlink:title=" ">
<path fill="none" stroke="#63b8ff" d="M459.12,-121.31C459.12,-113.14 459.12,-104.41 459.12,-97.33"/>
<polygon fill="#63b8ff" stroke="#63b8ff" points="455.63,-121.1 459.13,-131.1 462.63,-121.1 455.63,-121.1"/>
</a>
</g>
</g>
<!-- Node7 -->
<g id="Node000007" class="node">
<title>Node7</title>
<g id="a_Node000007"><a xlink:href="_scalar_root_finder_2_newton_8hh.html" target="_top" xlink:title=" ">
<polygon fill="white" stroke="#666666" points="684.25,-97 546,-97 546,-66.5 684.25,-66.5 684.25,-97"/>
<text text-anchor="start" x="554" y="-83.5" font-family="Helvetica,sans-Serif" font-size="10.00">include/Optimist/ScalarRoot</text>
<text text-anchor="middle" x="615.12" y="-72.25" font-family="Helvetica,sans-Serif" font-size="10.00">Finder/Newton.hh</text>
</a>
</g>
</g>
<!-- Node1&#45;&gt;Node7 -->
<g id="edge6_Node000001_Node000007" class="edge">
<title>Node1&#45;&gt;Node7</title>
<g id="a_edge6_Node000001_Node000007"><a xlink:title=" ">
<path fill="none" stroke="#63b8ff" d="M505.08,-128.25C528.89,-118.41 557.51,-106.57 579.6,-97.44"/>
<polygon fill="#63b8ff" stroke="#63b8ff" points="503.83,-124.98 495.92,-132.04 506.5,-131.45 503.83,-124.98"/>
</a>
</g>
</g>
<!-- Node8 -->
<g id="Node000008" class="node">
<title>Node8</title>
<g id="a_Node000008"><a xlink:href="_varona_8hh.html" target="_top" xlink:title=" ">
<polygon fill="white" stroke="#666666" points="840.25,-97 702,-97 702,-66.5 840.25,-66.5 840.25,-97"/>
<text text-anchor="start" x="710" y="-83.5" font-family="Helvetica,sans-Serif" font-size="10.00">include/Optimist/ScalarRoot</text>
<text text-anchor="middle" x="771.12" y="-72.25" font-family="Helvetica,sans-Serif" font-size="10.00">Finder/Varona.hh</text>
</a>
</g>
</g>
<!-- Node1&#45;&gt;Node8 -->
<g id="edge7_Node000001_Node000008" class="edge">
<title>Node1&#45;&gt;Node8</title>
<g id="a_edge7_Node000001_Node000008"><a xlink:title=" ">
<path fill="none" stroke="#63b8ff" d="M539.5,-130.63C589.65,-120.27 653.56,-107.05 701.54,-97.14"/>
<polygon fill="#63b8ff" stroke="#63b8ff" points="538.93,-127.18 529.85,-132.63 540.35,-134.03 538.93,-127.18"/>
</a>
</g>
</g>
<!-- Node3 -->
<g id="Node000003" class="node">
<title>Node3</title>
<g id="a_Node000003"><a xlink:href="_algo748_8hh.html" target="_top" xlink:title=" ">
<polygon fill="white" stroke="#666666" points="138.25,-30.5 0,-30.5 0,0 138.25,0 138.25,-30.5"/>
<text text-anchor="start" x="8" y="-17" font-family="Helvetica,sans-Serif" font-size="10.00">include/Optimist/ScalarRoot</text>
<text text-anchor="middle" x="69.12" y="-5.75" font-family="Helvetica,sans-Serif" font-size="10.00">Finder/Algo748.hh</text>
</a>
</g>
</g>
<!-- Node2&#45;&gt;Node3 -->
<g id="edge2_Node000002_Node000003" class="edge">
<title>Node2&#45;&gt;Node3</title>
<g id="a_edge2_Node000002_Node000003"><a xlink:title=" ">
<path fill="none" stroke="#63b8ff" d="M120.84,-59.02C109.62,-49.73 96.81,-39.15 86.75,-30.83"/>
<polygon fill="#63b8ff" stroke="#63b8ff" points="118.32,-61.47 128.26,-65.15 122.78,-56.08 118.32,-61.47"/>
</a>
</g>
</g>
<!-- Node4 -->
<g id="Node000004" class="node">
<title>Node4</title>
<g id="a_Node000004"><a xlink:href="_chandrupatla_8hh.html" target="_top" xlink:title=" ">
<polygon fill="white" stroke="#666666" points="294.25,-30.5 156,-30.5 156,0 294.25,0 294.25,-30.5"/>
<text text-anchor="start" x="164" y="-17" font-family="Helvetica,sans-Serif" font-size="10.00">include/Optimist/ScalarRoot</text>
<text text-anchor="middle" x="225.12" y="-5.75" font-family="Helvetica,sans-Serif" font-size="10.00">Finder/Chandrupatla.hh</text>
</a>
</g>
</g>
<!-- Node2&#45;&gt;Node4 -->
<g id="edge3_Node000002_Node000004" class="edge">
<title>Node2&#45;&gt;Node4</title>
<g id="a_edge3_Node000002_Node000004"><a xlink:title=" ">
<path fill="none" stroke="#63b8ff" d="M173.41,-59.02C184.63,-49.73 197.44,-39.15 207.5,-30.83"/>
<polygon fill="#63b8ff" stroke="#63b8ff" points="171.47,-56.08 165.99,-65.15 175.93,-61.47 171.47,-56.08"/>
</a>
</g>
</g>
</g>
</svg>
