<?xml version="1.0" encoding="UTF-8" standalone="no"?>
<!DOCTYPE svg PUBLIC "-//W3C//DTD SVG 1.1//EN"
 "http://www.w3.org/Graphics/SVG/1.1/DTD/svg11.dtd">
<!-- Generated by graphviz version 12.2.1 (20241206.2353)
 -->
<!-- Title: include/Optimist/Function/ScalarFunction.hh Pages: 1 -->
<svg width="861pt" height="105pt"
 viewBox="0.00 0.00 861.25 105.00" xmlns="http://www.w3.org/2000/svg" xmlns:xlink="http://www.w3.org/1999/xlink">
<g id="graph0" class="graph" transform="scale(1 1) rotate(0) translate(4 101)">
<title>include/Optimist/Function/ScalarFunction.hh</title>
<!-- Node1 -->
<g id="Node000001" class="node">
<title>Node1</title>
<g id="a_Node000001"><a xlink:title=" ">
<polygon fill="#999999" stroke="#666666" points="486.12,-97 359.12,-97 359.12,-66.5 486.12,-66.5 486.12,-97"/>
<text text-anchor="start" x="367.12" y="-83.5" font-family="Helvetica,sans-Serif" font-size="10.00">include/Optimist/Function</text>
<text text-anchor="middle" x="422.62" y="-72.25" font-family="Helvetica,sans-Serif" font-size="10.00">/ScalarFunction.hh</text>
</a>
</g>
</g>
<!-- Node2 -->
<g id="Node000002" class="node">
<title>Node2</title>
<g id="a_Node000002"><a xlink:href="_cos_8hh.html" target="_top" xlink:title=" ">
<polygon fill="white" stroke="#666666" points="123.25,-30.5 0,-30.5 0,0 123.25,0 123.25,-30.5"/>
<text text-anchor="start" x="8" y="-17" font-family="Helvetica,sans-Serif" font-size="10.00">include/Optimist/TestSet</text>
<text text-anchor="middle" x="61.62" y="-5.75" font-family="Helvetica,sans-Serif" font-size="10.00">/ScalarFunction/Cos.hh</text>
</a>
</g>
</g>
<!-- Node1&#45;&gt;Node2 -->
<g id="edge1_Node000001_Node000002" class="edge">
<title>Node1&#45;&gt;Node2</title>
<g id="a_edge1_Node000001_Node000002"><a xlink:title=" ">
<path fill="none" stroke="#63b8ff" d="M347.88,-68.36C289.26,-58.5 205.65,-44.15 132.62,-30.5 129.66,-29.95 126.63,-29.37 123.56,-28.78"/>
<polygon fill="#63b8ff" stroke="#63b8ff" points="346.96,-71.75 357.4,-69.96 348.12,-64.85 346.96,-71.75"/>
</a>
</g>
</g>
<!-- Node3 -->
<g id="Node000003" class="node">
<title>Node3</title>
<g id="a_Node000003"><a xlink:href="_cosh_8hh.html" target="_top" xlink:title=" ">
<polygon fill="white" stroke="#666666" points="265.62,-30.5 141.62,-30.5 141.62,0 265.62,0 265.62,-30.5"/>
<text text-anchor="start" x="149.62" y="-17" font-family="Helvetica,sans-Serif" font-size="10.00">include/Optimist/TestSet</text>
<text text-anchor="middle" x="203.62" y="-5.75" font-family="Helvetica,sans-Serif" font-size="10.00">/ScalarFunction/Cosh.hh</text>
</a>
</g>
</g>
<!-- Node1&#45;&gt;Node3 -->
<g id="edge2_Node000001_Node000003" class="edge">
<title>Node1&#45;&gt;Node3</title>
<g id="a_edge2_Node000001_Node000003"><a xlink:title=" ">
<path fill="none" stroke="#63b8ff" d="M361.86,-62.85C327.7,-52.79 285.57,-40.39 253.38,-30.9"/>
<polygon fill="#63b8ff" stroke="#63b8ff" points="360.62,-66.14 371.2,-65.61 362.6,-59.42 360.62,-66.14"/>
</a>
</g>
</g>
<!-- Node4 -->
<g id="Node000004" class="node">
<title>Node4</title>
<g id="a_Node000004"><a xlink:href="_linear_8hh.html" target="_top" xlink:title=" ">
<polygon fill="white" stroke="#666666" points="409.75,-30.5 283.5,-30.5 283.5,0 409.75,0 409.75,-30.5"/>
<text text-anchor="start" x="291.5" y="-17" font-family="Helvetica,sans-Serif" font-size="10.00">include/Optimist/TestSet</text>
<text text-anchor="middle" x="346.62" y="-5.75" font-family="Helvetica,sans-Serif" font-size="10.00">/ScalarFunction/Linear.hh</text>
</a>
</g>
</g>
<!-- Node1&#45;&gt;Node4 -->
<g id="edge3_Node000001_Node000004" class="edge">
<title>Node1&#45;&gt;Node4</title>
<g id="a_edge3_Node000001_Node000004"><a xlink:title=" ">
<path fill="none" stroke="#63b8ff" d="M396.69,-58.74C385.83,-49.53 373.51,-39.06 363.8,-30.83"/>
<polygon fill="#63b8ff" stroke="#63b8ff" points="394.34,-61.33 404.23,-65.13 398.87,-56 394.34,-61.33"/>
</a>
</g>
</g>
<!-- Node5 -->
<g id="Node000005" class="node">
<title>Node5</title>
<g id="a_Node000005"><a xlink:href="_quadratic_8hh.html" target="_top" xlink:title=" ">
<polygon fill="white" stroke="#666666" points="571,-30.5 428.25,-30.5 428.25,0 571,0 571,-30.5"/>
<text text-anchor="start" x="436.25" y="-17" font-family="Helvetica,sans-Serif" font-size="10.00">include/Optimist/TestSet</text>
<text text-anchor="middle" x="499.62" y="-5.75" font-family="Helvetica,sans-Serif" font-size="10.00">/ScalarFunction/Quadratic.hh</text>
</a>
</g>
</g>
<!-- Node1&#45;&gt;Node5 -->
<g id="edge4_Node000001_Node000005" class="edge">
<title>Node1&#45;&gt;Node5</title>
<g id="a_edge4_Node000001_Node000005"><a xlink:title=" ">
<path fill="none" stroke="#63b8ff" d="M448.9,-58.74C459.9,-49.53 472.39,-39.06 482.22,-30.83"/>
<polygon fill="#63b8ff" stroke="#63b8ff" points="446.68,-56.04 441.26,-65.14 451.17,-61.4 446.68,-56.04"/>
</a>
</g>
</g>
<!-- Node6 -->
<g id="Node000006" class="node">
<title>Node6</title>
<g id="a_Node000006"><a xlink:href="_sin_8hh.html" target="_top" xlink:title=" ">
<polygon fill="white" stroke="#666666" points="712.25,-30.5 589,-30.5 589,0 712.25,0 712.25,-30.5"/>
<text text-anchor="start" x="597" y="-17" font-family="Helvetica,sans-Serif" font-size="10.00">include/Optimist/TestSet</text>
<text text-anchor="middle" x="650.62" y="-5.75" font-family="Helvetica,sans-Serif" font-size="10.00">/ScalarFunction/Sin.hh</text>
</a>
</g>
</g>
<!-- Node1&#45;&gt;Node6 -->
<g id="edge5_Node000001_Node000006" class="edge">
<title>Node1&#45;&gt;Node6</title>
<g id="a_edge5_Node000001_Node000006"><a xlink:title=" ">
<path fill="none" stroke="#63b8ff" d="M485.42,-62.99C521.08,-52.9 565.16,-40.43 598.83,-30.9"/>
<polygon fill="#63b8ff" stroke="#63b8ff" points="484.77,-59.53 476.1,-65.62 486.68,-66.27 484.77,-59.53"/>
</a>
</g>
</g>
<!-- Node7 -->
<g id="Node000007" class="node">
<title>Node7</title>
<g id="a_Node000007"><a xlink:href="_sinh_8hh.html" target="_top" xlink:title=" ">
<polygon fill="white" stroke="#666666" points="853.25,-30.5 730,-30.5 730,0 853.25,0 853.25,-30.5"/>
<text text-anchor="start" x="738" y="-17" font-family="Helvetica,sans-Serif" font-size="10.00">include/Optimist/TestSet</text>
<text text-anchor="middle" x="791.62" y="-5.75" font-family="Helvetica,sans-Serif" font-size="10.00">/ScalarFunction/Sinh.hh</text>
</a>
</g>
</g>
<!-- Node1&#45;&gt;Node7 -->
<g id="edge6_Node000001_Node000007" class="edge">
<title>Node1&#45;&gt;Node7</title>
<g id="a_edge6_Node000001_Node000007"><a xlink:title=" ">
<path fill="none" stroke="#63b8ff" d="M497.97,-68.82C558.5,-59.06 645.66,-44.61 721.62,-30.5 724.31,-30 727.05,-29.48 729.81,-28.95"/>
<polygon fill="#63b8ff" stroke="#63b8ff" points="497.42,-65.37 488.1,-70.41 498.53,-72.28 497.42,-65.37"/>
</a>
</g>
</g>
</g>
</svg>
