<?xml version="1.0" encoding="UTF-8" standalone="no"?>
<!DOCTYPE svg PUBLIC "-//W3C//DTD SVG 1.1//EN"
 "http://www.w3.org/Graphics/SVG/1.1/DTD/svg11.dtd">
<!-- Generated by graphviz version 14.1.2 (20260124.0452)
 -->
<!-- Title: core/include/Optimist/SolverBase.hh Pages: 1 -->
<svg width="1485pt" height="238pt"
 viewBox="0.00 0.00 1485.00 238.00" xmlns="http://www.w3.org/2000/svg" xmlns:xlink="http://www.w3.org/1999/xlink">
<g id="graph0" class="graph" transform="scale(1 1) rotate(0) translate(4 234)">
<title>core/include/Optimist/SolverBase.hh</title>
<!-- Node1 -->
<g id="Node000001" class="node">
<title>Node1</title>
<g id="a_Node000001"><a xlink:title=" ">
<polygon fill="#999999" stroke="#666666" points="573.12,-230 464.88,-230 464.88,-199.5 573.12,-199.5 573.12,-230"/>
<text xml:space="preserve" text-anchor="start" x="472.88" y="-216.5" font-family="Helvetica,sans-Serif" font-size="10.00">core/include/Optimist</text>
<text xml:space="preserve" text-anchor="middle" x="519" y="-205.25" font-family="Helvetica,sans-Serif" font-size="10.00">/SolverBase.hh</text>
</a>
</g>
</g>
<!-- Node2 -->
<g id="Node000002" class="node">
<title>Node2</title>
<g id="a_Node000002"><a xlink:href="_optimizer_8hh.html" target="_top" xlink:title=" ">
<polygon fill="white" stroke="#666666" points="353.12,-163.5 244.88,-163.5 244.88,-133 353.12,-133 353.12,-163.5"/>
<text xml:space="preserve" text-anchor="start" x="252.88" y="-150" font-family="Helvetica,sans-Serif" font-size="10.00">core/include/Optimist</text>
<text xml:space="preserve" text-anchor="middle" x="299" y="-138.75" font-family="Helvetica,sans-Serif" font-size="10.00">/Optimizer.hh</text>
</a>
</g>
</g>
<!-- Node1&#45;&gt;Node2 -->
<g id="edge1_Node000001_Node000002" class="edge">
<title>Node1&#45;&gt;Node2</title>
<g id="a_edge1_Node000001_Node000002"><a xlink:title=" ">
<path fill="none" stroke="#63b8ff" d="M457.96,-195.85C423.64,-185.79 381.32,-173.39 348.98,-163.9"/>
<polygon fill="#63b8ff" stroke="#63b8ff" points="456.77,-199.15 467.35,-198.61 458.74,-192.44 456.77,-199.15"/>
</a>
</g>
</g>
<!-- Node6 -->
<g id="Node000006" class="node">
<title>Node6</title>
<g id="a_Node000006"><a xlink:href="_root_finder_8hh.html" target="_top" xlink:title=" ">
<polygon fill="white" stroke="#666666" points="939.12,-163.5 830.88,-163.5 830.88,-133 939.12,-133 939.12,-163.5"/>
<text xml:space="preserve" text-anchor="start" x="838.88" y="-150" font-family="Helvetica,sans-Serif" font-size="10.00">core/include/Optimist</text>
<text xml:space="preserve" text-anchor="middle" x="885" y="-138.75" font-family="Helvetica,sans-Serif" font-size="10.00">/RootFinder.hh</text>
</a>
</g>
</g>
<!-- Node1&#45;&gt;Node6 -->
<g id="edge5_Node000001_Node000006" class="edge">
<title>Node1&#45;&gt;Node6</title>
<g id="a_edge5_Node000001_Node000006"><a xlink:title=" ">
<path fill="none" stroke="#63b8ff" d="M584.31,-202.24C654.54,-189.86 764.92,-170.41 830.6,-158.84"/>
<polygon fill="#63b8ff" stroke="#63b8ff" points="584.13,-198.72 574.89,-203.9 585.34,-205.61 584.13,-198.72"/>
</a>
</g>
</g>
<!-- Node3 -->
<g id="Node000003" class="node">
<title>Node3</title>
<g id="a_Node000003"><a xlink:href="_nelder_mead_8hh.html" target="_top" xlink:title=" ">
<polygon fill="white" stroke="#666666" points="130,-97 0,-97 0,-66.5 130,-66.5 130,-97"/>
<text xml:space="preserve" text-anchor="start" x="8" y="-83.5" font-family="Helvetica,sans-Serif" font-size="10.00">core/include/Optimist</text>
<text xml:space="preserve" text-anchor="middle" x="65" y="-72.25" font-family="Helvetica,sans-Serif" font-size="10.00">/Optimizer/NelderMead.hh</text>
</a>
</g>
</g>
<!-- Node2&#45;&gt;Node3 -->
<g id="edge2_Node000002_Node000003" class="edge">
<title>Node2&#45;&gt;Node3</title>
<g id="a_edge2_Node000002_Node000003"><a xlink:title=" ">
<path fill="none" stroke="#63b8ff" d="M234.55,-129.49C197.96,-119.4 152.71,-106.93 118.16,-97.4"/>
<polygon fill="#63b8ff" stroke="#63b8ff" points="233.58,-132.85 244.15,-132.13 235.44,-126.1 233.58,-132.85"/>
</a>
</g>
</g>
<!-- Node4 -->
<g id="Node000004" class="node">
<title>Node4</title>
<g id="a_Node000004"><a xlink:href="_particle_swarm_8hh.html" target="_top" xlink:title=" ">
<polygon fill="white" stroke="#666666" points="289.62,-97 148.38,-97 148.38,-66.5 289.62,-66.5 289.62,-97"/>
<text xml:space="preserve" text-anchor="start" x="156.38" y="-83.5" font-family="Helvetica,sans-Serif" font-size="10.00">core/include/Optimist</text>
<text xml:space="preserve" text-anchor="middle" x="219" y="-72.25" font-family="Helvetica,sans-Serif" font-size="10.00">/Optimizer/ParticleSwarm.hh</text>
</a>
</g>
</g>
<!-- Node2&#45;&gt;Node4 -->
<g id="edge3_Node000002_Node000004" class="edge">
<title>Node2&#45;&gt;Node4</title>
<g id="a_edge3_Node000002_Node000004"><a xlink:title=" ">
<path fill="none" stroke="#63b8ff" d="M272.05,-125.52C260.53,-116.23 247.4,-105.65 237.08,-97.33"/>
<polygon fill="#63b8ff" stroke="#63b8ff" points="269.69,-128.11 279.67,-131.66 274.08,-122.66 269.69,-128.11"/>
</a>
</g>
</g>
<!-- Node5 -->
<g id="Node000005" class="node">
<title>Node5</title>
<g id="a_Node000005"><a xlink:href="_pattern_search_8hh.html" target="_top" xlink:title=" ">
<polygon fill="white" stroke="#666666" points="447.88,-97 308.12,-97 308.12,-66.5 447.88,-66.5 447.88,-97"/>
<text xml:space="preserve" text-anchor="start" x="316.12" y="-83.5" font-family="Helvetica,sans-Serif" font-size="10.00">core/include/Optimist</text>
<text xml:space="preserve" text-anchor="middle" x="378" y="-72.25" font-family="Helvetica,sans-Serif" font-size="10.00">/Optimizer/PatternSearch.hh</text>
</a>
</g>
</g>
<!-- Node2&#45;&gt;Node5 -->
<g id="edge4_Node000002_Node000005" class="edge">
<title>Node2&#45;&gt;Node5</title>
<g id="a_edge4_Node000002_Node000005"><a xlink:title=" ">
<path fill="none" stroke="#63b8ff" d="M325.62,-125.52C336.99,-116.23 349.96,-105.65 360.14,-97.33"/>
<polygon fill="#63b8ff" stroke="#63b8ff" points="323.63,-122.62 318.1,-131.66 328.06,-128.04 323.63,-122.62"/>
</a>
</g>
</g>
<!-- Node7 -->
<g id="Node000007" class="node">
<title>Node7</title>
<g id="a_Node000007"><a xlink:href="_bracketing_8hh.html" target="_top" xlink:title=" ">
<polygon fill="white" stroke="#666666" points="596,-97 466,-97 466,-66.5 596,-66.5 596,-97"/>
<text xml:space="preserve" text-anchor="start" x="474" y="-83.5" font-family="Helvetica,sans-Serif" font-size="10.00">core/include/Optimist</text>
<text xml:space="preserve" text-anchor="middle" x="531" y="-72.25" font-family="Helvetica,sans-Serif" font-size="10.00">/RootFinder/Bracketing.hh</text>
</a>
</g>
</g>
<!-- Node6&#45;&gt;Node7 -->
<g id="edge6_Node000006_Node000007" class="edge">
<title>Node6&#45;&gt;Node7</title>
<g id="a_edge6_Node000006_Node000007"><a xlink:title=" ">
<path fill="none" stroke="#63b8ff" d="M819.17,-135.68C762.4,-125.64 678.25,-110.62 605,-97 602.17,-96.47 599.28,-95.93 596.36,-95.38"/>
<polygon fill="#63b8ff" stroke="#63b8ff" points="818.55,-139.12 829.01,-137.42 819.77,-132.23 818.55,-139.12"/>
</a>
</g>
</g>
<!-- Node10 -->
<g id="Node000010" class="node">
<title>Node10</title>
<g id="a_Node000010"><a xlink:href="_chebyshev_8hh.html" target="_top" xlink:title=" ">
<polygon fill="white" stroke="#666666" points="745.75,-97 614.25,-97 614.25,-66.5 745.75,-66.5 745.75,-97"/>
<text xml:space="preserve" text-anchor="start" x="622.25" y="-83.5" font-family="Helvetica,sans-Serif" font-size="10.00">core/include/Optimist</text>
<text xml:space="preserve" text-anchor="middle" x="680" y="-72.25" font-family="Helvetica,sans-Serif" font-size="10.00">/RootFinder/Chebyshev.hh</text>
</a>
</g>
</g>
<!-- Node6&#45;&gt;Node10 -->
<g id="edge9_Node000006_Node000010" class="edge">
<title>Node6&#45;&gt;Node10</title>
<g id="a_edge9_Node000006_Node000010"><a xlink:title=" ">
<path fill="none" stroke="#63b8ff" d="M827.29,-129.09C795.46,-119.08 756.45,-106.8 726.57,-97.4"/>
<polygon fill="#63b8ff" stroke="#63b8ff" points="826.19,-132.42 836.78,-132.08 828.29,-125.74 826.19,-132.42"/>
</a>
</g>
</g>
<!-- Node11 -->
<g id="Node000011" class="node">
<title>Node11</title>
<g id="a_Node000011"><a xlink:href="_halley_8hh.html" target="_top" xlink:title=" ">
<polygon fill="white" stroke="#666666" points="873.88,-97 764.12,-97 764.12,-66.5 873.88,-66.5 873.88,-97"/>
<text xml:space="preserve" text-anchor="start" x="772.12" y="-83.5" font-family="Helvetica,sans-Serif" font-size="10.00">core/include/Optimist</text>
<text xml:space="preserve" text-anchor="middle" x="819" y="-72.25" font-family="Helvetica,sans-Serif" font-size="10.00">/RootFinder/Halley.hh</text>
</a>
</g>
</g>
<!-- Node6&#45;&gt;Node11 -->
<g id="edge10_Node000006_Node000011" class="edge">
<title>Node6&#45;&gt;Node11</title>
<g id="a_edge10_Node000006_Node000011"><a xlink:title=" ">
<path fill="none" stroke="#63b8ff" d="M861.91,-124.69C852.62,-115.61 842.18,-105.4 833.92,-97.33"/>
<polygon fill="#63b8ff" stroke="#63b8ff" points="859.34,-127.07 868.94,-131.56 864.24,-122.06 859.34,-127.07"/>
</a>
</g>
</g>
<!-- Node12 -->
<g id="Node000012" class="node">
<title>Node12</title>
<g id="a_Node000012"><a xlink:href="_newton_8hh.html" target="_top" xlink:title=" ">
<polygon fill="white" stroke="#666666" points="1009.62,-97 892.38,-97 892.38,-66.5 1009.62,-66.5 1009.62,-97"/>
<text xml:space="preserve" text-anchor="start" x="900.38" y="-83.5" font-family="Helvetica,sans-Serif" font-size="10.00">core/include/Optimist</text>
<text xml:space="preserve" text-anchor="middle" x="951" y="-72.25" font-family="Helvetica,sans-Serif" font-size="10.00">/RootFinder/Newton.hh</text>
</a>
</g>
</g>
<!-- Node6&#45;&gt;Node12 -->
<g id="edge11_Node000006_Node000012" class="edge">
<title>Node6&#45;&gt;Node12</title>
<g id="a_edge11_Node000006_Node000012"><a xlink:title=" ">
<path fill="none" stroke="#63b8ff" d="M908.09,-124.69C917.38,-115.61 927.82,-105.4 936.08,-97.33"/>
<polygon fill="#63b8ff" stroke="#63b8ff" points="905.76,-122.06 901.06,-131.56 910.66,-127.07 905.76,-122.06"/>
</a>
</g>
</g>
<!-- Node13 -->
<g id="Node000013" class="node">
<title>Node13</title>
<g id="a_Node000013"><a xlink:href="_newton_raphson_8hh.html" target="_top" xlink:title=" ">
<polygon fill="white" stroke="#666666" points="1184.12,-97 1027.88,-97 1027.88,-66.5 1184.12,-66.5 1184.12,-97"/>
<text xml:space="preserve" text-anchor="start" x="1035.88" y="-83.5" font-family="Helvetica,sans-Serif" font-size="10.00">core/include/Optimist</text>
<text xml:space="preserve" text-anchor="middle" x="1106" y="-72.25" font-family="Helvetica,sans-Serif" font-size="10.00">/RootFinder/NewtonRaphson.hh</text>
</a>
</g>
</g>
<!-- Node6&#45;&gt;Node13 -->
<g id="edge12_Node000006_Node000013" class="edge">
<title>Node6&#45;&gt;Node13</title>
<g id="a_edge12_Node000006_Node000013"><a xlink:title=" ">
<path fill="none" stroke="#63b8ff" d="M946.31,-129.35C980.8,-119.29 1023.3,-106.89 1055.79,-97.4"/>
<polygon fill="#63b8ff" stroke="#63b8ff" points="945.5,-125.95 936.88,-132.11 947.46,-132.67 945.5,-125.95"/>
</a>
</g>
</g>
<!-- Node14 -->
<g id="Node000014" class="node">
<title>Node14</title>
<g id="a_Node000014"><a xlink:href="_quasi_newton_8hh.html" target="_top" xlink:title=" ">
<polygon fill="white" stroke="#666666" points="1345.38,-97 1202.62,-97 1202.62,-66.5 1345.38,-66.5 1345.38,-97"/>
<text xml:space="preserve" text-anchor="start" x="1210.62" y="-83.5" font-family="Helvetica,sans-Serif" font-size="10.00">core/include/Optimist</text>
<text xml:space="preserve" text-anchor="middle" x="1274" y="-72.25" font-family="Helvetica,sans-Serif" font-size="10.00">/RootFinder/QuasiNewton.hh</text>
</a>
</g>
</g>
<!-- Node6&#45;&gt;Node14 -->
<g id="edge13_Node000006_Node000014" class="edge">
<title>Node6&#45;&gt;Node14</title>
<g id="a_edge13_Node000006_Node000014"><a xlink:title=" ">
<path fill="none" stroke="#63b8ff" d="M950.8,-136.76C1013.19,-126.75 1109.52,-111.15 1193,-97 1196.1,-96.47 1199.26,-95.93 1202.45,-95.39"/>
<polygon fill="#63b8ff" stroke="#63b8ff" points="950.37,-133.28 941.05,-138.32 951.48,-140.19 950.37,-133.28"/>
</a>
</g>
</g>
<!-- Node17 -->
<g id="Node000017" class="node">
<title>Node17</title>
<g id="a_Node000017"><a xlink:href="_varona_8hh.html" target="_top" xlink:title=" ">
<polygon fill="white" stroke="#666666" points="1476.75,-97 1363.25,-97 1363.25,-66.5 1476.75,-66.5 1476.75,-97"/>
<text xml:space="preserve" text-anchor="start" x="1371.25" y="-83.5" font-family="Helvetica,sans-Serif" font-size="10.00">core/include/Optimist</text>
<text xml:space="preserve" text-anchor="middle" x="1420" y="-72.25" font-family="Helvetica,sans-Serif" font-size="10.00">/RootFinder/Varona.hh</text>
</a>
</g>
</g>
<!-- Node6&#45;&gt;Node17 -->
<g id="edge16_Node000006_Node000017" class="edge">
<title>Node6&#45;&gt;Node17</title>
<g id="a_edge16_Node000006_Node000017"><a xlink:title=" ">
<path fill="none" stroke="#63b8ff" d="M950.64,-142.42C1041.61,-135.24 1210.95,-120.04 1354,-97 1356.89,-96.53 1359.85,-96.02 1362.83,-95.48"/>
<polygon fill="#63b8ff" stroke="#63b8ff" points="950.62,-138.92 940.92,-143.18 951.16,-145.89 950.62,-138.92"/>
</a>
</g>
</g>
<!-- Node8 -->
<g id="Node000008" class="node">
<title>Node8</title>
<g id="a_Node000008"><a xlink:href="_algo748_8hh.html" target="_top" xlink:title=" ">
<polygon fill="white" stroke="#666666" points="516.38,-30.5 397.62,-30.5 397.62,0 516.38,0 516.38,-30.5"/>
<text xml:space="preserve" text-anchor="start" x="405.62" y="-17" font-family="Helvetica,sans-Serif" font-size="10.00">core/include/Optimist</text>
<text xml:space="preserve" text-anchor="middle" x="457" y="-5.75" font-family="Helvetica,sans-Serif" font-size="10.00">/RootFinder/Algo748.hh</text>
</a>
</g>
</g>
<!-- Node7&#45;&gt;Node8 -->
<g id="edge7_Node000007_Node000008" class="edge">
<title>Node7&#45;&gt;Node8</title>
<g id="a_edge7_Node000007_Node000008"><a xlink:title=" ">
<path fill="none" stroke="#63b8ff" d="M505.75,-58.74C495.18,-49.53 483.17,-39.06 473.73,-30.83"/>
<polygon fill="#63b8ff" stroke="#63b8ff" points="503.23,-61.19 513.07,-65.12 507.83,-55.91 503.23,-61.19"/>
</a>
</g>
</g>
<!-- Node9 -->
<g id="Node000009" class="node">
<title>Node9</title>
<g id="a_Node000009"><a xlink:href="_chandrupatla_8hh.html" target="_top" xlink:title=" ">
<polygon fill="white" stroke="#666666" points="675.62,-30.5 534.38,-30.5 534.38,0 675.62,0 675.62,-30.5"/>
<text xml:space="preserve" text-anchor="start" x="542.38" y="-17" font-family="Helvetica,sans-Serif" font-size="10.00">core/include/Optimist</text>
<text xml:space="preserve" text-anchor="middle" x="605" y="-5.75" font-family="Helvetica,sans-Serif" font-size="10.00">/RootFinder/Chandrupatla.hh</text>
</a>
</g>
</g>
<!-- Node7&#45;&gt;Node9 -->
<g id="edge8_Node000007_Node000009" class="edge">
<title>Node7&#45;&gt;Node9</title>
<g id="a_edge8_Node000007_Node000009"><a xlink:title=" ">
<path fill="none" stroke="#63b8ff" d="M556.25,-58.74C566.82,-49.53 578.83,-39.06 588.27,-30.83"/>
<polygon fill="#63b8ff" stroke="#63b8ff" points="554.17,-55.91 548.93,-65.12 558.77,-61.19 554.17,-55.91"/>
</a>
</g>
</g>
<!-- Node15 -->
<g id="Node000015" class="node">
<title>Node15</title>
<g id="a_Node000015"><a xlink:href="_broyden_8hh.html" target="_top" xlink:title=" ">
<polygon fill="white" stroke="#666666" points="1261.75,-30.5 1142.25,-30.5 1142.25,0 1261.75,0 1261.75,-30.5"/>
<text xml:space="preserve" text-anchor="start" x="1150.25" y="-17" font-family="Helvetica,sans-Serif" font-size="10.00">core/include/Optimist</text>
<text xml:space="preserve" text-anchor="middle" x="1202" y="-5.75" font-family="Helvetica,sans-Serif" font-size="10.00">/RootFinder/Broyden.hh</text>
</a>
</g>
</g>
<!-- Node14&#45;&gt;Node15 -->
<g id="edge14_Node000014_Node000015" class="edge">
<title>Node14&#45;&gt;Node15</title>
<g id="a_edge14_Node000014_Node000015"><a xlink:title=" ">
<path fill="none" stroke="#63b8ff" d="M1249.12,-58.46C1238.91,-49.32 1227.38,-38.98 1218.27,-30.83"/>
<polygon fill="#63b8ff" stroke="#63b8ff" points="1246.75,-61.04 1256.53,-65.1 1251.42,-55.82 1246.75,-61.04"/>
</a>
</g>
</g>
<!-- Node16 -->
<g id="Node000016" class="node">
<title>Node16</title>
<g id="a_Node000016"><a xlink:href="_greenstadt_8hh.html" target="_top" xlink:title=" ">
<polygon fill="white" stroke="#666666" points="1411.75,-30.5 1280.25,-30.5 1280.25,0 1411.75,0 1411.75,-30.5"/>
<text xml:space="preserve" text-anchor="start" x="1288.25" y="-17" font-family="Helvetica,sans-Serif" font-size="10.00">core/include/Optimist</text>
<text xml:space="preserve" text-anchor="middle" x="1346" y="-5.75" font-family="Helvetica,sans-Serif" font-size="10.00">/RootFinder/Greenstadt.hh</text>
</a>
</g>
</g>
<!-- Node14&#45;&gt;Node16 -->
<g id="edge15_Node000014_Node000016" class="edge">
<title>Node14&#45;&gt;Node16</title>
<g id="a_edge15_Node000014_Node000016"><a xlink:title=" ">
<path fill="none" stroke="#63b8ff" d="M1298.88,-58.46C1309.09,-49.32 1320.62,-38.98 1329.73,-30.83"/>
<polygon fill="#63b8ff" stroke="#63b8ff" points="1296.58,-55.82 1291.47,-65.1 1301.25,-61.04 1296.58,-55.82"/>
</a>
</g>
</g>
</g>
</svg>
