<?xml version="1.0" encoding="UTF-8" standalone="no"?>
<!DOCTYPE svg PUBLIC "-//W3C//DTD SVG 1.1//EN"
 "http://www.w3.org/Graphics/SVG/1.1/DTD/svg11.dtd">
<!-- Generated by graphviz version 13.1.2 (20250808.2320)
 -->
<!-- Title: include/Optimist/SolverBase.hh Pages: 1 -->
<svg width="1382pt" height="216pt"
 viewBox="0.00 0.00 1382.00 216.00" xmlns="http://www.w3.org/2000/svg" xmlns:xlink="http://www.w3.org/1999/xlink">
<g id="graph0" class="graph" transform="scale(1 1) rotate(0) translate(4 211.5)">
<title>include/Optimist/SolverBase.hh</title>
<!-- Node1 -->
<g id="Node000001" class="node">
<title>Node1</title>
<g id="a_Node000001"><a xlink:title=" ">
<polygon fill="#999999" stroke="#666666" points="524.38,-207.5 371.12,-207.5 371.12,-188.25 524.38,-188.25 524.38,-207.5"/>
<text xml:space="preserve" text-anchor="middle" x="447.75" y="-194" font-family="Helvetica,sans-Serif" font-size="10.00">include/Optimist/SolverBase.hh</text>
</a>
</g>
</g>
<!-- Node2 -->
<g id="Node000002" class="node">
<title>Node2</title>
<g id="a_Node000002"><a xlink:href="_optimizer_8hh.html" target="_top" xlink:title=" ">
<polygon fill="white" stroke="#666666" points="287.88,-152.25 143.62,-152.25 143.62,-133 287.88,-133 287.88,-152.25"/>
<text xml:space="preserve" text-anchor="middle" x="215.75" y="-138.75" font-family="Helvetica,sans-Serif" font-size="10.00">include/Optimist/Optimizer.hh</text>
</a>
</g>
</g>
<!-- Node1&#45;&gt;Node2 -->
<g id="edge1_Node000001_Node000002" class="edge">
<title>Node1&#45;&gt;Node2</title>
<g id="a_edge1_Node000001_Node000002"><a xlink:title=" ">
<path fill="none" stroke="#63b8ff" d="M397.15,-185.26C354.5,-175.47 294.35,-161.67 255.21,-152.68"/>
<polygon fill="#63b8ff" stroke="#63b8ff" points="396.13,-188.62 406.66,-187.44 397.69,-181.79 396.13,-188.62"/>
</a>
</g>
</g>
<!-- Node5 -->
<g id="Node000005" class="node">
<title>Node5</title>
<g id="a_Node000005"><a xlink:href="_root_finder_8hh.html" target="_top" xlink:title=" ">
<polygon fill="white" stroke="#666666" points="833.88,-152.25 683.62,-152.25 683.62,-133 833.88,-133 833.88,-152.25"/>
<text xml:space="preserve" text-anchor="middle" x="758.75" y="-138.75" font-family="Helvetica,sans-Serif" font-size="10.00">include/Optimist/RootFinder.hh</text>
</a>
</g>
</g>
<!-- Node1&#45;&gt;Node5 -->
<g id="edge4_Node000001_Node000005" class="edge">
<title>Node1&#45;&gt;Node5</title>
<g id="a_edge4_Node000001_Node000005"><a xlink:title=" ">
<path fill="none" stroke="#63b8ff" d="M511.95,-185.88C569.19,-176.08 651.99,-161.9 705.6,-152.73"/>
<polygon fill="#63b8ff" stroke="#63b8ff" points="511.62,-182.39 502.35,-187.53 512.8,-189.29 511.62,-182.39"/>
</a>
</g>
</g>
<!-- Node3 -->
<g id="Node000003" class="node">
<title>Node3</title>
<g id="a_Node000003"><a xlink:href="_nelder_mead_8hh.html" target="_top" xlink:title=" ">
<polygon fill="white" stroke="#666666" points="131.5,-97 0,-97 0,-66.5 131.5,-66.5 131.5,-97"/>
<text xml:space="preserve" text-anchor="start" x="8" y="-83.5" font-family="Helvetica,sans-Serif" font-size="10.00">include/Optimist/Optimizer</text>
<text xml:space="preserve" text-anchor="middle" x="65.75" y="-72.25" font-family="Helvetica,sans-Serif" font-size="10.00">/NelderMead.hh</text>
</a>
</g>
</g>
<!-- Node2&#45;&gt;Node3 -->
<g id="edge2_Node000002_Node000003" class="edge">
<title>Node2&#45;&gt;Node3</title>
<g id="a_edge2_Node000002_Node000003"><a xlink:title=" ">
<path fill="none" stroke="#63b8ff" d="M182.16,-128.44C158.72,-119.24 127.43,-106.96 103.19,-97.44"/>
<polygon fill="#63b8ff" stroke="#63b8ff" points="180.64,-131.61 191.23,-132 183.2,-125.09 180.64,-131.61"/>
</a>
</g>
</g>
<!-- Node4 -->
<g id="Node000004" class="node">
<title>Node4</title>
<g id="a_Node000004"><a xlink:href="_pattern_search_8hh.html" target="_top" xlink:title=" ">
<polygon fill="white" stroke="#666666" points="281.5,-97 150,-97 150,-66.5 281.5,-66.5 281.5,-97"/>
<text xml:space="preserve" text-anchor="start" x="158" y="-83.5" font-family="Helvetica,sans-Serif" font-size="10.00">include/Optimist/Optimizer</text>
<text xml:space="preserve" text-anchor="middle" x="215.75" y="-72.25" font-family="Helvetica,sans-Serif" font-size="10.00">/PatternSearch.hh</text>
</a>
</g>
</g>
<!-- Node2&#45;&gt;Node4 -->
<g id="edge3_Node000002_Node000004" class="edge">
<title>Node2&#45;&gt;Node4</title>
<g id="a_edge3_Node000002_Node000004"><a xlink:title=" ">
<path fill="none" stroke="#63b8ff" d="M215.75,-121.42C215.75,-113.49 215.75,-104.56 215.75,-97.28"/>
<polygon fill="#63b8ff" stroke="#63b8ff" points="212.25,-121.17 215.75,-131.17 219.25,-121.17 212.25,-121.17"/>
</a>
</g>
</g>
<!-- Node6 -->
<g id="Node000006" class="node">
<title>Node6</title>
<g id="a_Node000006"><a xlink:href="_bracketing_8hh.html" target="_top" xlink:title=" ">
<polygon fill="white" stroke="#666666" points="437.5,-97 300,-97 300,-66.5 437.5,-66.5 437.5,-97"/>
<text xml:space="preserve" text-anchor="start" x="308" y="-83.5" font-family="Helvetica,sans-Serif" font-size="10.00">include/Optimist/RootFinder</text>
<text xml:space="preserve" text-anchor="middle" x="368.75" y="-72.25" font-family="Helvetica,sans-Serif" font-size="10.00">/Bracketing.hh</text>
</a>
</g>
</g>
<!-- Node5&#45;&gt;Node6 -->
<g id="edge5_Node000005_Node000006" class="edge">
<title>Node5&#45;&gt;Node6</title>
<g id="a_edge5_Node000005_Node000006"><a xlink:title=" ">
<path fill="none" stroke="#63b8ff" d="M678.48,-131.01C615.39,-122.46 525.34,-109.79 446.75,-97 443.76,-96.51 440.71,-96.01 437.63,-95.48"/>
<polygon fill="#63b8ff" stroke="#63b8ff" points="677.67,-134.43 688.05,-132.3 678.6,-127.5 677.67,-134.43"/>
</a>
</g>
</g>
<!-- Node9 -->
<g id="Node000009" class="node">
<title>Node9</title>
<g id="a_Node000009"><a xlink:href="_chebyshev_8hh.html" target="_top" xlink:title=" ">
<polygon fill="white" stroke="#666666" points="593.5,-97 456,-97 456,-66.5 593.5,-66.5 593.5,-97"/>
<text xml:space="preserve" text-anchor="start" x="464" y="-83.5" font-family="Helvetica,sans-Serif" font-size="10.00">include/Optimist/RootFinder</text>
<text xml:space="preserve" text-anchor="middle" x="524.75" y="-72.25" font-family="Helvetica,sans-Serif" font-size="10.00">/Chebyshev.hh</text>
</a>
</g>
</g>
<!-- Node5&#45;&gt;Node9 -->
<g id="edge8_Node000005_Node000009" class="edge">
<title>Node5&#45;&gt;Node9</title>
<g id="a_edge8_Node000005_Node000009"><a xlink:title=" ">
<path fill="none" stroke="#63b8ff" d="M711.71,-129.79C674.67,-120.47 622.85,-107.43 583.15,-97.44"/>
<polygon fill="#63b8ff" stroke="#63b8ff" points="710.68,-133.14 721.23,-132.19 712.39,-126.35 710.68,-133.14"/>
</a>
</g>
</g>
<!-- Node10 -->
<g id="Node000010" class="node">
<title>Node10</title>
<g id="a_Node000010"><a xlink:href="_halley_8hh.html" target="_top" xlink:title=" ">
<polygon fill="white" stroke="#666666" points="749.5,-97 612,-97 612,-66.5 749.5,-66.5 749.5,-97"/>
<text xml:space="preserve" text-anchor="start" x="620" y="-83.5" font-family="Helvetica,sans-Serif" font-size="10.00">include/Optimist/RootFinder</text>
<text xml:space="preserve" text-anchor="middle" x="680.75" y="-72.25" font-family="Helvetica,sans-Serif" font-size="10.00">/Halley.hh</text>
</a>
</g>
</g>
<!-- Node5&#45;&gt;Node10 -->
<g id="edge9_Node000005_Node000010" class="edge">
<title>Node5&#45;&gt;Node10</title>
<g id="a_edge9_Node000005_Node000010"><a xlink:title=" ">
<path fill="none" stroke="#63b8ff" d="M737.82,-125.82C726.05,-116.95 711.48,-105.94 700,-97.28"/>
<polygon fill="#63b8ff" stroke="#63b8ff" points="735.61,-128.54 745.7,-131.77 739.82,-122.95 735.61,-128.54"/>
</a>
</g>
</g>
<!-- Node11 -->
<g id="Node000011" class="node">
<title>Node11</title>
<g id="a_Node000011"><a xlink:href="_newton_8hh.html" target="_top" xlink:title=" ">
<polygon fill="white" stroke="#666666" points="905.5,-97 768,-97 768,-66.5 905.5,-66.5 905.5,-97"/>
<text xml:space="preserve" text-anchor="start" x="776" y="-83.5" font-family="Helvetica,sans-Serif" font-size="10.00">include/Optimist/RootFinder</text>
<text xml:space="preserve" text-anchor="middle" x="836.75" y="-72.25" font-family="Helvetica,sans-Serif" font-size="10.00">/Newton.hh</text>
</a>
</g>
</g>
<!-- Node5&#45;&gt;Node11 -->
<g id="edge10_Node000005_Node000011" class="edge">
<title>Node5&#45;&gt;Node11</title>
<g id="a_edge10_Node000005_Node000011"><a xlink:title=" ">
<path fill="none" stroke="#63b8ff" d="M779.68,-125.82C791.45,-116.95 806.02,-105.94 817.5,-97.28"/>
<polygon fill="#63b8ff" stroke="#63b8ff" points="777.68,-122.95 771.8,-131.77 781.89,-128.54 777.68,-122.95"/>
</a>
</g>
</g>
<!-- Node12 -->
<g id="Node000012" class="node">
<title>Node12</title>
<g id="a_Node000012"><a xlink:href="_newton_raphson_8hh.html" target="_top" xlink:title=" ">
<polygon fill="white" stroke="#666666" points="1061.5,-97 924,-97 924,-66.5 1061.5,-66.5 1061.5,-97"/>
<text xml:space="preserve" text-anchor="start" x="932" y="-83.5" font-family="Helvetica,sans-Serif" font-size="10.00">include/Optimist/RootFinder</text>
<text xml:space="preserve" text-anchor="middle" x="992.75" y="-72.25" font-family="Helvetica,sans-Serif" font-size="10.00">/NewtonRaphson.hh</text>
</a>
</g>
</g>
<!-- Node5&#45;&gt;Node12 -->
<g id="edge11_Node000005_Node000012" class="edge">
<title>Node5&#45;&gt;Node12</title>
<g id="a_edge11_Node000005_Node000012"><a xlink:title=" ">
<path fill="none" stroke="#63b8ff" d="M805.79,-129.79C842.83,-120.47 894.65,-107.43 934.35,-97.44"/>
<polygon fill="#63b8ff" stroke="#63b8ff" points="805.11,-126.35 796.27,-132.19 806.82,-133.14 805.11,-126.35"/>
</a>
</g>
</g>
<!-- Node13 -->
<g id="Node000013" class="node">
<title>Node13</title>
<g id="a_Node000013"><a xlink:href="_quasi_newton_8hh.html" target="_top" xlink:title=" ">
<polygon fill="white" stroke="#666666" points="1217.5,-97 1080,-97 1080,-66.5 1217.5,-66.5 1217.5,-97"/>
<text xml:space="preserve" text-anchor="start" x="1088" y="-83.5" font-family="Helvetica,sans-Serif" font-size="10.00">include/Optimist/RootFinder</text>
<text xml:space="preserve" text-anchor="middle" x="1148.75" y="-72.25" font-family="Helvetica,sans-Serif" font-size="10.00">/QuasiNewton.hh</text>
</a>
</g>
</g>
<!-- Node5&#45;&gt;Node13 -->
<g id="edge12_Node000005_Node000013" class="edge">
<title>Node5&#45;&gt;Node13</title>
<g id="a_edge12_Node000005_Node000013"><a xlink:title=" ">
<path fill="none" stroke="#63b8ff" d="M839.02,-131.01C902.11,-122.46 992.16,-109.79 1070.75,-97 1073.74,-96.51 1076.79,-96.01 1079.87,-95.48"/>
<polygon fill="#63b8ff" stroke="#63b8ff" points="838.9,-127.5 829.45,-132.3 839.83,-134.43 838.9,-127.5"/>
</a>
</g>
</g>
<!-- Node16 -->
<g id="Node000016" class="node">
<title>Node16</title>
<g id="a_Node000016"><a xlink:href="_varona_8hh.html" target="_top" xlink:title=" ">
<polygon fill="white" stroke="#666666" points="1373.5,-97 1236,-97 1236,-66.5 1373.5,-66.5 1373.5,-97"/>
<text xml:space="preserve" text-anchor="start" x="1244" y="-83.5" font-family="Helvetica,sans-Serif" font-size="10.00">include/Optimist/RootFinder</text>
<text xml:space="preserve" text-anchor="middle" x="1304.75" y="-72.25" font-family="Helvetica,sans-Serif" font-size="10.00">/Varona.hh</text>
</a>
</g>
</g>
<!-- Node5&#45;&gt;Node16 -->
<g id="edge15_Node000005_Node000016" class="edge">
<title>Node5&#45;&gt;Node16</title>
<g id="a_edge15_Node000005_Node000016"><a xlink:title=" ">
<path fill="none" stroke="#63b8ff" d="M845.83,-135.56C940,-128.49 1094.43,-115.36 1226.75,-97 1229.75,-96.58 1232.81,-96.13 1235.9,-95.66"/>
<polygon fill="#63b8ff" stroke="#63b8ff" points="845.59,-132.07 835.87,-136.3 846.11,-139.05 845.59,-132.07"/>
</a>
</g>
</g>
<!-- Node7 -->
<g id="Node000007" class="node">
<title>Node7</title>
<g id="a_Node000007"><a xlink:href="_algo748_8hh.html" target="_top" xlink:title=" ">
<polygon fill="white" stroke="#666666" points="359.5,-30.5 222,-30.5 222,0 359.5,0 359.5,-30.5"/>
<text xml:space="preserve" text-anchor="start" x="230" y="-17" font-family="Helvetica,sans-Serif" font-size="10.00">include/Optimist/RootFinder</text>
<text xml:space="preserve" text-anchor="middle" x="290.75" y="-5.75" font-family="Helvetica,sans-Serif" font-size="10.00">/Algo748.hh</text>
</a>
</g>
</g>
<!-- Node6&#45;&gt;Node7 -->
<g id="edge6_Node000006_Node000007" class="edge">
<title>Node6&#45;&gt;Node7</title>
<g id="a_edge6_Node000006_Node000007"><a xlink:title=" ">
<path fill="none" stroke="#63b8ff" d="M342.47,-59.02C331.24,-49.73 318.44,-39.15 308.38,-30.83"/>
<polygon fill="#63b8ff" stroke="#63b8ff" points="339.95,-61.47 349.88,-65.15 344.41,-56.08 339.95,-61.47"/>
</a>
</g>
</g>
<!-- Node8 -->
<g id="Node000008" class="node">
<title>Node8</title>
<g id="a_Node000008"><a xlink:href="_chandrupatla_8hh.html" target="_top" xlink:title=" ">
<polygon fill="white" stroke="#666666" points="515.5,-30.5 378,-30.5 378,0 515.5,0 515.5,-30.5"/>
<text xml:space="preserve" text-anchor="start" x="386" y="-17" font-family="Helvetica,sans-Serif" font-size="10.00">include/Optimist/RootFinder</text>
<text xml:space="preserve" text-anchor="middle" x="446.75" y="-5.75" font-family="Helvetica,sans-Serif" font-size="10.00">/Chandrupatla.hh</text>
</a>
</g>
</g>
<!-- Node6&#45;&gt;Node8 -->
<g id="edge7_Node000006_Node000008" class="edge">
<title>Node6&#45;&gt;Node8</title>
<g id="a_edge7_Node000006_Node000008"><a xlink:title=" ">
<path fill="none" stroke="#63b8ff" d="M395.03,-59.02C406.26,-49.73 419.06,-39.15 429.12,-30.83"/>
<polygon fill="#63b8ff" stroke="#63b8ff" points="393.09,-56.08 387.62,-65.15 397.55,-61.47 393.09,-56.08"/>
</a>
</g>
</g>
<!-- Node14 -->
<g id="Node000014" class="node">
<title>Node14</title>
<g id="a_Node000014"><a xlink:href="_broyden_8hh.html" target="_top" xlink:title=" ">
<polygon fill="white" stroke="#666666" points="1139.5,-30.5 1002,-30.5 1002,0 1139.5,0 1139.5,-30.5"/>
<text xml:space="preserve" text-anchor="start" x="1010" y="-17" font-family="Helvetica,sans-Serif" font-size="10.00">include/Optimist/RootFinder</text>
<text xml:space="preserve" text-anchor="middle" x="1070.75" y="-5.75" font-family="Helvetica,sans-Serif" font-size="10.00">/Broyden.hh</text>
</a>
</g>
</g>
<!-- Node13&#45;&gt;Node14 -->
<g id="edge13_Node000013_Node000014" class="edge">
<title>Node13&#45;&gt;Node14</title>
<g id="a_edge13_Node000013_Node000014"><a xlink:title=" ">
<path fill="none" stroke="#63b8ff" d="M1122.47,-59.02C1111.24,-49.73 1098.44,-39.15 1088.38,-30.83"/>
<polygon fill="#63b8ff" stroke="#63b8ff" points="1119.95,-61.47 1129.88,-65.15 1124.41,-56.08 1119.95,-61.47"/>
</a>
</g>
</g>
<!-- Node15 -->
<g id="Node000015" class="node">
<title>Node15</title>
<g id="a_Node000015"><a xlink:href="_greenstadt_8hh.html" target="_top" xlink:title=" ">
<polygon fill="white" stroke="#666666" points="1295.5,-30.5 1158,-30.5 1158,0 1295.5,0 1295.5,-30.5"/>
<text xml:space="preserve" text-anchor="start" x="1166" y="-17" font-family="Helvetica,sans-Serif" font-size="10.00">include/Optimist/RootFinder</text>
<text xml:space="preserve" text-anchor="middle" x="1226.75" y="-5.75" font-family="Helvetica,sans-Serif" font-size="10.00">/Greenstadt.hh</text>
</a>
</g>
</g>
<!-- Node13&#45;&gt;Node15 -->
<g id="edge14_Node000013_Node000015" class="edge">
<title>Node13&#45;&gt;Node15</title>
<g id="a_edge14_Node000013_Node000015"><a xlink:title=" ">
<path fill="none" stroke="#63b8ff" d="M1175.03,-59.02C1186.26,-49.73 1199.06,-39.15 1209.12,-30.83"/>
<polygon fill="#63b8ff" stroke="#63b8ff" points="1173.09,-56.08 1167.62,-65.15 1177.55,-61.47 1173.09,-56.08"/>
</a>
</g>
</g>
</g>
</svg>
