<?xml version="1.0" encoding="UTF-8" standalone="no"?>
<!DOCTYPE svg PUBLIC "-//W3C//DTD SVG 1.1//EN"
 "http://www.w3.org/Graphics/SVG/1.1/DTD/svg11.dtd">
<!-- Generated by graphviz version 12.2.1 (20241206.2353)
 -->
<!-- Title: include/Optimist/Solver.hh Pages: 1 -->
<svg width="1382pt" height="227pt"
 viewBox="0.00 0.00 1381.88 226.75" xmlns="http://www.w3.org/2000/svg" xmlns:xlink="http://www.w3.org/1999/xlink">
<g id="graph0" class="graph" transform="scale(1 1) rotate(0) translate(4 222.75)">
<title>include/Optimist/Solver.hh</title>
<!-- Node1 -->
<g id="Node000001" class="node">
<title>Node1</title>
<g id="a_Node000001"><a xlink:title=" ">
<polygon fill="#999999" stroke="#666666" points="632.75,-218.75 502.75,-218.75 502.75,-199.5 632.75,-199.5 632.75,-218.75"/>
<text text-anchor="middle" x="567.75" y="-205.25" font-family="Helvetica,sans-Serif" font-size="10.00">include/Optimist/Solver.hh</text>
</a>
</g>
</g>
<!-- Node2 -->
<g id="Node000002" class="node">
<title>Node2</title>
<g id="a_Node000002"><a xlink:href="_optimizer_8hh.html" target="_top" xlink:title=" ">
<polygon fill="white" stroke="#666666" points="287.88,-157.88 143.62,-157.88 143.62,-138.62 287.88,-138.62 287.88,-157.88"/>
<text text-anchor="middle" x="215.75" y="-144.38" font-family="Helvetica,sans-Serif" font-size="10.00">include/Optimist/Optimizer.hh</text>
</a>
</g>
</g>
<!-- Node1&#45;&gt;Node2 -->
<g id="edge1_Node000001_Node000002" class="edge">
<title>Node1&#45;&gt;Node2</title>
<g id="a_edge1_Node000001_Node000002"><a xlink:title=" ">
<path fill="none" stroke="#63b8ff" d="M502.28,-197.17C435.35,-185.98 332.6,-168.79 270.04,-158.33"/>
<polygon fill="#63b8ff" stroke="#63b8ff" points="501.59,-200.61 512.03,-198.81 502.74,-193.7 501.59,-200.61"/>
</a>
</g>
</g>
<!-- Node5 -->
<g id="Node000005" class="node">
<title>Node5</title>
<g id="a_Node000005"><a xlink:href="_root_finder_8hh.html" target="_top" xlink:title=" ">
<polygon fill="white" stroke="#666666" points="553.88,-157.88 403.62,-157.88 403.62,-138.62 553.88,-138.62 553.88,-157.88"/>
<text text-anchor="middle" x="478.75" y="-144.38" font-family="Helvetica,sans-Serif" font-size="10.00">include/Optimist/RootFinder.hh</text>
</a>
</g>
</g>
<!-- Node1&#45;&gt;Node5 -->
<g id="edge4_Node000001_Node000005" class="edge">
<title>Node1&#45;&gt;Node5</title>
<g id="a_edge4_Node000001_Node000005"><a xlink:title=" ">
<path fill="none" stroke="#63b8ff" d="M544.7,-192.88C528.11,-181.9 506.3,-167.47 492.39,-158.28"/>
<polygon fill="#63b8ff" stroke="#63b8ff" points="542.7,-195.75 552.97,-198.35 546.56,-189.91 542.7,-195.75"/>
</a>
</g>
</g>
<!-- Node10 -->
<g id="Node000010" class="node">
<title>Node10</title>
<g id="a_Node000010"><a xlink:href="_scalar_optimizer_8hh.html" target="_top" xlink:title=" ">
<polygon fill="white" stroke="#666666" points="743.75,-157.88 571.75,-157.88 571.75,-138.62 743.75,-138.62 743.75,-157.88"/>
<text text-anchor="middle" x="657.75" y="-144.38" font-family="Helvetica,sans-Serif" font-size="10.00">include/Optimist/ScalarOptimizer.hh</text>
</a>
</g>
</g>
<!-- Node1&#45;&gt;Node10 -->
<g id="edge9_Node000001_Node000010" class="edge">
<title>Node1&#45;&gt;Node10</title>
<g id="a_edge9_Node000001_Node000010"><a xlink:title=" ">
<path fill="none" stroke="#63b8ff" d="M590.59,-193.18C607.42,-182.17 629.76,-167.56 643.95,-158.28"/>
<polygon fill="#63b8ff" stroke="#63b8ff" points="589.14,-189.95 582.69,-198.35 592.97,-195.81 589.14,-189.95"/>
</a>
</g>
</g>
<!-- Node11 -->
<g id="Node000011" class="node">
<title>Node11</title>
<g id="a_Node000011"><a xlink:href="_scalar_root_finder_8hh.html" target="_top" xlink:title=" ">
<polygon fill="white" stroke="#666666" points="951.88,-163.5 813.62,-163.5 813.62,-133 951.88,-133 951.88,-163.5"/>
<text text-anchor="start" x="821.62" y="-150" font-family="Helvetica,sans-Serif" font-size="10.00">include/Optimist/ScalarRoot</text>
<text text-anchor="middle" x="882.75" y="-138.75" font-family="Helvetica,sans-Serif" font-size="10.00">Finder.hh</text>
</a>
</g>
</g>
<!-- Node1&#45;&gt;Node11 -->
<g id="edge10_Node000001_Node000011" class="edge">
<title>Node1&#45;&gt;Node11</title>
<g id="a_edge10_Node000001_Node000011"><a xlink:title=" ">
<path fill="none" stroke="#63b8ff" d="M627.52,-196.95C680.46,-187.06 757.76,-172.61 813.4,-162.21"/>
<polygon fill="#63b8ff" stroke="#63b8ff" points="626.95,-193.5 617.77,-198.78 628.24,-200.38 626.95,-193.5"/>
</a>
</g>
</g>
<!-- Node3 -->
<g id="Node000003" class="node">
<title>Node3</title>
<g id="a_Node000003"><a xlink:href="_nelder_mead_8hh.html" target="_top" xlink:title=" ">
<polygon fill="white" stroke="#666666" points="131.5,-97 0,-97 0,-66.5 131.5,-66.5 131.5,-97"/>
<text text-anchor="start" x="8" y="-83.5" font-family="Helvetica,sans-Serif" font-size="10.00">include/Optimist/Optimizer</text>
<text text-anchor="middle" x="65.75" y="-72.25" font-family="Helvetica,sans-Serif" font-size="10.00">/NelderMead.hh</text>
</a>
</g>
</g>
<!-- Node2&#45;&gt;Node3 -->
<g id="edge2_Node000002_Node000003" class="edge">
<title>Node2&#45;&gt;Node3</title>
<g id="a_edge2_Node000002_Node000003"><a xlink:title=" ">
<path fill="none" stroke="#63b8ff" d="M184.3,-133.72C159.57,-123.09 125.19,-108.31 99.82,-97.4"/>
<polygon fill="#63b8ff" stroke="#63b8ff" points="182.62,-136.81 193.19,-137.55 185.38,-130.38 182.62,-136.81"/>
</a>
</g>
</g>
<!-- Node4 -->
<g id="Node000004" class="node">
<title>Node4</title>
<g id="a_Node000004"><a xlink:href="_pattern_search_8hh.html" target="_top" xlink:title=" ">
<polygon fill="white" stroke="#666666" points="281.5,-97 150,-97 150,-66.5 281.5,-66.5 281.5,-97"/>
<text text-anchor="start" x="158" y="-83.5" font-family="Helvetica,sans-Serif" font-size="10.00">include/Optimist/Optimizer</text>
<text text-anchor="middle" x="215.75" y="-72.25" font-family="Helvetica,sans-Serif" font-size="10.00">/PatternSearch.hh</text>
</a>
</g>
</g>
<!-- Node2&#45;&gt;Node4 -->
<g id="edge3_Node000002_Node000004" class="edge">
<title>Node2&#45;&gt;Node4</title>
<g id="a_edge3_Node000002_Node000004"><a xlink:title=" ">
<path fill="none" stroke="#63b8ff" d="M215.75,-126.87C215.75,-117.19 215.75,-105.85 215.75,-97.09"/>
<polygon fill="#63b8ff" stroke="#63b8ff" points="212.25,-126.77 215.75,-136.77 219.25,-126.77 212.25,-126.77"/>
</a>
</g>
</g>
<!-- Node6 -->
<g id="Node000006" class="node">
<title>Node6</title>
<g id="a_Node000006"><a xlink:href="_root_finder_2_newton_8hh.html" target="_top" xlink:title=" ">
<polygon fill="white" stroke="#666666" points="437.5,-97 300,-97 300,-66.5 437.5,-66.5 437.5,-97"/>
<text text-anchor="start" x="308" y="-83.5" font-family="Helvetica,sans-Serif" font-size="10.00">include/Optimist/RootFinder</text>
<text text-anchor="middle" x="368.75" y="-72.25" font-family="Helvetica,sans-Serif" font-size="10.00">/Newton.hh</text>
</a>
</g>
</g>
<!-- Node5&#45;&gt;Node6 -->
<g id="edge5_Node000005_Node000006" class="edge">
<title>Node5&#45;&gt;Node6</title>
<g id="a_edge5_Node000005_Node000006"><a xlink:title=" ">
<path fill="none" stroke="#63b8ff" d="M453.67,-132.54C435.69,-122 411.57,-107.86 393.63,-97.34"/>
<polygon fill="#63b8ff" stroke="#63b8ff" points="451.75,-135.48 462.15,-137.52 455.29,-129.44 451.75,-135.48"/>
</a>
</g>
</g>
<!-- Node7 -->
<g id="Node000007" class="node">
<title>Node7</title>
<g id="a_Node000007"><a xlink:href="_quasi_newton_8hh.html" target="_top" xlink:title=" ">
<polygon fill="white" stroke="#666666" points="593.5,-97 456,-97 456,-66.5 593.5,-66.5 593.5,-97"/>
<text text-anchor="start" x="464" y="-83.5" font-family="Helvetica,sans-Serif" font-size="10.00">include/Optimist/RootFinder</text>
<text text-anchor="middle" x="524.75" y="-72.25" font-family="Helvetica,sans-Serif" font-size="10.00">/QuasiNewton.hh</text>
</a>
</g>
</g>
<!-- Node5&#45;&gt;Node7 -->
<g id="edge6_Node000005_Node000007" class="edge">
<title>Node5&#45;&gt;Node7</title>
<g id="a_edge6_Node000005_Node000007"><a xlink:title=" ">
<path fill="none" stroke="#63b8ff" d="M491.68,-129.12C498.91,-118.99 507.78,-106.54 514.52,-97.09"/>
<polygon fill="#63b8ff" stroke="#63b8ff" points="488.98,-126.88 486.02,-137.05 494.68,-130.94 488.98,-126.88"/>
</a>
</g>
</g>
<!-- Node8 -->
<g id="Node000008" class="node">
<title>Node8</title>
<g id="a_Node000008"><a xlink:href="_broyden_8hh.html" target="_top" xlink:title=" ">
<polygon fill="white" stroke="#666666" points="437.5,-30.5 300,-30.5 300,0 437.5,0 437.5,-30.5"/>
<text text-anchor="start" x="308" y="-17" font-family="Helvetica,sans-Serif" font-size="10.00">include/Optimist/RootFinder</text>
<text text-anchor="middle" x="368.75" y="-5.75" font-family="Helvetica,sans-Serif" font-size="10.00">/Broyden.hh</text>
</a>
</g>
</g>
<!-- Node7&#45;&gt;Node8 -->
<g id="edge7_Node000007_Node000008" class="edge">
<title>Node7&#45;&gt;Node8</title>
<g id="a_edge7_Node000007_Node000008"><a xlink:title=" ">
<path fill="none" stroke="#63b8ff" d="M478.79,-61.75C454.99,-51.91 426.37,-40.07 404.28,-30.94"/>
<polygon fill="#63b8ff" stroke="#63b8ff" points="477.37,-64.95 487.95,-65.54 480.05,-58.48 477.37,-64.95"/>
</a>
</g>
</g>
<!-- Node9 -->
<g id="Node000009" class="node">
<title>Node9</title>
<g id="a_Node000009"><a xlink:href="_greenstadt_8hh.html" target="_top" xlink:title=" ">
<polygon fill="white" stroke="#666666" points="593.5,-30.5 456,-30.5 456,0 593.5,0 593.5,-30.5"/>
<text text-anchor="start" x="464" y="-17" font-family="Helvetica,sans-Serif" font-size="10.00">include/Optimist/RootFinder</text>
<text text-anchor="middle" x="524.75" y="-5.75" font-family="Helvetica,sans-Serif" font-size="10.00">/Greenstadt.hh</text>
</a>
</g>
</g>
<!-- Node7&#45;&gt;Node9 -->
<g id="edge8_Node000007_Node000009" class="edge">
<title>Node7&#45;&gt;Node9</title>
<g id="a_edge8_Node000007_Node000009"><a xlink:title=" ">
<path fill="none" stroke="#63b8ff" d="M524.75,-54.81C524.75,-46.64 524.75,-37.91 524.75,-30.83"/>
<polygon fill="#63b8ff" stroke="#63b8ff" points="521.25,-54.6 524.75,-64.6 528.25,-54.6 521.25,-54.6"/>
</a>
</g>
</g>
<!-- Node12 -->
<g id="Node000012" class="node">
<title>Node12</title>
<g id="a_Node000012"><a xlink:href="_bracketing_8hh.html" target="_top" xlink:title=" ">
<polygon fill="white" stroke="#666666" points="749.88,-97 611.62,-97 611.62,-66.5 749.88,-66.5 749.88,-97"/>
<text text-anchor="start" x="619.62" y="-83.5" font-family="Helvetica,sans-Serif" font-size="10.00">include/Optimist/ScalarRoot</text>
<text text-anchor="middle" x="680.75" y="-72.25" font-family="Helvetica,sans-Serif" font-size="10.00">Finder/Bracketing.hh</text>
</a>
</g>
</g>
<!-- Node11&#45;&gt;Node12 -->
<g id="edge11_Node000011_Node000012" class="edge">
<title>Node11&#45;&gt;Node12</title>
<g id="a_edge11_Node000011_Node000012"><a xlink:title=" ">
<path fill="none" stroke="#63b8ff" d="M825.89,-129.09C794.52,-119.08 756.08,-106.8 726.64,-97.4"/>
<polygon fill="#63b8ff" stroke="#63b8ff" points="824.63,-132.37 835.22,-132.07 826.76,-125.7 824.63,-132.37"/>
</a>
</g>
</g>
<!-- Node15 -->
<g id="Node000015" class="node">
<title>Node15</title>
<g id="a_Node000015"><a xlink:href="_chebyshev_8hh.html" target="_top" xlink:title=" ">
<polygon fill="white" stroke="#666666" points="905.88,-97 767.62,-97 767.62,-66.5 905.88,-66.5 905.88,-97"/>
<text text-anchor="start" x="775.62" y="-83.5" font-family="Helvetica,sans-Serif" font-size="10.00">include/Optimist/ScalarRoot</text>
<text text-anchor="middle" x="836.75" y="-72.25" font-family="Helvetica,sans-Serif" font-size="10.00">Finder/Chebyshev.hh</text>
</a>
</g>
</g>
<!-- Node11&#45;&gt;Node15 -->
<g id="edge14_Node000011_Node000015" class="edge">
<title>Node11&#45;&gt;Node15</title>
<g id="a_edge14_Node000011_Node000015"><a xlink:title=" ">
<path fill="none" stroke="#63b8ff" d="M865.66,-123.29C859.44,-114.57 852.61,-104.99 847.15,-97.33"/>
<polygon fill="#63b8ff" stroke="#63b8ff" points="862.78,-125.27 871.43,-131.38 868.48,-121.21 862.78,-125.27"/>
</a>
</g>
</g>
<!-- Node16 -->
<g id="Node000016" class="node">
<title>Node16</title>
<g id="a_Node000016"><a xlink:href="_halley_8hh.html" target="_top" xlink:title=" ">
<polygon fill="white" stroke="#666666" points="1061.88,-97 923.62,-97 923.62,-66.5 1061.88,-66.5 1061.88,-97"/>
<text text-anchor="start" x="931.62" y="-83.5" font-family="Helvetica,sans-Serif" font-size="10.00">include/Optimist/ScalarRoot</text>
<text text-anchor="middle" x="992.75" y="-72.25" font-family="Helvetica,sans-Serif" font-size="10.00">Finder/Halley.hh</text>
</a>
</g>
</g>
<!-- Node11&#45;&gt;Node16 -->
<g id="edge15_Node000011_Node000016" class="edge">
<title>Node11&#45;&gt;Node16</title>
<g id="a_edge15_Node000011_Node000016"><a xlink:title=" ">
<path fill="none" stroke="#63b8ff" d="M917.48,-126.89C933.85,-117.29 953,-106.06 967.89,-97.33"/>
<polygon fill="#63b8ff" stroke="#63b8ff" points="915.87,-123.77 909.02,-131.85 919.41,-129.81 915.87,-123.77"/>
</a>
</g>
</g>
<!-- Node17 -->
<g id="Node000017" class="node">
<title>Node17</title>
<g id="a_Node000017"><a xlink:href="_scalar_root_finder_2_newton_8hh.html" target="_top" xlink:title=" ">
<polygon fill="white" stroke="#666666" points="1217.88,-97 1079.62,-97 1079.62,-66.5 1217.88,-66.5 1217.88,-97"/>
<text text-anchor="start" x="1087.62" y="-83.5" font-family="Helvetica,sans-Serif" font-size="10.00">include/Optimist/ScalarRoot</text>
<text text-anchor="middle" x="1148.75" y="-72.25" font-family="Helvetica,sans-Serif" font-size="10.00">Finder/Newton.hh</text>
</a>
</g>
</g>
<!-- Node11&#45;&gt;Node17 -->
<g id="edge16_Node000011_Node000017" class="edge">
<title>Node11&#45;&gt;Node17</title>
<g id="a_edge16_Node000011_Node000017"><a xlink:title=" ">
<path fill="none" stroke="#63b8ff" d="M954.4,-129.88C996.28,-119.72 1048.54,-107.05 1088.32,-97.4"/>
<polygon fill="#63b8ff" stroke="#63b8ff" points="953.81,-126.42 944.91,-132.18 955.46,-133.22 953.81,-126.42"/>
</a>
</g>
</g>
<!-- Node18 -->
<g id="Node000018" class="node">
<title>Node18</title>
<g id="a_Node000018"><a xlink:href="_varona_8hh.html" target="_top" xlink:title=" ">
<polygon fill="white" stroke="#666666" points="1373.88,-97 1235.62,-97 1235.62,-66.5 1373.88,-66.5 1373.88,-97"/>
<text text-anchor="start" x="1243.62" y="-83.5" font-family="Helvetica,sans-Serif" font-size="10.00">include/Optimist/ScalarRoot</text>
<text text-anchor="middle" x="1304.75" y="-72.25" font-family="Helvetica,sans-Serif" font-size="10.00">Finder/Varona.hh</text>
</a>
</g>
</g>
<!-- Node11&#45;&gt;Node18 -->
<g id="edge17_Node000011_Node000018" class="edge">
<title>Node11&#45;&gt;Node18</title>
<g id="a_edge17_Node000011_Node000018"><a xlink:title=" ">
<path fill="none" stroke="#63b8ff" d="M963.71,-136.25C1033.5,-126.58 1136.91,-111.76 1226.75,-97 1229.6,-96.53 1232.51,-96.04 1235.45,-95.54"/>
<polygon fill="#63b8ff" stroke="#63b8ff" points="963.3,-132.78 953.87,-137.61 964.26,-139.71 963.3,-132.78"/>
</a>
</g>
</g>
<!-- Node13 -->
<g id="Node000013" class="node">
<title>Node13</title>
<g id="a_Node000013"><a xlink:href="_algo748_8hh.html" target="_top" xlink:title=" ">
<polygon fill="white" stroke="#666666" points="749.88,-30.5 611.62,-30.5 611.62,0 749.88,0 749.88,-30.5"/>
<text text-anchor="start" x="619.62" y="-17" font-family="Helvetica,sans-Serif" font-size="10.00">include/Optimist/ScalarRoot</text>
<text text-anchor="middle" x="680.75" y="-5.75" font-family="Helvetica,sans-Serif" font-size="10.00">Finder/Algo748.hh</text>
</a>
</g>
</g>
<!-- Node12&#45;&gt;Node13 -->
<g id="edge12_Node000012_Node000013" class="edge">
<title>Node12&#45;&gt;Node13</title>
<g id="a_edge12_Node000012_Node000013"><a xlink:title=" ">
<path fill="none" stroke="#63b8ff" d="M680.75,-54.81C680.75,-46.64 680.75,-37.91 680.75,-30.83"/>
<polygon fill="#63b8ff" stroke="#63b8ff" points="677.25,-54.6 680.75,-64.6 684.25,-54.6 677.25,-54.6"/>
</a>
</g>
</g>
<!-- Node14 -->
<g id="Node000014" class="node">
<title>Node14</title>
<g id="a_Node000014"><a xlink:href="_chandrupatla_8hh.html" target="_top" xlink:title=" ">
<polygon fill="white" stroke="#666666" points="905.88,-30.5 767.62,-30.5 767.62,0 905.88,0 905.88,-30.5"/>
<text text-anchor="start" x="775.62" y="-17" font-family="Helvetica,sans-Serif" font-size="10.00">include/Optimist/ScalarRoot</text>
<text text-anchor="middle" x="836.75" y="-5.75" font-family="Helvetica,sans-Serif" font-size="10.00">Finder/Chandrupatla.hh</text>
</a>
</g>
</g>
<!-- Node12&#45;&gt;Node14 -->
<g id="edge13_Node000012_Node000014" class="edge">
<title>Node12&#45;&gt;Node14</title>
<g id="a_edge13_Node000012_Node000014"><a xlink:title=" ">
<path fill="none" stroke="#63b8ff" d="M726.71,-61.75C750.51,-51.91 779.13,-40.07 801.22,-30.94"/>
<polygon fill="#63b8ff" stroke="#63b8ff" points="725.45,-58.48 717.55,-65.54 728.13,-64.95 725.45,-58.48"/>
</a>
</g>
</g>
</g>
</svg>
