<?xml version="1.0" encoding="UTF-8" standalone="no"?>
<!DOCTYPE svg PUBLIC "-//W3C//DTD SVG 1.1//EN"
 "http://www.w3.org/Graphics/SVG/1.1/DTD/svg11.dtd">
<!-- Generated by graphviz version 12.2.1 (20241206.2353)
 -->
<!-- Title: include/Optimist/Solver.hh Pages: 1 -->
<svg width="1226pt" height="216pt"
 viewBox="0.00 0.00 1225.50 215.50" xmlns="http://www.w3.org/2000/svg" xmlns:xlink="http://www.w3.org/1999/xlink">
<g id="graph0" class="graph" transform="scale(1 1) rotate(0) translate(4 211.5)">
<title>include/Optimist/Solver.hh</title>
<!-- Node1 -->
<g id="Node000001" class="node">
<title>Node1</title>
<g id="a_Node000001"><a xlink:title=" ">
<polygon fill="#999999" stroke="#666666" points="512.75,-207.5 382.75,-207.5 382.75,-188.25 512.75,-188.25 512.75,-207.5"/>
<text text-anchor="middle" x="447.75" y="-194" font-family="Helvetica,sans-Serif" font-size="10.00">include/Optimist/Solver.hh</text>
</a>
</g>
</g>
<!-- Node2 -->
<g id="Node000002" class="node">
<title>Node2</title>
<g id="a_Node000002"><a xlink:href="_optimizer_8hh.html" target="_top" xlink:title=" ">
<polygon fill="white" stroke="#666666" points="287.88,-152.25 143.62,-152.25 143.62,-133 287.88,-133 287.88,-152.25"/>
<text text-anchor="middle" x="215.75" y="-138.75" font-family="Helvetica,sans-Serif" font-size="10.00">include/Optimist/Optimizer.hh</text>
</a>
</g>
</g>
<!-- Node1&#45;&gt;Node2 -->
<g id="edge1_Node000001_Node000002" class="edge">
<title>Node1&#45;&gt;Node2</title>
<g id="a_edge1_Node000001_Node000002"><a xlink:title=" ">
<path fill="none" stroke="#63b8ff" d="M397.15,-185.26C354.5,-175.47 294.35,-161.67 255.21,-152.68"/>
<polygon fill="#63b8ff" stroke="#63b8ff" points="396.13,-188.62 406.66,-187.44 397.69,-181.79 396.13,-188.62"/>
</a>
</g>
</g>
<!-- Node5 -->
<g id="Node000005" class="node">
<title>Node5</title>
<g id="a_Node000005"><a xlink:href="_root_finder_8hh.html" target="_top" xlink:title=" ">
<polygon fill="white" stroke="#666666" points="755.88,-152.25 605.62,-152.25 605.62,-133 755.88,-133 755.88,-152.25"/>
<text text-anchor="middle" x="680.75" y="-138.75" font-family="Helvetica,sans-Serif" font-size="10.00">include/Optimist/RootFinder.hh</text>
</a>
</g>
</g>
<!-- Node1&#45;&gt;Node5 -->
<g id="edge4_Node000001_Node000005" class="edge">
<title>Node1&#45;&gt;Node5</title>
<g id="a_edge4_Node000001_Node000005"><a xlink:title=" ">
<path fill="none" stroke="#63b8ff" d="M498.57,-185.26C541.4,-175.47 601.81,-161.67 641.12,-152.68"/>
<polygon fill="#63b8ff" stroke="#63b8ff" points="497.98,-181.8 489.01,-187.44 499.54,-188.63 497.98,-181.8"/>
</a>
</g>
</g>
<!-- Node3 -->
<g id="Node000003" class="node">
<title>Node3</title>
<g id="a_Node000003"><a xlink:href="_nelder_mead_8hh.html" target="_top" xlink:title=" ">
<polygon fill="white" stroke="#666666" points="131.5,-97 0,-97 0,-66.5 131.5,-66.5 131.5,-97"/>
<text text-anchor="start" x="8" y="-83.5" font-family="Helvetica,sans-Serif" font-size="10.00">include/Optimist/Optimizer</text>
<text text-anchor="middle" x="65.75" y="-72.25" font-family="Helvetica,sans-Serif" font-size="10.00">/NelderMead.hh</text>
</a>
</g>
</g>
<!-- Node2&#45;&gt;Node3 -->
<g id="edge2_Node000002_Node000003" class="edge">
<title>Node2&#45;&gt;Node3</title>
<g id="a_edge2_Node000002_Node000003"><a xlink:title=" ">
<path fill="none" stroke="#63b8ff" d="M182.16,-128.44C158.72,-119.24 127.43,-106.96 103.19,-97.44"/>
<polygon fill="#63b8ff" stroke="#63b8ff" points="180.64,-131.61 191.23,-132 183.2,-125.09 180.64,-131.61"/>
</a>
</g>
</g>
<!-- Node4 -->
<g id="Node000004" class="node">
<title>Node4</title>
<g id="a_Node000004"><a xlink:href="_pattern_search_8hh.html" target="_top" xlink:title=" ">
<polygon fill="white" stroke="#666666" points="281.5,-97 150,-97 150,-66.5 281.5,-66.5 281.5,-97"/>
<text text-anchor="start" x="158" y="-83.5" font-family="Helvetica,sans-Serif" font-size="10.00">include/Optimist/Optimizer</text>
<text text-anchor="middle" x="215.75" y="-72.25" font-family="Helvetica,sans-Serif" font-size="10.00">/PatternSearch.hh</text>
</a>
</g>
</g>
<!-- Node2&#45;&gt;Node4 -->
<g id="edge3_Node000002_Node000004" class="edge">
<title>Node2&#45;&gt;Node4</title>
<g id="a_edge3_Node000002_Node000004"><a xlink:title=" ">
<path fill="none" stroke="#63b8ff" d="M215.75,-121.42C215.75,-113.49 215.75,-104.56 215.75,-97.28"/>
<polygon fill="#63b8ff" stroke="#63b8ff" points="212.25,-121.17 215.75,-131.17 219.25,-121.17 212.25,-121.17"/>
</a>
</g>
</g>
<!-- Node6 -->
<g id="Node000006" class="node">
<title>Node6</title>
<g id="a_Node000006"><a xlink:href="_bracketing_8hh.html" target="_top" xlink:title=" ">
<polygon fill="white" stroke="#666666" points="437.5,-97 300,-97 300,-66.5 437.5,-66.5 437.5,-97"/>
<text text-anchor="start" x="308" y="-83.5" font-family="Helvetica,sans-Serif" font-size="10.00">include/Optimist/RootFinder</text>
<text text-anchor="middle" x="368.75" y="-72.25" font-family="Helvetica,sans-Serif" font-size="10.00">/Bracketing.hh</text>
</a>
</g>
</g>
<!-- Node5&#45;&gt;Node6 -->
<g id="edge5_Node000005_Node000006" class="edge">
<title>Node5&#45;&gt;Node6</title>
<g id="a_edge5_Node000005_Node000006"><a xlink:title=" ">
<path fill="none" stroke="#63b8ff" d="M621.57,-130.46C569.22,-120.58 492.82,-106.16 437.73,-95.77"/>
<polygon fill="#63b8ff" stroke="#63b8ff" points="620.72,-133.86 631.2,-132.27 622.02,-126.98 620.72,-133.86"/>
</a>
</g>
</g>
<!-- Node9 -->
<g id="Node000009" class="node">
<title>Node9</title>
<g id="a_Node000009"><a xlink:href="_chebyshev_8hh.html" target="_top" xlink:title=" ">
<polygon fill="white" stroke="#666666" points="593.5,-97 456,-97 456,-66.5 593.5,-66.5 593.5,-97"/>
<text text-anchor="start" x="464" y="-83.5" font-family="Helvetica,sans-Serif" font-size="10.00">include/Optimist/RootFinder</text>
<text text-anchor="middle" x="524.75" y="-72.25" font-family="Helvetica,sans-Serif" font-size="10.00">/Chebyshev.hh</text>
</a>
</g>
</g>
<!-- Node5&#45;&gt;Node9 -->
<g id="edge8_Node000005_Node000009" class="edge">
<title>Node5&#45;&gt;Node9</title>
<g id="a_edge8_Node000005_Node000009"><a xlink:title=" ">
<path fill="none" stroke="#63b8ff" d="M646.14,-128.56C621.73,-119.35 589.01,-107 563.69,-97.44"/>
<polygon fill="#63b8ff" stroke="#63b8ff" points="644.71,-131.76 655.3,-132.02 647.18,-125.21 644.71,-131.76"/>
</a>
</g>
</g>
<!-- Node10 -->
<g id="Node000010" class="node">
<title>Node10</title>
<g id="a_Node000010"><a xlink:href="_halley_8hh.html" target="_top" xlink:title=" ">
<polygon fill="white" stroke="#666666" points="749.5,-97 612,-97 612,-66.5 749.5,-66.5 749.5,-97"/>
<text text-anchor="start" x="620" y="-83.5" font-family="Helvetica,sans-Serif" font-size="10.00">include/Optimist/RootFinder</text>
<text text-anchor="middle" x="680.75" y="-72.25" font-family="Helvetica,sans-Serif" font-size="10.00">/Halley.hh</text>
</a>
</g>
</g>
<!-- Node5&#45;&gt;Node10 -->
<g id="edge9_Node000005_Node000010" class="edge">
<title>Node5&#45;&gt;Node10</title>
<g id="a_edge9_Node000005_Node000010"><a xlink:title=" ">
<path fill="none" stroke="#63b8ff" d="M680.75,-121.42C680.75,-113.49 680.75,-104.56 680.75,-97.28"/>
<polygon fill="#63b8ff" stroke="#63b8ff" points="677.25,-121.17 680.75,-131.17 684.25,-121.17 677.25,-121.17"/>
</a>
</g>
</g>
<!-- Node11 -->
<g id="Node000011" class="node">
<title>Node11</title>
<g id="a_Node000011"><a xlink:href="_newton_8hh.html" target="_top" xlink:title=" ">
<polygon fill="white" stroke="#666666" points="905.5,-97 768,-97 768,-66.5 905.5,-66.5 905.5,-97"/>
<text text-anchor="start" x="776" y="-83.5" font-family="Helvetica,sans-Serif" font-size="10.00">include/Optimist/RootFinder</text>
<text text-anchor="middle" x="836.75" y="-72.25" font-family="Helvetica,sans-Serif" font-size="10.00">/Newton.hh</text>
</a>
</g>
</g>
<!-- Node5&#45;&gt;Node11 -->
<g id="edge10_Node000005_Node000011" class="edge">
<title>Node5&#45;&gt;Node11</title>
<g id="a_edge10_Node000005_Node000011"><a xlink:title=" ">
<path fill="none" stroke="#63b8ff" d="M715.36,-128.56C739.77,-119.35 772.49,-107 797.81,-97.44"/>
<polygon fill="#63b8ff" stroke="#63b8ff" points="714.32,-125.21 706.2,-132.02 716.79,-131.76 714.32,-125.21"/>
</a>
</g>
</g>
<!-- Node12 -->
<g id="Node000012" class="node">
<title>Node12</title>
<g id="a_Node000012"><a xlink:href="_quasi_newton_8hh.html" target="_top" xlink:title=" ">
<polygon fill="white" stroke="#666666" points="1061.5,-97 924,-97 924,-66.5 1061.5,-66.5 1061.5,-97"/>
<text text-anchor="start" x="932" y="-83.5" font-family="Helvetica,sans-Serif" font-size="10.00">include/Optimist/RootFinder</text>
<text text-anchor="middle" x="992.75" y="-72.25" font-family="Helvetica,sans-Serif" font-size="10.00">/QuasiNewton.hh</text>
</a>
</g>
</g>
<!-- Node5&#45;&gt;Node12 -->
<g id="edge11_Node000005_Node000012" class="edge">
<title>Node5&#45;&gt;Node12</title>
<g id="a_edge11_Node000005_Node000012"><a xlink:title=" ">
<path fill="none" stroke="#63b8ff" d="M739.93,-130.46C792.28,-120.58 868.68,-106.16 923.77,-95.77"/>
<polygon fill="#63b8ff" stroke="#63b8ff" points="739.48,-126.98 730.3,-132.27 740.78,-133.86 739.48,-126.98"/>
</a>
</g>
</g>
<!-- Node15 -->
<g id="Node000015" class="node">
<title>Node15</title>
<g id="a_Node000015"><a xlink:href="_varona_8hh.html" target="_top" xlink:title=" ">
<polygon fill="white" stroke="#666666" points="1217.5,-97 1080,-97 1080,-66.5 1217.5,-66.5 1217.5,-97"/>
<text text-anchor="start" x="1088" y="-83.5" font-family="Helvetica,sans-Serif" font-size="10.00">include/Optimist/RootFinder</text>
<text text-anchor="middle" x="1148.75" y="-72.25" font-family="Helvetica,sans-Serif" font-size="10.00">/Varona.hh</text>
</a>
</g>
</g>
<!-- Node5&#45;&gt;Node15 -->
<g id="edge14_Node000005_Node000015" class="edge">
<title>Node5&#45;&gt;Node15</title>
<g id="a_edge14_Node000005_Node000015"><a xlink:title=" ">
<path fill="none" stroke="#63b8ff" d="M767.45,-133.38C846.63,-125.45 966.82,-112.42 1070.75,-97 1073.75,-96.56 1076.8,-96.08 1079.89,-95.59"/>
<polygon fill="#63b8ff" stroke="#63b8ff" points="767.18,-129.89 757.58,-134.36 767.88,-136.85 767.18,-129.89"/>
</a>
</g>
</g>
<!-- Node7 -->
<g id="Node000007" class="node">
<title>Node7</title>
<g id="a_Node000007"><a xlink:href="_algo748_8hh.html" target="_top" xlink:title=" ">
<polygon fill="white" stroke="#666666" points="359.5,-30.5 222,-30.5 222,0 359.5,0 359.5,-30.5"/>
<text text-anchor="start" x="230" y="-17" font-family="Helvetica,sans-Serif" font-size="10.00">include/Optimist/RootFinder</text>
<text text-anchor="middle" x="290.75" y="-5.75" font-family="Helvetica,sans-Serif" font-size="10.00">/Algo748.hh</text>
</a>
</g>
</g>
<!-- Node6&#45;&gt;Node7 -->
<g id="edge6_Node000006_Node000007" class="edge">
<title>Node6&#45;&gt;Node7</title>
<g id="a_edge6_Node000006_Node000007"><a xlink:title=" ">
<path fill="none" stroke="#63b8ff" d="M342.47,-59.02C331.24,-49.73 318.44,-39.15 308.38,-30.83"/>
<polygon fill="#63b8ff" stroke="#63b8ff" points="339.95,-61.47 349.88,-65.15 344.41,-56.08 339.95,-61.47"/>
</a>
</g>
</g>
<!-- Node8 -->
<g id="Node000008" class="node">
<title>Node8</title>
<g id="a_Node000008"><a xlink:href="_chandrupatla_8hh.html" target="_top" xlink:title=" ">
<polygon fill="white" stroke="#666666" points="515.5,-30.5 378,-30.5 378,0 515.5,0 515.5,-30.5"/>
<text text-anchor="start" x="386" y="-17" font-family="Helvetica,sans-Serif" font-size="10.00">include/Optimist/RootFinder</text>
<text text-anchor="middle" x="446.75" y="-5.75" font-family="Helvetica,sans-Serif" font-size="10.00">/Chandrupatla.hh</text>
</a>
</g>
</g>
<!-- Node6&#45;&gt;Node8 -->
<g id="edge7_Node000006_Node000008" class="edge">
<title>Node6&#45;&gt;Node8</title>
<g id="a_edge7_Node000006_Node000008"><a xlink:title=" ">
<path fill="none" stroke="#63b8ff" d="M395.03,-59.02C406.26,-49.73 419.06,-39.15 429.12,-30.83"/>
<polygon fill="#63b8ff" stroke="#63b8ff" points="393.09,-56.08 387.62,-65.15 397.55,-61.47 393.09,-56.08"/>
</a>
</g>
</g>
<!-- Node13 -->
<g id="Node000013" class="node">
<title>Node13</title>
<g id="a_Node000013"><a xlink:href="_broyden_8hh.html" target="_top" xlink:title=" ">
<polygon fill="white" stroke="#666666" points="983.5,-30.5 846,-30.5 846,0 983.5,0 983.5,-30.5"/>
<text text-anchor="start" x="854" y="-17" font-family="Helvetica,sans-Serif" font-size="10.00">include/Optimist/RootFinder</text>
<text text-anchor="middle" x="914.75" y="-5.75" font-family="Helvetica,sans-Serif" font-size="10.00">/Broyden.hh</text>
</a>
</g>
</g>
<!-- Node12&#45;&gt;Node13 -->
<g id="edge12_Node000012_Node000013" class="edge">
<title>Node12&#45;&gt;Node13</title>
<g id="a_edge12_Node000012_Node000013"><a xlink:title=" ">
<path fill="none" stroke="#63b8ff" d="M966.47,-59.02C955.24,-49.73 942.44,-39.15 932.38,-30.83"/>
<polygon fill="#63b8ff" stroke="#63b8ff" points="963.95,-61.47 973.88,-65.15 968.41,-56.08 963.95,-61.47"/>
</a>
</g>
</g>
<!-- Node14 -->
<g id="Node000014" class="node">
<title>Node14</title>
<g id="a_Node000014"><a xlink:href="_greenstadt_8hh.html" target="_top" xlink:title=" ">
<polygon fill="white" stroke="#666666" points="1139.5,-30.5 1002,-30.5 1002,0 1139.5,0 1139.5,-30.5"/>
<text text-anchor="start" x="1010" y="-17" font-family="Helvetica,sans-Serif" font-size="10.00">include/Optimist/RootFinder</text>
<text text-anchor="middle" x="1070.75" y="-5.75" font-family="Helvetica,sans-Serif" font-size="10.00">/Greenstadt.hh</text>
</a>
</g>
</g>
<!-- Node12&#45;&gt;Node14 -->
<g id="edge13_Node000012_Node000014" class="edge">
<title>Node12&#45;&gt;Node14</title>
<g id="a_edge13_Node000012_Node000014"><a xlink:title=" ">
<path fill="none" stroke="#63b8ff" d="M1019.03,-59.02C1030.26,-49.73 1043.06,-39.15 1053.12,-30.83"/>
<polygon fill="#63b8ff" stroke="#63b8ff" points="1017.09,-56.08 1011.62,-65.15 1021.55,-61.47 1017.09,-56.08"/>
</a>
</g>
</g>
</g>
</svg>
