<?xml version="1.0" encoding="UTF-8" standalone="no"?>
<!DOCTYPE svg PUBLIC "-//W3C//DTD SVG 1.1//EN"
 "http://www.w3.org/Graphics/SVG/1.1/DTD/svg11.dtd">
<!-- Generated by graphviz version 14.1.4 (20260321.0153)
 -->
<!-- Title: core/include/Optimist/TestSet.hh Pages: 1 -->
<svg width="1662pt" height="271pt"
 viewBox="0.00 0.00 1662.00 271.00" xmlns="http://www.w3.org/2000/svg" xmlns:xlink="http://www.w3.org/1999/xlink">
<g id="graph0" class="graph" transform="scale(1 1) rotate(0) translate(4 266.75)">
<title>core/include/Optimist/TestSet.hh</title>
<!-- Node1 -->
<g id="Node000001" class="node">
<title>Node1</title>
<g id="a_Node000001"><a xlink:title=" ">
<polygon fill="#999999" stroke="#666666" points="851.88,-262.75 743.62,-262.75 743.62,-232.25 851.88,-232.25 851.88,-262.75"/>
<text xml:space="preserve" text-anchor="start" x="751.62" y="-249.25" font-family="Helvetica,sans-Serif" font-size="10.00">core/include/Optimist</text>
<text xml:space="preserve" text-anchor="middle" x="797.75" y="-238" font-family="Helvetica,sans-Serif" font-size="10.00">/TestSet.hh</text>
</a>
</g>
</g>
<!-- Node2 -->
<g id="Node000002" class="node">
<title>Node2</title>
<g id="a_Node000002"><a xlink:href="_booth_8hh.html" target="_top" xlink:title=" ">
<polygon fill="white" stroke="#666666" points="131.5,-190.62 0,-190.62 0,-171.38 131.5,-171.38 131.5,-190.62"/>
<text xml:space="preserve" text-anchor="middle" x="65.75" y="-177.12" font-family="Helvetica,sans-Serif" font-size="10.00">Optimist/TestSet/Booth.hh</text>
</a>
</g>
</g>
<!-- Node1&#45;&gt;Node2 -->
<g id="edge1_Node000001_Node000002" class="edge">
<title>Node1&#45;&gt;Node2</title>
<g id="a_edge1_Node000001_Node000002"><a xlink:title=" ">
<path fill="none" stroke="#63b8ff" d="M743.46,-244.4C630.74,-239.58 363.3,-225.81 140.75,-196.25 134.18,-195.38 127.33,-194.3 120.54,-193.14"/>
<polygon fill="#63b8ff" stroke="#63b8ff" points="121.19,-189.7 110.73,-191.38 119.96,-196.59 121.19,-189.7"/>
</a>
</g>
</g>
<!-- Node21 -->
<g id="Node000021" class="node">
<title>Node21</title>
<g id="a_Node000021"><a xlink:href="_brown_8hh.html" target="_top" xlink:title=" ">
<polygon fill="white" stroke="#666666" points="283.62,-190.62 149.88,-190.62 149.88,-171.38 283.62,-171.38 283.62,-190.62"/>
<text xml:space="preserve" text-anchor="middle" x="216.75" y="-177.12" font-family="Helvetica,sans-Serif" font-size="10.00">Optimist/TestSet/Brown.hh</text>
</a>
</g>
</g>
<!-- Node1&#45;&gt;Node21 -->
<g id="edge20_Node000001_Node000021" class="edge">
<title>Node1&#45;&gt;Node21</title>
<g id="a_edge20_Node000001_Node000021"><a xlink:title=" ">
<path fill="none" stroke="#63b8ff" d="M743.38,-242.64C650.65,-235.7 456.06,-219.64 292.75,-196.25 286.28,-195.32 279.52,-194.23 272.82,-193.08"/>
<polygon fill="#63b8ff" stroke="#63b8ff" points="273.6,-189.66 263.14,-191.35 272.37,-196.55 273.6,-189.66"/>
</a>
</g>
</g>
<!-- Node22 -->
<g id="Node000022" class="node">
<title>Node22</title>
<g id="a_Node000022"><a xlink:href="_cos_8hh.html" target="_top" xlink:title=" ">
<polygon fill="white" stroke="#666666" points="425.75,-190.62 301.75,-190.62 301.75,-171.38 425.75,-171.38 425.75,-190.62"/>
<text xml:space="preserve" text-anchor="middle" x="363.75" y="-177.12" font-family="Helvetica,sans-Serif" font-size="10.00">Optimist/TestSet/Cos.hh</text>
</a>
</g>
</g>
<!-- Node1&#45;&gt;Node22 -->
<g id="edge22_Node000001_Node000022" class="edge">
<title>Node1&#45;&gt;Node22</title>
<g id="a_edge22_Node000001_Node000022"><a xlink:title=" ">
<path fill="none" stroke="#63b8ff" d="M743.17,-239.99C672,-231.26 543.74,-214.71 434.75,-196.25 429.24,-195.32 423.49,-194.28 417.77,-193.2"/>
<polygon fill="#63b8ff" stroke="#63b8ff" points="418.82,-189.83 408.34,-191.37 417.49,-196.71 418.82,-189.83"/>
</a>
</g>
</g>
<!-- Node23 -->
<g id="Node000023" class="node">
<title>Node23</title>
<g id="a_Node000023"><a xlink:href="_cosh_8hh.html" target="_top" xlink:title=" ">
<polygon fill="white" stroke="#666666" points="573.38,-190.62 444.12,-190.62 444.12,-171.38 573.38,-171.38 573.38,-190.62"/>
<text xml:space="preserve" text-anchor="middle" x="508.75" y="-177.12" font-family="Helvetica,sans-Serif" font-size="10.00">Optimist/TestSet/Cosh.hh</text>
</a>
</g>
</g>
<!-- Node1&#45;&gt;Node23 -->
<g id="edge24_Node000001_Node000023" class="edge">
<title>Node1&#45;&gt;Node23</title>
<g id="a_edge24_Node000001_Node000023"><a xlink:title=" ">
<path fill="none" stroke="#63b8ff" d="M743.39,-234.37C690.95,-222.66 612.13,-205.07 560.56,-193.56"/>
<polygon fill="#63b8ff" stroke="#63b8ff" points="561.35,-190.15 550.83,-191.39 559.83,-196.99 561.35,-190.15"/>
</a>
</g>
</g>
<!-- Node24 -->
<g id="Node000024" class="node">
<title>Node24</title>
<g id="a_Node000024"><a xlink:href="_elliptic_paraboloid_8hh.html" target="_top" xlink:title=" ">
<polygon fill="white" stroke="#666666" points="713.62,-196.25 591.88,-196.25 591.88,-165.75 713.62,-165.75 713.62,-196.25"/>
<text xml:space="preserve" text-anchor="start" x="599.88" y="-182.75" font-family="Helvetica,sans-Serif" font-size="10.00">Optimist/TestSet/Elliptic</text>
<text xml:space="preserve" text-anchor="middle" x="652.75" y="-171.5" font-family="Helvetica,sans-Serif" font-size="10.00">Paraboloid.hh</text>
</a>
</g>
</g>
<!-- Node1&#45;&gt;Node24 -->
<g id="edge26_Node000001_Node000024" class="edge">
<title>Node1&#45;&gt;Node24</title>
<g id="a_edge26_Node000001_Node000024"><a xlink:title=" ">
<path fill="none" stroke="#63b8ff" d="M764.85,-231.86C744.53,-222.82 718.22,-211.12 696.19,-201.33"/>
<polygon fill="#63b8ff" stroke="#63b8ff" points="697.72,-198.17 687.16,-197.3 694.87,-204.57 697.72,-198.17"/>
</a>
</g>
</g>
<!-- Node25 -->
<g id="Node000025" class="node">
<title>Node25</title>
<g id="a_Node000025"><a xlink:href="_linear_8hh.html" target="_top" xlink:title=" ">
<polygon fill="white" stroke="#666666" points="863.5,-190.62 732,-190.62 732,-171.38 863.5,-171.38 863.5,-190.62"/>
<text xml:space="preserve" text-anchor="middle" x="797.75" y="-177.12" font-family="Helvetica,sans-Serif" font-size="10.00">Optimist/TestSet/Linear.hh</text>
</a>
</g>
</g>
<!-- Node1&#45;&gt;Node25 -->
<g id="edge28_Node000001_Node000025" class="edge">
<title>Node1&#45;&gt;Node25</title>
<g id="a_edge28_Node000001_Node000025"><a xlink:title=" ">
<path fill="none" stroke="#63b8ff" d="M797.75,-231.86C797.75,-223.08 797.75,-211.77 797.75,-202.15"/>
<polygon fill="#63b8ff" stroke="#63b8ff" points="801.25,-202.34 797.75,-192.34 794.25,-202.34 801.25,-202.34"/>
</a>
</g>
</g>
<!-- Node26 -->
<g id="Node000026" class="node">
<title>Node26</title>
<g id="a_Node000026"><a xlink:href="_quadratic_8hh.html" target="_top" xlink:title=" ">
<polygon fill="white" stroke="#666666" points="1029.75,-190.62 881.75,-190.62 881.75,-171.38 1029.75,-171.38 1029.75,-190.62"/>
<text xml:space="preserve" text-anchor="middle" x="955.75" y="-177.12" font-family="Helvetica,sans-Serif" font-size="10.00">Optimist/TestSet/Quadratic.hh</text>
</a>
</g>
</g>
<!-- Node1&#45;&gt;Node26 -->
<g id="edge30_Node000001_Node000026" class="edge">
<title>Node1&#45;&gt;Node26</title>
<g id="a_edge30_Node000001_Node000026"><a xlink:title=" ">
<path fill="none" stroke="#63b8ff" d="M833.6,-231.86C860.53,-220.87 897.11,-205.94 923.2,-195.29"/>
<polygon fill="#63b8ff" stroke="#63b8ff" points="924.34,-198.6 932.28,-191.58 921.7,-192.12 924.34,-198.6"/>
</a>
</g>
</g>
<!-- Node27 -->
<g id="Node000027" class="node">
<title>Node27</title>
<g id="a_Node000027"><a xlink:href="_rosenbrock_8hh.html" target="_top" xlink:title=" ">
<polygon fill="white" stroke="#666666" points="1206,-190.62 1047.5,-190.62 1047.5,-171.38 1206,-171.38 1206,-190.62"/>
<text xml:space="preserve" text-anchor="middle" x="1126.75" y="-177.12" font-family="Helvetica,sans-Serif" font-size="10.00">Optimist/TestSet/Rosenbrock.hh</text>
</a>
</g>
</g>
<!-- Node1&#45;&gt;Node27 -->
<g id="edge32_Node000001_Node000027" class="edge">
<title>Node1&#45;&gt;Node27</title>
<g id="a_edge32_Node000001_Node000027"><a xlink:title=" ">
<path fill="none" stroke="#63b8ff" d="M852.08,-235.85C912.04,-224.09 1008.15,-205.25 1069.33,-193.26"/>
<polygon fill="#63b8ff" stroke="#63b8ff" points="1069.7,-196.75 1078.84,-191.39 1068.35,-189.88 1069.7,-196.75"/>
</a>
</g>
</g>
<!-- Node28 -->
<g id="Node000028" class="node">
<title>Node28</title>
<g id="a_Node000028"><a xlink:href="_schaffer2_8hh.html" target="_top" xlink:title=" ">
<polygon fill="white" stroke="#666666" points="1371.75,-190.62 1223.75,-190.62 1223.75,-171.38 1371.75,-171.38 1371.75,-190.62"/>
<text xml:space="preserve" text-anchor="middle" x="1297.75" y="-177.12" font-family="Helvetica,sans-Serif" font-size="10.00">Optimist/TestSet/Schaffer2.hh</text>
</a>
</g>
</g>
<!-- Node1&#45;&gt;Node28 -->
<g id="edge34_Node000001_Node000028" class="edge">
<title>Node1&#45;&gt;Node28</title>
<g id="a_edge34_Node000001_Node000028"><a xlink:title=" ">
<path fill="none" stroke="#63b8ff" d="M852.18,-240.82C931.9,-232.3 1085.05,-215.19 1214.75,-196.25 1221.68,-195.24 1228.92,-194.11 1236.12,-192.93"/>
<polygon fill="#63b8ff" stroke="#63b8ff" points="1236.55,-196.41 1245.85,-191.32 1235.41,-189.5 1236.55,-196.41"/>
</a>
</g>
</g>
<!-- Node29 -->
<g id="Node000029" class="node">
<title>Node29</title>
<g id="a_Node000029"><a xlink:href="_sin_8hh.html" target="_top" xlink:title=" ">
<polygon fill="white" stroke="#666666" points="1509.88,-190.62 1389.62,-190.62 1389.62,-171.38 1509.88,-171.38 1509.88,-190.62"/>
<text xml:space="preserve" text-anchor="middle" x="1449.75" y="-177.12" font-family="Helvetica,sans-Serif" font-size="10.00">Optimist/TestSet/Sin.hh</text>
</a>
</g>
</g>
<!-- Node1&#45;&gt;Node29 -->
<g id="edge36_Node000001_Node000029" class="edge">
<title>Node1&#45;&gt;Node29</title>
<g id="a_edge36_Node000001_Node000029"><a xlink:title=" ">
<path fill="none" stroke="#63b8ff" d="M852.25,-243.95C955.7,-238.63 1187.49,-224.44 1380.75,-196.25 1386.65,-195.39 1392.81,-194.34 1398.91,-193.2"/>
<polygon fill="#63b8ff" stroke="#63b8ff" points="1399.12,-196.73 1408.27,-191.38 1397.79,-189.86 1399.12,-196.73"/>
</a>
</g>
</g>
<!-- Node30 -->
<g id="Node000030" class="node">
<title>Node30</title>
<g id="a_Node000030"><a xlink:href="_sinh_8hh.html" target="_top" xlink:title=" ">
<polygon fill="white" stroke="#666666" points="1653.5,-190.62 1528,-190.62 1528,-171.38 1653.5,-171.38 1653.5,-190.62"/>
<text xml:space="preserve" text-anchor="middle" x="1590.75" y="-177.12" font-family="Helvetica,sans-Serif" font-size="10.00">Optimist/TestSet/Sinh.hh</text>
</a>
</g>
</g>
<!-- Node1&#45;&gt;Node30 -->
<g id="edge38_Node000001_Node000030" class="edge">
<title>Node1&#45;&gt;Node30</title>
<g id="a_edge38_Node000001_Node000030"><a xlink:title=" ">
<path fill="none" stroke="#63b8ff" d="M852.25,-245.04C972.86,-241.3 1271.24,-229.24 1518.75,-196.25 1525.14,-195.4 1531.82,-194.33 1538.42,-193.15"/>
<polygon fill="#63b8ff" stroke="#63b8ff" points="1538.72,-196.66 1547.91,-191.39 1537.44,-189.78 1538.72,-196.66"/>
</a>
</g>
</g>
<!-- Node3 -->
<g id="Node000003" class="node">
<title>Node3</title>
<g id="a_Node000003"><a xlink:href="_function_8hh.html" target="_top" xlink:title=" ">
<polygon fill="white" stroke="#666666" points="851.12,-129.75 744.38,-129.75 744.38,-110.5 851.12,-110.5 851.12,-129.75"/>
<text xml:space="preserve" text-anchor="middle" x="797.75" y="-116.25" font-family="Helvetica,sans-Serif" font-size="10.00">Optimist/Function.hh</text>
</a>
</g>
</g>
<!-- Node2&#45;&gt;Node3 -->
<g id="edge2_Node000002_Node000003" class="edge">
<title>Node2&#45;&gt;Node3</title>
<g id="a_edge2_Node000002_Node000003"><a xlink:title=" ">
<path fill="none" stroke="#63b8ff" d="M108.84,-170.9C119.25,-168.95 130.36,-167.08 140.75,-165.75 356.39,-138.04 614.2,-126.88 732.53,-122.96"/>
<polygon fill="#63b8ff" stroke="#63b8ff" points="732.49,-126.47 742.37,-122.65 732.26,-119.47 732.49,-126.47"/>
</a>
</g>
</g>
<!-- Node4 -->
<g id="Node000004" class="node">
<title>Node4</title>
<g id="a_Node000004"><a xlink:href="_optimist_8hh.html" target="_top" xlink:title=" ">
<polygon fill="white" stroke="#666666" points="830.88,-74.5 764.62,-74.5 764.62,-55.25 830.88,-55.25 830.88,-74.5"/>
<text xml:space="preserve" text-anchor="middle" x="797.75" y="-61" font-family="Helvetica,sans-Serif" font-size="10.00">Optimist.hh</text>
</a>
</g>
</g>
<!-- Node3&#45;&gt;Node4 -->
<g id="edge3_Node000003_Node000004" class="edge">
<title>Node3&#45;&gt;Node4</title>
<g id="a_edge3_Node000003_Node000004"><a xlink:title=" ">
<path fill="none" stroke="#63b8ff" d="M797.75,-110.33C797.75,-103.82 797.75,-94.67 797.75,-86.37"/>
<polygon fill="#63b8ff" stroke="#63b8ff" points="801.25,-86.37 797.75,-76.37 794.25,-86.37 801.25,-86.37"/>
</a>
</g>
</g>
<!-- Node5 -->
<g id="Node000005" class="node">
<title>Node5</title>
<g id="a_Node000005"><a xlink:title=" ">
<polygon fill="#e0e0e0" stroke="#999999" points="364.62,-19.25 308.88,-19.25 308.88,0 364.62,0 364.62,-19.25"/>
<text xml:space="preserve" text-anchor="middle" x="336.75" y="-5.75" font-family="Helvetica,sans-Serif" font-size="10.00">algorithm</text>
</a>
</g>
</g>
<!-- Node4&#45;&gt;Node5 -->
<g id="edge4_Node000004_Node000005" class="edge">
<title>Node4&#45;&gt;Node5</title>
<g id="a_edge4_Node000004_Node000005"><a xlink:title=" ">
<path fill="none" stroke="#63b8ff" d="M764.21,-61.85C693.91,-57.28 525.82,-44.69 376.17,-19.66"/>
<polygon fill="#63b8ff" stroke="#63b8ff" points="376.91,-16.23 366.47,-18.01 375.74,-23.14 376.91,-16.23"/>
</a>
</g>
</g>
<!-- Node6 -->
<g id="Node000006" class="node">
<title>Node6</title>
<g id="a_Node000006"><a xlink:title=" ">
<polygon fill="#e0e0e0" stroke="#999999" points="425.25,-19.25 382.25,-19.25 382.25,0 425.25,0 425.25,-19.25"/>
<text xml:space="preserve" text-anchor="middle" x="403.75" y="-5.75" font-family="Helvetica,sans-Serif" font-size="10.00">cmath</text>
</a>
</g>
</g>
<!-- Node4&#45;&gt;Node6 -->
<g id="edge5_Node000004_Node000006" class="edge">
<title>Node4&#45;&gt;Node6</title>
<g id="a_edge5_Node000004_Node000006"><a xlink:title=" ">
<path fill="none" stroke="#63b8ff" d="M764.34,-61.55C701.73,-56.82 562.35,-44.5 436.57,-19.55"/>
<polygon fill="#63b8ff" stroke="#63b8ff" points="437.58,-16.19 427.09,-17.64 436.2,-23.05 437.58,-16.19"/>
</a>
</g>
</g>
<!-- Node7 -->
<g id="Node000007" class="node">
<title>Node7</title>
<g id="a_Node000007"><a xlink:title=" ">
<polygon fill="#e0e0e0" stroke="#999999" points="492.62,-19.25 442.88,-19.25 442.88,0 492.62,0 492.62,-19.25"/>
<text xml:space="preserve" text-anchor="middle" x="467.75" y="-5.75" font-family="Helvetica,sans-Serif" font-size="10.00">iomanip</text>
</a>
</g>
</g>
<!-- Node4&#45;&gt;Node7 -->
<g id="edge6_Node000004_Node000007" class="edge">
<title>Node4&#45;&gt;Node7</title>
<g id="a_edge6_Node000004_Node000007"><a xlink:title=" ">
<path fill="none" stroke="#63b8ff" d="M764.27,-59.92C711.21,-53.42 604.34,-39.38 504.17,-19.56"/>
<polygon fill="#63b8ff" stroke="#63b8ff" points="504.91,-16.14 494.42,-17.61 503.54,-23 504.91,-16.14"/>
</a>
</g>
</g>
<!-- Node8 -->
<g id="Node000008" class="node">
<title>Node8</title>
<g id="a_Node000008"><a xlink:title=" ">
<polygon fill="#e0e0e0" stroke="#999999" points="539.15,-19.25 510.35,-19.25 510.35,0 539.15,0 539.15,-19.25"/>
<text xml:space="preserve" text-anchor="middle" x="524.75" y="-5.75" font-family="Helvetica,sans-Serif" font-size="10.00">ios</text>
</a>
</g>
</g>
<!-- Node4&#45;&gt;Node8 -->
<g id="edge7_Node000004_Node000008" class="edge">
<title>Node4&#45;&gt;Node8</title>
<g id="a_edge7_Node000004_Node000008"><a xlink:title=" ">
<path fill="none" stroke="#63b8ff" d="M764.16,-59.86C717.84,-53.89 631.68,-41.27 550.17,-19.5"/>
<polygon fill="#63b8ff" stroke="#63b8ff" points="551.25,-16.16 540.68,-16.91 549.4,-22.92 551.25,-16.16"/>
</a>
</g>
</g>
<!-- Node9 -->
<g id="Node000009" class="node">
<title>Node9</title>
<g id="a_Node000009"><a xlink:title=" ">
<polygon fill="#e0e0e0" stroke="#999999" points="610.5,-19.25 557,-19.25 557,0 610.5,0 610.5,-19.25"/>
<text xml:space="preserve" text-anchor="middle" x="583.75" y="-5.75" font-family="Helvetica,sans-Serif" font-size="10.00">iostream</text>
</a>
</g>
</g>
<!-- Node4&#45;&gt;Node9 -->
<g id="edge8_Node000004_Node000009" class="edge">
<title>Node4&#45;&gt;Node9</title>
<g id="a_edge8_Node000004_Node000009"><a xlink:title=" ">
<path fill="none" stroke="#63b8ff" d="M764.31,-55.55C725.71,-45.95 662.36,-30.19 621.88,-20.11"/>
<polygon fill="#63b8ff" stroke="#63b8ff" points="622.87,-16.75 612.32,-17.73 621.18,-23.55 622.87,-16.75"/>
</a>
</g>
</g>
<!-- Node10 -->
<g id="Node000010" class="node">
<title>Node10</title>
<g id="a_Node000010"><a xlink:title=" ">
<polygon fill="#e0e0e0" stroke="#999999" points="667.38,-19.25 628.12,-19.25 628.12,0 667.38,0 667.38,-19.25"/>
<text xml:space="preserve" text-anchor="middle" x="647.75" y="-5.75" font-family="Helvetica,sans-Serif" font-size="10.00">limits</text>
</a>
</g>
</g>
<!-- Node4&#45;&gt;Node10 -->
<g id="edge9_Node000004_Node000010" class="edge">
<title>Node4&#45;&gt;Node10</title>
<g id="a_edge9_Node000004_Node000010"><a xlink:title=" ">
<path fill="none" stroke="#63b8ff" d="M772.3,-54.84C746.3,-45.61 705.9,-31.27 678.21,-21.44"/>
<polygon fill="#63b8ff" stroke="#63b8ff" points="679.58,-18.21 668.99,-18.16 677.24,-24.81 679.58,-18.21"/>
</a>
</g>
</g>
<!-- Node11 -->
<g id="Node000011" class="node">
<title>Node11</title>
<g id="a_Node000011"><a xlink:title=" ">
<polygon fill="#e0e0e0" stroke="#999999" points="720.12,-19.25 685.38,-19.25 685.38,0 720.12,0 720.12,-19.25"/>
<text xml:space="preserve" text-anchor="middle" x="702.75" y="-5.75" font-family="Helvetica,sans-Serif" font-size="10.00">map</text>
</a>
</g>
</g>
<!-- Node4&#45;&gt;Node11 -->
<g id="edge10_Node000004_Node000011" class="edge">
<title>Node4&#45;&gt;Node11</title>
<g id="a_edge10_Node000004_Node000011"><a xlink:title=" ">
<path fill="none" stroke="#63b8ff" d="M781.63,-54.84C767.17,-46.73 745.67,-34.68 728.77,-25.21"/>
<polygon fill="#63b8ff" stroke="#63b8ff" points="730.7,-22.28 720.26,-20.44 727.28,-28.39 730.7,-22.28"/>
</a>
</g>
</g>
<!-- Node12 -->
<g id="Node000012" class="node">
<title>Node12</title>
<g id="a_Node000012"><a xlink:title=" ">
<polygon fill="#e0e0e0" stroke="#999999" points="789.38,-19.25 738.12,-19.25 738.12,0 789.38,0 789.38,-19.25"/>
<text xml:space="preserve" text-anchor="middle" x="763.75" y="-5.75" font-family="Helvetica,sans-Serif" font-size="10.00">memory</text>
</a>
</g>
</g>
<!-- Node4&#45;&gt;Node12 -->
<g id="edge11_Node000004_Node000012" class="edge">
<title>Node4&#45;&gt;Node12</title>
<g id="a_edge11_Node000004_Node000012"><a xlink:title=" ">
<path fill="none" stroke="#63b8ff" d="M792.14,-55.08C787.63,-48.03 781.16,-37.9 775.54,-29.08"/>
<polygon fill="#63b8ff" stroke="#63b8ff" points="778.63,-27.43 770.3,-20.88 772.73,-31.2 778.63,-27.43"/>
</a>
</g>
</g>
<!-- Node13 -->
<g id="Node000013" class="node">
<title>Node13</title>
<g id="a_Node000013"><a xlink:title=" ">
<polygon fill="#e0e0e0" stroke="#999999" points="858,-19.25 807.5,-19.25 807.5,0 858,0 858,-19.25"/>
<text xml:space="preserve" text-anchor="middle" x="832.75" y="-5.75" font-family="Helvetica,sans-Serif" font-size="10.00">numeric</text>
</a>
</g>
</g>
<!-- Node4&#45;&gt;Node13 -->
<g id="edge12_Node000004_Node000013" class="edge">
<title>Node4&#45;&gt;Node13</title>
<g id="a_edge12_Node000004_Node000013"><a xlink:title=" ">
<path fill="none" stroke="#63b8ff" d="M803.53,-55.08C808.16,-48.03 814.82,-37.9 820.62,-29.08"/>
<polygon fill="#63b8ff" stroke="#63b8ff" points="823.45,-31.15 826.01,-20.87 817.6,-27.31 823.45,-31.15"/>
</a>
</g>
</g>
<!-- Node14 -->
<g id="Node000014" class="node">
<title>Node14</title>
<g id="a_Node000014"><a xlink:title=" ">
<polygon fill="#e0e0e0" stroke="#999999" points="915.75,-19.25 875.75,-19.25 875.75,0 915.75,0 915.75,-19.25"/>
<text xml:space="preserve" text-anchor="middle" x="895.75" y="-5.75" font-family="Helvetica,sans-Serif" font-size="10.00">string</text>
</a>
</g>
</g>
<!-- Node4&#45;&gt;Node14 -->
<g id="edge13_Node000004_Node000014" class="edge">
<title>Node4&#45;&gt;Node14</title>
<g id="a_edge13_Node000004_Node000014"><a xlink:title=" ">
<path fill="none" stroke="#63b8ff" d="M814.37,-54.84C829.44,-46.66 851.89,-34.46 869.4,-24.94"/>
<polygon fill="#63b8ff" stroke="#63b8ff" points="870.6,-28.27 877.71,-20.43 867.26,-22.12 870.6,-28.27"/>
</a>
</g>
</g>
<!-- Node15 -->
<g id="Node000015" class="node">
<title>Node15</title>
<g id="a_Node000015"><a xlink:title=" ">
<polygon fill="#e0e0e0" stroke="#999999" points="999.5,-19.25 934,-19.25 934,0 999.5,0 999.5,-19.25"/>
<text xml:space="preserve" text-anchor="middle" x="966.75" y="-5.75" font-family="Helvetica,sans-Serif" font-size="10.00">string_view</text>
</a>
</g>
</g>
<!-- Node4&#45;&gt;Node15 -->
<g id="edge14_Node000004_Node000015" class="edge">
<title>Node4&#45;&gt;Node15</title>
<g id="a_edge14_Node000004_Node000015"><a xlink:title=" ">
<path fill="none" stroke="#63b8ff" d="M826.42,-54.84C854.1,-46.12 896.24,-32.84 927.12,-23.11"/>
<polygon fill="#63b8ff" stroke="#63b8ff" points="928.01,-26.5 936.5,-20.16 925.91,-19.82 928.01,-26.5"/>
</a>
</g>
</g>
<!-- Node16 -->
<g id="Node000016" class="node">
<title>Node16</title>
<g id="a_Node000016"><a xlink:title=" ">
<polygon fill="#e0e0e0" stroke="#999999" points="1079.62,-19.25 1017.88,-19.25 1017.88,0 1079.62,0 1079.62,-19.25"/>
<text xml:space="preserve" text-anchor="middle" x="1048.75" y="-5.75" font-family="Helvetica,sans-Serif" font-size="10.00">type_traits</text>
</a>
</g>
</g>
<!-- Node4&#45;&gt;Node16 -->
<g id="edge15_Node000004_Node000016" class="edge">
<title>Node4&#45;&gt;Node16</title>
<g id="a_edge15_Node000004_Node000016"><a xlink:title=" ">
<path fill="none" stroke="#63b8ff" d="M831.01,-56.88C870.49,-48.58 938.58,-34.21 1006.8,-19.66"/>
<polygon fill="#63b8ff" stroke="#63b8ff" points="1007.21,-23.15 1016.26,-17.64 1005.75,-16.3 1007.21,-23.15"/>
</a>
</g>
</g>
<!-- Node17 -->
<g id="Node000017" class="node">
<title>Node17</title>
<g id="a_Node000017"><a xlink:title=" ">
<polygon fill="#e0e0e0" stroke="#999999" points="1140.25,-19.25 1097.25,-19.25 1097.25,0 1140.25,0 1140.25,-19.25"/>
<text xml:space="preserve" text-anchor="middle" x="1118.75" y="-5.75" font-family="Helvetica,sans-Serif" font-size="10.00">vector</text>
</a>
</g>
</g>
<!-- Node4&#45;&gt;Node17 -->
<g id="edge16_Node000004_Node000017" class="edge">
<title>Node4&#45;&gt;Node17</title>
<g id="a_edge16_Node000004_Node000017"><a xlink:title=" ">
<path fill="none" stroke="#63b8ff" d="M831.17,-60.16C883.53,-54.03 988.24,-40.57 1085.65,-19.71"/>
<polygon fill="#63b8ff" stroke="#63b8ff" points="1086.37,-23.13 1095.4,-17.59 1084.88,-16.29 1086.37,-23.13"/>
</a>
</g>
</g>
<!-- Node18 -->
<g id="Node000018" class="node">
<title>Node18</title>
<g id="a_Node000018"><a xlink:title=" ">
<polygon fill="#e0e0e0" stroke="#999999" points="1230.88,-19.25 1158.62,-19.25 1158.62,0 1230.88,0 1230.88,-19.25"/>
<text xml:space="preserve" text-anchor="middle" x="1194.75" y="-5.75" font-family="Helvetica,sans-Serif" font-size="10.00">Eigen/Dense</text>
</a>
</g>
</g>
<!-- Node4&#45;&gt;Node18 -->
<g id="edge17_Node000004_Node000018" class="edge">
<title>Node4&#45;&gt;Node18</title>
<g id="a_edge17_Node000004_Node000018"><a xlink:title=" ">
<path fill="none" stroke="#63b8ff" d="M831.34,-60.33C892.24,-53.76 1025.16,-38.7 1147.4,-19.54"/>
<polygon fill="#63b8ff" stroke="#63b8ff" points="1147.61,-23.05 1156.94,-18.03 1146.52,-16.13 1147.61,-23.05"/>
</a>
</g>
</g>
<!-- Node19 -->
<g id="Node000019" class="node">
<title>Node19</title>
<g id="a_Node000019"><a xlink:title=" ">
<polygon fill="#e0e0e0" stroke="#999999" points="1323,-19.25 1248.5,-19.25 1248.5,0 1323,0 1323,-19.25"/>
<text xml:space="preserve" text-anchor="middle" x="1285.75" y="-5.75" font-family="Helvetica,sans-Serif" font-size="10.00">Eigen/Sparse</text>
</a>
</g>
</g>
<!-- Node4&#45;&gt;Node19 -->
<g id="edge18_Node000004_Node000019" class="edge">
<title>Node4&#45;&gt;Node19</title>
<g id="a_edge18_Node000004_Node000019"><a xlink:title=" ">
<path fill="none" stroke="#63b8ff" d="M831.14,-61.48C903.28,-56.08 1079.33,-41.81 1236.83,-19.56"/>
<polygon fill="#63b8ff" stroke="#63b8ff" points="1237.23,-23.04 1246.64,-18.16 1236.24,-16.11 1237.23,-23.04"/>
</a>
</g>
</g>
<!-- Node20 -->
<g id="Node000020" class="node">
<title>Node20</title>
<g id="a_Node000020"><a xlink:title=" ">
<polygon fill="#e0e0e0" stroke="#999999" points="1428.38,-19.25 1341.12,-19.25 1341.12,0 1428.38,0 1428.38,-19.25"/>
<text xml:space="preserve" text-anchor="middle" x="1384.75" y="-5.75" font-family="Helvetica,sans-Serif" font-size="10.00">Eigen/SparseLU</text>
</a>
</g>
</g>
<!-- Node4&#45;&gt;Node20 -->
<g id="edge19_Node000004_Node000020" class="edge">
<title>Node4&#45;&gt;Node20</title>
<g id="a_edge19_Node000004_Node000020"><a xlink:title=" ">
<path fill="none" stroke="#63b8ff" d="M831.27,-61.98C913.97,-57.13 1134.54,-42.99 1329.5,-19.43"/>
<polygon fill="#63b8ff" stroke="#63b8ff" points="1329.82,-22.91 1339.33,-18.23 1328.98,-15.96 1329.82,-22.91"/>
</a>
</g>
</g>
<!-- Node21&#45;&gt;Node3 -->
<g id="edge21_Node000021_Node000003" class="edge">
<title>Node21&#45;&gt;Node3</title>
<g id="a_edge21_Node000021_Node000003"><a xlink:title=" ">
<path fill="none" stroke="#63b8ff" d="M261.24,-170.91C271.55,-169.01 282.51,-167.16 292.75,-165.75 450.06,-144.1 636.46,-130.8 732.82,-124.84"/>
<polygon fill="#63b8ff" stroke="#63b8ff" points="732.84,-128.34 742.6,-124.24 732.41,-121.36 732.84,-128.34"/>
</a>
</g>
</g>
<!-- Node22&#45;&gt;Node3 -->
<g id="edge23_Node000022_Node000003" class="edge">
<title>Node22&#45;&gt;Node3</title>
<g id="a_edge23_Node000022_Node000003"><a xlink:title=" ">
<path fill="none" stroke="#63b8ff" d="M406.46,-170.88C415.76,-169.05 425.57,-167.23 434.75,-165.75 538.58,-148.97 660.01,-135.22 732.81,-127.61"/>
<polygon fill="#63b8ff" stroke="#63b8ff" points="732.97,-131.11 742.56,-126.6 732.25,-124.15 732.97,-131.11"/>
</a>
</g>
</g>
<!-- Node23&#45;&gt;Node3 -->
<g id="edge25_Node000023_Node000003" class="edge">
<title>Node23&#45;&gt;Node3</title>
<g id="a_edge25_Node000023_Node000003"><a xlink:title=" ">
<path fill="none" stroke="#63b8ff" d="M553.27,-170.93C604.08,-160.58 687.23,-143.64 742.23,-132.44"/>
<polygon fill="#63b8ff" stroke="#63b8ff" points="742.59,-135.93 751.69,-130.51 741.2,-129.07 742.59,-135.93"/>
</a>
</g>
</g>
<!-- Node24&#45;&gt;Node3 -->
<g id="edge27_Node000024_Node000003" class="edge">
<title>Node24&#45;&gt;Node3</title>
<g id="a_edge27_Node000024_Node000003"><a xlink:title=" ">
<path fill="none" stroke="#63b8ff" d="M688.97,-165.3C712.32,-155.81 742.45,-143.58 765.07,-134.39"/>
<polygon fill="#63b8ff" stroke="#63b8ff" points="766.16,-137.73 774.11,-130.72 763.53,-131.24 766.16,-137.73"/>
</a>
</g>
</g>
<!-- Node25&#45;&gt;Node3 -->
<g id="edge29_Node000025_Node000003" class="edge">
<title>Node25&#45;&gt;Node3</title>
<g id="a_edge29_Node000025_Node000003"><a xlink:title=" ">
<path fill="none" stroke="#63b8ff" d="M797.75,-171.06C797.75,-163.28 797.75,-151.7 797.75,-141.66"/>
<polygon fill="#63b8ff" stroke="#63b8ff" points="801.25,-141.66 797.75,-131.66 794.25,-141.66 801.25,-141.66"/>
</a>
</g>
</g>
<!-- Node26&#45;&gt;Node3 -->
<g id="edge31_Node000026_Node000003" class="edge">
<title>Node26&#45;&gt;Node3</title>
<g id="a_edge31_Node000026_Node000003"><a xlink:title=" ">
<path fill="none" stroke="#63b8ff" d="M931.41,-170.93C904.97,-161.08 862.5,-145.25 832.54,-134.09"/>
<polygon fill="#63b8ff" stroke="#63b8ff" points="834.13,-130.95 823.54,-130.73 831.69,-137.51 834.13,-130.95"/>
</a>
</g>
</g>
<!-- Node27&#45;&gt;Node3 -->
<g id="edge33_Node000027_Node000003" class="edge">
<title>Node27&#45;&gt;Node3</title>
<g id="a_edge33_Node000027_Node000003"><a xlink:title=" ">
<path fill="none" stroke="#63b8ff" d="M1076.06,-170.93C1017.86,-160.51 922.37,-143.43 859.78,-132.23"/>
<polygon fill="#63b8ff" stroke="#63b8ff" points="860.44,-128.79 849.98,-130.47 859.21,-135.68 860.44,-128.79"/>
</a>
</g>
</g>
<!-- Node28&#45;&gt;Node3 -->
<g id="edge35_Node000028_Node000003" class="edge">
<title>Node28&#45;&gt;Node3</title>
<g id="a_edge35_Node000028_Node000003"><a xlink:title=" ">
<path fill="none" stroke="#63b8ff" d="M1247.79,-170.9C1236.92,-169.06 1225.47,-167.24 1214.75,-165.75 1090.73,-148.49 945.15,-134.28 862.95,-126.81"/>
<polygon fill="#63b8ff" stroke="#63b8ff" points="863.31,-123.33 853.04,-125.92 862.68,-130.3 863.31,-123.33"/>
</a>
</g>
</g>
<!-- Node29&#45;&gt;Node3 -->
<g id="edge37_Node000029_Node000003" class="edge">
<title>Node29&#45;&gt;Node3</title>
<g id="a_edge37_Node000029_Node000003"><a xlink:title=" ">
<path fill="none" stroke="#63b8ff" d="M1410.13,-170.92C1400.55,-168.97 1390.32,-167.1 1380.75,-165.75 1193.81,-139.4 970.81,-127.78 862.79,-123.4"/>
<polygon fill="#63b8ff" stroke="#63b8ff" points="863.09,-119.91 852.96,-123.01 862.81,-126.9 863.09,-119.91"/>
</a>
</g>
</g>
<!-- Node30&#45;&gt;Node3 -->
<g id="edge39_Node000030_Node000003" class="edge">
<title>Node30&#45;&gt;Node3</title>
<g id="a_edge39_Node000030_Node000003"><a xlink:title=" ">
<path fill="none" stroke="#63b8ff" d="M1549.78,-170.91C1539.68,-168.94 1528.86,-167.06 1518.75,-165.75 1278.13,-134.63 989.43,-125.06 862.73,-122.24"/>
<polygon fill="#63b8ff" stroke="#63b8ff" points="862.93,-118.75 852.86,-122.03 862.78,-125.74 862.93,-118.75"/>
</a>
</g>
</g>
</g>
</svg>
