<?xml version="1.0" encoding="UTF-8" standalone="no"?>
<!DOCTYPE svg PUBLIC "-//W3C//DTD SVG 1.1//EN"
 "http://www.w3.org/Graphics/SVG/1.1/DTD/svg11.dtd">
<!-- Generated by graphviz version 14.0.5 (20251129.0259)
 -->
<!-- Title: include/Optimist/TestSet.hh Pages: 1 -->
<svg width="1662pt" height="260pt"
 viewBox="0.00 0.00 1662.00 260.00" xmlns="http://www.w3.org/2000/svg" xmlns:xlink="http://www.w3.org/1999/xlink">
<g id="graph0" class="graph" transform="scale(1 1) rotate(0) translate(4 255.5)">
<title>include/Optimist/TestSet.hh</title>
<!-- Node1 -->
<g id="Node000001" class="node">
<title>Node1</title>
<g id="a_Node000001"><a xlink:title=" ">
<polygon fill="#999999" stroke="#666666" points="866.12,-251.5 729.38,-251.5 729.38,-232.25 866.12,-232.25 866.12,-251.5"/>
<text xml:space="preserve" text-anchor="middle" x="797.75" y="-238" font-family="Helvetica,sans-Serif" font-size="10.00">include/Optimist/TestSet.hh</text>
</a>
</g>
</g>
<!-- Node2 -->
<g id="Node000002" class="node">
<title>Node2</title>
<g id="a_Node000002"><a xlink:href="_booth_8hh.html" target="_top" xlink:title=" ">
<polygon fill="white" stroke="#666666" points="131.5,-190.62 0,-190.62 0,-171.38 131.5,-171.38 131.5,-190.62"/>
<text xml:space="preserve" text-anchor="middle" x="65.75" y="-177.12" font-family="Helvetica,sans-Serif" font-size="10.00">Optimist/TestSet/Booth.hh</text>
</a>
</g>
</g>
<!-- Node1&#45;&gt;Node2 -->
<g id="edge1_Node000001_Node000002" class="edge">
<title>Node1&#45;&gt;Node2</title>
<g id="a_edge1_Node000001_Node000002"><a xlink:title=" ">
<path fill="none" stroke="#63b8ff" d="M728.91,-238.92C609,-234.9 354.21,-223.68 140.75,-196.25 134.02,-195.38 126.97,-194.3 120.02,-193.11"/>
<polygon fill="#63b8ff" stroke="#63b8ff" points="120.79,-189.69 110.33,-191.37 119.55,-196.58 120.79,-189.69"/>
</a>
</g>
</g>
<!-- Node20 -->
<g id="Node000020" class="node">
<title>Node20</title>
<g id="a_Node000020"><a xlink:href="_brown_8hh.html" target="_top" xlink:title=" ">
<polygon fill="white" stroke="#666666" points="283.62,-190.62 149.88,-190.62 149.88,-171.38 283.62,-171.38 283.62,-190.62"/>
<text xml:space="preserve" text-anchor="middle" x="216.75" y="-177.12" font-family="Helvetica,sans-Serif" font-size="10.00">Optimist/TestSet/Brown.hh</text>
</a>
</g>
</g>
<!-- Node1&#45;&gt;Node20 -->
<g id="edge19_Node000001_Node000020" class="edge">
<title>Node1&#45;&gt;Node20</title>
<g id="a_edge19_Node000001_Node000020"><a xlink:title=" ">
<path fill="none" stroke="#63b8ff" d="M728.9,-236.92C631.47,-230.84 447.95,-217.61 292.75,-196.25 286.19,-195.35 279.34,-194.26 272.55,-193.1"/>
<polygon fill="#63b8ff" stroke="#63b8ff" points="273.19,-189.66 262.73,-191.36 271.96,-196.55 273.19,-189.66"/>
</a>
</g>
</g>
<!-- Node21 -->
<g id="Node000021" class="node">
<title>Node21</title>
<g id="a_Node000021"><a xlink:href="_cos_8hh.html" target="_top" xlink:title=" ">
<polygon fill="white" stroke="#666666" points="425.75,-190.62 301.75,-190.62 301.75,-171.38 425.75,-171.38 425.75,-190.62"/>
<text xml:space="preserve" text-anchor="middle" x="363.75" y="-177.12" font-family="Helvetica,sans-Serif" font-size="10.00">Optimist/TestSet/Cos.hh</text>
</a>
</g>
</g>
<!-- Node1&#45;&gt;Node21 -->
<g id="edge21_Node000001_Node000021" class="edge">
<title>Node1&#45;&gt;Node21</title>
<g id="a_edge21_Node000001_Node000021"><a xlink:title=" ">
<path fill="none" stroke="#63b8ff" d="M728.95,-233.99C655.78,-226.29 536.77,-212.73 434.75,-196.25 429.15,-195.35 423.33,-194.32 417.52,-193.24"/>
<polygon fill="#63b8ff" stroke="#63b8ff" points="418.42,-189.85 407.94,-191.4 417.1,-196.72 418.42,-189.85"/>
</a>
</g>
</g>
<!-- Node22 -->
<g id="Node000022" class="node">
<title>Node22</title>
<g id="a_Node000022"><a xlink:href="_cosh_8hh.html" target="_top" xlink:title=" ">
<polygon fill="white" stroke="#666666" points="573.38,-190.62 444.12,-190.62 444.12,-171.38 573.38,-171.38 573.38,-190.62"/>
<text xml:space="preserve" text-anchor="middle" x="508.75" y="-177.12" font-family="Helvetica,sans-Serif" font-size="10.00">Optimist/TestSet/Cosh.hh</text>
</a>
</g>
</g>
<!-- Node1&#45;&gt;Node22 -->
<g id="edge23_Node000001_Node000022" class="edge">
<title>Node1&#45;&gt;Node22</title>
<g id="a_edge23_Node000001_Node000022"><a xlink:title=" ">
<path fill="none" stroke="#63b8ff" d="M753.23,-231.8C702.42,-221.45 619.27,-204.51 564.27,-193.31"/>
<polygon fill="#63b8ff" stroke="#63b8ff" points="565.3,-189.95 554.81,-191.38 563.91,-196.81 565.3,-189.95"/>
</a>
</g>
</g>
<!-- Node23 -->
<g id="Node000023" class="node">
<title>Node23</title>
<g id="a_Node000023"><a xlink:href="_elliptic_paraboloid_8hh.html" target="_top" xlink:title=" ">
<polygon fill="white" stroke="#666666" points="713.62,-196.25 591.88,-196.25 591.88,-165.75 713.62,-165.75 713.62,-196.25"/>
<text xml:space="preserve" text-anchor="start" x="599.88" y="-182.75" font-family="Helvetica,sans-Serif" font-size="10.00">Optimist/TestSet/Elliptic</text>
<text xml:space="preserve" text-anchor="middle" x="652.75" y="-171.5" font-family="Helvetica,sans-Serif" font-size="10.00">Paraboloid.hh</text>
</a>
</g>
</g>
<!-- Node1&#45;&gt;Node23 -->
<g id="edge25_Node000001_Node000023" class="edge">
<title>Node1&#45;&gt;Node23</title>
<g id="a_edge25_Node000001_Node000023"><a xlink:title=" ">
<path fill="none" stroke="#63b8ff" d="M775.41,-231.8C755.25,-223.62 724.95,-211.31 699.5,-200.98"/>
<polygon fill="#63b8ff" stroke="#63b8ff" points="700.93,-197.78 690.34,-197.26 698.29,-204.27 700.93,-197.78"/>
</a>
</g>
</g>
<!-- Node24 -->
<g id="Node000024" class="node">
<title>Node24</title>
<g id="a_Node000024"><a xlink:href="_linear_8hh.html" target="_top" xlink:title=" ">
<polygon fill="white" stroke="#666666" points="863.5,-190.62 732,-190.62 732,-171.38 863.5,-171.38 863.5,-190.62"/>
<text xml:space="preserve" text-anchor="middle" x="797.75" y="-177.12" font-family="Helvetica,sans-Serif" font-size="10.00">Optimist/TestSet/Linear.hh</text>
</a>
</g>
</g>
<!-- Node1&#45;&gt;Node24 -->
<g id="edge27_Node000001_Node000024" class="edge">
<title>Node1&#45;&gt;Node24</title>
<g id="a_edge27_Node000001_Node000024"><a xlink:title=" ">
<path fill="none" stroke="#63b8ff" d="M797.75,-231.93C797.75,-224.15 797.75,-212.58 797.75,-202.53"/>
<polygon fill="#63b8ff" stroke="#63b8ff" points="801.25,-202.54 797.75,-192.54 794.25,-202.54 801.25,-202.54"/>
</a>
</g>
</g>
<!-- Node25 -->
<g id="Node000025" class="node">
<title>Node25</title>
<g id="a_Node000025"><a xlink:href="_quadratic_8hh.html" target="_top" xlink:title=" ">
<polygon fill="white" stroke="#666666" points="1029.75,-190.62 881.75,-190.62 881.75,-171.38 1029.75,-171.38 1029.75,-190.62"/>
<text xml:space="preserve" text-anchor="middle" x="955.75" y="-177.12" font-family="Helvetica,sans-Serif" font-size="10.00">Optimist/TestSet/Quadratic.hh</text>
</a>
</g>
</g>
<!-- Node1&#45;&gt;Node25 -->
<g id="edge29_Node000001_Node000025" class="edge">
<title>Node1&#45;&gt;Node25</title>
<g id="a_edge29_Node000001_Node000025"><a xlink:title=" ">
<path fill="none" stroke="#63b8ff" d="M822.09,-231.8C848.53,-221.95 891,-206.13 920.96,-194.96"/>
<polygon fill="#63b8ff" stroke="#63b8ff" points="921.81,-198.38 929.96,-191.61 919.37,-191.82 921.81,-198.38"/>
</a>
</g>
</g>
<!-- Node26 -->
<g id="Node000026" class="node">
<title>Node26</title>
<g id="a_Node000026"><a xlink:href="_schaffer2_8hh.html" target="_top" xlink:title=" ">
<polygon fill="white" stroke="#666666" points="1195.75,-190.62 1047.75,-190.62 1047.75,-171.38 1195.75,-171.38 1195.75,-190.62"/>
<text xml:space="preserve" text-anchor="middle" x="1121.75" y="-177.12" font-family="Helvetica,sans-Serif" font-size="10.00">Optimist/TestSet/Schaffer2.hh</text>
</a>
</g>
</g>
<!-- Node1&#45;&gt;Node26 -->
<g id="edge31_Node000001_Node000026" class="edge">
<title>Node1&#45;&gt;Node26</title>
<g id="a_edge31_Node000001_Node000026"><a xlink:title=" ">
<path fill="none" stroke="#63b8ff" d="M847.66,-231.8C904.98,-221.39 999.02,-204.3 1060.66,-193.1"/>
<polygon fill="#63b8ff" stroke="#63b8ff" points="1061.08,-196.58 1070.29,-191.35 1059.82,-189.7 1061.08,-196.58"/>
</a>
</g>
</g>
<!-- Node27 -->
<g id="Node000027" class="node">
<title>Node27</title>
<g id="a_Node000027"><a xlink:href="_rosenbrock_8hh.html" target="_top" xlink:title=" ">
<polygon fill="white" stroke="#666666" points="1372,-190.62 1213.5,-190.62 1213.5,-171.38 1372,-171.38 1372,-190.62"/>
<text xml:space="preserve" text-anchor="middle" x="1292.75" y="-177.12" font-family="Helvetica,sans-Serif" font-size="10.00">Optimist/TestSet/Rosenbrock.hh</text>
</a>
</g>
</g>
<!-- Node1&#45;&gt;Node27 -->
<g id="edge33_Node000001_Node000027" class="edge">
<title>Node1&#45;&gt;Node27</title>
<g id="a_edge33_Node000001_Node000027"><a xlink:title=" ">
<path fill="none" stroke="#63b8ff" d="M866.29,-234.44C947.29,-226.59 1086.06,-212.36 1204.75,-196.25 1212.27,-195.23 1220.14,-194.08 1227.95,-192.88"/>
<polygon fill="#63b8ff" stroke="#63b8ff" points="1228.46,-196.34 1237.8,-191.34 1227.38,-189.43 1228.46,-196.34"/>
</a>
</g>
</g>
<!-- Node28 -->
<g id="Node000028" class="node">
<title>Node28</title>
<g id="a_Node000028"><a xlink:href="_sin_8hh.html" target="_top" xlink:title=" ">
<polygon fill="white" stroke="#666666" points="1509.88,-190.62 1389.62,-190.62 1389.62,-171.38 1509.88,-171.38 1509.88,-190.62"/>
<text xml:space="preserve" text-anchor="middle" x="1449.75" y="-177.12" font-family="Helvetica,sans-Serif" font-size="10.00">Optimist/TestSet/Sin.hh</text>
</a>
</g>
</g>
<!-- Node1&#45;&gt;Node28 -->
<g id="edge35_Node000001_Node000028" class="edge">
<title>Node1&#45;&gt;Node28</title>
<g id="a_edge35_Node000001_Node000028"><a xlink:title=" ">
<path fill="none" stroke="#63b8ff" d="M866.27,-238.46C975.54,-233.97 1195.8,-222.32 1380.75,-196.25 1386.73,-195.41 1392.97,-194.36 1399.15,-193.22"/>
<polygon fill="#63b8ff" stroke="#63b8ff" points="1399.5,-196.71 1408.64,-191.37 1398.16,-189.84 1399.5,-196.71"/>
</a>
</g>
</g>
<!-- Node29 -->
<g id="Node000029" class="node">
<title>Node29</title>
<g id="a_Node000029"><a xlink:href="_sinh_8hh.html" target="_top" xlink:title=" ">
<polygon fill="white" stroke="#666666" points="1653.5,-190.62 1528,-190.62 1528,-171.38 1653.5,-171.38 1653.5,-190.62"/>
<text xml:space="preserve" text-anchor="middle" x="1590.75" y="-177.12" font-family="Helvetica,sans-Serif" font-size="10.00">Optimist/TestSet/Sinh.hh</text>
</a>
</g>
</g>
<!-- Node1&#45;&gt;Node29 -->
<g id="edge37_Node000001_Node000029" class="edge">
<title>Node1&#45;&gt;Node29</title>
<g id="a_edge37_Node000001_Node000029"><a xlink:title=" ">
<path fill="none" stroke="#63b8ff" d="M866.38,-239.68C994.9,-236.75 1280.41,-227.07 1518.75,-196.25 1525.23,-195.41 1532,-194.34 1538.68,-193.16"/>
<polygon fill="#63b8ff" stroke="#63b8ff" points="1539.11,-196.64 1548.3,-191.37 1537.82,-189.76 1539.11,-196.64"/>
</a>
</g>
</g>
<!-- Node3 -->
<g id="Node000003" class="node">
<title>Node3</title>
<g id="a_Node000003"><a xlink:href="_function_8hh.html" target="_top" xlink:title=" ">
<polygon fill="white" stroke="#666666" points="851.12,-129.75 744.38,-129.75 744.38,-110.5 851.12,-110.5 851.12,-129.75"/>
<text xml:space="preserve" text-anchor="middle" x="797.75" y="-116.25" font-family="Helvetica,sans-Serif" font-size="10.00">Optimist/Function.hh</text>
</a>
</g>
</g>
<!-- Node2&#45;&gt;Node3 -->
<g id="edge2_Node000002_Node000003" class="edge">
<title>Node2&#45;&gt;Node3</title>
<g id="a_edge2_Node000002_Node000003"><a xlink:title=" ">
<path fill="none" stroke="#63b8ff" d="M108.84,-170.9C119.25,-168.95 130.36,-167.08 140.75,-165.75 356.39,-138.04 614.2,-126.88 732.53,-122.96"/>
<polygon fill="#63b8ff" stroke="#63b8ff" points="732.49,-126.47 742.37,-122.65 732.26,-119.47 732.49,-126.47"/>
</a>
</g>
</g>
<!-- Node4 -->
<g id="Node000004" class="node">
<title>Node4</title>
<g id="a_Node000004"><a xlink:href="_optimist_8hh.html" target="_top" xlink:title=" ">
<polygon fill="white" stroke="#666666" points="830.88,-74.5 764.62,-74.5 764.62,-55.25 830.88,-55.25 830.88,-74.5"/>
<text xml:space="preserve" text-anchor="middle" x="797.75" y="-61" font-family="Helvetica,sans-Serif" font-size="10.00">Optimist.hh</text>
</a>
</g>
</g>
<!-- Node3&#45;&gt;Node4 -->
<g id="edge3_Node000003_Node000004" class="edge">
<title>Node3&#45;&gt;Node4</title>
<g id="a_edge3_Node000003_Node000004"><a xlink:title=" ">
<path fill="none" stroke="#63b8ff" d="M797.75,-110.33C797.75,-103.82 797.75,-94.67 797.75,-86.37"/>
<polygon fill="#63b8ff" stroke="#63b8ff" points="801.25,-86.37 797.75,-76.37 794.25,-86.37 801.25,-86.37"/>
</a>
</g>
</g>
<!-- Node5 -->
<g id="Node000005" class="node">
<title>Node5</title>
<g id="a_Node000005"><a xlink:title=" ">
<polygon fill="#e0e0e0" stroke="#999999" points="410.5,-19.25 357,-19.25 357,0 410.5,0 410.5,-19.25"/>
<text xml:space="preserve" text-anchor="middle" x="383.75" y="-5.75" font-family="Helvetica,sans-Serif" font-size="10.00">iostream</text>
</a>
</g>
</g>
<!-- Node4&#45;&gt;Node5 -->
<g id="edge4_Node000004_Node000005" class="edge">
<title>Node4&#45;&gt;Node5</title>
<g id="a_edge4_Node000004_Node000005"><a xlink:title=" ">
<path fill="none" stroke="#63b8ff" d="M764.18,-61.25C699.77,-55.92 554.21,-42.5 421.93,-19.44"/>
<polygon fill="#63b8ff" stroke="#63b8ff" points="422.75,-16.03 412.3,-17.73 421.53,-22.92 422.75,-16.03"/>
</a>
</g>
</g>
<!-- Node6 -->
<g id="Node000006" class="node">
<title>Node6</title>
<g id="a_Node000006"><a xlink:title=" ">
<polygon fill="#e0e0e0" stroke="#999999" points="457.15,-19.25 428.35,-19.25 428.35,0 457.15,0 457.15,-19.25"/>
<text xml:space="preserve" text-anchor="middle" x="442.75" y="-5.75" font-family="Helvetica,sans-Serif" font-size="10.00">ios</text>
</a>
</g>
</g>
<!-- Node4&#45;&gt;Node6 -->
<g id="edge5_Node000004_Node000006" class="edge">
<title>Node4&#45;&gt;Node6</title>
<g id="a_edge5_Node000004_Node000006"><a xlink:title=" ">
<path fill="none" stroke="#63b8ff" d="M764.3,-61.88C705.78,-57.85 581.03,-46.89 468.08,-19.32"/>
<polygon fill="#63b8ff" stroke="#63b8ff" points="469.21,-16 458.66,-16.97 467.52,-22.79 469.21,-16"/>
</a>
</g>
</g>
<!-- Node7 -->
<g id="Node000007" class="node">
<title>Node7</title>
<g id="a_Node000007"><a xlink:title=" ">
<polygon fill="#e0e0e0" stroke="#999999" points="524.62,-19.25 474.88,-19.25 474.88,0 524.62,0 524.62,-19.25"/>
<text xml:space="preserve" text-anchor="middle" x="499.75" y="-5.75" font-family="Helvetica,sans-Serif" font-size="10.00">iomanip</text>
</a>
</g>
</g>
<!-- Node4&#45;&gt;Node7 -->
<g id="edge6_Node000004_Node000007" class="edge">
<title>Node4&#45;&gt;Node7</title>
<g id="a_edge6_Node000004_Node000007"><a xlink:title=" ">
<path fill="none" stroke="#63b8ff" d="M764.25,-59.1C716.02,-52.04 624.02,-37.85 536.19,-19.62"/>
<polygon fill="#63b8ff" stroke="#63b8ff" points="536.94,-16.2 526.43,-17.57 535.5,-23.05 536.94,-16.2"/>
</a>
</g>
</g>
<!-- Node8 -->
<g id="Node000008" class="node">
<title>Node8</title>
<g id="a_Node000008"><a xlink:title=" ">
<polygon fill="#e0e0e0" stroke="#999999" points="582.75,-19.25 542.75,-19.25 542.75,0 582.75,0 582.75,-19.25"/>
<text xml:space="preserve" text-anchor="middle" x="562.75" y="-5.75" font-family="Helvetica,sans-Serif" font-size="10.00">string</text>
</a>
</g>
</g>
<!-- Node4&#45;&gt;Node8 -->
<g id="edge7_Node000004_Node000008" class="edge">
<title>Node4&#45;&gt;Node8</title>
<g id="a_edge7_Node000004_Node000008"><a xlink:title=" ">
<path fill="none" stroke="#63b8ff" d="M764.39,-57.46C725.65,-49.83 659.62,-36.29 593.94,-19.66"/>
<polygon fill="#63b8ff" stroke="#63b8ff" points="595,-16.32 584.44,-17.23 593.26,-23.1 595,-16.32"/>
</a>
</g>
</g>
<!-- Node9 -->
<g id="Node000009" class="node">
<title>Node9</title>
<g id="a_Node000009"><a xlink:title=" ">
<polygon fill="#e0e0e0" stroke="#999999" points="644.25,-19.25 601.25,-19.25 601.25,0 644.25,0 644.25,-19.25"/>
<text xml:space="preserve" text-anchor="middle" x="622.75" y="-5.75" font-family="Helvetica,sans-Serif" font-size="10.00">cmath</text>
</a>
</g>
</g>
<!-- Node4&#45;&gt;Node9 -->
<g id="edge8_Node000004_Node000009" class="edge">
<title>Node4&#45;&gt;Node9</title>
<g id="a_edge8_Node000004_Node000009"><a xlink:title=" ">
<path fill="none" stroke="#63b8ff" d="M768.06,-54.84C736.75,-45.31 687.55,-30.34 655.22,-20.51"/>
<polygon fill="#63b8ff" stroke="#63b8ff" points="656.58,-17.26 645.99,-17.7 654.54,-23.96 656.58,-17.26"/>
</a>
</g>
</g>
<!-- Node10 -->
<g id="Node000010" class="node">
<title>Node10</title>
<g id="a_Node000010"><a xlink:title=" ">
<polygon fill="#e0e0e0" stroke="#999999" points="701.38,-19.25 662.12,-19.25 662.12,0 701.38,0 701.38,-19.25"/>
<text xml:space="preserve" text-anchor="middle" x="681.75" y="-5.75" font-family="Helvetica,sans-Serif" font-size="10.00">limits</text>
</a>
</g>
</g>
<!-- Node4&#45;&gt;Node10 -->
<g id="edge9_Node000004_Node000010" class="edge">
<title>Node4&#45;&gt;Node10</title>
<g id="a_edge9_Node000004_Node000010"><a xlink:title=" ">
<path fill="none" stroke="#63b8ff" d="M778.07,-54.84C759.91,-46.5 732.67,-34 711.78,-24.41"/>
<polygon fill="#63b8ff" stroke="#63b8ff" points="713.45,-21.33 702.9,-20.33 710.53,-27.69 713.45,-21.33"/>
</a>
</g>
</g>
<!-- Node11 -->
<g id="Node000011" class="node">
<title>Node11</title>
<g id="a_Node000011"><a xlink:title=" ">
<polygon fill="#e0e0e0" stroke="#999999" points="762.25,-19.25 719.25,-19.25 719.25,0 762.25,0 762.25,-19.25"/>
<text xml:space="preserve" text-anchor="middle" x="740.75" y="-5.75" font-family="Helvetica,sans-Serif" font-size="10.00">vector</text>
</a>
</g>
</g>
<!-- Node4&#45;&gt;Node11 -->
<g id="edge10_Node000004_Node000011" class="edge">
<title>Node4&#45;&gt;Node11</title>
<g id="a_edge10_Node000004_Node000011"><a xlink:title=" ">
<path fill="none" stroke="#63b8ff" d="M788.08,-54.84C780.01,-47.3 768.28,-36.35 758.53,-27.23"/>
<polygon fill="#63b8ff" stroke="#63b8ff" points="761.08,-24.83 751.38,-20.56 756.3,-29.94 761.08,-24.83"/>
</a>
</g>
</g>
<!-- Node12 -->
<g id="Node000012" class="node">
<title>Node12</title>
<g id="a_Node000012"><a xlink:title=" ">
<polygon fill="#e0e0e0" stroke="#999999" points="815.12,-19.25 780.38,-19.25 780.38,0 815.12,0 815.12,-19.25"/>
<text xml:space="preserve" text-anchor="middle" x="797.75" y="-5.75" font-family="Helvetica,sans-Serif" font-size="10.00">map</text>
</a>
</g>
</g>
<!-- Node4&#45;&gt;Node12 -->
<g id="edge11_Node000004_Node000012" class="edge">
<title>Node4&#45;&gt;Node12</title>
<g id="a_edge11_Node000004_Node000012"><a xlink:title=" ">
<path fill="none" stroke="#63b8ff" d="M797.75,-55.08C797.75,-48.57 797.75,-39.42 797.75,-31.12"/>
<polygon fill="#63b8ff" stroke="#63b8ff" points="801.25,-31.12 797.75,-21.12 794.25,-31.12 801.25,-31.12"/>
</a>
</g>
</g>
<!-- Node13 -->
<g id="Node000013" class="node">
<title>Node13</title>
<g id="a_Node000013"><a xlink:title=" ">
<polygon fill="#e0e0e0" stroke="#999999" points="884.38,-19.25 833.12,-19.25 833.12,0 884.38,0 884.38,-19.25"/>
<text xml:space="preserve" text-anchor="middle" x="858.75" y="-5.75" font-family="Helvetica,sans-Serif" font-size="10.00">memory</text>
</a>
</g>
</g>
<!-- Node4&#45;&gt;Node13 -->
<g id="edge12_Node000004_Node000013" class="edge">
<title>Node4&#45;&gt;Node13</title>
<g id="a_edge12_Node000004_Node000013"><a xlink:title=" ">
<path fill="none" stroke="#63b8ff" d="M808.1,-54.84C816.83,-47.22 829.54,-36.12 840.05,-26.95"/>
<polygon fill="#63b8ff" stroke="#63b8ff" points="842.18,-29.73 847.41,-20.52 837.58,-24.46 842.18,-29.73"/>
</a>
</g>
</g>
<!-- Node14 -->
<g id="Node000014" class="node">
<title>Node14</title>
<g id="a_Node000014"><a xlink:title=" ">
<polygon fill="#e0e0e0" stroke="#999999" points="953,-19.25 902.5,-19.25 902.5,0 953,0 953,-19.25"/>
<text xml:space="preserve" text-anchor="middle" x="927.75" y="-5.75" font-family="Helvetica,sans-Serif" font-size="10.00">numeric</text>
</a>
</g>
</g>
<!-- Node4&#45;&gt;Node14 -->
<g id="edge13_Node000004_Node000014" class="edge">
<title>Node4&#45;&gt;Node14</title>
<g id="a_edge13_Node000004_Node000014"><a xlink:title=" ">
<path fill="none" stroke="#63b8ff" d="M819.8,-54.84C840.44,-46.39 871.53,-33.65 895.05,-24.02"/>
<polygon fill="#63b8ff" stroke="#63b8ff" points="896.26,-27.31 904.19,-20.28 893.61,-20.83 896.26,-27.31"/>
</a>
</g>
</g>
<!-- Node15 -->
<g id="Node000015" class="node">
<title>Node15</title>
<g id="a_Node000015"><a xlink:title=" ">
<polygon fill="#e0e0e0" stroke="#999999" points="1026.62,-19.25 970.88,-19.25 970.88,0 1026.62,0 1026.62,-19.25"/>
<text xml:space="preserve" text-anchor="middle" x="998.75" y="-5.75" font-family="Helvetica,sans-Serif" font-size="10.00">algorithm</text>
</a>
</g>
</g>
<!-- Node4&#45;&gt;Node15 -->
<g id="edge14_Node000004_Node000015" class="edge">
<title>Node4&#45;&gt;Node15</title>
<g id="a_edge14_Node000004_Node000015"><a xlink:title=" ">
<path fill="none" stroke="#63b8ff" d="M830.94,-55.08C866.21,-45.74 921.94,-30.97 959.39,-21.05"/>
<polygon fill="#63b8ff" stroke="#63b8ff" points="960.15,-24.47 968.92,-18.53 958.36,-17.7 960.15,-24.47"/>
</a>
</g>
</g>
<!-- Node16 -->
<g id="Node000016" class="node">
<title>Node16</title>
<g id="a_Node000016"><a xlink:title=" ">
<polygon fill="#e0e0e0" stroke="#999999" points="1106.62,-19.25 1044.88,-19.25 1044.88,0 1106.62,0 1106.62,-19.25"/>
<text xml:space="preserve" text-anchor="middle" x="1075.75" y="-5.75" font-family="Helvetica,sans-Serif" font-size="10.00">type_traits</text>
</a>
</g>
</g>
<!-- Node4&#45;&gt;Node16 -->
<g id="edge15_Node000004_Node000016" class="edge">
<title>Node4&#45;&gt;Node16</title>
<g id="a_edge15_Node000004_Node000016"><a xlink:title=" ">
<path fill="none" stroke="#63b8ff" d="M831.31,-57.88C875.37,-49.94 955.4,-35.3 1033.72,-19.61"/>
<polygon fill="#63b8ff" stroke="#63b8ff" points="1034.16,-23.1 1043.27,-17.69 1032.78,-16.23 1034.16,-23.1"/>
</a>
</g>
</g>
<!-- Node17 -->
<g id="Node000017" class="node">
<title>Node17</title>
<g id="a_Node000017"><a xlink:title=" ">
<polygon fill="#e0e0e0" stroke="#999999" points="1196.88,-19.25 1124.62,-19.25 1124.62,0 1196.88,0 1196.88,-19.25"/>
<text xml:space="preserve" text-anchor="middle" x="1160.75" y="-5.75" font-family="Helvetica,sans-Serif" font-size="10.00">Eigen/Dense</text>
</a>
</g>
</g>
<!-- Node4&#45;&gt;Node17 -->
<g id="edge16_Node000004_Node000017" class="edge">
<title>Node4&#45;&gt;Node17</title>
<g id="a_edge16_Node000004_Node000017"><a xlink:title=" ">
<path fill="none" stroke="#63b8ff" d="M831.26,-59.73C887.39,-52.67 1004.26,-37.46 1113.23,-19.6"/>
<polygon fill="#63b8ff" stroke="#63b8ff" points="1113.64,-23.08 1122.94,-17.99 1112.5,-16.17 1113.64,-23.08"/>
</a>
</g>
</g>
<!-- Node18 -->
<g id="Node000018" class="node">
<title>Node18</title>
<g id="a_Node000018"><a xlink:title=" ">
<polygon fill="#e0e0e0" stroke="#999999" points="1289,-19.25 1214.5,-19.25 1214.5,0 1289,0 1289,-19.25"/>
<text xml:space="preserve" text-anchor="middle" x="1251.75" y="-5.75" font-family="Helvetica,sans-Serif" font-size="10.00">Eigen/Sparse</text>
</a>
</g>
</g>
<!-- Node4&#45;&gt;Node18 -->
<g id="edge17_Node000004_Node000018" class="edge">
<title>Node4&#45;&gt;Node18</title>
<g id="a_edge17_Node000004_Node000018"><a xlink:title=" ">
<path fill="none" stroke="#63b8ff" d="M831.18,-61.09C899.21,-55.24 1058.86,-40.55 1202.91,-19.57"/>
<polygon fill="#63b8ff" stroke="#63b8ff" points="1203.25,-23.06 1212.64,-18.14 1202.23,-16.13 1203.25,-23.06"/>
</a>
</g>
</g>
<!-- Node19 -->
<g id="Node000019" class="node">
<title>Node19</title>
<g id="a_Node000019"><a xlink:title=" ">
<polygon fill="#e0e0e0" stroke="#999999" points="1394.38,-19.25 1307.12,-19.25 1307.12,0 1394.38,0 1394.38,-19.25"/>
<text xml:space="preserve" text-anchor="middle" x="1350.75" y="-5.75" font-family="Helvetica,sans-Serif" font-size="10.00">Eigen/SparseLU</text>
</a>
</g>
</g>
<!-- Node4&#45;&gt;Node19 -->
<g id="edge18_Node000004_Node000019" class="edge">
<title>Node4&#45;&gt;Node19</title>
<g id="a_edge18_Node000004_Node000019"><a xlink:title=" ">
<path fill="none" stroke="#63b8ff" d="M831.19,-61.73C910.06,-56.49 1114.05,-41.9 1295.46,-19.44"/>
<polygon fill="#63b8ff" stroke="#63b8ff" points="1295.84,-22.93 1305.32,-18.21 1294.97,-15.98 1295.84,-22.93"/>
</a>
</g>
</g>
<!-- Node20&#45;&gt;Node3 -->
<g id="edge20_Node000020_Node000003" class="edge">
<title>Node20&#45;&gt;Node3</title>
<g id="a_edge20_Node000020_Node000003"><a xlink:title=" ">
<path fill="none" stroke="#63b8ff" d="M261.24,-170.91C271.55,-169.01 282.51,-167.16 292.75,-165.75 450.06,-144.1 636.46,-130.8 732.82,-124.84"/>
<polygon fill="#63b8ff" stroke="#63b8ff" points="732.84,-128.34 742.6,-124.24 732.41,-121.36 732.84,-128.34"/>
</a>
</g>
</g>
<!-- Node21&#45;&gt;Node3 -->
<g id="edge22_Node000021_Node000003" class="edge">
<title>Node21&#45;&gt;Node3</title>
<g id="a_edge22_Node000021_Node000003"><a xlink:title=" ">
<path fill="none" stroke="#63b8ff" d="M406.46,-170.88C415.76,-169.05 425.57,-167.23 434.75,-165.75 538.58,-148.97 660.01,-135.22 732.81,-127.61"/>
<polygon fill="#63b8ff" stroke="#63b8ff" points="732.97,-131.11 742.56,-126.6 732.25,-124.15 732.97,-131.11"/>
</a>
</g>
</g>
<!-- Node22&#45;&gt;Node3 -->
<g id="edge24_Node000022_Node000003" class="edge">
<title>Node22&#45;&gt;Node3</title>
<g id="a_edge24_Node000022_Node000003"><a xlink:title=" ">
<path fill="none" stroke="#63b8ff" d="M553.27,-170.93C604.08,-160.58 687.23,-143.64 742.23,-132.44"/>
<polygon fill="#63b8ff" stroke="#63b8ff" points="742.59,-135.93 751.69,-130.51 741.2,-129.07 742.59,-135.93"/>
</a>
</g>
</g>
<!-- Node23&#45;&gt;Node3 -->
<g id="edge26_Node000023_Node000003" class="edge">
<title>Node23&#45;&gt;Node3</title>
<g id="a_edge26_Node000023_Node000003"><a xlink:title=" ">
<path fill="none" stroke="#63b8ff" d="M688.97,-165.3C712.32,-155.81 742.45,-143.58 765.07,-134.39"/>
<polygon fill="#63b8ff" stroke="#63b8ff" points="766.16,-137.73 774.11,-130.72 763.53,-131.24 766.16,-137.73"/>
</a>
</g>
</g>
<!-- Node24&#45;&gt;Node3 -->
<g id="edge28_Node000024_Node000003" class="edge">
<title>Node24&#45;&gt;Node3</title>
<g id="a_edge28_Node000024_Node000003"><a xlink:title=" ">
<path fill="none" stroke="#63b8ff" d="M797.75,-171.06C797.75,-163.28 797.75,-151.7 797.75,-141.66"/>
<polygon fill="#63b8ff" stroke="#63b8ff" points="801.25,-141.66 797.75,-131.66 794.25,-141.66 801.25,-141.66"/>
</a>
</g>
</g>
<!-- Node25&#45;&gt;Node3 -->
<g id="edge30_Node000025_Node000003" class="edge">
<title>Node25&#45;&gt;Node3</title>
<g id="a_edge30_Node000025_Node000003"><a xlink:title=" ">
<path fill="none" stroke="#63b8ff" d="M931.41,-170.93C904.97,-161.08 862.5,-145.25 832.54,-134.09"/>
<polygon fill="#63b8ff" stroke="#63b8ff" points="834.13,-130.95 823.54,-130.73 831.69,-137.51 834.13,-130.95"/>
</a>
</g>
</g>
<!-- Node26&#45;&gt;Node3 -->
<g id="edge32_Node000026_Node000003" class="edge">
<title>Node26&#45;&gt;Node3</title>
<g id="a_edge32_Node000026_Node000003"><a xlink:title=" ">
<path fill="none" stroke="#63b8ff" d="M1071.84,-170.93C1014.52,-160.51 920.48,-143.43 858.84,-132.23"/>
<polygon fill="#63b8ff" stroke="#63b8ff" points="859.68,-128.82 849.21,-130.48 858.42,-135.71 859.68,-128.82"/>
</a>
</g>
</g>
<!-- Node27&#45;&gt;Node3 -->
<g id="edge34_Node000027_Node000003" class="edge">
<title>Node27&#45;&gt;Node3</title>
<g id="a_edge34_Node000027_Node000003"><a xlink:title=" ">
<path fill="none" stroke="#63b8ff" d="M1239.3,-170.89C1227.91,-169.08 1215.95,-167.27 1204.75,-165.75 1084.41,-149.42 943.42,-135.01 862.94,-127.23"/>
<polygon fill="#63b8ff" stroke="#63b8ff" points="863.31,-123.75 853.02,-126.28 862.64,-130.72 863.31,-123.75"/>
</a>
</g>
</g>
<!-- Node28&#45;&gt;Node3 -->
<g id="edge36_Node000028_Node000003" class="edge">
<title>Node28&#45;&gt;Node3</title>
<g id="a_edge36_Node000028_Node000003"><a xlink:title=" ">
<path fill="none" stroke="#63b8ff" d="M1410.13,-170.92C1400.55,-168.97 1390.32,-167.1 1380.75,-165.75 1193.81,-139.4 970.81,-127.78 862.79,-123.4"/>
<polygon fill="#63b8ff" stroke="#63b8ff" points="863.09,-119.91 852.96,-123.01 862.81,-126.9 863.09,-119.91"/>
</a>
</g>
</g>
<!-- Node29&#45;&gt;Node3 -->
<g id="edge38_Node000029_Node000003" class="edge">
<title>Node29&#45;&gt;Node3</title>
<g id="a_edge38_Node000029_Node000003"><a xlink:title=" ">
<path fill="none" stroke="#63b8ff" d="M1549.78,-170.91C1539.68,-168.94 1528.86,-167.06 1518.75,-165.75 1278.13,-134.63 989.43,-125.06 862.73,-122.24"/>
<polygon fill="#63b8ff" stroke="#63b8ff" points="862.93,-118.75 852.86,-122.03 862.78,-125.74 862.93,-118.75"/>
</a>
</g>
</g>
</g>
</svg>
