<?xml version="1.0" encoding="UTF-8" standalone="no"?>
<!DOCTYPE svg PUBLIC "-//W3C//DTD SVG 1.1//EN"
 "http://www.w3.org/Graphics/SVG/1.1/DTD/svg11.dtd">
<!-- Generated by graphviz version 14.1.2 (20260124.0452)
 -->
<!-- Title: core/include/Optimist/TestSet.hh Pages: 1 -->
<svg width="1662pt" height="271pt"
 viewBox="0.00 0.00 1662.00 271.00" xmlns="http://www.w3.org/2000/svg" xmlns:xlink="http://www.w3.org/1999/xlink">
<g id="graph0" class="graph" transform="scale(1 1) rotate(0) translate(4 266.75)">
<title>core/include/Optimist/TestSet.hh</title>
<!-- Node1 -->
<g id="Node000001" class="node">
<title>Node1</title>
<g id="a_Node000001"><a xlink:title=" ">
<polygon fill="#999999" stroke="#666666" points="851.88,-262.75 743.62,-262.75 743.62,-232.25 851.88,-232.25 851.88,-262.75"/>
<text xml:space="preserve" text-anchor="start" x="751.62" y="-249.25" font-family="Helvetica,sans-Serif" font-size="10.00">core/include/Optimist</text>
<text xml:space="preserve" text-anchor="middle" x="797.75" y="-238" font-family="Helvetica,sans-Serif" font-size="10.00">/TestSet.hh</text>
</a>
</g>
</g>
<!-- Node2 -->
<g id="Node000002" class="node">
<title>Node2</title>
<g id="a_Node000002"><a xlink:href="_booth_8hh.html" target="_top" xlink:title=" ">
<polygon fill="white" stroke="#666666" points="131.5,-190.62 0,-190.62 0,-171.38 131.5,-171.38 131.5,-190.62"/>
<text xml:space="preserve" text-anchor="middle" x="65.75" y="-177.12" font-family="Helvetica,sans-Serif" font-size="10.00">Optimist/TestSet/Booth.hh</text>
</a>
</g>
</g>
<!-- Node1&#45;&gt;Node2 -->
<g id="edge1_Node000001_Node000002" class="edge">
<title>Node1&#45;&gt;Node2</title>
<g id="a_edge1_Node000001_Node000002"><a xlink:title=" ">
<path fill="none" stroke="#63b8ff" d="M743.46,-244.4C630.74,-239.58 363.3,-225.81 140.75,-196.25 134.18,-195.38 127.33,-194.3 120.54,-193.14"/>
<polygon fill="#63b8ff" stroke="#63b8ff" points="121.19,-189.7 110.73,-191.38 119.96,-196.59 121.19,-189.7"/>
</a>
</g>
</g>
<!-- Node20 -->
<g id="Node000020" class="node">
<title>Node20</title>
<g id="a_Node000020"><a xlink:href="_brown_8hh.html" target="_top" xlink:title=" ">
<polygon fill="white" stroke="#666666" points="283.62,-190.62 149.88,-190.62 149.88,-171.38 283.62,-171.38 283.62,-190.62"/>
<text xml:space="preserve" text-anchor="middle" x="216.75" y="-177.12" font-family="Helvetica,sans-Serif" font-size="10.00">Optimist/TestSet/Brown.hh</text>
</a>
</g>
</g>
<!-- Node1&#45;&gt;Node20 -->
<g id="edge19_Node000001_Node000020" class="edge">
<title>Node1&#45;&gt;Node20</title>
<g id="a_edge19_Node000001_Node000020"><a xlink:title=" ">
<path fill="none" stroke="#63b8ff" d="M743.38,-242.64C650.65,-235.7 456.06,-219.64 292.75,-196.25 286.28,-195.32 279.52,-194.23 272.82,-193.08"/>
<polygon fill="#63b8ff" stroke="#63b8ff" points="273.6,-189.66 263.14,-191.35 272.37,-196.55 273.6,-189.66"/>
</a>
</g>
</g>
<!-- Node21 -->
<g id="Node000021" class="node">
<title>Node21</title>
<g id="a_Node000021"><a xlink:href="_cos_8hh.html" target="_top" xlink:title=" ">
<polygon fill="white" stroke="#666666" points="425.75,-190.62 301.75,-190.62 301.75,-171.38 425.75,-171.38 425.75,-190.62"/>
<text xml:space="preserve" text-anchor="middle" x="363.75" y="-177.12" font-family="Helvetica,sans-Serif" font-size="10.00">Optimist/TestSet/Cos.hh</text>
</a>
</g>
</g>
<!-- Node1&#45;&gt;Node21 -->
<g id="edge21_Node000001_Node000021" class="edge">
<title>Node1&#45;&gt;Node21</title>
<g id="a_edge21_Node000001_Node000021"><a xlink:title=" ">
<path fill="none" stroke="#63b8ff" d="M743.17,-239.99C672,-231.26 543.74,-214.71 434.75,-196.25 429.24,-195.32 423.49,-194.28 417.77,-193.2"/>
<polygon fill="#63b8ff" stroke="#63b8ff" points="418.82,-189.83 408.34,-191.37 417.49,-196.71 418.82,-189.83"/>
</a>
</g>
</g>
<!-- Node22 -->
<g id="Node000022" class="node">
<title>Node22</title>
<g id="a_Node000022"><a xlink:href="_cosh_8hh.html" target="_top" xlink:title=" ">
<polygon fill="white" stroke="#666666" points="573.38,-190.62 444.12,-190.62 444.12,-171.38 573.38,-171.38 573.38,-190.62"/>
<text xml:space="preserve" text-anchor="middle" x="508.75" y="-177.12" font-family="Helvetica,sans-Serif" font-size="10.00">Optimist/TestSet/Cosh.hh</text>
</a>
</g>
</g>
<!-- Node1&#45;&gt;Node22 -->
<g id="edge23_Node000001_Node000022" class="edge">
<title>Node1&#45;&gt;Node22</title>
<g id="a_edge23_Node000001_Node000022"><a xlink:title=" ">
<path fill="none" stroke="#63b8ff" d="M743.39,-234.37C690.95,-222.66 612.13,-205.07 560.56,-193.56"/>
<polygon fill="#63b8ff" stroke="#63b8ff" points="561.35,-190.15 550.83,-191.39 559.83,-196.99 561.35,-190.15"/>
</a>
</g>
</g>
<!-- Node23 -->
<g id="Node000023" class="node">
<title>Node23</title>
<g id="a_Node000023"><a xlink:href="_elliptic_paraboloid_8hh.html" target="_top" xlink:title=" ">
<polygon fill="white" stroke="#666666" points="713.62,-196.25 591.88,-196.25 591.88,-165.75 713.62,-165.75 713.62,-196.25"/>
<text xml:space="preserve" text-anchor="start" x="599.88" y="-182.75" font-family="Helvetica,sans-Serif" font-size="10.00">Optimist/TestSet/Elliptic</text>
<text xml:space="preserve" text-anchor="middle" x="652.75" y="-171.5" font-family="Helvetica,sans-Serif" font-size="10.00">Paraboloid.hh</text>
</a>
</g>
</g>
<!-- Node1&#45;&gt;Node23 -->
<g id="edge25_Node000001_Node000023" class="edge">
<title>Node1&#45;&gt;Node23</title>
<g id="a_edge25_Node000001_Node000023"><a xlink:title=" ">
<path fill="none" stroke="#63b8ff" d="M764.85,-231.86C744.53,-222.82 718.22,-211.12 696.19,-201.33"/>
<polygon fill="#63b8ff" stroke="#63b8ff" points="697.72,-198.17 687.16,-197.3 694.87,-204.57 697.72,-198.17"/>
</a>
</g>
</g>
<!-- Node24 -->
<g id="Node000024" class="node">
<title>Node24</title>
<g id="a_Node000024"><a xlink:href="_linear_8hh.html" target="_top" xlink:title=" ">
<polygon fill="white" stroke="#666666" points="863.5,-190.62 732,-190.62 732,-171.38 863.5,-171.38 863.5,-190.62"/>
<text xml:space="preserve" text-anchor="middle" x="797.75" y="-177.12" font-family="Helvetica,sans-Serif" font-size="10.00">Optimist/TestSet/Linear.hh</text>
</a>
</g>
</g>
<!-- Node1&#45;&gt;Node24 -->
<g id="edge27_Node000001_Node000024" class="edge">
<title>Node1&#45;&gt;Node24</title>
<g id="a_edge27_Node000001_Node000024"><a xlink:title=" ">
<path fill="none" stroke="#63b8ff" d="M797.75,-231.86C797.75,-223.08 797.75,-211.77 797.75,-202.15"/>
<polygon fill="#63b8ff" stroke="#63b8ff" points="801.25,-202.34 797.75,-192.34 794.25,-202.34 801.25,-202.34"/>
</a>
</g>
</g>
<!-- Node25 -->
<g id="Node000025" class="node">
<title>Node25</title>
<g id="a_Node000025"><a xlink:href="_quadratic_8hh.html" target="_top" xlink:title=" ">
<polygon fill="white" stroke="#666666" points="1029.75,-190.62 881.75,-190.62 881.75,-171.38 1029.75,-171.38 1029.75,-190.62"/>
<text xml:space="preserve" text-anchor="middle" x="955.75" y="-177.12" font-family="Helvetica,sans-Serif" font-size="10.00">Optimist/TestSet/Quadratic.hh</text>
</a>
</g>
</g>
<!-- Node1&#45;&gt;Node25 -->
<g id="edge29_Node000001_Node000025" class="edge">
<title>Node1&#45;&gt;Node25</title>
<g id="a_edge29_Node000001_Node000025"><a xlink:title=" ">
<path fill="none" stroke="#63b8ff" d="M833.6,-231.86C860.53,-220.87 897.11,-205.94 923.2,-195.29"/>
<polygon fill="#63b8ff" stroke="#63b8ff" points="924.34,-198.6 932.28,-191.58 921.7,-192.12 924.34,-198.6"/>
</a>
</g>
</g>
<!-- Node26 -->
<g id="Node000026" class="node">
<title>Node26</title>
<g id="a_Node000026"><a xlink:href="_rosenbrock_8hh.html" target="_top" xlink:title=" ">
<polygon fill="white" stroke="#666666" points="1206,-190.62 1047.5,-190.62 1047.5,-171.38 1206,-171.38 1206,-190.62"/>
<text xml:space="preserve" text-anchor="middle" x="1126.75" y="-177.12" font-family="Helvetica,sans-Serif" font-size="10.00">Optimist/TestSet/Rosenbrock.hh</text>
</a>
</g>
</g>
<!-- Node1&#45;&gt;Node26 -->
<g id="edge31_Node000001_Node000026" class="edge">
<title>Node1&#45;&gt;Node26</title>
<g id="a_edge31_Node000001_Node000026"><a xlink:title=" ">
<path fill="none" stroke="#63b8ff" d="M852.08,-235.85C912.04,-224.09 1008.15,-205.25 1069.33,-193.26"/>
<polygon fill="#63b8ff" stroke="#63b8ff" points="1069.7,-196.75 1078.84,-191.39 1068.35,-189.88 1069.7,-196.75"/>
</a>
</g>
</g>
<!-- Node27 -->
<g id="Node000027" class="node">
<title>Node27</title>
<g id="a_Node000027"><a xlink:href="_schaffer2_8hh.html" target="_top" xlink:title=" ">
<polygon fill="white" stroke="#666666" points="1371.75,-190.62 1223.75,-190.62 1223.75,-171.38 1371.75,-171.38 1371.75,-190.62"/>
<text xml:space="preserve" text-anchor="middle" x="1297.75" y="-177.12" font-family="Helvetica,sans-Serif" font-size="10.00">Optimist/TestSet/Schaffer2.hh</text>
</a>
</g>
</g>
<!-- Node1&#45;&gt;Node27 -->
<g id="edge33_Node000001_Node000027" class="edge">
<title>Node1&#45;&gt;Node27</title>
<g id="a_edge33_Node000001_Node000027"><a xlink:title=" ">
<path fill="none" stroke="#63b8ff" d="M852.18,-240.82C931.9,-232.3 1085.05,-215.19 1214.75,-196.25 1221.68,-195.24 1228.92,-194.11 1236.12,-192.93"/>
<polygon fill="#63b8ff" stroke="#63b8ff" points="1236.55,-196.41 1245.85,-191.32 1235.41,-189.5 1236.55,-196.41"/>
</a>
</g>
</g>
<!-- Node28 -->
<g id="Node000028" class="node">
<title>Node28</title>
<g id="a_Node000028"><a xlink:href="_sin_8hh.html" target="_top" xlink:title=" ">
<polygon fill="white" stroke="#666666" points="1509.88,-190.62 1389.62,-190.62 1389.62,-171.38 1509.88,-171.38 1509.88,-190.62"/>
<text xml:space="preserve" text-anchor="middle" x="1449.75" y="-177.12" font-family="Helvetica,sans-Serif" font-size="10.00">Optimist/TestSet/Sin.hh</text>
</a>
</g>
</g>
<!-- Node1&#45;&gt;Node28 -->
<g id="edge35_Node000001_Node000028" class="edge">
<title>Node1&#45;&gt;Node28</title>
<g id="a_edge35_Node000001_Node000028"><a xlink:title=" ">
<path fill="none" stroke="#63b8ff" d="M852.25,-243.95C955.7,-238.63 1187.49,-224.44 1380.75,-196.25 1386.65,-195.39 1392.81,-194.34 1398.91,-193.2"/>
<polygon fill="#63b8ff" stroke="#63b8ff" points="1399.12,-196.73 1408.27,-191.38 1397.79,-189.86 1399.12,-196.73"/>
</a>
</g>
</g>
<!-- Node29 -->
<g id="Node000029" class="node">
<title>Node29</title>
<g id="a_Node000029"><a xlink:href="_sinh_8hh.html" target="_top" xlink:title=" ">
<polygon fill="white" stroke="#666666" points="1653.5,-190.62 1528,-190.62 1528,-171.38 1653.5,-171.38 1653.5,-190.62"/>
<text xml:space="preserve" text-anchor="middle" x="1590.75" y="-177.12" font-family="Helvetica,sans-Serif" font-size="10.00">Optimist/TestSet/Sinh.hh</text>
</a>
</g>
</g>
<!-- Node1&#45;&gt;Node29 -->
<g id="edge37_Node000001_Node000029" class="edge">
<title>Node1&#45;&gt;Node29</title>
<g id="a_edge37_Node000001_Node000029"><a xlink:title=" ">
<path fill="none" stroke="#63b8ff" d="M852.25,-245.04C972.86,-241.3 1271.24,-229.24 1518.75,-196.25 1525.14,-195.4 1531.82,-194.33 1538.42,-193.15"/>
<polygon fill="#63b8ff" stroke="#63b8ff" points="1538.72,-196.66 1547.91,-191.39 1537.44,-189.78 1538.72,-196.66"/>
</a>
</g>
</g>
<!-- Node3 -->
<g id="Node000003" class="node">
<title>Node3</title>
<g id="a_Node000003"><a xlink:href="_function_8hh.html" target="_top" xlink:title=" ">
<polygon fill="white" stroke="#666666" points="851.12,-129.75 744.38,-129.75 744.38,-110.5 851.12,-110.5 851.12,-129.75"/>
<text xml:space="preserve" text-anchor="middle" x="797.75" y="-116.25" font-family="Helvetica,sans-Serif" font-size="10.00">Optimist/Function.hh</text>
</a>
</g>
</g>
<!-- Node2&#45;&gt;Node3 -->
<g id="edge2_Node000002_Node000003" class="edge">
<title>Node2&#45;&gt;Node3</title>
<g id="a_edge2_Node000002_Node000003"><a xlink:title=" ">
<path fill="none" stroke="#63b8ff" d="M108.84,-170.9C119.25,-168.95 130.36,-167.08 140.75,-165.75 356.39,-138.04 614.2,-126.88 732.53,-122.96"/>
<polygon fill="#63b8ff" stroke="#63b8ff" points="732.49,-126.47 742.37,-122.65 732.26,-119.47 732.49,-126.47"/>
</a>
</g>
</g>
<!-- Node4 -->
<g id="Node000004" class="node">
<title>Node4</title>
<g id="a_Node000004"><a xlink:href="_optimist_8hh.html" target="_top" xlink:title=" ">
<polygon fill="white" stroke="#666666" points="830.88,-74.5 764.62,-74.5 764.62,-55.25 830.88,-55.25 830.88,-74.5"/>
<text xml:space="preserve" text-anchor="middle" x="797.75" y="-61" font-family="Helvetica,sans-Serif" font-size="10.00">Optimist.hh</text>
</a>
</g>
</g>
<!-- Node3&#45;&gt;Node4 -->
<g id="edge3_Node000003_Node000004" class="edge">
<title>Node3&#45;&gt;Node4</title>
<g id="a_edge3_Node000003_Node000004"><a xlink:title=" ">
<path fill="none" stroke="#63b8ff" d="M797.75,-110.33C797.75,-103.82 797.75,-94.67 797.75,-86.37"/>
<polygon fill="#63b8ff" stroke="#63b8ff" points="801.25,-86.37 797.75,-76.37 794.25,-86.37 801.25,-86.37"/>
</a>
</g>
</g>
<!-- Node5 -->
<g id="Node000005" class="node">
<title>Node5</title>
<g id="a_Node000005"><a xlink:title=" ">
<polygon fill="#e0e0e0" stroke="#999999" points="398.62,-19.25 342.88,-19.25 342.88,0 398.62,0 398.62,-19.25"/>
<text xml:space="preserve" text-anchor="middle" x="370.75" y="-5.75" font-family="Helvetica,sans-Serif" font-size="10.00">algorithm</text>
</a>
</g>
</g>
<!-- Node4&#45;&gt;Node5 -->
<g id="edge4_Node000004_Node000005" class="edge">
<title>Node4&#45;&gt;Node5</title>
<g id="a_edge4_Node000004_Node000005"><a xlink:title=" ">
<path fill="none" stroke="#63b8ff" d="M764.34,-61.44C698.34,-56.33 546.42,-43.12 410.03,-19.66"/>
<polygon fill="#63b8ff" stroke="#63b8ff" points="410.92,-16.26 400.47,-17.99 409.72,-23.16 410.92,-16.26"/>
</a>
</g>
</g>
<!-- Node6 -->
<g id="Node000006" class="node">
<title>Node6</title>
<g id="a_Node000006"><a xlink:title=" ">
<polygon fill="#e0e0e0" stroke="#999999" points="459.25,-19.25 416.25,-19.25 416.25,0 459.25,0 459.25,-19.25"/>
<text xml:space="preserve" text-anchor="middle" x="437.75" y="-5.75" font-family="Helvetica,sans-Serif" font-size="10.00">cmath</text>
</a>
</g>
</g>
<!-- Node4&#45;&gt;Node6 -->
<g id="edge5_Node000004_Node000006" class="edge">
<title>Node4&#45;&gt;Node6</title>
<g id="a_edge5_Node000004_Node000006"><a xlink:title=" ">
<path fill="none" stroke="#63b8ff" d="M764.22,-60.97C706.2,-55.59 583.23,-42.66 470.81,-19.64"/>
<polygon fill="#63b8ff" stroke="#63b8ff" points="471.6,-16.23 461.09,-17.62 470.17,-23.08 471.6,-16.23"/>
</a>
</g>
</g>
<!-- Node7 -->
<g id="Node000007" class="node">
<title>Node7</title>
<g id="a_Node000007"><a xlink:title=" ">
<polygon fill="#e0e0e0" stroke="#999999" points="526.62,-19.25 476.88,-19.25 476.88,0 526.62,0 526.62,-19.25"/>
<text xml:space="preserve" text-anchor="middle" x="501.75" y="-5.75" font-family="Helvetica,sans-Serif" font-size="10.00">iomanip</text>
</a>
</g>
</g>
<!-- Node4&#45;&gt;Node7 -->
<g id="edge6_Node000004_Node000007" class="edge">
<title>Node4&#45;&gt;Node7</title>
<g id="a_edge6_Node000004_Node000007"><a xlink:title=" ">
<path fill="none" stroke="#63b8ff" d="M764.5,-59.08C716.64,-51.99 625.34,-37.77 538.12,-19.61"/>
<polygon fill="#63b8ff" stroke="#63b8ff" points="538.94,-16.2 528.43,-17.57 537.49,-23.05 538.94,-16.2"/>
</a>
</g>
</g>
<!-- Node8 -->
<g id="Node000008" class="node">
<title>Node8</title>
<g id="a_Node000008"><a xlink:title=" ">
<polygon fill="#e0e0e0" stroke="#999999" points="573.15,-19.25 544.35,-19.25 544.35,0 573.15,0 573.15,-19.25"/>
<text xml:space="preserve" text-anchor="middle" x="558.75" y="-5.75" font-family="Helvetica,sans-Serif" font-size="10.00">ios</text>
</a>
</g>
</g>
<!-- Node4&#45;&gt;Node8 -->
<g id="edge7_Node000004_Node000008" class="edge">
<title>Node4&#45;&gt;Node8</title>
<g id="a_edge7_Node000004_Node000008"><a xlink:title=" ">
<path fill="none" stroke="#63b8ff" d="M764.43,-58.64C723.83,-51.91 653.05,-39.03 584.26,-19.62"/>
<polygon fill="#63b8ff" stroke="#63b8ff" points="585.27,-16.27 574.69,-16.86 583.33,-22.99 585.27,-16.27"/>
</a>
</g>
</g>
<!-- Node9 -->
<g id="Node000009" class="node">
<title>Node9</title>
<g id="a_Node000009"><a xlink:title=" ">
<polygon fill="#e0e0e0" stroke="#999999" points="644.5,-19.25 591,-19.25 591,0 644.5,0 644.5,-19.25"/>
<text xml:space="preserve" text-anchor="middle" x="617.75" y="-5.75" font-family="Helvetica,sans-Serif" font-size="10.00">iostream</text>
</a>
</g>
</g>
<!-- Node4&#45;&gt;Node9 -->
<g id="edge8_Node000004_Node000009" class="edge">
<title>Node4&#45;&gt;Node9</title>
<g id="a_edge8_Node000004_Node000009"><a xlink:title=" ">
<path fill="none" stroke="#63b8ff" d="M767.22,-54.84C736.4,-45.72 688.74,-31.63 655.55,-21.81"/>
<polygon fill="#63b8ff" stroke="#63b8ff" points="656.93,-18.57 646.35,-19.08 654.94,-25.28 656.93,-18.57"/>
</a>
</g>
</g>
<!-- Node10 -->
<g id="Node000010" class="node">
<title>Node10</title>
<g id="a_Node000010"><a xlink:title=" ">
<polygon fill="#e0e0e0" stroke="#999999" points="701.38,-19.25 662.12,-19.25 662.12,0 701.38,0 701.38,-19.25"/>
<text xml:space="preserve" text-anchor="middle" x="681.75" y="-5.75" font-family="Helvetica,sans-Serif" font-size="10.00">limits</text>
</a>
</g>
</g>
<!-- Node4&#45;&gt;Node10 -->
<g id="edge9_Node000004_Node000010" class="edge">
<title>Node4&#45;&gt;Node10</title>
<g id="a_edge9_Node000004_Node000010"><a xlink:title=" ">
<path fill="none" stroke="#63b8ff" d="M778.07,-54.84C759.91,-46.5 732.67,-34 711.78,-24.41"/>
<polygon fill="#63b8ff" stroke="#63b8ff" points="713.45,-21.33 702.9,-20.33 710.53,-27.69 713.45,-21.33"/>
</a>
</g>
</g>
<!-- Node11 -->
<g id="Node000011" class="node">
<title>Node11</title>
<g id="a_Node000011"><a xlink:title=" ">
<polygon fill="#e0e0e0" stroke="#999999" points="754.12,-19.25 719.38,-19.25 719.38,0 754.12,0 754.12,-19.25"/>
<text xml:space="preserve" text-anchor="middle" x="736.75" y="-5.75" font-family="Helvetica,sans-Serif" font-size="10.00">map</text>
</a>
</g>
</g>
<!-- Node4&#45;&gt;Node11 -->
<g id="edge10_Node000004_Node000011" class="edge">
<title>Node4&#45;&gt;Node11</title>
<g id="a_edge10_Node000004_Node000011"><a xlink:title=" ">
<path fill="none" stroke="#63b8ff" d="M787.4,-54.84C778.67,-47.22 765.96,-36.12 755.45,-26.95"/>
<polygon fill="#63b8ff" stroke="#63b8ff" points="757.92,-24.46 748.09,-20.52 753.32,-29.73 757.92,-24.46"/>
</a>
</g>
</g>
<!-- Node12 -->
<g id="Node000012" class="node">
<title>Node12</title>
<g id="a_Node000012"><a xlink:title=" ">
<polygon fill="#e0e0e0" stroke="#999999" points="823.38,-19.25 772.12,-19.25 772.12,0 823.38,0 823.38,-19.25"/>
<text xml:space="preserve" text-anchor="middle" x="797.75" y="-5.75" font-family="Helvetica,sans-Serif" font-size="10.00">memory</text>
</a>
</g>
</g>
<!-- Node4&#45;&gt;Node12 -->
<g id="edge11_Node000004_Node000012" class="edge">
<title>Node4&#45;&gt;Node12</title>
<g id="a_edge11_Node000004_Node000012"><a xlink:title=" ">
<path fill="none" stroke="#63b8ff" d="M797.75,-55.08C797.75,-48.57 797.75,-39.42 797.75,-31.12"/>
<polygon fill="#63b8ff" stroke="#63b8ff" points="801.25,-31.12 797.75,-21.12 794.25,-31.12 801.25,-31.12"/>
</a>
</g>
</g>
<!-- Node13 -->
<g id="Node000013" class="node">
<title>Node13</title>
<g id="a_Node000013"><a xlink:title=" ">
<polygon fill="#e0e0e0" stroke="#999999" points="892,-19.25 841.5,-19.25 841.5,0 892,0 892,-19.25"/>
<text xml:space="preserve" text-anchor="middle" x="866.75" y="-5.75" font-family="Helvetica,sans-Serif" font-size="10.00">numeric</text>
</a>
</g>
</g>
<!-- Node4&#45;&gt;Node13 -->
<g id="edge12_Node000004_Node000013" class="edge">
<title>Node4&#45;&gt;Node13</title>
<g id="a_edge12_Node000004_Node000013"><a xlink:title=" ">
<path fill="none" stroke="#63b8ff" d="M809.45,-54.84C819.53,-47.07 834.29,-35.67 846.31,-26.4"/>
<polygon fill="#63b8ff" stroke="#63b8ff" points="848.24,-29.33 854.02,-20.45 843.96,-23.79 848.24,-29.33"/>
</a>
</g>
</g>
<!-- Node14 -->
<g id="Node000014" class="node">
<title>Node14</title>
<g id="a_Node000014"><a xlink:title=" ">
<polygon fill="#e0e0e0" stroke="#999999" points="949.75,-19.25 909.75,-19.25 909.75,0 949.75,0 949.75,-19.25"/>
<text xml:space="preserve" text-anchor="middle" x="929.75" y="-5.75" font-family="Helvetica,sans-Serif" font-size="10.00">string</text>
</a>
</g>
</g>
<!-- Node4&#45;&gt;Node14 -->
<g id="edge13_Node000004_Node000014" class="edge">
<title>Node4&#45;&gt;Node14</title>
<g id="a_edge13_Node000004_Node000014"><a xlink:title=" ">
<path fill="none" stroke="#63b8ff" d="M820.14,-54.84C841.83,-46.09 874.89,-32.76 899.03,-23.02"/>
<polygon fill="#63b8ff" stroke="#63b8ff" points="900.05,-26.38 908.02,-19.39 897.43,-19.89 900.05,-26.38"/>
</a>
</g>
</g>
<!-- Node15 -->
<g id="Node000015" class="node">
<title>Node15</title>
<g id="a_Node000015"><a xlink:title=" ">
<polygon fill="#e0e0e0" stroke="#999999" points="1029.62,-19.25 967.88,-19.25 967.88,0 1029.62,0 1029.62,-19.25"/>
<text xml:space="preserve" text-anchor="middle" x="998.75" y="-5.75" font-family="Helvetica,sans-Serif" font-size="10.00">type_traits</text>
</a>
</g>
</g>
<!-- Node4&#45;&gt;Node15 -->
<g id="edge14_Node000004_Node000015" class="edge">
<title>Node4&#45;&gt;Node15</title>
<g id="a_edge14_Node000004_Node000015"><a xlink:title=" ">
<path fill="none" stroke="#63b8ff" d="M830.94,-55.08C865.3,-45.98 919.08,-31.73 956.46,-21.83"/>
<polygon fill="#63b8ff" stroke="#63b8ff" points="957.26,-25.24 966.03,-19.29 955.47,-18.47 957.26,-25.24"/>
</a>
</g>
</g>
<!-- Node16 -->
<g id="Node000016" class="node">
<title>Node16</title>
<g id="a_Node000016"><a xlink:title=" ">
<polygon fill="#e0e0e0" stroke="#999999" points="1090.25,-19.25 1047.25,-19.25 1047.25,0 1090.25,0 1090.25,-19.25"/>
<text xml:space="preserve" text-anchor="middle" x="1068.75" y="-5.75" font-family="Helvetica,sans-Serif" font-size="10.00">vector</text>
</a>
</g>
</g>
<!-- Node4&#45;&gt;Node16 -->
<g id="edge15_Node000004_Node000016" class="edge">
<title>Node4&#45;&gt;Node16</title>
<g id="a_edge15_Node000004_Node000016"><a xlink:title=" ">
<path fill="none" stroke="#63b8ff" d="M831.1,-58.75C875.71,-51.67 957.46,-37.89 1035.83,-19.77"/>
<polygon fill="#63b8ff" stroke="#63b8ff" points="1036.45,-23.22 1045.39,-17.53 1034.85,-16.4 1036.45,-23.22"/>
</a>
</g>
</g>
<!-- Node17 -->
<g id="Node000017" class="node">
<title>Node17</title>
<g id="a_Node000017"><a xlink:title=" ">
<polygon fill="#e0e0e0" stroke="#999999" points="1180.88,-19.25 1108.62,-19.25 1108.62,0 1180.88,0 1180.88,-19.25"/>
<text xml:space="preserve" text-anchor="middle" x="1144.75" y="-5.75" font-family="Helvetica,sans-Serif" font-size="10.00">Eigen/Dense</text>
</a>
</g>
</g>
<!-- Node4&#45;&gt;Node17 -->
<g id="edge16_Node000004_Node000017" class="edge">
<title>Node4&#45;&gt;Node17</title>
<g id="a_edge16_Node000004_Node000017"><a xlink:title=" ">
<path fill="none" stroke="#63b8ff" d="M831.34,-59.39C885.21,-52.09 994.52,-36.86 1097.23,-19.62"/>
<polygon fill="#63b8ff" stroke="#63b8ff" points="1097.66,-23.09 1106.93,-17.98 1096.49,-16.19 1097.66,-23.09"/>
</a>
</g>
</g>
<!-- Node18 -->
<g id="Node000018" class="node">
<title>Node18</title>
<g id="a_Node000018"><a xlink:title=" ">
<polygon fill="#e0e0e0" stroke="#999999" points="1273,-19.25 1198.5,-19.25 1198.5,0 1273,0 1273,-19.25"/>
<text xml:space="preserve" text-anchor="middle" x="1235.75" y="-5.75" font-family="Helvetica,sans-Serif" font-size="10.00">Eigen/Sparse</text>
</a>
</g>
</g>
<!-- Node4&#45;&gt;Node18 -->
<g id="edge17_Node000004_Node000018" class="edge">
<title>Node4&#45;&gt;Node18</title>
<g id="a_edge17_Node000004_Node000018"><a xlink:title=" ">
<path fill="none" stroke="#63b8ff" d="M831.16,-60.89C897.17,-54.82 1049.2,-39.96 1186.97,-19.57"/>
<polygon fill="#63b8ff" stroke="#63b8ff" points="1187.26,-23.07 1196.63,-18.13 1186.23,-16.15 1187.26,-23.07"/>
</a>
</g>
</g>
<!-- Node19 -->
<g id="Node000019" class="node">
<title>Node19</title>
<g id="a_Node000019"><a xlink:title=" ">
<polygon fill="#e0e0e0" stroke="#999999" points="1378.38,-19.25 1291.12,-19.25 1291.12,0 1378.38,0 1378.38,-19.25"/>
<text xml:space="preserve" text-anchor="middle" x="1334.75" y="-5.75" font-family="Helvetica,sans-Serif" font-size="10.00">Eigen/SparseLU</text>
</a>
</g>
</g>
<!-- Node4&#45;&gt;Node19 -->
<g id="edge18_Node000004_Node000019" class="edge">
<title>Node4&#45;&gt;Node19</title>
<g id="a_edge18_Node000004_Node000019"><a xlink:title=" ">
<path fill="none" stroke="#63b8ff" d="M831.28,-61.59C908.42,-56.16 1104.61,-41.36 1279.6,-19.43"/>
<polygon fill="#63b8ff" stroke="#63b8ff" points="1279.84,-22.93 1289.32,-18.2 1278.96,-15.99 1279.84,-22.93"/>
</a>
</g>
</g>
<!-- Node20&#45;&gt;Node3 -->
<g id="edge20_Node000020_Node000003" class="edge">
<title>Node20&#45;&gt;Node3</title>
<g id="a_edge20_Node000020_Node000003"><a xlink:title=" ">
<path fill="none" stroke="#63b8ff" d="M261.24,-170.91C271.55,-169.01 282.51,-167.16 292.75,-165.75 450.06,-144.1 636.46,-130.8 732.82,-124.84"/>
<polygon fill="#63b8ff" stroke="#63b8ff" points="732.84,-128.34 742.6,-124.24 732.41,-121.36 732.84,-128.34"/>
</a>
</g>
</g>
<!-- Node21&#45;&gt;Node3 -->
<g id="edge22_Node000021_Node000003" class="edge">
<title>Node21&#45;&gt;Node3</title>
<g id="a_edge22_Node000021_Node000003"><a xlink:title=" ">
<path fill="none" stroke="#63b8ff" d="M406.46,-170.88C415.76,-169.05 425.57,-167.23 434.75,-165.75 538.58,-148.97 660.01,-135.22 732.81,-127.61"/>
<polygon fill="#63b8ff" stroke="#63b8ff" points="732.97,-131.11 742.56,-126.6 732.25,-124.15 732.97,-131.11"/>
</a>
</g>
</g>
<!-- Node22&#45;&gt;Node3 -->
<g id="edge24_Node000022_Node000003" class="edge">
<title>Node22&#45;&gt;Node3</title>
<g id="a_edge24_Node000022_Node000003"><a xlink:title=" ">
<path fill="none" stroke="#63b8ff" d="M553.27,-170.93C604.08,-160.58 687.23,-143.64 742.23,-132.44"/>
<polygon fill="#63b8ff" stroke="#63b8ff" points="742.59,-135.93 751.69,-130.51 741.2,-129.07 742.59,-135.93"/>
</a>
</g>
</g>
<!-- Node23&#45;&gt;Node3 -->
<g id="edge26_Node000023_Node000003" class="edge">
<title>Node23&#45;&gt;Node3</title>
<g id="a_edge26_Node000023_Node000003"><a xlink:title=" ">
<path fill="none" stroke="#63b8ff" d="M688.97,-165.3C712.32,-155.81 742.45,-143.58 765.07,-134.39"/>
<polygon fill="#63b8ff" stroke="#63b8ff" points="766.16,-137.73 774.11,-130.72 763.53,-131.24 766.16,-137.73"/>
</a>
</g>
</g>
<!-- Node24&#45;&gt;Node3 -->
<g id="edge28_Node000024_Node000003" class="edge">
<title>Node24&#45;&gt;Node3</title>
<g id="a_edge28_Node000024_Node000003"><a xlink:title=" ">
<path fill="none" stroke="#63b8ff" d="M797.75,-171.06C797.75,-163.28 797.75,-151.7 797.75,-141.66"/>
<polygon fill="#63b8ff" stroke="#63b8ff" points="801.25,-141.66 797.75,-131.66 794.25,-141.66 801.25,-141.66"/>
</a>
</g>
</g>
<!-- Node25&#45;&gt;Node3 -->
<g id="edge30_Node000025_Node000003" class="edge">
<title>Node25&#45;&gt;Node3</title>
<g id="a_edge30_Node000025_Node000003"><a xlink:title=" ">
<path fill="none" stroke="#63b8ff" d="M931.41,-170.93C904.97,-161.08 862.5,-145.25 832.54,-134.09"/>
<polygon fill="#63b8ff" stroke="#63b8ff" points="834.13,-130.95 823.54,-130.73 831.69,-137.51 834.13,-130.95"/>
</a>
</g>
</g>
<!-- Node26&#45;&gt;Node3 -->
<g id="edge32_Node000026_Node000003" class="edge">
<title>Node26&#45;&gt;Node3</title>
<g id="a_edge32_Node000026_Node000003"><a xlink:title=" ">
<path fill="none" stroke="#63b8ff" d="M1076.06,-170.93C1017.86,-160.51 922.37,-143.43 859.78,-132.23"/>
<polygon fill="#63b8ff" stroke="#63b8ff" points="860.44,-128.79 849.98,-130.47 859.21,-135.68 860.44,-128.79"/>
</a>
</g>
</g>
<!-- Node27&#45;&gt;Node3 -->
<g id="edge34_Node000027_Node000003" class="edge">
<title>Node27&#45;&gt;Node3</title>
<g id="a_edge34_Node000027_Node000003"><a xlink:title=" ">
<path fill="none" stroke="#63b8ff" d="M1247.79,-170.9C1236.92,-169.06 1225.47,-167.24 1214.75,-165.75 1090.73,-148.49 945.15,-134.28 862.95,-126.81"/>
<polygon fill="#63b8ff" stroke="#63b8ff" points="863.31,-123.33 853.04,-125.92 862.68,-130.3 863.31,-123.33"/>
</a>
</g>
</g>
<!-- Node28&#45;&gt;Node3 -->
<g id="edge36_Node000028_Node000003" class="edge">
<title>Node28&#45;&gt;Node3</title>
<g id="a_edge36_Node000028_Node000003"><a xlink:title=" ">
<path fill="none" stroke="#63b8ff" d="M1410.13,-170.92C1400.55,-168.97 1390.32,-167.1 1380.75,-165.75 1193.81,-139.4 970.81,-127.78 862.79,-123.4"/>
<polygon fill="#63b8ff" stroke="#63b8ff" points="863.09,-119.91 852.96,-123.01 862.81,-126.9 863.09,-119.91"/>
</a>
</g>
</g>
<!-- Node29&#45;&gt;Node3 -->
<g id="edge38_Node000029_Node000003" class="edge">
<title>Node29&#45;&gt;Node3</title>
<g id="a_edge38_Node000029_Node000003"><a xlink:title=" ">
<path fill="none" stroke="#63b8ff" d="M1549.78,-170.91C1539.68,-168.94 1528.86,-167.06 1518.75,-165.75 1278.13,-134.63 989.43,-125.06 862.73,-122.24"/>
<polygon fill="#63b8ff" stroke="#63b8ff" points="862.93,-118.75 852.86,-122.03 862.78,-125.74 862.93,-118.75"/>
</a>
</g>
</g>
</g>
</svg>
