<?xml version="1.0" encoding="UTF-8" standalone="no"?>
<!DOCTYPE svg PUBLIC "-//W3C//DTD SVG 1.1//EN"
 "http://www.w3.org/Graphics/SVG/1.1/DTD/svg11.dtd">
<!-- Generated by graphviz version 14.1.2 (20260124.0452)
 -->
<!-- Title: core/include/Optimist/RootFinder/Varona.hh Pages: 1 -->
<svg width="1044pt" height="315pt"
 viewBox="0.00 0.00 1044.00 315.00" xmlns="http://www.w3.org/2000/svg" xmlns:xlink="http://www.w3.org/1999/xlink">
<g id="graph0" class="graph" transform="scale(1 1) rotate(0) translate(4 310.75)">
<title>core/include/Optimist/RootFinder/Varona.hh</title>
<!-- Node1 -->
<g id="Node000001" class="node">
<title>Node1</title>
<g id="a_Node000001"><a xlink:title=" ">
<polygon fill="#999999" stroke="#666666" points="511.62,-306.75 398.12,-306.75 398.12,-276.25 511.62,-276.25 511.62,-306.75"/>
<text xml:space="preserve" text-anchor="start" x="406.12" y="-293.25" font-family="Helvetica,sans-Serif" font-size="10.00">core/include/Optimist</text>
<text xml:space="preserve" text-anchor="middle" x="454.88" y="-282" font-family="Helvetica,sans-Serif" font-size="10.00">/RootFinder/Varona.hh</text>
</a>
</g>
</g>
<!-- Node2 -->
<g id="Node000002" class="node">
<title>Node2</title>
<g id="a_Node000002"><a xlink:href="_root_finder_8hh.html" target="_top" xlink:title=" ">
<polygon fill="white" stroke="#666666" points="513.12,-240.25 396.62,-240.25 396.62,-221 513.12,-221 513.12,-240.25"/>
<text xml:space="preserve" text-anchor="middle" x="454.88" y="-226.75" font-family="Helvetica,sans-Serif" font-size="10.00">Optimist/RootFinder.hh</text>
</a>
</g>
</g>
<!-- Node1&#45;&gt;Node2 -->
<g id="edge1_Node000001_Node000002" class="edge">
<title>Node1&#45;&gt;Node2</title>
<g id="a_edge1_Node000001_Node000002"><a xlink:title=" ">
<path fill="none" stroke="#63b8ff" d="M454.88,-275.95C454.88,-268.71 454.88,-259.84 454.88,-251.94"/>
<polygon fill="#63b8ff" stroke="#63b8ff" points="458.38,-252.21 454.88,-242.21 451.38,-252.21 458.38,-252.21"/>
</a>
</g>
</g>
<!-- Node3 -->
<g id="Node000003" class="node">
<title>Node3</title>
<g id="a_Node000003"><a xlink:href="_solver_base_8hh.html" target="_top" xlink:title=" ">
<polygon fill="white" stroke="#666666" points="514.62,-185 395.12,-185 395.12,-165.75 514.62,-165.75 514.62,-185"/>
<text xml:space="preserve" text-anchor="middle" x="454.88" y="-171.5" font-family="Helvetica,sans-Serif" font-size="10.00">Optimist/SolverBase.hh</text>
</a>
</g>
</g>
<!-- Node2&#45;&gt;Node3 -->
<g id="edge2_Node000002_Node000003" class="edge">
<title>Node2&#45;&gt;Node3</title>
<g id="a_edge2_Node000002_Node000003"><a xlink:title=" ">
<path fill="none" stroke="#63b8ff" d="M454.88,-220.83C454.88,-214.32 454.88,-205.17 454.88,-196.87"/>
<polygon fill="#63b8ff" stroke="#63b8ff" points="458.38,-196.87 454.88,-186.87 451.38,-196.87 458.38,-196.87"/>
</a>
</g>
</g>
<!-- Node4 -->
<g id="Node000004" class="node">
<title>Node4</title>
<g id="a_Node000004"><a xlink:href="_optimist_8hh.html" target="_top" xlink:title=" ">
<polygon fill="white" stroke="#666666" points="488,-74.5 421.75,-74.5 421.75,-55.25 488,-55.25 488,-74.5"/>
<text xml:space="preserve" text-anchor="middle" x="454.88" y="-61" font-family="Helvetica,sans-Serif" font-size="10.00">Optimist.hh</text>
</a>
</g>
</g>
<!-- Node3&#45;&gt;Node4 -->
<g id="edge3_Node000003_Node000004" class="edge">
<title>Node3&#45;&gt;Node4</title>
<g id="a_edge3_Node000003_Node000004"><a xlink:title=" ">
<path fill="none" stroke="#63b8ff" d="M449.3,-165.57C444.13,-156.86 436.83,-142.95 433.88,-129.75 430.41,-114.24 436.57,-97.17 443.09,-84.57"/>
<polygon fill="#63b8ff" stroke="#63b8ff" points="446,-86.54 447.94,-76.13 439.93,-83.06 446,-86.54"/>
</a>
</g>
</g>
<!-- Node20 -->
<g id="Node000020" class="node">
<title>Node20</title>
<g id="a_Node000020"><a xlink:href="_function_8hh.html" target="_top" xlink:title=" ">
<polygon fill="white" stroke="#666666" points="549.25,-129.75 442.5,-129.75 442.5,-110.5 549.25,-110.5 549.25,-129.75"/>
<text xml:space="preserve" text-anchor="middle" x="495.88" y="-116.25" font-family="Helvetica,sans-Serif" font-size="10.00">Optimist/Function.hh</text>
</a>
</g>
</g>
<!-- Node3&#45;&gt;Node20 -->
<g id="edge19_Node000003_Node000020" class="edge">
<title>Node3&#45;&gt;Node20</title>
<g id="a_edge19_Node000003_Node000020"><a xlink:title=" ">
<path fill="none" stroke="#63b8ff" d="M461.65,-165.58C467.19,-158.38 475.22,-147.96 482.1,-139.01"/>
<polygon fill="#63b8ff" stroke="#63b8ff" points="484.71,-141.37 488.03,-131.31 479.16,-137.1 484.71,-141.37"/>
</a>
</g>
</g>
<!-- Node5 -->
<g id="Node000005" class="node">
<title>Node5</title>
<g id="a_Node000005"><a xlink:title=" ">
<polygon fill="#e0e0e0" stroke="#999999" points="55.75,-19.25 0,-19.25 0,0 55.75,0 55.75,-19.25"/>
<text xml:space="preserve" text-anchor="middle" x="27.88" y="-5.75" font-family="Helvetica,sans-Serif" font-size="10.00">algorithm</text>
</a>
</g>
</g>
<!-- Node4&#45;&gt;Node5 -->
<g id="edge4_Node000004_Node000005" class="edge">
<title>Node4&#45;&gt;Node5</title>
<g id="a_edge4_Node000004_Node000005"><a xlink:title=" ">
<path fill="none" stroke="#63b8ff" d="M421.46,-61.44C355.46,-56.33 203.54,-43.12 67.15,-19.66"/>
<polygon fill="#63b8ff" stroke="#63b8ff" points="68.05,-16.26 57.6,-17.99 66.85,-23.16 68.05,-16.26"/>
</a>
</g>
</g>
<!-- Node6 -->
<g id="Node000006" class="node">
<title>Node6</title>
<g id="a_Node000006"><a xlink:title=" ">
<polygon fill="#e0e0e0" stroke="#999999" points="116.38,-19.25 73.38,-19.25 73.38,0 116.38,0 116.38,-19.25"/>
<text xml:space="preserve" text-anchor="middle" x="94.88" y="-5.75" font-family="Helvetica,sans-Serif" font-size="10.00">cmath</text>
</a>
</g>
</g>
<!-- Node4&#45;&gt;Node6 -->
<g id="edge5_Node000004_Node000006" class="edge">
<title>Node4&#45;&gt;Node6</title>
<g id="a_edge5_Node000004_Node000006"><a xlink:title=" ">
<path fill="none" stroke="#63b8ff" d="M421.34,-60.97C363.33,-55.59 240.35,-42.66 127.93,-19.64"/>
<polygon fill="#63b8ff" stroke="#63b8ff" points="128.72,-16.23 118.22,-17.62 127.29,-23.08 128.72,-16.23"/>
</a>
</g>
</g>
<!-- Node7 -->
<g id="Node000007" class="node">
<title>Node7</title>
<g id="a_Node000007"><a xlink:title=" ">
<polygon fill="#e0e0e0" stroke="#999999" points="183.75,-19.25 134,-19.25 134,0 183.75,0 183.75,-19.25"/>
<text xml:space="preserve" text-anchor="middle" x="158.88" y="-5.75" font-family="Helvetica,sans-Serif" font-size="10.00">iomanip</text>
</a>
</g>
</g>
<!-- Node4&#45;&gt;Node7 -->
<g id="edge6_Node000004_Node000007" class="edge">
<title>Node4&#45;&gt;Node7</title>
<g id="a_edge6_Node000004_Node000007"><a xlink:title=" ">
<path fill="none" stroke="#63b8ff" d="M421.63,-59.08C373.77,-51.99 282.47,-37.77 195.24,-19.61"/>
<polygon fill="#63b8ff" stroke="#63b8ff" points="196.06,-16.2 185.55,-17.57 194.62,-23.05 196.06,-16.2"/>
</a>
</g>
</g>
<!-- Node8 -->
<g id="Node000008" class="node">
<title>Node8</title>
<g id="a_Node000008"><a xlink:title=" ">
<polygon fill="#e0e0e0" stroke="#999999" points="230.28,-19.25 201.47,-19.25 201.47,0 230.28,0 230.28,-19.25"/>
<text xml:space="preserve" text-anchor="middle" x="215.88" y="-5.75" font-family="Helvetica,sans-Serif" font-size="10.00">ios</text>
</a>
</g>
</g>
<!-- Node4&#45;&gt;Node8 -->
<g id="edge7_Node000004_Node000008" class="edge">
<title>Node4&#45;&gt;Node8</title>
<g id="a_edge7_Node000004_Node000008"><a xlink:title=" ">
<path fill="none" stroke="#63b8ff" d="M421.55,-58.64C380.96,-51.91 310.18,-39.03 241.38,-19.62"/>
<polygon fill="#63b8ff" stroke="#63b8ff" points="242.39,-16.27 231.82,-16.86 240.46,-22.99 242.39,-16.27"/>
</a>
</g>
</g>
<!-- Node9 -->
<g id="Node000009" class="node">
<title>Node9</title>
<g id="a_Node000009"><a xlink:title=" ">
<polygon fill="#e0e0e0" stroke="#999999" points="301.62,-19.25 248.12,-19.25 248.12,0 301.62,0 301.62,-19.25"/>
<text xml:space="preserve" text-anchor="middle" x="274.88" y="-5.75" font-family="Helvetica,sans-Serif" font-size="10.00">iostream</text>
</a>
</g>
</g>
<!-- Node4&#45;&gt;Node9 -->
<g id="edge8_Node000004_Node000009" class="edge">
<title>Node4&#45;&gt;Node9</title>
<g id="a_edge8_Node000004_Node000009"><a xlink:title=" ">
<path fill="none" stroke="#63b8ff" d="M424.34,-54.84C393.52,-45.72 345.86,-31.63 312.68,-21.81"/>
<polygon fill="#63b8ff" stroke="#63b8ff" points="314.05,-18.57 303.47,-19.08 312.07,-25.28 314.05,-18.57"/>
</a>
</g>
</g>
<!-- Node10 -->
<g id="Node000010" class="node">
<title>Node10</title>
<g id="a_Node000010"><a xlink:title=" ">
<polygon fill="#e0e0e0" stroke="#999999" points="358.5,-19.25 319.25,-19.25 319.25,0 358.5,0 358.5,-19.25"/>
<text xml:space="preserve" text-anchor="middle" x="338.88" y="-5.75" font-family="Helvetica,sans-Serif" font-size="10.00">limits</text>
</a>
</g>
</g>
<!-- Node4&#45;&gt;Node10 -->
<g id="edge9_Node000004_Node000010" class="edge">
<title>Node4&#45;&gt;Node10</title>
<g id="a_edge9_Node000004_Node000010"><a xlink:title=" ">
<path fill="none" stroke="#63b8ff" d="M435.2,-54.84C417.03,-46.5 389.79,-34 368.91,-24.41"/>
<polygon fill="#63b8ff" stroke="#63b8ff" points="370.57,-21.33 360.02,-20.33 367.65,-27.69 370.57,-21.33"/>
</a>
</g>
</g>
<!-- Node11 -->
<g id="Node000011" class="node">
<title>Node11</title>
<g id="a_Node000011"><a xlink:title=" ">
<polygon fill="#e0e0e0" stroke="#999999" points="411.25,-19.25 376.5,-19.25 376.5,0 411.25,0 411.25,-19.25"/>
<text xml:space="preserve" text-anchor="middle" x="393.88" y="-5.75" font-family="Helvetica,sans-Serif" font-size="10.00">map</text>
</a>
</g>
</g>
<!-- Node4&#45;&gt;Node11 -->
<g id="edge10_Node000004_Node000011" class="edge">
<title>Node4&#45;&gt;Node11</title>
<g id="a_edge10_Node000004_Node000011"><a xlink:title=" ">
<path fill="none" stroke="#63b8ff" d="M444.53,-54.84C435.8,-47.22 423.09,-36.12 412.58,-26.95"/>
<polygon fill="#63b8ff" stroke="#63b8ff" points="415.05,-24.46 405.21,-20.52 410.44,-29.73 415.05,-24.46"/>
</a>
</g>
</g>
<!-- Node12 -->
<g id="Node000012" class="node">
<title>Node12</title>
<g id="a_Node000012"><a xlink:title=" ">
<polygon fill="#e0e0e0" stroke="#999999" points="480.5,-19.25 429.25,-19.25 429.25,0 480.5,0 480.5,-19.25"/>
<text xml:space="preserve" text-anchor="middle" x="454.88" y="-5.75" font-family="Helvetica,sans-Serif" font-size="10.00">memory</text>
</a>
</g>
</g>
<!-- Node4&#45;&gt;Node12 -->
<g id="edge11_Node000004_Node000012" class="edge">
<title>Node4&#45;&gt;Node12</title>
<g id="a_edge11_Node000004_Node000012"><a xlink:title=" ">
<path fill="none" stroke="#63b8ff" d="M454.88,-55.08C454.88,-48.57 454.88,-39.42 454.88,-31.12"/>
<polygon fill="#63b8ff" stroke="#63b8ff" points="458.38,-31.12 454.88,-21.12 451.38,-31.12 458.38,-31.12"/>
</a>
</g>
</g>
<!-- Node13 -->
<g id="Node000013" class="node">
<title>Node13</title>
<g id="a_Node000013"><a xlink:title=" ">
<polygon fill="#e0e0e0" stroke="#999999" points="549.12,-19.25 498.62,-19.25 498.62,0 549.12,0 549.12,-19.25"/>
<text xml:space="preserve" text-anchor="middle" x="523.88" y="-5.75" font-family="Helvetica,sans-Serif" font-size="10.00">numeric</text>
</a>
</g>
</g>
<!-- Node4&#45;&gt;Node13 -->
<g id="edge12_Node000004_Node000013" class="edge">
<title>Node4&#45;&gt;Node13</title>
<g id="a_edge12_Node000004_Node000013"><a xlink:title=" ">
<path fill="none" stroke="#63b8ff" d="M466.58,-54.84C476.65,-47.07 491.42,-35.67 503.44,-26.4"/>
<polygon fill="#63b8ff" stroke="#63b8ff" points="505.37,-29.33 511.14,-20.45 501.09,-23.79 505.37,-29.33"/>
</a>
</g>
</g>
<!-- Node14 -->
<g id="Node000014" class="node">
<title>Node14</title>
<g id="a_Node000014"><a xlink:title=" ">
<polygon fill="#e0e0e0" stroke="#999999" points="606.88,-19.25 566.88,-19.25 566.88,0 606.88,0 606.88,-19.25"/>
<text xml:space="preserve" text-anchor="middle" x="586.88" y="-5.75" font-family="Helvetica,sans-Serif" font-size="10.00">string</text>
</a>
</g>
</g>
<!-- Node4&#45;&gt;Node14 -->
<g id="edge13_Node000004_Node000014" class="edge">
<title>Node4&#45;&gt;Node14</title>
<g id="a_edge13_Node000004_Node000014"><a xlink:title=" ">
<path fill="none" stroke="#63b8ff" d="M477.27,-54.84C498.95,-46.09 532.01,-32.76 556.15,-23.02"/>
<polygon fill="#63b8ff" stroke="#63b8ff" points="557.18,-26.38 565.14,-19.39 554.56,-19.89 557.18,-26.38"/>
</a>
</g>
</g>
<!-- Node15 -->
<g id="Node000015" class="node">
<title>Node15</title>
<g id="a_Node000015"><a xlink:title=" ">
<polygon fill="#e0e0e0" stroke="#999999" points="686.75,-19.25 625,-19.25 625,0 686.75,0 686.75,-19.25"/>
<text xml:space="preserve" text-anchor="middle" x="655.88" y="-5.75" font-family="Helvetica,sans-Serif" font-size="10.00">type_traits</text>
</a>
</g>
</g>
<!-- Node4&#45;&gt;Node15 -->
<g id="edge14_Node000004_Node000015" class="edge">
<title>Node4&#45;&gt;Node15</title>
<g id="a_edge14_Node000004_Node000015"><a xlink:title=" ">
<path fill="none" stroke="#63b8ff" d="M488.07,-55.08C522.42,-45.98 576.2,-31.73 613.59,-21.83"/>
<polygon fill="#63b8ff" stroke="#63b8ff" points="614.39,-25.24 623.16,-19.29 612.59,-18.47 614.39,-25.24"/>
</a>
</g>
</g>
<!-- Node16 -->
<g id="Node000016" class="node">
<title>Node16</title>
<g id="a_Node000016"><a xlink:title=" ">
<polygon fill="#e0e0e0" stroke="#999999" points="747.38,-19.25 704.38,-19.25 704.38,0 747.38,0 747.38,-19.25"/>
<text xml:space="preserve" text-anchor="middle" x="725.88" y="-5.75" font-family="Helvetica,sans-Serif" font-size="10.00">vector</text>
</a>
</g>
</g>
<!-- Node4&#45;&gt;Node16 -->
<g id="edge15_Node000004_Node000016" class="edge">
<title>Node4&#45;&gt;Node16</title>
<g id="a_edge15_Node000004_Node000016"><a xlink:title=" ">
<path fill="none" stroke="#63b8ff" d="M488.22,-58.75C532.83,-51.67 614.59,-37.89 692.95,-19.77"/>
<polygon fill="#63b8ff" stroke="#63b8ff" points="693.57,-23.22 702.51,-17.53 691.98,-16.4 693.57,-23.22"/>
</a>
</g>
</g>
<!-- Node17 -->
<g id="Node000017" class="node">
<title>Node17</title>
<g id="a_Node000017"><a xlink:title=" ">
<polygon fill="#e0e0e0" stroke="#999999" points="838,-19.25 765.75,-19.25 765.75,0 838,0 838,-19.25"/>
<text xml:space="preserve" text-anchor="middle" x="801.88" y="-5.75" font-family="Helvetica,sans-Serif" font-size="10.00">Eigen/Dense</text>
</a>
</g>
</g>
<!-- Node4&#45;&gt;Node17 -->
<g id="edge16_Node000004_Node000017" class="edge">
<title>Node4&#45;&gt;Node17</title>
<g id="a_edge16_Node000004_Node000017"><a xlink:title=" ">
<path fill="none" stroke="#63b8ff" d="M488.47,-59.39C542.34,-52.09 651.64,-36.86 754.35,-19.62"/>
<polygon fill="#63b8ff" stroke="#63b8ff" points="754.78,-23.09 764.06,-17.98 753.61,-16.19 754.78,-23.09"/>
</a>
</g>
</g>
<!-- Node18 -->
<g id="Node000018" class="node">
<title>Node18</title>
<g id="a_Node000018"><a xlink:title=" ">
<polygon fill="#e0e0e0" stroke="#999999" points="930.12,-19.25 855.62,-19.25 855.62,0 930.12,0 930.12,-19.25"/>
<text xml:space="preserve" text-anchor="middle" x="892.88" y="-5.75" font-family="Helvetica,sans-Serif" font-size="10.00">Eigen/Sparse</text>
</a>
</g>
</g>
<!-- Node4&#45;&gt;Node18 -->
<g id="edge17_Node000004_Node000018" class="edge">
<title>Node4&#45;&gt;Node18</title>
<g id="a_edge17_Node000004_Node000018"><a xlink:title=" ">
<path fill="none" stroke="#63b8ff" d="M488.28,-60.89C554.29,-54.82 706.33,-39.96 844.1,-19.57"/>
<polygon fill="#63b8ff" stroke="#63b8ff" points="844.39,-23.07 853.76,-18.13 843.35,-16.15 844.39,-23.07"/>
</a>
</g>
</g>
<!-- Node19 -->
<g id="Node000019" class="node">
<title>Node19</title>
<g id="a_Node000019"><a xlink:title=" ">
<polygon fill="#e0e0e0" stroke="#999999" points="1035.5,-19.25 948.25,-19.25 948.25,0 1035.5,0 1035.5,-19.25"/>
<text xml:space="preserve" text-anchor="middle" x="991.88" y="-5.75" font-family="Helvetica,sans-Serif" font-size="10.00">Eigen/SparseLU</text>
</a>
</g>
</g>
<!-- Node4&#45;&gt;Node19 -->
<g id="edge18_Node000004_Node000019" class="edge">
<title>Node4&#45;&gt;Node19</title>
<g id="a_edge18_Node000004_Node000019"><a xlink:title=" ">
<path fill="none" stroke="#63b8ff" d="M488.41,-61.59C565.55,-56.16 761.73,-41.36 936.72,-19.43"/>
<polygon fill="#63b8ff" stroke="#63b8ff" points="936.97,-22.93 946.45,-18.2 936.09,-15.99 936.97,-22.93"/>
</a>
</g>
</g>
<!-- Node20&#45;&gt;Node4 -->
<g id="edge20_Node000020_Node000004" class="edge">
<title>Node20&#45;&gt;Node4</title>
<g id="a_edge20_Node000020_Node000004"><a xlink:title=" ">
<path fill="none" stroke="#63b8ff" d="M489.1,-110.33C483.56,-103.13 475.53,-92.71 468.65,-83.76"/>
<polygon fill="#63b8ff" stroke="#63b8ff" points="471.59,-81.85 462.72,-76.06 466.04,-86.12 471.59,-81.85"/>
</a>
</g>
</g>
</g>
</svg>
