<?xml version="1.0" encoding="UTF-8" standalone="no"?>
<!DOCTYPE svg PUBLIC "-//W3C//DTD SVG 1.1//EN"
 "http://www.w3.org/Graphics/SVG/1.1/DTD/svg11.dtd">
<!-- Generated by graphviz version 12.2.1 (20241206.2353)
 -->
<!-- Title: include/Optimist/Function/VectorFunction.hh Pages: 1 -->
<svg width="455pt" height="105pt"
 viewBox="0.00 0.00 454.50 105.00" xmlns="http://www.w3.org/2000/svg" xmlns:xlink="http://www.w3.org/1999/xlink">
<g id="graph0" class="graph" transform="scale(1 1) rotate(0) translate(4 101)">
<title>include/Optimist/Function/VectorFunction.hh</title>
<!-- Node1 -->
<g id="Node000001" class="node">
<title>Node1</title>
<g id="a_Node000001"><a xlink:title=" ">
<polygon fill="#999999" stroke="#666666" points="273,-97 146,-97 146,-66.5 273,-66.5 273,-97"/>
<text text-anchor="start" x="154" y="-83.5" font-family="Helvetica,sans-Serif" font-size="10.00">include/Optimist/Function</text>
<text text-anchor="middle" x="209.5" y="-72.25" font-family="Helvetica,sans-Serif" font-size="10.00">/VectorFunction.hh</text>
</a>
</g>
</g>
<!-- Node2 -->
<g id="Node000002" class="node">
<title>Node2</title>
<g id="a_Node000002"><a xlink:href="_booth_8hh.html" target="_top" xlink:title=" ">
<polygon fill="white" stroke="#666666" points="127,-30.5 0,-30.5 0,0 127,0 127,-30.5"/>
<text text-anchor="start" x="8" y="-17" font-family="Helvetica,sans-Serif" font-size="10.00">include/Optimist/TestSet</text>
<text text-anchor="middle" x="63.5" y="-5.75" font-family="Helvetica,sans-Serif" font-size="10.00">/VectorFunction/Booth.hh</text>
</a>
</g>
</g>
<!-- Node1&#45;&gt;Node2 -->
<g id="edge1_Node000001_Node000002" class="edge">
<title>Node1&#45;&gt;Node2</title>
<g id="a_edge1_Node000001_Node000002"><a xlink:title=" ">
<path fill="none" stroke="#63b8ff" d="M165.89,-61.48C143.73,-51.69 117.24,-39.99 96.75,-30.94"/>
<polygon fill="#63b8ff" stroke="#63b8ff" points="164.42,-64.66 174.99,-65.5 167.25,-58.26 164.42,-64.66"/>
</a>
</g>
</g>
<!-- Node3 -->
<g id="Node000003" class="node">
<title>Node3</title>
<g id="a_Node000003"><a xlink:href="_brown_8hh.html" target="_top" xlink:title=" ">
<polygon fill="white" stroke="#666666" points="274.12,-30.5 144.88,-30.5 144.88,0 274.12,0 274.12,-30.5"/>
<text text-anchor="start" x="152.88" y="-17" font-family="Helvetica,sans-Serif" font-size="10.00">include/Optimist/TestSet</text>
<text text-anchor="middle" x="209.5" y="-5.75" font-family="Helvetica,sans-Serif" font-size="10.00">/VectorFunction/Brown.hh</text>
</a>
</g>
</g>
<!-- Node1&#45;&gt;Node3 -->
<g id="edge2_Node000001_Node000003" class="edge">
<title>Node1&#45;&gt;Node3</title>
<g id="a_edge2_Node000001_Node000003"><a xlink:title=" ">
<path fill="none" stroke="#63b8ff" d="M209.5,-54.81C209.5,-46.64 209.5,-37.91 209.5,-30.83"/>
<polygon fill="#63b8ff" stroke="#63b8ff" points="206,-54.6 209.5,-64.6 213,-54.6 206,-54.6"/>
</a>
</g>
</g>
<!-- Node4 -->
<g id="Node000004" class="node">
<title>Node4</title>
<g id="a_Node000004"><a xlink:href="_rosenbrock_8hh.html" target="_top" xlink:title=" ">
<polygon fill="white" stroke="#666666" points="446.5,-30.5 292.5,-30.5 292.5,0 446.5,0 446.5,-30.5"/>
<text text-anchor="start" x="300.5" y="-17" font-family="Helvetica,sans-Serif" font-size="10.00">include/Optimist/TestSet</text>
<text text-anchor="middle" x="369.5" y="-5.75" font-family="Helvetica,sans-Serif" font-size="10.00">/VectorFunction/Rosenbrock.hh</text>
</a>
</g>
</g>
<!-- Node1&#45;&gt;Node4 -->
<g id="edge3_Node000001_Node000004" class="edge">
<title>Node1&#45;&gt;Node4</title>
<g id="a_edge3_Node000001_Node000004"><a xlink:title=" ">
<path fill="none" stroke="#63b8ff" d="M256.3,-61.88C280.78,-52.01 310.3,-40.11 333.06,-30.94"/>
<polygon fill="#63b8ff" stroke="#63b8ff" points="255.18,-58.56 247.21,-65.55 257.79,-65.06 255.18,-58.56"/>
</a>
</g>
</g>
</g>
</svg>
