<?xml version="1.0" encoding="UTF-8" standalone="no"?>
<!DOCTYPE svg PUBLIC "-//W3C//DTD SVG 1.1//EN"
 "http://www.w3.org/Graphics/SVG/1.1/DTD/svg11.dtd">
<!-- Generated by graphviz version 12.2.1 (20241206.2353)
 -->
<!-- Title: Graphical Class Hierarchy Pages: 1 -->
<svg width="357pt" height="147pt"
 viewBox="0.00 0.00 356.50 146.50" xmlns="http://www.w3.org/2000/svg" xmlns:xlink="http://www.w3.org/1999/xlink">
<g id="graph0" class="graph" transform="scale(1 1) rotate(0) translate(4 142.5)">
<title>Graphical Class Hierarchy</title>
<!-- Node0 -->
<g id="Node000000" class="node">
<title>Node0</title>
<g id="a_Node000000"><a xlink:href="class_optimist_1_1_function_base.html" target="_top" xlink:title=" ">
<polygon fill="white" stroke="#666666" points="155.12,-138.5 1.12,-138.5 1.12,-108 155.12,-108 155.12,-138.5"/>
<text text-anchor="start" x="9.12" y="-125" font-family="Helvetica,sans-Serif" font-size="10.00">Optimist::FunctionBase</text>
<text text-anchor="middle" x="78.12" y="-113.75" font-family="Helvetica,sans-Serif" font-size="10.00">&lt; Real, 1, 1, DerivedFunction &gt;</text>
</a>
</g>
</g>
<!-- Node1 -->
<g id="Node000001" class="node">
<title>Node1</title>
<g id="a_Node000001"><a xlink:href="class_optimist_1_1_function_3_01_real_00_011_00_011_00_01_derived_function_01_4.html" target="_top" xlink:title="Class container for the scalar function.">
<polygon fill="white" stroke="#666666" points="347.38,-138.5 193.38,-138.5 193.38,-108 347.38,-108 347.38,-138.5"/>
<text text-anchor="start" x="201.38" y="-125" font-family="Helvetica,sans-Serif" font-size="10.00">Optimist::Function</text>
<text text-anchor="middle" x="270.38" y="-113.75" font-family="Helvetica,sans-Serif" font-size="10.00">&lt; Real, 1, 1, DerivedFunction &gt;</text>
</a>
</g>
</g>
<!-- Node0&#45;&gt;Node1 -->
<g id="edge1_Node000000_Node000001" class="edge">
<title>Node0&#45;&gt;Node1</title>
<g id="a_edge1_Node000000_Node000001"><a xlink:title=" ">
<path fill="none" stroke="#63b8ff" d="M166.85,-123.25C175.61,-123.25 184.45,-123.25 193.07,-123.25"/>
<polygon fill="#63b8ff" stroke="#63b8ff" points="166.92,-119.75 156.92,-123.25 166.92,-126.75 166.92,-119.75"/>
</a>
</g>
</g>
<!-- Node4 -->
<g id="Node000004" class="node">
<title>Node4</title>
<g id="a_Node000004"><a xlink:href="class_optimist_1_1_function_base.html" target="_top" xlink:title=" ">
<polygon fill="white" stroke="#666666" points="156.25,-30.5 0,-30.5 0,0 156.25,0 156.25,-30.5"/>
<text text-anchor="start" x="8" y="-17" font-family="Helvetica,sans-Serif" font-size="10.00">Optimist::FunctionBase</text>
<text text-anchor="middle" x="78.12" y="-5.75" font-family="Helvetica,sans-Serif" font-size="10.00">&lt; Real, N, 1, DerivedFunction &gt;</text>
</a>
</g>
</g>
<!-- Node3 -->
<g id="Node000003" class="node">
<title>Node3</title>
<g id="a_Node000003"><a xlink:href="class_optimist_1_1_function_3_01_real_00_01_n_00_011_00_01_derived_function_01_4.html" target="_top" xlink:title="Class container for the cost function.">
<polygon fill="white" stroke="#666666" points="348.5,-30.5 192.25,-30.5 192.25,0 348.5,0 348.5,-30.5"/>
<text text-anchor="start" x="200.25" y="-17" font-family="Helvetica,sans-Serif" font-size="10.00">Optimist::Function</text>
<text text-anchor="middle" x="270.38" y="-5.75" font-family="Helvetica,sans-Serif" font-size="10.00">&lt; Real, N, 1, DerivedFunction &gt;</text>
</a>
</g>
</g>
<!-- Node4&#45;&gt;Node3 -->
<g id="edge2_Node000004_Node000003" class="edge">
<title>Node4&#45;&gt;Node3</title>
<g id="a_edge2_Node000004_Node000003"><a xlink:title=" ">
<path fill="none" stroke="#63b8ff" d="M167.77,-15.25C175.78,-15.25 183.85,-15.25 191.75,-15.25"/>
<polygon fill="#63b8ff" stroke="#63b8ff" points="168.02,-11.75 158.02,-15.25 168.02,-18.75 168.02,-11.75"/>
</a>
</g>
</g>
<!-- Node2 -->
<g id="Node000002" class="node">
<title>Node2</title>
<g id="a_Node000002"><a xlink:href="class_optimist_1_1_function_base.html" target="_top" xlink:title=" ">
<polygon fill="white" stroke="#666666" points="154.75,-90.12 1.5,-90.12 1.5,-48.38 154.75,-48.38 154.75,-90.12"/>
<text text-anchor="start" x="9.5" y="-76.62" font-family="Helvetica,sans-Serif" font-size="10.00">Optimist::FunctionBase</text>
<text text-anchor="start" x="9.5" y="-65.38" font-family="Helvetica,sans-Serif" font-size="10.00">&lt; Real, N, M, DerivedFunction,</text>
<text text-anchor="middle" x="78.12" y="-54.12" font-family="Helvetica,sans-Serif" font-size="10.00"> false &gt;</text>
</a>
</g>
</g>
<!-- Node2&#45;&gt;Node1 -->
<g id="edge3_Node000002_Node000001" class="edge">
<title>Node2&#45;&gt;Node1</title>
<g id="a_edge3_Node000002_Node000001"><a xlink:title=" ">
<path fill="none" stroke="#63b8ff" d="M165.16,-93.67C181.78,-98.39 198.78,-103.21 214.09,-107.56"/>
<polygon fill="#63b8ff" stroke="#63b8ff" points="166.35,-90.37 155.77,-91.01 164.44,-97.1 166.35,-90.37"/>
</a>
</g>
</g>
<!-- Node2&#45;&gt;Node3 -->
<g id="edge4_Node000002_Node000003" class="edge">
<title>Node2&#45;&gt;Node3</title>
<g id="a_edge4_Node000002_Node000003"><a xlink:title=" ">
<path fill="none" stroke="#63b8ff" d="M165.16,-44.83C181.78,-40.11 198.78,-35.29 214.09,-30.94"/>
<polygon fill="#63b8ff" stroke="#63b8ff" points="164.44,-41.4 155.77,-47.49 166.35,-48.13 164.44,-41.4"/>
</a>
</g>
</g>
<!-- Node5 -->
<g id="Node000005" class="node">
<title>Node5</title>
<g id="a_Node000005"><a xlink:href="class_optimist_1_1_function.html" target="_top" xlink:title="Class container for the vector&#45;valued function.">
<polygon fill="white" stroke="#666666" points="347,-90.12 193.75,-90.12 193.75,-48.38 347,-48.38 347,-90.12"/>
<text text-anchor="start" x="201.75" y="-76.62" font-family="Helvetica,sans-Serif" font-size="10.00">Optimist::Function</text>
<text text-anchor="start" x="201.75" y="-65.38" font-family="Helvetica,sans-Serif" font-size="10.00">&lt; Real, N, M, DerivedFunction,</text>
<text text-anchor="middle" x="270.38" y="-54.12" font-family="Helvetica,sans-Serif" font-size="10.00"> ForceEigen &gt;</text>
</a>
</g>
</g>
<!-- Node2&#45;&gt;Node5 -->
<g id="edge5_Node000002_Node000005" class="edge">
<title>Node2&#45;&gt;Node5</title>
<g id="a_edge5_Node000002_Node000005"><a xlink:title=" ">
<path fill="none" stroke="#63b8ff" d="M166.48,-69.25C175.5,-69.25 184.61,-69.25 193.48,-69.25"/>
<polygon fill="#63b8ff" stroke="#63b8ff" points="166.65,-65.75 156.65,-69.25 166.65,-72.75 166.65,-65.75"/>
</a>
</g>
</g>
</g>
</svg>
