<?xml version="1.0" encoding="UTF-8" standalone="no"?>
<!DOCTYPE svg PUBLIC "-//W3C//DTD SVG 1.1//EN"
 "http://www.w3.org/Graphics/SVG/1.1/DTD/svg11.dtd">
<!-- Generated by graphviz version 12.2.1 (20241206.2353)
 -->
<!-- Title: Graphical Class Hierarchy Pages: 1 -->
<svg width="402pt" height="50pt"
 viewBox="0.00 0.00 401.75 49.75" xmlns="http://www.w3.org/2000/svg" xmlns:xlink="http://www.w3.org/1999/xlink">
<g id="graph0" class="graph" transform="scale(1 1) rotate(0) translate(4 45.75)">
<title>Graphical Class Hierarchy</title>
<!-- Node0 -->
<g id="Node000000" class="node">
<title>Node0</title>
<g id="a_Node000000"><a xlink:href="class_optimist_1_1_function.html" target="_top" xlink:title=" ">
<polygon fill="white" stroke="#666666" points="99.25,-41.75 0,-41.75 0,0 99.25,0 99.25,-41.75"/>
<text text-anchor="start" x="8" y="-28.25" font-family="Helvetica,sans-Serif" font-size="10.00">Optimist::Function</text>
<text text-anchor="start" x="8" y="-17" font-family="Helvetica,sans-Serif" font-size="10.00">&lt; Real, 1, 1, Sinh&lt;</text>
<text text-anchor="middle" x="49.62" y="-5.75" font-family="Helvetica,sans-Serif" font-size="10.00"> Real &gt; &gt;</text>
</a>
</g>
</g>
<!-- Node1 -->
<g id="Node000001" class="node">
<title>Node1</title>
<g id="a_Node000001"><a xlink:href="class_optimist_1_1_scalar_function.html" target="_top" xlink:title=" ">
<polygon fill="white" stroke="#666666" points="259.25,-36.12 135.25,-36.12 135.25,-5.62 259.25,-5.62 259.25,-36.12"/>
<text text-anchor="start" x="143.25" y="-22.62" font-family="Helvetica,sans-Serif" font-size="10.00">Optimist::ScalarFunction</text>
<text text-anchor="middle" x="197.25" y="-11.38" font-family="Helvetica,sans-Serif" font-size="10.00">&lt; Real, Sinh&lt; Real &gt; &gt;</text>
</a>
</g>
</g>
<!-- Node0&#45;&gt;Node1 -->
<g id="edge12_Node000000_Node000001" class="edge">
<title>Node0&#45;&gt;Node1</title>
<g id="a_edge12_Node000000_Node000001"><a xlink:title=" ">
<path fill="none" stroke="#63b8ff" d="M110.9,-20.88C118.8,-20.88 126.89,-20.88 134.81,-20.88"/>
<polygon fill="#63b8ff" stroke="#63b8ff" points="111.03,-17.38 101.03,-20.88 111.03,-24.38 111.03,-17.38"/>
</a>
</g>
</g>
<!-- Node2 -->
<g id="Node000002" class="node">
<title>Node2</title>
<g id="a_Node000002"><a xlink:href="class_optimist_1_1_test_set_1_1_sinh.html" target="_top" xlink:title="Class container for the hyperbolic sine function.">
<polygon fill="white" stroke="#666666" points="393.75,-36.12 295.25,-36.12 295.25,-5.62 393.75,-5.62 393.75,-36.12"/>
<text text-anchor="start" x="303.25" y="-22.62" font-family="Helvetica,sans-Serif" font-size="10.00">Optimist::TestSet::</text>
<text text-anchor="middle" x="344.5" y="-11.38" font-family="Helvetica,sans-Serif" font-size="10.00">Sinh&lt; Real &gt;</text>
</a>
</g>
</g>
<!-- Node1&#45;&gt;Node2 -->
<g id="edge13_Node000001_Node000002" class="edge">
<title>Node1&#45;&gt;Node2</title>
<g id="a_edge13_Node000001_Node000002"><a xlink:title=" ">
<path fill="none" stroke="#63b8ff" d="M270.7,-20.88C279.01,-20.88 287.31,-20.88 295.18,-20.88"/>
<polygon fill="#63b8ff" stroke="#63b8ff" points="270.94,-17.38 260.94,-20.88 270.94,-24.38 270.94,-17.38"/>
</a>
</g>
</g>
</g>
</svg>
