<?xml version="1.0" encoding="UTF-8" standalone="no"?>
<!DOCTYPE svg PUBLIC "-//W3C//DTD SVG 1.1//EN"
 "http://www.w3.org/Graphics/SVG/1.1/DTD/svg11.dtd">
<!-- Generated by graphviz version 12.2.1 (20241206.2353)
 -->
<!-- Title: Graphical Class Hierarchy Pages: 1 -->
<svg width="448pt" height="39pt"
 viewBox="0.00 0.00 447.50 38.50" xmlns="http://www.w3.org/2000/svg" xmlns:xlink="http://www.w3.org/1999/xlink">
<g id="graph0" class="graph" transform="scale(1 1) rotate(0) translate(4 34.5)">
<title>Graphical Class Hierarchy</title>
<!-- Node0 -->
<g id="Node000000" class="node">
<title>Node0</title>
<g id="a_Node000000"><a xlink:href="class_optimist_1_1_function.html" target="_top" xlink:title=" ">
<polygon fill="white" stroke="#666666" points="130,-30.5 0,-30.5 0,0 130,0 130,-30.5"/>
<text text-anchor="start" x="8" y="-17" font-family="Helvetica,sans-Serif" font-size="10.00">Optimist::Function</text>
<text text-anchor="middle" x="65" y="-5.75" font-family="Helvetica,sans-Serif" font-size="10.00">&lt; N, 1, DerivedFunction &gt;</text>
</a>
</g>
</g>
<!-- Node1 -->
<g id="Node000001" class="node">
<title>Node1</title>
<g id="a_Node000001"><a xlink:href="class_optimist_1_1_cost_function.html" target="_top" xlink:title="Class container for the cost function.">
<polygon fill="white" stroke="#666666" points="284.75,-30.5 166,-30.5 166,0 284.75,0 284.75,-30.5"/>
<text text-anchor="start" x="174" y="-17" font-family="Helvetica,sans-Serif" font-size="10.00">Optimist::CostFunction</text>
<text text-anchor="middle" x="225.38" y="-5.75" font-family="Helvetica,sans-Serif" font-size="10.00">&lt; N, DerivedFunction &gt;</text>
</a>
</g>
</g>
<!-- Node0&#45;&gt;Node1 -->
<g id="edge8_Node000000_Node000001" class="edge">
<title>Node0&#45;&gt;Node1</title>
<g id="a_edge8_Node000000_Node000001"><a xlink:title=" ">
<path fill="none" stroke="#63b8ff" d="M141.71,-15.25C149.75,-15.25 157.83,-15.25 165.63,-15.25"/>
<polygon fill="#63b8ff" stroke="#63b8ff" points="141.93,-11.75 131.93,-15.25 141.93,-18.75 141.93,-11.75"/>
</a>
</g>
</g>
<!-- Node2 -->
<g id="Node000002" class="node">
<title>Node2</title>
<g id="a_Node000002"><a xlink:href="class_optimist_1_1_cut_function.html" target="_top" xlink:title="Class container for the scalar function defined on a &quot;cut&quot; of a vector&#45;valued function.">
<polygon fill="white" stroke="#666666" points="439.5,-30.5 320.75,-30.5 320.75,0 439.5,0 439.5,-30.5"/>
<text text-anchor="start" x="328.75" y="-17" font-family="Helvetica,sans-Serif" font-size="10.00">Optimist::CutFunction</text>
<text text-anchor="middle" x="380.12" y="-5.75" font-family="Helvetica,sans-Serif" font-size="10.00">&lt; N, DerivedFunction &gt;</text>
</a>
</g>
</g>
<!-- Node1&#45;&gt;Node2 -->
<g id="edge9_Node000001_Node000002" class="edge">
<title>Node1&#45;&gt;Node2</title>
<g id="a_edge9_Node000001_Node000002"><a xlink:title=" ">
<path fill="none" stroke="#63b8ff" d="M296.29,-15.25C304.36,-15.25 312.52,-15.25 320.41,-15.25"/>
<polygon fill="#63b8ff" stroke="#63b8ff" points="296.51,-11.75 286.51,-15.25 296.51,-18.75 296.51,-11.75"/>
</a>
</g>
</g>
</g>
</svg>
