<?xml version="1.0" encoding="UTF-8" standalone="no"?>
<!DOCTYPE svg PUBLIC "-//W3C//DTD SVG 1.1//EN"
 "http://www.w3.org/Graphics/SVG/1.1/DTD/svg11.dtd">
<!-- Generated by graphviz version 14.0.5 (20251129.0259)
 -->
<!-- Title: Graphical Class Hierarchy Pages: 1 -->
<svg width="566pt" height="50pt"
 viewBox="0.00 0.00 566.00 50.00" xmlns="http://www.w3.org/2000/svg" xmlns:xlink="http://www.w3.org/1999/xlink">
<g id="graph0" class="graph" transform="scale(1 1) rotate(0) translate(4 45.75)">
<title>Graphical Class Hierarchy</title>
<!-- Node0 -->
<g id="Node000000" class="node">
<title>Node0</title>
<g id="a_Node000000"><a xlink:href="class_optimist_1_1_solver_base.html" target="_top" xlink:title=" ">
<polygon fill="white" stroke="#666666" points="125.5,-41.75 0,-41.75 0,0 125.5,0 125.5,-41.75"/>
<text xml:space="preserve" text-anchor="start" x="8" y="-28.25" font-family="Helvetica,sans-Serif" font-size="10.00">Optimist::SolverBase</text>
<text xml:space="preserve" text-anchor="start" x="8" y="-17" font-family="Helvetica,sans-Serif" font-size="10.00">&lt; Scalar, Scalar, Algo748</text>
<text xml:space="preserve" text-anchor="middle" x="62.75" y="-5.75" font-family="Helvetica,sans-Serif" font-size="10.00">&lt; Scalar &gt; &gt;</text>
</a>
</g>
</g>
<!-- Node1 -->
<g id="Node000001" class="node">
<title>Node1</title>
<g id="a_Node000001"><a xlink:href="class_optimist_1_1_root_finder_1_1_root_finder.html" target="_top" xlink:title=" ">
<polygon fill="white" stroke="#666666" points="270.5,-41.75 161.5,-41.75 161.5,0 270.5,0 270.5,-41.75"/>
<text xml:space="preserve" text-anchor="start" x="169.5" y="-28.25" font-family="Helvetica,sans-Serif" font-size="10.00">Optimist::RootFinder</text>
<text xml:space="preserve" text-anchor="start" x="169.5" y="-17" font-family="Helvetica,sans-Serif" font-size="10.00">::RootFinder&lt; Scalar,</text>
<text xml:space="preserve" text-anchor="middle" x="216" y="-5.75" font-family="Helvetica,sans-Serif" font-size="10.00"> Algo748&lt; Scalar &gt; &gt;</text>
</a>
</g>
</g>
<!-- Node0&#45;&gt;Node1 -->
<g id="edge34_Node000000_Node000001" class="edge">
<title>Node0&#45;&gt;Node1</title>
<g id="a_edge34_Node000000_Node000001"><a xlink:title=" ">
<path fill="none" stroke="#63b8ff" d="M137.1,-20.88C145.2,-20.88 153.33,-20.88 161.13,-20.88"/>
<polygon fill="#63b8ff" stroke="#63b8ff" points="137.22,-17.38 127.22,-20.88 137.22,-24.38 137.22,-17.38"/>
</a>
</g>
</g>
<!-- Node2 -->
<g id="Node000002" class="node">
<title>Node2</title>
<g id="a_Node000002"><a xlink:href="class_optimist_1_1_root_finder_1_1_bracketing.html" target="_top" xlink:title=" ">
<polygon fill="white" stroke="#666666" points="414.75,-41.75 306.5,-41.75 306.5,0 414.75,0 414.75,-41.75"/>
<text xml:space="preserve" text-anchor="start" x="314.5" y="-28.25" font-family="Helvetica,sans-Serif" font-size="10.00">Optimist::RootFinder</text>
<text xml:space="preserve" text-anchor="start" x="314.5" y="-17" font-family="Helvetica,sans-Serif" font-size="10.00">::Bracketing&lt; Scalar,</text>
<text xml:space="preserve" text-anchor="middle" x="360.62" y="-5.75" font-family="Helvetica,sans-Serif" font-size="10.00"> Algo748&lt; Scalar &gt; &gt;</text>
</a>
</g>
</g>
<!-- Node1&#45;&gt;Node2 -->
<g id="edge35_Node000001_Node000002" class="edge">
<title>Node1&#45;&gt;Node2</title>
<g id="a_edge35_Node000001_Node000002"><a xlink:title=" ">
<path fill="none" stroke="#63b8ff" d="M282.42,-20.88C290.35,-20.88 298.37,-20.88 306.1,-20.88"/>
<polygon fill="#63b8ff" stroke="#63b8ff" points="282.43,-17.38 272.43,-20.88 282.43,-24.38 282.43,-17.38"/>
</a>
</g>
</g>
<!-- Node3 -->
<g id="Node000003" class="node">
<title>Node3</title>
<g id="a_Node000003"><a xlink:href="class_optimist_1_1_root_finder_1_1_algo748.html" target="_top" xlink:title="Class container for the Algorithm 748.">
<polygon fill="white" stroke="#666666" points="557.5,-36.12 450.75,-36.12 450.75,-5.62 557.5,-5.62 557.5,-36.12"/>
<text xml:space="preserve" text-anchor="start" x="458.75" y="-22.62" font-family="Helvetica,sans-Serif" font-size="10.00">Optimist::RootFinder</text>
<text xml:space="preserve" text-anchor="middle" x="504.12" y="-11.38" font-family="Helvetica,sans-Serif" font-size="10.00">::Algo748&lt; Scalar &gt;</text>
</a>
</g>
</g>
<!-- Node2&#45;&gt;Node3 -->
<g id="edge36_Node000002_Node000003" class="edge">
<title>Node2&#45;&gt;Node3</title>
<g id="a_edge36_Node000002_Node000003"><a xlink:title=" ">
<path fill="none" stroke="#63b8ff" d="M426.41,-20.88C434.47,-20.88 442.64,-20.88 450.49,-20.88"/>
<polygon fill="#63b8ff" stroke="#63b8ff" points="426.63,-17.38 416.63,-20.88 426.63,-24.38 426.63,-17.38"/>
</a>
</g>
</g>
</g>
</svg>
