<?xml version="1.0" encoding="UTF-8" standalone="no"?>
<!DOCTYPE svg PUBLIC "-//W3C//DTD SVG 1.1//EN"
 "http://www.w3.org/Graphics/SVG/1.1/DTD/svg11.dtd">
<!-- Generated by graphviz version 12.2.1 (20241206.2353)
 -->
<!-- Title: Graphical Class Hierarchy Pages: 1 -->
<svg width="415pt" height="50pt"
 viewBox="0.00 0.00 415.25 49.75" xmlns="http://www.w3.org/2000/svg" xmlns:xlink="http://www.w3.org/1999/xlink">
<g id="graph0" class="graph" transform="scale(1 1) rotate(0) translate(4 45.75)">
<title>Graphical Class Hierarchy</title>
<!-- Node0 -->
<g id="Node000000" class="node">
<title>Node0</title>
<g id="a_Node000000"><a xlink:href="class_optimist_1_1_function_base.html" target="_top" xlink:title=" ">
<polygon fill="white" stroke="#666666" points="121,-41.75 0,-41.75 0,0 121,0 121,-41.75"/>
<text text-anchor="start" x="8" y="-28.25" font-family="Helvetica,sans-Serif" font-size="10.00">Optimist::FunctionBase</text>
<text text-anchor="start" x="8" y="-17" font-family="Helvetica,sans-Serif" font-size="10.00">&lt; Real, N, M, Quadratic</text>
<text text-anchor="middle" x="60.5" y="-5.75" font-family="Helvetica,sans-Serif" font-size="10.00">&lt; Real &gt; &gt;</text>
</a>
</g>
</g>
<!-- Node1 -->
<g id="Node000001" class="node">
<title>Node1</title>
<g id="a_Node000001"><a xlink:href="class_optimist_1_1_function.html" target="_top" xlink:title=" ">
<polygon fill="white" stroke="#666666" points="272.75,-41.75 157,-41.75 157,0 272.75,0 272.75,-41.75"/>
<text text-anchor="start" x="165" y="-28.25" font-family="Helvetica,sans-Serif" font-size="10.00">Optimist::Function</text>
<text text-anchor="start" x="165" y="-17" font-family="Helvetica,sans-Serif" font-size="10.00">&lt; Real, 1, 1, Quadratic</text>
<text text-anchor="middle" x="214.88" y="-5.75" font-family="Helvetica,sans-Serif" font-size="10.00">&lt; Real &gt; &gt;</text>
</a>
</g>
</g>
<!-- Node0&#45;&gt;Node1 -->
<g id="edge18_Node000000_Node000001" class="edge">
<title>Node0&#45;&gt;Node1</title>
<g id="a_edge18_Node000000_Node000001"><a xlink:title=" ">
<path fill="none" stroke="#63b8ff" d="M132.63,-20.88C140.72,-20.88 148.88,-20.88 156.75,-20.88"/>
<polygon fill="#63b8ff" stroke="#63b8ff" points="132.8,-17.38 122.8,-20.88 132.8,-24.38 132.8,-17.38"/>
</a>
</g>
</g>
<!-- Node2 -->
<g id="Node000002" class="node">
<title>Node2</title>
<g id="a_Node000002"><a xlink:href="class_optimist_1_1_test_set_1_1_quadratic.html" target="_top" xlink:title="Class container for the quadratic function.">
<polygon fill="white" stroke="#666666" points="407.25,-36.12 308.75,-36.12 308.75,-5.62 407.25,-5.62 407.25,-36.12"/>
<text text-anchor="start" x="316.75" y="-22.62" font-family="Helvetica,sans-Serif" font-size="10.00">Optimist::TestSet::</text>
<text text-anchor="middle" x="358" y="-11.38" font-family="Helvetica,sans-Serif" font-size="10.00">Quadratic&lt; Real &gt;</text>
</a>
</g>
</g>
<!-- Node1&#45;&gt;Node2 -->
<g id="edge19_Node000001_Node000002" class="edge">
<title>Node1&#45;&gt;Node2</title>
<g id="a_edge19_Node000001_Node000002"><a xlink:title=" ">
<path fill="none" stroke="#63b8ff" d="M284.31,-20.88C292.45,-20.88 300.62,-20.88 308.4,-20.88"/>
<polygon fill="#63b8ff" stroke="#63b8ff" points="284.38,-17.38 274.38,-20.88 284.38,-24.38 284.38,-17.38"/>
</a>
</g>
</g>
</g>
</svg>
