<?xml version="1.0" encoding="UTF-8" standalone="no"?>
<!DOCTYPE svg PUBLIC "-//W3C//DTD SVG 1.1//EN"
 "http://www.w3.org/Graphics/SVG/1.1/DTD/svg11.dtd">
<!-- Generated by graphviz version 14.1.2 (20260124.0452)
 -->
<!-- Title: Graphical Class Hierarchy Pages: 1 -->
<svg width="618pt" height="50pt"
 viewBox="0.00 0.00 618.00 50.00" xmlns="http://www.w3.org/2000/svg" xmlns:xlink="http://www.w3.org/1999/xlink">
<g id="graph0" class="graph" transform="scale(1 1) rotate(0) translate(4 45.75)">
<title>Graphical Class Hierarchy</title>
<!-- Node0 -->
<g id="Node000000" class="node">
<title>Node0</title>
<g id="a_Node000000"><a xlink:href="class_optimist_1_1_solver_base.html" target="_top" xlink:title=" ">
<polygon fill="white" stroke="#666666" points="140.5,-41.75 0,-41.75 0,0 140.5,0 140.5,-41.75"/>
<text xml:space="preserve" text-anchor="start" x="8" y="-28.25" font-family="Helvetica,sans-Serif" font-size="10.00">Optimist::SolverBase</text>
<text xml:space="preserve" text-anchor="start" x="8" y="-17" font-family="Helvetica,sans-Serif" font-size="10.00">&lt; Vector, Vector, Greenstadt</text>
<text xml:space="preserve" text-anchor="middle" x="70.25" y="-5.75" font-family="Helvetica,sans-Serif" font-size="10.00">&lt; Vector &gt; &gt;</text>
</a>
</g>
</g>
<!-- Node1 -->
<g id="Node000001" class="node">
<title>Node1</title>
<g id="a_Node000001"><a xlink:href="class_optimist_1_1_root_finder_1_1_root_finder.html" target="_top" xlink:title=" ">
<polygon fill="white" stroke="#666666" points="299,-41.75 176.5,-41.75 176.5,0 299,0 299,-41.75"/>
<text xml:space="preserve" text-anchor="start" x="184.5" y="-28.25" font-family="Helvetica,sans-Serif" font-size="10.00">Optimist::RootFinder</text>
<text xml:space="preserve" text-anchor="start" x="184.5" y="-17" font-family="Helvetica,sans-Serif" font-size="10.00">::RootFinder&lt; Vector,</text>
<text xml:space="preserve" text-anchor="middle" x="237.75" y="-5.75" font-family="Helvetica,sans-Serif" font-size="10.00"> Greenstadt&lt; Vector &gt; &gt;</text>
</a>
</g>
</g>
<!-- Node0&#45;&gt;Node1 -->
<g id="edge61_Node000000_Node000001" class="edge">
<title>Node0&#45;&gt;Node1</title>
<g id="a_edge61_Node000000_Node000001"><a xlink:title=" ">
<path fill="none" stroke="#63b8ff" d="M152.24,-20.88C160.25,-20.88 168.29,-20.88 176.05,-20.88"/>
<polygon fill="#63b8ff" stroke="#63b8ff" points="152.47,-17.38 142.47,-20.88 152.47,-24.38 152.47,-17.38"/>
</a>
</g>
</g>
<!-- Node2 -->
<g id="Node000002" class="node">
<title>Node2</title>
<g id="a_Node000002"><a xlink:href="class_optimist_1_1_root_finder_1_1_quasi_newton.html" target="_top" xlink:title=" ">
<polygon fill="white" stroke="#666666" points="457.5,-41.75 335,-41.75 335,0 457.5,0 457.5,-41.75"/>
<text xml:space="preserve" text-anchor="start" x="343" y="-28.25" font-family="Helvetica,sans-Serif" font-size="10.00">Optimist::RootFinder</text>
<text xml:space="preserve" text-anchor="start" x="343" y="-17" font-family="Helvetica,sans-Serif" font-size="10.00">::QuasiNewton&lt; Vector,</text>
<text xml:space="preserve" text-anchor="middle" x="396.25" y="-5.75" font-family="Helvetica,sans-Serif" font-size="10.00"> Greenstadt&lt; Vector &gt; &gt;</text>
</a>
</g>
</g>
<!-- Node1&#45;&gt;Node2 -->
<g id="edge62_Node000001_Node000002" class="edge">
<title>Node1&#45;&gt;Node2</title>
<g id="a_edge62_Node000001_Node000002"><a xlink:title=" ">
<path fill="none" stroke="#63b8ff" d="M310.55,-20.88C318.6,-20.88 326.75,-20.88 334.65,-20.88"/>
<polygon fill="#63b8ff" stroke="#63b8ff" points="310.77,-17.38 300.77,-20.88 310.77,-24.38 310.77,-17.38"/>
</a>
</g>
</g>
<!-- Node3 -->
<g id="Node000003" class="node">
<title>Node3</title>
<g id="a_Node000003"><a xlink:href="class_optimist_1_1_root_finder_1_1_greenstadt.html" target="_top" xlink:title="Class container for the Greenstadt&#39;s method.">
<polygon fill="white" stroke="#666666" points="610,-36.12 493.5,-36.12 493.5,-5.62 610,-5.62 610,-36.12"/>
<text xml:space="preserve" text-anchor="start" x="501.5" y="-22.62" font-family="Helvetica,sans-Serif" font-size="10.00">Optimist::RootFinder</text>
<text xml:space="preserve" text-anchor="middle" x="551.75" y="-11.38" font-family="Helvetica,sans-Serif" font-size="10.00">::Greenstadt&lt; Vector &gt;</text>
</a>
</g>
</g>
<!-- Node2&#45;&gt;Node3 -->
<g id="edge63_Node000002_Node000003" class="edge">
<title>Node2&#45;&gt;Node3</title>
<g id="a_edge63_Node000002_Node000003"><a xlink:title=" ">
<path fill="none" stroke="#63b8ff" d="M469.43,-20.88C477.34,-20.88 485.32,-20.88 493.03,-20.88"/>
<polygon fill="#63b8ff" stroke="#63b8ff" points="469.43,-17.38 459.43,-20.88 469.43,-24.38 469.43,-17.38"/>
</a>
</g>
</g>
</g>
</svg>
