<?xml version="1.0" encoding="UTF-8" standalone="no"?>
<!DOCTYPE svg PUBLIC "-//W3C//DTD SVG 1.1//EN"
 "http://www.w3.org/Graphics/SVG/1.1/DTD/svg11.dtd">
<!-- Generated by graphviz version 12.2.1 (20241206.2353)
 -->
<!-- Title: Graphical Class Hierarchy Pages: 1 -->
<svg width="633pt" height="50pt"
 viewBox="0.00 0.00 633.00 49.75" xmlns="http://www.w3.org/2000/svg" xmlns:xlink="http://www.w3.org/1999/xlink">
<g id="graph0" class="graph" transform="scale(1 1) rotate(0) translate(4 45.75)">
<title>Graphical Class Hierarchy</title>
<!-- Node0 -->
<g id="Node000000" class="node">
<title>Node0</title>
<g id="a_Node000000"><a xlink:href="class_optimist_1_1_solver.html" target="_top" xlink:title=" ">
<polygon fill="white" stroke="#666666" points="126.25,-41.75 0,-41.75 0,0 126.25,0 126.25,-41.75"/>
<text text-anchor="start" x="8" y="-28.25" font-family="Helvetica,sans-Serif" font-size="10.00">Optimist::Solver&lt; Real,</text>
<text text-anchor="start" x="8" y="-17" font-family="Helvetica,sans-Serif" font-size="10.00"> N, N, Greenstadt&lt; Real,</text>
<text text-anchor="middle" x="63.12" y="-5.75" font-family="Helvetica,sans-Serif" font-size="10.00"> N &gt; &gt;</text>
</a>
</g>
</g>
<!-- Node1 -->
<g id="Node000001" class="node">
<title>Node1</title>
<g id="a_Node000001"><a xlink:href="class_optimist_1_1_root_finder_1_1_root_finder.html" target="_top" xlink:title=" ">
<polygon fill="white" stroke="#666666" points="290,-41.75 162.25,-41.75 162.25,0 290,0 290,-41.75"/>
<text text-anchor="start" x="170.25" y="-28.25" font-family="Helvetica,sans-Serif" font-size="10.00">Optimist::RootFinder</text>
<text text-anchor="start" x="170.25" y="-17" font-family="Helvetica,sans-Serif" font-size="10.00">::RootFinder&lt; Real, N,</text>
<text text-anchor="middle" x="226.12" y="-5.75" font-family="Helvetica,sans-Serif" font-size="10.00"> Greenstadt&lt; Real, N &gt; &gt;</text>
</a>
</g>
</g>
<!-- Node0&#45;&gt;Node1 -->
<g id="edge58_Node000000_Node000001" class="edge">
<title>Node0&#45;&gt;Node1</title>
<g id="a_edge58_Node000000_Node000001"><a xlink:title=" ">
<path fill="none" stroke="#63b8ff" d="M137.73,-20.88C145.83,-20.88 154.02,-20.88 161.98,-20.88"/>
<polygon fill="#63b8ff" stroke="#63b8ff" points="137.89,-17.38 127.89,-20.88 137.89,-24.38 137.89,-17.38"/>
</a>
</g>
</g>
<!-- Node2 -->
<g id="Node000002" class="node">
<title>Node2</title>
<g id="a_Node000002"><a xlink:href="class_optimist_1_1_root_finder_1_1_quasi_newton.html" target="_top" xlink:title=" ">
<polygon fill="white" stroke="#666666" points="467.25,-41.75 326,-41.75 326,0 467.25,0 467.25,-41.75"/>
<text text-anchor="start" x="334" y="-28.25" font-family="Helvetica,sans-Serif" font-size="10.00">Optimist::RootFinder</text>
<text text-anchor="start" x="334" y="-17" font-family="Helvetica,sans-Serif" font-size="10.00">::QuasiNewton&lt; Real,</text>
<text text-anchor="middle" x="396.62" y="-5.75" font-family="Helvetica,sans-Serif" font-size="10.00"> N, Greenstadt&lt; Real, N &gt; &gt;</text>
</a>
</g>
</g>
<!-- Node1&#45;&gt;Node2 -->
<g id="edge59_Node000001_Node000002" class="edge">
<title>Node1&#45;&gt;Node2</title>
<g id="a_edge59_Node000001_Node000002"><a xlink:title=" ">
<path fill="none" stroke="#63b8ff" d="M301.8,-20.88C309.7,-20.88 317.71,-20.88 325.55,-20.88"/>
<polygon fill="#63b8ff" stroke="#63b8ff" points="301.86,-17.38 291.86,-20.88 301.86,-24.38 301.86,-17.38"/>
</a>
</g>
</g>
<!-- Node3 -->
<g id="Node000003" class="node">
<title>Node3</title>
<g id="a_Node000003"><a xlink:href="class_optimist_1_1_root_finder_1_1_greenstadt.html" target="_top" xlink:title="Class container for the Greenstadt&#39;s method.">
<polygon fill="white" stroke="#666666" points="625,-36.12 503.25,-36.12 503.25,-5.62 625,-5.62 625,-36.12"/>
<text text-anchor="start" x="511.25" y="-22.62" font-family="Helvetica,sans-Serif" font-size="10.00">Optimist::RootFinder</text>
<text text-anchor="middle" x="564.12" y="-11.38" font-family="Helvetica,sans-Serif" font-size="10.00">::Greenstadt&lt; Real, N &gt;</text>
</a>
</g>
</g>
<!-- Node2&#45;&gt;Node3 -->
<g id="edge60_Node000002_Node000003" class="edge">
<title>Node2&#45;&gt;Node3</title>
<g id="a_edge60_Node000002_Node000003"><a xlink:title=" ">
<path fill="none" stroke="#63b8ff" d="M478.79,-20.88C486.92,-20.88 495.08,-20.88 502.94,-20.88"/>
<polygon fill="#63b8ff" stroke="#63b8ff" points="478.85,-17.38 468.85,-20.88 478.85,-24.38 478.85,-17.38"/>
</a>
</g>
</g>
</g>
</svg>
