<?xml version="1.0" encoding="UTF-8" standalone="no"?>
<!DOCTYPE svg PUBLIC "-//W3C//DTD SVG 1.1//EN"
 "http://www.w3.org/Graphics/SVG/1.1/DTD/svg11.dtd">
<!-- Generated by graphviz version 12.2.1 (20241206.2353)
 -->
<!-- Title: Graphical Class Hierarchy Pages: 1 -->
<svg width="523pt" height="39pt"
 viewBox="0.00 0.00 523.25 38.50" xmlns="http://www.w3.org/2000/svg" xmlns:xlink="http://www.w3.org/1999/xlink">
<g id="graph0" class="graph" transform="scale(1 1) rotate(0) translate(4 34.5)">
<title>Graphical Class Hierarchy</title>
<!-- Node0 -->
<g id="Node000000" class="node">
<title>Node0</title>
<g id="a_Node000000"><a xlink:href="class_optimist_1_1_solver.html" target="_top" xlink:title=" ">
<polygon fill="white" stroke="#666666" points="106,-30.5 0,-30.5 0,0 106,0 106,-30.5"/>
<text text-anchor="start" x="8" y="-17" font-family="Helvetica,sans-Serif" font-size="10.00">Optimist::Solver&lt; N,</text>
<text text-anchor="middle" x="53" y="-5.75" font-family="Helvetica,sans-Serif" font-size="10.00"> N, DerivedSolver &gt;</text>
</a>
</g>
</g>
<!-- Node1 -->
<g id="Node000001" class="node">
<title>Node1</title>
<g id="a_Node000001"><a xlink:href="class_optimist_1_1_root_finder_1_1_root_finder.html" target="_top" xlink:title="Class container for the multi&#45;dimensional root finder.">
<polygon fill="white" stroke="#666666" points="305,-30.5 142,-30.5 142,0 305,0 305,-30.5"/>
<text text-anchor="start" x="150" y="-17" font-family="Helvetica,sans-Serif" font-size="10.00">Optimist::RootFinder</text>
<text text-anchor="middle" x="223.5" y="-5.75" font-family="Helvetica,sans-Serif" font-size="10.00">::RootFinder&lt; N, DerivedSolver &gt;</text>
</a>
</g>
</g>
<!-- Node0&#45;&gt;Node1 -->
<g id="edge51_Node000000_Node000001" class="edge">
<title>Node0&#45;&gt;Node1</title>
<g id="a_edge51_Node000000_Node000001"><a xlink:title=" ">
<path fill="none" stroke="#63b8ff" d="M117.67,-15.25C125.52,-15.25 133.62,-15.25 141.68,-15.25"/>
<polygon fill="#63b8ff" stroke="#63b8ff" points="117.9,-11.75 107.9,-15.25 117.9,-18.75 117.9,-11.75"/>
</a>
</g>
</g>
<!-- Node2 -->
<g id="Node000002" class="node">
<title>Node2</title>
<g id="a_Node000002"><a xlink:href="class_optimist_1_1_root_finder_1_1_quasi_newton.html" target="_top" xlink:title="Class container for the QuasiNewton&#39;s method.">
<polygon fill="white" stroke="#666666" points="515.25,-30.5 341,-30.5 341,0 515.25,0 515.25,-30.5"/>
<text text-anchor="start" x="349" y="-17" font-family="Helvetica,sans-Serif" font-size="10.00">Optimist::RootFinder</text>
<text text-anchor="middle" x="428.12" y="-5.75" font-family="Helvetica,sans-Serif" font-size="10.00">::QuasiNewton&lt; N, DerivedSolver &gt;</text>
</a>
</g>
</g>
<!-- Node1&#45;&gt;Node2 -->
<g id="edge52_Node000001_Node000002" class="edge">
<title>Node1&#45;&gt;Node2</title>
<g id="a_edge52_Node000001_Node000002"><a xlink:title=" ">
<path fill="none" stroke="#63b8ff" d="M316.95,-15.25C324.84,-15.25 332.81,-15.25 340.65,-15.25"/>
<polygon fill="#63b8ff" stroke="#63b8ff" points="316.97,-11.75 306.97,-15.25 316.97,-18.75 316.97,-11.75"/>
</a>
</g>
</g>
</g>
</svg>
