<?xml version="1.0" encoding="UTF-8" standalone="no"?>
<!DOCTYPE svg PUBLIC "-//W3C//DTD SVG 1.1//EN"
 "http://www.w3.org/Graphics/SVG/1.1/DTD/svg11.dtd">
<!-- Generated by graphviz version 12.2.1 (20241206.2353)
 -->
<!-- Title: Graphical Class Hierarchy Pages: 1 -->
<svg width="614pt" height="50pt"
 viewBox="0.00 0.00 613.50 49.75" xmlns="http://www.w3.org/2000/svg" xmlns:xlink="http://www.w3.org/1999/xlink">
<g id="graph0" class="graph" transform="scale(1 1) rotate(0) translate(4 45.75)">
<title>Graphical Class Hierarchy</title>
<!-- Node0 -->
<g id="Node000000" class="node">
<title>Node0</title>
<g id="a_Node000000"><a xlink:href="class_optimist_1_1_solver.html" target="_top" xlink:title=" ">
<polygon fill="white" stroke="#666666" points="142.75,-36.12 0,-36.12 0,-5.62 142.75,-5.62 142.75,-36.12"/>
<text text-anchor="start" x="8" y="-22.62" font-family="Helvetica,sans-Serif" font-size="10.00">Optimist::Solver&lt; Real,</text>
<text text-anchor="middle" x="71.38" y="-11.38" font-family="Helvetica,sans-Serif" font-size="10.00"> N, N, Broyden&lt; Real, N &gt; &gt;</text>
</a>
</g>
</g>
<!-- Node1 -->
<g id="Node000001" class="node">
<title>Node1</title>
<g id="a_Node000001"><a xlink:href="class_optimist_1_1_root_finder_1_1_root_finder.html" target="_top" xlink:title=" ">
<polygon fill="white" stroke="#666666" points="294.5,-41.75 178.75,-41.75 178.75,0 294.5,0 294.5,-41.75"/>
<text text-anchor="start" x="186.75" y="-28.25" font-family="Helvetica,sans-Serif" font-size="10.00">Optimist::RootFinder</text>
<text text-anchor="start" x="186.75" y="-17" font-family="Helvetica,sans-Serif" font-size="10.00">::RootFinder&lt; Real, N,</text>
<text text-anchor="middle" x="236.62" y="-5.75" font-family="Helvetica,sans-Serif" font-size="10.00"> Broyden&lt; Real, N &gt; &gt;</text>
</a>
</g>
</g>
<!-- Node0&#45;&gt;Node1 -->
<g id="edge53_Node000000_Node000001" class="edge">
<title>Node0&#45;&gt;Node1</title>
<g id="a_edge53_Node000000_Node000001"><a xlink:title=" ">
<path fill="none" stroke="#63b8ff" d="M154.52,-20.88C162.67,-20.88 170.81,-20.88 178.62,-20.88"/>
<polygon fill="#63b8ff" stroke="#63b8ff" points="154.54,-17.38 144.54,-20.88 154.54,-24.38 154.54,-17.38"/>
</a>
</g>
</g>
<!-- Node2 -->
<g id="Node000002" class="node">
<title>Node2</title>
<g id="a_Node000002"><a xlink:href="class_optimist_1_1_root_finder_1_1_quasi_newton.html" target="_top" xlink:title=" ">
<polygon fill="white" stroke="#666666" points="459.75,-41.75 330.5,-41.75 330.5,0 459.75,0 459.75,-41.75"/>
<text text-anchor="start" x="338.5" y="-28.25" font-family="Helvetica,sans-Serif" font-size="10.00">Optimist::RootFinder</text>
<text text-anchor="start" x="338.5" y="-17" font-family="Helvetica,sans-Serif" font-size="10.00">::QuasiNewton&lt; Real,</text>
<text text-anchor="middle" x="395.12" y="-5.75" font-family="Helvetica,sans-Serif" font-size="10.00"> N, Broyden&lt; Real, N &gt; &gt;</text>
</a>
</g>
</g>
<!-- Node1&#45;&gt;Node2 -->
<g id="edge54_Node000001_Node000002" class="edge">
<title>Node1&#45;&gt;Node2</title>
<g id="a_edge54_Node000001_Node000002"><a xlink:title=" ">
<path fill="none" stroke="#63b8ff" d="M305.82,-20.88C313.88,-20.88 322.08,-20.88 330.07,-20.88"/>
<polygon fill="#63b8ff" stroke="#63b8ff" points="306.08,-17.38 296.08,-20.88 306.08,-24.38 306.08,-17.38"/>
</a>
</g>
</g>
<!-- Node3 -->
<g id="Node000003" class="node">
<title>Node3</title>
<g id="a_Node000003"><a xlink:href="class_optimist_1_1_root_finder_1_1_broyden.html" target="_top" xlink:title="Class container for the Broyden&#39;s method.">
<polygon fill="white" stroke="#666666" points="605.5,-36.12 495.75,-36.12 495.75,-5.62 605.5,-5.62 605.5,-36.12"/>
<text text-anchor="start" x="503.75" y="-22.62" font-family="Helvetica,sans-Serif" font-size="10.00">Optimist::RootFinder</text>
<text text-anchor="middle" x="550.62" y="-11.38" font-family="Helvetica,sans-Serif" font-size="10.00">::Broyden&lt; Real, N &gt;</text>
</a>
</g>
</g>
<!-- Node2&#45;&gt;Node3 -->
<g id="edge55_Node000002_Node000003" class="edge">
<title>Node2&#45;&gt;Node3</title>
<g id="a_edge55_Node000002_Node000003"><a xlink:title=" ">
<path fill="none" stroke="#63b8ff" d="M471.38,-20.88C479.55,-20.88 487.73,-20.88 495.57,-20.88"/>
<polygon fill="#63b8ff" stroke="#63b8ff" points="471.4,-17.38 461.4,-20.88 471.4,-24.38 471.4,-17.38"/>
</a>
</g>
</g>
</g>
</svg>
