<?xml version="1.0" encoding="UTF-8" standalone="no"?>
<!DOCTYPE svg PUBLIC "-//W3C//DTD SVG 1.1//EN"
 "http://www.w3.org/Graphics/SVG/1.1/DTD/svg11.dtd">
<!-- Generated by graphviz version 12.2.1 (20241206.2353)
 -->
<!-- Title: Graphical Class Hierarchy Pages: 1 -->
<svg width="444pt" height="50pt"
 viewBox="0.00 0.00 443.75 49.75" xmlns="http://www.w3.org/2000/svg" xmlns:xlink="http://www.w3.org/1999/xlink">
<g id="graph0" class="graph" transform="scale(1 1) rotate(0) translate(4 45.75)">
<title>Graphical Class Hierarchy</title>
<!-- Node0 -->
<g id="Node000000" class="node">
<title>Node0</title>
<g id="a_Node000000"><a xlink:href="class_optimist_1_1_solver.html" target="_top" xlink:title=" ">
<polygon fill="white" stroke="#666666" points="140.5,-36.12 0,-36.12 0,-5.62 140.5,-5.62 140.5,-36.12"/>
<text text-anchor="start" x="8" y="-22.62" font-family="Helvetica,sans-Serif" font-size="10.00">Optimist::Solver&lt; Real,</text>
<text text-anchor="middle" x="70.25" y="-11.38" font-family="Helvetica,sans-Serif" font-size="10.00"> N, N, Newton&lt; Real, N &gt; &gt;</text>
</a>
</g>
</g>
<!-- Node1 -->
<g id="Node000001" class="node">
<title>Node1</title>
<g id="a_Node000001"><a xlink:href="class_optimist_1_1_root_finder_1_1_root_finder.html" target="_top" xlink:title=" ">
<polygon fill="white" stroke="#666666" points="292.25,-41.75 176.5,-41.75 176.5,0 292.25,0 292.25,-41.75"/>
<text text-anchor="start" x="184.5" y="-28.25" font-family="Helvetica,sans-Serif" font-size="10.00">Optimist::RootFinder</text>
<text text-anchor="start" x="184.5" y="-17" font-family="Helvetica,sans-Serif" font-size="10.00">::RootFinder&lt; Real, N,</text>
<text text-anchor="middle" x="234.38" y="-5.75" font-family="Helvetica,sans-Serif" font-size="10.00"> Newton&lt; Real, N &gt; &gt;</text>
</a>
</g>
</g>
<!-- Node0&#45;&gt;Node1 -->
<g id="edge61_Node000000_Node000001" class="edge">
<title>Node0&#45;&gt;Node1</title>
<g id="a_edge61_Node000000_Node000001"><a xlink:title=" ">
<path fill="none" stroke="#63b8ff" d="M152.39,-20.88C160.52,-20.88 168.64,-20.88 176.43,-20.88"/>
<polygon fill="#63b8ff" stroke="#63b8ff" points="152.46,-17.38 142.46,-20.88 152.46,-24.38 152.46,-17.38"/>
</a>
</g>
</g>
<!-- Node2 -->
<g id="Node000002" class="node">
<title>Node2</title>
<g id="a_Node000002"><a xlink:href="class_optimist_1_1_root_finder_1_1_newton.html" target="_top" xlink:title="Class container for the Newton&#39;s method.">
<polygon fill="white" stroke="#666666" points="435.75,-36.12 328.25,-36.12 328.25,-5.62 435.75,-5.62 435.75,-36.12"/>
<text text-anchor="start" x="336.25" y="-22.62" font-family="Helvetica,sans-Serif" font-size="10.00">Optimist::RootFinder</text>
<text text-anchor="middle" x="382" y="-11.38" font-family="Helvetica,sans-Serif" font-size="10.00">::Newton&lt; Real, N &gt;</text>
</a>
</g>
</g>
<!-- Node1&#45;&gt;Node2 -->
<g id="edge62_Node000001_Node000002" class="edge">
<title>Node1&#45;&gt;Node2</title>
<g id="a_edge62_Node000001_Node000002"><a xlink:title=" ">
<path fill="none" stroke="#63b8ff" d="M303.82,-20.88C311.89,-20.88 320.02,-20.88 327.83,-20.88"/>
<polygon fill="#63b8ff" stroke="#63b8ff" points="304.03,-17.38 294.03,-20.88 304.03,-24.38 304.03,-17.38"/>
</a>
</g>
</g>
</g>
</svg>
