<?xml version="1.0" encoding="UTF-8" standalone="no"?>
<!DOCTYPE svg PUBLIC "-//W3C//DTD SVG 1.1//EN"
 "http://www.w3.org/Graphics/SVG/1.1/DTD/svg11.dtd">
<!-- Generated by graphviz version 12.2.1 (20241206.2353)
 -->
<!-- Title: Graphical Class Hierarchy Pages: 1 -->
<svg width="401pt" height="39pt"
 viewBox="0.00 0.00 401.00 38.50" xmlns="http://www.w3.org/2000/svg" xmlns:xlink="http://www.w3.org/1999/xlink">
<g id="graph0" class="graph" transform="scale(1 1) rotate(0) translate(4 34.5)">
<title>Graphical Class Hierarchy</title>
<!-- Node0 -->
<g id="Node000000" class="node">
<title>Node0</title>
<g id="a_Node000000"><a xlink:href="class_optimist_1_1_function.html" target="_top" xlink:title=" ">
<polygon fill="white" stroke="#666666" points="98.5,-30.5 0,-30.5 0,0 98.5,0 98.5,-30.5"/>
<text text-anchor="start" x="8" y="-17" font-family="Helvetica,sans-Serif" font-size="10.00">Optimist::Function</text>
<text text-anchor="middle" x="49.25" y="-5.75" font-family="Helvetica,sans-Serif" font-size="10.00">&lt; 1, 1, Quadratic &gt;</text>
</a>
</g>
</g>
<!-- Node1 -->
<g id="Node000001" class="node">
<title>Node1</title>
<g id="a_Node000001"><a xlink:href="class_optimist_1_1_scalar_function.html" target="_top" xlink:title=" ">
<polygon fill="white" stroke="#666666" points="258.5,-30.5 134.5,-30.5 134.5,0 258.5,0 258.5,-30.5"/>
<text text-anchor="start" x="142.5" y="-17" font-family="Helvetica,sans-Serif" font-size="10.00">Optimist::ScalarFunction</text>
<text text-anchor="middle" x="196.5" y="-5.75" font-family="Helvetica,sans-Serif" font-size="10.00">&lt; Quadratic &gt;</text>
</a>
</g>
</g>
<!-- Node0&#45;&gt;Node1 -->
<g id="edge8_Node000000_Node000001" class="edge">
<title>Node0&#45;&gt;Node1</title>
<g id="a_edge8_Node000000_Node000001"><a xlink:title=" ">
<path fill="none" stroke="#63b8ff" d="M110.07,-15.25C118.02,-15.25 126.19,-15.25 134.17,-15.25"/>
<polygon fill="#63b8ff" stroke="#63b8ff" points="110.13,-11.75 100.13,-15.25 110.13,-18.75 110.13,-11.75"/>
</a>
</g>
</g>
<!-- Node2 -->
<g id="Node000002" class="node">
<title>Node2</title>
<g id="a_Node000002"><a xlink:href="class_optimist_1_1_test_set_1_1_quadratic.html" target="_top" xlink:title="Class container for the quadratic function.">
<polygon fill="white" stroke="#666666" points="393,-30.5 294.5,-30.5 294.5,0 393,0 393,-30.5"/>
<text text-anchor="start" x="302.5" y="-17" font-family="Helvetica,sans-Serif" font-size="10.00">Optimist::TestSet::</text>
<text text-anchor="middle" x="343.75" y="-5.75" font-family="Helvetica,sans-Serif" font-size="10.00">Quadratic</text>
</a>
</g>
</g>
<!-- Node1&#45;&gt;Node2 -->
<g id="edge9_Node000001_Node000002" class="edge">
<title>Node1&#45;&gt;Node2</title>
<g id="a_edge9_Node000001_Node000002"><a xlink:title=" ">
<path fill="none" stroke="#63b8ff" d="M269.95,-15.25C278.26,-15.25 286.56,-15.25 294.43,-15.25"/>
<polygon fill="#63b8ff" stroke="#63b8ff" points="270.19,-11.75 260.19,-15.25 270.19,-18.75 270.19,-11.75"/>
</a>
</g>
</g>
</g>
</svg>
