<?xml version="1.0" encoding="UTF-8" standalone="no"?>
<!DOCTYPE svg PUBLIC "-//W3C//DTD SVG 1.1//EN"
 "http://www.w3.org/Graphics/SVG/1.1/DTD/svg11.dtd">
<!-- Generated by graphviz version 12.2.1 (20241206.2353)
 -->
<!-- Title: Graphical Class Hierarchy Pages: 1 -->
<svg width="363pt" height="137pt"
 viewBox="0.00 0.00 362.50 136.50" xmlns="http://www.w3.org/2000/svg" xmlns:xlink="http://www.w3.org/1999/xlink">
<g id="graph0" class="graph" transform="scale(1 1) rotate(0) translate(4 132.5)">
<title>Graphical Class Hierarchy</title>
<!-- Node0 -->
<g id="Node000000" class="node">
<title>Node0</title>
<g id="a_Node000000"><a xlink:href="class_optimist_1_1_function_base.html" target="_top" xlink:title=" ">
<polygon fill="white" stroke="#666666" points="156.62,-128.5 2.62,-128.5 2.62,-98 156.62,-98 156.62,-128.5"/>
<text text-anchor="start" x="10.62" y="-115" font-family="Helvetica,sans-Serif" font-size="10.00">Optimist::FunctionBase</text>
<text text-anchor="middle" x="79.62" y="-103.75" font-family="Helvetica,sans-Serif" font-size="10.00">&lt; Real, 1, 1, DerivedFunction &gt;</text>
</a>
</g>
</g>
<!-- Node1 -->
<g id="Node000001" class="node">
<title>Node1</title>
<g id="a_Node000001"><a xlink:href="class_optimist_1_1_function_3_01_real_00_011_00_011_00_01_derived_function_01_4.html" target="_top" xlink:title="Class container for the scalar function.">
<polygon fill="white" stroke="#666666" points="351.88,-128.5 197.88,-128.5 197.88,-98 351.88,-98 351.88,-128.5"/>
<text text-anchor="start" x="205.88" y="-115" font-family="Helvetica,sans-Serif" font-size="10.00">Optimist::Function</text>
<text text-anchor="middle" x="274.88" y="-103.75" font-family="Helvetica,sans-Serif" font-size="10.00">&lt; Real, 1, 1, DerivedFunction &gt;</text>
</a>
</g>
</g>
<!-- Node0&#45;&gt;Node1 -->
<g id="edge1_Node000000_Node000001" class="edge">
<title>Node0&#45;&gt;Node1</title>
<g id="a_edge1_Node000000_Node000001"><a xlink:title=" ">
<path fill="none" stroke="#63b8ff" d="M168.32,-113.25C178.03,-113.25 187.86,-113.25 197.42,-113.25"/>
<polygon fill="#63b8ff" stroke="#63b8ff" points="168.52,-109.75 158.52,-113.25 168.52,-116.75 168.52,-109.75"/>
</a>
</g>
</g>
<!-- Node4 -->
<g id="Node000004" class="node">
<title>Node4</title>
<g id="a_Node000004"><a xlink:href="class_optimist_1_1_function_base.html" target="_top" xlink:title=" ">
<polygon fill="white" stroke="#666666" points="157.75,-30.5 1.5,-30.5 1.5,0 157.75,0 157.75,-30.5"/>
<text text-anchor="start" x="9.5" y="-17" font-family="Helvetica,sans-Serif" font-size="10.00">Optimist::FunctionBase</text>
<text text-anchor="middle" x="79.62" y="-5.75" font-family="Helvetica,sans-Serif" font-size="10.00">&lt; Real, N, 1, DerivedFunction &gt;</text>
</a>
</g>
</g>
<!-- Node3 -->
<g id="Node000003" class="node">
<title>Node3</title>
<g id="a_Node000003"><a xlink:href="class_optimist_1_1_function_3_01_real_00_01_n_00_011_00_01_derived_function_01_4.html" target="_top" xlink:title="Class container for the cost function.">
<polygon fill="white" stroke="#666666" points="353,-30.5 196.75,-30.5 196.75,0 353,0 353,-30.5"/>
<text text-anchor="start" x="204.75" y="-17" font-family="Helvetica,sans-Serif" font-size="10.00">Optimist::Function</text>
<text text-anchor="middle" x="274.88" y="-5.75" font-family="Helvetica,sans-Serif" font-size="10.00">&lt; Real, N, 1, DerivedFunction &gt;</text>
</a>
</g>
</g>
<!-- Node4&#45;&gt;Node3 -->
<g id="edge2_Node000004_Node000003" class="edge">
<title>Node4&#45;&gt;Node3</title>
<g id="a_edge2_Node000004_Node000003"><a xlink:title=" ">
<path fill="none" stroke="#63b8ff" d="M169.43,-15.25C178.43,-15.25 187.51,-15.25 196.37,-15.25"/>
<polygon fill="#63b8ff" stroke="#63b8ff" points="169.63,-11.75 159.63,-15.25 169.63,-18.75 169.63,-11.75"/>
</a>
</g>
</g>
<!-- Node2 -->
<g id="Node000002" class="node">
<title>Node2</title>
<g id="a_Node000002"><a xlink:href="class_optimist_1_1_function_base.html" target="_top" xlink:title=" ">
<polygon fill="white" stroke="#666666" points="159.25,-79.5 0,-79.5 0,-49 159.25,-49 159.25,-79.5"/>
<text text-anchor="start" x="8" y="-66" font-family="Helvetica,sans-Serif" font-size="10.00">Optimist::FunctionBase</text>
<text text-anchor="middle" x="79.62" y="-54.75" font-family="Helvetica,sans-Serif" font-size="10.00">&lt; Real, N, M, DerivedFunction &gt;</text>
</a>
</g>
</g>
<!-- Node2&#45;&gt;Node1 -->
<g id="edge3_Node000002_Node000001" class="edge">
<title>Node2&#45;&gt;Node1</title>
<g id="a_edge3_Node000002_Node000001"><a xlink:title=" ">
<path fill="none" stroke="#63b8ff" d="M153.69,-82.78C172.89,-87.64 193.4,-92.85 211.95,-97.55"/>
<polygon fill="#63b8ff" stroke="#63b8ff" points="154.59,-79.39 144.04,-80.33 152.87,-86.18 154.59,-79.39"/>
</a>
</g>
</g>
<!-- Node2&#45;&gt;Node3 -->
<g id="edge4_Node000002_Node000003" class="edge">
<title>Node2&#45;&gt;Node3</title>
<g id="a_edge4_Node000002_Node000003"><a xlink:title=" ">
<path fill="none" stroke="#63b8ff" d="M153.69,-45.72C172.89,-40.86 193.4,-35.65 211.95,-30.95"/>
<polygon fill="#63b8ff" stroke="#63b8ff" points="152.87,-42.32 144.04,-48.17 154.59,-49.11 152.87,-42.32"/>
</a>
</g>
</g>
<!-- Node5 -->
<g id="Node000005" class="node">
<title>Node5</title>
<g id="a_Node000005"><a xlink:href="class_optimist_1_1_function.html" target="_top" xlink:title="Class container for the vector&#45;valued function.">
<polygon fill="white" stroke="#666666" points="354.5,-79.5 195.25,-79.5 195.25,-49 354.5,-49 354.5,-79.5"/>
<text text-anchor="start" x="203.25" y="-66" font-family="Helvetica,sans-Serif" font-size="10.00">Optimist::Function</text>
<text text-anchor="middle" x="274.88" y="-54.75" font-family="Helvetica,sans-Serif" font-size="10.00">&lt; Real, N, M, DerivedFunction &gt;</text>
</a>
</g>
</g>
<!-- Node2&#45;&gt;Node5 -->
<g id="edge5_Node000002_Node000005" class="edge">
<title>Node2&#45;&gt;Node5</title>
<g id="a_edge5_Node000002_Node000005"><a xlink:title=" ">
<path fill="none" stroke="#63b8ff" d="M170.83,-64.25C178.88,-64.25 186.99,-64.25 194.93,-64.25"/>
<polygon fill="#63b8ff" stroke="#63b8ff" points="171.02,-60.75 161.02,-64.25 171.02,-67.75 171.02,-60.75"/>
</a>
</g>
</g>
</g>
</svg>
