<?xml version="1.0" encoding="UTF-8" standalone="no"?>
<!DOCTYPE svg PUBLIC "-//W3C//DTD SVG 1.1//EN"
 "http://www.w3.org/Graphics/SVG/1.1/DTD/svg11.dtd">
<!-- Generated by graphviz version 12.2.1 (20241206.2353)
 -->
<!-- Title: Graphical Class Hierarchy Pages: 1 -->
<svg width="671pt" height="50pt"
 viewBox="0.00 0.00 670.50 49.75" xmlns="http://www.w3.org/2000/svg" xmlns:xlink="http://www.w3.org/1999/xlink">
<g id="graph0" class="graph" transform="scale(1 1) rotate(0) translate(4 45.75)">
<title>Graphical Class Hierarchy</title>
<!-- Node0 -->
<g id="Node000000" class="node">
<title>Node0</title>
<g id="a_Node000000"><a xlink:href="class_optimist_1_1_solver.html" target="_top" xlink:title=" ">
<polygon fill="white" stroke="#666666" points="151,-36.12 0,-36.12 0,-5.62 151,-5.62 151,-36.12"/>
<text text-anchor="start" x="8" y="-22.62" font-family="Helvetica,sans-Serif" font-size="10.00">Optimist::Solver&lt; Real,</text>
<text text-anchor="middle" x="75.5" y="-11.38" font-family="Helvetica,sans-Serif" font-size="10.00"> N, N, Chandrupatla&lt; Real &gt; &gt;</text>
</a>
</g>
</g>
<!-- Node1 -->
<g id="Node000001" class="node">
<title>Node1</title>
<g id="a_Node000001"><a xlink:href="class_optimist_1_1_root_finder_1_1_root_finder.html" target="_top" xlink:title=" ">
<polygon fill="white" stroke="#666666" points="311,-41.75 187,-41.75 187,0 311,0 311,-41.75"/>
<text text-anchor="start" x="195" y="-28.25" font-family="Helvetica,sans-Serif" font-size="10.00">Optimist::RootFinder</text>
<text text-anchor="start" x="195" y="-17" font-family="Helvetica,sans-Serif" font-size="10.00">::RootFinder&lt; Real, 1,</text>
<text text-anchor="middle" x="249" y="-5.75" font-family="Helvetica,sans-Serif" font-size="10.00"> Chandrupatla&lt; Real &gt; &gt;</text>
</a>
</g>
</g>
<!-- Node0&#45;&gt;Node1 -->
<g id="edge53_Node000000_Node000001" class="edge">
<title>Node0&#45;&gt;Node1</title>
<g id="a_edge53_Node000000_Node000001"><a xlink:title=" ">
<path fill="none" stroke="#63b8ff" d="M162.64,-20.88C170.74,-20.88 178.83,-20.88 186.63,-20.88"/>
<polygon fill="#63b8ff" stroke="#63b8ff" points="162.74,-17.38 152.74,-20.88 162.74,-24.38 162.74,-17.38"/>
</a>
</g>
</g>
<!-- Node2 -->
<g id="Node000002" class="node">
<title>Node2</title>
<g id="a_Node000002"><a xlink:href="class_optimist_1_1_root_finder_1_1_bracketing.html" target="_top" xlink:title=" ">
<polygon fill="white" stroke="#666666" points="508.5,-41.75 347,-41.75 347,0 508.5,0 508.5,-41.75"/>
<text text-anchor="start" x="355" y="-28.25" font-family="Helvetica,sans-Serif" font-size="10.00">Optimist::RootFinder</text>
<text text-anchor="start" x="355" y="-17" font-family="Helvetica,sans-Serif" font-size="10.00">::Bracketing&lt; Real, Chandrupatla</text>
<text text-anchor="middle" x="427.75" y="-5.75" font-family="Helvetica,sans-Serif" font-size="10.00">&lt; Real &gt; &gt;</text>
</a>
</g>
</g>
<!-- Node1&#45;&gt;Node2 -->
<g id="edge54_Node000001_Node000002" class="edge">
<title>Node1&#45;&gt;Node2</title>
<g id="a_edge54_Node000001_Node000002"><a xlink:title=" ">
<path fill="none" stroke="#63b8ff" d="M322.69,-20.88C330.56,-20.88 338.6,-20.88 346.55,-20.88"/>
<polygon fill="#63b8ff" stroke="#63b8ff" points="322.84,-17.38 312.84,-20.88 322.84,-24.38 322.84,-17.38"/>
</a>
</g>
</g>
<!-- Node3 -->
<g id="Node000003" class="node">
<title>Node3</title>
<g id="a_Node000003"><a xlink:href="class_optimist_1_1_root_finder_1_1_chandrupatla.html" target="_top" xlink:title="Class container for the Chandrupatla algorithm.">
<polygon fill="white" stroke="#666666" points="662.5,-36.12 544.5,-36.12 544.5,-5.62 662.5,-5.62 662.5,-36.12"/>
<text text-anchor="start" x="552.5" y="-22.62" font-family="Helvetica,sans-Serif" font-size="10.00">Optimist::RootFinder</text>
<text text-anchor="middle" x="603.5" y="-11.38" font-family="Helvetica,sans-Serif" font-size="10.00">::Chandrupatla&lt; Real &gt;</text>
</a>
</g>
</g>
<!-- Node2&#45;&gt;Node3 -->
<g id="edge55_Node000002_Node000003" class="edge">
<title>Node2&#45;&gt;Node3</title>
<g id="a_edge55_Node000002_Node000003"><a xlink:title=" ">
<path fill="none" stroke="#63b8ff" d="M520.25,-20.88C528.38,-20.88 536.45,-20.88 544.18,-20.88"/>
<polygon fill="#63b8ff" stroke="#63b8ff" points="520.27,-17.38 510.27,-20.88 520.27,-24.38 520.27,-17.38"/>
</a>
</g>
</g>
</g>
</svg>
