<?xml version="1.0" encoding="UTF-8" standalone="no"?>
<!DOCTYPE svg PUBLIC "-//W3C//DTD SVG 1.1//EN"
 "http://www.w3.org/Graphics/SVG/1.1/DTD/svg11.dtd">
<!-- Generated by graphviz version 12.2.1 (20241206.2353)
 -->
<!-- Title: Graphical Class Hierarchy Pages: 1 -->
<svg width="630pt" height="50pt"
 viewBox="0.00 0.00 630.00 49.75" xmlns="http://www.w3.org/2000/svg" xmlns:xlink="http://www.w3.org/1999/xlink">
<g id="graph0" class="graph" transform="scale(1 1) rotate(0) translate(4 45.75)">
<title>Graphical Class Hierarchy</title>
<!-- Node0 -->
<g id="Node000000" class="node">
<title>Node0</title>
<g id="a_Node000000"><a xlink:href="class_optimist_1_1_solver.html" target="_top" xlink:title=" ">
<polygon fill="white" stroke="#666666" points="115,-36.12 0,-36.12 0,-5.62 115,-5.62 115,-36.12"/>
<text text-anchor="start" x="8" y="-22.62" font-family="Helvetica,sans-Serif" font-size="10.00">Optimist::Solver&lt; N,</text>
<text text-anchor="middle" x="57.5" y="-11.38" font-family="Helvetica,sans-Serif" font-size="10.00"> N, Greenstadt&lt; N &gt; &gt;</text>
</a>
</g>
</g>
<!-- Node1 -->
<g id="Node000001" class="node">
<title>Node1</title>
<g id="a_Node000001"><a xlink:href="class_optimist_1_1_root_finder_1_1_root_finder.html" target="_top" xlink:title=" ">
<polygon fill="white" stroke="#666666" points="291.5,-41.75 151,-41.75 151,0 291.5,0 291.5,-41.75"/>
<text text-anchor="start" x="159" y="-28.25" font-family="Helvetica,sans-Serif" font-size="10.00">Optimist::RootFinder</text>
<text text-anchor="start" x="159" y="-17" font-family="Helvetica,sans-Serif" font-size="10.00">::RootFinder&lt; N, Greenstadt</text>
<text text-anchor="middle" x="221.25" y="-5.75" font-family="Helvetica,sans-Serif" font-size="10.00">&lt; N &gt; &gt;</text>
</a>
</g>
</g>
<!-- Node0&#45;&gt;Node1 -->
<g id="edge31_Node000000_Node000001" class="edge">
<title>Node0&#45;&gt;Node1</title>
<g id="a_edge31_Node000000_Node000001"><a xlink:title=" ">
<path fill="none" stroke="#63b8ff" d="M126.57,-20.88C134.52,-20.88 142.64,-20.88 150.62,-20.88"/>
<polygon fill="#63b8ff" stroke="#63b8ff" points="126.59,-17.38 116.59,-20.88 126.59,-24.38 126.59,-17.38"/>
</a>
</g>
</g>
<!-- Node2 -->
<g id="Node000002" class="node">
<title>Node2</title>
<g id="a_Node000002"><a xlink:href="class_optimist_1_1_root_finder_1_1_quasi_newton.html" target="_top" xlink:title=" ">
<polygon fill="white" stroke="#666666" points="479.25,-41.75 327.5,-41.75 327.5,0 479.25,0 479.25,-41.75"/>
<text text-anchor="start" x="335.5" y="-28.25" font-family="Helvetica,sans-Serif" font-size="10.00">Optimist::RootFinder</text>
<text text-anchor="start" x="335.5" y="-17" font-family="Helvetica,sans-Serif" font-size="10.00">::QuasiNewton&lt; N, Greenstadt</text>
<text text-anchor="middle" x="403.38" y="-5.75" font-family="Helvetica,sans-Serif" font-size="10.00">&lt; N &gt; &gt;</text>
</a>
</g>
</g>
<!-- Node1&#45;&gt;Node2 -->
<g id="edge32_Node000001_Node000002" class="edge">
<title>Node1&#45;&gt;Node2</title>
<g id="a_edge32_Node000001_Node000002"><a xlink:title=" ">
<path fill="none" stroke="#63b8ff" d="M303.14,-20.88C311.16,-20.88 319.28,-20.88 327.24,-20.88"/>
<polygon fill="#63b8ff" stroke="#63b8ff" points="303.4,-17.38 293.4,-20.88 303.4,-24.38 303.4,-17.38"/>
</a>
</g>
</g>
<!-- Node3 -->
<g id="Node000003" class="node">
<title>Node3</title>
<g id="a_Node000003"><a xlink:href="class_optimist_1_1_root_finder_1_1_greenstadt.html" target="_top" xlink:title="Class container for the Greenstadt&#39;s method.">
<polygon fill="white" stroke="#666666" points="622,-36.12 515.25,-36.12 515.25,-5.62 622,-5.62 622,-36.12"/>
<text text-anchor="start" x="523.25" y="-22.62" font-family="Helvetica,sans-Serif" font-size="10.00">Optimist::RootFinder</text>
<text text-anchor="middle" x="568.62" y="-11.38" font-family="Helvetica,sans-Serif" font-size="10.00">::Greenstadt&lt; N &gt;</text>
</a>
</g>
</g>
<!-- Node2&#45;&gt;Node3 -->
<g id="edge33_Node000002_Node000003" class="edge">
<title>Node2&#45;&gt;Node3</title>
<g id="a_edge33_Node000002_Node000003"><a xlink:title=" ">
<path fill="none" stroke="#63b8ff" d="M490.65,-20.88C498.96,-20.88 507.21,-20.88 515.04,-20.88"/>
<polygon fill="#63b8ff" stroke="#63b8ff" points="490.82,-17.38 480.82,-20.88 490.82,-24.38 490.82,-17.38"/>
</a>
</g>
</g>
</g>
</svg>
