<?xml version="1.0" encoding="UTF-8" standalone="no"?>
<!DOCTYPE svg PUBLIC "-//W3C//DTD SVG 1.1//EN"
 "http://www.w3.org/Graphics/SVG/1.1/DTD/svg11.dtd">
<!-- Generated by graphviz version 12.2.1 (20241206.2353)
 -->
<!-- Title: Graphical Class Hierarchy Pages: 1 -->
<svg width="448pt" height="50pt"
 viewBox="0.00 0.00 448.25 49.75" xmlns="http://www.w3.org/2000/svg" xmlns:xlink="http://www.w3.org/1999/xlink">
<g id="graph0" class="graph" transform="scale(1 1) rotate(0) translate(4 45.75)">
<title>Graphical Class Hierarchy</title>
<!-- Node0 -->
<g id="Node000000" class="node">
<title>Node0</title>
<g id="a_Node000000"><a xlink:href="class_optimist_1_1_solver.html" target="_top" xlink:title=" ">
<polygon fill="white" stroke="#666666" points="142.75,-36.12 0,-36.12 0,-5.62 142.75,-5.62 142.75,-36.12"/>
<text text-anchor="start" x="8" y="-22.62" font-family="Helvetica,sans-Serif" font-size="10.00">Optimist::Solver&lt; Real,</text>
<text text-anchor="middle" x="71.38" y="-11.38" font-family="Helvetica,sans-Serif" font-size="10.00"> N, N, Chebyshev&lt; Real &gt; &gt;</text>
</a>
</g>
</g>
<!-- Node1 -->
<g id="Node000001" class="node">
<title>Node1</title>
<g id="a_Node000001"><a xlink:href="class_optimist_1_1_root_finder_1_1_root_finder.html" target="_top" xlink:title=" ">
<polygon fill="white" stroke="#666666" points="294.5,-41.75 178.75,-41.75 178.75,0 294.5,0 294.5,-41.75"/>
<text text-anchor="start" x="186.75" y="-28.25" font-family="Helvetica,sans-Serif" font-size="10.00">Optimist::RootFinder</text>
<text text-anchor="start" x="186.75" y="-17" font-family="Helvetica,sans-Serif" font-size="10.00">::RootFinder&lt; Real, 1,</text>
<text text-anchor="middle" x="236.62" y="-5.75" font-family="Helvetica,sans-Serif" font-size="10.00"> Chebyshev&lt; Real &gt; &gt;</text>
</a>
</g>
</g>
<!-- Node0&#45;&gt;Node1 -->
<g id="edge56_Node000000_Node000001" class="edge">
<title>Node0&#45;&gt;Node1</title>
<g id="a_edge56_Node000000_Node000001"><a xlink:title=" ">
<path fill="none" stroke="#63b8ff" d="M154.52,-20.88C162.67,-20.88 170.81,-20.88 178.62,-20.88"/>
<polygon fill="#63b8ff" stroke="#63b8ff" points="154.54,-17.38 144.54,-20.88 154.54,-24.38 154.54,-17.38"/>
</a>
</g>
</g>
<!-- Node2 -->
<g id="Node000002" class="node">
<title>Node2</title>
<g id="a_Node000002"><a xlink:href="class_optimist_1_1_root_finder_1_1_chebyshev.html" target="_top" xlink:title="Class container for the Chebyshev&#39;s method.">
<polygon fill="white" stroke="#666666" points="440.25,-36.12 330.5,-36.12 330.5,-5.62 440.25,-5.62 440.25,-36.12"/>
<text text-anchor="start" x="338.5" y="-22.62" font-family="Helvetica,sans-Serif" font-size="10.00">Optimist::RootFinder</text>
<text text-anchor="middle" x="385.38" y="-11.38" font-family="Helvetica,sans-Serif" font-size="10.00">::Chebyshev&lt; Real &gt;</text>
</a>
</g>
</g>
<!-- Node1&#45;&gt;Node2 -->
<g id="edge57_Node000001_Node000002" class="edge">
<title>Node1&#45;&gt;Node2</title>
<g id="a_edge57_Node000001_Node000002"><a xlink:title=" ">
<path fill="none" stroke="#63b8ff" d="M306.05,-20.88C314.09,-20.88 322.21,-20.88 330.02,-20.88"/>
<polygon fill="#63b8ff" stroke="#63b8ff" points="306.3,-17.38 296.3,-20.88 306.3,-24.38 306.3,-17.38"/>
</a>
</g>
</g>
</g>
</svg>
