<?xml version="1.0" encoding="UTF-8" standalone="no"?>
<!DOCTYPE svg PUBLIC "-//W3C//DTD SVG 1.1//EN"
 "http://www.w3.org/Graphics/SVG/1.1/DTD/svg11.dtd">
<!-- Generated by graphviz version 12.2.1 (20241206.2353)
 -->
<!-- Title: Graphical Class Hierarchy Pages: 1 -->
<svg width="464pt" height="39pt"
 viewBox="0.00 0.00 464.00 38.50" xmlns="http://www.w3.org/2000/svg" xmlns:xlink="http://www.w3.org/1999/xlink">
<g id="graph0" class="graph" transform="scale(1 1) rotate(0) translate(4 34.5)">
<title>Graphical Class Hierarchy</title>
<!-- Node0 -->
<g id="Node000000" class="node">
<title>Node0</title>
<g id="a_Node000000"><a xlink:href="class_optimist_1_1_solver.html" target="_top" xlink:title=" ">
<polygon fill="white" stroke="#666666" points="103.75,-30.5 0,-30.5 0,0 103.75,0 103.75,-30.5"/>
<text text-anchor="start" x="8" y="-17" font-family="Helvetica,sans-Serif" font-size="10.00">Optimist::Solver&lt; 1,</text>
<text text-anchor="middle" x="51.88" y="-5.75" font-family="Helvetica,sans-Serif" font-size="10.00"> 1, Varona &gt;</text>
</a>
</g>
</g>
<!-- Node1 -->
<g id="Node000001" class="node">
<title>Node1</title>
<g id="a_Node000001"><a xlink:href="class_optimist_1_1_scalar_root_finder_1_1_scalar_root_finder.html" target="_top" xlink:title=" ">
<polygon fill="white" stroke="#666666" points="285.5,-30.5 139.75,-30.5 139.75,0 285.5,0 285.5,-30.5"/>
<text text-anchor="start" x="147.75" y="-17" font-family="Helvetica,sans-Serif" font-size="10.00">Optimist::ScalarRootFinder</text>
<text text-anchor="middle" x="212.62" y="-5.75" font-family="Helvetica,sans-Serif" font-size="10.00">::ScalarRootFinder&lt; Varona &gt;</text>
</a>
</g>
</g>
<!-- Node0&#45;&gt;Node1 -->
<g id="edge41_Node000000_Node000001" class="edge">
<title>Node0&#45;&gt;Node1</title>
<g id="a_edge41_Node000000_Node000001"><a xlink:title=" ">
<path fill="none" stroke="#63b8ff" d="M115.38,-15.25C123.3,-15.25 131.46,-15.25 139.51,-15.25"/>
<polygon fill="#63b8ff" stroke="#63b8ff" points="115.49,-11.75 105.49,-15.25 115.49,-18.75 115.49,-11.75"/>
</a>
</g>
</g>
<!-- Node2 -->
<g id="Node000002" class="node">
<title>Node2</title>
<g id="a_Node000002"><a xlink:href="class_optimist_1_1_scalar_root_finder_1_1_varona.html" target="_top" xlink:title="Class container for the Varona&#39;s methods.">
<polygon fill="white" stroke="#666666" points="456,-30.5 321.5,-30.5 321.5,0 456,0 456,-30.5"/>
<text text-anchor="start" x="329.5" y="-17" font-family="Helvetica,sans-Serif" font-size="10.00">Optimist::ScalarRootFinder</text>
<text text-anchor="middle" x="388.75" y="-5.75" font-family="Helvetica,sans-Serif" font-size="10.00">::Varona</text>
</a>
</g>
</g>
<!-- Node1&#45;&gt;Node2 -->
<g id="edge42_Node000001_Node000002" class="edge">
<title>Node1&#45;&gt;Node2</title>
<g id="a_edge42_Node000001_Node000002"><a xlink:title=" ">
<path fill="none" stroke="#63b8ff" d="M297.26,-15.25C305.3,-15.25 313.38,-15.25 321.22,-15.25"/>
<polygon fill="#63b8ff" stroke="#63b8ff" points="297.47,-11.75 287.47,-15.25 297.47,-18.75 297.47,-11.75"/>
</a>
</g>
</g>
</g>
</svg>
