<?xml version="1.0" encoding="UTF-8" standalone="no"?>
<!DOCTYPE svg PUBLIC "-//W3C//DTD SVG 1.1//EN"
 "http://www.w3.org/Graphics/SVG/1.1/DTD/svg11.dtd">
<!-- Generated by graphviz version 12.2.1 (20241206.2353)
 -->
<!-- Title: Graphical Class Hierarchy Pages: 1 -->
<svg width="467pt" height="50pt"
 viewBox="0.00 0.00 467.00 49.75" xmlns="http://www.w3.org/2000/svg" xmlns:xlink="http://www.w3.org/1999/xlink">
<g id="graph0" class="graph" transform="scale(1 1) rotate(0) translate(4 45.75)">
<title>Graphical Class Hierarchy</title>
<!-- Node0 -->
<g id="Node000000" class="node">
<title>Node0</title>
<g id="a_Node000000"><a xlink:href="class_optimist_1_1_function.html" target="_top" xlink:title=" ">
<polygon fill="white" stroke="#666666" points="151,-41.75 0,-41.75 0,0 151,0 151,-41.75"/>
<text text-anchor="start" x="8" y="-28.25" font-family="Helvetica,sans-Serif" font-size="10.00">Optimist::Function</text>
<text text-anchor="start" x="8" y="-17" font-family="Helvetica,sans-Serif" font-size="10.00">&lt; Real, N, 1, EllipticParaboloid</text>
<text text-anchor="middle" x="75.5" y="-5.75" font-family="Helvetica,sans-Serif" font-size="10.00">&lt; Real &gt; &gt;</text>
</a>
</g>
</g>
<!-- Node1 -->
<g id="Node000001" class="node">
<title>Node1</title>
<g id="a_Node000001"><a xlink:href="class_optimist_1_1_cost_function.html" target="_top" xlink:title=" ">
<polygon fill="white" stroke="#666666" points="324.5,-41.75 187,-41.75 187,0 324.5,0 324.5,-41.75"/>
<text text-anchor="start" x="195" y="-28.25" font-family="Helvetica,sans-Serif" font-size="10.00">Optimist::CostFunction</text>
<text text-anchor="start" x="195" y="-17" font-family="Helvetica,sans-Serif" font-size="10.00">&lt; Real, 2, EllipticParaboloid</text>
<text text-anchor="middle" x="255.75" y="-5.75" font-family="Helvetica,sans-Serif" font-size="10.00">&lt; Real &gt; &gt;</text>
</a>
</g>
</g>
<!-- Node0&#45;&gt;Node1 -->
<g id="edge15_Node000000_Node000001" class="edge">
<title>Node0&#45;&gt;Node1</title>
<g id="a_edge15_Node000000_Node000001"><a xlink:title=" ">
<path fill="none" stroke="#63b8ff" d="M162.66,-20.88C170.71,-20.88 178.8,-20.88 186.65,-20.88"/>
<polygon fill="#63b8ff" stroke="#63b8ff" points="162.83,-17.38 152.83,-20.88 162.83,-24.38 162.83,-17.38"/>
</a>
</g>
</g>
<!-- Node2 -->
<g id="Node000002" class="node">
<title>Node2</title>
<g id="a_Node000002"><a xlink:href="class_optimist_1_1_test_set_1_1_elliptic_paraboloid.html" target="_top" xlink:title="Class container for the paraboloid function.">
<polygon fill="white" stroke="#666666" points="459,-41.75 360.5,-41.75 360.5,0 459,0 459,-41.75"/>
<text text-anchor="start" x="368.5" y="-28.25" font-family="Helvetica,sans-Serif" font-size="10.00">Optimist::TestSet::</text>
<text text-anchor="start" x="368.5" y="-17" font-family="Helvetica,sans-Serif" font-size="10.00">EllipticParaboloid&lt;</text>
<text text-anchor="middle" x="409.75" y="-5.75" font-family="Helvetica,sans-Serif" font-size="10.00"> Real &gt;</text>
</a>
</g>
</g>
<!-- Node1&#45;&gt;Node2 -->
<g id="edge16_Node000001_Node000002" class="edge">
<title>Node1&#45;&gt;Node2</title>
<g id="a_edge16_Node000001_Node000002"><a xlink:title=" ">
<path fill="none" stroke="#63b8ff" d="M336.05,-20.88C344.35,-20.88 352.59,-20.88 360.38,-20.88"/>
<polygon fill="#63b8ff" stroke="#63b8ff" points="336.26,-17.38 326.26,-20.88 336.26,-24.38 336.26,-17.38"/>
</a>
</g>
</g>
</g>
</svg>
