<?xml version="1.0" encoding="UTF-8" standalone="no"?>
<!DOCTYPE svg PUBLIC "-//W3C//DTD SVG 1.1//EN"
 "http://www.w3.org/Graphics/SVG/1.1/DTD/svg11.dtd">
<!-- Generated by graphviz version 12.2.1 (20241206.2353)
 -->
<!-- Title: Graphical Class Hierarchy Pages: 1 -->
<svg width="438pt" height="39pt"
 viewBox="0.00 0.00 437.75 38.50" xmlns="http://www.w3.org/2000/svg" xmlns:xlink="http://www.w3.org/1999/xlink">
<g id="graph0" class="graph" transform="scale(1 1) rotate(0) translate(4 34.5)">
<title>Graphical Class Hierarchy</title>
<!-- Node0 -->
<g id="Node000000" class="node">
<title>Node0</title>
<g id="a_Node000000"><a xlink:href="class_optimist_1_1_function.html" target="_top" xlink:title=" ">
<polygon fill="white" stroke="#666666" points="135.25,-30.5 0,-30.5 0,0 135.25,0 135.25,-30.5"/>
<text text-anchor="start" x="8" y="-17" font-family="Helvetica,sans-Serif" font-size="10.00">Optimist::Function</text>
<text text-anchor="middle" x="67.62" y="-5.75" font-family="Helvetica,sans-Serif" font-size="10.00">&lt; Real, 1, 1, Sin&lt; Real &gt; &gt;</text>
</a>
</g>
</g>
<!-- Node1 -->
<g id="Node000001" class="node">
<title>Node1</title>
<g id="a_Node000001"><a xlink:href="class_optimist_1_1_scalar_function.html" target="_top" xlink:title=" ">
<polygon fill="white" stroke="#666666" points="295.25,-30.5 171.25,-30.5 171.25,0 295.25,0 295.25,-30.5"/>
<text text-anchor="start" x="179.25" y="-17" font-family="Helvetica,sans-Serif" font-size="10.00">Optimist::ScalarFunction</text>
<text text-anchor="middle" x="233.25" y="-5.75" font-family="Helvetica,sans-Serif" font-size="10.00">&lt; Real, Sin&lt; Real &gt; &gt;</text>
</a>
</g>
</g>
<!-- Node0&#45;&gt;Node1 -->
<g id="edge10_Node000000_Node000001" class="edge">
<title>Node0&#45;&gt;Node1</title>
<g id="a_edge10_Node000000_Node000001"><a xlink:title=" ">
<path fill="none" stroke="#63b8ff" d="M146.94,-15.25C154.97,-15.25 163.04,-15.25 170.85,-15.25"/>
<polygon fill="#63b8ff" stroke="#63b8ff" points="147.16,-11.75 137.16,-15.25 147.16,-18.75 147.16,-11.75"/>
</a>
</g>
</g>
<!-- Node2 -->
<g id="Node000002" class="node">
<title>Node2</title>
<g id="a_Node000002"><a xlink:href="class_optimist_1_1_test_set_1_1_sin.html" target="_top" xlink:title="Class container for the sine function.">
<polygon fill="white" stroke="#666666" points="429.75,-30.5 331.25,-30.5 331.25,0 429.75,0 429.75,-30.5"/>
<text text-anchor="start" x="339.25" y="-17" font-family="Helvetica,sans-Serif" font-size="10.00">Optimist::TestSet::</text>
<text text-anchor="middle" x="380.5" y="-5.75" font-family="Helvetica,sans-Serif" font-size="10.00">Sin&lt; Real &gt;</text>
</a>
</g>
</g>
<!-- Node1&#45;&gt;Node2 -->
<g id="edge11_Node000001_Node000002" class="edge">
<title>Node1&#45;&gt;Node2</title>
<g id="a_edge11_Node000001_Node000002"><a xlink:title=" ">
<path fill="none" stroke="#63b8ff" d="M306.7,-15.25C315.01,-15.25 323.31,-15.25 331.18,-15.25"/>
<polygon fill="#63b8ff" stroke="#63b8ff" points="306.94,-11.75 296.94,-15.25 306.94,-18.75 306.94,-11.75"/>
</a>
</g>
</g>
</g>
</svg>
