<?xml version="1.0" encoding="UTF-8" standalone="no"?>
<!DOCTYPE svg PUBLIC "-//W3C//DTD SVG 1.1//EN"
 "http://www.w3.org/Graphics/SVG/1.1/DTD/svg11.dtd">
<!-- Generated by graphviz version 12.2.1 (20241206.2353)
 -->
<!-- Title: Graphical Class Hierarchy Pages: 1 -->
<svg width="424pt" height="50pt"
 viewBox="0.00 0.00 423.50 49.75" xmlns="http://www.w3.org/2000/svg" xmlns:xlink="http://www.w3.org/1999/xlink">
<g id="graph0" class="graph" transform="scale(1 1) rotate(0) translate(4 45.75)">
<title>Graphical Class Hierarchy</title>
<!-- Node0 -->
<g id="Node000000" class="node">
<title>Node0</title>
<g id="a_Node000000"><a xlink:href="class_optimist_1_1_solver.html" target="_top" xlink:title=" ">
<polygon fill="white" stroke="#666666" points="123.25,-36.12 0,-36.12 0,-5.62 123.25,-5.62 123.25,-36.12"/>
<text text-anchor="start" x="8" y="-22.62" font-family="Helvetica,sans-Serif" font-size="10.00">Optimist::Solver&lt; Real,</text>
<text text-anchor="middle" x="61.62" y="-11.38" font-family="Helvetica,sans-Serif" font-size="10.00"> N, N, Varona&lt; Real &gt; &gt;</text>
</a>
</g>
</g>
<!-- Node1 -->
<g id="Node000001" class="node">
<title>Node1</title>
<g id="a_Node000001"><a xlink:href="class_optimist_1_1_root_finder_1_1_root_finder.html" target="_top" xlink:title=" ">
<polygon fill="white" stroke="#666666" points="272.75,-41.75 159.25,-41.75 159.25,0 272.75,0 272.75,-41.75"/>
<text text-anchor="start" x="167.25" y="-28.25" font-family="Helvetica,sans-Serif" font-size="10.00">Optimist::RootFinder</text>
<text text-anchor="start" x="167.25" y="-17" font-family="Helvetica,sans-Serif" font-size="10.00">::RootFinder&lt; Real, 1,</text>
<text text-anchor="middle" x="216" y="-5.75" font-family="Helvetica,sans-Serif" font-size="10.00"> Varona&lt; Real &gt; &gt;</text>
</a>
</g>
</g>
<!-- Node0&#45;&gt;Node1 -->
<g id="edge63_Node000000_Node000001" class="edge">
<title>Node0&#45;&gt;Node1</title>
<g id="a_edge63_Node000000_Node000001"><a xlink:title=" ">
<path fill="none" stroke="#63b8ff" d="M134.97,-20.88C142.99,-20.88 151.05,-20.88 158.82,-20.88"/>
<polygon fill="#63b8ff" stroke="#63b8ff" points="135.24,-17.38 125.24,-20.88 135.24,-24.38 135.24,-17.38"/>
</a>
</g>
</g>
<!-- Node2 -->
<g id="Node000002" class="node">
<title>Node2</title>
<g id="a_Node000002"><a xlink:href="class_optimist_1_1_root_finder_1_1_varona.html" target="_top" xlink:title="Class container for the Varona&#39;s methods.">
<polygon fill="white" stroke="#666666" points="415.5,-36.12 308.75,-36.12 308.75,-5.62 415.5,-5.62 415.5,-36.12"/>
<text text-anchor="start" x="316.75" y="-22.62" font-family="Helvetica,sans-Serif" font-size="10.00">Optimist::RootFinder</text>
<text text-anchor="middle" x="362.12" y="-11.38" font-family="Helvetica,sans-Serif" font-size="10.00">::Varona&lt; Real &gt;</text>
</a>
</g>
</g>
<!-- Node1&#45;&gt;Node2 -->
<g id="edge64_Node000001_Node000002" class="edge">
<title>Node1&#45;&gt;Node2</title>
<g id="a_edge64_Node000001_Node000002"><a xlink:title=" ">
<path fill="none" stroke="#63b8ff" d="M284.51,-20.88C292.63,-20.88 300.82,-20.88 308.68,-20.88"/>
<polygon fill="#63b8ff" stroke="#63b8ff" points="284.65,-17.38 274.65,-20.88 284.65,-24.38 284.65,-17.38"/>
</a>
</g>
</g>
</g>
</svg>
