<?xml version="1.0" encoding="UTF-8" standalone="no"?>
<!DOCTYPE svg PUBLIC "-//W3C//DTD SVG 1.1//EN"
 "http://www.w3.org/Graphics/SVG/1.1/DTD/svg11.dtd">
<!-- Generated by graphviz version 12.2.1 (20241206.2353)
 -->
<!-- Title: Graphical Class Hierarchy Pages: 1 -->
<svg width="325pt" height="88pt"
 viewBox="0.00 0.00 325.00 87.50" xmlns="http://www.w3.org/2000/svg" xmlns:xlink="http://www.w3.org/1999/xlink">
<g id="graph0" class="graph" transform="scale(1 1) rotate(0) translate(4 83.5)">
<title>Graphical Class Hierarchy</title>
<!-- Node0 -->
<g id="Node000000" class="node">
<title>Node0</title>
<g id="a_Node000000"><a xlink:href="class_optimist_1_1_solver.html" target="_top" xlink:title=" ">
<polygon fill="white" stroke="#666666" points="103.75,-54.5 0,-54.5 0,-24 103.75,-24 103.75,-54.5"/>
<text text-anchor="start" x="8" y="-41" font-family="Helvetica,sans-Serif" font-size="10.00">Optimist::Solver&lt; 1,</text>
<text text-anchor="middle" x="51.88" y="-29.75" font-family="Helvetica,sans-Serif" font-size="10.00"> 1, DerivedSolver &gt;</text>
</a>
</g>
</g>
<!-- Node1 -->
<g id="Node000001" class="node">
<title>Node1</title>
<g id="a_Node000001"><a xlink:href="class_optimist_1_1_scalar_optimizer_1_1_scalar_optimizer.html" target="_top" xlink:title="Class container for the scalar optimizer.">
<polygon fill="white" stroke="#666666" points="314,-79.5 142.75,-79.5 142.75,-49 314,-49 314,-79.5"/>
<text text-anchor="start" x="150.75" y="-66" font-family="Helvetica,sans-Serif" font-size="10.00">Optimist::ScalarOptimizer</text>
<text text-anchor="middle" x="228.38" y="-54.75" font-family="Helvetica,sans-Serif" font-size="10.00">::ScalarOptimizer&lt; DerivedSolver &gt;</text>
</a>
</g>
</g>
<!-- Node0&#45;&gt;Node1 -->
<g id="edge26_Node000000_Node000001" class="edge">
<title>Node0&#45;&gt;Node1</title>
<g id="a_edge26_Node000000_Node000001"><a xlink:title=" ">
<path fill="none" stroke="#63b8ff" d="M114.93,-48.14C123.89,-49.42 133.24,-50.76 142.55,-52.1"/>
<polygon fill="#63b8ff" stroke="#63b8ff" points="115.71,-44.72 105.31,-46.76 114.72,-51.65 115.71,-44.72"/>
</a>
</g>
</g>
<!-- Node2 -->
<g id="Node000002" class="node">
<title>Node2</title>
<g id="a_Node000002"><a xlink:href="class_optimist_1_1_scalar_root_finder_1_1_scalar_root_finder.html" target="_top" xlink:title="Class container for the scalar scalar root&#45;finder.">
<polygon fill="white" stroke="#666666" points="317,-30.5 139.75,-30.5 139.75,0 317,0 317,-30.5"/>
<text text-anchor="start" x="147.75" y="-17" font-family="Helvetica,sans-Serif" font-size="10.00">Optimist::ScalarRootFinder</text>
<text text-anchor="middle" x="228.38" y="-5.75" font-family="Helvetica,sans-Serif" font-size="10.00">::ScalarRootFinder&lt; DerivedSolver &gt;</text>
</a>
</g>
</g>
<!-- Node0&#45;&gt;Node2 -->
<g id="edge27_Node000000_Node000002" class="edge">
<title>Node0&#45;&gt;Node2</title>
<g id="a_edge27_Node000000_Node000002"><a xlink:title=" ">
<path fill="none" stroke="#63b8ff" d="M115.09,-30.69C122.95,-29.61 131.1,-28.49 139.27,-27.37"/>
<polygon fill="#63b8ff" stroke="#63b8ff" points="114.75,-27.21 105.32,-32.04 115.7,-34.14 114.75,-27.21"/>
</a>
</g>
</g>
</g>
</svg>
