<?xml version="1.0" encoding="UTF-8" standalone="no"?>
<!DOCTYPE svg PUBLIC "-//W3C//DTD SVG 1.1//EN"
 "http://www.w3.org/Graphics/SVG/1.1/DTD/svg11.dtd">
<!-- Generated by graphviz version 12.2.1 (20241206.2353)
 -->
<!-- Title: Graphical Class Hierarchy Pages: 1 -->
<svg width="454pt" height="39pt"
 viewBox="0.00 0.00 454.25 38.50" xmlns="http://www.w3.org/2000/svg" xmlns:xlink="http://www.w3.org/1999/xlink">
<g id="graph0" class="graph" transform="scale(1 1) rotate(0) translate(4 34.5)">
<title>Graphical Class Hierarchy</title>
<!-- Node0 -->
<g id="Node000000" class="node">
<title>Node0</title>
<g id="a_Node000000"><a xlink:href="class_optimist_1_1_function_base.html" target="_top" xlink:title=" ">
<polygon fill="white" stroke="#666666" points="140.5,-30.5 0,-30.5 0,0 140.5,0 140.5,-30.5"/>
<text text-anchor="start" x="8" y="-17" font-family="Helvetica,sans-Serif" font-size="10.00">Optimist::FunctionBase</text>
<text text-anchor="middle" x="70.25" y="-5.75" font-family="Helvetica,sans-Serif" font-size="10.00">&lt; Real, N, M, Sin&lt; Real &gt; &gt;</text>
</a>
</g>
</g>
<!-- Node1 -->
<g id="Node000001" class="node">
<title>Node1</title>
<g id="a_Node000001"><a xlink:href="class_optimist_1_1_function.html" target="_top" xlink:title=" ">
<polygon fill="white" stroke="#666666" points="311.75,-30.5 176.5,-30.5 176.5,0 311.75,0 311.75,-30.5"/>
<text text-anchor="start" x="184.5" y="-17" font-family="Helvetica,sans-Serif" font-size="10.00">Optimist::Function</text>
<text text-anchor="middle" x="244.12" y="-5.75" font-family="Helvetica,sans-Serif" font-size="10.00">&lt; Real, 1, 1, Sin&lt; Real &gt; &gt;</text>
</a>
</g>
</g>
<!-- Node0&#45;&gt;Node1 -->
<g id="edge29_Node000000_Node000001" class="edge">
<title>Node0&#45;&gt;Node1</title>
<g id="a_edge29_Node000000_Node000001"><a xlink:title=" ">
<path fill="none" stroke="#63b8ff" d="M152.04,-15.25C160.15,-15.25 168.31,-15.25 176.24,-15.25"/>
<polygon fill="#63b8ff" stroke="#63b8ff" points="152.18,-11.75 142.18,-15.25 152.18,-18.75 152.18,-11.75"/>
</a>
</g>
</g>
<!-- Node2 -->
<g id="Node000002" class="node">
<title>Node2</title>
<g id="a_Node000002"><a xlink:href="class_optimist_1_1_test_set_1_1_sin.html" target="_top" xlink:title="Class container for the sine function.">
<polygon fill="white" stroke="#666666" points="446.25,-30.5 347.75,-30.5 347.75,0 446.25,0 446.25,-30.5"/>
<text text-anchor="start" x="355.75" y="-17" font-family="Helvetica,sans-Serif" font-size="10.00">Optimist::TestSet::</text>
<text text-anchor="middle" x="397" y="-5.75" font-family="Helvetica,sans-Serif" font-size="10.00">Sin&lt; Real &gt;</text>
</a>
</g>
</g>
<!-- Node1&#45;&gt;Node2 -->
<g id="edge30_Node000001_Node000002" class="edge">
<title>Node1&#45;&gt;Node2</title>
<g id="a_edge30_Node000001_Node000002"><a xlink:title=" ">
<path fill="none" stroke="#63b8ff" d="M323.57,-15.25C331.63,-15.25 339.65,-15.25 347.25,-15.25"/>
<polygon fill="#63b8ff" stroke="#63b8ff" points="323.69,-11.75 313.69,-15.25 323.69,-18.75 323.69,-11.75"/>
</a>
</g>
</g>
</g>
</svg>
