<?xml version="1.0" encoding="UTF-8" standalone="no"?>
<!DOCTYPE svg PUBLIC "-//W3C//DTD SVG 1.1//EN"
 "http://www.w3.org/Graphics/SVG/1.1/DTD/svg11.dtd">
<!-- Generated by graphviz version 12.2.1 (20241206.2353)
 -->
<!-- Title: Graphical Class Hierarchy Pages: 1 -->
<svg width="472pt" height="327pt"
 viewBox="0.00 0.00 471.50 327.12" xmlns="http://www.w3.org/2000/svg" xmlns:xlink="http://www.w3.org/1999/xlink">
<g id="graph0" class="graph" transform="scale(1 1) rotate(0) translate(4 323.12)">
<title>Graphical Class Hierarchy</title>
<!-- Node0 -->
<g id="Node000000" class="node">
<title>Node0</title>
<g id="a_Node000000"><a xlink:href="class_optimist_1_1_solver.html" target="_top" xlink:title=" ">
<polygon fill="white" stroke="#666666" points="128.5,-198.5 9.75,-198.5 9.75,-168 128.5,-168 128.5,-198.5"/>
<text text-anchor="start" x="17.75" y="-185" font-family="Helvetica,sans-Serif" font-size="10.00">Optimist::Solver&lt; Real,</text>
<text text-anchor="middle" x="69.12" y="-173.75" font-family="Helvetica,sans-Serif" font-size="10.00"> 1, 1, DerivedSolver &gt;</text>
</a>
</g>
</g>
<!-- Node1 -->
<g id="Node000001" class="node">
<title>Node1</title>
<g id="a_Node000001"><a xlink:href="class_optimist_1_1_optimizer_1_1_optimizer_3_01_real_00_011_00_01_derived_solver_01_4.html" target="_top" xlink:title="Class container for the scalar optimizer.">
<polygon fill="white" stroke="#666666" points="285.88,-259.12 178.38,-259.12 178.38,-217.38 285.88,-217.38 285.88,-259.12"/>
<text text-anchor="start" x="186.38" y="-245.62" font-family="Helvetica,sans-Serif" font-size="10.00">Optimist::Optimizer</text>
<text text-anchor="start" x="186.38" y="-234.38" font-family="Helvetica,sans-Serif" font-size="10.00">::Optimizer&lt; Real, 1,</text>
<text text-anchor="middle" x="232.12" y="-223.12" font-family="Helvetica,sans-Serif" font-size="10.00"> DerivedSolver &gt;</text>
</a>
</g>
</g>
<!-- Node0&#45;&gt;Node1 -->
<g id="edge31_Node000000_Node000001" class="edge">
<title>Node0&#45;&gt;Node1</title>
<g id="a_edge31_Node000000_Node000001"><a xlink:title=" ">
<path fill="none" stroke="#63b8ff" d="M126.54,-202.52C143.23,-208.22 161.43,-214.44 177.91,-220.07"/>
<polygon fill="#63b8ff" stroke="#63b8ff" points="127.86,-199.27 117.26,-199.35 125.59,-205.9 127.86,-199.27"/>
</a>
</g>
</g>
<!-- Node4 -->
<g id="Node000004" class="node">
<title>Node4</title>
<g id="a_Node000004"><a xlink:href="class_optimist_1_1_root_finder_1_1_root_finder_3_01_real_00_011_00_01_derived_solver_01_4.html" target="_top" xlink:title="Class container for the scalar scalar root&#45;finder.">
<polygon fill="white" stroke="#666666" points="288.88,-199.12 175.38,-199.12 175.38,-157.38 288.88,-157.38 288.88,-199.12"/>
<text text-anchor="start" x="183.38" y="-185.62" font-family="Helvetica,sans-Serif" font-size="10.00">Optimist::RootFinder</text>
<text text-anchor="start" x="183.38" y="-174.38" font-family="Helvetica,sans-Serif" font-size="10.00">::RootFinder&lt; Real, 1,</text>
<text text-anchor="middle" x="232.12" y="-163.12" font-family="Helvetica,sans-Serif" font-size="10.00"> DerivedSolver &gt;</text>
</a>
</g>
</g>
<!-- Node0&#45;&gt;Node4 -->
<g id="edge32_Node000000_Node000004" class="edge">
<title>Node0&#45;&gt;Node4</title>
<g id="a_edge32_Node000000_Node000004"><a xlink:title=" ">
<path fill="none" stroke="#63b8ff" d="M140.21,-181.07C151.84,-180.71 163.77,-180.34 175.01,-179.99"/>
<polygon fill="#63b8ff" stroke="#63b8ff" points="140.1,-177.57 130.22,-181.38 140.32,-184.57 140.1,-177.57"/>
</a>
</g>
</g>
<!-- Node5 -->
<g id="Node000005" class="node">
<title>Node5</title>
<g id="a_Node000005"><a xlink:href="class_optimist_1_1_root_finder_1_1_bracketing.html" target="_top" xlink:title="Class container for the Bracketing algorithms.">
<polygon fill="white" stroke="#666666" points="463.5,-199.12 326,-199.12 326,-157.38 463.5,-157.38 463.5,-199.12"/>
<text text-anchor="start" x="334" y="-185.62" font-family="Helvetica,sans-Serif" font-size="10.00">Optimist::RootFinder</text>
<text text-anchor="start" x="334" y="-174.38" font-family="Helvetica,sans-Serif" font-size="10.00">::Bracketing&lt; Real, Derived</text>
<text text-anchor="middle" x="394.75" y="-163.12" font-family="Helvetica,sans-Serif" font-size="10.00">Solver &gt;</text>
</a>
</g>
</g>
<!-- Node4&#45;&gt;Node5 -->
<g id="edge33_Node000004_Node000005" class="edge">
<title>Node4&#45;&gt;Node5</title>
<g id="a_edge33_Node000004_Node000005"><a xlink:title=" ">
<path fill="none" stroke="#63b8ff" d="M300.8,-178.25C309.05,-178.25 317.47,-178.25 325.73,-178.25"/>
<polygon fill="#63b8ff" stroke="#63b8ff" points="300.82,-174.75 290.82,-178.25 300.82,-181.75 300.82,-174.75"/>
</a>
</g>
</g>
<!-- Node2 -->
<g id="Node000002" class="node">
<title>Node2</title>
<g id="a_Node000002"><a xlink:href="class_optimist_1_1_solver.html" target="_top" xlink:title=" ">
<polygon fill="white" stroke="#666666" points="128.5,-283.5 9.75,-283.5 9.75,-253 128.5,-253 128.5,-283.5"/>
<text text-anchor="start" x="17.75" y="-270" font-family="Helvetica,sans-Serif" font-size="10.00">Optimist::Solver&lt; Real,</text>
<text text-anchor="middle" x="69.12" y="-258.75" font-family="Helvetica,sans-Serif" font-size="10.00"> N, 1, DerivedSolver &gt;</text>
</a>
</g>
</g>
<!-- Node2&#45;&gt;Node1 -->
<g id="edge34_Node000002_Node000001" class="edge">
<title>Node2&#45;&gt;Node1</title>
<g id="a_edge34_Node000002_Node000001"><a xlink:title=" ">
<path fill="none" stroke="#63b8ff" d="M139.81,-255.27C152.58,-252.89 165.73,-250.44 177.93,-248.16"/>
<polygon fill="#63b8ff" stroke="#63b8ff" points="139.38,-251.78 130.19,-257.06 140.67,-258.67 139.38,-251.78"/>
</a>
</g>
</g>
<!-- Node3 -->
<g id="Node000003" class="node">
<title>Node3</title>
<g id="a_Node000003"><a xlink:href="class_optimist_1_1_optimizer_1_1_optimizer.html" target="_top" xlink:title="Class container for the multi&#45;dimensional optimizer.">
<polygon fill="white" stroke="#666666" points="287,-319.12 177.25,-319.12 177.25,-277.38 287,-277.38 287,-319.12"/>
<text text-anchor="start" x="185.25" y="-305.62" font-family="Helvetica,sans-Serif" font-size="10.00">Optimist::Optimizer</text>
<text text-anchor="start" x="185.25" y="-294.38" font-family="Helvetica,sans-Serif" font-size="10.00">::Optimizer&lt; Real, N,</text>
<text text-anchor="middle" x="232.12" y="-283.12" font-family="Helvetica,sans-Serif" font-size="10.00"> DerivedSolver &gt;</text>
</a>
</g>
</g>
<!-- Node2&#45;&gt;Node3 -->
<g id="edge35_Node000002_Node000003" class="edge">
<title>Node2&#45;&gt;Node3</title>
<g id="a_edge35_Node000002_Node000003"><a xlink:title=" ">
<path fill="none" stroke="#63b8ff" d="M139.93,-281.26C152.3,-283.56 165.01,-285.93 176.87,-288.14"/>
<polygon fill="#63b8ff" stroke="#63b8ff" points="140.67,-277.83 130.19,-279.44 139.38,-284.72 140.67,-277.83"/>
</a>
</g>
</g>
<!-- Node6 -->
<g id="Node000006" class="node">
<title>Node6</title>
<g id="a_Node000006"><a xlink:href="class_optimist_1_1_solver.html" target="_top" xlink:title=" ">
<polygon fill="white" stroke="#666666" points="128.5,-141.5 9.75,-141.5 9.75,-111 128.5,-111 128.5,-141.5"/>
<text text-anchor="start" x="17.75" y="-128" font-family="Helvetica,sans-Serif" font-size="10.00">Optimist::Solver&lt; Real,</text>
<text text-anchor="middle" x="69.12" y="-116.75" font-family="Helvetica,sans-Serif" font-size="10.00"> N, N, DerivedSolver &gt;</text>
</a>
</g>
</g>
<!-- Node6&#45;&gt;Node4 -->
<g id="edge36_Node000006_Node000004" class="edge">
<title>Node6&#45;&gt;Node4</title>
<g id="a_edge36_Node000006_Node000004"><a xlink:title=" ">
<path fill="none" stroke="#63b8ff" d="M129.47,-145.42C144.33,-150.22 160.22,-155.35 174.92,-160.1"/>
<polygon fill="#63b8ff" stroke="#63b8ff" points="130.9,-142.2 120.31,-142.46 128.75,-148.86 130.9,-142.2"/>
</a>
</g>
</g>
<!-- Node7 -->
<g id="Node000007" class="node">
<title>Node7</title>
<g id="a_Node000007"><a xlink:href="class_optimist_1_1_root_finder_1_1_root_finder.html" target="_top" xlink:title="Class container for the multi&#45;dimensional root finder.">
<polygon fill="white" stroke="#666666" points="290,-139.12 174.25,-139.12 174.25,-97.38 290,-97.38 290,-139.12"/>
<text text-anchor="start" x="182.25" y="-125.62" font-family="Helvetica,sans-Serif" font-size="10.00">Optimist::RootFinder</text>
<text text-anchor="start" x="182.25" y="-114.38" font-family="Helvetica,sans-Serif" font-size="10.00">::RootFinder&lt; Real, N,</text>
<text text-anchor="middle" x="232.12" y="-103.12" font-family="Helvetica,sans-Serif" font-size="10.00"> DerivedSolver &gt;</text>
</a>
</g>
</g>
<!-- Node6&#45;&gt;Node7 -->
<g id="edge37_Node000006_Node000007" class="edge">
<title>Node6&#45;&gt;Node7</title>
<g id="a_edge37_Node000006_Node000007"><a xlink:title=" ">
<path fill="none" stroke="#63b8ff" d="M139.93,-122.78C151.28,-122.22 162.93,-121.64 173.93,-121.09"/>
<polygon fill="#63b8ff" stroke="#63b8ff" points="140.03,-119.27 130.22,-123.26 140.38,-126.26 140.03,-119.27"/>
</a>
</g>
</g>
<!-- Node8 -->
<g id="Node000008" class="node">
<title>Node8</title>
<g id="a_Node000008"><a xlink:href="class_optimist_1_1_root_finder_1_1_newton_3_01_real_00_011_01_4.html" target="_top" xlink:title="Class container for the Newton&#39;s method.">
<polygon fill="white" stroke="#666666" points="448.12,-79.5 341.38,-79.5 341.38,-49 448.12,-49 448.12,-79.5"/>
<text text-anchor="start" x="349.38" y="-66" font-family="Helvetica,sans-Serif" font-size="10.00">Optimist::RootFinder</text>
<text text-anchor="middle" x="394.75" y="-54.75" font-family="Helvetica,sans-Serif" font-size="10.00">::Newton&lt; Real, 1 &gt;</text>
</a>
</g>
</g>
<!-- Node7&#45;&gt;Node8 -->
<g id="edge38_Node000007_Node000008" class="edge">
<title>Node7&#45;&gt;Node8</title>
<g id="a_edge38_Node000007_Node000008"><a xlink:title=" ">
<path fill="none" stroke="#63b8ff" d="M300.82,-95.49C316.34,-90.28 332.5,-84.84 346.91,-80"/>
<polygon fill="#63b8ff" stroke="#63b8ff" points="300.01,-92.07 291.64,-98.58 302.24,-98.71 300.01,-92.07"/>
</a>
</g>
</g>
<!-- Node12 -->
<g id="Node000012" class="node">
<title>Node12</title>
<g id="a_Node000012"><a xlink:href="class_optimist_1_1_root_finder_1_1_quasi_newton.html" target="_top" xlink:title="Class container for the QuasiNewton&#39;s method.">
<polygon fill="white" stroke="#666666" points="451.5,-139.12 338,-139.12 338,-97.38 451.5,-97.38 451.5,-139.12"/>
<text text-anchor="start" x="346" y="-125.62" font-family="Helvetica,sans-Serif" font-size="10.00">Optimist::RootFinder</text>
<text text-anchor="start" x="346" y="-114.38" font-family="Helvetica,sans-Serif" font-size="10.00">::QuasiNewton&lt; Real,</text>
<text text-anchor="middle" x="394.75" y="-103.12" font-family="Helvetica,sans-Serif" font-size="10.00"> N, DerivedSolver &gt;</text>
</a>
</g>
</g>
<!-- Node7&#45;&gt;Node12 -->
<g id="edge39_Node000007_Node000012" class="edge">
<title>Node7&#45;&gt;Node12</title>
<g id="a_edge39_Node000007_Node000012"><a xlink:title=" ">
<path fill="none" stroke="#63b8ff" d="M301.59,-118.25C313.62,-118.25 326.02,-118.25 337.66,-118.25"/>
<polygon fill="#63b8ff" stroke="#63b8ff" points="301.72,-114.75 291.72,-118.25 301.72,-121.75 301.72,-114.75"/>
</a>
</g>
</g>
<!-- Node11 -->
<g id="Node000011" class="node">
<title>Node11</title>
<g id="a_Node000011"><a xlink:href="class_optimist_1_1_solver.html" target="_top" xlink:title=" ">
<polygon fill="white" stroke="#666666" points="138.25,-52.5 0,-52.5 0,-22 138.25,-22 138.25,-52.5"/>
<text text-anchor="start" x="8" y="-39" font-family="Helvetica,sans-Serif" font-size="10.00">Optimist::Solver&lt; Real,</text>
<text text-anchor="middle" x="69.12" y="-27.75" font-family="Helvetica,sans-Serif" font-size="10.00"> N, N, Newton&lt; Real, 1 &gt; &gt;</text>
</a>
</g>
</g>
<!-- Node9 -->
<g id="Node000009" class="node">
<title>Node9</title>
<g id="a_Node000009"><a xlink:href="class_optimist_1_1_root_finder_1_1_root_finder.html" target="_top" xlink:title=" ">
<polygon fill="white" stroke="#666666" points="288.88,-58.12 175.38,-58.12 175.38,-16.38 288.88,-16.38 288.88,-58.12"/>
<text text-anchor="start" x="183.38" y="-44.62" font-family="Helvetica,sans-Serif" font-size="10.00">Optimist::RootFinder</text>
<text text-anchor="start" x="183.38" y="-33.38" font-family="Helvetica,sans-Serif" font-size="10.00">::RootFinder&lt; Real, 1,</text>
<text text-anchor="middle" x="232.12" y="-22.12" font-family="Helvetica,sans-Serif" font-size="10.00"> Newton&lt; Real, 1 &gt; &gt;</text>
</a>
</g>
</g>
<!-- Node11&#45;&gt;Node9 -->
<g id="edge40_Node000011_Node000009" class="edge">
<title>Node11&#45;&gt;Node9</title>
<g id="a_edge40_Node000011_Node000009"><a xlink:title=" ">
<path fill="none" stroke="#63b8ff" d="M149.89,-37.25C158.34,-37.25 166.81,-37.25 174.91,-37.25"/>
<polygon fill="#63b8ff" stroke="#63b8ff" points="149.92,-33.75 139.92,-37.25 149.92,-40.75 149.92,-33.75"/>
</a>
</g>
</g>
<!-- Node9&#45;&gt;Node8 -->
<g id="edge42_Node000009_Node000008" class="edge">
<title>Node9&#45;&gt;Node8</title>
<g id="a_edge42_Node000009_Node000008"><a xlink:title=" ">
<path fill="none" stroke="#63b8ff" d="M300.54,-48.58C314.09,-50.86 328.15,-53.22 341.11,-55.4"/>
<polygon fill="#63b8ff" stroke="#63b8ff" points="301.24,-45.15 290.8,-46.94 300.08,-52.05 301.24,-45.15"/>
</a>
</g>
</g>
<!-- Node10 -->
<g id="Node000010" class="node">
<title>Node10</title>
<g id="a_Node000010"><a xlink:href="class_optimist_1_1_root_finder_1_1_newton.html" target="_top" xlink:title="Class container for the Newton&#39;s method.">
<polygon fill="white" stroke="#666666" points="448.5,-30.5 341,-30.5 341,0 448.5,0 448.5,-30.5"/>
<text text-anchor="start" x="349" y="-17" font-family="Helvetica,sans-Serif" font-size="10.00">Optimist::RootFinder</text>
<text text-anchor="middle" x="394.75" y="-5.75" font-family="Helvetica,sans-Serif" font-size="10.00">::Newton&lt; Real, N &gt;</text>
</a>
</g>
</g>
<!-- Node9&#45;&gt;Node10 -->
<g id="edge41_Node000009_Node000010" class="edge">
<title>Node9&#45;&gt;Node10</title>
<g id="a_edge41_Node000009_Node000010"><a xlink:title=" ">
<path fill="none" stroke="#63b8ff" d="M300.41,-28.03C313.82,-26.2 327.72,-24.29 340.57,-22.53"/>
<polygon fill="#63b8ff" stroke="#63b8ff" points="300.24,-24.53 290.8,-29.35 301.19,-31.46 300.24,-24.53"/>
</a>
</g>
</g>
</g>
</svg>
