<?xml version="1.0" encoding="UTF-8" standalone="no"?>
<!DOCTYPE svg PUBLIC "-//W3C//DTD SVG 1.1//EN"
 "http://www.w3.org/Graphics/SVG/1.1/DTD/svg11.dtd">
<!-- Generated by graphviz version 12.2.1 (20241206.2353)
 -->
<!-- Title: Graphical Class Hierarchy Pages: 1 -->
<svg width="693pt" height="50pt"
 viewBox="0.00 0.00 693.00 49.75" xmlns="http://www.w3.org/2000/svg" xmlns:xlink="http://www.w3.org/1999/xlink">
<g id="graph0" class="graph" transform="scale(1 1) rotate(0) translate(4 45.75)">
<title>Graphical Class Hierarchy</title>
<!-- Node0 -->
<g id="Node000000" class="node">
<title>Node0</title>
<g id="a_Node000000"><a xlink:href="class_optimist_1_1_solver.html" target="_top" xlink:title=" ">
<polygon fill="white" stroke="#666666" points="146.5,-36.12 0,-36.12 0,-5.62 146.5,-5.62 146.5,-36.12"/>
<text text-anchor="start" x="8" y="-22.62" font-family="Helvetica,sans-Serif" font-size="10.00">Optimist::Solver&lt; Real,</text>
<text text-anchor="middle" x="73.25" y="-11.38" font-family="Helvetica,sans-Serif" font-size="10.00"> 1, 1, Chandrupatla&lt; Real &gt; &gt;</text>
</a>
</g>
</g>
<!-- Node1 -->
<g id="Node000001" class="node">
<title>Node1</title>
<g id="a_Node000001"><a xlink:href="class_optimist_1_1_scalar_root_finder_1_1_scalar_root_finder.html" target="_top" xlink:title=" ">
<polygon fill="white" stroke="#666666" points="317,-41.75 182.5,-41.75 182.5,0 317,0 317,-41.75"/>
<text text-anchor="start" x="190.5" y="-28.25" font-family="Helvetica,sans-Serif" font-size="10.00">Optimist::ScalarRootFinder</text>
<text text-anchor="start" x="190.5" y="-17" font-family="Helvetica,sans-Serif" font-size="10.00">::ScalarRootFinder&lt; Real,</text>
<text text-anchor="middle" x="249.75" y="-5.75" font-family="Helvetica,sans-Serif" font-size="10.00"> Chandrupatla&lt; Real &gt; &gt;</text>
</a>
</g>
</g>
<!-- Node0&#45;&gt;Node1 -->
<g id="edge34_Node000000_Node000001" class="edge">
<title>Node0&#45;&gt;Node1</title>
<g id="a_edge34_Node000000_Node000001"><a xlink:title=" ">
<path fill="none" stroke="#63b8ff" d="M158.3,-20.88C166.34,-20.88 174.42,-20.88 182.26,-20.88"/>
<polygon fill="#63b8ff" stroke="#63b8ff" points="158.5,-17.38 148.5,-20.88 158.5,-24.38 158.5,-17.38"/>
</a>
</g>
</g>
<!-- Node2 -->
<g id="Node000002" class="node">
<title>Node2</title>
<g id="a_Node000002"><a xlink:href="class_optimist_1_1_scalar_root_finder_1_1_bracketing.html" target="_top" xlink:title=" ">
<polygon fill="white" stroke="#666666" points="514.5,-41.75 353,-41.75 353,0 514.5,0 514.5,-41.75"/>
<text text-anchor="start" x="361" y="-28.25" font-family="Helvetica,sans-Serif" font-size="10.00">Optimist::ScalarRootFinder</text>
<text text-anchor="start" x="361" y="-17" font-family="Helvetica,sans-Serif" font-size="10.00">::Bracketing&lt; Real, Chandrupatla</text>
<text text-anchor="middle" x="433.75" y="-5.75" font-family="Helvetica,sans-Serif" font-size="10.00">&lt; Real &gt; &gt;</text>
</a>
</g>
</g>
<!-- Node1&#45;&gt;Node2 -->
<g id="edge35_Node000001_Node000002" class="edge">
<title>Node1&#45;&gt;Node2</title>
<g id="a_edge35_Node000001_Node000002"><a xlink:title=" ">
<path fill="none" stroke="#63b8ff" d="M328.92,-20.88C336.81,-20.88 344.83,-20.88 352.74,-20.88"/>
<polygon fill="#63b8ff" stroke="#63b8ff" points="329,-17.38 319,-20.88 329,-24.38 329,-17.38"/>
</a>
</g>
</g>
<!-- Node3 -->
<g id="Node000003" class="node">
<title>Node3</title>
<g id="a_Node000003"><a xlink:href="class_optimist_1_1_scalar_root_finder_1_1_chandrupatla.html" target="_top" xlink:title="Class container for the Chandrupatla algorithm.">
<polygon fill="white" stroke="#666666" points="685,-36.12 550.5,-36.12 550.5,-5.62 685,-5.62 685,-36.12"/>
<text text-anchor="start" x="558.5" y="-22.62" font-family="Helvetica,sans-Serif" font-size="10.00">Optimist::ScalarRootFinder</text>
<text text-anchor="middle" x="617.75" y="-11.38" font-family="Helvetica,sans-Serif" font-size="10.00">::Chandrupatla&lt; Real &gt;</text>
</a>
</g>
</g>
<!-- Node2&#45;&gt;Node3 -->
<g id="edge36_Node000002_Node000003" class="edge">
<title>Node2&#45;&gt;Node3</title>
<g id="a_edge36_Node000002_Node000003"><a xlink:title=" ">
<path fill="none" stroke="#63b8ff" d="M526.26,-20.88C534.35,-20.88 542.43,-20.88 550.25,-20.88"/>
<polygon fill="#63b8ff" stroke="#63b8ff" points="526.36,-17.38 516.36,-20.88 526.36,-24.38 526.36,-17.38"/>
</a>
</g>
</g>
</g>
</svg>
