<?xml version="1.0" encoding="UTF-8" standalone="no"?>
<!DOCTYPE svg PUBLIC "-//W3C//DTD SVG 1.1//EN"
 "http://www.w3.org/Graphics/SVG/1.1/DTD/svg11.dtd">
<!-- Generated by graphviz version 12.2.1 (20241206.2353)
 -->
<!-- Title: Graphical Class Hierarchy Pages: 1 -->
<svg width="444pt" height="50pt"
 viewBox="0.00 0.00 443.75 49.75" xmlns="http://www.w3.org/2000/svg" xmlns:xlink="http://www.w3.org/1999/xlink">
<g id="graph0" class="graph" transform="scale(1 1) rotate(0) translate(4 45.75)">
<title>Graphical Class Hierarchy</title>
<!-- Node0 -->
<g id="Node000000" class="node">
<title>Node0</title>
<g id="a_Node000000"><a xlink:href="class_optimist_1_1_function_base.html" target="_top" xlink:title=" ">
<polygon fill="white" stroke="#666666" points="126.25,-41.75 0,-41.75 0,0 126.25,0 126.25,-41.75"/>
<text text-anchor="start" x="8" y="-28.25" font-family="Helvetica,sans-Serif" font-size="10.00">Optimist::FunctionBase</text>
<text text-anchor="start" x="8" y="-17" font-family="Helvetica,sans-Serif" font-size="10.00">&lt; Real, N, M, Cos&lt; Real</text>
<text text-anchor="middle" x="63.12" y="-5.75" font-family="Helvetica,sans-Serif" font-size="10.00"> &gt;, false &gt;</text>
</a>
</g>
</g>
<!-- Node1 -->
<g id="Node000001" class="node">
<title>Node1</title>
<g id="a_Node000001"><a xlink:href="class_optimist_1_1_function.html" target="_top" xlink:title=" ">
<polygon fill="white" stroke="#666666" points="301.25,-36.12 162.25,-36.12 162.25,-5.62 301.25,-5.62 301.25,-36.12"/>
<text text-anchor="start" x="170.25" y="-22.62" font-family="Helvetica,sans-Serif" font-size="10.00">Optimist::Function</text>
<text text-anchor="middle" x="231.75" y="-11.38" font-family="Helvetica,sans-Serif" font-size="10.00">&lt; Real, 1, 1, Cos&lt; Real &gt; &gt;</text>
</a>
</g>
</g>
<!-- Node0&#45;&gt;Node1 -->
<g id="edge10_Node000000_Node000001" class="edge">
<title>Node0&#45;&gt;Node1</title>
<g id="a_edge10_Node000000_Node000001"><a xlink:title=" ">
<path fill="none" stroke="#63b8ff" d="M138.16,-20.88C146.09,-20.88 154.14,-20.88 162.01,-20.88"/>
<polygon fill="#63b8ff" stroke="#63b8ff" points="138.16,-17.38 128.16,-20.88 138.16,-24.38 138.16,-17.38"/>
</a>
</g>
</g>
<!-- Node2 -->
<g id="Node000002" class="node">
<title>Node2</title>
<g id="a_Node000002"><a xlink:href="class_optimist_1_1_test_set_1_1_cos.html" target="_top" xlink:title="Class container for the cosine function.">
<polygon fill="white" stroke="#666666" points="435.75,-36.12 337.25,-36.12 337.25,-5.62 435.75,-5.62 435.75,-36.12"/>
<text text-anchor="start" x="345.25" y="-22.62" font-family="Helvetica,sans-Serif" font-size="10.00">Optimist::TestSet::</text>
<text text-anchor="middle" x="386.5" y="-11.38" font-family="Helvetica,sans-Serif" font-size="10.00">Cos&lt; Real &gt;</text>
</a>
</g>
</g>
<!-- Node1&#45;&gt;Node2 -->
<g id="edge11_Node000001_Node000002" class="edge">
<title>Node1&#45;&gt;Node2</title>
<g id="a_edge11_Node000001_Node000002"><a xlink:title=" ">
<path fill="none" stroke="#63b8ff" d="M312.85,-20.88C321.15,-20.88 329.4,-20.88 337.19,-20.88"/>
<polygon fill="#63b8ff" stroke="#63b8ff" points="313.04,-17.38 303.04,-20.88 313.04,-24.38 313.04,-17.38"/>
</a>
</g>
</g>
</g>
</svg>
