<?xml version="1.0" encoding="UTF-8" standalone="no"?>
<!DOCTYPE svg PUBLIC "-//W3C//DTD SVG 1.1//EN"
 "http://www.w3.org/Graphics/SVG/1.1/DTD/svg11.dtd">
<!-- Generated by graphviz version 12.2.1 (20241206.2353)
 -->
<!-- Title: Graphical Class Hierarchy Pages: 1 -->
<svg width="597pt" height="50pt"
 viewBox="0.00 0.00 597.00 49.75" xmlns="http://www.w3.org/2000/svg" xmlns:xlink="http://www.w3.org/1999/xlink">
<g id="graph0" class="graph" transform="scale(1 1) rotate(0) translate(4 45.75)">
<title>Graphical Class Hierarchy</title>
<!-- Node0 -->
<g id="Node000000" class="node">
<title>Node0</title>
<g id="a_Node000000"><a xlink:href="class_optimist_1_1_solver.html" target="_top" xlink:title=" ">
<polygon fill="white" stroke="#666666" points="106,-36.12 0,-36.12 0,-5.62 106,-5.62 106,-36.12"/>
<text text-anchor="start" x="8" y="-22.62" font-family="Helvetica,sans-Serif" font-size="10.00">Optimist::Solver&lt; N,</text>
<text text-anchor="middle" x="53" y="-11.38" font-family="Helvetica,sans-Serif" font-size="10.00"> N, Broyden&lt; N &gt; &gt;</text>
</a>
</g>
</g>
<!-- Node1 -->
<g id="Node000001" class="node">
<title>Node1</title>
<g id="a_Node000001"><a xlink:href="class_optimist_1_1_root_finder_1_1_root_finder.html" target="_top" xlink:title=" ">
<polygon fill="white" stroke="#666666" points="270.5,-41.75 142,-41.75 142,0 270.5,0 270.5,-41.75"/>
<text text-anchor="start" x="150" y="-28.25" font-family="Helvetica,sans-Serif" font-size="10.00">Optimist::RootFinder</text>
<text text-anchor="start" x="150" y="-17" font-family="Helvetica,sans-Serif" font-size="10.00">::RootFinder&lt; N, Broyden</text>
<text text-anchor="middle" x="206.25" y="-5.75" font-family="Helvetica,sans-Serif" font-size="10.00">&lt; N &gt; &gt;</text>
</a>
</g>
</g>
<!-- Node0&#45;&gt;Node1 -->
<g id="edge35_Node000000_Node000001" class="edge">
<title>Node0&#45;&gt;Node1</title>
<g id="a_edge35_Node000000_Node000001"><a xlink:title=" ">
<path fill="none" stroke="#63b8ff" d="M117.85,-20.88C125.73,-20.88 133.79,-20.88 141.66,-20.88"/>
<polygon fill="#63b8ff" stroke="#63b8ff" points="117.99,-17.38 107.99,-20.88 117.99,-24.38 117.99,-17.38"/>
</a>
</g>
</g>
<!-- Node2 -->
<g id="Node000002" class="node">
<title>Node2</title>
<g id="a_Node000002"><a xlink:href="class_optimist_1_1_root_finder_1_1_quasi_newton.html" target="_top" xlink:title=" ">
<polygon fill="white" stroke="#666666" points="446.25,-41.75 306.5,-41.75 306.5,0 446.25,0 446.25,-41.75"/>
<text text-anchor="start" x="314.5" y="-28.25" font-family="Helvetica,sans-Serif" font-size="10.00">Optimist::RootFinder</text>
<text text-anchor="start" x="314.5" y="-17" font-family="Helvetica,sans-Serif" font-size="10.00">::QuasiNewton&lt; N, Broyden</text>
<text text-anchor="middle" x="376.38" y="-5.75" font-family="Helvetica,sans-Serif" font-size="10.00">&lt; N &gt; &gt;</text>
</a>
</g>
</g>
<!-- Node1&#45;&gt;Node2 -->
<g id="edge36_Node000001_Node000002" class="edge">
<title>Node1&#45;&gt;Node2</title>
<g id="a_edge36_Node000001_Node000002"><a xlink:title=" ">
<path fill="none" stroke="#63b8ff" d="M282.31,-20.88C290.23,-20.88 298.25,-20.88 306.1,-20.88"/>
<polygon fill="#63b8ff" stroke="#63b8ff" points="282.32,-17.38 272.32,-20.88 282.32,-24.38 282.32,-17.38"/>
</a>
</g>
</g>
<!-- Node3 -->
<g id="Node000003" class="node">
<title>Node3</title>
<g id="a_Node000003"><a xlink:href="class_optimist_1_1_root_finder_1_1_broyden.html" target="_top" xlink:title="Class container for the Broyden&#39;s method.">
<polygon fill="white" stroke="#666666" points="589,-36.12 482.25,-36.12 482.25,-5.62 589,-5.62 589,-36.12"/>
<text text-anchor="start" x="490.25" y="-22.62" font-family="Helvetica,sans-Serif" font-size="10.00">Optimist::RootFinder</text>
<text text-anchor="middle" x="535.62" y="-11.38" font-family="Helvetica,sans-Serif" font-size="10.00">::Broyden&lt; N &gt;</text>
</a>
</g>
</g>
<!-- Node2&#45;&gt;Node3 -->
<g id="edge37_Node000002_Node000003" class="edge">
<title>Node2&#45;&gt;Node3</title>
<g id="a_edge37_Node000002_Node000003"><a xlink:title=" ">
<path fill="none" stroke="#63b8ff" d="M457.82,-20.88C465.95,-20.88 474.05,-20.88 481.78,-20.88"/>
<polygon fill="#63b8ff" stroke="#63b8ff" points="457.86,-17.38 447.86,-20.88 457.86,-24.38 457.86,-17.38"/>
</a>
</g>
</g>
</g>
</svg>
