<?xml version="1.0" encoding="UTF-8" standalone="no"?>
<!DOCTYPE svg PUBLIC "-//W3C//DTD SVG 1.1//EN"
 "http://www.w3.org/Graphics/SVG/1.1/DTD/svg11.dtd">
<!-- Generated by graphviz version 12.2.1 (20241206.2353)
 -->
<!-- Title: Graphical Class Hierarchy Pages: 1 -->
<svg width="484pt" height="39pt"
 viewBox="0.00 0.00 483.50 38.50" xmlns="http://www.w3.org/2000/svg" xmlns:xlink="http://www.w3.org/1999/xlink">
<g id="graph0" class="graph" transform="scale(1 1) rotate(0) translate(4 34.5)">
<title>Graphical Class Hierarchy</title>
<!-- Node0 -->
<g id="Node000000" class="node">
<title>Node0</title>
<g id="a_Node000000"><a xlink:href="class_optimist_1_1_solver.html" target="_top" xlink:title=" ">
<polygon fill="white" stroke="#666666" points="103.75,-30.5 0,-30.5 0,0 103.75,0 103.75,-30.5"/>
<text text-anchor="start" x="8" y="-17" font-family="Helvetica,sans-Serif" font-size="10.00">Optimist::Solver&lt; 1,</text>
<text text-anchor="middle" x="51.88" y="-5.75" font-family="Helvetica,sans-Serif" font-size="10.00"> 1, Chebyshev &gt;</text>
</a>
</g>
</g>
<!-- Node1 -->
<g id="Node000001" class="node">
<title>Node1</title>
<g id="a_Node000001"><a xlink:href="class_optimist_1_1_scalar_root_finder_1_1_scalar_root_finder.html" target="_top" xlink:title=" ">
<polygon fill="white" stroke="#666666" points="305,-30.5 139.75,-30.5 139.75,0 305,0 305,-30.5"/>
<text text-anchor="start" x="147.75" y="-17" font-family="Helvetica,sans-Serif" font-size="10.00">Optimist::ScalarRootFinder</text>
<text text-anchor="middle" x="222.38" y="-5.75" font-family="Helvetica,sans-Serif" font-size="10.00">::ScalarRootFinder&lt; Chebyshev &gt;</text>
</a>
</g>
</g>
<!-- Node0&#45;&gt;Node1 -->
<g id="edge32_Node000000_Node000001" class="edge">
<title>Node0&#45;&gt;Node1</title>
<g id="a_edge32_Node000000_Node000001"><a xlink:title=" ">
<path fill="none" stroke="#63b8ff" d="M115.22,-15.25C123.11,-15.25 131.27,-15.25 139.41,-15.25"/>
<polygon fill="#63b8ff" stroke="#63b8ff" points="115.4,-11.75 105.4,-15.25 115.4,-18.75 115.4,-11.75"/>
</a>
</g>
</g>
<!-- Node2 -->
<g id="Node000002" class="node">
<title>Node2</title>
<g id="a_Node000002"><a xlink:href="class_optimist_1_1_scalar_root_finder_1_1_chebyshev.html" target="_top" xlink:title="Class container for the Chebyshev&#39;s method.">
<polygon fill="white" stroke="#666666" points="475.5,-30.5 341,-30.5 341,0 475.5,0 475.5,-30.5"/>
<text text-anchor="start" x="349" y="-17" font-family="Helvetica,sans-Serif" font-size="10.00">Optimist::ScalarRootFinder</text>
<text text-anchor="middle" x="408.25" y="-5.75" font-family="Helvetica,sans-Serif" font-size="10.00">::Chebyshev</text>
</a>
</g>
</g>
<!-- Node1&#45;&gt;Node2 -->
<g id="edge33_Node000001_Node000002" class="edge">
<title>Node1&#45;&gt;Node2</title>
<g id="a_edge33_Node000001_Node000002"><a xlink:title=" ">
<path fill="none" stroke="#63b8ff" d="M316.73,-15.25C324.77,-15.25 332.81,-15.25 340.58,-15.25"/>
<polygon fill="#63b8ff" stroke="#63b8ff" points="316.88,-11.75 306.88,-15.25 316.88,-18.75 316.88,-11.75"/>
</a>
</g>
</g>
</g>
</svg>
