<?xml version="1.0" encoding="UTF-8" standalone="no"?>
<!DOCTYPE svg PUBLIC "-//W3C//DTD SVG 1.1//EN"
 "http://www.w3.org/Graphics/SVG/1.1/DTD/svg11.dtd">
<!-- Generated by graphviz version 14.0.5 (20251129.0259)
 -->
<!-- Title: Graphical Class Hierarchy Pages: 1 -->
<svg width="501pt" height="284pt"
 viewBox="0.00 0.00 501.00 284.00" xmlns="http://www.w3.org/2000/svg" xmlns:xlink="http://www.w3.org/1999/xlink">
<g id="graph0" class="graph" transform="scale(1 1) rotate(0) translate(4 279.5)">
<title>Graphical Class Hierarchy</title>
<!-- Node0 -->
<g id="Node000000" class="node">
<title>Node0</title>
<g id="a_Node000000"><a xlink:href="class_optimist_1_1_function_base.html" target="_top" xlink:title=" ">
<polygon fill="white" stroke="#666666" points="145,-158.12 0,-158.12 0,-116.38 145,-116.38 145,-158.12"/>
<text xml:space="preserve" text-anchor="start" x="8" y="-144.62" font-family="Helvetica,sans-Serif" font-size="10.00">Optimist::FunctionBase</text>
<text xml:space="preserve" text-anchor="start" x="8" y="-133.38" font-family="Helvetica,sans-Serif" font-size="10.00">&lt; Vector, Vector, Rosenbrock</text>
<text xml:space="preserve" text-anchor="middle" x="72.5" y="-122.12" font-family="Helvetica,sans-Serif" font-size="10.00">&lt; Vector, N &gt; &gt;</text>
</a>
</g>
</g>
<!-- Node1 -->
<g id="Node000001" class="node">
<title>Node1</title>
<g id="a_Node000001"><a xlink:href="class_optimist_1_1_function.html" target="_top" xlink:title=" ">
<polygon fill="white" stroke="#666666" points="326,-158.12 181,-158.12 181,-116.38 326,-116.38 326,-158.12"/>
<text xml:space="preserve" text-anchor="start" x="189" y="-144.62" font-family="Helvetica,sans-Serif" font-size="10.00">Optimist::Function</text>
<text xml:space="preserve" text-anchor="start" x="189" y="-133.38" font-family="Helvetica,sans-Serif" font-size="10.00">&lt; Vector, Vector, Rosenbrock</text>
<text xml:space="preserve" text-anchor="middle" x="253.5" y="-122.12" font-family="Helvetica,sans-Serif" font-size="10.00">&lt; Vector, N &gt; &gt;</text>
</a>
</g>
</g>
<!-- Node0&#45;&gt;Node1 -->
<g id="edge21_Node000000_Node000001" class="edge">
<title>Node0&#45;&gt;Node1</title>
<g id="a_edge21_Node000000_Node000001"><a xlink:title=" ">
<path fill="none" stroke="#63b8ff" d="M156.59,-137.25C164.65,-137.25 172.78,-137.25 180.71,-137.25"/>
<polygon fill="#63b8ff" stroke="#63b8ff" points="156.79,-133.75 146.79,-137.25 156.79,-140.75 156.79,-133.75"/>
</a>
</g>
</g>
<!-- Node2 -->
<g id="Node000002" class="node">
<title>Node2</title>
<g id="a_Node000002"><a xlink:href="class_optimist_1_1_test_set_1_1_rosenbrock.html" target="_top" xlink:title=" ">
<polygon fill="white" stroke="#666666" points="490.12,-275.5 364.62,-275.5 364.62,-245 490.12,-245 490.12,-275.5"/>
<text xml:space="preserve" text-anchor="start" x="372.62" y="-262" font-family="Helvetica,sans-Serif" font-size="10.00">Optimist::TestSet::</text>
<text xml:space="preserve" text-anchor="middle" x="427.38" y="-250.75" font-family="Helvetica,sans-Serif" font-size="10.00">Rosenbrock&lt; Vector, 2 &gt;</text>
</a>
</g>
</g>
<!-- Node1&#45;&gt;Node2 -->
<g id="edge22_Node000001_Node000002" class="edge">
<title>Node1&#45;&gt;Node2</title>
<g id="a_edge22_Node000001_Node000002"><a xlink:title=" ">
<path fill="none" stroke="#63b8ff" d="M281.17,-166.83C301.62,-188.12 331.44,-216.31 362,-235.25 367.61,-238.72 373.77,-241.86 380,-244.64"/>
<polygon fill="#63b8ff" stroke="#63b8ff" points="283.72,-164.44 274.31,-159.57 278.63,-169.24 283.72,-164.44"/>
</a>
</g>
</g>
<!-- Node3 -->
<g id="Node000003" class="node">
<title>Node3</title>
<g id="a_Node000003"><a xlink:href="class_optimist_1_1_test_set_1_1_rosenbrock.html" target="_top" xlink:title=" ">
<polygon fill="white" stroke="#666666" points="490.12,-226.5 364.62,-226.5 364.62,-196 490.12,-196 490.12,-226.5"/>
<text xml:space="preserve" text-anchor="start" x="372.62" y="-213" font-family="Helvetica,sans-Serif" font-size="10.00">Optimist::TestSet::</text>
<text xml:space="preserve" text-anchor="middle" x="427.38" y="-201.75" font-family="Helvetica,sans-Serif" font-size="10.00">Rosenbrock&lt; Vector, 4 &gt;</text>
</a>
</g>
</g>
<!-- Node1&#45;&gt;Node3 -->
<g id="edge23_Node000001_Node000003" class="edge">
<title>Node1&#45;&gt;Node3</title>
<g id="a_edge23_Node000001_Node000003"><a xlink:title=" ">
<path fill="none" stroke="#63b8ff" d="M309.88,-163.23C326.55,-170.84 344.94,-179.06 362,-186.25 369.4,-189.37 377.34,-192.57 385.02,-195.59"/>
<polygon fill="#63b8ff" stroke="#63b8ff" points="311.68,-160.2 301.13,-159.2 308.75,-166.56 311.68,-160.2"/>
</a>
</g>
</g>
<!-- Node4 -->
<g id="Node000004" class="node">
<title>Node4</title>
<g id="a_Node000004"><a xlink:href="class_optimist_1_1_test_set_1_1_rosenbrock.html" target="_top" xlink:title=" ">
<polygon fill="white" stroke="#666666" points="490.12,-177.5 364.62,-177.5 364.62,-147 490.12,-147 490.12,-177.5"/>
<text xml:space="preserve" text-anchor="start" x="372.62" y="-164" font-family="Helvetica,sans-Serif" font-size="10.00">Optimist::TestSet::</text>
<text xml:space="preserve" text-anchor="middle" x="427.38" y="-152.75" font-family="Helvetica,sans-Serif" font-size="10.00">Rosenbrock&lt; Vector, 6 &gt;</text>
</a>
</g>
</g>
<!-- Node1&#45;&gt;Node4 -->
<g id="edge24_Node000001_Node000004" class="edge">
<title>Node1&#45;&gt;Node4</title>
<g id="a_edge24_Node000001_Node000004"><a xlink:title=" ">
<path fill="none" stroke="#63b8ff" d="M337.7,-149.35C346.66,-150.66 355.67,-151.97 364.32,-153.22"/>
<polygon fill="#63b8ff" stroke="#63b8ff" points="338.29,-145.9 327.89,-147.93 337.28,-152.83 338.29,-145.9"/>
</a>
</g>
</g>
<!-- Node5 -->
<g id="Node000005" class="node">
<title>Node5</title>
<g id="a_Node000005"><a xlink:href="class_optimist_1_1_test_set_1_1_rosenbrock.html" target="_top" xlink:title=" ">
<polygon fill="white" stroke="#666666" points="490.12,-128.5 364.62,-128.5 364.62,-98 490.12,-98 490.12,-128.5"/>
<text xml:space="preserve" text-anchor="start" x="372.62" y="-115" font-family="Helvetica,sans-Serif" font-size="10.00">Optimist::TestSet::</text>
<text xml:space="preserve" text-anchor="middle" x="427.38" y="-103.75" font-family="Helvetica,sans-Serif" font-size="10.00">Rosenbrock&lt; Vector, 8 &gt;</text>
</a>
</g>
</g>
<!-- Node1&#45;&gt;Node5 -->
<g id="edge25_Node000001_Node000005" class="edge">
<title>Node1&#45;&gt;Node5</title>
<g id="a_edge25_Node000001_Node000005"><a xlink:title=" ">
<path fill="none" stroke="#63b8ff" d="M337.7,-125.63C346.66,-124.38 355.67,-123.12 364.32,-121.92"/>
<polygon fill="#63b8ff" stroke="#63b8ff" points="337.31,-122.15 327.89,-127 338.28,-129.08 337.31,-122.15"/>
</a>
</g>
</g>
<!-- Node6 -->
<g id="Node000006" class="node">
<title>Node6</title>
<g id="a_Node000006"><a xlink:href="class_optimist_1_1_test_set_1_1_rosenbrock.html" target="_top" xlink:title=" ">
<polygon fill="white" stroke="#666666" points="492.75,-79.5 362,-79.5 362,-49 492.75,-49 492.75,-79.5"/>
<text xml:space="preserve" text-anchor="start" x="370" y="-66" font-family="Helvetica,sans-Serif" font-size="10.00">Optimist::TestSet::</text>
<text xml:space="preserve" text-anchor="middle" x="427.38" y="-54.75" font-family="Helvetica,sans-Serif" font-size="10.00">Rosenbrock&lt; Vector, 10 &gt;</text>
</a>
</g>
</g>
<!-- Node1&#45;&gt;Node6 -->
<g id="edge26_Node000001_Node000006" class="edge">
<title>Node1&#45;&gt;Node6</title>
<g id="a_edge26_Node000001_Node000006"><a xlink:title=" ">
<path fill="none" stroke="#63b8ff" d="M311.3,-111.26C327.6,-103.97 345.44,-96.16 362,-89.25 369.41,-86.16 377.36,-82.97 385.04,-79.95"/>
<polygon fill="#63b8ff" stroke="#63b8ff" points="309.91,-108.04 302.23,-115.33 312.78,-114.43 309.91,-108.04"/>
</a>
</g>
</g>
<!-- Node7 -->
<g id="Node000007" class="node">
<title>Node7</title>
<g id="a_Node000007"><a xlink:href="class_optimist_1_1_test_set_1_1_rosenbrock.html" target="_top" xlink:title="Class container for the extended Rosenbrock function.">
<polygon fill="white" stroke="#666666" points="491.25,-30.5 363.5,-30.5 363.5,0 491.25,0 491.25,-30.5"/>
<text xml:space="preserve" text-anchor="start" x="371.5" y="-17" font-family="Helvetica,sans-Serif" font-size="10.00">Optimist::TestSet::</text>
<text xml:space="preserve" text-anchor="middle" x="427.38" y="-5.75" font-family="Helvetica,sans-Serif" font-size="10.00">Rosenbrock&lt; Vector, N &gt;</text>
</a>
</g>
</g>
<!-- Node1&#45;&gt;Node7 -->
<g id="edge27_Node000001_Node000007" class="edge">
<title>Node1&#45;&gt;Node7</title>
<g id="a_edge27_Node000001_Node000007"><a xlink:title=" ">
<path fill="none" stroke="#63b8ff" d="M281.22,-107.99C301.7,-86.92 331.53,-59.03 362,-40.25 367.61,-36.79 373.79,-33.66 380.02,-30.89"/>
<polygon fill="#63b8ff" stroke="#63b8ff" points="278.74,-105.52 274.36,-115.17 283.8,-110.36 278.74,-105.52"/>
</a>
</g>
</g>
</g>
</svg>
