<?xml version="1.0" encoding="UTF-8" standalone="no"?>
<!DOCTYPE svg PUBLIC "-//W3C//DTD SVG 1.1//EN"
 "http://www.w3.org/Graphics/SVG/1.1/DTD/svg11.dtd">
<!-- Generated by graphviz version 12.2.1 (20241206.2353)
 -->
<!-- Title: Graphical Class Hierarchy Pages: 1 -->
<svg width="414pt" height="50pt"
 viewBox="0.00 0.00 413.75 49.75" xmlns="http://www.w3.org/2000/svg" xmlns:xlink="http://www.w3.org/1999/xlink">
<g id="graph0" class="graph" transform="scale(1 1) rotate(0) translate(4 45.75)">
<title>Graphical Class Hierarchy</title>
<!-- Node0 -->
<g id="Node000000" class="node">
<title>Node0</title>
<g id="a_Node000000"><a xlink:href="class_optimist_1_1_function.html" target="_top" xlink:title=" ">
<polygon fill="white" stroke="#666666" points="118,-41.75 0,-41.75 0,0 118,0 118,-41.75"/>
<text text-anchor="start" x="8" y="-28.25" font-family="Helvetica,sans-Serif" font-size="10.00">Optimist::Function</text>
<text text-anchor="start" x="8" y="-17" font-family="Helvetica,sans-Serif" font-size="10.00">&lt; Real, N, 1, Schaffer2</text>
<text text-anchor="middle" x="59" y="-5.75" font-family="Helvetica,sans-Serif" font-size="10.00">&lt; Real &gt; &gt;</text>
</a>
</g>
</g>
<!-- Node1 -->
<g id="Node000001" class="node">
<title>Node1</title>
<g id="a_Node000001"><a xlink:href="class_optimist_1_1_cost_function.html" target="_top" xlink:title=" ">
<polygon fill="white" stroke="#666666" points="271.25,-41.75 154,-41.75 154,0 271.25,0 271.25,-41.75"/>
<text text-anchor="start" x="162" y="-28.25" font-family="Helvetica,sans-Serif" font-size="10.00">Optimist::CostFunction</text>
<text text-anchor="start" x="162" y="-17" font-family="Helvetica,sans-Serif" font-size="10.00">&lt; Real, 2, Schaffer2&lt;</text>
<text text-anchor="middle" x="212.62" y="-5.75" font-family="Helvetica,sans-Serif" font-size="10.00"> Real &gt; &gt;</text>
</a>
</g>
</g>
<!-- Node0&#45;&gt;Node1 -->
<g id="edge17_Node000000_Node000001" class="edge">
<title>Node0&#45;&gt;Node1</title>
<g id="a_edge17_Node000000_Node000001"><a xlink:title=" ">
<path fill="none" stroke="#63b8ff" d="M129.48,-20.88C137.55,-20.88 145.71,-20.88 153.59,-20.88"/>
<polygon fill="#63b8ff" stroke="#63b8ff" points="129.7,-17.38 119.7,-20.88 129.7,-24.38 129.7,-17.38"/>
</a>
</g>
</g>
<!-- Node2 -->
<g id="Node000002" class="node">
<title>Node2</title>
<g id="a_Node000002"><a xlink:href="class_optimist_1_1_test_set_1_1_schaffer2.html" target="_top" xlink:title="Class container for the Schaffer2 function.">
<polygon fill="white" stroke="#666666" points="405.75,-36.12 307.25,-36.12 307.25,-5.62 405.75,-5.62 405.75,-36.12"/>
<text text-anchor="start" x="315.25" y="-22.62" font-family="Helvetica,sans-Serif" font-size="10.00">Optimist::TestSet::</text>
<text text-anchor="middle" x="356.5" y="-11.38" font-family="Helvetica,sans-Serif" font-size="10.00">Schaffer2&lt; Real &gt;</text>
</a>
</g>
</g>
<!-- Node1&#45;&gt;Node2 -->
<g id="edge18_Node000001_Node000002" class="edge">
<title>Node1&#45;&gt;Node2</title>
<g id="a_edge18_Node000001_Node000002"><a xlink:title=" ">
<path fill="none" stroke="#63b8ff" d="M283.02,-20.88C291.04,-20.88 299.09,-20.88 306.76,-20.88"/>
<polygon fill="#63b8ff" stroke="#63b8ff" points="283.25,-17.38 273.25,-20.88 283.25,-24.38 283.25,-17.38"/>
</a>
</g>
</g>
</g>
</svg>
