<?xml version="1.0" encoding="UTF-8" standalone="no"?>
<!DOCTYPE svg PUBLIC "-//W3C//DTD SVG 1.1//EN"
 "http://www.w3.org/Graphics/SVG/1.1/DTD/svg11.dtd">
<!-- Generated by graphviz version 12.2.1 (20241206.2353)
 -->
<!-- Title: Graphical Class Hierarchy Pages: 1 -->
<svg width="318pt" height="64pt"
 viewBox="0.00 0.00 317.50 64.25" xmlns="http://www.w3.org/2000/svg" xmlns:xlink="http://www.w3.org/1999/xlink">
<g id="graph0" class="graph" transform="scale(1 1) rotate(0) translate(4 60.25)">
<title>Graphical Class Hierarchy</title>
<!-- Node0 -->
<g id="Node000000" class="node">
<title>Node0</title>
<g id="a_Node000000"><a xlink:href="class_optimist_1_1_nonlinear_solver.html" target="_top" xlink:title="Class container for the nonlinear solver.">
<polygon fill="white" stroke="#666666" points="153.25,-37.25 0,-37.25 0,-18 153.25,-18 153.25,-37.25"/>
<text text-anchor="middle" x="76.62" y="-23.75" font-family="Helvetica,sans-Serif" font-size="10.00">Optimist::NonlinearSolver&lt; N &gt;</text>
</a>
</g>
</g>
<!-- Node1 -->
<g id="Node000001" class="node">
<title>Node1</title>
<g id="a_Node000001"><a xlink:href="class_optimist_1_1_broyden.html" target="_top" xlink:title="Class container for the (damped) Broyden&#39;s method.">
<polygon fill="white" stroke="#666666" points="309.5,-56.25 189.25,-56.25 189.25,-37 309.5,-37 309.5,-56.25"/>
<text text-anchor="middle" x="249.38" y="-42.75" font-family="Helvetica,sans-Serif" font-size="10.00">Optimist::Broyden&lt; N &gt;</text>
</a>
</g>
</g>
<!-- Node0&#45;&gt;Node1 -->
<g id="edge1_Node000000_Node000001" class="edge">
<title>Node0&#45;&gt;Node1</title>
<g id="a_edge1_Node000000_Node000001"><a xlink:title=" ">
<path fill="none" stroke="#63b8ff" d="M164.94,-37.34C173.04,-38.24 181.11,-39.14 188.86,-40"/>
<polygon fill="#63b8ff" stroke="#63b8ff" points="165.34,-33.86 155.02,-36.24 164.57,-40.82 165.34,-33.86"/>
</a>
</g>
</g>
<!-- Node2 -->
<g id="Node000002" class="node">
<title>Node2</title>
<g id="a_Node000002"><a xlink:href="class_optimist_1_1_newton.html" target="_top" xlink:title="Class container for the (damped) Newton&#39;s method with affine invariant step.">
<polygon fill="white" stroke="#666666" points="308.38,-19.25 190.38,-19.25 190.38,0 308.38,0 308.38,-19.25"/>
<text text-anchor="middle" x="249.38" y="-5.75" font-family="Helvetica,sans-Serif" font-size="10.00">Optimist::Newton&lt; N &gt;</text>
</a>
</g>
</g>
<!-- Node0&#45;&gt;Node2 -->
<g id="edge2_Node000000_Node000002" class="edge">
<title>Node0&#45;&gt;Node2</title>
<g id="a_edge2_Node000000_Node000002"><a xlink:title=" ">
<path fill="none" stroke="#63b8ff" d="M164.71,-18.44C173.24,-17.55 181.75,-16.65 189.89,-15.79"/>
<polygon fill="#63b8ff" stroke="#63b8ff" points="164.6,-14.94 155.02,-19.47 165.33,-21.9 164.6,-14.94"/>
</a>
</g>
</g>
</g>
</svg>
