<?xml version="1.0" encoding="UTF-8" standalone="no"?>
<!DOCTYPE svg PUBLIC "-//W3C//DTD SVG 1.1//EN"
 "http://www.w3.org/Graphics/SVG/1.1/DTD/svg11.dtd">
<!-- Generated by graphviz version 12.2.1 (20241206.2353)
 -->
<!-- Title: Graphical Class Hierarchy Pages: 1 -->
<svg width="470pt" height="88pt"
 viewBox="0.00 0.00 470.00 87.50" xmlns="http://www.w3.org/2000/svg" xmlns:xlink="http://www.w3.org/1999/xlink">
<g id="graph0" class="graph" transform="scale(1 1) rotate(0) translate(4 83.5)">
<title>Graphical Class Hierarchy</title>
<!-- Node0 -->
<g id="Node000000" class="node">
<title>Node0</title>
<g id="a_Node000000"><a xlink:href="class_optimist_1_1_solver.html" target="_top" xlink:title=" ">
<polygon fill="white" stroke="#666666" points="121,-48.88 0,-48.88 0,-29.62 121,-29.62 121,-48.88"/>
<text text-anchor="middle" x="60.5" y="-35.38" font-family="Helvetica,sans-Serif" font-size="10.00">Optimist::Solver&lt; 1, 1 &gt;</text>
</a>
</g>
</g>
<!-- Node1 -->
<g id="Node000001" class="node">
<title>Node1</title>
<g id="a_Node000001"><a xlink:href="class_optimist_1_1_scalar_optimizer_1_1_scalar_optimizer.html" target="_top" xlink:title="Class container for the scalar optimizer.">
<polygon fill="white" stroke="#666666" points="288.5,-79.5 160,-79.5 160,-49 288.5,-49 288.5,-79.5"/>
<text text-anchor="start" x="168" y="-66" font-family="Helvetica,sans-Serif" font-size="10.00">Optimist::ScalarOptimizer</text>
<text text-anchor="middle" x="224.25" y="-54.75" font-family="Helvetica,sans-Serif" font-size="10.00">::ScalarOptimizer</text>
</a>
</g>
</g>
<!-- Node0&#45;&gt;Node1 -->
<g id="edge1_Node000000_Node000001" class="edge">
<title>Node0&#45;&gt;Node1</title>
<g id="a_edge1_Node000000_Node000001"><a xlink:title=" ">
<path fill="none" stroke="#63b8ff" d="M132.57,-50.23C141.58,-51.63 150.77,-53.05 159.65,-54.42"/>
<polygon fill="#63b8ff" stroke="#63b8ff" points="133.18,-46.79 122.77,-48.72 132.11,-53.71 133.18,-46.79"/>
</a>
</g>
</g>
<!-- Node2 -->
<g id="Node000002" class="node">
<title>Node2</title>
<g id="a_Node000002"><a xlink:href="class_optimist_1_1_scalar_root_finder_1_1_scalar_root_finder.html" target="_top" xlink:title="Class container for the scalar scalar root&#45;finder.">
<polygon fill="white" stroke="#666666" points="291.5,-30.5 157,-30.5 157,0 291.5,0 291.5,-30.5"/>
<text text-anchor="start" x="165" y="-17" font-family="Helvetica,sans-Serif" font-size="10.00">Optimist::ScalarRootFinder</text>
<text text-anchor="middle" x="224.25" y="-5.75" font-family="Helvetica,sans-Serif" font-size="10.00">::ScalarRootFinder</text>
</a>
</g>
</g>
<!-- Node0&#45;&gt;Node2 -->
<g id="edge2_Node000000_Node000002" class="edge">
<title>Node0&#45;&gt;Node2</title>
<g id="a_edge2_Node000000_Node000002"><a xlink:title=" ">
<path fill="none" stroke="#63b8ff" d="M132.49,-28.72C140.52,-27.53 148.68,-26.31 156.64,-25.13"/>
<polygon fill="#63b8ff" stroke="#63b8ff" points="132.15,-25.23 122.77,-30.16 133.17,-32.15 132.15,-25.23"/>
</a>
</g>
</g>
<!-- Node3 -->
<g id="Node000003" class="node">
<title>Node3</title>
<g id="a_Node000003"><a xlink:href="class_optimist_1_1_scalar_root_finder_1_1_newton.html" target="_top" xlink:title="Class container for the Newton&#39;s method.">
<polygon fill="white" stroke="#666666" points="462,-30.5 327.5,-30.5 327.5,0 462,0 462,-30.5"/>
<text text-anchor="start" x="335.5" y="-17" font-family="Helvetica,sans-Serif" font-size="10.00">Optimist::ScalarRootFinder</text>
<text text-anchor="middle" x="394.75" y="-5.75" font-family="Helvetica,sans-Serif" font-size="10.00">::Newton</text>
</a>
</g>
</g>
<!-- Node2&#45;&gt;Node3 -->
<g id="edge3_Node000002_Node000003" class="edge">
<title>Node2&#45;&gt;Node3</title>
<g id="a_edge3_Node000002_Node000003"><a xlink:title=" ">
<path fill="none" stroke="#63b8ff" d="M303.1,-15.25C311.11,-15.25 319.21,-15.25 327.09,-15.25"/>
<polygon fill="#63b8ff" stroke="#63b8ff" points="303.36,-11.75 293.36,-15.25 303.36,-18.75 303.36,-11.75"/>
</a>
</g>
</g>
</g>
</svg>
