<?xml version="1.0" encoding="UTF-8" standalone="no"?>
<!DOCTYPE svg PUBLIC "-//W3C//DTD SVG 1.1//EN"
 "http://www.w3.org/Graphics/SVG/1.1/DTD/svg11.dtd">
<!-- Generated by graphviz version 12.2.1 (20241206.2353)
 -->
<!-- Title: Graphical Class Hierarchy Pages: 1 -->
<svg width="437pt" height="50pt"
 viewBox="0.00 0.00 437.00 49.75" xmlns="http://www.w3.org/2000/svg" xmlns:xlink="http://www.w3.org/1999/xlink">
<g id="graph0" class="graph" transform="scale(1 1) rotate(0) translate(4 45.75)">
<title>Graphical Class Hierarchy</title>
<!-- Node0 -->
<g id="Node000000" class="node">
<title>Node0</title>
<g id="a_Node000000"><a xlink:href="class_optimist_1_1_solver.html" target="_top" xlink:title=" ">
<polygon fill="white" stroke="#666666" points="117.25,-36.12 0,-36.12 0,-5.62 117.25,-5.62 117.25,-36.12"/>
<text text-anchor="start" x="8" y="-22.62" font-family="Helvetica,sans-Serif" font-size="10.00">Optimist::Solver&lt; N,</text>
<text text-anchor="middle" x="58.62" y="-11.38" font-family="Helvetica,sans-Serif" font-size="10.00"> 1, NelderMead&lt; N &gt; &gt;</text>
</a>
</g>
</g>
<!-- Node1 -->
<g id="Node000001" class="node">
<title>Node1</title>
<g id="a_Node000001"><a xlink:href="class_optimist_1_1_optimizer_1_1_optimizer.html" target="_top" xlink:title=" ">
<polygon fill="white" stroke="#666666" points="292.25,-41.75 153.25,-41.75 153.25,0 292.25,0 292.25,-41.75"/>
<text text-anchor="start" x="161.25" y="-28.25" font-family="Helvetica,sans-Serif" font-size="10.00">Optimist::Optimizer</text>
<text text-anchor="start" x="161.25" y="-17" font-family="Helvetica,sans-Serif" font-size="10.00">::Optimizer&lt; N, NelderMead</text>
<text text-anchor="middle" x="222.75" y="-5.75" font-family="Helvetica,sans-Serif" font-size="10.00">&lt; N &gt; &gt;</text>
</a>
</g>
</g>
<!-- Node0&#45;&gt;Node1 -->
<g id="edge44_Node000000_Node000001" class="edge">
<title>Node0&#45;&gt;Node1</title>
<g id="a_edge44_Node000000_Node000001"><a xlink:title=" ">
<path fill="none" stroke="#63b8ff" d="M129.15,-20.88C137.06,-20.88 145.12,-20.88 153.02,-20.88"/>
<polygon fill="#63b8ff" stroke="#63b8ff" points="129.21,-17.38 119.21,-20.88 129.21,-24.38 129.21,-17.38"/>
</a>
</g>
</g>
<!-- Node2 -->
<g id="Node000002" class="node">
<title>Node2</title>
<g id="a_Node000002"><a xlink:href="class_optimist_1_1_optimizer_1_1_nelder_mead.html" target="_top" xlink:title="Class container for the Nelder&#45;Mead&#39;s method.">
<polygon fill="white" stroke="#666666" points="429,-36.12 328.25,-36.12 328.25,-5.62 429,-5.62 429,-36.12"/>
<text text-anchor="start" x="336.25" y="-22.62" font-family="Helvetica,sans-Serif" font-size="10.00">Optimist::Optimizer</text>
<text text-anchor="middle" x="378.62" y="-11.38" font-family="Helvetica,sans-Serif" font-size="10.00">::NelderMead&lt; N &gt;</text>
</a>
</g>
</g>
<!-- Node1&#45;&gt;Node2 -->
<g id="edge45_Node000001_Node000002" class="edge">
<title>Node1&#45;&gt;Node2</title>
<g id="a_edge45_Node000001_Node000002"><a xlink:title=" ">
<path fill="none" stroke="#63b8ff" d="M304.01,-20.88C312.09,-20.88 320.13,-20.88 327.75,-20.88"/>
<polygon fill="#63b8ff" stroke="#63b8ff" points="304.1,-17.38 294.1,-20.88 304.1,-24.38 304.1,-17.38"/>
</a>
</g>
</g>
</g>
</svg>
