<?xml version="1.0" encoding="UTF-8" standalone="no"?>
<!DOCTYPE svg PUBLIC "-//W3C//DTD SVG 1.1//EN"
 "http://www.w3.org/Graphics/SVG/1.1/DTD/svg11.dtd">
<!-- Generated by graphviz version 12.2.1 (20241206.2353)
 -->
<!-- Title: Graphical Class Hierarchy Pages: 1 -->
<svg width="672pt" height="39pt"
 viewBox="0.00 0.00 672.00 38.50" xmlns="http://www.w3.org/2000/svg" xmlns:xlink="http://www.w3.org/1999/xlink">
<g id="graph0" class="graph" transform="scale(1 1) rotate(0) translate(4 34.5)">
<title>Graphical Class Hierarchy</title>
<!-- Node0 -->
<g id="Node000000" class="node">
<title>Node0</title>
<g id="a_Node000000"><a xlink:href="class_optimist_1_1_solver.html" target="_top" xlink:title=" ">
<polygon fill="white" stroke="#666666" points="103.75,-30.5 0,-30.5 0,0 103.75,0 103.75,-30.5"/>
<text text-anchor="start" x="8" y="-17" font-family="Helvetica,sans-Serif" font-size="10.00">Optimist::Solver&lt; 1,</text>
<text text-anchor="middle" x="51.88" y="-5.75" font-family="Helvetica,sans-Serif" font-size="10.00"> 1, Chandrupatla &gt;</text>
</a>
</g>
</g>
<!-- Node1 -->
<g id="Node000001" class="node">
<title>Node1</title>
<g id="a_Node000001"><a xlink:href="class_optimist_1_1_scalar_root_finder_1_1_scalar_root_finder.html" target="_top" xlink:title=" ">
<polygon fill="white" stroke="#666666" points="313.25,-30.5 139.75,-30.5 139.75,0 313.25,0 313.25,-30.5"/>
<text text-anchor="start" x="147.75" y="-17" font-family="Helvetica,sans-Serif" font-size="10.00">Optimist::ScalarRootFinder</text>
<text text-anchor="middle" x="226.5" y="-5.75" font-family="Helvetica,sans-Serif" font-size="10.00">::ScalarRootFinder&lt; Chandrupatla &gt;</text>
</a>
</g>
</g>
<!-- Node0&#45;&gt;Node1 -->
<g id="edge29_Node000000_Node000001" class="edge">
<title>Node0&#45;&gt;Node1</title>
<g id="a_edge29_Node000000_Node000001"><a xlink:title=" ">
<path fill="none" stroke="#63b8ff" d="M115.7,-15.25C123.44,-15.25 131.45,-15.25 139.46,-15.25"/>
<polygon fill="#63b8ff" stroke="#63b8ff" points="115.71,-11.75 105.71,-15.25 115.71,-18.75 115.71,-11.75"/>
</a>
</g>
</g>
<!-- Node2 -->
<g id="Node000002" class="node">
<title>Node2</title>
<g id="a_Node000002"><a xlink:href="class_optimist_1_1_scalar_root_finder_1_1_bracketing.html" target="_top" xlink:title=" ">
<polygon fill="white" stroke="#666666" points="493.5,-30.5 349.25,-30.5 349.25,0 493.5,0 493.5,-30.5"/>
<text text-anchor="start" x="357.25" y="-17" font-family="Helvetica,sans-Serif" font-size="10.00">Optimist::ScalarRootFinder</text>
<text text-anchor="middle" x="421.38" y="-5.75" font-family="Helvetica,sans-Serif" font-size="10.00">::Bracketing&lt; Chandrupatla &gt;</text>
</a>
</g>
</g>
<!-- Node1&#45;&gt;Node2 -->
<g id="edge30_Node000001_Node000002" class="edge">
<title>Node1&#45;&gt;Node2</title>
<g id="a_edge30_Node000001_Node000002"><a xlink:title=" ">
<path fill="none" stroke="#63b8ff" d="M324.93,-15.25C333.03,-15.25 341.12,-15.25 348.97,-15.25"/>
<polygon fill="#63b8ff" stroke="#63b8ff" points="325.02,-11.75 315.02,-15.25 325.02,-18.75 325.02,-11.75"/>
</a>
</g>
</g>
<!-- Node3 -->
<g id="Node000003" class="node">
<title>Node3</title>
<g id="a_Node000003"><a xlink:href="class_optimist_1_1_scalar_root_finder_1_1_chandrupatla.html" target="_top" xlink:title="Class container for the Chandrupatla algorithm.">
<polygon fill="white" stroke="#666666" points="664,-30.5 529.5,-30.5 529.5,0 664,0 664,-30.5"/>
<text text-anchor="start" x="537.5" y="-17" font-family="Helvetica,sans-Serif" font-size="10.00">Optimist::ScalarRootFinder</text>
<text text-anchor="middle" x="596.75" y="-5.75" font-family="Helvetica,sans-Serif" font-size="10.00">::Chandrupatla</text>
</a>
</g>
</g>
<!-- Node2&#45;&gt;Node3 -->
<g id="edge31_Node000002_Node000003" class="edge">
<title>Node2&#45;&gt;Node3</title>
<g id="a_edge31_Node000002_Node000003"><a xlink:title=" ">
<path fill="none" stroke="#63b8ff" d="M505.19,-15.25C513.21,-15.25 521.29,-15.25 529.13,-15.25"/>
<polygon fill="#63b8ff" stroke="#63b8ff" points="505.41,-11.75 495.41,-15.25 505.41,-18.75 505.41,-11.75"/>
</a>
</g>
</g>
</g>
</svg>
