<?xml version="1.0" encoding="UTF-8" standalone="no"?>
<!DOCTYPE svg PUBLIC "-//W3C//DTD SVG 1.1//EN"
 "http://www.w3.org/Graphics/SVG/1.1/DTD/svg11.dtd">
<!-- Generated by graphviz version 12.2.1 (20241206.2353)
 -->
<!-- Title: Graphical Class Hierarchy Pages: 1 -->
<svg width="399pt" height="39pt"
 viewBox="0.00 0.00 398.75 38.50" xmlns="http://www.w3.org/2000/svg" xmlns:xlink="http://www.w3.org/1999/xlink">
<g id="graph0" class="graph" transform="scale(1 1) rotate(0) translate(4 34.5)">
<title>Graphical Class Hierarchy</title>
<!-- Node0 -->
<g id="Node000000" class="node">
<title>Node0</title>
<g id="a_Node000000"><a xlink:href="class_optimist_1_1_function.html" target="_top" xlink:title=" ">
<polygon fill="white" stroke="#666666" points="96.25,-30.5 0,-30.5 0,0 96.25,0 96.25,-30.5"/>
<text text-anchor="start" x="8" y="-17" font-family="Helvetica,sans-Serif" font-size="10.00">Optimist::Function</text>
<text text-anchor="middle" x="48.12" y="-5.75" font-family="Helvetica,sans-Serif" font-size="10.00">&lt; 1, 1, Linear &gt;</text>
</a>
</g>
</g>
<!-- Node1 -->
<g id="Node000001" class="node">
<title>Node1</title>
<g id="a_Node000001"><a xlink:href="class_optimist_1_1_scalar_function.html" target="_top" xlink:title=" ">
<polygon fill="white" stroke="#666666" points="256.25,-30.5 132.25,-30.5 132.25,0 256.25,0 256.25,-30.5"/>
<text text-anchor="start" x="140.25" y="-17" font-family="Helvetica,sans-Serif" font-size="10.00">Optimist::ScalarFunction</text>
<text text-anchor="middle" x="194.25" y="-5.75" font-family="Helvetica,sans-Serif" font-size="10.00">&lt; Linear &gt;</text>
</a>
</g>
</g>
<!-- Node0&#45;&gt;Node1 -->
<g id="edge6_Node000000_Node000001" class="edge">
<title>Node0&#45;&gt;Node1</title>
<g id="a_edge6_Node000000_Node000001"><a xlink:title=" ">
<path fill="none" stroke="#63b8ff" d="M108.02,-15.25C115.87,-15.25 123.94,-15.25 131.83,-15.25"/>
<polygon fill="#63b8ff" stroke="#63b8ff" points="108.23,-11.75 98.23,-15.25 108.23,-18.75 108.23,-11.75"/>
</a>
</g>
</g>
<!-- Node2 -->
<g id="Node000002" class="node">
<title>Node2</title>
<g id="a_Node000002"><a xlink:href="class_optimist_1_1_test_set_1_1_linear.html" target="_top" xlink:title="Class container for the linear function.">
<polygon fill="white" stroke="#666666" points="390.75,-30.5 292.25,-30.5 292.25,0 390.75,0 390.75,-30.5"/>
<text text-anchor="start" x="300.25" y="-17" font-family="Helvetica,sans-Serif" font-size="10.00">Optimist::TestSet::</text>
<text text-anchor="middle" x="341.5" y="-5.75" font-family="Helvetica,sans-Serif" font-size="10.00">Linear</text>
</a>
</g>
</g>
<!-- Node1&#45;&gt;Node2 -->
<g id="edge7_Node000001_Node000002" class="edge">
<title>Node1&#45;&gt;Node2</title>
<g id="a_edge7_Node000001_Node000002"><a xlink:title=" ">
<path fill="none" stroke="#63b8ff" d="M267.7,-15.25C276.01,-15.25 284.31,-15.25 292.18,-15.25"/>
<polygon fill="#63b8ff" stroke="#63b8ff" points="267.94,-11.75 257.94,-15.25 267.94,-18.75 267.94,-11.75"/>
</a>
</g>
</g>
</g>
</svg>
