<?xml version="1.0" encoding="UTF-8" standalone="no"?>
<!DOCTYPE svg PUBLIC "-//W3C//DTD SVG 1.1//EN"
 "http://www.w3.org/Graphics/SVG/1.1/DTD/svg11.dtd">
<!-- Generated by graphviz version 12.2.1 (20241206.2353)
 -->
<!-- Title: Graphical Class Hierarchy Pages: 1 -->
<svg width="406pt" height="50pt"
 viewBox="0.00 0.00 405.50 49.75" xmlns="http://www.w3.org/2000/svg" xmlns:xlink="http://www.w3.org/1999/xlink">
<g id="graph0" class="graph" transform="scale(1 1) rotate(0) translate(4 45.75)">
<title>Graphical Class Hierarchy</title>
<!-- Node0 -->
<g id="Node000000" class="node">
<title>Node0</title>
<g id="a_Node000000"><a xlink:href="class_optimist_1_1_function.html" target="_top" xlink:title=" ">
<polygon fill="white" stroke="#666666" points="103,-41.75 0,-41.75 0,0 103,0 103,-41.75"/>
<text text-anchor="start" x="8" y="-28.25" font-family="Helvetica,sans-Serif" font-size="10.00">Optimist::Function</text>
<text text-anchor="start" x="8" y="-17" font-family="Helvetica,sans-Serif" font-size="10.00">&lt; Real, 1, 1, Cosh&lt;</text>
<text text-anchor="middle" x="51.5" y="-5.75" font-family="Helvetica,sans-Serif" font-size="10.00"> Real &gt; &gt;</text>
</a>
</g>
</g>
<!-- Node1 -->
<g id="Node000001" class="node">
<title>Node1</title>
<g id="a_Node000001"><a xlink:href="class_optimist_1_1_scalar_function.html" target="_top" xlink:title=" ">
<polygon fill="white" stroke="#666666" points="263,-36.12 139,-36.12 139,-5.62 263,-5.62 263,-36.12"/>
<text text-anchor="start" x="147" y="-22.62" font-family="Helvetica,sans-Serif" font-size="10.00">Optimist::ScalarFunction</text>
<text text-anchor="middle" x="201" y="-11.38" font-family="Helvetica,sans-Serif" font-size="10.00">&lt; Real, Cosh&lt; Real &gt; &gt;</text>
</a>
</g>
</g>
<!-- Node0&#45;&gt;Node1 -->
<g id="edge3_Node000000_Node000001" class="edge">
<title>Node0&#45;&gt;Node1</title>
<g id="a_edge3_Node000000_Node000001"><a xlink:title=" ">
<path fill="none" stroke="#63b8ff" d="M114.72,-20.88C122.66,-20.88 130.78,-20.88 138.71,-20.88"/>
<polygon fill="#63b8ff" stroke="#63b8ff" points="114.77,-17.38 104.77,-20.88 114.77,-24.38 114.77,-17.38"/>
</a>
</g>
</g>
<!-- Node2 -->
<g id="Node000002" class="node">
<title>Node2</title>
<g id="a_Node000002"><a xlink:href="class_optimist_1_1_test_set_1_1_cosh.html" target="_top" xlink:title="Class container for the hyperbolic cosine function.">
<polygon fill="white" stroke="#666666" points="397.5,-36.12 299,-36.12 299,-5.62 397.5,-5.62 397.5,-36.12"/>
<text text-anchor="start" x="307" y="-22.62" font-family="Helvetica,sans-Serif" font-size="10.00">Optimist::TestSet::</text>
<text text-anchor="middle" x="348.25" y="-11.38" font-family="Helvetica,sans-Serif" font-size="10.00">Cosh&lt; Real &gt;</text>
</a>
</g>
</g>
<!-- Node1&#45;&gt;Node2 -->
<g id="edge4_Node000001_Node000002" class="edge">
<title>Node1&#45;&gt;Node2</title>
<g id="a_edge4_Node000001_Node000002"><a xlink:title=" ">
<path fill="none" stroke="#63b8ff" d="M274.45,-20.88C282.76,-20.88 291.06,-20.88 298.93,-20.88"/>
<polygon fill="#63b8ff" stroke="#63b8ff" points="274.69,-17.38 264.69,-20.88 274.69,-24.38 274.69,-17.38"/>
</a>
</g>
</g>
</g>
</svg>
