<?xml version="1.0" encoding="UTF-8" standalone="no"?>
<!DOCTYPE svg PUBLIC "-//W3C//DTD SVG 1.1//EN"
 "http://www.w3.org/Graphics/SVG/1.1/DTD/svg11.dtd">
<!-- Generated by graphviz version 12.2.1 (20241206.2353)
 -->
<!-- Title: Graphical Class Hierarchy Pages: 1 -->
<svg width="442pt" height="39pt"
 viewBox="0.00 0.00 441.50 38.50" xmlns="http://www.w3.org/2000/svg" xmlns:xlink="http://www.w3.org/1999/xlink">
<g id="graph0" class="graph" transform="scale(1 1) rotate(0) translate(4 34.5)">
<title>Graphical Class Hierarchy</title>
<!-- Node0 -->
<g id="Node000000" class="node">
<title>Node0</title>
<g id="a_Node000000"><a xlink:href="class_optimist_1_1_function.html" target="_top" xlink:title=" ">
<polygon fill="white" stroke="#666666" points="139,-30.5 0,-30.5 0,0 139,0 139,-30.5"/>
<text text-anchor="start" x="8" y="-17" font-family="Helvetica,sans-Serif" font-size="10.00">Optimist::Function</text>
<text text-anchor="middle" x="69.5" y="-5.75" font-family="Helvetica,sans-Serif" font-size="10.00">&lt; Real, 1, 1, Cos&lt; Real &gt; &gt;</text>
</a>
</g>
</g>
<!-- Node1 -->
<g id="Node000001" class="node">
<title>Node1</title>
<g id="a_Node000001"><a xlink:href="class_optimist_1_1_scalar_function.html" target="_top" xlink:title=" ">
<polygon fill="white" stroke="#666666" points="299,-30.5 175,-30.5 175,0 299,0 299,-30.5"/>
<text text-anchor="start" x="183" y="-17" font-family="Helvetica,sans-Serif" font-size="10.00">Optimist::ScalarFunction</text>
<text text-anchor="middle" x="237" y="-5.75" font-family="Helvetica,sans-Serif" font-size="10.00">&lt; Real, Cos&lt; Real &gt; &gt;</text>
</a>
</g>
</g>
<!-- Node0&#45;&gt;Node1 -->
<g id="edge1_Node000000_Node000001" class="edge">
<title>Node0&#45;&gt;Node1</title>
<g id="a_edge1_Node000000_Node000001"><a xlink:title=" ">
<path fill="none" stroke="#63b8ff" d="M150.6,-15.25C158.67,-15.25 166.77,-15.25 174.6,-15.25"/>
<polygon fill="#63b8ff" stroke="#63b8ff" points="150.76,-11.75 140.76,-15.25 150.76,-18.75 150.76,-11.75"/>
</a>
</g>
</g>
<!-- Node2 -->
<g id="Node000002" class="node">
<title>Node2</title>
<g id="a_Node000002"><a xlink:href="class_optimist_1_1_test_set_1_1_cos.html" target="_top" xlink:title="Class container for the cosine function.">
<polygon fill="white" stroke="#666666" points="433.5,-30.5 335,-30.5 335,0 433.5,0 433.5,-30.5"/>
<text text-anchor="start" x="343" y="-17" font-family="Helvetica,sans-Serif" font-size="10.00">Optimist::TestSet::</text>
<text text-anchor="middle" x="384.25" y="-5.75" font-family="Helvetica,sans-Serif" font-size="10.00">Cos&lt; Real &gt;</text>
</a>
</g>
</g>
<!-- Node1&#45;&gt;Node2 -->
<g id="edge2_Node000001_Node000002" class="edge">
<title>Node1&#45;&gt;Node2</title>
<g id="a_edge2_Node000001_Node000002"><a xlink:title=" ">
<path fill="none" stroke="#63b8ff" d="M310.45,-15.25C318.76,-15.25 327.06,-15.25 334.93,-15.25"/>
<polygon fill="#63b8ff" stroke="#63b8ff" points="310.69,-11.75 300.69,-15.25 310.69,-18.75 310.69,-11.75"/>
</a>
</g>
</g>
</g>
</svg>
