<?xml version="1.0" encoding="UTF-8" standalone="no"?>
<!DOCTYPE svg PUBLIC "-//W3C//DTD SVG 1.1//EN"
 "http://www.w3.org/Graphics/SVG/1.1/DTD/svg11.dtd">
<!-- Generated by graphviz version 12.2.1 (20241206.2353)
 -->
<!-- Title: Graphical Class Hierarchy Pages: 1 -->
<svg width="456pt" height="50pt"
 viewBox="0.00 0.00 455.75 49.75" xmlns="http://www.w3.org/2000/svg" xmlns:xlink="http://www.w3.org/1999/xlink">
<g id="graph0" class="graph" transform="scale(1 1) rotate(0) translate(4 45.75)">
<title>Graphical Class Hierarchy</title>
<!-- Node0 -->
<g id="Node000000" class="node">
<title>Node0</title>
<g id="a_Node000000"><a xlink:href="class_optimist_1_1_solver_base.html" target="_top" xlink:title=" ">
<polygon fill="white" stroke="#666666" points="132.25,-41.75 0,-41.75 0,0 132.25,0 132.25,-41.75"/>
<text text-anchor="start" x="8" y="-28.25" font-family="Helvetica,sans-Serif" font-size="10.00">Optimist::SolverBase</text>
<text text-anchor="start" x="8" y="-17" font-family="Helvetica,sans-Serif" font-size="10.00">&lt; Real, N, N, Newton</text>
<text text-anchor="middle" x="66.12" y="-5.75" font-family="Helvetica,sans-Serif" font-size="10.00">&lt; Real, N &gt;, ForceEigen &gt;</text>
</a>
</g>
</g>
<!-- Node1 -->
<g id="Node000001" class="node">
<title>Node1</title>
<g id="a_Node000001"><a xlink:href="class_optimist_1_1_root_finder_1_1_root_finder.html" target="_top" xlink:title=" ">
<polygon fill="white" stroke="#666666" points="304.25,-41.75 168.25,-41.75 168.25,0 304.25,0 304.25,-41.75"/>
<text text-anchor="start" x="176.25" y="-28.25" font-family="Helvetica,sans-Serif" font-size="10.00">Optimist::RootFinder</text>
<text text-anchor="start" x="176.25" y="-17" font-family="Helvetica,sans-Serif" font-size="10.00">::RootFinder&lt; Real, N,</text>
<text text-anchor="middle" x="236.25" y="-5.75" font-family="Helvetica,sans-Serif" font-size="10.00"> Newton&lt; Real, N &gt;, true &gt;</text>
</a>
</g>
</g>
<!-- Node0&#45;&gt;Node1 -->
<g id="edge62_Node000000_Node000001" class="edge">
<title>Node0&#45;&gt;Node1</title>
<g id="a_edge62_Node000000_Node000001"><a xlink:title=" ">
<path fill="none" stroke="#63b8ff" d="M143.89,-20.88C151.94,-20.88 160.08,-20.88 168.01,-20.88"/>
<polygon fill="#63b8ff" stroke="#63b8ff" points="144.12,-17.38 134.12,-20.88 144.12,-24.38 144.12,-17.38"/>
</a>
</g>
</g>
<!-- Node2 -->
<g id="Node000002" class="node">
<title>Node2</title>
<g id="a_Node000002"><a xlink:href="class_optimist_1_1_root_finder_1_1_newton.html" target="_top" xlink:title="Class container for the Newton&#39;s method.">
<polygon fill="white" stroke="#666666" points="447.75,-36.12 340.25,-36.12 340.25,-5.62 447.75,-5.62 447.75,-36.12"/>
<text text-anchor="start" x="348.25" y="-22.62" font-family="Helvetica,sans-Serif" font-size="10.00">Optimist::RootFinder</text>
<text text-anchor="middle" x="394" y="-11.38" font-family="Helvetica,sans-Serif" font-size="10.00">::Newton&lt; Real, N &gt;</text>
</a>
</g>
</g>
<!-- Node1&#45;&gt;Node2 -->
<g id="edge63_Node000001_Node000002" class="edge">
<title>Node1&#45;&gt;Node2</title>
<g id="a_edge63_Node000001_Node000002"><a xlink:title=" ">
<path fill="none" stroke="#63b8ff" d="M316.1,-20.88C324.21,-20.88 332.31,-20.88 340.04,-20.88"/>
<polygon fill="#63b8ff" stroke="#63b8ff" points="316.17,-17.38 306.17,-20.88 316.17,-24.38 316.17,-17.38"/>
</a>
</g>
</g>
</g>
</svg>
