<?xml version="1.0" encoding="UTF-8" standalone="no"?>
<!DOCTYPE svg PUBLIC "-//W3C//DTD SVG 1.1//EN"
 "http://www.w3.org/Graphics/SVG/1.1/DTD/svg11.dtd">
<!-- Generated by graphviz version 12.2.1 (20241206.2353)
 -->
<!-- Title: Graphical Class Hierarchy Pages: 1 -->
<svg width="481pt" height="50pt"
 viewBox="0.00 0.00 481.25 49.75" xmlns="http://www.w3.org/2000/svg" xmlns:xlink="http://www.w3.org/1999/xlink">
<g id="graph0" class="graph" transform="scale(1 1) rotate(0) translate(4 45.75)">
<title>Graphical Class Hierarchy</title>
<!-- Node0 -->
<g id="Node000000" class="node">
<title>Node0</title>
<g id="a_Node000000"><a xlink:href="class_optimist_1_1_function_base.html" target="_top" xlink:title=" ">
<polygon fill="white" stroke="#666666" points="154,-41.75 0,-41.75 0,0 154,0 154,-41.75"/>
<text text-anchor="start" x="8" y="-28.25" font-family="Helvetica,sans-Serif" font-size="10.00">Optimist::FunctionBase</text>
<text text-anchor="start" x="8" y="-17" font-family="Helvetica,sans-Serif" font-size="10.00">&lt; Real, N, M, EllipticParaboloid</text>
<text text-anchor="middle" x="77" y="-5.75" font-family="Helvetica,sans-Serif" font-size="10.00">&lt; Real &gt;, false &gt;</text>
</a>
</g>
</g>
<!-- Node1 -->
<g id="Node000001" class="node">
<title>Node1</title>
<g id="a_Node000001"><a xlink:href="class_optimist_1_1_function.html" target="_top" xlink:title=" ">
<polygon fill="white" stroke="#666666" points="338.75,-41.75 190,-41.75 190,0 338.75,0 338.75,-41.75"/>
<text text-anchor="start" x="198" y="-28.25" font-family="Helvetica,sans-Serif" font-size="10.00">Optimist::Function</text>
<text text-anchor="start" x="198" y="-17" font-family="Helvetica,sans-Serif" font-size="10.00">&lt; Real, 2, 1, EllipticParaboloid</text>
<text text-anchor="middle" x="264.38" y="-5.75" font-family="Helvetica,sans-Serif" font-size="10.00">&lt; Real &gt; &gt;</text>
</a>
</g>
</g>
<!-- Node0&#45;&gt;Node1 -->
<g id="edge14_Node000000_Node000001" class="edge">
<title>Node0&#45;&gt;Node1</title>
<g id="a_edge14_Node000000_Node000001"><a xlink:title=" ">
<path fill="none" stroke="#63b8ff" d="M165.77,-20.88C173.8,-20.88 181.88,-20.88 189.77,-20.88"/>
<polygon fill="#63b8ff" stroke="#63b8ff" points="165.98,-17.38 155.98,-20.88 165.98,-24.38 165.98,-17.38"/>
</a>
</g>
</g>
<!-- Node2 -->
<g id="Node000002" class="node">
<title>Node2</title>
<g id="a_Node000002"><a xlink:href="class_optimist_1_1_test_set_1_1_elliptic_paraboloid.html" target="_top" xlink:title="Class container for the paraboloid function.">
<polygon fill="white" stroke="#666666" points="473.25,-41.75 374.75,-41.75 374.75,0 473.25,0 473.25,-41.75"/>
<text text-anchor="start" x="382.75" y="-28.25" font-family="Helvetica,sans-Serif" font-size="10.00">Optimist::TestSet::</text>
<text text-anchor="start" x="382.75" y="-17" font-family="Helvetica,sans-Serif" font-size="10.00">EllipticParaboloid&lt;</text>
<text text-anchor="middle" x="424" y="-5.75" font-family="Helvetica,sans-Serif" font-size="10.00"> Real &gt;</text>
</a>
</g>
</g>
<!-- Node1&#45;&gt;Node2 -->
<g id="edge15_Node000001_Node000002" class="edge">
<title>Node1&#45;&gt;Node2</title>
<g id="a_edge15_Node000001_Node000002"><a xlink:title=" ">
<path fill="none" stroke="#63b8ff" d="M350.39,-20.88C358.65,-20.88 366.81,-20.88 374.52,-20.88"/>
<polygon fill="#63b8ff" stroke="#63b8ff" points="350.62,-17.38 340.62,-20.88 350.62,-24.38 350.62,-17.38"/>
</a>
</g>
</g>
</g>
</svg>
