<?xml version="1.0" encoding="UTF-8" standalone="no"?>
<!DOCTYPE svg PUBLIC "-//W3C//DTD SVG 1.1//EN"
 "http://www.w3.org/Graphics/SVG/1.1/DTD/svg11.dtd">
<!-- Generated by graphviz version 12.2.1 (20241206.2353)
 -->
<!-- Title: Graphical Class Hierarchy Pages: 1 -->
<svg width="412pt" height="50pt"
 viewBox="0.00 0.00 411.50 49.75" xmlns="http://www.w3.org/2000/svg" xmlns:xlink="http://www.w3.org/1999/xlink">
<g id="graph0" class="graph" transform="scale(1 1) rotate(0) translate(4 45.75)">
<title>Graphical Class Hierarchy</title>
<!-- Node0 -->
<g id="Node000000" class="node">
<title>Node0</title>
<g id="a_Node000000"><a xlink:href="class_optimist_1_1_function_base.html" target="_top" xlink:title=" ">
<polygon fill="white" stroke="#666666" points="133.75,-41.75 0,-41.75 0,0 133.75,0 133.75,-41.75"/>
<text text-anchor="start" x="8" y="-28.25" font-family="Helvetica,sans-Serif" font-size="10.00">Optimist::FunctionBase</text>
<text text-anchor="start" x="8" y="-17" font-family="Helvetica,sans-Serif" font-size="10.00">&lt; Real, N, M, Booth&lt; Real</text>
<text text-anchor="middle" x="66.88" y="-5.75" font-family="Helvetica,sans-Serif" font-size="10.00"> &gt;, false &gt;</text>
</a>
</g>
</g>
<!-- Node1 -->
<g id="Node000001" class="node">
<title>Node1</title>
<g id="a_Node000001"><a xlink:href="class_optimist_1_1_function.html" target="_top" xlink:title=" ">
<polygon fill="white" stroke="#666666" points="269,-41.75 169.75,-41.75 169.75,0 269,0 269,-41.75"/>
<text text-anchor="start" x="177.75" y="-28.25" font-family="Helvetica,sans-Serif" font-size="10.00">Optimist::Function</text>
<text text-anchor="start" x="177.75" y="-17" font-family="Helvetica,sans-Serif" font-size="10.00">&lt; Real, 2, 2, Booth</text>
<text text-anchor="middle" x="219.38" y="-5.75" font-family="Helvetica,sans-Serif" font-size="10.00">&lt; Real &gt; &gt;</text>
</a>
</g>
</g>
<!-- Node0&#45;&gt;Node1 -->
<g id="edge6_Node000000_Node000001" class="edge">
<title>Node0&#45;&gt;Node1</title>
<g id="a_edge6_Node000000_Node000001"><a xlink:title=" ">
<path fill="none" stroke="#63b8ff" d="M145.2,-20.88C153.5,-20.88 161.78,-20.88 169.61,-20.88"/>
<polygon fill="#63b8ff" stroke="#63b8ff" points="145.4,-17.38 135.4,-20.88 145.4,-24.38 145.4,-17.38"/>
</a>
</g>
</g>
<!-- Node2 -->
<g id="Node000002" class="node">
<title>Node2</title>
<g id="a_Node000002"><a xlink:href="class_optimist_1_1_test_set_1_1_booth.html" target="_top" xlink:title="Class container for the Booth function.">
<polygon fill="white" stroke="#666666" points="403.5,-36.12 305,-36.12 305,-5.62 403.5,-5.62 403.5,-36.12"/>
<text text-anchor="start" x="313" y="-22.62" font-family="Helvetica,sans-Serif" font-size="10.00">Optimist::TestSet::</text>
<text text-anchor="middle" x="354.25" y="-11.38" font-family="Helvetica,sans-Serif" font-size="10.00">Booth&lt; Real &gt;</text>
</a>
</g>
</g>
<!-- Node1&#45;&gt;Node2 -->
<g id="edge7_Node000001_Node000002" class="edge">
<title>Node1&#45;&gt;Node2</title>
<g id="a_edge7_Node000001_Node000002"><a xlink:title=" ">
<path fill="none" stroke="#63b8ff" d="M280.74,-20.88C288.8,-20.88 296.98,-20.88 304.79,-20.88"/>
<polygon fill="#63b8ff" stroke="#63b8ff" points="280.99,-17.38 270.99,-20.88 280.99,-24.38 280.99,-17.38"/>
</a>
</g>
</g>
</g>
</svg>
