<?xml version="1.0" encoding="UTF-8" standalone="no"?>
<!DOCTYPE svg PUBLIC "-//W3C//DTD SVG 1.1//EN"
 "http://www.w3.org/Graphics/SVG/1.1/DTD/svg11.dtd">
<!-- Generated by graphviz version 12.2.1 (20241206.2353)
 -->
<!-- Title: Graphical Class Hierarchy Pages: 1 -->
<svg width="430pt" height="39pt"
 viewBox="0.00 0.00 429.50 38.50" xmlns="http://www.w3.org/2000/svg" xmlns:xlink="http://www.w3.org/1999/xlink">
<g id="graph0" class="graph" transform="scale(1 1) rotate(0) translate(4 34.5)">
<title>Graphical Class Hierarchy</title>
<!-- Node0 -->
<g id="Node000000" class="node">
<title>Node0</title>
<g id="a_Node000000"><a xlink:href="class_optimist_1_1_solver.html" target="_top" xlink:title=" ">
<polygon fill="white" stroke="#666666" points="121,-24.88 0,-24.88 0,-5.63 121,-5.63 121,-24.88"/>
<text text-anchor="middle" x="60.5" y="-11.38" font-family="Helvetica,sans-Serif" font-size="10.00">Optimist::Solver&lt; 1, 1 &gt;</text>
</a>
</g>
</g>
<!-- Node1 -->
<g id="Node000001" class="node">
<title>Node1</title>
<g id="a_Node000001"><a xlink:href="class_optimist_1_1_scalar_solver_1_1_scalar_solver.html" target="_top" xlink:title="Class container for the scalar solver.">
<polygon fill="white" stroke="#666666" points="271.25,-30.5 157,-30.5 157,0 271.25,0 271.25,-30.5"/>
<text text-anchor="start" x="165" y="-17" font-family="Helvetica,sans-Serif" font-size="10.00">Optimist::ScalarSolver</text>
<text text-anchor="middle" x="214.12" y="-5.75" font-family="Helvetica,sans-Serif" font-size="10.00">::ScalarSolver</text>
</a>
</g>
</g>
<!-- Node0&#45;&gt;Node1 -->
<g id="edge1_Node000000_Node000001" class="edge">
<title>Node0&#45;&gt;Node1</title>
<g id="a_edge1_Node000000_Node000001"><a xlink:title=" ">
<path fill="none" stroke="#63b8ff" d="M132.68,-15.25C140.71,-15.25 148.8,-15.25 156.6,-15.25"/>
<polygon fill="#63b8ff" stroke="#63b8ff" points="132.94,-11.75 122.94,-15.25 132.94,-18.75 132.94,-11.75"/>
</a>
</g>
</g>
<!-- Node2 -->
<g id="Node000002" class="node">
<title>Node2</title>
<g id="a_Node000002"><a xlink:href="class_optimist_1_1_scalar_solver_1_1_newton.html" target="_top" xlink:title="Class container for the Newton&#39;s method with affine invariant step.">
<polygon fill="white" stroke="#666666" points="421.5,-30.5 307.25,-30.5 307.25,0 421.5,0 421.5,-30.5"/>
<text text-anchor="start" x="315.25" y="-17" font-family="Helvetica,sans-Serif" font-size="10.00">Optimist::ScalarSolver</text>
<text text-anchor="middle" x="364.38" y="-5.75" font-family="Helvetica,sans-Serif" font-size="10.00">::Newton</text>
</a>
</g>
</g>
<!-- Node1&#45;&gt;Node2 -->
<g id="edge2_Node000001_Node000002" class="edge">
<title>Node1&#45;&gt;Node2</title>
<g id="a_edge2_Node000001_Node000002"><a xlink:title=" ">
<path fill="none" stroke="#63b8ff" d="M282.91,-15.25C290.99,-15.25 299.17,-15.25 307.06,-15.25"/>
<polygon fill="#63b8ff" stroke="#63b8ff" points="283.11,-11.75 273.11,-15.25 283.11,-18.75 283.11,-11.75"/>
</a>
</g>
</g>
</g>
</svg>
