<?xml version="1.0" encoding="UTF-8" standalone="no"?>
<!DOCTYPE svg PUBLIC "-//W3C//DTD SVG 1.1//EN"
 "http://www.w3.org/Graphics/SVG/1.1/DTD/svg11.dtd">
<!-- Generated by graphviz version 12.2.1 (20241206.2353)
 -->
<!-- Title: Graphical Class Hierarchy Pages: 1 -->
<svg width="435pt" height="61pt"
 viewBox="0.00 0.00 434.75 61.00" xmlns="http://www.w3.org/2000/svg" xmlns:xlink="http://www.w3.org/1999/xlink">
<g id="graph0" class="graph" transform="scale(1 1) rotate(0) translate(4 57)">
<title>Graphical Class Hierarchy</title>
<!-- Node0 -->
<g id="Node000000" class="node">
<title>Node0</title>
<g id="a_Node000000"><a xlink:href="class_optimist_1_1_solver.html" target="_top" xlink:title=" ">
<polygon fill="white" stroke="#666666" points="118.75,-47.38 0,-47.38 0,-5.62 118.75,-5.62 118.75,-47.38"/>
<text text-anchor="start" x="8" y="-33.88" font-family="Helvetica,sans-Serif" font-size="10.00">Optimist::Solver&lt; Real,</text>
<text text-anchor="start" x="8" y="-22.62" font-family="Helvetica,sans-Serif" font-size="10.00"> N, 1, PatternSearch&lt;</text>
<text text-anchor="middle" x="59.38" y="-11.38" font-family="Helvetica,sans-Serif" font-size="10.00"> Real, N &gt; &gt;</text>
</a>
</g>
</g>
<!-- Node1 -->
<g id="Node000001" class="node">
<title>Node1</title>
<g id="a_Node000001"><a xlink:href="class_optimist_1_1_optimizer_1_1_optimizer.html" target="_top" xlink:title=" ">
<polygon fill="white" stroke="#666666" points="268.25,-53 154.75,-53 154.75,0 268.25,0 268.25,-53"/>
<text text-anchor="start" x="162.75" y="-39.5" font-family="Helvetica,sans-Serif" font-size="10.00">Optimist::Optimizer</text>
<text text-anchor="start" x="162.75" y="-28.25" font-family="Helvetica,sans-Serif" font-size="10.00">::Optimizer&lt; Real, N,</text>
<text text-anchor="start" x="162.75" y="-17" font-family="Helvetica,sans-Serif" font-size="10.00"> PatternSearch&lt; Real,</text>
<text text-anchor="middle" x="211.5" y="-5.75" font-family="Helvetica,sans-Serif" font-size="10.00"> N &gt; &gt;</text>
</a>
</g>
</g>
<!-- Node0&#45;&gt;Node1 -->
<g id="edge45_Node000000_Node000001" class="edge">
<title>Node0&#45;&gt;Node1</title>
<g id="a_edge45_Node000000_Node000001"><a xlink:title=" ">
<path fill="none" stroke="#63b8ff" d="M130.22,-26.5C138.32,-26.5 146.51,-26.5 154.4,-26.5"/>
<polygon fill="#63b8ff" stroke="#63b8ff" points="130.36,-23 120.36,-26.5 130.36,-30 130.36,-23"/>
</a>
</g>
</g>
<!-- Node2 -->
<g id="Node000002" class="node">
<title>Node2</title>
<g id="a_Node000002"><a xlink:href="class_optimist_1_1_optimizer_1_1_pattern_search.html" target="_top" xlink:title="Class container for the Hooke and Jeeves Pattern Search algorithm.">
<polygon fill="white" stroke="#666666" points="426.75,-41.75 304.25,-41.75 304.25,-11.25 426.75,-11.25 426.75,-41.75"/>
<text text-anchor="start" x="312.25" y="-28.25" font-family="Helvetica,sans-Serif" font-size="10.00">Optimist::Optimizer</text>
<text text-anchor="middle" x="365.5" y="-17" font-family="Helvetica,sans-Serif" font-size="10.00">::PatternSearch&lt; Real &gt;</text>
</a>
</g>
</g>
<!-- Node1&#45;&gt;Node2 -->
<g id="edge46_Node000001_Node000002" class="edge">
<title>Node1&#45;&gt;Node2</title>
<g id="a_edge46_Node000001_Node000002"><a xlink:title=" ">
<path fill="none" stroke="#63b8ff" d="M280.16,-26.5C288.09,-26.5 296.14,-26.5 303.97,-26.5"/>
<polygon fill="#63b8ff" stroke="#63b8ff" points="280.18,-23 270.18,-26.5 280.18,-30 280.18,-23"/>
</a>
</g>
</g>
</g>
</svg>
