<?xml version="1.0" encoding="UTF-8" standalone="no"?>
<!DOCTYPE svg PUBLIC "-//W3C//DTD SVG 1.1//EN"
 "http://www.w3.org/Graphics/SVG/1.1/DTD/svg11.dtd">
<!-- Generated by graphviz version 12.2.1 (20241206.2353)
 -->
<!-- Title: Graphical Class Hierarchy Pages: 1 -->
<svg width="419pt" height="137pt"
 viewBox="0.00 0.00 419.00 136.50" xmlns="http://www.w3.org/2000/svg" xmlns:xlink="http://www.w3.org/1999/xlink">
<g id="graph0" class="graph" transform="scale(1 1) rotate(0) translate(4 132.5)">
<title>Graphical Class Hierarchy</title>
<!-- Node0 -->
<g id="Node000000" class="node">
<title>Node0</title>
<g id="a_Node000000"><a xlink:href="class_optimist_1_1_solver.html" target="_top" xlink:title=" ">
<polygon fill="white" stroke="#666666" points="125.5,-73.88 0,-73.88 0,-54.62 125.5,-54.62 125.5,-73.88"/>
<text text-anchor="middle" x="62.75" y="-60.38" font-family="Helvetica,sans-Serif" font-size="10.00">Optimist::Solver&lt; N, N &gt;</text>
</a>
</g>
</g>
<!-- Node1 -->
<g id="Node000001" class="node">
<title>Node1</title>
<g id="a_Node000001"><a xlink:href="class_optimist_1_1_root_finder_1_1_root_finder.html" target="_top" xlink:title="Class container for the multi&#45;dimensional root finder.">
<polygon fill="white" stroke="#666666" points="268.25,-79.5 161.5,-79.5 161.5,-49 268.25,-49 268.25,-79.5"/>
<text text-anchor="start" x="169.5" y="-66" font-family="Helvetica,sans-Serif" font-size="10.00">Optimist::RootFinder</text>
<text text-anchor="middle" x="214.88" y="-54.75" font-family="Helvetica,sans-Serif" font-size="10.00">::RootFinder&lt; N &gt;</text>
</a>
</g>
</g>
<!-- Node0&#45;&gt;Node1 -->
<g id="edge5_Node000000_Node000001" class="edge">
<title>Node0&#45;&gt;Node1</title>
<g id="a_edge5_Node000000_Node000001"><a xlink:title=" ">
<path fill="none" stroke="#63b8ff" d="M137.11,-64.25C145.23,-64.25 153.38,-64.25 161.18,-64.25"/>
<polygon fill="#63b8ff" stroke="#63b8ff" points="137.19,-60.75 127.19,-64.25 137.19,-67.75 137.19,-60.75"/>
</a>
</g>
</g>
<!-- Node2 -->
<g id="Node000002" class="node">
<title>Node2</title>
<g id="a_Node000002"><a xlink:href="class_optimist_1_1_root_finder_1_1_broyden.html" target="_top" xlink:title="Class container for the Broyden&#39;s method.">
<polygon fill="white" stroke="#666666" points="411,-128.5 304.25,-128.5 304.25,-98 411,-98 411,-128.5"/>
<text text-anchor="start" x="312.25" y="-115" font-family="Helvetica,sans-Serif" font-size="10.00">Optimist::RootFinder</text>
<text text-anchor="middle" x="357.62" y="-103.75" font-family="Helvetica,sans-Serif" font-size="10.00">::Broyden&lt; N &gt;</text>
</a>
</g>
</g>
<!-- Node1&#45;&gt;Node2 -->
<g id="edge6_Node000001_Node000002" class="edge">
<title>Node1&#45;&gt;Node2</title>
<g id="a_edge6_Node000001_Node000002"><a xlink:title=" ">
<path fill="none" stroke="#63b8ff" d="M271.32,-83.55C284.69,-88.21 298.82,-93.13 311.65,-97.59"/>
<polygon fill="#63b8ff" stroke="#63b8ff" points="272.82,-80.37 262.23,-80.39 270.52,-86.98 272.82,-80.37"/>
</a>
</g>
</g>
<!-- Node3 -->
<g id="Node000003" class="node">
<title>Node3</title>
<g id="a_Node000003"><a xlink:href="class_optimist_1_1_root_finder_1_1_greenstadt.html" target="_top" xlink:title="Class container for the Greenstadt&#39;s method.">
<polygon fill="white" stroke="#666666" points="411,-79.5 304.25,-79.5 304.25,-49 411,-49 411,-79.5"/>
<text text-anchor="start" x="312.25" y="-66" font-family="Helvetica,sans-Serif" font-size="10.00">Optimist::RootFinder</text>
<text text-anchor="middle" x="357.62" y="-54.75" font-family="Helvetica,sans-Serif" font-size="10.00">::Greenstadt&lt; N &gt;</text>
</a>
</g>
</g>
<!-- Node1&#45;&gt;Node3 -->
<g id="edge7_Node000001_Node000003" class="edge">
<title>Node1&#45;&gt;Node3</title>
<g id="a_edge7_Node000001_Node000003"><a xlink:title=" ">
<path fill="none" stroke="#63b8ff" d="M279.94,-64.25C287.99,-64.25 296.14,-64.25 303.99,-64.25"/>
<polygon fill="#63b8ff" stroke="#63b8ff" points="280.2,-60.75 270.2,-64.25 280.2,-67.75 280.2,-60.75"/>
</a>
</g>
</g>
<!-- Node4 -->
<g id="Node000004" class="node">
<title>Node4</title>
<g id="a_Node000004"><a xlink:href="class_optimist_1_1_root_finder_1_1_newton.html" target="_top" xlink:title="Class container for the Newton&#39;s method.">
<polygon fill="white" stroke="#666666" points="411,-30.5 304.25,-30.5 304.25,0 411,0 411,-30.5"/>
<text text-anchor="start" x="312.25" y="-17" font-family="Helvetica,sans-Serif" font-size="10.00">Optimist::RootFinder</text>
<text text-anchor="middle" x="357.62" y="-5.75" font-family="Helvetica,sans-Serif" font-size="10.00">::Newton&lt; N &gt;</text>
</a>
</g>
</g>
<!-- Node1&#45;&gt;Node4 -->
<g id="edge8_Node000001_Node000004" class="edge">
<title>Node1&#45;&gt;Node4</title>
<g id="a_edge8_Node000001_Node000004"><a xlink:title=" ">
<path fill="none" stroke="#63b8ff" d="M271.32,-44.95C284.69,-40.29 298.82,-35.37 311.65,-30.91"/>
<polygon fill="#63b8ff" stroke="#63b8ff" points="270.52,-41.52 262.23,-48.11 272.82,-48.13 270.52,-41.52"/>
</a>
</g>
</g>
</g>
</svg>
