<?xml version="1.0" encoding="UTF-8" standalone="no"?>
<!DOCTYPE svg PUBLIC "-//W3C//DTD SVG 1.1//EN"
 "http://www.w3.org/Graphics/SVG/1.1/DTD/svg11.dtd">
<!-- Generated by graphviz version 12.2.1 (20241206.2353)
 -->
<!-- Title: Graphical Class Hierarchy Pages: 1 -->
<svg width="487pt" height="50pt"
 viewBox="0.00 0.00 487.25 49.75" xmlns="http://www.w3.org/2000/svg" xmlns:xlink="http://www.w3.org/1999/xlink">
<g id="graph0" class="graph" transform="scale(1 1) rotate(0) translate(4 45.75)">
<title>Graphical Class Hierarchy</title>
<!-- Node0 -->
<g id="Node000000" class="node">
<title>Node0</title>
<g id="a_Node000000"><a xlink:href="class_optimist_1_1_solver.html" target="_top" xlink:title=" ">
<polygon fill="white" stroke="#666666" points="138.25,-36.12 0,-36.12 0,-5.62 138.25,-5.62 138.25,-36.12"/>
<text text-anchor="start" x="8" y="-22.62" font-family="Helvetica,sans-Serif" font-size="10.00">Optimist::Solver&lt; Real,</text>
<text text-anchor="middle" x="69.12" y="-11.38" font-family="Helvetica,sans-Serif" font-size="10.00"> 1, 1, Chebyshev&lt; Real &gt; &gt;</text>
</a>
</g>
</g>
<!-- Node1 -->
<g id="Node000001" class="node">
<title>Node1</title>
<g id="a_Node000001"><a xlink:href="class_optimist_1_1_scalar_root_finder_1_1_scalar_root_finder.html" target="_top" xlink:title=" ">
<polygon fill="white" stroke="#666666" points="308.75,-41.75 174.25,-41.75 174.25,0 308.75,0 308.75,-41.75"/>
<text text-anchor="start" x="182.25" y="-28.25" font-family="Helvetica,sans-Serif" font-size="10.00">Optimist::ScalarRootFinder</text>
<text text-anchor="start" x="182.25" y="-17" font-family="Helvetica,sans-Serif" font-size="10.00">::ScalarRootFinder&lt; Real,</text>
<text text-anchor="middle" x="241.5" y="-5.75" font-family="Helvetica,sans-Serif" font-size="10.00"> Chebyshev&lt; Real &gt; &gt;</text>
</a>
</g>
</g>
<!-- Node0&#45;&gt;Node1 -->
<g id="edge37_Node000000_Node000001" class="edge">
<title>Node0&#45;&gt;Node1</title>
<g id="a_edge37_Node000000_Node000001"><a xlink:title=" ">
<path fill="none" stroke="#63b8ff" d="M149.76,-20.88C157.81,-20.88 165.93,-20.88 173.83,-20.88"/>
<polygon fill="#63b8ff" stroke="#63b8ff" points="149.95,-17.38 139.95,-20.88 149.95,-24.38 149.95,-17.38"/>
</a>
</g>
</g>
<!-- Node2 -->
<g id="Node000002" class="node">
<title>Node2</title>
<g id="a_Node000002"><a xlink:href="class_optimist_1_1_scalar_root_finder_1_1_chebyshev.html" target="_top" xlink:title="Class container for the Chebyshev&#39;s method.">
<polygon fill="white" stroke="#666666" points="479.25,-36.12 344.75,-36.12 344.75,-5.62 479.25,-5.62 479.25,-36.12"/>
<text text-anchor="start" x="352.75" y="-22.62" font-family="Helvetica,sans-Serif" font-size="10.00">Optimist::ScalarRootFinder</text>
<text text-anchor="middle" x="412" y="-11.38" font-family="Helvetica,sans-Serif" font-size="10.00">::Chebyshev&lt; Real &gt;</text>
</a>
</g>
</g>
<!-- Node1&#45;&gt;Node2 -->
<g id="edge38_Node000001_Node000002" class="edge">
<title>Node1&#45;&gt;Node2</title>
<g id="a_edge38_Node000001_Node000002"><a xlink:title=" ">
<path fill="none" stroke="#63b8ff" d="M320.35,-20.88C328.36,-20.88 336.46,-20.88 344.34,-20.88"/>
<polygon fill="#63b8ff" stroke="#63b8ff" points="320.61,-17.38 310.61,-20.88 320.61,-24.38 320.61,-17.38"/>
</a>
</g>
</g>
</g>
</svg>
