<?xml version="1.0" encoding="UTF-8" standalone="no"?>
<!DOCTYPE svg PUBLIC "-//W3C//DTD SVG 1.1//EN"
 "http://www.w3.org/Graphics/SVG/1.1/DTD/svg11.dtd">
<!-- Generated by graphviz version 12.2.1 (20241206.2353)
 -->
<!-- Title: Graphical Class Hierarchy Pages: 1 -->
<svg width="602pt" height="50pt"
 viewBox="0.00 0.00 602.25 49.75" xmlns="http://www.w3.org/2000/svg" xmlns:xlink="http://www.w3.org/1999/xlink">
<g id="graph0" class="graph" transform="scale(1 1) rotate(0) translate(4 45.75)">
<title>Graphical Class Hierarchy</title>
<!-- Node0 -->
<g id="Node000000" class="node">
<title>Node0</title>
<g id="a_Node000000"><a xlink:href="class_optimist_1_1_solver.html" target="_top" xlink:title=" ">
<polygon fill="white" stroke="#666666" points="127.75,-36.12 0,-36.12 0,-5.62 127.75,-5.62 127.75,-36.12"/>
<text text-anchor="start" x="8" y="-22.62" font-family="Helvetica,sans-Serif" font-size="10.00">Optimist::Solver&lt; Real,</text>
<text text-anchor="middle" x="63.88" y="-11.38" font-family="Helvetica,sans-Serif" font-size="10.00"> N, N, Algo748&lt; Real &gt; &gt;</text>
</a>
</g>
</g>
<!-- Node1 -->
<g id="Node000001" class="node">
<title>Node1</title>
<g id="a_Node000001"><a xlink:href="class_optimist_1_1_root_finder_1_1_root_finder.html" target="_top" xlink:title=" ">
<polygon fill="white" stroke="#666666" points="277.25,-41.75 163.75,-41.75 163.75,0 277.25,0 277.25,-41.75"/>
<text text-anchor="start" x="171.75" y="-28.25" font-family="Helvetica,sans-Serif" font-size="10.00">Optimist::RootFinder</text>
<text text-anchor="start" x="171.75" y="-17" font-family="Helvetica,sans-Serif" font-size="10.00">::RootFinder&lt; Real, 1,</text>
<text text-anchor="middle" x="220.5" y="-5.75" font-family="Helvetica,sans-Serif" font-size="10.00"> Algo748&lt; Real &gt; &gt;</text>
</a>
</g>
</g>
<!-- Node0&#45;&gt;Node1 -->
<g id="edge47_Node000000_Node000001" class="edge">
<title>Node0&#45;&gt;Node1</title>
<g id="a_edge47_Node000000_Node000001"><a xlink:title=" ">
<path fill="none" stroke="#63b8ff" d="M139.53,-20.88C147.58,-20.88 155.67,-20.88 163.45,-20.88"/>
<polygon fill="#63b8ff" stroke="#63b8ff" points="139.73,-17.38 129.73,-20.88 139.73,-24.38 139.73,-17.38"/>
</a>
</g>
</g>
<!-- Node2 -->
<g id="Node000002" class="node">
<title>Node2</title>
<g id="a_Node000002"><a xlink:href="class_optimist_1_1_root_finder_1_1_bracketing.html" target="_top" xlink:title=" ">
<polygon fill="white" stroke="#666666" points="451.5,-41.75 313.25,-41.75 313.25,0 451.5,0 451.5,-41.75"/>
<text text-anchor="start" x="321.25" y="-28.25" font-family="Helvetica,sans-Serif" font-size="10.00">Optimist::RootFinder</text>
<text text-anchor="start" x="321.25" y="-17" font-family="Helvetica,sans-Serif" font-size="10.00">::Bracketing&lt; Real, Algo748</text>
<text text-anchor="middle" x="382.38" y="-5.75" font-family="Helvetica,sans-Serif" font-size="10.00">&lt; Real &gt; &gt;</text>
</a>
</g>
</g>
<!-- Node1&#45;&gt;Node2 -->
<g id="edge48_Node000001_Node000002" class="edge">
<title>Node1&#45;&gt;Node2</title>
<g id="a_edge48_Node000001_Node000002"><a xlink:title=" ">
<path fill="none" stroke="#63b8ff" d="M288.87,-20.88C296.8,-20.88 304.89,-20.88 312.83,-20.88"/>
<polygon fill="#63b8ff" stroke="#63b8ff" points="288.93,-17.38 278.93,-20.88 288.93,-24.38 288.93,-17.38"/>
</a>
</g>
</g>
<!-- Node3 -->
<g id="Node000003" class="node">
<title>Node3</title>
<g id="a_Node000003"><a xlink:href="class_optimist_1_1_root_finder_1_1_algo748.html" target="_top" xlink:title="Class container for the Algorithm 748.">
<polygon fill="white" stroke="#666666" points="594.25,-36.12 487.5,-36.12 487.5,-5.62 594.25,-5.62 594.25,-36.12"/>
<text text-anchor="start" x="495.5" y="-22.62" font-family="Helvetica,sans-Serif" font-size="10.00">Optimist::RootFinder</text>
<text text-anchor="middle" x="540.88" y="-11.38" font-family="Helvetica,sans-Serif" font-size="10.00">::Algo748&lt; Real &gt;</text>
</a>
</g>
</g>
<!-- Node2&#45;&gt;Node3 -->
<g id="edge49_Node000002_Node000003" class="edge">
<title>Node2&#45;&gt;Node3</title>
<g id="a_edge49_Node000002_Node000003"><a xlink:title=" ">
<path fill="none" stroke="#63b8ff" d="M462.9,-20.88C471.22,-20.88 479.53,-20.88 487.45,-20.88"/>
<polygon fill="#63b8ff" stroke="#63b8ff" points="463.08,-17.38 453.08,-20.88 463.08,-24.38 463.08,-17.38"/>
</a>
</g>
</g>
</g>
</svg>
