<?xml version="1.0" encoding="UTF-8" standalone="no"?>
<!DOCTYPE svg PUBLIC "-//W3C//DTD SVG 1.1//EN"
 "http://www.w3.org/Graphics/SVG/1.1/DTD/svg11.dtd">
<!-- Generated by graphviz version 12.2.1 (20241206.2353)
 -->
<!-- Title: Graphical Class Hierarchy Pages: 1 -->
<svg width="466pt" height="50pt"
 viewBox="0.00 0.00 465.50 49.75" xmlns="http://www.w3.org/2000/svg" xmlns:xlink="http://www.w3.org/1999/xlink">
<g id="graph0" class="graph" transform="scale(1 1) rotate(0) translate(4 45.75)">
<title>Graphical Class Hierarchy</title>
<!-- Node0 -->
<g id="Node000000" class="node">
<title>Node0</title>
<g id="a_Node000000"><a xlink:href="class_optimist_1_1_solver.html" target="_top" xlink:title=" ">
<polygon fill="white" stroke="#666666" points="127,-36.12 0,-36.12 0,-5.62 127,-5.62 127,-36.12"/>
<text text-anchor="start" x="8" y="-22.62" font-family="Helvetica,sans-Serif" font-size="10.00">Optimist::Solver&lt; N,</text>
<text text-anchor="middle" x="63.5" y="-11.38" font-family="Helvetica,sans-Serif" font-size="10.00"> 1, PatternSearch&lt; N &gt; &gt;</text>
</a>
</g>
</g>
<!-- Node1 -->
<g id="Node000001" class="node">
<title>Node1</title>
<g id="a_Node000001"><a xlink:href="class_optimist_1_1_optimizer_1_1_optimizer.html" target="_top" xlink:title=" ">
<polygon fill="white" stroke="#666666" points="311.75,-41.75 163,-41.75 163,0 311.75,0 311.75,-41.75"/>
<text text-anchor="start" x="171" y="-28.25" font-family="Helvetica,sans-Serif" font-size="10.00">Optimist::Optimizer</text>
<text text-anchor="start" x="171" y="-17" font-family="Helvetica,sans-Serif" font-size="10.00">::Optimizer&lt; N, PatternSearch</text>
<text text-anchor="middle" x="237.38" y="-5.75" font-family="Helvetica,sans-Serif" font-size="10.00">&lt; N &gt; &gt;</text>
</a>
</g>
</g>
<!-- Node0&#45;&gt;Node1 -->
<g id="edge33_Node000000_Node000001" class="edge">
<title>Node0&#45;&gt;Node1</title>
<g id="a_edge33_Node000000_Node000001"><a xlink:title=" ">
<path fill="none" stroke="#63b8ff" d="M138.36,-20.88C146.45,-20.88 154.7,-20.88 162.79,-20.88"/>
<polygon fill="#63b8ff" stroke="#63b8ff" points="138.55,-17.38 128.55,-20.88 138.55,-24.38 138.55,-17.38"/>
</a>
</g>
</g>
<!-- Node2 -->
<g id="Node000002" class="node">
<title>Node2</title>
<g id="a_Node000002"><a xlink:href="class_optimist_1_1_optimizer_1_1_pattern_search.html" target="_top" xlink:title="Class container for the Hooke and Jeeves Pattern Search algorithm.">
<polygon fill="white" stroke="#666666" points="457.5,-36.12 347.75,-36.12 347.75,-5.62 457.5,-5.62 457.5,-36.12"/>
<text text-anchor="start" x="355.75" y="-22.62" font-family="Helvetica,sans-Serif" font-size="10.00">Optimist::Optimizer</text>
<text text-anchor="middle" x="402.62" y="-11.38" font-family="Helvetica,sans-Serif" font-size="10.00">::PatternSearch&lt; N &gt;</text>
</a>
</g>
</g>
<!-- Node1&#45;&gt;Node2 -->
<g id="edge34_Node000001_Node000002" class="edge">
<title>Node1&#45;&gt;Node2</title>
<g id="a_edge34_Node000001_Node000002"><a xlink:title=" ">
<path fill="none" stroke="#63b8ff" d="M323.18,-20.88C331.48,-20.88 339.73,-20.88 347.59,-20.88"/>
<polygon fill="#63b8ff" stroke="#63b8ff" points="323.39,-17.38 313.39,-20.88 323.39,-24.38 323.39,-17.38"/>
</a>
</g>
</g>
</g>
</svg>
