<?xml version="1.0" encoding="UTF-8" standalone="no"?>
<!DOCTYPE svg PUBLIC "-//W3C//DTD SVG 1.1//EN"
 "http://www.w3.org/Graphics/SVG/1.1/DTD/svg11.dtd">
<!-- Generated by graphviz version 12.2.1 (20241206.2353)
 -->
<!-- Title: Graphical Class Hierarchy Pages: 1 -->
<svg width="403pt" height="50pt"
 viewBox="0.00 0.00 403.25 49.75" xmlns="http://www.w3.org/2000/svg" xmlns:xlink="http://www.w3.org/1999/xlink">
<g id="graph0" class="graph" transform="scale(1 1) rotate(0) translate(4 45.75)">
<title>Graphical Class Hierarchy</title>
<!-- Node0 -->
<g id="Node000000" class="node">
<title>Node0</title>
<g id="a_Node000000"><a xlink:href="class_optimist_1_1_function.html" target="_top" xlink:title=" ">
<polygon fill="white" stroke="#666666" points="100,-41.75 0,-41.75 0,0 100,0 100,-41.75"/>
<text text-anchor="start" x="8" y="-28.25" font-family="Helvetica,sans-Serif" font-size="10.00">Optimist::Function</text>
<text text-anchor="start" x="8" y="-17" font-family="Helvetica,sans-Serif" font-size="10.00">&lt; Real, 1, 1, Linear</text>
<text text-anchor="middle" x="50" y="-5.75" font-family="Helvetica,sans-Serif" font-size="10.00">&lt; Real &gt; &gt;</text>
</a>
</g>
</g>
<!-- Node1 -->
<g id="Node000001" class="node">
<title>Node1</title>
<g id="a_Node000001"><a xlink:href="class_optimist_1_1_scalar_function.html" target="_top" xlink:title=" ">
<polygon fill="white" stroke="#666666" points="260.75,-36.12 136,-36.12 136,-5.62 260.75,-5.62 260.75,-36.12"/>
<text text-anchor="start" x="144" y="-22.62" font-family="Helvetica,sans-Serif" font-size="10.00">Optimist::ScalarFunction</text>
<text text-anchor="middle" x="198.38" y="-11.38" font-family="Helvetica,sans-Serif" font-size="10.00">&lt; Real, Linear&lt; Real &gt; &gt;</text>
</a>
</g>
</g>
<!-- Node0&#45;&gt;Node1 -->
<g id="edge6_Node000000_Node000001" class="edge">
<title>Node0&#45;&gt;Node1</title>
<g id="a_edge6_Node000000_Node000001"><a xlink:title=" ">
<path fill="none" stroke="#63b8ff" d="M111.58,-20.88C119.52,-20.88 127.66,-20.88 135.62,-20.88"/>
<polygon fill="#63b8ff" stroke="#63b8ff" points="111.66,-17.38 101.66,-20.88 111.66,-24.38 111.66,-17.38"/>
</a>
</g>
</g>
<!-- Node2 -->
<g id="Node000002" class="node">
<title>Node2</title>
<g id="a_Node000002"><a xlink:href="class_optimist_1_1_test_set_1_1_linear.html" target="_top" xlink:title="Class container for the linear function.">
<polygon fill="white" stroke="#666666" points="395.25,-36.12 296.75,-36.12 296.75,-5.62 395.25,-5.62 395.25,-36.12"/>
<text text-anchor="start" x="304.75" y="-22.62" font-family="Helvetica,sans-Serif" font-size="10.00">Optimist::TestSet::</text>
<text text-anchor="middle" x="346" y="-11.38" font-family="Helvetica,sans-Serif" font-size="10.00">Linear&lt; Real &gt;</text>
</a>
</g>
</g>
<!-- Node1&#45;&gt;Node2 -->
<g id="edge7_Node000001_Node000002" class="edge">
<title>Node1&#45;&gt;Node2</title>
<g id="a_edge7_Node000001_Node000002"><a xlink:title=" ">
<path fill="none" stroke="#63b8ff" d="M272.54,-20.88C280.63,-20.88 288.71,-20.88 296.4,-20.88"/>
<polygon fill="#63b8ff" stroke="#63b8ff" points="272.65,-17.38 262.65,-20.88 272.65,-24.38 272.65,-17.38"/>
</a>
</g>
</g>
</g>
</svg>
