<?xml version="1.0" encoding="UTF-8" standalone="no"?>
<!DOCTYPE svg PUBLIC "-//W3C//DTD SVG 1.1//EN"
 "http://www.w3.org/Graphics/SVG/1.1/DTD/svg11.dtd">
<!-- Generated by graphviz version 12.2.1 (20241206.2353)
 -->
<!-- Title: Graphical Class Hierarchy Pages: 1 -->
<svg width="397pt" height="39pt"
 viewBox="0.00 0.00 396.50 38.50" xmlns="http://www.w3.org/2000/svg" xmlns:xlink="http://www.w3.org/1999/xlink">
<g id="graph0" class="graph" transform="scale(1 1) rotate(0) translate(4 34.5)">
<title>Graphical Class Hierarchy</title>
<!-- Node0 -->
<g id="Node000000" class="node">
<title>Node0</title>
<g id="a_Node000000"><a xlink:href="class_optimist_1_1_function.html" target="_top" xlink:title=" ">
<polygon fill="white" stroke="#666666" points="100.75,-30.5 0,-30.5 0,0 100.75,0 100.75,-30.5"/>
<text text-anchor="start" x="8" y="-17" font-family="Helvetica,sans-Serif" font-size="10.00">Optimist::Function</text>
<text text-anchor="middle" x="50.38" y="-5.75" font-family="Helvetica,sans-Serif" font-size="10.00">&lt; N, 1, Schaffer2 &gt;</text>
</a>
</g>
</g>
<!-- Node1 -->
<g id="Node000001" class="node">
<title>Node1</title>
<g id="a_Node000001"><a xlink:href="class_optimist_1_1_cost_function.html" target="_top" xlink:title=" ">
<polygon fill="white" stroke="#666666" points="254,-30.5 136.75,-30.5 136.75,0 254,0 254,-30.5"/>
<text text-anchor="start" x="144.75" y="-17" font-family="Helvetica,sans-Serif" font-size="10.00">Optimist::CostFunction</text>
<text text-anchor="middle" x="195.38" y="-5.75" font-family="Helvetica,sans-Serif" font-size="10.00">&lt; 2, Schaffer2 &gt;</text>
</a>
</g>
</g>
<!-- Node0&#45;&gt;Node1 -->
<g id="edge10_Node000000_Node000001" class="edge">
<title>Node0&#45;&gt;Node1</title>
<g id="a_edge10_Node000000_Node000001"><a xlink:title=" ">
<path fill="none" stroke="#63b8ff" d="M112.48,-15.25C120.45,-15.25 128.59,-15.25 136.5,-15.25"/>
<polygon fill="#63b8ff" stroke="#63b8ff" points="112.5,-11.75 102.5,-15.25 112.5,-18.75 112.5,-11.75"/>
</a>
</g>
</g>
<!-- Node2 -->
<g id="Node000002" class="node">
<title>Node2</title>
<g id="a_Node000002"><a xlink:href="class_optimist_1_1_test_set_1_1_schaffer2.html" target="_top" xlink:title="Class container for the Schaffer2 function.">
<polygon fill="white" stroke="#666666" points="388.5,-30.5 290,-30.5 290,0 388.5,0 388.5,-30.5"/>
<text text-anchor="start" x="298" y="-17" font-family="Helvetica,sans-Serif" font-size="10.00">Optimist::TestSet::</text>
<text text-anchor="middle" x="339.25" y="-5.75" font-family="Helvetica,sans-Serif" font-size="10.00">Schaffer2</text>
</a>
</g>
</g>
<!-- Node1&#45;&gt;Node2 -->
<g id="edge11_Node000001_Node000002" class="edge">
<title>Node1&#45;&gt;Node2</title>
<g id="a_edge11_Node000001_Node000002"><a xlink:title=" ">
<path fill="none" stroke="#63b8ff" d="M265.77,-15.25C273.79,-15.25 281.84,-15.25 289.51,-15.25"/>
<polygon fill="#63b8ff" stroke="#63b8ff" points="266,-11.75 256,-15.25 266,-18.75 266,-11.75"/>
</a>
</g>
</g>
</g>
</svg>
