<?xml version="1.0" encoding="UTF-8" standalone="no"?>
<!DOCTYPE svg PUBLIC "-//W3C//DTD SVG 1.1//EN"
 "http://www.w3.org/Graphics/SVG/1.1/DTD/svg11.dtd">
<!-- Generated by graphviz version 13.1.2 (20250808.2320)
 -->
<!-- Title: Graphical Class Hierarchy Pages: 1 -->
<svg width="656pt" height="50pt"
 viewBox="0.00 0.00 656.00 50.00" xmlns="http://www.w3.org/2000/svg" xmlns:xlink="http://www.w3.org/1999/xlink">
<g id="graph0" class="graph" transform="scale(1 1) rotate(0) translate(4 45.75)">
<title>Graphical Class Hierarchy</title>
<!-- Node0 -->
<g id="Node000000" class="node">
<title>Node0</title>
<g id="a_Node000000"><a xlink:href="class_optimist_1_1_solver_base.html" target="_top" xlink:title=" ">
<polygon fill="white" stroke="#666666" points="136,-41.75 0,-41.75 0,0 136,0 136,-41.75"/>
<text xml:space="preserve" text-anchor="start" x="8" y="-28.25" font-family="Helvetica,sans-Serif" font-size="10.00">Optimist::SolverBase</text>
<text xml:space="preserve" text-anchor="start" x="8" y="-17" font-family="Helvetica,sans-Serif" font-size="10.00">&lt; Real, N, N, Chandrupatla</text>
<text xml:space="preserve" text-anchor="middle" x="68" y="-5.75" font-family="Helvetica,sans-Serif" font-size="10.00">&lt; Real &gt;, false &gt;</text>
</a>
</g>
</g>
<!-- Node1 -->
<g id="Node000001" class="node">
<title>Node1</title>
<g id="a_Node000001"><a xlink:href="class_optimist_1_1_root_finder_1_1_root_finder.html" target="_top" xlink:title=" ">
<polygon fill="white" stroke="#666666" points="296,-41.75 172,-41.75 172,0 296,0 296,-41.75"/>
<text xml:space="preserve" text-anchor="start" x="180" y="-28.25" font-family="Helvetica,sans-Serif" font-size="10.00">Optimist::RootFinder</text>
<text xml:space="preserve" text-anchor="start" x="180" y="-17" font-family="Helvetica,sans-Serif" font-size="10.00">::RootFinder&lt; Real, 1,</text>
<text xml:space="preserve" text-anchor="middle" x="234" y="-5.75" font-family="Helvetica,sans-Serif" font-size="10.00"> Chandrupatla&lt; Real &gt; &gt;</text>
</a>
</g>
</g>
<!-- Node0&#45;&gt;Node1 -->
<g id="edge52_Node000000_Node000001" class="edge">
<title>Node0&#45;&gt;Node1</title>
<g id="a_edge52_Node000000_Node000001"><a xlink:title=" ">
<path fill="none" stroke="#63b8ff" d="M147.58,-20.88C155.69,-20.88 163.84,-20.88 171.72,-20.88"/>
<polygon fill="#63b8ff" stroke="#63b8ff" points="147.69,-17.38 137.69,-20.88 147.69,-24.38 147.69,-17.38"/>
</a>
</g>
</g>
<!-- Node2 -->
<g id="Node000002" class="node">
<title>Node2</title>
<g id="a_Node000002"><a xlink:href="class_optimist_1_1_root_finder_1_1_bracketing.html" target="_top" xlink:title=" ">
<polygon fill="white" stroke="#666666" points="493.5,-41.75 332,-41.75 332,0 493.5,0 493.5,-41.75"/>
<text xml:space="preserve" text-anchor="start" x="340" y="-28.25" font-family="Helvetica,sans-Serif" font-size="10.00">Optimist::RootFinder</text>
<text xml:space="preserve" text-anchor="start" x="340" y="-17" font-family="Helvetica,sans-Serif" font-size="10.00">::Bracketing&lt; Real, Chandrupatla</text>
<text xml:space="preserve" text-anchor="middle" x="412.75" y="-5.75" font-family="Helvetica,sans-Serif" font-size="10.00">&lt; Real &gt; &gt;</text>
</a>
</g>
</g>
<!-- Node1&#45;&gt;Node2 -->
<g id="edge53_Node000001_Node000002" class="edge">
<title>Node1&#45;&gt;Node2</title>
<g id="a_edge53_Node000001_Node000002"><a xlink:title=" ">
<path fill="none" stroke="#63b8ff" d="M307.69,-20.88C315.56,-20.88 323.6,-20.88 331.55,-20.88"/>
<polygon fill="#63b8ff" stroke="#63b8ff" points="307.84,-17.38 297.84,-20.88 307.84,-24.38 307.84,-17.38"/>
</a>
</g>
</g>
<!-- Node3 -->
<g id="Node000003" class="node">
<title>Node3</title>
<g id="a_Node000003"><a xlink:href="class_optimist_1_1_root_finder_1_1_chandrupatla.html" target="_top" xlink:title="Class container for the Chandrupatla algorithm.">
<polygon fill="white" stroke="#666666" points="647.5,-36.12 529.5,-36.12 529.5,-5.62 647.5,-5.62 647.5,-36.12"/>
<text xml:space="preserve" text-anchor="start" x="537.5" y="-22.62" font-family="Helvetica,sans-Serif" font-size="10.00">Optimist::RootFinder</text>
<text xml:space="preserve" text-anchor="middle" x="588.5" y="-11.38" font-family="Helvetica,sans-Serif" font-size="10.00">::Chandrupatla&lt; Real &gt;</text>
</a>
</g>
</g>
<!-- Node2&#45;&gt;Node3 -->
<g id="edge54_Node000002_Node000003" class="edge">
<title>Node2&#45;&gt;Node3</title>
<g id="a_edge54_Node000002_Node000003"><a xlink:title=" ">
<path fill="none" stroke="#63b8ff" d="M505.25,-20.88C513.38,-20.88 521.45,-20.88 529.18,-20.88"/>
<polygon fill="#63b8ff" stroke="#63b8ff" points="505.27,-17.38 495.27,-20.88 505.27,-24.38 505.27,-17.38"/>
</a>
</g>
</g>
</g>
</svg>
