<?xml version="1.0" encoding="UTF-8" standalone="no"?>
<!DOCTYPE svg PUBLIC "-//W3C//DTD SVG 1.1//EN"
 "http://www.w3.org/Graphics/SVG/1.1/DTD/svg11.dtd">
<!-- Generated by graphviz version 12.2.1 (20241206.2353)
 -->
<!-- Title: Graphical Class Hierarchy Pages: 1 -->
<svg width="434pt" height="50pt"
 viewBox="0.00 0.00 434.00 49.75" xmlns="http://www.w3.org/2000/svg" xmlns:xlink="http://www.w3.org/1999/xlink">
<g id="graph0" class="graph" transform="scale(1 1) rotate(0) translate(4 45.75)">
<title>Graphical Class Hierarchy</title>
<!-- Node0 -->
<g id="Node000000" class="node">
<title>Node0</title>
<g id="a_Node000000"><a xlink:href="class_optimist_1_1_function.html" target="_top" xlink:title=" ">
<polygon fill="white" stroke="#666666" points="106.75,-41.75 0,-41.75 0,0 106.75,0 106.75,-41.75"/>
<text text-anchor="start" x="8" y="-28.25" font-family="Helvetica,sans-Serif" font-size="10.00">Optimist::Function</text>
<text text-anchor="start" x="8" y="-17" font-family="Helvetica,sans-Serif" font-size="10.00">&lt; Real, N, M, Brown</text>
<text text-anchor="middle" x="53.38" y="-5.75" font-family="Helvetica,sans-Serif" font-size="10.00">&lt; Real &gt; &gt;</text>
</a>
</g>
</g>
<!-- Node1 -->
<g id="Node000001" class="node">
<title>Node1</title>
<g id="a_Node000001"><a xlink:href="class_optimist_1_1_vector_function.html" target="_top" xlink:title=" ">
<polygon fill="white" stroke="#666666" points="291.5,-36.12 142.75,-36.12 142.75,-5.62 291.5,-5.62 291.5,-36.12"/>
<text text-anchor="start" x="150.75" y="-22.62" font-family="Helvetica,sans-Serif" font-size="10.00">Optimist::VectorFunction</text>
<text text-anchor="middle" x="217.12" y="-11.38" font-family="Helvetica,sans-Serif" font-size="10.00">&lt; Real, 2, 3, Brown&lt; Real &gt; &gt;</text>
</a>
</g>
</g>
<!-- Node0&#45;&gt;Node1 -->
<g id="edge21_Node000000_Node000001" class="edge">
<title>Node0&#45;&gt;Node1</title>
<g id="a_edge21_Node000000_Node000001"><a xlink:title=" ">
<path fill="none" stroke="#63b8ff" d="M118.3,-20.88C126.22,-20.88 134.37,-20.88 142.42,-20.88"/>
<polygon fill="#63b8ff" stroke="#63b8ff" points="118.4,-17.38 108.4,-20.88 118.4,-24.38 118.4,-17.38"/>
</a>
</g>
</g>
<!-- Node2 -->
<g id="Node000002" class="node">
<title>Node2</title>
<g id="a_Node000002"><a xlink:href="class_optimist_1_1_test_set_1_1_brown.html" target="_top" xlink:title="Class container for the Brown badly scaled function.">
<polygon fill="white" stroke="#666666" points="426,-36.12 327.5,-36.12 327.5,-5.62 426,-5.62 426,-36.12"/>
<text text-anchor="start" x="335.5" y="-22.62" font-family="Helvetica,sans-Serif" font-size="10.00">Optimist::TestSet::</text>
<text text-anchor="middle" x="376.75" y="-11.38" font-family="Helvetica,sans-Serif" font-size="10.00">Brown&lt; Real &gt;</text>
</a>
</g>
</g>
<!-- Node1&#45;&gt;Node2 -->
<g id="edge22_Node000001_Node000002" class="edge">
<title>Node1&#45;&gt;Node2</title>
<g id="a_edge22_Node000001_Node000002"><a xlink:title=" ">
<path fill="none" stroke="#63b8ff" d="M303.14,-20.88C311.4,-20.88 319.56,-20.88 327.27,-20.88"/>
<polygon fill="#63b8ff" stroke="#63b8ff" points="303.37,-17.38 293.37,-20.88 303.37,-24.38 303.37,-17.38"/>
</a>
</g>
</g>
</g>
</svg>
