<?xml version="1.0" encoding="UTF-8" standalone="no"?>
<!DOCTYPE svg PUBLIC "-//W3C//DTD SVG 1.1//EN"
 "http://www.w3.org/Graphics/SVG/1.1/DTD/svg11.dtd">
<!-- Generated by graphviz version 13.1.2 (20250808.2320)
 -->
<!-- Title: Graphical Class Hierarchy Pages: 1 -->
<svg width="466pt" height="284pt"
 viewBox="0.00 0.00 466.00 284.00" xmlns="http://www.w3.org/2000/svg" xmlns:xlink="http://www.w3.org/1999/xlink">
<g id="graph0" class="graph" transform="scale(1 1) rotate(0) translate(4 279.5)">
<title>Graphical Class Hierarchy</title>
<!-- Node0 -->
<g id="Node000000" class="node">
<title>Node0</title>
<g id="a_Node000000"><a xlink:href="class_optimist_1_1_function_base.html" target="_top" xlink:title=" ">
<polygon fill="white" stroke="#666666" points="131.5,-158.12 0,-158.12 0,-116.38 131.5,-116.38 131.5,-158.12"/>
<text xml:space="preserve" text-anchor="start" x="8" y="-144.62" font-family="Helvetica,sans-Serif" font-size="10.00">Optimist::FunctionBase</text>
<text xml:space="preserve" text-anchor="start" x="8" y="-133.38" font-family="Helvetica,sans-Serif" font-size="10.00">&lt; Real, N, M, Rosenbrock</text>
<text xml:space="preserve" text-anchor="middle" x="65.75" y="-122.12" font-family="Helvetica,sans-Serif" font-size="10.00">&lt; Real, N &gt;, false &gt;</text>
</a>
</g>
</g>
<!-- Node1 -->
<g id="Node000001" class="node">
<title>Node1</title>
<g id="a_Node000001"><a xlink:href="class_optimist_1_1_function.html" target="_top" xlink:title=" ">
<polygon fill="white" stroke="#666666" points="298.25,-158.12 167.5,-158.12 167.5,-116.38 298.25,-116.38 298.25,-158.12"/>
<text xml:space="preserve" text-anchor="start" x="175.5" y="-144.62" font-family="Helvetica,sans-Serif" font-size="10.00">Optimist::Function</text>
<text xml:space="preserve" text-anchor="start" x="175.5" y="-133.38" font-family="Helvetica,sans-Serif" font-size="10.00">&lt; Real, N, N, Rosenbrock</text>
<text xml:space="preserve" text-anchor="middle" x="232.88" y="-122.12" font-family="Helvetica,sans-Serif" font-size="10.00">&lt; Real, N &gt; &gt;</text>
</a>
</g>
</g>
<!-- Node0&#45;&gt;Node1 -->
<g id="edge20_Node000000_Node000001" class="edge">
<title>Node0&#45;&gt;Node1</title>
<g id="a_edge20_Node000000_Node000001"><a xlink:title=" ">
<path fill="none" stroke="#63b8ff" d="M142.86,-137.25C150.93,-137.25 159.08,-137.25 167,-137.25"/>
<polygon fill="#63b8ff" stroke="#63b8ff" points="143.05,-133.75 133.05,-137.25 143.05,-140.75 143.05,-133.75"/>
</a>
</g>
</g>
<!-- Node2 -->
<g id="Node000002" class="node">
<title>Node2</title>
<g id="a_Node000002"><a xlink:href="class_optimist_1_1_test_set_1_1_rosenbrock.html" target="_top" xlink:title=" ">
<polygon fill="white" stroke="#666666" points="454.88,-275.5 336.88,-275.5 336.88,-245 454.88,-245 454.88,-275.5"/>
<text xml:space="preserve" text-anchor="start" x="344.88" y="-262" font-family="Helvetica,sans-Serif" font-size="10.00">Optimist::TestSet::</text>
<text xml:space="preserve" text-anchor="middle" x="395.88" y="-250.75" font-family="Helvetica,sans-Serif" font-size="10.00">Rosenbrock&lt; Real, 2 &gt;</text>
</a>
</g>
</g>
<!-- Node1&#45;&gt;Node2 -->
<g id="edge21_Node000001_Node000002" class="edge">
<title>Node1&#45;&gt;Node2</title>
<g id="a_edge21_Node000001_Node000002"><a xlink:title=" ">
<path fill="none" stroke="#63b8ff" d="M258.78,-167.04C277.74,-188.26 305.42,-216.27 334.25,-235.25 339.48,-238.69 345.26,-241.81 351.11,-244.58"/>
<polygon fill="#63b8ff" stroke="#63b8ff" points="261.43,-164.76 252.21,-159.55 256.17,-169.37 261.43,-164.76"/>
</a>
</g>
</g>
<!-- Node3 -->
<g id="Node000003" class="node">
<title>Node3</title>
<g id="a_Node000003"><a xlink:href="class_optimist_1_1_test_set_1_1_rosenbrock.html" target="_top" xlink:title=" ">
<polygon fill="white" stroke="#666666" points="454.88,-226.5 336.88,-226.5 336.88,-196 454.88,-196 454.88,-226.5"/>
<text xml:space="preserve" text-anchor="start" x="344.88" y="-213" font-family="Helvetica,sans-Serif" font-size="10.00">Optimist::TestSet::</text>
<text xml:space="preserve" text-anchor="middle" x="395.88" y="-201.75" font-family="Helvetica,sans-Serif" font-size="10.00">Rosenbrock&lt; Real, 4 &gt;</text>
</a>
</g>
</g>
<!-- Node1&#45;&gt;Node3 -->
<g id="edge22_Node000001_Node000003" class="edge">
<title>Node1&#45;&gt;Node3</title>
<g id="a_edge22_Node000001_Node000003"><a xlink:title=" ">
<path fill="none" stroke="#63b8ff" d="M285.98,-163.46C301.42,-171.02 318.44,-179.14 334.25,-186.25 341.21,-189.38 348.67,-192.58 355.91,-195.61"/>
<polygon fill="#63b8ff" stroke="#63b8ff" points="287.96,-160.53 277.44,-159.26 284.87,-166.81 287.96,-160.53"/>
</a>
</g>
</g>
<!-- Node4 -->
<g id="Node000004" class="node">
<title>Node4</title>
<g id="a_Node000004"><a xlink:href="class_optimist_1_1_test_set_1_1_rosenbrock.html" target="_top" xlink:title=" ">
<polygon fill="white" stroke="#666666" points="454.88,-177.5 336.88,-177.5 336.88,-147 454.88,-147 454.88,-177.5"/>
<text xml:space="preserve" text-anchor="start" x="344.88" y="-164" font-family="Helvetica,sans-Serif" font-size="10.00">Optimist::TestSet::</text>
<text xml:space="preserve" text-anchor="middle" x="395.88" y="-152.75" font-family="Helvetica,sans-Serif" font-size="10.00">Rosenbrock&lt; Real, 6 &gt;</text>
</a>
</g>
</g>
<!-- Node1&#45;&gt;Node4 -->
<g id="edge23_Node000001_Node000004" class="edge">
<title>Node1&#45;&gt;Node4</title>
<g id="a_edge23_Node000001_Node000004"><a xlink:title=" ">
<path fill="none" stroke="#63b8ff" d="M309.76,-149.03C318.76,-150.43 327.85,-151.84 336.55,-153.19"/>
<polygon fill="#63b8ff" stroke="#63b8ff" points="310.35,-145.58 299.93,-147.51 309.27,-152.5 310.35,-145.58"/>
</a>
</g>
</g>
<!-- Node5 -->
<g id="Node000005" class="node">
<title>Node5</title>
<g id="a_Node000005"><a xlink:href="class_optimist_1_1_test_set_1_1_rosenbrock.html" target="_top" xlink:title=" ">
<polygon fill="white" stroke="#666666" points="454.88,-128.5 336.88,-128.5 336.88,-98 454.88,-98 454.88,-128.5"/>
<text xml:space="preserve" text-anchor="start" x="344.88" y="-115" font-family="Helvetica,sans-Serif" font-size="10.00">Optimist::TestSet::</text>
<text xml:space="preserve" text-anchor="middle" x="395.88" y="-103.75" font-family="Helvetica,sans-Serif" font-size="10.00">Rosenbrock&lt; Real, 8 &gt;</text>
</a>
</g>
</g>
<!-- Node1&#45;&gt;Node5 -->
<g id="edge24_Node000001_Node000005" class="edge">
<title>Node1&#45;&gt;Node5</title>
<g id="a_edge24_Node000001_Node000005"><a xlink:title=" ">
<path fill="none" stroke="#63b8ff" d="M309.76,-125.94C318.76,-124.6 327.85,-123.24 336.55,-121.94"/>
<polygon fill="#63b8ff" stroke="#63b8ff" points="309.3,-122.47 299.93,-127.4 310.34,-129.39 309.3,-122.47"/>
</a>
</g>
</g>
<!-- Node6 -->
<g id="Node000006" class="node">
<title>Node6</title>
<g id="a_Node000006"><a xlink:href="class_optimist_1_1_test_set_1_1_rosenbrock.html" target="_top" xlink:title=" ">
<polygon fill="white" stroke="#666666" points="457.5,-79.5 334.25,-79.5 334.25,-49 457.5,-49 457.5,-79.5"/>
<text xml:space="preserve" text-anchor="start" x="342.25" y="-66" font-family="Helvetica,sans-Serif" font-size="10.00">Optimist::TestSet::</text>
<text xml:space="preserve" text-anchor="middle" x="395.88" y="-54.75" font-family="Helvetica,sans-Serif" font-size="10.00">Rosenbrock&lt; Real, 10 &gt;</text>
</a>
</g>
</g>
<!-- Node1&#45;&gt;Node6 -->
<g id="edge25_Node000001_Node000006" class="edge">
<title>Node1&#45;&gt;Node6</title>
<g id="a_edge25_Node000001_Node000006"><a xlink:title=" ">
<path fill="none" stroke="#63b8ff" d="M287.31,-111.03C302.41,-103.8 318.91,-96.08 334.25,-89.25 341.22,-86.15 348.69,-82.96 355.93,-79.94"/>
<polygon fill="#63b8ff" stroke="#63b8ff" points="285.97,-107.79 278.48,-115.28 289,-114.1 285.97,-107.79"/>
</a>
</g>
</g>
<!-- Node7 -->
<g id="Node000007" class="node">
<title>Node7</title>
<g id="a_Node000007"><a xlink:href="class_optimist_1_1_test_set_1_1_rosenbrock.html" target="_top" xlink:title="Class container for the extended Rosenbrock function.">
<polygon fill="white" stroke="#666666" points="456,-30.5 335.75,-30.5 335.75,0 456,0 456,-30.5"/>
<text xml:space="preserve" text-anchor="start" x="343.75" y="-17" font-family="Helvetica,sans-Serif" font-size="10.00">Optimist::TestSet::</text>
<text xml:space="preserve" text-anchor="middle" x="395.88" y="-5.75" font-family="Helvetica,sans-Serif" font-size="10.00">Rosenbrock&lt; Real, N &gt;</text>
</a>
</g>
</g>
<!-- Node1&#45;&gt;Node7 -->
<g id="edge26_Node000001_Node000007" class="edge">
<title>Node1&#45;&gt;Node7</title>
<g id="a_edge26_Node000001_Node000007"><a xlink:title=" ">
<path fill="none" stroke="#63b8ff" d="M259.19,-107.39C278.17,-86.44 305.69,-58.95 334.25,-40.25 339.49,-36.82 345.27,-33.71 351.13,-30.94"/>
<polygon fill="#63b8ff" stroke="#63b8ff" points="256.64,-104.99 252.6,-114.79 261.87,-109.64 256.64,-104.99"/>
</a>
</g>
</g>
</g>
</svg>
