<?xml version="1.0" encoding="UTF-8" standalone="no"?>
<!DOCTYPE svg PUBLIC "-//W3C//DTD SVG 1.1//EN"
 "http://www.w3.org/Graphics/SVG/1.1/DTD/svg11.dtd">
<!-- Generated by graphviz version 12.2.1 (20241206.2353)
 -->
<!-- Title: Graphical Class Hierarchy Pages: 1 -->
<svg width="433pt" height="39pt"
 viewBox="0.00 0.00 432.50 38.50" xmlns="http://www.w3.org/2000/svg" xmlns:xlink="http://www.w3.org/1999/xlink">
<g id="graph0" class="graph" transform="scale(1 1) rotate(0) translate(4 34.5)">
<title>Graphical Class Hierarchy</title>
<!-- Node0 -->
<g id="Node000000" class="node">
<title>Node0</title>
<g id="a_Node000000"><a xlink:href="class_optimist_1_1_function.html" target="_top" xlink:title=" ">
<polygon fill="white" stroke="#666666" points="133.75,-30.5 0,-30.5 0,0 133.75,0 133.75,-30.5"/>
<text text-anchor="start" x="8" y="-17" font-family="Helvetica,sans-Serif" font-size="10.00">Optimist::Function</text>
<text text-anchor="middle" x="66.88" y="-5.75" font-family="Helvetica,sans-Serif" font-size="10.00">&lt; N, 1, EllipticParaboloid &gt;</text>
</a>
</g>
</g>
<!-- Node1 -->
<g id="Node000001" class="node">
<title>Node1</title>
<g id="a_Node000001"><a xlink:href="class_optimist_1_1_cost_function.html" target="_top" xlink:title=" ">
<polygon fill="white" stroke="#666666" points="290,-30.5 169.75,-30.5 169.75,0 290,0 290,-30.5"/>
<text text-anchor="start" x="177.75" y="-17" font-family="Helvetica,sans-Serif" font-size="10.00">Optimist::CostFunction</text>
<text text-anchor="middle" x="229.88" y="-5.75" font-family="Helvetica,sans-Serif" font-size="10.00">&lt; 2, EllipticParaboloid &gt;</text>
</a>
</g>
</g>
<!-- Node0&#45;&gt;Node1 -->
<g id="edge15_Node000000_Node000001" class="edge">
<title>Node0&#45;&gt;Node1</title>
<g id="a_edge15_Node000000_Node000001"><a xlink:title=" ">
<path fill="none" stroke="#63b8ff" d="M145.27,-15.25C153.41,-15.25 161.6,-15.25 169.49,-15.25"/>
<polygon fill="#63b8ff" stroke="#63b8ff" points="145.34,-11.75 135.34,-15.25 145.34,-18.75 145.34,-11.75"/>
</a>
</g>
</g>
<!-- Node2 -->
<g id="Node000002" class="node">
<title>Node2</title>
<g id="a_Node000002"><a xlink:href="class_optimist_1_1_test_set_1_1_elliptic_paraboloid.html" target="_top" xlink:title="Class container for the paraboloid function.">
<polygon fill="white" stroke="#666666" points="424.5,-30.5 326,-30.5 326,0 424.5,0 424.5,-30.5"/>
<text text-anchor="start" x="334" y="-17" font-family="Helvetica,sans-Serif" font-size="10.00">Optimist::TestSet::</text>
<text text-anchor="middle" x="375.25" y="-5.75" font-family="Helvetica,sans-Serif" font-size="10.00">EllipticParaboloid</text>
</a>
</g>
</g>
<!-- Node1&#45;&gt;Node2 -->
<g id="edge16_Node000001_Node000002" class="edge">
<title>Node1&#45;&gt;Node2</title>
<g id="a_edge16_Node000001_Node000002"><a xlink:title=" ">
<path fill="none" stroke="#63b8ff" d="M301.77,-15.25C309.82,-15.25 317.88,-15.25 325.55,-15.25"/>
<polygon fill="#63b8ff" stroke="#63b8ff" points="301.95,-11.75 291.95,-15.25 301.95,-18.75 301.95,-11.75"/>
</a>
</g>
</g>
</g>
</svg>
