<?xml version="1.0" encoding="UTF-8" standalone="no"?>
<!DOCTYPE svg PUBLIC "-//W3C//DTD SVG 1.1//EN"
 "http://www.w3.org/Graphics/SVG/1.1/DTD/svg11.dtd">
<!-- Generated by graphviz version 12.2.1 (20241206.2353)
 -->
<!-- Title: Graphical Class Hierarchy Pages: 1 -->
<svg width="400pt" height="39pt"
 viewBox="0.00 0.00 399.50 38.50" xmlns="http://www.w3.org/2000/svg" xmlns:xlink="http://www.w3.org/1999/xlink">
<g id="graph0" class="graph" transform="scale(1 1) rotate(0) translate(4 34.5)">
<title>Graphical Class Hierarchy</title>
<!-- Node0 -->
<g id="Node000000" class="node">
<title>Node0</title>
<g id="a_Node000000"><a xlink:href="class_optimist_1_1_function.html" target="_top" xlink:title=" ">
<polygon fill="white" stroke="#666666" points="96.25,-30.5 0,-30.5 0,0 96.25,0 96.25,-30.5"/>
<text text-anchor="start" x="8" y="-17" font-family="Helvetica,sans-Serif" font-size="10.00">Optimist::Function</text>
<text text-anchor="middle" x="48.12" y="-5.75" font-family="Helvetica,sans-Serif" font-size="10.00">&lt; N, M, Booth &gt;</text>
</a>
</g>
</g>
<!-- Node1 -->
<g id="Node000001" class="node">
<title>Node1</title>
<g id="a_Node000001"><a xlink:href="class_optimist_1_1_vector_function.html" target="_top" xlink:title=" ">
<polygon fill="white" stroke="#666666" points="257,-30.5 132.25,-30.5 132.25,0 257,0 257,-30.5"/>
<text text-anchor="start" x="140.25" y="-17" font-family="Helvetica,sans-Serif" font-size="10.00">Optimist::VectorFunction</text>
<text text-anchor="middle" x="194.62" y="-5.75" font-family="Helvetica,sans-Serif" font-size="10.00">&lt; 2, 2, Booth &gt;</text>
</a>
</g>
</g>
<!-- Node0&#45;&gt;Node1 -->
<g id="edge19_Node000000_Node000001" class="edge">
<title>Node0&#45;&gt;Node1</title>
<g id="a_edge19_Node000000_Node000001"><a xlink:title=" ">
<path fill="none" stroke="#63b8ff" d="M107.88,-15.25C115.83,-15.25 124,-15.25 132,-15.25"/>
<polygon fill="#63b8ff" stroke="#63b8ff" points="107.95,-11.75 97.95,-15.25 107.95,-18.75 107.95,-11.75"/>
</a>
</g>
</g>
<!-- Node2 -->
<g id="Node000002" class="node">
<title>Node2</title>
<g id="a_Node000002"><a xlink:href="class_optimist_1_1_test_set_1_1_booth.html" target="_top" xlink:title="Class container for the Booth function.">
<polygon fill="white" stroke="#666666" points="391.5,-30.5 293,-30.5 293,0 391.5,0 391.5,-30.5"/>
<text text-anchor="start" x="301" y="-17" font-family="Helvetica,sans-Serif" font-size="10.00">Optimist::TestSet::</text>
<text text-anchor="middle" x="342.25" y="-5.75" font-family="Helvetica,sans-Serif" font-size="10.00">Booth</text>
</a>
</g>
</g>
<!-- Node1&#45;&gt;Node2 -->
<g id="edge20_Node000001_Node000002" class="edge">
<title>Node1&#45;&gt;Node2</title>
<g id="a_edge20_Node000001_Node000002"><a xlink:title=" ">
<path fill="none" stroke="#63b8ff" d="M268.79,-15.25C276.88,-15.25 284.96,-15.25 292.65,-15.25"/>
<polygon fill="#63b8ff" stroke="#63b8ff" points="268.9,-11.75 258.9,-15.25 268.9,-18.75 268.9,-11.75"/>
</a>
</g>
</g>
</g>
</svg>
