<?xml version="1.0" encoding="UTF-8" standalone="no"?>
<!DOCTYPE svg PUBLIC "-//W3C//DTD SVG 1.1//EN"
 "http://www.w3.org/Graphics/SVG/1.1/DTD/svg11.dtd">
<!-- Generated by graphviz version 14.1.2 (20260124.0452)
 -->
<!-- Title: Graphical Class Hierarchy Pages: 1 -->
<svg width="583pt" height="50pt"
 viewBox="0.00 0.00 583.00 50.00" xmlns="http://www.w3.org/2000/svg" xmlns:xlink="http://www.w3.org/1999/xlink">
<g id="graph0" class="graph" transform="scale(1 1) rotate(0) translate(4 45.75)">
<title>Graphical Class Hierarchy</title>
<!-- Node0 -->
<g id="Node000000" class="node">
<title>Node0</title>
<g id="a_Node000000"><a xlink:href="class_optimist_1_1_solver_base.html" target="_top" xlink:title=" ">
<polygon fill="white" stroke="#666666" points="128.5,-41.75 0,-41.75 0,0 128.5,0 128.5,-41.75"/>
<text xml:space="preserve" text-anchor="start" x="8" y="-28.25" font-family="Helvetica,sans-Serif" font-size="10.00">Optimist::SolverBase</text>
<text xml:space="preserve" text-anchor="start" x="8" y="-17" font-family="Helvetica,sans-Serif" font-size="10.00">&lt; Vector, Vector, Broyden</text>
<text xml:space="preserve" text-anchor="middle" x="64.25" y="-5.75" font-family="Helvetica,sans-Serif" font-size="10.00">&lt; Vector &gt; &gt;</text>
</a>
</g>
</g>
<!-- Node1 -->
<g id="Node000001" class="node">
<title>Node1</title>
<g id="a_Node000001"><a xlink:href="class_optimist_1_1_root_finder_1_1_root_finder.html" target="_top" xlink:title=" ">
<polygon fill="white" stroke="#666666" points="275,-41.75 164.5,-41.75 164.5,0 275,0 275,-41.75"/>
<text xml:space="preserve" text-anchor="start" x="172.5" y="-28.25" font-family="Helvetica,sans-Serif" font-size="10.00">Optimist::RootFinder</text>
<text xml:space="preserve" text-anchor="start" x="172.5" y="-17" font-family="Helvetica,sans-Serif" font-size="10.00">::RootFinder&lt; Vector,</text>
<text xml:space="preserve" text-anchor="middle" x="219.75" y="-5.75" font-family="Helvetica,sans-Serif" font-size="10.00"> Broyden&lt; Vector &gt; &gt;</text>
</a>
</g>
</g>
<!-- Node0&#45;&gt;Node1 -->
<g id="edge56_Node000000_Node000001" class="edge">
<title>Node0&#45;&gt;Node1</title>
<g id="a_edge56_Node000000_Node000001"><a xlink:title=" ">
<path fill="none" stroke="#63b8ff" d="M139.81,-20.88C148.1,-20.88 156.42,-20.88 164.39,-20.88"/>
<polygon fill="#63b8ff" stroke="#63b8ff" points="140.08,-17.38 130.08,-20.88 140.08,-24.38 140.08,-17.38"/>
</a>
</g>
</g>
<!-- Node2 -->
<g id="Node000002" class="node">
<title>Node2</title>
<g id="a_Node000002"><a xlink:href="class_optimist_1_1_root_finder_1_1_quasi_newton.html" target="_top" xlink:title=" ">
<polygon fill="white" stroke="#666666" points="432,-41.75 311,-41.75 311,0 432,0 432,-41.75"/>
<text xml:space="preserve" text-anchor="start" x="319" y="-28.25" font-family="Helvetica,sans-Serif" font-size="10.00">Optimist::RootFinder</text>
<text xml:space="preserve" text-anchor="start" x="319" y="-17" font-family="Helvetica,sans-Serif" font-size="10.00">::QuasiNewton&lt; Vector,</text>
<text xml:space="preserve" text-anchor="middle" x="371.5" y="-5.75" font-family="Helvetica,sans-Serif" font-size="10.00"> Broyden&lt; Vector &gt; &gt;</text>
</a>
</g>
</g>
<!-- Node1&#45;&gt;Node2 -->
<g id="edge57_Node000001_Node000002" class="edge">
<title>Node1&#45;&gt;Node2</title>
<g id="a_edge57_Node000001_Node000002"><a xlink:title=" ">
<path fill="none" stroke="#63b8ff" d="M286.5,-20.88C294.57,-20.88 302.77,-20.88 310.74,-20.88"/>
<polygon fill="#63b8ff" stroke="#63b8ff" points="286.75,-17.38 276.75,-20.88 286.75,-24.38 286.75,-17.38"/>
</a>
</g>
</g>
<!-- Node3 -->
<g id="Node000003" class="node">
<title>Node3</title>
<g id="a_Node000003"><a xlink:href="class_optimist_1_1_root_finder_1_1_broyden.html" target="_top" xlink:title="Class container for the Broyden&#39;s method.">
<polygon fill="white" stroke="#666666" points="574.75,-36.12 468,-36.12 468,-5.62 574.75,-5.62 574.75,-36.12"/>
<text xml:space="preserve" text-anchor="start" x="476" y="-22.62" font-family="Helvetica,sans-Serif" font-size="10.00">Optimist::RootFinder</text>
<text xml:space="preserve" text-anchor="middle" x="521.38" y="-11.38" font-family="Helvetica,sans-Serif" font-size="10.00">::Broyden&lt; Vector &gt;</text>
</a>
</g>
</g>
<!-- Node2&#45;&gt;Node3 -->
<g id="edge58_Node000002_Node000003" class="edge">
<title>Node2&#45;&gt;Node3</title>
<g id="a_edge58_Node000002_Node000003"><a xlink:title=" ">
<path fill="none" stroke="#63b8ff" d="M443.58,-20.88C451.66,-20.88 459.79,-20.88 467.58,-20.88"/>
<polygon fill="#63b8ff" stroke="#63b8ff" points="443.73,-17.38 433.73,-20.88 443.73,-24.38 443.73,-17.38"/>
</a>
</g>
</g>
</g>
</svg>
