<?xml version="1.0" encoding="UTF-8" standalone="no"?>
<!DOCTYPE svg PUBLIC "-//W3C//DTD SVG 1.1//EN"
 "http://www.w3.org/Graphics/SVG/1.1/DTD/svg11.dtd">
<!-- Generated by graphviz version 13.1.2 (20250808.2320)
 -->
<!-- Title: Graphical Class Hierarchy Pages: 1 -->
<svg width="506pt" height="230pt"
 viewBox="0.00 0.00 506.00 230.00" xmlns="http://www.w3.org/2000/svg" xmlns:xlink="http://www.w3.org/1999/xlink">
<g id="graph0" class="graph" transform="scale(1 1) rotate(0) translate(4 225.75)">
<title>Graphical Class Hierarchy</title>
<!-- Node0 -->
<g id="Node000000" class="node">
<title>Node0</title>
<g id="a_Node000000"><a xlink:href="class_optimist_1_1_solver_base.html" target="_top" xlink:title=" ">
<polygon fill="white" stroke="#666666" points="144.25,-114.12 0,-114.12 0,-83.62 144.25,-83.62 144.25,-114.12"/>
<text xml:space="preserve" text-anchor="start" x="8" y="-100.62" font-family="Helvetica,sans-Serif" font-size="10.00">Optimist::SolverBase</text>
<text xml:space="preserve" text-anchor="middle" x="72.12" y="-89.38" font-family="Helvetica,sans-Serif" font-size="10.00">&lt; Real, 1, 1, DerivedSolver &gt;</text>
</a>
</g>
</g>
<!-- Node1 -->
<g id="Node000001" class="node">
<title>Node1</title>
<g id="a_Node000001"><a xlink:href="class_optimist_1_1_optimizer_1_1_optimizer_3_01_real_00_011_00_01_derived_solver_01_4.html" target="_top" xlink:title="Class container for the scalar optimizer.">
<polygon fill="white" stroke="#666666" points="306.12,-161.75 198.62,-161.75 198.62,-120 306.12,-120 306.12,-161.75"/>
<text xml:space="preserve" text-anchor="start" x="206.62" y="-148.25" font-family="Helvetica,sans-Serif" font-size="10.00">Optimist::Optimizer</text>
<text xml:space="preserve" text-anchor="start" x="206.62" y="-137" font-family="Helvetica,sans-Serif" font-size="10.00">::Optimizer&lt; Real, 1,</text>
<text xml:space="preserve" text-anchor="middle" x="252.38" y="-125.75" font-family="Helvetica,sans-Serif" font-size="10.00"> DerivedSolver &gt;</text>
</a>
</g>
</g>
<!-- Node0&#45;&gt;Node1 -->
<g id="edge35_Node000000_Node000001" class="edge">
<title>Node0&#45;&gt;Node1</title>
<g id="a_edge35_Node000000_Node000001"><a xlink:title=" ">
<path fill="none" stroke="#63b8ff" d="M150.73,-117.16C166.74,-120.93 183.26,-124.83 198.17,-128.34"/>
<polygon fill="#63b8ff" stroke="#63b8ff" points="151.76,-113.81 141.23,-114.92 150.16,-120.62 151.76,-113.81"/>
</a>
</g>
</g>
<!-- Node4 -->
<g id="Node000004" class="node">
<title>Node4</title>
<g id="a_Node000004"><a xlink:href="class_optimist_1_1_root_finder_1_1_root_finder_3_01_real_00_011_00_01_derived_solver_01_4.html" target="_top" xlink:title="Class container for the scalar scalar root&#45;finder.">
<polygon fill="white" stroke="#666666" points="309.12,-101.75 195.62,-101.75 195.62,-60 309.12,-60 309.12,-101.75"/>
<text xml:space="preserve" text-anchor="start" x="203.62" y="-88.25" font-family="Helvetica,sans-Serif" font-size="10.00">Optimist::RootFinder</text>
<text xml:space="preserve" text-anchor="start" x="203.62" y="-77" font-family="Helvetica,sans-Serif" font-size="10.00">::RootFinder&lt; Real, 1,</text>
<text xml:space="preserve" text-anchor="middle" x="252.38" y="-65.75" font-family="Helvetica,sans-Serif" font-size="10.00"> DerivedSolver &gt;</text>
</a>
</g>
</g>
<!-- Node0&#45;&gt;Node4 -->
<g id="edge36_Node000000_Node000004" class="edge">
<title>Node0&#45;&gt;Node4</title>
<g id="a_edge36_Node000000_Node000004"><a xlink:title=" ">
<path fill="none" stroke="#63b8ff" d="M155.76,-90.53C169.13,-89.18 182.7,-87.81 195.25,-86.54"/>
<polygon fill="#63b8ff" stroke="#63b8ff" points="155.7,-87.02 146.1,-91.51 156.41,-93.98 155.7,-87.02"/>
</a>
</g>
</g>
<!-- Node5 -->
<g id="Node000005" class="node">
<title>Node5</title>
<g id="a_Node000005"><a xlink:href="class_optimist_1_1_root_finder_1_1_bracketing.html" target="_top" xlink:title="Class container for the Bracketing algorithms.">
<polygon fill="white" stroke="#666666" points="498,-101.75 360.5,-101.75 360.5,-60 498,-60 498,-101.75"/>
<text xml:space="preserve" text-anchor="start" x="368.5" y="-88.25" font-family="Helvetica,sans-Serif" font-size="10.00">Optimist::RootFinder</text>
<text xml:space="preserve" text-anchor="start" x="368.5" y="-77" font-family="Helvetica,sans-Serif" font-size="10.00">::Bracketing&lt; Real, Derived</text>
<text xml:space="preserve" text-anchor="middle" x="429.25" y="-65.75" font-family="Helvetica,sans-Serif" font-size="10.00">Solver &gt;</text>
</a>
</g>
</g>
<!-- Node4&#45;&gt;Node5 -->
<g id="edge37_Node000004_Node000005" class="edge">
<title>Node4&#45;&gt;Node5</title>
<g id="a_edge37_Node000004_Node000005"><a xlink:title=" ">
<path fill="none" stroke="#63b8ff" d="M320.42,-80.88C333.42,-80.88 347.07,-80.88 360.1,-80.88"/>
<polygon fill="#63b8ff" stroke="#63b8ff" points="320.7,-77.38 310.7,-80.88 320.7,-84.38 320.7,-77.38"/>
</a>
</g>
</g>
<!-- Node2 -->
<g id="Node000002" class="node">
<title>Node2</title>
<g id="a_Node000002"><a xlink:href="class_optimist_1_1_solver_base.html" target="_top" xlink:title=" ">
<polygon fill="white" stroke="#666666" points="142,-191.75 2.25,-191.75 2.25,-150 142,-150 142,-191.75"/>
<text xml:space="preserve" text-anchor="start" x="10.25" y="-178.25" font-family="Helvetica,sans-Serif" font-size="10.00">Optimist::SolverBase</text>
<text xml:space="preserve" text-anchor="start" x="10.25" y="-167" font-family="Helvetica,sans-Serif" font-size="10.00">&lt; Real, N, 1, DerivedSolver,</text>
<text xml:space="preserve" text-anchor="middle" x="72.12" y="-155.75" font-family="Helvetica,sans-Serif" font-size="10.00"> false &gt;</text>
</a>
</g>
</g>
<!-- Node2&#45;&gt;Node1 -->
<g id="edge38_Node000002_Node000001" class="edge">
<title>Node2&#45;&gt;Node1</title>
<g id="a_edge38_Node000002_Node000001"><a xlink:title=" ">
<path fill="none" stroke="#63b8ff" d="M153.3,-157.38C168.54,-154.82 184.14,-152.19 198.27,-149.81"/>
<polygon fill="#63b8ff" stroke="#63b8ff" points="153.07,-153.87 143.79,-158.98 154.23,-160.77 153.07,-153.87"/>
</a>
</g>
</g>
<!-- Node3 -->
<g id="Node000003" class="node">
<title>Node3</title>
<g id="a_Node000003"><a xlink:href="class_optimist_1_1_optimizer_1_1_optimizer.html" target="_top" xlink:title="Class container for the multi&#45;dimensional optimizer.">
<polygon fill="white" stroke="#666666" points="324.5,-221.75 180.25,-221.75 180.25,-180 324.5,-180 324.5,-221.75"/>
<text xml:space="preserve" text-anchor="start" x="188.25" y="-208.25" font-family="Helvetica,sans-Serif" font-size="10.00">Optimist::Optimizer</text>
<text xml:space="preserve" text-anchor="start" x="188.25" y="-197" font-family="Helvetica,sans-Serif" font-size="10.00">::Optimizer&lt; Real, N,</text>
<text xml:space="preserve" text-anchor="middle" x="252.38" y="-185.75" font-family="Helvetica,sans-Serif" font-size="10.00"> DerivedSolver, ForceEigen &gt;</text>
</a>
</g>
</g>
<!-- Node2&#45;&gt;Node3 -->
<g id="edge39_Node000002_Node000003" class="edge">
<title>Node2&#45;&gt;Node3</title>
<g id="a_edge39_Node000002_Node000003"><a xlink:title=" ">
<path fill="none" stroke="#63b8ff" d="M153.39,-184.38C162.23,-185.87 171.17,-187.38 179.89,-188.84"/>
<polygon fill="#63b8ff" stroke="#63b8ff" points="154.23,-180.98 143.79,-182.77 153.07,-187.88 154.23,-180.98"/>
</a>
</g>
</g>
<!-- Node6 -->
<g id="Node000006" class="node">
<title>Node6</title>
<g id="a_Node000006"><a xlink:href="class_optimist_1_1_solver_base.html" target="_top" xlink:title=" ">
<polygon fill="white" stroke="#666666" points="143.12,-62.75 1.12,-62.75 1.12,-21 143.12,-21 143.12,-62.75"/>
<text xml:space="preserve" text-anchor="start" x="9.12" y="-49.25" font-family="Helvetica,sans-Serif" font-size="10.00">Optimist::SolverBase</text>
<text xml:space="preserve" text-anchor="start" x="9.12" y="-38" font-family="Helvetica,sans-Serif" font-size="10.00">&lt; Real, N, N, DerivedSolver,</text>
<text xml:space="preserve" text-anchor="middle" x="72.12" y="-26.75" font-family="Helvetica,sans-Serif" font-size="10.00"> false &gt;</text>
</a>
</g>
</g>
<!-- Node6&#45;&gt;Node4 -->
<g id="edge40_Node000006_Node000004" class="edge">
<title>Node6&#45;&gt;Node4</title>
<g id="a_edge40_Node000006_Node000004"><a xlink:title=" ">
<path fill="none" stroke="#63b8ff" d="M154.52,-59.68C168.26,-62.69 182.24,-65.75 195.16,-68.58"/>
<polygon fill="#63b8ff" stroke="#63b8ff" points="155.57,-56.33 145.05,-57.61 154.07,-63.17 155.57,-56.33"/>
</a>
</g>
</g>
<!-- Node7 -->
<g id="Node000007" class="node">
<title>Node7</title>
<g id="a_Node000007"><a xlink:href="class_optimist_1_1_root_finder_1_1_root_finder.html" target="_top" xlink:title="Class container for the multi&#45;dimensional root finder.">
<polygon fill="white" stroke="#666666" points="324.5,-41.75 180.25,-41.75 180.25,0 324.5,0 324.5,-41.75"/>
<text xml:space="preserve" text-anchor="start" x="188.25" y="-28.25" font-family="Helvetica,sans-Serif" font-size="10.00">Optimist::RootFinder</text>
<text xml:space="preserve" text-anchor="start" x="188.25" y="-17" font-family="Helvetica,sans-Serif" font-size="10.00">::RootFinder&lt; Real, N,</text>
<text xml:space="preserve" text-anchor="middle" x="252.38" y="-5.75" font-family="Helvetica,sans-Serif" font-size="10.00"> DerivedSolver, ForceEigen &gt;</text>
</a>
</g>
</g>
<!-- Node6&#45;&gt;Node7 -->
<g id="edge41_Node000006_Node000007" class="edge">
<title>Node6&#45;&gt;Node7</title>
<g id="a_edge41_Node000006_Node000007"><a xlink:title=" ">
<path fill="none" stroke="#63b8ff" d="M154.91,-32.24C163.27,-31.25 171.73,-30.26 179.98,-29.29"/>
<polygon fill="#63b8ff" stroke="#63b8ff" points="154.6,-28.75 145.08,-33.4 155.42,-35.7 154.6,-28.75"/>
</a>
</g>
</g>
</g>
</svg>
