<?xml version="1.0" encoding="UTF-8" standalone="no"?>
<!DOCTYPE svg PUBLIC "-//W3C//DTD SVG 1.1//EN"
 "http://www.w3.org/Graphics/SVG/1.1/DTD/svg11.dtd">
<!-- Generated by graphviz version 12.2.1 (20241206.2353)
 -->
<!-- Title: Graphical Class Hierarchy Pages: 1 -->
<svg width="430pt" height="50pt"
 viewBox="0.00 0.00 429.50 49.75" xmlns="http://www.w3.org/2000/svg" xmlns:xlink="http://www.w3.org/1999/xlink">
<g id="graph0" class="graph" transform="scale(1 1) rotate(0) translate(4 45.75)">
<title>Graphical Class Hierarchy</title>
<!-- Node0 -->
<g id="Node000000" class="node">
<title>Node0</title>
<g id="a_Node000000"><a xlink:href="class_optimist_1_1_function.html" target="_top" xlink:title=" ">
<polygon fill="white" stroke="#666666" points="104.5,-41.75 0,-41.75 0,0 104.5,0 104.5,-41.75"/>
<text text-anchor="start" x="8" y="-28.25" font-family="Helvetica,sans-Serif" font-size="10.00">Optimist::Function</text>
<text text-anchor="start" x="8" y="-17" font-family="Helvetica,sans-Serif" font-size="10.00">&lt; Real, N, M, Booth</text>
<text text-anchor="middle" x="52.25" y="-5.75" font-family="Helvetica,sans-Serif" font-size="10.00">&lt; Real &gt; &gt;</text>
</a>
</g>
</g>
<!-- Node1 -->
<g id="Node000001" class="node">
<title>Node1</title>
<g id="a_Node000001"><a xlink:href="class_optimist_1_1_vector_function.html" target="_top" xlink:title=" ">
<polygon fill="white" stroke="#666666" points="287,-36.12 140.5,-36.12 140.5,-5.62 287,-5.62 287,-36.12"/>
<text text-anchor="start" x="148.5" y="-22.62" font-family="Helvetica,sans-Serif" font-size="10.00">Optimist::VectorFunction</text>
<text text-anchor="middle" x="213.75" y="-11.38" font-family="Helvetica,sans-Serif" font-size="10.00">&lt; Real, 2, 2, Booth&lt; Real &gt; &gt;</text>
</a>
</g>
</g>
<!-- Node0&#45;&gt;Node1 -->
<g id="edge19_Node000000_Node000001" class="edge">
<title>Node0&#45;&gt;Node1</title>
<g id="a_edge19_Node000000_Node000001"><a xlink:title=" ">
<path fill="none" stroke="#63b8ff" d="M115.95,-20.88C123.85,-20.88 131.98,-20.88 140.01,-20.88"/>
<polygon fill="#63b8ff" stroke="#63b8ff" points="116.11,-17.38 106.11,-20.88 116.11,-24.38 116.11,-17.38"/>
</a>
</g>
</g>
<!-- Node2 -->
<g id="Node000002" class="node">
<title>Node2</title>
<g id="a_Node000002"><a xlink:href="class_optimist_1_1_test_set_1_1_booth.html" target="_top" xlink:title="Class container for the Booth function.">
<polygon fill="white" stroke="#666666" points="421.5,-36.12 323,-36.12 323,-5.62 421.5,-5.62 421.5,-36.12"/>
<text text-anchor="start" x="331" y="-22.62" font-family="Helvetica,sans-Serif" font-size="10.00">Optimist::TestSet::</text>
<text text-anchor="middle" x="372.25" y="-11.38" font-family="Helvetica,sans-Serif" font-size="10.00">Booth&lt; Real &gt;</text>
</a>
</g>
</g>
<!-- Node1&#45;&gt;Node2 -->
<g id="edge20_Node000001_Node000002" class="edge">
<title>Node1&#45;&gt;Node2</title>
<g id="a_edge20_Node000001_Node000002"><a xlink:title=" ">
<path fill="none" stroke="#63b8ff" d="M298.33,-20.88C306.59,-20.88 314.77,-20.88 322.51,-20.88"/>
<polygon fill="#63b8ff" stroke="#63b8ff" points="298.56,-17.38 288.56,-20.88 298.56,-24.38 298.56,-17.38"/>
</a>
</g>
</g>
</g>
</svg>
