<?xml version="1.0" encoding="UTF-8" standalone="no"?>
<!DOCTYPE svg PUBLIC "-//W3C//DTD SVG 1.1//EN"
 "http://www.w3.org/Graphics/SVG/1.1/DTD/svg11.dtd">
<!-- Generated by graphviz version 12.2.1 (20241206.2353)
 -->
<!-- Title: Graphical Class Hierarchy Pages: 1 -->
<svg width="462pt" height="39pt"
 viewBox="0.00 0.00 461.75 38.50" xmlns="http://www.w3.org/2000/svg" xmlns:xlink="http://www.w3.org/1999/xlink">
<g id="graph0" class="graph" transform="scale(1 1) rotate(0) translate(4 34.5)">
<title>Graphical Class Hierarchy</title>
<!-- Node0 -->
<g id="Node000000" class="node">
<title>Node0</title>
<g id="a_Node000000"><a xlink:href="class_optimist_1_1_solver.html" target="_top" xlink:title=" ">
<polygon fill="white" stroke="#666666" points="103.75,-30.5 0,-30.5 0,0 103.75,0 103.75,-30.5"/>
<text text-anchor="start" x="8" y="-17" font-family="Helvetica,sans-Serif" font-size="10.00">Optimist::Solver&lt; 1,</text>
<text text-anchor="middle" x="51.88" y="-5.75" font-family="Helvetica,sans-Serif" font-size="10.00"> 1, Halley &gt;</text>
</a>
</g>
</g>
<!-- Node1 -->
<g id="Node000001" class="node">
<title>Node1</title>
<g id="a_Node000001"><a xlink:href="class_optimist_1_1_scalar_root_finder_1_1_scalar_root_finder.html" target="_top" xlink:title=" ">
<polygon fill="white" stroke="#666666" points="283.25,-30.5 139.75,-30.5 139.75,0 283.25,0 283.25,-30.5"/>
<text text-anchor="start" x="147.75" y="-17" font-family="Helvetica,sans-Serif" font-size="10.00">Optimist::ScalarRootFinder</text>
<text text-anchor="middle" x="211.5" y="-5.75" font-family="Helvetica,sans-Serif" font-size="10.00">::ScalarRootFinder&lt; Halley &gt;</text>
</a>
</g>
</g>
<!-- Node0&#45;&gt;Node1 -->
<g id="edge37_Node000000_Node000001" class="edge">
<title>Node0&#45;&gt;Node1</title>
<g id="a_edge37_Node000000_Node000001"><a xlink:title=" ">
<path fill="none" stroke="#63b8ff" d="M115.44,-15.25C123.36,-15.25 131.5,-15.25 139.53,-15.25"/>
<polygon fill="#63b8ff" stroke="#63b8ff" points="115.56,-11.75 105.56,-15.25 115.56,-18.75 115.56,-11.75"/>
</a>
</g>
</g>
<!-- Node2 -->
<g id="Node000002" class="node">
<title>Node2</title>
<g id="a_Node000002"><a xlink:href="class_optimist_1_1_scalar_root_finder_1_1_halley.html" target="_top" xlink:title="Class container for the Halley&#39;s method.">
<polygon fill="white" stroke="#666666" points="453.75,-30.5 319.25,-30.5 319.25,0 453.75,0 453.75,-30.5"/>
<text text-anchor="start" x="327.25" y="-17" font-family="Helvetica,sans-Serif" font-size="10.00">Optimist::ScalarRootFinder</text>
<text text-anchor="middle" x="386.5" y="-5.75" font-family="Helvetica,sans-Serif" font-size="10.00">::Halley</text>
</a>
</g>
</g>
<!-- Node1&#45;&gt;Node2 -->
<g id="edge38_Node000001_Node000002" class="edge">
<title>Node1&#45;&gt;Node2</title>
<g id="a_edge38_Node000001_Node000002"><a xlink:title=" ">
<path fill="none" stroke="#63b8ff" d="M294.76,-15.25C302.86,-15.25 311.01,-15.25 318.92,-15.25"/>
<polygon fill="#63b8ff" stroke="#63b8ff" points="294.88,-11.75 284.88,-15.25 294.88,-18.75 294.88,-11.75"/>
</a>
</g>
</g>
</g>
</svg>
