<?xml version="1.0" encoding="UTF-8" standalone="no"?>
<!DOCTYPE svg PUBLIC "-//W3C//DTD SVG 1.1//EN"
 "http://www.w3.org/Graphics/SVG/1.1/DTD/svg11.dtd">
<!-- Generated by graphviz version 12.2.1 (20241206.2353)
 -->
<!-- Title: Graphical Class Hierarchy Pages: 1 -->
<svg width="508pt" height="110pt"
 viewBox="0.00 0.00 507.50 109.75" xmlns="http://www.w3.org/2000/svg" xmlns:xlink="http://www.w3.org/1999/xlink">
<g id="graph0" class="graph" transform="scale(1 1) rotate(0) translate(4 105.75)">
<title>Graphical Class Hierarchy</title>
<!-- Node0 -->
<g id="Node000000" class="node">
<title>Node0</title>
<g id="a_Node000000"><a xlink:href="class_optimist_1_1_solver.html" target="_top" xlink:title=" ">
<polygon fill="white" stroke="#666666" points="118.75,-66.12 0,-66.12 0,-35.62 118.75,-35.62 118.75,-66.12"/>
<text text-anchor="start" x="8" y="-52.62" font-family="Helvetica,sans-Serif" font-size="10.00">Optimist::Solver&lt; Real,</text>
<text text-anchor="middle" x="59.38" y="-41.38" font-family="Helvetica,sans-Serif" font-size="10.00"> 1, 1, DerivedSolver &gt;</text>
</a>
</g>
</g>
<!-- Node1 -->
<g id="Node000001" class="node">
<title>Node1</title>
<g id="a_Node000001"><a xlink:href="class_optimist_1_1_scalar_optimizer_1_1_scalar_optimizer.html" target="_top" xlink:title="Class container for the scalar optimizer.">
<polygon fill="white" stroke="#666666" points="286.25,-101.75 157.75,-101.75 157.75,-60 286.25,-60 286.25,-101.75"/>
<text text-anchor="start" x="165.75" y="-88.25" font-family="Helvetica,sans-Serif" font-size="10.00">Optimist::ScalarOptimizer</text>
<text text-anchor="start" x="165.75" y="-77" font-family="Helvetica,sans-Serif" font-size="10.00">::ScalarOptimizer&lt; Real,</text>
<text text-anchor="middle" x="222" y="-65.75" font-family="Helvetica,sans-Serif" font-size="10.00"> DerivedSolver &gt;</text>
</a>
</g>
</g>
<!-- Node0&#45;&gt;Node1 -->
<g id="edge39_Node000000_Node000001" class="edge">
<title>Node0&#45;&gt;Node1</title>
<g id="a_edge39_Node000000_Node000001"><a xlink:title=" ">
<path fill="none" stroke="#63b8ff" d="M129.87,-63.85C139.03,-65.57 148.39,-67.31 157.45,-69.01"/>
<polygon fill="#63b8ff" stroke="#63b8ff" points="130.78,-60.46 120.31,-62.07 129.49,-67.34 130.78,-60.46"/>
</a>
</g>
</g>
<!-- Node2 -->
<g id="Node000002" class="node">
<title>Node2</title>
<g id="a_Node000002"><a xlink:href="class_optimist_1_1_scalar_root_finder_1_1_scalar_root_finder.html" target="_top" xlink:title="Class container for the scalar scalar root&#45;finder.">
<polygon fill="white" stroke="#666666" points="289.25,-41.75 154.75,-41.75 154.75,0 289.25,0 289.25,-41.75"/>
<text text-anchor="start" x="162.75" y="-28.25" font-family="Helvetica,sans-Serif" font-size="10.00">Optimist::ScalarRootFinder</text>
<text text-anchor="start" x="162.75" y="-17" font-family="Helvetica,sans-Serif" font-size="10.00">::ScalarRootFinder&lt; Real,</text>
<text text-anchor="middle" x="222" y="-5.75" font-family="Helvetica,sans-Serif" font-size="10.00"> DerivedSolver &gt;</text>
</a>
</g>
</g>
<!-- Node0&#45;&gt;Node2 -->
<g id="edge40_Node000000_Node000002" class="edge">
<title>Node0&#45;&gt;Node2</title>
<g id="a_edge40_Node000000_Node000002"><a xlink:title=" ">
<path fill="none" stroke="#63b8ff" d="M130.1,-37.85C138.18,-36.34 146.4,-34.81 154.43,-33.31"/>
<polygon fill="#63b8ff" stroke="#63b8ff" points="129.49,-34.41 120.31,-39.68 130.78,-41.29 129.49,-34.41"/>
</a>
</g>
</g>
<!-- Node3 -->
<g id="Node000003" class="node">
<title>Node3</title>
<g id="a_Node000003"><a xlink:href="class_optimist_1_1_scalar_root_finder_1_1_bracketing.html" target="_top" xlink:title="Class container for the Bracketing algorithms.">
<polygon fill="white" stroke="#666666" points="499.5,-36.12 325.25,-36.12 325.25,-5.62 499.5,-5.62 499.5,-36.12"/>
<text text-anchor="start" x="333.25" y="-22.62" font-family="Helvetica,sans-Serif" font-size="10.00">Optimist::ScalarRootFinder</text>
<text text-anchor="middle" x="412.38" y="-11.38" font-family="Helvetica,sans-Serif" font-size="10.00">::Bracketing&lt; Real, DerivedSolver &gt;</text>
</a>
</g>
</g>
<!-- Node2&#45;&gt;Node3 -->
<g id="edge41_Node000002_Node000003" class="edge">
<title>Node2&#45;&gt;Node3</title>
<g id="a_edge41_Node000002_Node000003"><a xlink:title=" ">
<path fill="none" stroke="#63b8ff" d="M301.1,-20.88C308.98,-20.88 317.02,-20.88 324.99,-20.88"/>
<polygon fill="#63b8ff" stroke="#63b8ff" points="301.19,-17.38 291.19,-20.88 301.19,-24.38 301.19,-17.38"/>
</a>
</g>
</g>
</g>
</svg>
