<?xml version="1.0" encoding="UTF-8" standalone="no"?>
<!DOCTYPE svg PUBLIC "-//W3C//DTD SVG 1.1//EN"
 "http://www.w3.org/Graphics/SVG/1.1/DTD/svg11.dtd">
<!-- Generated by graphviz version 12.2.1 (20241206.2353)
 -->
<!-- Title: Graphical Class Hierarchy Pages: 1 -->
<svg width="587pt" height="50pt"
 viewBox="0.00 0.00 587.25 49.75" xmlns="http://www.w3.org/2000/svg" xmlns:xlink="http://www.w3.org/1999/xlink">
<g id="graph0" class="graph" transform="scale(1 1) rotate(0) translate(4 45.75)">
<title>Graphical Class Hierarchy</title>
<!-- Node0 -->
<g id="Node000000" class="node">
<title>Node0</title>
<g id="a_Node000000"><a xlink:href="class_optimist_1_1_solver_base.html" target="_top" xlink:title=" ">
<polygon fill="white" stroke="#666666" points="112.75,-41.75 0,-41.75 0,0 112.75,0 112.75,-41.75"/>
<text text-anchor="start" x="8" y="-28.25" font-family="Helvetica,sans-Serif" font-size="10.00">Optimist::SolverBase</text>
<text text-anchor="start" x="8" y="-17" font-family="Helvetica,sans-Serif" font-size="10.00">&lt; Real, N, N, Algo748</text>
<text text-anchor="middle" x="56.38" y="-5.75" font-family="Helvetica,sans-Serif" font-size="10.00">&lt; Real &gt;, false &gt;</text>
</a>
</g>
</g>
<!-- Node1 -->
<g id="Node000001" class="node">
<title>Node1</title>
<g id="a_Node000001"><a xlink:href="class_optimist_1_1_root_finder_1_1_root_finder.html" target="_top" xlink:title=" ">
<polygon fill="white" stroke="#666666" points="262.25,-41.75 148.75,-41.75 148.75,0 262.25,0 262.25,-41.75"/>
<text text-anchor="start" x="156.75" y="-28.25" font-family="Helvetica,sans-Serif" font-size="10.00">Optimist::RootFinder</text>
<text text-anchor="start" x="156.75" y="-17" font-family="Helvetica,sans-Serif" font-size="10.00">::RootFinder&lt; Real, 1,</text>
<text text-anchor="middle" x="205.5" y="-5.75" font-family="Helvetica,sans-Serif" font-size="10.00"> Algo748&lt; Real &gt; &gt;</text>
</a>
</g>
</g>
<!-- Node0&#45;&gt;Node1 -->
<g id="edge44_Node000000_Node000001" class="edge">
<title>Node0&#45;&gt;Node1</title>
<g id="a_edge44_Node000000_Node000001"><a xlink:title=" ">
<path fill="none" stroke="#63b8ff" d="M124.25,-20.88C132.29,-20.88 140.44,-20.88 148.31,-20.88"/>
<polygon fill="#63b8ff" stroke="#63b8ff" points="124.51,-17.38 114.51,-20.88 124.51,-24.38 124.51,-17.38"/>
</a>
</g>
</g>
<!-- Node2 -->
<g id="Node000002" class="node">
<title>Node2</title>
<g id="a_Node000002"><a xlink:href="class_optimist_1_1_root_finder_1_1_bracketing.html" target="_top" xlink:title=" ">
<polygon fill="white" stroke="#666666" points="436.5,-41.75 298.25,-41.75 298.25,0 436.5,0 436.5,-41.75"/>
<text text-anchor="start" x="306.25" y="-28.25" font-family="Helvetica,sans-Serif" font-size="10.00">Optimist::RootFinder</text>
<text text-anchor="start" x="306.25" y="-17" font-family="Helvetica,sans-Serif" font-size="10.00">::Bracketing&lt; Real, Algo748</text>
<text text-anchor="middle" x="367.38" y="-5.75" font-family="Helvetica,sans-Serif" font-size="10.00">&lt; Real &gt; &gt;</text>
</a>
</g>
</g>
<!-- Node1&#45;&gt;Node2 -->
<g id="edge45_Node000001_Node000002" class="edge">
<title>Node1&#45;&gt;Node2</title>
<g id="a_edge45_Node000001_Node000002"><a xlink:title=" ">
<path fill="none" stroke="#63b8ff" d="M273.87,-20.88C281.8,-20.88 289.89,-20.88 297.83,-20.88"/>
<polygon fill="#63b8ff" stroke="#63b8ff" points="273.93,-17.38 263.93,-20.88 273.93,-24.38 273.93,-17.38"/>
</a>
</g>
</g>
<!-- Node3 -->
<g id="Node000003" class="node">
<title>Node3</title>
<g id="a_Node000003"><a xlink:href="class_optimist_1_1_root_finder_1_1_algo748.html" target="_top" xlink:title="Class container for the Algorithm 748.">
<polygon fill="white" stroke="#666666" points="579.25,-36.12 472.5,-36.12 472.5,-5.62 579.25,-5.62 579.25,-36.12"/>
<text text-anchor="start" x="480.5" y="-22.62" font-family="Helvetica,sans-Serif" font-size="10.00">Optimist::RootFinder</text>
<text text-anchor="middle" x="525.88" y="-11.38" font-family="Helvetica,sans-Serif" font-size="10.00">::Algo748&lt; Real &gt;</text>
</a>
</g>
</g>
<!-- Node2&#45;&gt;Node3 -->
<g id="edge46_Node000002_Node000003" class="edge">
<title>Node2&#45;&gt;Node3</title>
<g id="a_edge46_Node000002_Node000003"><a xlink:title=" ">
<path fill="none" stroke="#63b8ff" d="M447.9,-20.88C456.22,-20.88 464.53,-20.88 472.45,-20.88"/>
<polygon fill="#63b8ff" stroke="#63b8ff" points="448.08,-17.38 438.08,-20.88 448.08,-24.38 448.08,-17.38"/>
</a>
</g>
</g>
</g>
</svg>
